<svg xmlns="http://www.w3.org/2000/svg" width="258" height="258" fill="none" viewBox="0 0 258 258"><g filter="url(#filter0_d)"><path fill="#684756" d="M204 0H54C26.3858 0 4 22.3858 4 50V200C4 227.614 26.3858 250 54 250H204C231.614 250 254 227.614 254 200V50C254 22.3858 231.614 0 204 0Z"/></g><g clip-path="url(#clip0)"><path fill="#fff" d="M147.838 123.004C146.61 122.003 144.82 122.21 143.84 123.466L136.64 132.706C136.238 133.221 136.02 133.861 136.02 134.519V194.526C136.02 196.132 137.293 197.435 138.865 197.435C140.436 197.435 141.709 196.132 141.709 194.526V135.537L148.29 127.093C149.269 125.836 149.067 124.006 147.838 123.004Z"/><path fill="#fff" d="M207.209 36.2375H202.66C201.924 36.2375 201.214 36.3496 200.538 36.5455C200.334 32.3372 196.932 28.975 192.767 28.975H185.009C180.713 28.975 177.217 32.5494 177.217 36.9435V64.8036H153.086V54.8927C153.086 48.0834 147.669 42.5437 141.011 42.5437C137.858 42.5437 134.984 43.7878 132.831 45.8194C130.703 42.2946 126.892 39.9399 122.552 39.9399C118.088 39.9399 114.185 42.4316 112.096 46.1247C109.964 44.1897 107.161 43.0111 104.093 43.0111C100.057 43.0111 96.48 45.0486 94.2865 48.1683C92.091 45.8586 89.0243 44.4197 85.6337 44.4197C78.9756 44.4197 73.5591 49.9594 73.5591 56.7688V64.4239C73.5591 64.5511 73.5648 64.6772 73.5686 64.8036H58.7823V56.5717C58.7823 54.9649 57.5086 53.6622 55.9375 53.6622C54.3664 53.6622 53.0927 54.9649 53.0927 56.5717V115.85C53.0927 117.035 52.1501 118 50.9909 118H43.2333C42.0745 118 41.1315 117.036 41.1315 115.85V36.9435C41.1315 35.7584 42.0741 34.794 43.2333 34.794H50.9913C52.1501 34.794 53.093 35.758 53.093 36.9435V44.1722C53.093 45.779 54.3668 47.0817 55.9379 47.0817C57.509 47.0817 58.7827 45.779 58.7827 44.1722V36.9435C58.7827 32.5498 55.2877 28.975 50.9913 28.975H43.2333C39.0684 28.975 35.6664 32.3372 35.4616 36.5455C34.786 36.3496 34.0763 36.2375 33.3405 36.2375H28.7914C24.495 36.2375 21 39.8123 21 44.206V108.587C21 112.981 24.495 116.556 28.7914 116.556H33.3409C34.0767 116.556 34.7868 116.444 35.462 116.248C35.6668 120.456 39.0688 123.818 43.2336 123.818H50.9917C55.2877 123.818 58.7831 120.244 58.7831 115.85V87.9892H74.5343V105.824C74.5343 112.727 76.7624 119.572 80.8077 125.098L82.79 127.805V194.525C82.79 196.132 84.0637 197.435 85.6348 197.435C87.2059 197.435 88.4796 196.132 88.4796 194.525V126.837C88.4796 126.208 88.2805 125.597 87.9122 125.093L85.3625 121.611C82.0488 117.085 80.2243 111.478 80.2243 105.824V87.9892H117.614C119.037 89.2597 120.73 90.2194 122.593 90.7656C116.682 95.9271 113.139 103.601 113.139 111.653V114.005C113.139 115.612 114.413 116.915 115.984 116.915C117.555 116.915 118.829 115.612 118.829 114.005V111.653C118.829 104.174 122.707 97.1083 128.951 93.2135L132.035 91.2901C132.038 91.2882 132.041 91.2855 132.045 91.2835H134.564C136.135 91.2835 137.408 89.9808 137.408 88.374C137.408 86.7672 136.135 85.4645 134.564 85.4645H126.183C122.128 85.4645 118.829 82.0907 118.829 77.9433C118.829 73.7959 122.128 70.4221 126.183 70.4221H146.424C152.119 70.4221 156.752 75.1607 156.752 80.9851V88.8721C156.752 97.5292 154.596 106.116 150.517 113.704C149.76 115.112 150.262 116.881 151.639 117.656C152.074 117.9 152.544 118.016 153.007 118.016C154.011 118.016 154.985 117.471 155.503 116.508C160.042 108.063 162.441 98.5072 162.441 88.8725V87.9896H177.218V115.85C177.218 120.244 180.713 123.819 185.01 123.819H192.768C196.933 123.819 200.335 120.456 200.54 116.248C201.215 116.444 201.925 116.556 202.661 116.556H207.21C211.506 116.556 215.002 112.982 215.002 108.588V44.206C215 39.8123 211.505 36.2375 207.209 36.2375V36.2375ZM33.3405 110.737H28.7914C27.6326 110.737 26.6897 109.773 26.6897 108.587V44.206C26.6897 43.0208 27.6322 42.0564 28.7914 42.0564H33.3409C34.4996 42.0564 35.4426 43.0205 35.4426 44.206V108.587C35.4422 109.772 34.4993 110.737 33.3405 110.737ZM97.7082 55.3602C97.7082 51.7598 100.572 48.8301 104.093 48.8301C107.614 48.8301 110.478 51.7594 110.478 55.3602V66.0144C110.478 69.6148 107.614 72.5444 104.093 72.5444C100.572 72.5444 97.7082 69.6152 97.7082 66.0144V55.3602ZM79.2491 56.7692C79.2491 53.1688 82.1133 50.2391 85.634 50.2391C89.1548 50.2391 92.019 53.1684 92.019 56.7692V64.4242C92.019 68.025 89.1548 70.9543 85.634 70.9543C82.1133 70.9543 79.2491 68.025 79.2491 64.4242V56.7692ZM58.7823 70.6226H75.1973C77.2915 74.2967 81.184 76.7729 85.6337 76.7729C88.9868 76.7729 92.0243 75.3667 94.214 73.1019C96.4008 76.2802 100.012 78.363 104.093 78.363C108.215 78.363 111.86 76.2379 114.039 73.0041C114.05 73.0014 114.061 72.9987 114.071 72.9956C113.471 74.5268 113.137 76.1953 113.137 77.9433C113.137 79.4205 113.377 80.8408 113.812 82.1702H58.7823V70.6226ZM116.167 69.4065V52.2889C116.167 48.6885 119.032 45.7589 122.552 45.7589C126.073 45.7589 128.937 48.6881 128.937 52.2889V64.6035H126.182C122.162 64.6035 118.562 66.4733 116.167 69.4065V69.4065ZM134.627 64.6035V54.8927C134.627 51.2923 137.491 48.3627 141.012 48.3627C144.533 48.3627 147.397 51.292 147.397 54.8927V64.6035H134.627ZM162.441 82.1702V80.9851C162.441 77.0569 161.08 73.4479 158.818 70.6226H177.218V82.1702H162.441ZM209.31 108.587C209.31 109.772 208.368 110.737 207.209 110.737H202.659C201.5 110.737 200.557 109.773 200.557 108.587V94.5092C200.557 92.9024 199.284 91.5997 197.713 91.5997C196.141 91.5997 194.868 92.9024 194.868 94.5092V115.85C194.868 117.035 193.925 117.999 192.766 117.999H185.008C183.849 117.999 182.906 117.035 182.906 115.85V36.9435C182.906 35.7584 183.849 34.794 185.008 34.794H192.766C193.925 34.794 194.868 35.758 194.868 36.9435V82.1101C194.868 83.7169 196.141 85.0196 197.713 85.0196C199.284 85.0196 200.557 83.7169 200.557 82.1101V44.206C200.557 43.0208 201.5 42.0564 202.659 42.0564H207.209C208.367 42.0564 209.31 43.0205 209.31 44.206V108.587Z"/></g><g clip-path="url(#clip1)"><path fill="#fff" d="M232.934 159.083C231.304 159.083 229.981 160.39 229.981 162C229.981 178.083 216.73 191.167 200.444 191.167C184.157 191.167 170.907 178.083 170.907 162C170.907 145.918 184.157 132.833 200.444 132.833C208.373 132.833 215.816 135.893 221.405 141.449C222.552 142.593 224.423 142.6 225.581 141.464C226.739 140.329 226.745 138.483 225.596 137.34C218.891 130.672 209.958 127 200.444 127C180.9 127 165 142.7 165 162C165 181.3 180.9 197 200.444 197C219.988 197 235.888 181.3 235.888 162C235.888 160.39 234.565 159.083 232.934 159.083Z"/><path fill="#fff" d="M212.259 159.083H203.398V150.333C203.398 148.723 202.074 147.417 200.444 147.417C198.814 147.417 197.49 148.723 197.49 150.333V159.083H188.629C186.999 159.083 185.676 160.39 185.676 162C185.676 163.61 186.999 164.917 188.629 164.917H197.49V173.667C197.49 175.277 198.814 176.583 200.444 176.583C202.074 176.583 203.398 175.277 203.398 173.667V164.917H212.259C213.889 164.917 215.212 163.61 215.212 162C215.212 160.39 213.889 159.083 212.259 159.083Z"/></g><path fill="#fff" d="M33.56 204.368C33.944 204.304 34.36 204.248 34.808 204.2C35.272 204.136 35.736 204.088 36.2 204.056C36.664 204.024 37.112 204 37.544 203.984C37.992 203.968 38.4 203.96 38.768 203.96C39.616 203.96 40.448 204.032 41.264 204.176C42.096 204.32 42.832 204.568 43.472 204.92C44.128 205.272 44.656 205.76 45.056 206.384C45.456 206.992 45.656 207.76 45.656 208.688C45.656 210.064 45.312 211.2 44.624 212.096C43.952 212.976 43.016 213.576 41.816 213.896L43.088 214.64L47.288 221H43.16L38.984 214.496L37.112 214.208V221H33.56V204.368ZM39.008 207.08C38.64 207.08 38.28 207.088 37.928 207.104C37.592 207.104 37.32 207.128 37.112 207.176V211.808H38.624C39.632 211.808 40.424 211.616 41 211.232C41.592 210.848 41.888 210.184 41.888 209.24C41.888 208.536 41.64 208 41.144 207.632C40.648 207.264 39.936 207.08 39.008 207.08ZM58.9181 219.848C58.3741 220.264 57.6301 220.624 56.6861 220.928C55.7581 221.216 54.7581 221.36 53.6861 221.36C51.5261 221.36 49.9421 220.768 48.9341 219.584C47.9261 218.4 47.4221 216.776 47.4221 214.712C47.4221 212.52 47.9901 210.864 49.1261 209.744C50.2621 208.608 51.8621 208.04 53.9261 208.04C54.5981 208.04 55.2621 208.128 55.9181 208.304C56.5741 208.464 57.1581 208.744 57.6701 209.144C58.1821 209.528 58.5901 210.056 58.8941 210.728C59.2141 211.384 59.3741 212.2 59.3741 213.176C59.3741 213.512 59.3501 213.88 59.3021 214.28C59.2701 214.68 59.2061 215.096 59.1101 215.528H50.7101C50.7901 216.616 51.1021 217.424 51.6461 217.952C52.2061 218.464 53.1101 218.72 54.3581 218.72C55.1101 218.72 55.7821 218.616 56.3741 218.408C56.9821 218.184 57.4461 217.96 57.7661 217.736L58.9181 219.848ZM53.8781 210.68C52.8861 210.68 52.1501 210.952 51.6701 211.496C51.1901 212.024 50.9101 212.704 50.8301 213.536H56.2541C56.3181 212.656 56.1581 211.96 55.7741 211.448C55.3901 210.936 54.7581 210.68 53.8781 210.68ZM73.6514 220.52C73.6514 222.376 73.1234 223.744 72.0674 224.624C71.0114 225.504 69.5154 225.944 67.5794 225.944C66.3314 225.944 65.3234 225.856 64.5554 225.68C63.8034 225.52 63.2194 225.336 62.8034 225.128C63.0114 224.488 63.1634 223.976 63.2594 223.592C63.3714 223.224 63.4514 222.944 63.4994 222.752C63.5474 222.56 63.5794 222.44 63.5954 222.392C63.6114 222.344 63.6194 222.32 63.6194 222.32C64.0034 222.512 64.4674 222.704 65.0114 222.896C65.5554 223.104 66.2194 223.208 67.0034 223.208C67.6594 223.208 68.2034 223.144 68.6354 223.016C69.0674 222.888 69.4114 222.696 69.6674 222.44C69.9234 222.2 70.0994 221.904 70.1954 221.552C70.3074 221.2 70.3634 220.808 70.3634 220.376V219.44H70.0754C69.7554 219.904 69.3154 220.232 68.7554 220.424C68.1954 220.616 67.4994 220.712 66.6674 220.712C64.9554 220.712 63.6674 220.24 62.8034 219.296C61.9554 218.352 61.5314 216.832 61.5314 214.736C61.5314 212.528 62.0914 210.864 63.2114 209.744C64.3474 208.624 66.0274 208.064 68.2514 208.064C69.4194 208.064 70.4594 208.144 71.3714 208.304C72.2994 208.448 73.0594 208.616 73.6514 208.808V220.52ZM67.4594 218.096C68.1954 218.096 68.7954 217.96 69.2594 217.688C69.7394 217.416 70.0834 217.08 70.2914 216.68V211.256C69.6994 211 68.9474 210.872 68.0354 210.872C67.0594 210.872 66.3074 211.16 65.7794 211.736C65.2514 212.312 64.9874 213.264 64.9874 214.592C64.9874 215.808 65.2114 216.696 65.6594 217.256C66.1074 217.816 66.7074 218.096 67.4594 218.096ZM77.5188 208.4H80.8788V221H77.5188V208.4ZM77.0148 205.256C77.0148 204.744 77.1988 204.32 77.5668 203.984C77.9348 203.632 78.4548 203.456 79.1268 203.456C79.8148 203.456 80.3588 203.632 80.7588 203.984C81.1588 204.336 81.3588 204.76 81.3588 205.256C81.3588 205.72 81.1588 206.12 80.7588 206.456C80.3588 206.792 79.8148 206.96 79.1268 206.96C78.4548 206.96 77.9348 206.792 77.5668 206.456C77.1988 206.12 77.0148 205.72 77.0148 205.256ZM84.704 217.736C84.928 217.848 85.184 217.96 85.472 218.072C85.776 218.184 86.096 218.288 86.432 218.384C86.784 218.48 87.136 218.56 87.488 218.624C87.856 218.688 88.224 218.72 88.592 218.72C89.152 218.72 89.584 218.632 89.888 218.456C90.208 218.28 90.368 217.952 90.368 217.472C90.368 217.088 90.16 216.808 89.744 216.632C89.328 216.44 88.816 216.256 88.208 216.08C87.76 215.952 87.288 215.8 86.792 215.624C86.312 215.448 85.864 215.216 85.448 214.928C85.048 214.624 84.712 214.232 84.44 213.752C84.184 213.272 84.056 212.664 84.056 211.928C84.056 210.664 84.448 209.704 85.232 209.048C86.016 208.376 87.144 208.04 88.616 208.04C89.576 208.04 90.472 208.128 91.304 208.304C92.152 208.464 92.832 208.656 93.344 208.88L92.648 211.424C92.232 211.264 91.696 211.104 91.04 210.944C90.4 210.768 89.744 210.68 89.072 210.68C88.512 210.68 88.096 210.768 87.824 210.944C87.552 211.104 87.416 211.392 87.416 211.808C87.416 212.176 87.624 212.456 88.04 212.648C88.472 212.824 88.992 213 89.6 213.176C90.048 213.304 90.512 213.456 90.992 213.632C91.488 213.792 91.936 214.016 92.336 214.304C92.736 214.592 93.064 214.968 93.32 215.432C93.592 215.88 93.728 216.448 93.728 217.136C93.728 218.48 93.288 219.52 92.408 220.256C91.544 220.992 90.24 221.36 88.496 221.36C87.552 221.36 86.672 221.272 85.856 221.096C85.04 220.936 84.376 220.696 83.864 220.376L84.704 217.736ZM94.7936 208.4H96.7136V206.672L100.074 205.784V208.4H103.458V211.208H100.074V215.576C100.074 216.584 100.17 217.312 100.362 217.76C100.57 218.192 100.97 218.408 101.562 218.408C101.93 218.408 102.242 218.384 102.498 218.336C102.754 218.272 103.026 218.176 103.314 218.048L104.01 220.568C103.498 220.792 102.906 220.984 102.234 221.144C101.578 221.304 100.938 221.384 100.314 221.384C99.0656 221.384 98.1536 221.08 97.5776 220.472C97.0016 219.848 96.7136 218.856 96.7136 217.496V211.208H94.7936V208.4ZM113.473 211.472C112.993 211.312 112.513 211.232 112.033 211.232C111.329 211.232 110.745 211.4 110.281 211.736C109.833 212.072 109.537 212.496 109.393 213.008V221H106.033V208.4H108.673L109.033 210.152H109.345C109.665 209.496 110.089 208.992 110.617 208.64C111.161 208.288 111.777 208.112 112.465 208.112C112.897 208.112 113.393 208.2 113.953 208.376L113.473 211.472ZM115.663 209.264C116.383 208.944 117.263 208.68 118.303 208.472C119.359 208.264 120.447 208.16 121.567 208.16C122.447 208.16 123.183 208.264 123.775 208.472C124.383 208.68 124.863 208.984 125.215 209.384C125.567 209.768 125.815 210.24 125.959 210.8C126.119 211.344 126.199 211.952 126.199 212.624C126.199 213.44 126.167 214.248 126.103 215.048C126.039 215.848 126.007 216.696 126.007 217.592C126.007 218.2 126.047 218.792 126.127 219.368C126.207 219.944 126.335 220.496 126.511 221.024H123.775L123.223 219.152H122.935C122.519 219.712 121.991 220.192 121.351 220.592C120.711 220.992 119.887 221.192 118.879 221.192C118.271 221.192 117.711 221.104 117.199 220.928C116.703 220.752 116.271 220.504 115.903 220.184C115.551 219.848 115.271 219.456 115.063 219.008C114.871 218.56 114.775 218.072 114.775 217.544C114.775 216.12 115.247 215.048 116.191 214.328C117.151 213.592 118.599 213.224 120.535 213.224C120.983 213.224 121.431 213.264 121.879 213.344C122.327 213.408 122.639 213.456 122.815 213.488C122.863 213.152 122.887 212.864 122.887 212.624C122.887 212.016 122.735 211.568 122.431 211.28C122.127 210.992 121.559 210.848 120.727 210.848C119.959 210.848 119.207 210.944 118.471 211.136C117.751 211.312 117.111 211.536 116.551 211.808L115.663 209.264ZM120.055 218.504C120.807 218.504 121.407 218.328 121.855 217.976C122.303 217.624 122.631 217.256 122.839 216.872V215.432C122.759 215.4 122.631 215.368 122.455 215.336C122.295 215.304 122.111 215.272 121.903 215.24C121.711 215.208 121.511 215.184 121.303 215.168C121.111 215.152 120.935 215.144 120.775 215.144C119.911 215.144 119.271 215.304 118.855 215.624C118.439 215.928 118.231 216.312 118.231 216.776C118.231 217.352 118.391 217.784 118.711 218.072C119.047 218.36 119.495 218.504 120.055 218.504ZM137.121 211.472C136.641 211.312 136.161 211.232 135.681 211.232C134.977 211.232 134.393 211.4 133.929 211.736C133.481 212.072 133.185 212.496 133.041 213.008V221H129.681V208.4H132.321L132.681 210.152H132.993C133.313 209.496 133.737 208.992 134.265 208.64C134.809 208.288 135.425 208.112 136.113 208.112C136.545 208.112 137.041 208.2 137.601 208.376L137.121 211.472ZM145.896 204.2H156.72V207.32H149.448V210.968H156.048V214.088H149.448V217.88H156.84V221H145.896V204.2ZM171.058 225.776H167.698V219.8H167.41C167.09 220.296 166.666 220.68 166.138 220.952C165.626 221.224 164.946 221.36 164.098 221.36C162.418 221.36 161.138 220.832 160.258 219.776C159.378 218.704 158.938 217.104 158.938 214.976C158.938 212.72 159.546 211.008 160.762 209.84C161.978 208.656 163.73 208.064 166.018 208.064C166.498 208.064 166.978 208.088 167.458 208.136C167.954 208.184 168.418 208.248 168.85 208.328C169.298 208.392 169.706 208.472 170.074 208.568C170.458 208.648 170.786 208.736 171.058 208.832V225.776ZM165.082 218.552C165.834 218.552 166.41 218.392 166.81 218.072C167.21 217.752 167.506 217.28 167.698 216.656V211.232C167.41 211.104 167.082 211.016 166.714 210.968C166.346 210.904 165.93 210.872 165.466 210.872C164.41 210.872 163.634 211.232 163.138 211.952C162.642 212.672 162.394 213.632 162.394 214.832C162.394 216.032 162.626 216.952 163.09 217.592C163.554 218.232 164.218 218.552 165.082 218.552ZM177.877 208.4V215.384C177.877 216.424 178.021 217.184 178.309 217.664C178.597 218.144 179.149 218.384 179.965 218.384C180.669 218.384 181.261 218.2 181.741 217.832C182.221 217.464 182.573 217 182.797 216.44V208.4H186.157V217.16C186.157 217.832 186.189 218.504 186.253 219.176C186.333 219.848 186.437 220.456 186.565 221H184.093L183.445 219.032H183.181C182.765 219.704 182.173 220.264 181.405 220.712C180.637 221.144 179.757 221.36 178.765 221.36C178.077 221.36 177.469 221.272 176.941 221.096C176.413 220.92 175.965 220.632 175.597 220.232C175.245 219.816 174.973 219.272 174.781 218.6C174.605 217.928 174.517 217.096 174.517 216.104V208.4H177.877ZM190.324 208.4H193.684V221H190.324V208.4ZM189.82 205.256C189.82 204.744 190.004 204.32 190.372 203.984C190.74 203.632 191.26 203.456 191.932 203.456C192.62 203.456 193.164 203.632 193.564 203.984C193.964 204.336 194.164 204.76 194.164 205.256C194.164 205.72 193.964 206.12 193.564 206.456C193.164 206.792 192.62 206.96 191.932 206.96C191.26 206.96 190.74 206.792 190.372 206.456C190.004 206.12 189.82 205.72 189.82 205.256ZM197.533 208.4H199.933L200.341 209.96H200.629C201.125 209.32 201.701 208.84 202.357 208.52C203.013 208.2 203.781 208.04 204.661 208.04C206.357 208.04 207.629 208.552 208.477 209.576C209.325 210.584 209.749 212.192 209.749 214.4C209.749 215.456 209.613 216.416 209.341 217.28C209.069 218.128 208.669 218.864 208.141 219.488C207.613 220.096 206.957 220.568 206.173 220.904C205.405 221.224 204.517 221.384 203.509 221.384C202.965 221.384 202.493 221.328 202.093 221.216C201.693 221.12 201.293 220.984 200.893 220.808V225.776H197.533V208.4ZM203.629 210.848C202.861 210.848 202.269 211.024 201.853 211.376C201.437 211.712 201.117 212.24 200.893 212.96V217.856C201.165 218.08 201.469 218.256 201.805 218.384C202.141 218.512 202.565 218.576 203.077 218.576C204.165 218.576 204.973 218.24 205.501 217.568C206.029 216.88 206.293 215.792 206.293 214.304C206.293 213.232 206.085 212.392 205.669 211.784C205.269 211.16 204.589 210.848 203.629 210.848ZM211.766 214.712C211.766 212.632 212.318 211 213.422 209.816C214.526 208.632 216.102 208.04 218.15 208.04C219.222 208.04 220.158 208.208 220.958 208.544C221.758 208.88 222.422 209.352 222.95 209.96C223.478 210.552 223.87 211.256 224.126 212.072C224.398 212.872 224.534 213.752 224.534 214.712C224.534 215.736 224.39 216.664 224.102 217.496C223.814 218.312 223.398 219.008 222.854 219.584C222.31 220.16 221.638 220.6 220.838 220.904C220.054 221.208 219.158 221.36 218.15 221.36C217.062 221.36 216.118 221.192 215.318 220.856C214.518 220.52 213.854 220.056 213.326 219.464C212.798 218.856 212.406 218.152 212.15 217.352C211.894 216.536 211.766 215.656 211.766 214.712ZM215.222 214.712C215.222 215.24 215.278 215.736 215.39 216.2C215.502 216.664 215.67 217.072 215.894 217.424C216.134 217.76 216.438 218.032 216.806 218.24C217.174 218.448 217.622 218.552 218.15 218.552C220.102 218.552 221.078 217.272 221.078 214.712C221.078 214.152 221.022 213.64 220.91 213.176C220.814 212.696 220.646 212.288 220.406 211.952C220.182 211.6 219.878 211.328 219.494 211.136C219.126 210.944 218.678 210.848 218.15 210.848C217.238 210.848 216.518 211.152 215.99 211.76C215.478 212.368 215.222 213.352 215.222 214.712Z"/><defs><filter id="filter0_d" width="258" height="258" x="0" y="0" color-interpolation-filters="sRGB" filterUnits="userSpaceOnUse"><feFlood flood-opacity="0" result="BackgroundImageFix"/><feColorMatrix in="SourceAlpha" type="matrix" values="0 0 0 0 0 0 0 0 0 0 0 0 0 0 0 0 0 0 127 0"/><feOffset dy="4"/><feGaussianBlur stdDeviation="2"/><feColorMatrix type="matrix" values="0 0 0 0 0 0 0 0 0 0 0 0 0 0 0 0 0 0 0.25 0"/><feBlend in2="BackgroundImageFix" mode="normal" result="effect1_dropShadow"/><feBlend in="SourceGraphic" in2="effect1_dropShadow" mode="normal" result="shape"/></filter><clipPath id="clip0"><rect width="194" height="198.41" fill="#fff" transform="translate(21 14)"/></clipPath><clipPath id="clip1"><rect width="70.888" height="70" fill="#fff" transform="translate(165 127)"/></clipPath></defs></svg>