<svg xmlns="http://www.w3.org/2000/svg" width="258" height="258" fill="none" viewBox="0 0 258 258"><g filter="url(#filter0_d)"><path fill="#31493C" d="M204 0H54C26.3858 0 4 22.3858 4 50V200C4 227.614 26.3858 250 54 250H204C231.614 250 254 227.614 254 200V50C254 22.3858 231.614 0 204 0Z"/></g><path fill="#fff" d="M24.56 214.368C24.944 214.304 25.36 214.248 25.808 214.2C26.272 214.136 26.736 214.088 27.2 214.056C27.664 214.024 28.112 214 28.544 213.984C28.992 213.968 29.4 213.96 29.768 213.96C30.616 213.96 31.448 214.032 32.264 214.176C33.096 214.32 33.832 214.568 34.472 214.92C35.128 215.272 35.656 215.76 36.056 216.384C36.456 216.992 36.656 217.76 36.656 218.688C36.656 220.064 36.312 221.2 35.624 222.096C34.952 222.976 34.016 223.576 32.816 223.896L34.088 224.64L38.288 231H34.16L29.984 224.496L28.112 224.208V231H24.56V214.368ZM30.008 217.08C29.64 217.08 29.28 217.088 28.928 217.104C28.592 217.104 28.32 217.128 28.112 217.176V221.808H29.624C30.632 221.808 31.424 221.616 32 221.232C32.592 220.848 32.888 220.184 32.888 219.24C32.888 218.536 32.64 218 32.144 217.632C31.648 217.264 30.936 217.08 30.008 217.08ZM49.9181 229.848C49.3741 230.264 48.6301 230.624 47.6861 230.928C46.7581 231.216 45.7581 231.36 44.6861 231.36C42.5261 231.36 40.9421 230.768 39.9341 229.584C38.9261 228.4 38.4221 226.776 38.4221 224.712C38.4221 222.52 38.9901 220.864 40.1261 219.744C41.2621 218.608 42.8621 218.04 44.9261 218.04C45.5981 218.04 46.2621 218.128 46.9181 218.304C47.5741 218.464 48.1581 218.744 48.6701 219.144C49.1821 219.528 49.5901 220.056 49.8941 220.728C50.2141 221.384 50.3741 222.2 50.3741 223.176C50.3741 223.512 50.3501 223.88 50.3021 224.28C50.2701 224.68 50.2061 225.096 50.1101 225.528H41.7101C41.7901 226.616 42.1021 227.424 42.6461 227.952C43.2061 228.464 44.1101 228.72 45.3581 228.72C46.1101 228.72 46.7821 228.616 47.3741 228.408C47.9821 228.184 48.4461 227.96 48.7661 227.736L49.9181 229.848ZM44.8781 220.68C43.8861 220.68 43.1501 220.952 42.6701 221.496C42.1901 222.024 41.9101 222.704 41.8301 223.536H47.2541C47.3181 222.656 47.1581 221.96 46.7741 221.448C46.3901 220.936 45.7581 220.68 44.8781 220.68ZM53.3921 218.4H55.7921L56.2001 219.96H56.4881C56.9841 219.32 57.5601 218.84 58.2161 218.52C58.8721 218.2 59.6401 218.04 60.5201 218.04C62.2161 218.04 63.4881 218.552 64.3361 219.576C65.1841 220.584 65.6081 222.192 65.6081 224.4C65.6081 225.456 65.4721 226.416 65.2001 227.28C64.9281 228.128 64.5281 228.864 64.0001 229.488C63.4721 230.096 62.8161 230.568 62.0321 230.904C61.2641 231.224 60.3761 231.384 59.3681 231.384C58.8241 231.384 58.3521 231.328 57.9521 231.216C57.5521 231.12 57.1521 230.984 56.7521 230.808V235.776H53.3921V218.4ZM59.4881 220.848C58.7201 220.848 58.1281 221.024 57.7121 221.376C57.2961 221.712 56.9761 222.24 56.7521 222.96V227.856C57.0241 228.08 57.3281 228.256 57.6641 228.384C58.0001 228.512 58.4241 228.576 58.9361 228.576C60.0241 228.576 60.8321 228.24 61.3601 227.568C61.8881 226.88 62.1521 225.792 62.1521 224.304C62.1521 223.232 61.9441 222.392 61.5281 221.784C61.1281 221.16 60.4481 220.848 59.4881 220.848ZM67.6252 224.712C67.6252 222.632 68.1772 221 69.2812 219.816C70.3852 218.632 71.9612 218.04 74.0092 218.04C75.0812 218.04 76.0172 218.208 76.8172 218.544C77.6172 218.88 78.2812 219.352 78.8092 219.96C79.3372 220.552 79.7292 221.256 79.9852 222.072C80.2572 222.872 80.3932 223.752 80.3932 224.712C80.3932 225.736 80.2492 226.664 79.9612 227.496C79.6732 228.312 79.2572 229.008 78.7132 229.584C78.1692 230.16 77.4972 230.6 76.6972 230.904C75.9132 231.208 75.0172 231.36 74.0092 231.36C72.9212 231.36 71.9772 231.192 71.1772 230.856C70.3772 230.52 69.7132 230.056 69.1852 229.464C68.6572 228.856 68.2652 228.152 68.0092 227.352C67.7532 226.536 67.6252 225.656 67.6252 224.712ZM71.0812 224.712C71.0812 225.24 71.1372 225.736 71.2492 226.2C71.3612 226.664 71.5292 227.072 71.7532 227.424C71.9932 227.76 72.2972 228.032 72.6652 228.24C73.0332 228.448 73.4812 228.552 74.0092 228.552C75.9612 228.552 76.9372 227.272 76.9372 224.712C76.9372 224.152 76.8812 223.64 76.7692 223.176C76.6732 222.696 76.5052 222.288 76.2652 221.952C76.0412 221.6 75.7372 221.328 75.3532 221.136C74.9852 220.944 74.5372 220.848 74.0092 220.848C73.0972 220.848 72.3772 221.152 71.8492 221.76C71.3372 222.368 71.0812 223.352 71.0812 224.712ZM90.5743 221.472C90.0943 221.312 89.6143 221.232 89.1343 221.232C88.4303 221.232 87.8463 221.4 87.3823 221.736C86.9343 222.072 86.6383 222.496 86.4943 223.008V231H83.1343V218.4H85.7743L86.1343 220.152H86.4463C86.7663 219.496 87.1903 218.992 87.7183 218.64C88.2623 218.288 88.8783 218.112 89.5663 218.112C89.9983 218.112 90.4943 218.2 91.0543 218.376L90.5743 221.472ZM92.192 218.4H94.112V216.672L97.472 215.784V218.4H100.856V221.208H97.472V225.576C97.472 226.584 97.568 227.312 97.76 227.76C97.968 228.192 98.368 228.408 98.96 228.408C99.328 228.408 99.64 228.384 99.896 228.336C100.152 228.272 100.424 228.176 100.712 228.048L101.408 230.568C100.896 230.792 100.304 230.984 99.632 231.144C98.976 231.304 98.336 231.384 97.712 231.384C96.464 231.384 95.552 231.08 94.976 230.472C94.4 229.848 94.112 228.856 94.112 227.496V221.208H92.192V218.4ZM114.067 229.848C113.523 230.264 112.779 230.624 111.835 230.928C110.907 231.216 109.907 231.36 108.835 231.36C106.675 231.36 105.091 230.768 104.083 229.584C103.075 228.4 102.571 226.776 102.571 224.712C102.571 222.52 103.139 220.864 104.275 219.744C105.411 218.608 107.011 218.04 109.075 218.04C109.747 218.04 110.411 218.128 111.067 218.304C111.723 218.464 112.307 218.744 112.819 219.144C113.331 219.528 113.739 220.056 114.043 220.728C114.363 221.384 114.523 222.2 114.523 223.176C114.523 223.512 114.499 223.88 114.451 224.28C114.419 224.68 114.355 225.096 114.259 225.528H105.859C105.939 226.616 106.251 227.424 106.795 227.952C107.355 228.464 108.259 228.72 109.507 228.72C110.259 228.72 110.931 228.616 111.523 228.408C112.131 228.184 112.595 227.96 112.915 227.736L114.067 229.848ZM109.027 220.68C108.035 220.68 107.299 220.952 106.819 221.496C106.339 222.024 106.059 222.704 105.979 223.536H111.403C111.467 222.656 111.307 221.96 110.923 221.448C110.539 220.936 109.907 220.68 109.027 220.68ZM135.645 226.584C135.645 227.256 135.653 227.952 135.669 228.672C135.685 229.392 135.757 230.176 135.885 231.024H133.557L133.077 229.272H132.765C132.397 229.912 131.869 230.424 131.181 230.808C130.509 231.176 129.701 231.36 128.757 231.36C127.077 231.36 125.773 230.84 124.845 229.8C123.917 228.744 123.453 227.12 123.453 224.928C123.453 223.872 123.581 222.92 123.837 222.072C124.109 221.224 124.501 220.504 125.013 219.912C125.541 219.32 126.189 218.864 126.957 218.544C127.725 218.224 128.613 218.064 129.621 218.064C130.181 218.064 130.661 218.112 131.061 218.208C131.477 218.288 131.885 218.392 132.285 218.52V214.2H135.645V226.584ZM129.621 228.552C130.373 228.552 130.957 228.384 131.373 228.048C131.789 227.696 132.093 227.2 132.285 226.56V221.52C131.997 221.296 131.685 221.136 131.349 221.04C131.029 220.928 130.605 220.872 130.077 220.872C129.005 220.872 128.205 221.184 127.677 221.808C127.165 222.432 126.909 223.504 126.909 225.024C126.909 226.08 127.125 226.936 127.557 227.592C128.005 228.232 128.693 228.552 129.621 228.552ZM150.02 229.848C149.476 230.264 148.732 230.624 147.788 230.928C146.86 231.216 145.86 231.36 144.788 231.36C142.628 231.36 141.044 230.768 140.036 229.584C139.028 228.4 138.524 226.776 138.524 224.712C138.524 222.52 139.092 220.864 140.228 219.744C141.364 218.608 142.964 218.04 145.028 218.04C145.7 218.04 146.364 218.128 147.02 218.304C147.676 218.464 148.26 218.744 148.772 219.144C149.284 219.528 149.692 220.056 149.996 220.728C150.316 221.384 150.476 222.2 150.476 223.176C150.476 223.512 150.452 223.88 150.404 224.28C150.372 224.68 150.308 225.096 150.212 225.528H141.812C141.892 226.616 142.204 227.424 142.748 227.952C143.308 228.464 144.212 228.72 145.46 228.72C146.212 228.72 146.884 228.616 147.476 228.408C148.084 228.184 148.548 227.96 148.868 227.736L150.02 229.848ZM144.98 220.68C143.988 220.68 143.252 220.952 142.772 221.496C142.292 222.024 142.012 222.704 141.932 223.536H147.356C147.42 222.656 147.26 221.96 146.876 221.448C146.492 220.936 145.86 220.68 144.98 220.68ZM159.958 214.2H170.782V217.32H163.51V221.232H170.206V224.352H163.51V231H159.958V214.2ZM173.225 219.264C173.945 218.944 174.825 218.68 175.865 218.472C176.921 218.264 178.009 218.16 179.129 218.16C180.009 218.16 180.745 218.264 181.337 218.472C181.945 218.68 182.425 218.984 182.777 219.384C183.129 219.768 183.377 220.24 183.521 220.8C183.681 221.344 183.761 221.952 183.761 222.624C183.761 223.44 183.729 224.248 183.665 225.048C183.601 225.848 183.569 226.696 183.569 227.592C183.569 228.2 183.609 228.792 183.689 229.368C183.769 229.944 183.897 230.496 184.073 231.024H181.337L180.785 229.152H180.497C180.081 229.712 179.553 230.192 178.913 230.592C178.273 230.992 177.449 231.192 176.441 231.192C175.833 231.192 175.273 231.104 174.761 230.928C174.265 230.752 173.833 230.504 173.465 230.184C173.113 229.848 172.833 229.456 172.625 229.008C172.433 228.56 172.337 228.072 172.337 227.544C172.337 226.12 172.809 225.048 173.753 224.328C174.713 223.592 176.161 223.224 178.097 223.224C178.545 223.224 178.993 223.264 179.441 223.344C179.889 223.408 180.201 223.456 180.377 223.488C180.425 223.152 180.449 222.864 180.449 222.624C180.449 222.016 180.297 221.568 179.993 221.28C179.689 220.992 179.121 220.848 178.289 220.848C177.521 220.848 176.769 220.944 176.033 221.136C175.313 221.312 174.673 221.536 174.113 221.808L173.225 219.264ZM177.617 228.504C178.369 228.504 178.969 228.328 179.417 227.976C179.865 227.624 180.193 227.256 180.401 226.872V225.432C180.321 225.4 180.193 225.368 180.017 225.336C179.857 225.304 179.673 225.272 179.465 225.24C179.273 225.208 179.073 225.184 178.865 225.168C178.673 225.152 178.497 225.144 178.337 225.144C177.473 225.144 176.833 225.304 176.417 225.624C176.001 225.928 175.793 226.312 175.793 226.776C175.793 227.352 175.953 227.784 176.273 228.072C176.609 228.36 177.057 228.504 177.617 228.504ZM190.676 226.584C190.676 227.8 191.068 228.408 191.852 228.408C192.076 228.408 192.284 228.392 192.476 228.36C192.684 228.312 192.924 228.24 193.196 228.144L193.604 230.76C193.284 230.904 192.828 231.04 192.236 231.168C191.66 231.312 191.06 231.384 190.436 231.384C189.428 231.384 188.652 231.16 188.108 230.712C187.58 230.264 187.316 229.528 187.316 228.504V214.2H190.676V226.584ZM198.762 226.584C198.762 227.8 199.154 228.408 199.938 228.408C200.162 228.408 200.37 228.392 200.562 228.36C200.77 228.312 201.01 228.24 201.282 228.144L201.69 230.76C201.37 230.904 200.914 231.04 200.322 231.168C199.746 231.312 199.146 231.384 198.522 231.384C197.514 231.384 196.738 231.16 196.194 230.712C195.666 230.264 195.402 229.528 195.402 228.504V214.2H198.762V226.584ZM203.296 219.264C204.016 218.944 204.896 218.68 205.936 218.472C206.992 218.264 208.08 218.16 209.2 218.16C210.08 218.16 210.816 218.264 211.408 218.472C212.016 218.68 212.496 218.984 212.848 219.384C213.2 219.768 213.448 220.24 213.592 220.8C213.752 221.344 213.832 221.952 213.832 222.624C213.832 223.44 213.8 224.248 213.736 225.048C213.672 225.848 213.64 226.696 213.64 227.592C213.64 228.2 213.68 228.792 213.76 229.368C213.84 229.944 213.968 230.496 214.144 231.024H211.408L210.856 229.152H210.568C210.152 229.712 209.624 230.192 208.984 230.592C208.344 230.992 207.52 231.192 206.512 231.192C205.904 231.192 205.344 231.104 204.832 230.928C204.336 230.752 203.904 230.504 203.536 230.184C203.184 229.848 202.904 229.456 202.696 229.008C202.504 228.56 202.408 228.072 202.408 227.544C202.408 226.12 202.88 225.048 203.824 224.328C204.784 223.592 206.232 223.224 208.168 223.224C208.616 223.224 209.064 223.264 209.512 223.344C209.96 223.408 210.272 223.456 210.448 223.488C210.496 223.152 210.52 222.864 210.52 222.624C210.52 222.016 210.368 221.568 210.064 221.28C209.76 220.992 209.192 220.848 208.36 220.848C207.592 220.848 206.84 220.944 206.104 221.136C205.384 221.312 204.744 221.536 204.184 221.808L203.296 219.264ZM207.688 228.504C208.44 228.504 209.04 228.328 209.488 227.976C209.936 227.624 210.264 227.256 210.472 226.872V225.432C210.392 225.4 210.264 225.368 210.088 225.336C209.928 225.304 209.744 225.272 209.536 225.24C209.344 225.208 209.144 225.184 208.936 225.168C208.744 225.152 208.568 225.144 208.408 225.144C207.544 225.144 206.904 225.304 206.488 225.624C206.072 225.928 205.864 226.312 205.864 226.776C205.864 227.352 206.024 227.784 206.344 228.072C206.68 228.36 207.128 228.504 207.688 228.504ZM217.29 227.736C217.514 227.848 217.77 227.96 218.058 228.072C218.362 228.184 218.682 228.288 219.018 228.384C219.37 228.48 219.722 228.56 220.074 228.624C220.442 228.688 220.81 228.72 221.178 228.72C221.738 228.72 222.17 228.632 222.474 228.456C222.794 228.28 222.954 227.952 222.954 227.472C222.954 227.088 222.746 226.808 222.33 226.632C221.914 226.44 221.402 226.256 220.794 226.08C220.346 225.952 219.874 225.8 219.378 225.624C218.898 225.448 218.45 225.216 218.034 224.928C217.634 224.624 217.298 224.232 217.026 223.752C216.77 223.272 216.642 222.664 216.642 221.928C216.642 220.664 217.034 219.704 217.818 219.048C218.602 218.376 219.73 218.04 221.202 218.04C222.162 218.04 223.058 218.128 223.89 218.304C224.738 218.464 225.418 218.656 225.93 218.88L225.234 221.424C224.818 221.264 224.282 221.104 223.626 220.944C222.986 220.768 222.33 220.68 221.658 220.68C221.098 220.68 220.682 220.768 220.41 220.944C220.138 221.104 220.002 221.392 220.002 221.808C220.002 222.176 220.21 222.456 220.626 222.648C221.058 222.824 221.578 223 222.186 223.176C222.634 223.304 223.098 223.456 223.578 223.632C224.074 223.792 224.522 224.016 224.922 224.304C225.322 224.592 225.65 224.968 225.906 225.432C226.178 225.88 226.314 226.448 226.314 227.136C226.314 228.48 225.874 229.52 224.994 230.256C224.13 230.992 222.826 231.36 221.082 231.36C220.138 231.36 219.258 231.272 218.442 231.096C217.626 230.936 216.962 230.696 216.45 230.376L217.29 227.736Z"/><g clip-path="url(#clip0)"><path fill="#fff" d="M216.355 157.951C199.209 140.194 200.334 141.319 199.851 140.95L154.466 106.245L172.073 88.0117C186.228 93.2359 202.254 89.6242 213.04 78.4532C224.791 66.2828 227.876 47.676 220.716 32.1531C219.047 28.5364 214.419 27.7172 211.686 30.5488L197.172 45.5811C194.984 47.8465 191.426 47.8469 189.237 45.5811C187.044 43.3098 187.044 39.6346 189.237 37.3633L203.751 22.3307C206.488 19.4967 205.692 14.7047 202.202 12.9787C187.214 5.56309 169.249 8.7578 157.498 20.9278C146.71 32.1016 143.227 48.701 148.269 63.3578L127.964 84.3857C123.83 81.0554 129.285 86.7438 90.3485 43.9826L94.4302 39.7551C97.0119 37.0816 96.4738 32.605 93.3496 30.6635L63.2993 11.9893C55.4221 7.09418 45.3845 8.37377 38.8887 15.1015C32.3933 21.8288 31.1574 32.2256 35.8838 40.3837L53.9142 71.5073C55.7918 74.7493 60.1159 75.2949 62.6924 72.6264L66.5418 68.6396C105.277 111.18 100.179 105.401 103.241 109.479C103.313 109.576 103.394 109.661 103.471 109.752L85.4664 128.398C71.3157 123.175 55.2874 126.783 44.4996 137.956C32.7488 150.127 29.6642 168.733 36.8245 184.257C38.4936 187.874 43.1205 188.692 45.8545 185.861L60.3685 170.828C62.557 168.562 66.1156 168.563 68.3033 170.828C70.4963 173.099 70.4963 176.775 68.3033 179.046L53.7885 194.079C51.0519 196.913 51.8481 201.705 55.3375 203.431C60.7247 206.096 66.495 207.391 72.2249 207.391C82.4357 207.391 92.5141 203.278 100.041 195.482C110.83 184.308 114.313 167.709 109.27 153.051L124.647 137.127L160.448 182.188C160.72 182.53 159.822 181.577 175.834 198.161C181.663 204.198 189.413 207.328 197.033 207.328C202.625 207.328 208.147 205.641 212.785 202.182C226.94 191.623 228.609 170.642 216.355 157.951ZM70.7417 56.313C68.5667 53.9248 64.9205 53.8829 62.6924 56.191L59.8387 59.1462L45.5057 34.4042C43.4336 30.8274 43.9751 26.269 46.8232 23.3192C49.6713 20.369 54.0725 19.8087 57.5256 21.9548L81.4146 36.7999L78.5609 39.7547C76.4151 41.9771 76.3642 45.564 78.4464 47.8504C123.186 96.9836 116.148 89.5901 119.967 92.667L111.453 101.485C108.51 97.5657 115.343 105.295 70.7417 56.313ZM98.6866 147.577C97.0051 149.319 96.5663 151.968 97.5915 154.191C102.706 165.279 100.501 178.569 92.107 187.263C86.7288 192.833 79.53 195.772 72.2346 195.772C70.9224 195.772 69.6076 195.677 68.2992 195.484L76.2374 187.263C82.8155 180.45 82.8166 169.423 76.2374 162.609C69.675 155.812 58.9961 155.813 52.4337 162.609L44.4955 170.831C43.2802 161.943 46.0887 152.745 52.4337 146.174C60.8283 137.479 73.6605 135.197 84.366 140.493C86.5114 141.555 89.0696 141.101 90.7518 139.359L158.853 68.8315C160.534 67.09 160.973 64.4401 159.948 62.2177C154.834 51.1303 157.038 37.8392 165.433 29.1452C171.779 22.5729 180.659 19.6645 189.24 20.9236L181.302 29.1452C178.122 32.4376 176.371 36.8158 176.371 41.4722C176.371 46.1286 178.122 50.5061 181.302 53.7992C187.864 60.5963 198.543 60.5959 205.105 53.7992L213.043 45.5776C214.259 54.4653 211.45 63.6631 205.105 70.2347C196.711 78.9291 183.878 81.2119 173.173 75.9153C171.028 74.8539 168.469 75.3081 166.787 77.0496L98.6866 147.577ZM132.595 128.895L146.443 114.555L160.555 125.347L143.694 142.81C132.23 128.381 132.945 129.251 132.595 128.895ZM206.227 192.752C199.683 197.633 190.027 196.427 183.768 189.943L168.939 174.586L150.857 151.827L169.684 132.327L192.848 150.04L208.42 166.169C215.538 173.54 215.08 186.148 206.227 192.752Z"/><path fill="#fff" d="M200.388 173.386L177.946 150.142C175.755 147.873 172.203 147.873 170.011 150.142C167.82 152.411 167.82 156.09 170.011 158.36L192.454 181.604C194.645 183.872 198.197 183.873 200.388 181.604C202.58 179.334 202.58 175.655 200.388 173.386Z"/></g><defs><filter id="filter0_d" width="258" height="258" x="0" y="0" color-interpolation-filters="sRGB" filterUnits="userSpaceOnUse"><feFlood flood-opacity="0" result="BackgroundImageFix"/><feColorMatrix in="SourceAlpha" type="matrix" values="0 0 0 0 0 0 0 0 0 0 0 0 0 0 0 0 0 0 127 0"/><feOffset dy="4"/><feGaussianBlur stdDeviation="2"/><feColorMatrix type="matrix" values="0 0 0 0 0 0 0 0 0 0 0 0 0 0 0 0 0 0 0.25 0"/><feBlend in2="BackgroundImageFix" mode="normal" result="effect1_dropShadow"/><feBlend in="SourceGraphic" in2="effect1_dropShadow" mode="normal" result="shape"/></filter><clipPath id="clip0"><rect width="191.57" height="198.41" fill="#fff" transform="translate(33 9)"/></clipPath></defs></svg>