<svg xmlns="http://www.w3.org/2000/svg" width="258" height="258" fill="none" viewBox="0 0 258 258"><g clip-path="url(#clip0)" filter="url(#filter0_d)"><g filter="url(#filter1_d)"><rect width="250" height="250" x="4" fill="#989572" rx="50"/></g><path fill="#fff" d="M43.56 211.368C43.944 211.304 44.36 211.248 44.808 211.2C45.272 211.136 45.736 211.088 46.2 211.056C46.664 211.024 47.112 211 47.544 210.984C47.992 210.968 48.4 210.96 48.768 210.96C49.616 210.96 50.448 211.032 51.264 211.176C52.096 211.32 52.832 211.568 53.472 211.92C54.128 212.272 54.656 212.76 55.056 213.384C55.456 213.992 55.656 214.76 55.656 215.688C55.656 217.064 55.312 218.2 54.624 219.096C53.952 219.976 53.016 220.576 51.816 220.896L53.088 221.64L57.288 228H53.16L48.984 221.496L47.112 221.208V228H43.56V211.368ZM49.008 214.08C48.64 214.08 48.28 214.088 47.928 214.104C47.592 214.104 47.32 214.128 47.112 214.176V218.808H48.624C49.632 218.808 50.424 218.616 51 218.232C51.592 217.848 51.888 217.184 51.888 216.24C51.888 215.536 51.64 215 51.144 214.632C50.648 214.264 49.936 214.08 49.008 214.08ZM68.9181 226.848C68.3741 227.264 67.6301 227.624 66.6861 227.928C65.7581 228.216 64.7581 228.36 63.6861 228.36C61.5261 228.36 59.9421 227.768 58.9341 226.584C57.9261 225.4 57.4221 223.776 57.4221 221.712C57.4221 219.52 57.9901 217.864 59.1261 216.744C60.2621 215.608 61.8621 215.04 63.9261 215.04C64.5981 215.04 65.2621 215.128 65.9181 215.304C66.5741 215.464 67.1581 215.744 67.6701 216.144C68.1821 216.528 68.5901 217.056 68.8941 217.728C69.2141 218.384 69.3741 219.2 69.3741 220.176C69.3741 220.512 69.3501 220.88 69.3021 221.28C69.2701 221.68 69.2061 222.096 69.1101 222.528H60.7101C60.7901 223.616 61.1021 224.424 61.6461 224.952C62.2061 225.464 63.1101 225.72 64.3581 225.72C65.1101 225.72 65.7821 225.616 66.3741 225.408C66.9821 225.184 67.4461 224.96 67.7661 224.736L68.9181 226.848ZM63.8781 217.68C62.8861 217.68 62.1501 217.952 61.6701 218.496C61.1901 219.024 60.9101 219.704 60.8301 220.536H66.2541C66.3181 219.656 66.1581 218.96 65.7741 218.448C65.3901 217.936 64.7581 217.68 63.8781 217.68ZM72.3921 215.4H74.7921L75.2001 216.96H75.4881C75.9841 216.32 76.5601 215.84 77.2161 215.52C77.8721 215.2 78.6401 215.04 79.5201 215.04C81.2161 215.04 82.4881 215.552 83.3361 216.576C84.1841 217.584 84.6081 219.192 84.6081 221.4C84.6081 222.456 84.4721 223.416 84.2001 224.28C83.9281 225.128 83.5281 225.864 83.0001 226.488C82.4721 227.096 81.8161 227.568 81.0321 227.904C80.2641 228.224 79.3761 228.384 78.3681 228.384C77.8241 228.384 77.3521 228.328 76.9521 228.216C76.5521 228.12 76.1521 227.984 75.7521 227.808V232.776H72.3921V215.4ZM78.4881 217.848C77.7201 217.848 77.1281 218.024 76.7121 218.376C76.2961 218.712 75.9761 219.24 75.7521 219.96V224.856C76.0241 225.08 76.3281 225.256 76.6641 225.384C77.0001 225.512 77.4241 225.576 77.9361 225.576C79.0241 225.576 79.8321 225.24 80.3601 224.568C80.8881 223.88 81.1521 222.792 81.1521 221.304C81.1521 220.232 80.9441 219.392 80.5281 218.784C80.1281 218.16 79.4481 217.848 78.4881 217.848ZM86.6252 221.712C86.6252 219.632 87.1772 218 88.2812 216.816C89.3852 215.632 90.9612 215.04 93.0092 215.04C94.0812 215.04 95.0172 215.208 95.8172 215.544C96.6172 215.88 97.2812 216.352 97.8092 216.96C98.3372 217.552 98.7292 218.256 98.9852 219.072C99.2572 219.872 99.3932 220.752 99.3932 221.712C99.3932 222.736 99.2492 223.664 98.9612 224.496C98.6732 225.312 98.2572 226.008 97.7132 226.584C97.1692 227.16 96.4972 227.6 95.6972 227.904C94.9132 228.208 94.0172 228.36 93.0092 228.36C91.9212 228.36 90.9772 228.192 90.1772 227.856C89.3772 227.52 88.7132 227.056 88.1852 226.464C87.6572 225.856 87.2652 225.152 87.0092 224.352C86.7532 223.536 86.6252 222.656 86.6252 221.712ZM90.0812 221.712C90.0812 222.24 90.1372 222.736 90.2492 223.2C90.3612 223.664 90.5292 224.072 90.7532 224.424C90.9932 224.76 91.2972 225.032 91.6652 225.24C92.0332 225.448 92.4812 225.552 93.0092 225.552C94.9612 225.552 95.9372 224.272 95.9372 221.712C95.9372 221.152 95.8812 220.64 95.7692 220.176C95.6732 219.696 95.5052 219.288 95.2652 218.952C95.0412 218.6 94.7372 218.328 94.3532 218.136C93.9852 217.944 93.5372 217.848 93.0092 217.848C92.0972 217.848 91.3772 218.152 90.8492 218.76C90.3372 219.368 90.0812 220.352 90.0812 221.712ZM109.574 218.472C109.094 218.312 108.614 218.232 108.134 218.232C107.43 218.232 106.846 218.4 106.382 218.736C105.934 219.072 105.638 219.496 105.494 220.008V228H102.134V215.4H104.774L105.134 217.152H105.446C105.766 216.496 106.19 215.992 106.718 215.64C107.262 215.288 107.878 215.112 108.566 215.112C108.998 215.112 109.494 215.2 110.054 215.376L109.574 218.472ZM111.192 215.4H113.112V213.672L116.472 212.784V215.4H119.856V218.208H116.472V222.576C116.472 223.584 116.568 224.312 116.76 224.76C116.968 225.192 117.368 225.408 117.96 225.408C118.328 225.408 118.64 225.384 118.896 225.336C119.152 225.272 119.424 225.176 119.712 225.048L120.408 227.568C119.896 227.792 119.304 227.984 118.632 228.144C117.976 228.304 117.336 228.384 116.712 228.384C115.464 228.384 114.552 228.08 113.976 227.472C113.4 226.848 113.112 225.856 113.112 224.496V218.208H111.192V215.4ZM122.311 216.264C123.031 215.944 123.911 215.68 124.951 215.472C126.007 215.264 127.095 215.16 128.215 215.16C129.095 215.16 129.831 215.264 130.423 215.472C131.031 215.68 131.511 215.984 131.863 216.384C132.215 216.768 132.463 217.24 132.607 217.8C132.767 218.344 132.847 218.952 132.847 219.624C132.847 220.44 132.815 221.248 132.751 222.048C132.687 222.848 132.655 223.696 132.655 224.592C132.655 225.2 132.695 225.792 132.775 226.368C132.855 226.944 132.983 227.496 133.159 228.024H130.423L129.871 226.152H129.583C129.167 226.712 128.639 227.192 127.999 227.592C127.359 227.992 126.535 228.192 125.527 228.192C124.919 228.192 124.359 228.104 123.847 227.928C123.351 227.752 122.919 227.504 122.551 227.184C122.199 226.848 121.919 226.456 121.711 226.008C121.519 225.56 121.423 225.072 121.423 224.544C121.423 223.12 121.895 222.048 122.839 221.328C123.799 220.592 125.247 220.224 127.183 220.224C127.631 220.224 128.079 220.264 128.527 220.344C128.975 220.408 129.287 220.456 129.463 220.488C129.511 220.152 129.535 219.864 129.535 219.624C129.535 219.016 129.383 218.568 129.079 218.28C128.775 217.992 128.207 217.848 127.375 217.848C126.607 217.848 125.855 217.944 125.119 218.136C124.399 218.312 123.759 218.536 123.199 218.808L122.311 216.264ZM126.703 225.504C127.455 225.504 128.055 225.328 128.503 224.976C128.951 224.624 129.279 224.256 129.487 223.872V222.432C129.407 222.4 129.279 222.368 129.103 222.336C128.943 222.304 128.759 222.272 128.551 222.24C128.359 222.208 128.159 222.184 127.951 222.168C127.759 222.152 127.583 222.144 127.423 222.144C126.559 222.144 125.919 222.304 125.503 222.624C125.087 222.928 124.879 223.312 124.879 223.776C124.879 224.352 125.039 224.784 125.359 225.072C125.695 225.36 126.143 225.504 126.703 225.504ZM143.77 218.472C143.29 218.312 142.81 218.232 142.33 218.232C141.626 218.232 141.042 218.4 140.578 218.736C140.13 219.072 139.834 219.496 139.69 220.008V228H136.33V215.4H138.97L139.33 217.152H139.642C139.962 216.496 140.386 215.992 140.914 215.64C141.458 215.288 142.074 215.112 142.762 215.112C143.194 215.112 143.69 215.2 144.25 215.376L143.77 218.472ZM152.544 211.2H163.368V214.32H156.096V218.232H162.792V221.352H156.096V228H152.544V211.2ZM165.811 216.264C166.531 215.944 167.411 215.68 168.451 215.472C169.507 215.264 170.595 215.16 171.715 215.16C172.595 215.16 173.331 215.264 173.923 215.472C174.531 215.68 175.011 215.984 175.363 216.384C175.715 216.768 175.963 217.24 176.107 217.8C176.267 218.344 176.347 218.952 176.347 219.624C176.347 220.44 176.315 221.248 176.251 222.048C176.187 222.848 176.155 223.696 176.155 224.592C176.155 225.2 176.195 225.792 176.275 226.368C176.355 226.944 176.483 227.496 176.659 228.024H173.923L173.371 226.152H173.083C172.667 226.712 172.139 227.192 171.499 227.592C170.859 227.992 170.035 228.192 169.027 228.192C168.419 228.192 167.859 228.104 167.347 227.928C166.851 227.752 166.419 227.504 166.051 227.184C165.699 226.848 165.419 226.456 165.211 226.008C165.019 225.56 164.923 225.072 164.923 224.544C164.923 223.12 165.395 222.048 166.339 221.328C167.299 220.592 168.747 220.224 170.683 220.224C171.131 220.224 171.579 220.264 172.027 220.344C172.475 220.408 172.787 220.456 172.963 220.488C173.011 220.152 173.035 219.864 173.035 219.624C173.035 219.016 172.883 218.568 172.579 218.28C172.275 217.992 171.707 217.848 170.875 217.848C170.107 217.848 169.355 217.944 168.619 218.136C167.899 218.312 167.259 218.536 166.699 218.808L165.811 216.264ZM170.203 225.504C170.955 225.504 171.555 225.328 172.003 224.976C172.451 224.624 172.779 224.256 172.987 223.872V222.432C172.907 222.4 172.779 222.368 172.603 222.336C172.443 222.304 172.259 222.272 172.051 222.24C171.859 222.208 171.659 222.184 171.451 222.168C171.259 222.152 171.083 222.144 170.923 222.144C170.059 222.144 169.419 222.304 169.003 222.624C168.587 222.928 168.379 223.312 168.379 223.776C168.379 224.352 168.539 224.784 168.859 225.072C169.195 225.36 169.643 225.504 170.203 225.504ZM183.262 223.584C183.262 224.8 183.654 225.408 184.438 225.408C184.662 225.408 184.87 225.392 185.062 225.36C185.27 225.312 185.51 225.24 185.782 225.144L186.19 227.76C185.87 227.904 185.414 228.04 184.822 228.168C184.246 228.312 183.646 228.384 183.022 228.384C182.014 228.384 181.238 228.16 180.694 227.712C180.166 227.264 179.902 226.528 179.902 225.504V211.2H183.262V223.584ZM191.348 223.584C191.348 224.8 191.74 225.408 192.523 225.408C192.748 225.408 192.956 225.392 193.148 225.36C193.356 225.312 193.596 225.24 193.868 225.144L194.276 227.76C193.956 227.904 193.5 228.04 192.908 228.168C192.332 228.312 191.732 228.384 191.108 228.384C190.1 228.384 189.324 228.16 188.78 227.712C188.252 227.264 187.988 226.528 187.988 225.504V211.2H191.348V223.584ZM195.881 216.264C196.601 215.944 197.481 215.68 198.521 215.472C199.577 215.264 200.665 215.16 201.785 215.16C202.665 215.16 203.401 215.264 203.993 215.472C204.601 215.68 205.081 215.984 205.433 216.384C205.785 216.768 206.033 217.24 206.177 217.8C206.337 218.344 206.417 218.952 206.417 219.624C206.417 220.44 206.385 221.248 206.321 222.048C206.257 222.848 206.225 223.696 206.225 224.592C206.225 225.2 206.265 225.792 206.345 226.368C206.425 226.944 206.553 227.496 206.729 228.024H203.993L203.441 226.152H203.153C202.737 226.712 202.209 227.192 201.569 227.592C200.929 227.992 200.105 228.192 199.097 228.192C198.489 228.192 197.929 228.104 197.417 227.928C196.921 227.752 196.489 227.504 196.121 227.184C195.769 226.848 195.489 226.456 195.281 226.008C195.089 225.56 194.993 225.072 194.993 224.544C194.993 223.12 195.465 222.048 196.409 221.328C197.369 220.592 198.817 220.224 200.753 220.224C201.201 220.224 201.649 220.264 202.097 220.344C202.545 220.408 202.857 220.456 203.033 220.488C203.081 220.152 203.105 219.864 203.105 219.624C203.105 219.016 202.953 218.568 202.649 218.28C202.345 217.992 201.777 217.848 200.945 217.848C200.177 217.848 199.425 217.944 198.689 218.136C197.969 218.312 197.329 218.536 196.769 218.808L195.881 216.264ZM200.273 225.504C201.025 225.504 201.625 225.328 202.073 224.976C202.521 224.624 202.849 224.256 203.057 223.872V222.432C202.977 222.4 202.849 222.368 202.673 222.336C202.513 222.304 202.329 222.272 202.121 222.24C201.929 222.208 201.729 222.184 201.521 222.168C201.329 222.152 201.153 222.144 200.993 222.144C200.129 222.144 199.489 222.304 199.073 222.624C198.657 222.928 198.449 223.312 198.449 223.776C198.449 224.352 198.609 224.784 198.929 225.072C199.265 225.36 199.713 225.504 200.273 225.504Z"/><g clip-path="url(#clip1)"><path fill="#fff" d="M134.782 135.974C129.427 135.974 124.937 140.624 124.937 146.171C124.937 151.718 129.427 156.367 134.782 156.367C139.941 156.367 144.627 151.718 144.391 146.415C144.627 140.583 140.178 135.974 134.782 135.974Z"/><path fill="#fff" d="M225.908 172.111C232.091 161.058 232.13 147.884 225.987 136.871L164.318 26.259C158.214 15.1244 147.187 8.517 134.822 8.517C122.456 8.517 111.43 15.1652 105.326 26.2182L43.578 136.953C37.4346 148.088 37.474 161.343 43.6961 172.396C49.8394 183.327 60.8265 189.893 73.1131 189.893H196.294C208.62 189.893 219.686 183.245 225.908 172.111ZM212.519 164.117C209.093 170.234 203.028 173.864 196.255 173.864H73.0737C66.3791 173.864 60.3539 170.316 57.0066 164.32C53.6199 158.243 53.5805 150.983 56.9672 144.865L118.715 34.1715C122.063 28.0944 128.048 24.5052 134.822 24.5052C141.556 24.5052 147.581 28.1352 150.928 34.2123L212.637 144.906C215.945 150.861 215.906 158.039 212.519 164.117Z"/><path fill="#fff" d="M132.341 64.3941C127.655 65.7809 124.74 70.1858 124.74 75.5288C124.977 78.7509 125.174 82.0138 125.41 85.2359C126.079 97.5126 126.749 109.545 127.418 121.821C127.655 125.981 130.766 129 134.782 129C138.799 129 141.95 125.777 142.147 121.576C142.147 119.048 142.147 116.723 142.383 114.153C142.816 106.282 143.289 98.4099 143.722 90.5381C143.958 85.4398 144.391 80.3415 144.628 75.2433C144.628 73.4079 144.391 71.7764 143.722 70.145C141.713 65.5769 137.027 63.2521 132.341 64.3941Z"/></g></g><defs><filter id="filter0_d" width="258" height="258" x="0" y="0" color-interpolation-filters="sRGB" filterUnits="userSpaceOnUse"><feFlood flood-opacity="0" result="BackgroundImageFix"/><feColorMatrix in="SourceAlpha" type="matrix" values="0 0 0 0 0 0 0 0 0 0 0 0 0 0 0 0 0 0 127 0"/><feOffset dy="4"/><feGaussianBlur stdDeviation="2"/><feColorMatrix type="matrix" values="0 0 0 0 0 0 0 0 0 0 0 0 0 0 0 0 0 0 0.25 0"/><feBlend in2="BackgroundImageFix" mode="normal" result="effect1_dropShadow"/><feBlend in="SourceGraphic" in2="effect1_dropShadow" mode="normal" result="shape"/></filter><filter id="filter1_d" width="258" height="258" x="0" y="0" color-interpolation-filters="sRGB" filterUnits="userSpaceOnUse"><feFlood flood-opacity="0" result="BackgroundImageFix"/><feColorMatrix in="SourceAlpha" type="matrix" values="0 0 0 0 0 0 0 0 0 0 0 0 0 0 0 0 0 0 127 0"/><feOffset dy="4"/><feGaussianBlur stdDeviation="2"/><feColorMatrix type="matrix" values="0 0 0 0 0 0 0 0 0 0 0 0 0 0 0 0 0 0 0.25 0"/><feBlend in2="BackgroundImageFix" mode="normal" result="effect1_dropShadow"/><feBlend in="SourceGraphic" in2="effect1_dropShadow" mode="normal" result="shape"/></filter><clipPath id="clip0"><rect width="250" height="250" fill="#fff" transform="translate(4)"/></clipPath><clipPath id="clip1"><rect width="191.57" height="198.41" fill="#fff" transform="translate(39)"/></clipPath></defs></svg>