<svg xmlns="http://www.w3.org/2000/svg" width="258" height="258" fill="none" viewBox="0 0 258 258"><g filter="url(#filter0_d)"><path fill="#A46682" d="M204 0H54C26.3858 0 4 22.3858 4 50V200C4 227.614 26.3858 250 54 250H204C231.614 250 254 227.614 254 200V50C254 22.3858 231.614 0 204 0Z"/></g><path fill="#fff" d="M42.584 217.424H36.92L35.552 221H32L38.576 204.08H41.192L47.792 221H44.024L42.584 217.424ZM37.904 214.616H41.744L40.448 211.112L39.872 208.448H39.752L39.176 211.136L37.904 214.616ZM60.9969 216.584C60.9969 217.256 61.0049 217.952 61.0209 218.672C61.0369 219.392 61.1089 220.176 61.2369 221.024H58.9089L58.4289 219.272H58.1169C57.7489 219.912 57.2209 220.424 56.5329 220.808C55.8609 221.176 55.0529 221.36 54.1089 221.36C52.4289 221.36 51.1249 220.84 50.1969 219.8C49.2689 218.744 48.8049 217.12 48.8049 214.928C48.8049 213.872 48.9329 212.92 49.1889 212.072C49.4609 211.224 49.8529 210.504 50.3649 209.912C50.8929 209.32 51.5409 208.864 52.3089 208.544C53.0769 208.224 53.9649 208.064 54.9729 208.064C55.5329 208.064 56.0129 208.112 56.4129 208.208C56.8289 208.288 57.2369 208.392 57.6369 208.52V204.2H60.9969V216.584ZM54.9729 218.552C55.7249 218.552 56.3089 218.384 56.7249 218.048C57.1409 217.696 57.4449 217.2 57.6369 216.56V211.52C57.3489 211.296 57.0369 211.136 56.7009 211.04C56.3809 210.928 55.9569 210.872 55.4289 210.872C54.3569 210.872 53.5569 211.184 53.0289 211.808C52.5169 212.432 52.2609 213.504 52.2609 215.024C52.2609 216.08 52.4769 216.936 52.9089 217.592C53.3569 218.232 54.0449 218.552 54.9729 218.552ZM72.4672 221V214.424C72.4672 213.208 72.3392 212.336 72.0832 211.808C71.8272 211.28 71.2992 211.016 70.4992 211.016C69.8272 211.016 69.2912 211.184 68.8912 211.52C68.4912 211.84 68.1792 212.264 67.9552 212.792V221H64.5952V208.4H67.1872L67.5712 210.152H67.8832C68.0912 209.88 68.3312 209.616 68.6032 209.36C68.8752 209.104 69.1712 208.88 69.4912 208.688C69.8272 208.496 70.1952 208.344 70.5952 208.232C71.0112 208.104 71.4752 208.04 71.9872 208.04C72.8352 208.04 73.5392 208.232 74.0992 208.616C74.6752 208.984 75.1312 209.608 75.4672 210.488C75.9312 209.72 76.4912 209.12 77.1472 208.688C77.8192 208.256 78.5952 208.04 79.4752 208.04C80.2432 208.04 80.8912 208.128 81.4192 208.304C81.9632 208.48 82.4032 208.784 82.7392 209.216C83.0752 209.648 83.3152 210.232 83.4592 210.968C83.6192 211.704 83.6992 212.624 83.6992 213.728V221H80.3392V214.256C80.3392 213.728 80.3152 213.264 80.2672 212.864C80.2192 212.464 80.1232 212.128 79.9792 211.856C79.8352 211.568 79.6272 211.36 79.3552 211.232C79.0992 211.088 78.7552 211.016 78.3232 211.016C77.6512 211.016 77.1072 211.192 76.6912 211.544C76.2912 211.88 76.0032 212.352 75.8272 212.96V221H72.4672ZM87.5735 208.4H90.9335V221H87.5735V208.4ZM87.0695 205.256C87.0695 204.744 87.2535 204.32 87.6215 203.984C87.9895 203.632 88.5095 203.456 89.1815 203.456C89.8695 203.456 90.4135 203.632 90.8135 203.984C91.2135 204.336 91.4135 204.76 91.4135 205.256C91.4135 205.72 91.2135 206.12 90.8135 206.456C90.4135 206.792 89.8695 206.96 89.1815 206.96C88.5095 206.96 87.9895 206.792 87.6215 206.456C87.2535 206.12 87.0695 205.72 87.0695 205.256ZM103.279 221V214.088C103.279 213 103.111 212.216 102.775 211.736C102.439 211.256 101.847 211.016 100.999 211.016C100.279 211.016 99.6627 211.216 99.1507 211.616C98.6547 212 98.3107 212.496 98.1187 213.104C98.1187 214.416 98.1187 215.736 98.1187 217.064C98.1347 218.376 98.1427 219.688 98.1427 221H94.7827V208.4H97.4227L97.7827 210.2H98.1427C98.5587 209.608 99.1107 209.104 99.7987 208.688C100.487 208.256 101.383 208.04 102.487 208.04C103.159 208.04 103.751 208.128 104.263 208.304C104.791 208.464 105.223 208.752 105.559 209.168C105.911 209.568 106.175 210.112 106.351 210.8C106.543 211.488 106.639 212.352 106.639 213.392V221H103.279ZM110.495 208.4H113.855V221H110.495V208.4ZM109.991 205.256C109.991 204.744 110.175 204.32 110.543 203.984C110.911 203.632 111.431 203.456 112.103 203.456C112.791 203.456 113.335 203.632 113.735 203.984C114.135 204.336 114.335 204.76 114.335 205.256C114.335 205.72 114.135 206.12 113.735 206.456C113.335 206.792 112.791 206.96 112.103 206.96C111.431 206.96 110.911 206.792 110.543 206.456C110.175 206.12 109.991 205.72 109.991 205.256ZM117.681 217.736C117.905 217.848 118.161 217.96 118.449 218.072C118.753 218.184 119.073 218.288 119.409 218.384C119.761 218.48 120.113 218.56 120.465 218.624C120.833 218.688 121.201 218.72 121.569 218.72C122.129 218.72 122.561 218.632 122.865 218.456C123.185 218.28 123.345 217.952 123.345 217.472C123.345 217.088 123.137 216.808 122.721 216.632C122.305 216.44 121.793 216.256 121.185 216.08C120.737 215.952 120.265 215.8 119.769 215.624C119.289 215.448 118.841 215.216 118.425 214.928C118.025 214.624 117.689 214.232 117.417 213.752C117.161 213.272 117.033 212.664 117.033 211.928C117.033 210.664 117.425 209.704 118.209 209.048C118.993 208.376 120.121 208.04 121.593 208.04C122.553 208.04 123.449 208.128 124.281 208.304C125.129 208.464 125.809 208.656 126.321 208.88L125.625 211.424C125.209 211.264 124.673 211.104 124.017 210.944C123.377 210.768 122.721 210.68 122.049 210.68C121.489 210.68 121.073 210.768 120.801 210.944C120.529 211.104 120.393 211.392 120.393 211.808C120.393 212.176 120.601 212.456 121.017 212.648C121.449 212.824 121.969 213 122.577 213.176C123.025 213.304 123.489 213.456 123.969 213.632C124.465 213.792 124.913 214.016 125.313 214.304C125.713 214.592 126.041 214.968 126.297 215.432C126.569 215.88 126.705 216.448 126.705 217.136C126.705 218.48 126.265 219.52 125.385 220.256C124.521 220.992 123.217 221.36 121.473 221.36C120.529 221.36 119.649 221.272 118.833 221.096C118.017 220.936 117.353 220.696 116.841 220.376L117.681 217.736ZM127.77 208.4H129.69V206.672L133.05 205.784V208.4H136.434V211.208H133.05V215.576C133.05 216.584 133.146 217.312 133.338 217.76C133.546 218.192 133.946 218.408 134.538 218.408C134.906 218.408 135.218 218.384 135.474 218.336C135.73 218.272 136.002 218.176 136.29 218.048L136.986 220.568C136.474 220.792 135.882 220.984 135.21 221.144C134.554 221.304 133.914 221.384 133.29 221.384C132.042 221.384 131.13 221.08 130.554 220.472C129.978 219.848 129.69 218.856 129.69 217.496V211.208H127.77V208.4ZM146.449 211.472C145.969 211.312 145.489 211.232 145.009 211.232C144.305 211.232 143.721 211.4 143.257 211.736C142.809 212.072 142.513 212.496 142.369 213.008V221H139.009V208.4H141.649L142.009 210.152H142.321C142.641 209.496 143.065 208.992 143.593 208.64C144.137 208.288 144.753 208.112 145.441 208.112C145.873 208.112 146.369 208.2 146.929 208.376L146.449 211.472ZM148.639 209.264C149.359 208.944 150.239 208.68 151.279 208.472C152.335 208.264 153.423 208.16 154.543 208.16C155.423 208.16 156.159 208.264 156.751 208.472C157.359 208.68 157.839 208.984 158.191 209.384C158.543 209.768 158.791 210.24 158.935 210.8C159.095 211.344 159.175 211.952 159.175 212.624C159.175 213.44 159.143 214.248 159.079 215.048C159.015 215.848 158.983 216.696 158.983 217.592C158.983 218.2 159.023 218.792 159.103 219.368C159.183 219.944 159.311 220.496 159.487 221.024H156.751L156.199 219.152H155.911C155.495 219.712 154.967 220.192 154.327 220.592C153.687 220.992 152.863 221.192 151.855 221.192C151.247 221.192 150.687 221.104 150.175 220.928C149.679 220.752 149.247 220.504 148.879 220.184C148.527 219.848 148.247 219.456 148.039 219.008C147.847 218.56 147.751 218.072 147.751 217.544C147.751 216.12 148.223 215.048 149.167 214.328C150.127 213.592 151.575 213.224 153.511 213.224C153.959 213.224 154.407 213.264 154.855 213.344C155.303 213.408 155.615 213.456 155.791 213.488C155.839 213.152 155.863 212.864 155.863 212.624C155.863 212.016 155.711 211.568 155.407 211.28C155.103 210.992 154.535 210.848 153.703 210.848C152.935 210.848 152.183 210.944 151.447 211.136C150.727 211.312 150.087 211.536 149.527 211.808L148.639 209.264ZM153.031 218.504C153.783 218.504 154.383 218.328 154.831 217.976C155.279 217.624 155.607 217.256 155.815 216.872V215.432C155.735 215.4 155.607 215.368 155.431 215.336C155.271 215.304 155.087 215.272 154.879 215.24C154.687 215.208 154.487 215.184 154.279 215.168C154.087 215.152 153.911 215.144 153.751 215.144C152.887 215.144 152.247 215.304 151.831 215.624C151.415 215.928 151.207 216.312 151.207 216.776C151.207 217.352 151.367 217.784 151.687 218.072C152.023 218.36 152.471 218.504 153.031 218.504ZM170.098 211.472C169.618 211.312 169.138 211.232 168.658 211.232C167.954 211.232 167.37 211.4 166.906 211.736C166.458 212.072 166.162 212.496 166.018 213.008V221H162.658V208.4H165.298L165.658 210.152H165.97C166.29 209.496 166.714 208.992 167.242 208.64C167.786 208.288 168.402 208.112 169.09 208.112C169.522 208.112 170.018 208.2 170.578 208.376L170.098 211.472ZM190.871 207.32H185.543V221H181.991V207.32H176.663V204.2H190.871V207.32ZM190.03 209.264C190.75 208.944 191.63 208.68 192.67 208.472C193.726 208.264 194.814 208.16 195.934 208.16C196.814 208.16 197.55 208.264 198.142 208.472C198.75 208.68 199.23 208.984 199.582 209.384C199.934 209.768 200.182 210.24 200.326 210.8C200.486 211.344 200.566 211.952 200.566 212.624C200.566 213.44 200.534 214.248 200.47 215.048C200.406 215.848 200.374 216.696 200.374 217.592C200.374 218.2 200.414 218.792 200.494 219.368C200.574 219.944 200.702 220.496 200.878 221.024H198.142L197.59 219.152H197.302C196.886 219.712 196.358 220.192 195.718 220.592C195.078 220.992 194.254 221.192 193.246 221.192C192.638 221.192 192.078 221.104 191.566 220.928C191.07 220.752 190.638 220.504 190.27 220.184C189.918 219.848 189.638 219.456 189.43 219.008C189.238 218.56 189.142 218.072 189.142 217.544C189.142 216.12 189.614 215.048 190.558 214.328C191.518 213.592 192.966 213.224 194.902 213.224C195.35 213.224 195.798 213.264 196.246 213.344C196.694 213.408 197.006 213.456 197.182 213.488C197.23 213.152 197.254 212.864 197.254 212.624C197.254 212.016 197.102 211.568 196.798 211.28C196.494 210.992 195.926 210.848 195.094 210.848C194.326 210.848 193.574 210.944 192.838 211.136C192.118 211.312 191.478 211.536 190.918 211.808L190.03 209.264ZM194.422 218.504C195.174 218.504 195.774 218.328 196.222 217.976C196.67 217.624 196.998 217.256 197.206 216.872V215.432C197.126 215.4 196.998 215.368 196.822 215.336C196.662 215.304 196.478 215.272 196.27 215.24C196.078 215.208 195.878 215.184 195.67 215.168C195.478 215.152 195.302 215.144 195.142 215.144C194.278 215.144 193.638 215.304 193.222 215.624C192.806 215.928 192.598 216.312 192.598 216.776C192.598 217.352 192.758 217.784 193.078 218.072C193.414 218.36 193.862 218.504 194.422 218.504ZM215.448 220.52C215.448 222.376 214.92 223.744 213.864 224.624C212.808 225.504 211.312 225.944 209.376 225.944C208.128 225.944 207.12 225.856 206.352 225.68C205.6 225.52 205.016 225.336 204.6 225.128C204.808 224.488 204.96 223.976 205.056 223.592C205.168 223.224 205.248 222.944 205.296 222.752C205.344 222.56 205.376 222.44 205.392 222.392C205.408 222.344 205.416 222.32 205.416 222.32C205.8 222.512 206.264 222.704 206.808 222.896C207.352 223.104 208.016 223.208 208.8 223.208C209.456 223.208 210 223.144 210.432 223.016C210.864 222.888 211.208 222.696 211.464 222.44C211.72 222.2 211.896 221.904 211.992 221.552C212.104 221.2 212.16 220.808 212.16 220.376V219.44H211.872C211.552 219.904 211.112 220.232 210.552 220.424C209.992 220.616 209.296 220.712 208.464 220.712C206.752 220.712 205.464 220.24 204.6 219.296C203.752 218.352 203.328 216.832 203.328 214.736C203.328 212.528 203.888 210.864 205.008 209.744C206.144 208.624 207.824 208.064 210.048 208.064C211.216 208.064 212.256 208.144 213.168 208.304C214.096 208.448 214.856 208.616 215.448 208.808V220.52ZM209.256 218.096C209.992 218.096 210.592 217.96 211.056 217.688C211.536 217.416 211.88 217.08 212.088 216.68V211.256C211.496 211 210.744 210.872 209.832 210.872C208.856 210.872 208.104 211.16 207.576 211.736C207.048 212.312 206.784 213.264 206.784 214.592C206.784 215.808 207.008 216.696 207.456 217.256C207.904 217.816 208.504 218.096 209.256 218.096ZM218.884 217.736C219.108 217.848 219.364 217.96 219.652 218.072C219.956 218.184 220.276 218.288 220.612 218.384C220.964 218.48 221.316 218.56 221.668 218.624C222.036 218.688 222.404 218.72 222.772 218.72C223.332 218.72 223.764 218.632 224.068 218.456C224.388 218.28 224.548 217.952 224.548 217.472C224.548 217.088 224.34 216.808 223.924 216.632C223.508 216.44 222.996 216.256 222.388 216.08C221.94 215.952 221.468 215.8 220.972 215.624C220.492 215.448 220.044 215.216 219.628 214.928C219.228 214.624 218.892 214.232 218.62 213.752C218.364 213.272 218.236 212.664 218.236 211.928C218.236 210.664 218.628 209.704 219.412 209.048C220.196 208.376 221.324 208.04 222.796 208.04C223.756 208.04 224.652 208.128 225.484 208.304C226.332 208.464 227.012 208.656 227.524 208.88L226.828 211.424C226.412 211.264 225.876 211.104 225.22 210.944C224.58 210.768 223.924 210.68 223.252 210.68C222.692 210.68 222.276 210.768 222.004 210.944C221.732 211.104 221.596 211.392 221.596 211.808C221.596 212.176 221.804 212.456 222.22 212.648C222.652 212.824 223.172 213 223.78 213.176C224.228 213.304 224.692 213.456 225.172 213.632C225.668 213.792 226.116 214.016 226.516 214.304C226.916 214.592 227.244 214.968 227.5 215.432C227.772 215.88 227.908 216.448 227.908 217.136C227.908 218.48 227.468 219.52 226.588 220.256C225.724 220.992 224.42 221.36 222.676 221.36C221.732 221.36 220.852 221.272 220.036 221.096C219.22 220.936 218.556 220.696 218.044 220.376L218.884 217.736Z"/><g clip-path="url(#clip0)"><path fill="#fff" d="M184.662 37.9409H124.176C120.347 37.9409 116.671 39.2406 113.962 41.5505L35.2309 108.68C29.5897 113.49 29.5897 121.289 35.2309 126.106L95.7168 177.688C101.358 182.498 110.502 182.498 116.144 177.688L194.875 110.558C197.584 108.242 199.108 105.107 199.108 101.836V50.2605C199.108 43.4539 192.643 37.9409 184.662 37.9409ZM159.381 81.0593C153.4 81.0593 148.546 76.9199 148.546 71.8196C148.546 66.7194 153.4 62.58 159.381 62.58C165.362 62.58 170.216 66.7194 170.216 71.8196C170.216 76.9199 165.362 81.0593 159.381 81.0593Z"/><path fill="#fff" d="M213.554 50.2604L213.547 107.602C213.547 110.441 212.225 113.17 209.863 115.178L129.86 183.404L131.088 184.451C136.729 189.262 145.874 189.262 151.515 184.451L223.76 122.853C226.476 120.543 228 117.408 228 114.143V62.58C228 55.7734 221.535 50.2604 213.554 50.2604Z"/></g><defs><filter id="filter0_d" width="258" height="258" x="0" y="0" color-interpolation-filters="sRGB" filterUnits="userSpaceOnUse"><feFlood flood-opacity="0" result="BackgroundImageFix"/><feColorMatrix in="SourceAlpha" type="matrix" values="0 0 0 0 0 0 0 0 0 0 0 0 0 0 0 0 0 0 127 0"/><feOffset dy="4"/><feGaussianBlur stdDeviation="2"/><feColorMatrix type="matrix" values="0 0 0 0 0 0 0 0 0 0 0 0 0 0 0 0 0 0 0.25 0"/><feBlend in2="BackgroundImageFix" mode="normal" result="effect1_dropShadow"/><feBlend in="SourceGraphic" in2="effect1_dropShadow" mode="normal" result="shape"/></filter><clipPath id="clip0"><rect width="197" height="168" fill="#fff" transform="translate(31 29)"/></clipPath></defs></svg>