<svg width="258" height="258" viewBox="0 0 258 258" fill="none" xmlns="http://www.w3.org/2000/svg">
<g clip-path="url(#clip0)" filter="url(#filter0_d)">
<g filter="url(#filter1_d)">
<rect x="4" width="250" height="250" rx="50" fill="#21A0A0"/>
</g>
<path d="M52.584 226.424H46.92L45.552 230H42L48.576 213.08H51.192L57.792 230H54.024L52.584 226.424ZM47.904 223.616H51.744L50.448 220.112L49.872 217.448H49.752L49.176 220.136L47.904 223.616ZM70.9969 225.584C70.9969 226.256 71.0049 226.952 71.0209 227.672C71.0369 228.392 71.1089 229.176 71.2369 230.024H68.9089L68.4289 228.272H68.1169C67.7489 228.912 67.2209 229.424 66.5329 229.808C65.8609 230.176 65.0529 230.36 64.1089 230.36C62.4289 230.36 61.1249 229.84 60.1969 228.8C59.2689 227.744 58.8049 226.12 58.8049 223.928C58.8049 222.872 58.9329 221.92 59.1889 221.072C59.4609 220.224 59.8529 219.504 60.3649 218.912C60.8929 218.32 61.5409 217.864 62.3089 217.544C63.0769 217.224 63.9649 217.064 64.9729 217.064C65.5329 217.064 66.0129 217.112 66.4129 217.208C66.8289 217.288 67.2369 217.392 67.6369 217.52V213.2H70.9969V225.584ZM64.9729 227.552C65.7249 227.552 66.3089 227.384 66.7249 227.048C67.1409 226.696 67.4449 226.2 67.6369 225.56V220.52C67.3489 220.296 67.0369 220.136 66.7009 220.04C66.3809 219.928 65.9569 219.872 65.4289 219.872C64.3569 219.872 63.5569 220.184 63.0289 220.808C62.5169 221.432 62.2609 222.504 62.2609 224.024C62.2609 225.08 62.4769 225.936 62.9089 226.592C63.3569 227.232 64.0449 227.552 64.9729 227.552ZM82.4672 230V223.424C82.4672 222.208 82.3392 221.336 82.0832 220.808C81.8272 220.28 81.2992 220.016 80.4992 220.016C79.8272 220.016 79.2912 220.184 78.8912 220.52C78.4912 220.84 78.1792 221.264 77.9552 221.792V230H74.5952V217.4H77.1872L77.5712 219.152H77.8832C78.0912 218.88 78.3312 218.616 78.6032 218.36C78.8752 218.104 79.1712 217.88 79.4912 217.688C79.8272 217.496 80.1952 217.344 80.5952 217.232C81.0112 217.104 81.4752 217.04 81.9872 217.04C82.8352 217.04 83.5392 217.232 84.0992 217.616C84.6752 217.984 85.1312 218.608 85.4672 219.488C85.9312 218.72 86.4912 218.12 87.1472 217.688C87.8192 217.256 88.5952 217.04 89.4752 217.04C90.2432 217.04 90.8912 217.128 91.4192 217.304C91.9632 217.48 92.4032 217.784 92.7392 218.216C93.0752 218.648 93.3152 219.232 93.4592 219.968C93.6192 220.704 93.6992 221.624 93.6992 222.728V230H90.3392V223.256C90.3392 222.728 90.3152 222.264 90.2672 221.864C90.2192 221.464 90.1232 221.128 89.9792 220.856C89.8352 220.568 89.6272 220.36 89.3552 220.232C89.0992 220.088 88.7552 220.016 88.3232 220.016C87.6512 220.016 87.1072 220.192 86.6912 220.544C86.2912 220.88 86.0032 221.352 85.8272 221.96V230H82.4672ZM97.5735 217.4H100.934V230H97.5735V217.4ZM97.0695 214.256C97.0695 213.744 97.2535 213.32 97.6215 212.984C97.9895 212.632 98.5095 212.456 99.1815 212.456C99.8695 212.456 100.414 212.632 100.814 212.984C101.214 213.336 101.414 213.76 101.414 214.256C101.414 214.72 101.214 215.12 100.814 215.456C100.414 215.792 99.8695 215.96 99.1815 215.96C98.5095 215.96 97.9895 215.792 97.6215 215.456C97.2535 215.12 97.0695 214.72 97.0695 214.256ZM113.279 230V223.088C113.279 222 113.111 221.216 112.775 220.736C112.439 220.256 111.847 220.016 110.999 220.016C110.279 220.016 109.663 220.216 109.151 220.616C108.655 221 108.311 221.496 108.119 222.104C108.119 223.416 108.119 224.736 108.119 226.064C108.135 227.376 108.143 228.688 108.143 230H104.783V217.4H107.423L107.783 219.2H108.143C108.559 218.608 109.111 218.104 109.799 217.688C110.487 217.256 111.383 217.04 112.487 217.04C113.159 217.04 113.751 217.128 114.263 217.304C114.791 217.464 115.223 217.752 115.559 218.168C115.911 218.568 116.175 219.112 116.351 219.8C116.543 220.488 116.639 221.352 116.639 222.392V230H113.279ZM120.495 217.4H123.855V230H120.495V217.4ZM119.991 214.256C119.991 213.744 120.175 213.32 120.543 212.984C120.911 212.632 121.431 212.456 122.103 212.456C122.791 212.456 123.335 212.632 123.735 212.984C124.135 213.336 124.335 213.76 124.335 214.256C124.335 214.72 124.135 215.12 123.735 215.456C123.335 215.792 122.791 215.96 122.103 215.96C121.431 215.96 120.911 215.792 120.543 215.456C120.175 215.12 119.991 214.72 119.991 214.256ZM127.681 226.736C127.905 226.848 128.161 226.96 128.449 227.072C128.753 227.184 129.073 227.288 129.409 227.384C129.761 227.48 130.113 227.56 130.465 227.624C130.833 227.688 131.201 227.72 131.569 227.72C132.129 227.72 132.561 227.632 132.865 227.456C133.185 227.28 133.345 226.952 133.345 226.472C133.345 226.088 133.137 225.808 132.721 225.632C132.305 225.44 131.793 225.256 131.185 225.08C130.737 224.952 130.265 224.8 129.769 224.624C129.289 224.448 128.841 224.216 128.425 223.928C128.025 223.624 127.689 223.232 127.417 222.752C127.161 222.272 127.033 221.664 127.033 220.928C127.033 219.664 127.425 218.704 128.209 218.048C128.993 217.376 130.121 217.04 131.593 217.04C132.553 217.04 133.449 217.128 134.281 217.304C135.129 217.464 135.809 217.656 136.321 217.88L135.625 220.424C135.209 220.264 134.673 220.104 134.017 219.944C133.377 219.768 132.721 219.68 132.049 219.68C131.489 219.68 131.073 219.768 130.801 219.944C130.529 220.104 130.393 220.392 130.393 220.808C130.393 221.176 130.601 221.456 131.017 221.648C131.449 221.824 131.969 222 132.577 222.176C133.025 222.304 133.489 222.456 133.969 222.632C134.465 222.792 134.913 223.016 135.313 223.304C135.713 223.592 136.041 223.968 136.297 224.432C136.569 224.88 136.705 225.448 136.705 226.136C136.705 227.48 136.265 228.52 135.385 229.256C134.521 229.992 133.217 230.36 131.473 230.36C130.529 230.36 129.649 230.272 128.833 230.096C128.017 229.936 127.353 229.696 126.841 229.376L127.681 226.736ZM137.77 217.4H139.69V215.672L143.05 214.784V217.4H146.434V220.208H143.05V224.576C143.05 225.584 143.146 226.312 143.338 226.76C143.546 227.192 143.946 227.408 144.538 227.408C144.906 227.408 145.218 227.384 145.474 227.336C145.73 227.272 146.002 227.176 146.29 227.048L146.986 229.568C146.474 229.792 145.882 229.984 145.21 230.144C144.554 230.304 143.914 230.384 143.29 230.384C142.042 230.384 141.13 230.08 140.554 229.472C139.978 228.848 139.69 227.856 139.69 226.496V220.208H137.77V217.4ZM156.449 220.472C155.969 220.312 155.489 220.232 155.009 220.232C154.305 220.232 153.721 220.4 153.257 220.736C152.809 221.072 152.513 221.496 152.369 222.008V230H149.009V217.4H151.649L152.009 219.152H152.321C152.641 218.496 153.065 217.992 153.593 217.64C154.137 217.288 154.753 217.112 155.441 217.112C155.873 217.112 156.369 217.2 156.929 217.376L156.449 220.472ZM158.639 218.264C159.359 217.944 160.239 217.68 161.279 217.472C162.335 217.264 163.423 217.16 164.543 217.16C165.423 217.16 166.159 217.264 166.751 217.472C167.359 217.68 167.839 217.984 168.191 218.384C168.543 218.768 168.791 219.24 168.935 219.8C169.095 220.344 169.175 220.952 169.175 221.624C169.175 222.44 169.143 223.248 169.079 224.048C169.015 224.848 168.983 225.696 168.983 226.592C168.983 227.2 169.023 227.792 169.103 228.368C169.183 228.944 169.311 229.496 169.487 230.024H166.751L166.199 228.152H165.911C165.495 228.712 164.967 229.192 164.327 229.592C163.687 229.992 162.863 230.192 161.855 230.192C161.247 230.192 160.687 230.104 160.175 229.928C159.679 229.752 159.247 229.504 158.879 229.184C158.527 228.848 158.247 228.456 158.039 228.008C157.847 227.56 157.751 227.072 157.751 226.544C157.751 225.12 158.223 224.048 159.167 223.328C160.127 222.592 161.575 222.224 163.511 222.224C163.959 222.224 164.407 222.264 164.855 222.344C165.303 222.408 165.615 222.456 165.791 222.488C165.839 222.152 165.863 221.864 165.863 221.624C165.863 221.016 165.711 220.568 165.407 220.28C165.103 219.992 164.535 219.848 163.703 219.848C162.935 219.848 162.183 219.944 161.447 220.136C160.727 220.312 160.087 220.536 159.527 220.808L158.639 218.264ZM163.031 227.504C163.783 227.504 164.383 227.328 164.831 226.976C165.279 226.624 165.607 226.256 165.815 225.872V224.432C165.735 224.4 165.607 224.368 165.431 224.336C165.271 224.304 165.087 224.272 164.879 224.24C164.687 224.208 164.487 224.184 164.279 224.168C164.087 224.152 163.911 224.144 163.751 224.144C162.887 224.144 162.247 224.304 161.831 224.624C161.415 224.928 161.207 225.312 161.207 225.776C161.207 226.352 161.367 226.784 161.687 227.072C162.023 227.36 162.471 227.504 163.031 227.504ZM182.162 229.232C181.618 229.6 180.962 229.88 180.194 230.072C179.442 230.264 178.658 230.36 177.842 230.36C176.754 230.36 175.834 230.2 175.082 229.88C174.346 229.56 173.738 229.104 173.258 228.512C172.794 227.92 172.458 227.224 172.25 226.424C172.042 225.608 171.938 224.704 171.938 223.712C171.938 221.616 172.45 219.984 173.474 218.816C174.514 217.632 176.018 217.04 177.986 217.04C178.946 217.04 179.73 217.12 180.338 217.28C180.962 217.424 181.514 217.616 181.994 217.856L181.178 220.544C180.762 220.368 180.346 220.24 179.93 220.16C179.53 220.064 179.058 220.016 178.514 220.016C177.506 220.016 176.73 220.312 176.186 220.904C175.658 221.48 175.394 222.416 175.394 223.712C175.394 224.224 175.458 224.704 175.586 225.152C175.714 225.584 175.914 225.968 176.186 226.304C176.458 226.64 176.802 226.904 177.218 227.096C177.634 227.288 178.122 227.384 178.682 227.384C179.354 227.384 179.882 227.328 180.266 227.216C180.666 227.088 181.042 226.92 181.394 226.712L182.162 229.232ZM185.066 217.4H188.426V230H185.066V217.4ZM184.562 214.256C184.562 213.744 184.746 213.32 185.114 212.984C185.482 212.632 186.002 212.456 186.674 212.456C187.362 212.456 187.906 212.632 188.306 212.984C188.706 213.336 188.906 213.76 188.906 214.256C188.906 214.72 188.706 215.12 188.306 215.456C187.906 215.792 187.362 215.96 186.674 215.96C186.002 215.96 185.482 215.792 185.114 215.456C184.746 215.12 184.562 214.72 184.562 214.256ZM191.555 223.712C191.555 221.632 192.107 220 193.211 218.816C194.315 217.632 195.891 217.04 197.939 217.04C199.011 217.04 199.947 217.208 200.747 217.544C201.547 217.88 202.211 218.352 202.739 218.96C203.267 219.552 203.659 220.256 203.915 221.072C204.187 221.872 204.323 222.752 204.323 223.712C204.323 224.736 204.179 225.664 203.891 226.496C203.603 227.312 203.187 228.008 202.643 228.584C202.099 229.16 201.427 229.6 200.627 229.904C199.843 230.208 198.947 230.36 197.939 230.36C196.851 230.36 195.907 230.192 195.107 229.856C194.307 229.52 193.643 229.056 193.115 228.464C192.587 227.856 192.195 227.152 191.939 226.352C191.683 225.536 191.555 224.656 191.555 223.712ZM195.011 223.712C195.011 224.24 195.067 224.736 195.179 225.2C195.291 225.664 195.459 226.072 195.683 226.424C195.923 226.76 196.227 227.032 196.595 227.24C196.963 227.448 197.411 227.552 197.939 227.552C199.891 227.552 200.867 226.272 200.867 223.712C200.867 223.152 200.811 222.64 200.699 222.176C200.603 221.696 200.435 221.288 200.195 220.952C199.971 220.6 199.667 220.328 199.283 220.136C198.915 219.944 198.467 219.848 197.939 219.848C197.027 219.848 196.307 220.152 195.779 220.76C195.267 221.368 195.011 222.352 195.011 223.712ZM198.443 212.504H201.851V213.2L198.827 216.296H197.003L198.443 212.504ZM215.56 230V223.088C215.56 222 215.392 221.216 215.056 220.736C214.72 220.256 214.128 220.016 213.28 220.016C212.56 220.016 211.944 220.216 211.432 220.616C210.936 221 210.592 221.496 210.4 222.104C210.4 223.416 210.4 224.736 210.4 226.064C210.416 227.376 210.424 228.688 210.424 230H207.064V217.4H209.704L210.064 219.2H210.424C210.84 218.608 211.392 218.104 212.08 217.688C212.768 217.256 213.664 217.04 214.768 217.04C215.44 217.04 216.032 217.128 216.544 217.304C217.072 217.464 217.504 217.752 217.84 218.168C218.192 218.568 218.456 219.112 218.632 219.8C218.824 220.488 218.92 221.352 218.92 222.392V230H215.56Z" fill="white"/>
<path d="M210 115.063V108.813C211.725 108.813 213.125 107.414 213.125 105.688V86.9375C213.125 85.2115 211.725 83.8125 210 83.8125H193.125L192.519 81.4651C191.138 76.0965 188.992 70.9537 186.144 66.1966L184.894 64.1055L196.875 52.1036C198.081 50.8951 198.081 48.937 196.875 47.7286L183.603 34.4375C182.378 33.2693 180.453 33.2693 179.227 34.4375L167.224 46.4407L165.134 45.1907C160.37 42.3416 155.222 40.1956 149.846 38.8125L147.5 38.2022V21.3125C147.5 19.5865 146.101 18.1875 144.375 18.1875H125.625C123.899 18.1875 122.5 19.5865 122.5 21.3125V38.1875L120.153 38.7942C114.784 40.1748 109.641 42.3208 104.882 45.1651L102.79 46.4163L90.791 34.4375C89.5642 33.2596 87.6269 33.2596 86.4001 34.4375L73.125 47.709C72.5415 48.2913 72.2131 49.0823 72.2131 49.9063C72.2131 50.7315 72.5415 51.5213 73.125 52.1036L85.1281 64.1055L83.8781 66.1966C81.0315 70.9537 78.8842 76.0965 77.5036 81.4651L76.8908 83.8125H60C58.2739 83.8125 56.875 85.2115 56.875 86.9375V105.688C56.875 107.414 58.2739 108.813 60 108.813V115.063C54.823 115.063 50.625 110.865 50.625 105.688V86.9375C50.625 81.7605 54.823 77.5625 60 77.5625H72.091C73.3801 73.2413 75.1232 69.0689 77.2912 65.1163L68.6975 56.5225C66.9397 54.7683 65.9521 52.388 65.9521 49.9063C65.9521 47.4246 66.9397 45.0442 68.6975 43.2913L81.9787 30.01C85.6787 26.4688 91.5124 26.4688 95.2124 30.01L103.804 38.6001C107.756 36.4334 111.93 34.6939 116.25 33.406V21.3125C116.25 16.1355 120.448 11.9375 125.625 11.9375H144.375C149.552 11.9375 153.75 16.1355 153.75 21.3125V33.406C158.071 34.6939 162.242 36.437 166.196 38.6038L174.79 30.01C178.491 26.4688 184.324 26.4688 188.025 30.01L201.304 43.2876C203.06 45.0418 204.047 47.4197 204.047 49.9026C204.047 52.3855 203.06 54.7659 201.304 56.5188L192.71 65.1126C194.877 69.0677 196.619 73.2413 197.909 77.5625H210C215.177 77.5625 219.375 81.7605 219.375 86.9375V105.688C219.375 110.865 215.177 115.063 210 115.063Z" fill="white"/>
<path d="M178.75 96.3125H172.5C172.5 75.6021 155.71 58.8125 135 58.8125C114.29 58.8125 97.5 75.6021 97.5 96.3125H91.25C91.25 72.1499 110.837 52.5625 135 52.5625C159.161 52.5625 178.75 72.1499 178.75 96.3125Z" fill="white"/>
<path d="M135 121.313C124.645 121.313 116.25 112.917 116.25 102.563C116.25 92.2073 124.645 83.8125 135 83.8125C145.356 83.8125 153.75 92.2073 153.75 102.563C153.739 112.914 145.352 121.302 135 121.313ZM135 90.0625C128.097 90.0625 122.5 95.6594 122.5 102.563C122.5 109.466 128.097 115.063 135 115.063C141.903 115.063 147.5 109.466 147.5 102.563C147.5 95.6594 141.903 90.0625 135 90.0625Z" fill="white"/>
<path d="M188.125 133.813C177.77 133.813 169.375 125.417 169.375 115.063C169.375 104.707 177.77 96.3125 188.125 96.3125C198.48 96.3125 206.875 104.707 206.875 115.063C206.864 125.414 198.477 133.802 188.125 133.813ZM188.125 102.563C181.222 102.563 175.625 108.159 175.625 115.063C175.625 121.966 181.222 127.563 188.125 127.563C195.028 127.563 200.625 121.966 200.625 115.063C200.625 108.159 195.028 102.563 188.125 102.563Z" fill="white"/>
<path d="M81.875 133.813C71.5198 133.813 63.125 125.417 63.125 115.063C63.125 104.707 71.5198 96.3125 81.875 96.3125C92.2314 96.3125 100.625 104.707 100.625 115.063C100.614 125.414 92.2266 133.802 81.875 133.813ZM81.875 102.563C74.9719 102.563 69.375 108.159 69.375 115.063C69.375 121.966 74.9719 127.563 81.875 127.563C88.7781 127.563 94.375 121.966 94.375 115.063C94.375 108.159 88.7781 102.563 81.875 102.563Z" fill="white"/>
<path d="M216.455 141.83C211.798 138.629 206.277 136.922 200.625 136.938H175.625C174.105 136.951 172.588 137.089 171.09 137.349C169.09 134.221 166.489 131.524 163.437 129.408C162.98 129.063 162.499 128.749 161.997 128.472C157.626 125.824 152.61 124.43 147.5 124.437H122.5C112.943 124.403 104.038 129.28 98.9184 137.349C97.4169 137.089 95.8972 136.951 94.3749 136.938H69.375C63.728 136.922 58.208 138.627 53.5534 141.824C45.8606 147.058 41.2548 155.758 41.25 165.063V177.563C41.2609 186.095 46.2255 193.844 53.9758 197.418C56.8371 198.766 59.9633 199.456 63.125 199.438H94.3749V193.188H66.25V158.813H60V192.874C58.8232 192.638 57.6806 192.257 56.5966 191.743C51.0608 189.191 47.5122 183.657 47.5 177.563V165.063C47.5073 157.821 51.0949 151.052 57.0813 146.98C60.6982 144.497 64.9865 143.175 69.375 143.188H94.3749C94.9255 143.188 95.4565 143.246 95.9936 143.283C94.9365 146.264 94.3884 149.401 94.3749 152.563V183.813C94.3859 192.438 101.376 199.427 110 199.438H119.375V149.438H113.125V193.188H110C104.823 193.188 100.625 188.99 100.625 183.813V152.563C100.625 140.48 110.42 130.687 122.5 130.687H147.5C151.521 130.69 155.461 131.803 158.89 133.903C159.208 134.076 159.513 134.271 159.802 134.486C162.731 136.492 165.134 139.171 166.809 142.299C168.492 145.458 169.375 148.982 169.375 152.563V183.813C169.375 188.99 165.177 193.188 160 193.188H156.875V149.438H150.625V199.438H160C168.625 199.427 175.614 192.438 175.625 183.813V152.563C175.61 149.401 175.065 146.265 174.009 143.283C174.547 143.246 175.078 143.188 175.625 143.188H200.625C205.016 143.175 209.308 144.501 212.927 146.986C218.909 151.061 222.491 157.825 222.5 165.063V177.563C222.489 183.679 218.913 189.229 213.351 191.768C212.283 192.273 211.157 192.644 210 192.874V158.813H203.75V193.188H175.625V199.438H206.875C210.018 199.457 213.126 198.776 215.972 197.443C223.747 193.88 228.738 186.116 228.75 177.563V165.063C228.745 155.762 224.143 147.066 216.455 141.83Z" fill="white"/>
<path d="M122.5 193.188H147.5V199.438H122.5V193.188Z" fill="white"/>
</g>
<defs>
<filter id="filter0_d" x="0" y="0" width="258" height="258" filterUnits="userSpaceOnUse" color-interpolation-filters="sRGB">
<feFlood flood-opacity="0" result="BackgroundImageFix"/>
<feColorMatrix in="SourceAlpha" type="matrix" values="0 0 0 0 0 0 0 0 0 0 0 0 0 0 0 0 0 0 127 0"/>
<feOffset dy="4"/>
<feGaussianBlur stdDeviation="2"/>
<feColorMatrix type="matrix" values="0 0 0 0 0 0 0 0 0 0 0 0 0 0 0 0 0 0 0.25 0"/>
<feBlend mode="normal" in2="BackgroundImageFix" result="effect1_dropShadow"/>
<feBlend mode="normal" in="SourceGraphic" in2="effect1_dropShadow" result="shape"/>
</filter>
<filter id="filter1_d" x="0" y="0" width="258" height="258" filterUnits="userSpaceOnUse" color-interpolation-filters="sRGB">
<feFlood flood-opacity="0" result="BackgroundImageFix"/>
<feColorMatrix in="SourceAlpha" type="matrix" values="0 0 0 0 0 0 0 0 0 0 0 0 0 0 0 0 0 0 127 0"/>
<feOffset dy="4"/>
<feGaussianBlur stdDeviation="2"/>
<feColorMatrix type="matrix" values="0 0 0 0 0 0 0 0 0 0 0 0 0 0 0 0 0 0 0.25 0"/>
<feBlend mode="normal" in2="BackgroundImageFix" result="effect1_dropShadow"/>
<feBlend mode="normal" in="SourceGraphic" in2="effect1_dropShadow" result="shape"/>
</filter>
<clipPath id="clip0">
<rect width="250" height="250" fill="white" transform="translate(4)"/>
</clipPath>
</defs>
</svg>
