<svg xmlns="http://www.w3.org/2000/svg" width="258" height="258" fill="none" viewBox="0 0 258 258"><g filter="url(#filter0_d)"><path fill="#2F2504" d="M204 0H54C26.3858 0 4 22.3858 4 50V200C4 227.614 26.3858 250 54 250H204C231.614 250 254 227.614 254 200V50C254 22.3858 231.614 0 204 0Z"/></g><g clip-path="url(#clip0)"><path fill="#fff" d="M213.345 93.829H209.604V76.3906C209.604 67.8425 202.888 60.8899 194.637 60.8899C191.752 60.8899 189.054 61.7391 186.768 63.2104C185.238 56.3365 179.278 51.2019 172.188 51.2019H172.183C163.934 51.2019 157.217 58.1545 157.217 66.7027V93.829H100.353V66.7027C100.353 58.1545 93.6359 51.2019 85.3824 51.2019C78.2924 51.2019 72.3321 56.3365 70.8019 63.2104C68.516 61.7391 65.8179 60.8899 62.9328 60.8899C54.6823 60.8899 47.9664 67.8425 47.9664 76.3906V93.829H44.2248C38.0365 93.829 33 99.0454 33 105.455V120.955C33 127.365 38.0365 132.581 44.2248 132.581H47.9664V150.019C47.9664 158.567 54.6823 165.52 62.9328 165.52C65.8179 165.52 68.516 164.671 70.8019 163.2C72.3321 170.073 78.2924 175.208 85.3824 175.208H85.3868C93.6359 175.208 100.353 168.255 100.353 159.707V132.581H157.217V159.707C157.217 168.255 163.934 175.208 172.188 175.208C179.278 175.208 185.238 170.073 186.768 163.2C189.054 164.671 191.752 165.52 194.637 165.52C202.888 165.52 209.604 158.567 209.604 150.019V132.581H213.345C219.533 132.581 224.57 127.365 224.57 120.955V105.455C224.57 99.0454 219.533 93.829 213.345 93.829ZM47.9664 124.831H44.2248C42.1625 124.831 40.4832 123.091 40.4832 120.955V105.455C40.4832 103.319 42.1625 101.579 44.2248 101.579H47.9664V124.831ZM70.416 150.019C70.416 152.158 69.5785 154.096 68.2237 155.499C66.8688 156.902 64.998 157.77 62.9328 157.77C58.8054 157.77 55.4496 154.294 55.4496 150.019V76.3906C55.4496 72.1158 58.8054 68.6403 62.9328 68.6403C67.0603 68.6403 70.416 72.1158 70.416 76.3906V150.019ZM92.87 159.707C92.87 163.982 89.5099 167.458 85.3868 167.458H85.3824C81.2594 167.458 77.8992 163.982 77.8992 159.707V66.7027C77.8992 62.4278 81.2594 58.9523 85.3868 58.9523C89.5099 58.9523 92.87 62.4278 92.87 66.7027V159.707ZM157.195 109.33H131.03C128.965 109.33 127.288 111.066 127.288 113.205C127.288 115.344 128.965 117.08 131.03 117.08H157.195V124.831H100.334V101.579H157.195V109.33ZM179.671 159.707C179.671 163.982 176.311 167.458 172.183 167.458C168.06 167.458 164.7 163.982 164.7 159.707V113.403C164.697 113.488 164.69 113.573 164.678 113.655V112.755C164.69 112.837 164.697 112.922 164.7 113.007V66.7027C164.7 62.4278 168.06 58.9523 172.183 58.9523H172.188C176.311 58.9523 179.671 62.4278 179.671 66.7027V159.707ZM202.12 150.019C202.12 154.294 198.765 157.77 194.637 157.77C190.51 157.77 187.154 154.294 187.154 150.019V76.3906C187.154 72.1158 190.51 68.6403 194.637 68.6403C198.765 68.6403 202.12 72.1158 202.12 76.3906V150.019ZM217.087 120.955C217.087 123.091 215.407 124.831 213.345 124.831H209.604V101.579H213.345C215.407 101.579 217.087 103.319 217.087 105.455V120.955Z"/><path fill="#fff" d="M116.071 117.08C114.004 117.08 112.328 115.345 112.328 113.205C112.328 111.065 114.001 109.33 116.068 109.33H116.071C118.138 109.33 119.812 111.065 119.812 113.205C119.812 115.345 118.138 117.08 116.071 117.08Z"/></g><path fill="#fff" d="M105.888 235.28C105.36 235.648 104.664 235.912 103.8 236.072C102.936 236.248 102.048 236.336 101.136 236.336C100.064 236.336 99.0322 236.176 98.0402 235.856C97.0642 235.536 96.1922 235.024 95.4242 234.32C94.6722 233.616 94.0722 232.712 93.6242 231.608C93.1762 230.504 92.9522 229.168 92.9522 227.6C92.9522 225.968 93.2082 224.6 93.7202 223.496C94.2322 222.376 94.8882 221.48 95.6882 220.808C96.4882 220.12 97.3762 219.624 98.3522 219.32C99.3282 219.016 100.288 218.864 101.232 218.864C102.272 218.864 103.144 218.928 103.848 219.056C104.568 219.184 105.16 219.336 105.624 219.512L104.928 222.488C104.528 222.312 104.056 222.184 103.512 222.104C102.984 222.024 102.312 221.984 101.496 221.984C100.776 221.984 100.12 222.104 99.5282 222.344C98.9522 222.568 98.4562 222.912 98.0402 223.376C97.6242 223.84 97.2962 224.424 97.0562 225.128C96.8322 225.832 96.7202 226.656 96.7202 227.6C96.7202 228.432 96.8242 229.192 97.0322 229.88C97.2402 230.568 97.5522 231.16 97.9682 231.656C98.3842 232.152 98.9122 232.536 99.5522 232.808C100.192 233.08 100.936 233.216 101.784 233.216C102.568 233.216 103.224 233.144 103.752 233C104.296 232.856 104.776 232.672 105.192 232.448L105.888 235.28ZM111.73 231.584C111.73 232.8 112.122 233.408 112.906 233.408C113.13 233.408 113.338 233.392 113.53 233.36C113.738 233.312 113.978 233.24 114.25 233.144L114.658 235.76C114.338 235.904 113.882 236.04 113.29 236.168C112.714 236.312 112.114 236.384 111.49 236.384C110.482 236.384 109.706 236.16 109.162 235.712C108.634 235.264 108.37 234.528 108.37 233.504V219.2H111.73V231.584ZM116.264 224.264C116.984 223.944 117.864 223.68 118.904 223.472C119.96 223.264 121.048 223.16 122.168 223.16C123.048 223.16 123.784 223.264 124.376 223.472C124.984 223.68 125.464 223.984 125.816 224.384C126.168 224.768 126.416 225.24 126.56 225.8C126.72 226.344 126.8 226.952 126.8 227.624C126.8 228.44 126.768 229.248 126.704 230.048C126.64 230.848 126.608 231.696 126.608 232.592C126.608 233.2 126.648 233.792 126.728 234.368C126.808 234.944 126.936 235.496 127.112 236.024H124.376L123.824 234.152H123.536C123.12 234.712 122.592 235.192 121.952 235.592C121.312 235.992 120.488 236.192 119.48 236.192C118.872 236.192 118.312 236.104 117.8 235.928C117.304 235.752 116.872 235.504 116.504 235.184C116.152 234.848 115.872 234.456 115.664 234.008C115.472 233.56 115.376 233.072 115.376 232.544C115.376 231.12 115.848 230.048 116.792 229.328C117.752 228.592 119.2 228.224 121.136 228.224C121.584 228.224 122.032 228.264 122.48 228.344C122.928 228.408 123.24 228.456 123.416 228.488C123.464 228.152 123.488 227.864 123.488 227.624C123.488 227.016 123.336 226.568 123.032 226.28C122.728 225.992 122.16 225.848 121.328 225.848C120.56 225.848 119.808 225.944 119.072 226.136C118.352 226.312 117.712 226.536 117.152 226.808L116.264 224.264ZM120.656 233.504C121.408 233.504 122.008 233.328 122.456 232.976C122.904 232.624 123.232 232.256 123.44 231.872V230.432C123.36 230.4 123.232 230.368 123.056 230.336C122.896 230.304 122.712 230.272 122.504 230.24C122.312 230.208 122.112 230.184 121.904 230.168C121.712 230.152 121.536 230.144 121.376 230.144C120.512 230.144 119.872 230.304 119.456 230.624C119.04 230.928 118.832 231.312 118.832 231.776C118.832 232.352 118.992 232.784 119.312 233.072C119.648 233.36 120.096 233.504 120.656 233.504ZM130.259 232.736C130.483 232.848 130.739 232.96 131.027 233.072C131.331 233.184 131.651 233.288 131.987 233.384C132.339 233.48 132.691 233.56 133.043 233.624C133.411 233.688 133.779 233.72 134.147 233.72C134.707 233.72 135.139 233.632 135.443 233.456C135.763 233.28 135.923 232.952 135.923 232.472C135.923 232.088 135.715 231.808 135.299 231.632C134.883 231.44 134.371 231.256 133.763 231.08C133.315 230.952 132.843 230.8 132.347 230.624C131.867 230.448 131.419 230.216 131.003 229.928C130.603 229.624 130.267 229.232 129.995 228.752C129.739 228.272 129.611 227.664 129.611 226.928C129.611 225.664 130.003 224.704 130.787 224.048C131.571 223.376 132.699 223.04 134.171 223.04C135.131 223.04 136.027 223.128 136.859 223.304C137.707 223.464 138.387 223.656 138.899 223.88L138.203 226.424C137.787 226.264 137.251 226.104 136.595 225.944C135.955 225.768 135.299 225.68 134.627 225.68C134.067 225.68 133.651 225.768 133.379 225.944C133.107 226.104 132.971 226.392 132.971 226.808C132.971 227.176 133.179 227.456 133.595 227.648C134.027 227.824 134.547 228 135.155 228.176C135.603 228.304 136.067 228.456 136.547 228.632C137.043 228.792 137.491 229.016 137.891 229.304C138.291 229.592 138.619 229.968 138.875 230.432C139.147 230.88 139.283 231.448 139.283 232.136C139.283 233.48 138.843 234.52 137.963 235.256C137.099 235.992 135.795 236.36 134.051 236.36C133.107 236.36 132.227 236.272 131.411 236.096C130.595 235.936 129.931 235.696 129.419 235.376L130.259 232.736ZM152.66 234.848C152.116 235.264 151.372 235.624 150.428 235.928C149.5 236.216 148.5 236.36 147.428 236.36C145.268 236.36 143.684 235.768 142.676 234.584C141.668 233.4 141.164 231.776 141.164 229.712C141.164 227.52 141.732 225.864 142.868 224.744C144.004 223.608 145.604 223.04 147.668 223.04C148.34 223.04 149.004 223.128 149.66 223.304C150.316 223.464 150.9 223.744 151.412 224.144C151.924 224.528 152.332 225.056 152.636 225.728C152.956 226.384 153.116 227.2 153.116 228.176C153.116 228.512 153.092 228.88 153.044 229.28C153.012 229.68 152.948 230.096 152.852 230.528H144.452C144.532 231.616 144.844 232.424 145.388 232.952C145.948 233.464 146.852 233.72 148.1 233.72C148.852 233.72 149.524 233.616 150.116 233.408C150.724 233.184 151.188 232.96 151.508 232.736L152.66 234.848ZM147.62 225.68C146.628 225.68 145.892 225.952 145.412 226.496C144.932 227.024 144.652 227.704 144.572 228.536H149.996C150.06 227.656 149.9 226.96 149.516 226.448C149.132 225.936 148.5 225.68 147.62 225.68ZM156.11 232.736C156.334 232.848 156.59 232.96 156.878 233.072C157.182 233.184 157.502 233.288 157.838 233.384C158.19 233.48 158.542 233.56 158.894 233.624C159.262 233.688 159.63 233.72 159.998 233.72C160.558 233.72 160.99 233.632 161.294 233.456C161.614 233.28 161.774 232.952 161.774 232.472C161.774 232.088 161.566 231.808 161.15 231.632C160.734 231.44 160.222 231.256 159.614 231.08C159.166 230.952 158.694 230.8 158.198 230.624C157.718 230.448 157.27 230.216 156.854 229.928C156.454 229.624 156.118 229.232 155.846 228.752C155.59 228.272 155.462 227.664 155.462 226.928C155.462 225.664 155.854 224.704 156.638 224.048C157.422 223.376 158.55 223.04 160.022 223.04C160.982 223.04 161.878 223.128 162.71 223.304C163.558 223.464 164.238 223.656 164.75 223.88L164.054 226.424C163.638 226.264 163.102 226.104 162.446 225.944C161.806 225.768 161.15 225.68 160.478 225.68C159.918 225.68 159.502 225.768 159.23 225.944C158.958 226.104 158.822 226.392 158.822 226.808C158.822 227.176 159.03 227.456 159.446 227.648C159.878 227.824 160.398 228 161.006 228.176C161.454 228.304 161.918 228.456 162.398 228.632C162.894 228.792 163.342 229.016 163.742 229.304C164.142 229.592 164.47 229.968 164.726 230.432C164.998 230.88 165.134 231.448 165.134 232.136C165.134 233.48 164.694 234.52 163.814 235.256C162.95 235.992 161.646 236.36 159.902 236.36C158.958 236.36 158.078 236.272 157.262 236.096C156.446 235.936 155.782 235.696 155.27 235.376L156.11 232.736Z"/><defs><filter id="filter0_d" width="258" height="258" x="0" y="0" color-interpolation-filters="sRGB" filterUnits="userSpaceOnUse"><feFlood flood-opacity="0" result="BackgroundImageFix"/><feColorMatrix in="SourceAlpha" type="matrix" values="0 0 0 0 0 0 0 0 0 0 0 0 0 0 0 0 0 0 127 0"/><feOffset dy="4"/><feGaussianBlur stdDeviation="2"/><feColorMatrix type="matrix" values="0 0 0 0 0 0 0 0 0 0 0 0 0 0 0 0 0 0 0.25 0"/><feBlend in2="BackgroundImageFix" mode="normal" result="effect1_dropShadow"/><feBlend in="SourceGraphic" in2="effect1_dropShadow" mode="normal" result="shape"/></filter><clipPath id="clip0"><rect width="191.57" height="198.41" fill="#fff" transform="translate(33 14)"/></clipPath></defs></svg>