<svg width="250" height="62" viewBox="0 0 250 62" fill="none" xmlns="http://www.w3.org/2000/svg">
<rect width="250" height="60" fill="black"/>
<path d="M63.76 19.24H59.92V15.4H74.704V19.24H70.864V45.16H74.704V49H59.92V45.16H63.76V19.24ZM97.0574 49V35.176C97.0574 33 96.7214 31.432 96.0494 30.472C95.3774 29.512 94.1934 29.032 92.4974 29.032C91.0574 29.032 89.8254 29.432 88.8014 30.232C87.8094 31 87.1214 31.992 86.7374 33.208C86.7374 35.832 86.7374 38.472 86.7374 41.128C86.7694 43.752 86.7854 46.376 86.7854 49H80.0654V23.8H85.3454L86.0654 27.4H86.7854C87.6174 26.216 88.7214 25.208 90.0974 24.376C91.4734 23.512 93.2654 23.08 95.4734 23.08C96.8174 23.08 98.0014 23.256 99.0254 23.608C100.081 23.928 100.945 24.504 101.617 25.336C102.321 26.136 102.849 27.224 103.201 28.6C103.585 29.976 103.777 31.704 103.777 33.784V49H97.0574ZM111.491 23.8H118.211V49H111.491V23.8ZM110.483 17.512C110.483 16.488 110.851 15.64 111.587 14.968C112.323 14.264 113.363 13.912 114.707 13.912C116.083 13.912 117.171 14.264 117.971 14.968C118.771 15.672 119.171 16.52 119.171 17.512C119.171 18.44 118.771 19.24 117.971 19.912C117.171 20.584 116.083 20.92 114.707 20.92C113.363 20.92 112.323 20.584 111.587 19.912C110.851 19.24 110.483 18.44 110.483 17.512ZM144.917 47.464C143.829 48.2 142.517 48.76 140.981 49.144C139.477 49.528 137.909 49.72 136.277 49.72C134.101 49.72 132.261 49.4 130.757 48.76C129.285 48.12 128.069 47.208 127.109 46.024C126.181 44.84 125.509 43.448 125.093 41.848C124.677 40.216 124.469 38.408 124.469 36.424C124.469 32.232 125.493 28.968 127.541 26.632C129.621 24.264 132.629 23.08 136.565 23.08C138.485 23.08 140.053 23.24 141.269 23.56C142.517 23.848 143.621 24.232 144.581 24.712L142.949 30.088C142.117 29.736 141.285 29.48 140.453 29.32C139.653 29.128 138.709 29.032 137.621 29.032C135.605 29.032 134.053 29.624 132.965 30.808C131.909 31.96 131.381 33.832 131.381 36.424C131.381 37.448 131.509 38.408 131.765 39.304C132.021 40.168 132.421 40.936 132.965 41.608C133.509 42.28 134.197 42.808 135.029 43.192C135.861 43.576 136.837 43.768 137.957 43.768C139.301 43.768 140.357 43.656 141.125 43.432C141.925 43.176 142.677 42.84 143.381 42.424L144.917 47.464ZM150.725 23.8H157.445V49H150.725V23.8ZM149.717 17.512C149.717 16.488 150.085 15.64 150.821 14.968C151.557 14.264 152.597 13.912 153.941 13.912C155.317 13.912 156.405 14.264 157.205 14.968C158.005 15.672 158.405 16.52 158.405 17.512C158.405 18.44 158.005 19.24 157.205 19.912C156.405 20.584 155.317 20.92 153.941 20.92C152.597 20.92 151.557 20.584 150.821 19.912C150.085 19.24 149.717 18.44 149.717 17.512ZM163.704 36.424C163.704 32.264 164.808 29 167.016 26.632C169.224 24.264 172.376 23.08 176.472 23.08C178.616 23.08 180.488 23.416 182.088 24.088C183.688 24.76 185.016 25.704 186.072 26.92C187.128 28.104 187.912 29.512 188.424 31.144C188.968 32.744 189.24 34.504 189.24 36.424C189.24 38.472 188.952 40.328 188.376 41.992C187.8 43.624 186.968 45.016 185.88 46.168C184.792 47.32 183.448 48.2 181.848 48.808C180.28 49.416 178.488 49.72 176.472 49.72C174.296 49.72 172.408 49.384 170.808 48.712C169.208 48.04 167.88 47.112 166.824 45.928C165.768 44.712 164.984 43.304 164.472 41.704C163.96 40.072 163.704 38.312 163.704 36.424ZM170.616 36.424C170.616 37.48 170.728 38.472 170.952 39.4C171.176 40.328 171.512 41.144 171.96 41.848C172.44 42.52 173.048 43.064 173.784 43.48C174.52 43.896 175.416 44.104 176.472 44.104C180.376 44.104 182.328 41.544 182.328 36.424C182.328 35.304 182.216 34.28 181.992 33.352C181.8 32.392 181.464 31.576 180.984 30.904C180.536 30.2 179.928 29.656 179.16 29.272C178.424 28.888 177.528 28.696 176.472 28.696C174.648 28.696 173.208 29.304 172.152 30.52C171.128 31.736 170.616 33.704 170.616 36.424Z" fill="white"/>
</svg>
