<svg width="258" height="258" viewBox="0 0 258 258" fill="none" xmlns="http://www.w3.org/2000/svg">
<g filter="url(#filter0_d)">
<path d="M204 0H54C26.3858 0 4 22.3858 4 50V200C4 227.614 26.3858 250 54 250H204C231.614 250 254 227.614 254 200V50C254 22.3858 231.614 0 204 0Z" fill="#133C55"/>
</g>
<g clip-path="url(#clip0)">
<path d="M215.538 166.755C212.758 150.118 200.402 137.001 184.339 133.482L150.05 125.803C149.741 125.803 149.741 125.803 149.432 125.803V105.647C159.008 98.6087 164.877 86.771 164.877 74.6134V55.4172C164.877 34.3014 148.196 17.0248 127.809 17.0248C107.421 17.0248 90.7396 34.3014 90.7396 55.4172V74.6134C90.7396 87.091 96.6089 98.6087 106.185 105.647V125.803C105.876 125.803 105.876 125.803 105.567 125.803L71.2785 133.162C55.2153 136.681 42.859 149.799 40.0788 166.435L32.0473 211.546C31.7383 213.146 32.974 215.066 34.5185 215.386C34.8274 215.386 34.8274 215.386 35.1363 215.386H220.481C222.334 215.386 223.57 214.106 223.57 212.186C223.57 211.866 223.57 211.866 223.57 211.546L215.538 166.755ZM127.809 23.4235C142.636 23.4235 154.992 33.9814 158.081 49.0185H97.5356C100.625 33.9814 112.981 23.4235 127.809 23.4235ZM157.464 55.4172L148.196 65.0153H107.421L98.1534 55.4172H157.464ZM96.9178 74.6134V63.0957L104.023 70.4542C104.64 71.0941 105.258 71.4141 106.185 71.4141H149.432C150.359 71.4141 150.977 71.0941 151.594 70.4542L158.699 63.0957V74.6134C158.699 92.2099 144.798 106.607 127.809 106.607C110.819 106.607 96.9178 92.2099 96.9178 74.6134ZM143.254 109.487V130.922L141.092 133.162C137.694 136.681 132.751 138.921 128.117 138.921H127.5C122.557 138.921 117.923 137.001 114.526 133.162L112.363 130.922V109.487C117.306 111.726 122.557 113.006 127.809 113.006C133.06 113.006 138.311 111.726 143.254 109.487ZM100.007 133.802L105.258 132.522L109.892 137.641C114.526 142.44 120.704 145 127.5 145H128.117C134.604 145 141.092 142.44 145.725 137.641L150.668 132.522L155.919 133.802V144.04L139.547 166.435C133.987 159.717 124.411 159.077 117.923 164.836C117.306 165.475 116.997 165.795 116.379 166.435L100.007 144.04V133.802ZM127.809 186.591C122.557 186.591 118.541 182.432 118.541 176.993C118.541 171.554 122.557 167.395 127.809 167.395C133.06 167.395 137.076 171.554 137.076 176.993V196.189H130.898V189.791C130.898 187.871 129.662 186.591 127.809 186.591ZM78.3834 208.987H38.8432L40.0788 202.588H78.3834V208.987ZM171.056 209.307H84.5615V167.395H78.3834V196.189H41.0056L45.9481 167.715C48.4193 153.638 58.9222 142.44 72.5141 139.561L93.8287 134.762V145C93.8287 145.639 94.1376 146.279 94.4465 146.919L112.981 172.514C112.672 173.794 112.363 175.394 112.363 176.993C112.363 184.672 117.615 191.07 124.719 192.67V199.389C124.719 201.308 125.955 202.588 127.809 202.588H140.165C142.018 202.588 143.254 201.308 143.254 199.389V176.993C143.254 175.394 142.945 173.794 142.636 172.514L161.171 146.919C161.479 146.279 161.788 145.639 161.788 145V135.081L183.103 139.881C196.695 142.76 207.198 153.958 209.669 168.035L214.611 196.509H177.234V167.715H171.056V209.307ZM177.234 208.987V202.588H215.538L216.774 208.987H177.234Z" fill="white"/>
<path d="M130.898 173.794H124.72V180.193H130.898V173.794Z" fill="white"/>
</g>
<path d="M57.88 224.12H55.96V222.2H63.352V224.12H61.432V237.08H63.352V239H55.96V237.08H57.88V224.12ZM74.5287 239V232.088C74.5287 231 74.3607 230.216 74.0247 229.736C73.6887 229.256 73.0967 229.016 72.2487 229.016C71.5287 229.016 70.9127 229.216 70.4007 229.616C69.9047 230 69.5607 230.496 69.3687 231.104C69.3687 232.416 69.3687 233.736 69.3687 235.064C69.3847 236.376 69.3927 237.688 69.3927 239H66.0327V226.4H68.6727L69.0327 228.2H69.3927C69.8087 227.608 70.3607 227.104 71.0487 226.688C71.7367 226.256 72.6327 226.04 73.7367 226.04C74.4087 226.04 75.0007 226.128 75.5127 226.304C76.0407 226.464 76.4727 226.752 76.8087 227.168C77.1607 227.568 77.4247 228.112 77.6007 228.8C77.7927 229.488 77.8887 230.352 77.8887 231.392V239H74.5287ZM81.3134 235.736C81.5374 235.848 81.7934 235.96 82.0814 236.072C82.3854 236.184 82.7054 236.288 83.0414 236.384C83.3934 236.48 83.7454 236.56 84.0974 236.624C84.4654 236.688 84.8334 236.72 85.2014 236.72C85.7614 236.72 86.1934 236.632 86.4974 236.456C86.8174 236.28 86.9774 235.952 86.9774 235.472C86.9774 235.088 86.7694 234.808 86.3534 234.632C85.9374 234.44 85.4254 234.256 84.8174 234.08C84.3694 233.952 83.8974 233.8 83.4014 233.624C82.9214 233.448 82.4734 233.216 82.0574 232.928C81.6574 232.624 81.3214 232.232 81.0494 231.752C80.7934 231.272 80.6654 230.664 80.6654 229.928C80.6654 228.664 81.0574 227.704 81.8414 227.048C82.6254 226.376 83.7534 226.04 85.2254 226.04C86.1854 226.04 87.0814 226.128 87.9134 226.304C88.7614 226.464 89.4414 226.656 89.9534 226.88L89.2574 229.424C88.8414 229.264 88.3054 229.104 87.6494 228.944C87.0094 228.768 86.3534 228.68 85.6814 228.68C85.1214 228.68 84.7054 228.768 84.4334 228.944C84.1614 229.104 84.0254 229.392 84.0254 229.808C84.0254 230.176 84.2334 230.456 84.6494 230.648C85.0814 230.824 85.6014 231 86.2094 231.176C86.6574 231.304 87.1214 231.456 87.6014 231.632C88.0974 231.792 88.5454 232.016 88.9454 232.304C89.3454 232.592 89.6734 232.968 89.9294 233.432C90.2014 233.88 90.3374 234.448 90.3374 235.136C90.3374 236.48 89.8974 237.52 89.0174 238.256C88.1534 238.992 86.8494 239.36 85.1054 239.36C84.1614 239.36 83.2814 239.272 82.4654 239.096C81.6494 238.936 80.9854 238.696 80.4734 238.376L81.3134 235.736ZM91.4029 226.4H93.3229V224.672L96.6829 223.784V226.4H100.067V229.208H96.6829V233.576C96.6829 234.584 96.7789 235.312 96.9709 235.76C97.1789 236.192 97.5789 236.408 98.1709 236.408C98.5389 236.408 98.8509 236.384 99.1069 236.336C99.3629 236.272 99.6349 236.176 99.9229 236.048L100.619 238.568C100.107 238.792 99.5149 238.984 98.8429 239.144C98.1869 239.304 97.5469 239.384 96.9229 239.384C95.6749 239.384 94.7629 239.08 94.1869 238.472C93.6109 237.848 93.3229 236.856 93.3229 235.496V229.208H91.4029V226.4ZM110.082 229.472C109.602 229.312 109.122 229.232 108.642 229.232C107.938 229.232 107.354 229.4 106.89 229.736C106.442 230.072 106.146 230.496 106.002 231.008V239H102.642V226.4H105.282L105.642 228.152H105.954C106.274 227.496 106.698 226.992 107.226 226.64C107.77 226.288 108.386 226.112 109.074 226.112C109.506 226.112 110.002 226.2 110.562 226.376L110.082 229.472ZM115.752 226.4V233.384C115.752 234.424 115.896 235.184 116.184 235.664C116.472 236.144 117.024 236.384 117.84 236.384C118.544 236.384 119.136 236.2 119.616 235.832C120.096 235.464 120.448 235 120.672 234.44V226.4H124.032V235.16C124.032 235.832 124.064 236.504 124.128 237.176C124.208 237.848 124.312 238.456 124.44 239H121.968L121.32 237.032H121.056C120.64 237.704 120.048 238.264 119.28 238.712C118.512 239.144 117.632 239.36 116.64 239.36C115.952 239.36 115.344 239.272 114.816 239.096C114.288 238.92 113.84 238.632 113.472 238.232C113.12 237.816 112.848 237.272 112.656 236.6C112.48 235.928 112.392 235.096 112.392 234.104V226.4H115.752ZM137.295 238.232C136.751 238.6 136.095 238.88 135.327 239.072C134.575 239.264 133.791 239.36 132.975 239.36C131.887 239.36 130.967 239.2 130.215 238.88C129.479 238.56 128.871 238.104 128.391 237.512C127.927 236.92 127.591 236.224 127.383 235.424C127.175 234.608 127.071 233.704 127.071 232.712C127.071 230.616 127.583 228.984 128.607 227.816C129.647 226.632 131.151 226.04 133.118 226.04C134.079 226.04 134.863 226.12 135.471 226.28C136.095 226.424 136.647 226.616 137.127 226.856L136.311 229.544C135.895 229.368 135.479 229.24 135.063 229.16C134.663 229.064 134.191 229.016 133.647 229.016C132.639 229.016 131.863 229.312 131.319 229.904C130.791 230.48 130.527 231.416 130.527 232.712C130.527 233.224 130.591 233.704 130.719 234.152C130.847 234.584 131.047 234.968 131.319 235.304C131.591 235.64 131.935 235.904 132.351 236.096C132.767 236.288 133.255 236.384 133.815 236.384C134.487 236.384 135.015 236.328 135.399 236.216C135.799 236.088 136.175 235.92 136.527 235.712L137.295 238.232ZM138.255 226.4H140.175V224.672L143.535 223.784V226.4H146.919V229.208H143.535V233.576C143.535 234.584 143.631 235.312 143.823 235.76C144.031 236.192 144.431 236.408 145.023 236.408C145.391 236.408 145.703 236.384 145.959 236.336C146.215 236.272 146.487 236.176 146.775 236.048L147.471 238.568C146.959 238.792 146.367 238.984 145.695 239.144C145.039 239.304 144.399 239.384 143.775 239.384C142.527 239.384 141.615 239.08 141.039 238.472C140.463 237.848 140.175 236.856 140.175 235.496V229.208H138.255V226.4ZM148.633 232.712C148.633 230.632 149.185 229 150.289 227.816C151.393 226.632 152.969 226.04 155.017 226.04C156.089 226.04 157.025 226.208 157.825 226.544C158.625 226.88 159.289 227.352 159.817 227.96C160.345 228.552 160.737 229.256 160.993 230.072C161.265 230.872 161.401 231.752 161.401 232.712C161.401 233.736 161.257 234.664 160.969 235.496C160.681 236.312 160.265 237.008 159.721 237.584C159.177 238.16 158.505 238.6 157.705 238.904C156.921 239.208 156.025 239.36 155.017 239.36C153.929 239.36 152.985 239.192 152.185 238.856C151.385 238.52 150.721 238.056 150.193 237.464C149.665 236.856 149.273 236.152 149.017 235.352C148.761 234.536 148.633 233.656 148.633 232.712ZM152.089 232.712C152.089 233.24 152.145 233.736 152.257 234.2C152.369 234.664 152.537 235.072 152.761 235.424C153.001 235.76 153.305 236.032 153.673 236.24C154.041 236.448 154.489 236.552 155.017 236.552C156.969 236.552 157.945 235.272 157.945 232.712C157.945 232.152 157.889 231.64 157.777 231.176C157.681 230.696 157.513 230.288 157.273 229.952C157.049 229.6 156.745 229.328 156.361 229.136C155.993 228.944 155.545 228.848 155.017 228.848C154.105 228.848 153.385 229.152 152.857 229.76C152.345 230.368 152.089 231.352 152.089 232.712ZM171.582 229.472C171.102 229.312 170.622 229.232 170.142 229.232C169.438 229.232 168.854 229.4 168.39 229.736C167.942 230.072 167.646 230.496 167.502 231.008V239H164.142V226.4H166.782L167.142 228.152H167.454C167.774 227.496 168.198 226.992 168.726 226.64C169.27 226.288 169.886 226.112 170.574 226.112C171.006 226.112 171.502 226.2 172.062 226.376L171.582 229.472ZM184.668 237.848C184.124 238.264 183.38 238.624 182.436 238.928C181.508 239.216 180.508 239.36 179.436 239.36C177.276 239.36 175.692 238.768 174.684 237.584C173.676 236.4 173.172 234.776 173.172 232.712C173.172 230.52 173.74 228.864 174.876 227.744C176.012 226.608 177.612 226.04 179.676 226.04C180.348 226.04 181.012 226.128 181.668 226.304C182.324 226.464 182.908 226.744 183.42 227.144C183.932 227.528 184.34 228.056 184.644 228.728C184.964 229.384 185.124 230.2 185.124 231.176C185.124 231.512 185.1 231.88 185.052 232.28C185.02 232.68 184.956 233.096 184.86 233.528H176.46C176.54 234.616 176.852 235.424 177.396 235.952C177.956 236.464 178.86 236.72 180.108 236.72C180.86 236.72 181.532 236.616 182.124 236.408C182.732 236.184 183.196 235.96 183.516 235.736L184.668 237.848ZM179.628 228.68C178.636 228.68 177.9 228.952 177.42 229.496C176.94 230.024 176.66 230.704 176.58 231.536H182.004C182.068 230.656 181.908 229.96 181.524 229.448C181.14 228.936 180.508 228.68 179.628 228.68ZM188.118 235.736C188.342 235.848 188.598 235.96 188.886 236.072C189.19 236.184 189.51 236.288 189.846 236.384C190.198 236.48 190.55 236.56 190.902 236.624C191.27 236.688 191.638 236.72 192.006 236.72C192.566 236.72 192.998 236.632 193.302 236.456C193.622 236.28 193.782 235.952 193.782 235.472C193.782 235.088 193.574 234.808 193.158 234.632C192.742 234.44 192.23 234.256 191.622 234.08C191.174 233.952 190.702 233.8 190.206 233.624C189.726 233.448 189.278 233.216 188.862 232.928C188.462 232.624 188.126 232.232 187.854 231.752C187.598 231.272 187.47 230.664 187.47 229.928C187.47 228.664 187.862 227.704 188.646 227.048C189.43 226.376 190.558 226.04 192.03 226.04C192.99 226.04 193.886 226.128 194.718 226.304C195.566 226.464 196.246 226.656 196.758 226.88L196.062 229.424C195.646 229.264 195.11 229.104 194.454 228.944C193.814 228.768 193.158 228.68 192.486 228.68C191.926 228.68 191.51 228.768 191.238 228.944C190.966 229.104 190.83 229.392 190.83 229.808C190.83 230.176 191.038 230.456 191.454 230.648C191.886 230.824 192.406 231 193.014 231.176C193.462 231.304 193.926 231.456 194.406 231.632C194.902 231.792 195.35 232.016 195.75 232.304C196.15 232.592 196.478 232.968 196.734 233.432C197.006 233.88 197.142 234.448 197.142 235.136C197.142 236.48 196.702 237.52 195.822 238.256C194.958 238.992 193.654 239.36 191.91 239.36C190.966 239.36 190.086 239.272 189.27 239.096C188.454 238.936 187.79 238.696 187.278 238.376L188.118 235.736Z" fill="white"/>
<defs>
<filter id="filter0_d" x="0" y="0" width="258" height="258" filterUnits="userSpaceOnUse" color-interpolation-filters="sRGB">
<feFlood flood-opacity="0" result="BackgroundImageFix"/>
<feColorMatrix in="SourceAlpha" type="matrix" values="0 0 0 0 0 0 0 0 0 0 0 0 0 0 0 0 0 0 127 0"/>
<feOffset dy="4"/>
<feGaussianBlur stdDeviation="2"/>
<feColorMatrix type="matrix" values="0 0 0 0 0 0 0 0 0 0 0 0 0 0 0 0 0 0 0.25 0"/>
<feBlend mode="normal" in2="BackgroundImageFix" result="effect1_dropShadow"/>
<feBlend mode="normal" in="SourceGraphic" in2="effect1_dropShadow" result="shape"/>
</filter>
<clipPath id="clip0">
<rect width="191.57" height="198.41" fill="white" transform="translate(32 17)"/>
</clipPath>
</defs>
</svg>
