<svg width="258" height="258" viewBox="0 0 258 258" fill="none" xmlns="http://www.w3.org/2000/svg">
<g filter="url(#filter0_d)">
<path d="M204 0H54C26.3858 0 4 22.3858 4 50V200C4 227.614 26.3858 250 54 250H204C231.614 250 254 227.614 254 200V50C254 22.3858 231.614 0 204 0Z" fill="#31493C"/>
</g>
<g clip-path="url(#clip0)">
<path d="M216.579 170.223C212.005 165.486 205.912 162.795 199.61 162.508L192.36 154.999C196.502 147.976 199.534 140.4 201.397 132.42H220.147V94.8931H201.397C199.534 86.9137 196.502 79.3385 192.36 72.3143L205.623 58.5772L180.003 32.0419L166.739 45.7786C159.958 41.4896 152.643 38.3495 144.939 36.4197V17H108.705V36.4197C101.001 38.3491 93.6863 41.49 86.9051 45.7794L73.6411 32.0427L48.0206 58.578L61.2838 72.3151C57.1418 79.3389 54.1097 86.9145 52.2467 94.8938H33.4961V132.421H52.2467C54.1097 140.401 57.1422 147.977 61.2838 155L48.0206 168.737L73.6411 195.273L86.9051 181.536C93.6863 185.825 101.001 188.966 108.705 190.896V210.316H144.939V190.896C152.643 188.966 159.958 185.825 166.739 181.536L172.992 188.012C172.769 195.232 175.395 202.417 180.446 207.648C185.342 212.719 191.858 215.41 198.502 215.41C201.75 215.41 205.029 214.767 208.165 213.443L212.076 211.793L195.409 194.531L197.224 187.601L203.914 185.721L220.581 202.983L222.175 198.932C226.066 189.042 223.869 177.773 216.579 170.223ZM165.606 175.407C158.232 180.385 150.141 183.859 141.555 185.732L139.328 186.217V204.505H114.314V186.217L112.087 185.732C103.502 183.859 95.4104 180.385 88.0369 175.407L86.1309 174.12L73.64 187.056L55.9524 168.737L68.4429 155.8L67.2004 153.826C62.3939 146.19 59.04 137.809 57.2313 128.916L56.7624 126.61H39.1059V100.702H56.7628L57.2316 98.3962C59.04 89.505 62.3939 81.1245 67.2007 73.4873L68.4433 71.5133L55.9528 58.5764L73.6408 40.2569L86.132 53.1942L88.038 51.9076C95.4112 46.9292 103.503 43.4555 112.089 41.5826L114.315 41.097V22.8101H139.33V41.0978L141.556 41.5834C150.142 43.4562 158.234 46.9303 165.607 51.9084L167.513 53.195L180.004 40.2584L197.692 58.578L185.201 71.5149L186.443 73.4889C191.25 81.1261 194.604 89.5066 196.412 98.3978L196.881 100.704H214.538V126.612H196.881L196.412 128.918C194.604 137.81 191.25 146.191 186.443 153.827L185.666 155.061L162.3 130.86L159.834 128.305C161.756 123.679 162.728 118.762 162.728 113.659C162.728 93.1535 146.621 76.4708 126.823 76.4708C107.025 76.4708 90.9175 93.1531 90.9175 113.659C90.9175 134.164 107.025 150.846 126.823 150.846C131.732 150.846 136.464 149.845 140.918 147.869L166.376 174.237L166.757 174.631L165.606 175.407ZM147.632 96.8299C140.342 89.2795 129.462 87.004 119.913 91.0338L116.002 92.6846L132.669 109.947L130.854 116.877L124.163 118.756L107.496 101.494L105.903 105.545C102.012 115.434 104.209 126.703 111.499 134.253C117.582 140.554 126.35 143.235 134.725 141.454L136.577 143.372C133.456 144.475 130.189 145.035 126.822 145.035C110.117 145.035 96.5262 130.959 96.5262 113.657C96.5262 96.3556 110.117 82.2794 126.822 82.2794C143.527 82.2794 157.118 96.3556 157.118 113.657C157.118 117.164 156.572 120.563 155.495 123.812L154.221 122.492C156.588 113.42 154.095 103.524 147.632 96.8299ZM218.195 192.295L205.583 179.233L192.651 182.865L189.145 196.258L201.757 209.321C195.499 210.394 189.032 208.324 184.412 203.539C180.139 199.114 178.093 192.896 178.688 186.794C178.712 186.557 178.738 186.32 178.769 186.084C178.785 185.967 178.799 185.849 178.817 185.732C178.868 185.392 178.928 185.054 178.995 184.717C179.012 184.633 179.029 184.55 179.047 184.466C179.122 184.111 179.205 183.757 179.299 183.407C179.314 183.349 179.331 183.292 179.347 183.234C179.439 182.898 179.54 182.565 179.649 182.234C180.03 181.406 182.173 176.927 185.31 173.678L181.344 169.57C179.232 171.758 177.533 174.319 176.353 176.354L157.911 157.253L142.076 140.852H142.076L136.43 135.005L134.858 135.451C127.949 137.414 120.518 135.38 115.465 130.146C110.845 125.361 108.846 118.663 109.883 112.182L122.495 125.244L135.426 121.612L138.933 108.219L126.32 95.1562C132.579 94.0847 139.046 96.1537 143.665 100.938C149.041 106.506 150.897 114.912 148.395 122.354L147.906 123.808C147.099 125.268 145.819 127.321 144.236 128.961L148.203 133.068C149.68 131.538 150.915 129.791 151.86 128.263L191.647 169.473L193.219 169.027C193.648 168.905 194.08 168.798 194.513 168.707C194.589 168.69 194.666 168.677 194.743 168.662C194.882 168.635 195.02 168.606 195.159 168.582C195.276 168.561 195.394 168.544 195.511 168.526C195.611 168.51 195.71 168.493 195.81 168.479C195.924 168.463 196.038 168.451 196.151 168.437C196.257 168.423 196.363 168.409 196.469 168.398C196.549 168.389 196.629 168.384 196.709 168.377C196.852 168.363 196.994 168.349 197.136 168.339C197.157 168.338 197.177 168.337 197.198 168.336C202.868 167.955 208.519 170.093 212.612 174.332C217.232 179.116 219.232 185.814 218.195 192.295Z" fill="white"/>
<path d="M147.963 137.919L152.042 142.144L156.008 138.036L151.93 133.811L147.963 137.919Z" fill="white"/>
<path d="M156.93 147.21L170.303 161.06L174.269 156.952L160.896 143.102L156.93 147.21Z" fill="white"/>
<path d="M140.6 165.147L142.104 170.744C144.455 170.066 146.784 169.221 149.028 168.234L146.835 162.887C144.815 163.776 142.717 164.536 140.6 165.147Z" fill="white"/>
<path d="M126.833 167.085C98.5956 167.085 75.6223 143.291 75.6223 114.045C75.6223 111.025 75.8692 107.999 76.3557 105.049L70.8263 104.071C70.2868 107.342 70.0129 110.698 70.0129 114.045C70.0129 146.495 95.5025 172.894 126.833 172.894C128.675 172.894 130.533 172.802 132.357 172.619L131.818 166.836C130.173 167.001 128.496 167.085 126.833 167.085Z" fill="white"/>
<path d="M91.4062 75.745L87.5251 71.5505C85.9237 73.1401 84.3967 74.8437 82.9861 76.6142L87.3129 80.3119C88.5847 78.715 89.962 77.1781 91.4062 75.745Z" fill="white"/>
<path d="M126.833 61.005C132.853 61.005 138.745 62.0757 144.347 64.1869L146.265 58.7276C140.046 56.3835 133.508 55.1953 126.833 55.1953C114.346 55.1953 102.498 59.3108 92.568 67.0968L95.9537 71.7284C104.901 64.7132 115.579 61.005 126.833 61.005Z" fill="white"/>
</g>
<path d="M52.72 230.576L53.104 227.096H52.96L51.808 229.736L47.92 236H46.816L42.688 229.712L41.56 227.12H41.416L41.92 230.552V239H38.56V222.2H41.776L46.624 229.952L47.536 231.8H47.656L48.448 229.904L53.08 222.2H56.272V239H52.72V230.576ZM59.4439 227.264C60.1639 226.944 61.0439 226.68 62.0839 226.472C63.1399 226.264 64.2279 226.16 65.3479 226.16C66.2279 226.16 66.9639 226.264 67.5559 226.472C68.1639 226.68 68.6439 226.984 68.9959 227.384C69.3479 227.768 69.5959 228.24 69.7399 228.8C69.8999 229.344 69.9799 229.952 69.9799 230.624C69.9799 231.44 69.9479 232.248 69.8839 233.048C69.8199 233.848 69.7879 234.696 69.7879 235.592C69.7879 236.2 69.8279 236.792 69.9079 237.368C69.9879 237.944 70.1159 238.496 70.2919 239.024H67.5559L67.0039 237.152H66.7159C66.2999 237.712 65.7719 238.192 65.1319 238.592C64.4919 238.992 63.6679 239.192 62.6599 239.192C62.0519 239.192 61.4919 239.104 60.9799 238.928C60.4839 238.752 60.0519 238.504 59.6839 238.184C59.3319 237.848 59.0519 237.456 58.8439 237.008C58.6519 236.56 58.5559 236.072 58.5559 235.544C58.5559 234.12 59.0279 233.048 59.9719 232.328C60.9319 231.592 62.3799 231.224 64.3159 231.224C64.7639 231.224 65.2119 231.264 65.6599 231.344C66.1079 231.408 66.4199 231.456 66.5959 231.488C66.6439 231.152 66.6679 230.864 66.6679 230.624C66.6679 230.016 66.5159 229.568 66.2119 229.28C65.9079 228.992 65.3399 228.848 64.5079 228.848C63.7399 228.848 62.9879 228.944 62.2519 229.136C61.5319 229.312 60.8919 229.536 60.3319 229.808L59.4439 227.264ZM63.8359 236.504C64.5879 236.504 65.1879 236.328 65.6359 235.976C66.0839 235.624 66.4119 235.256 66.6199 234.872V233.432C66.5399 233.4 66.4119 233.368 66.2359 233.336C66.0759 233.304 65.8919 233.272 65.6839 233.24C65.4919 233.208 65.2919 233.184 65.0839 233.168C64.8919 233.152 64.7159 233.144 64.5559 233.144C63.6919 233.144 63.0519 233.304 62.6359 233.624C62.2199 233.928 62.0119 234.312 62.0119 234.776C62.0119 235.352 62.1719 235.784 62.4919 236.072C62.8279 236.36 63.2759 236.504 63.8359 236.504ZM81.9584 239V232.088C81.9584 231 81.7904 230.216 81.4544 229.736C81.1184 229.256 80.5264 229.016 79.6784 229.016C78.9584 229.016 78.3424 229.216 77.8304 229.616C77.3344 230 76.9904 230.496 76.7984 231.104C76.7984 232.416 76.7984 233.736 76.7984 235.064C76.8144 236.376 76.8224 237.688 76.8224 239H73.4624V226.4H76.1024L76.4624 228.2H76.8224C77.2384 227.608 77.7904 227.104 78.4784 226.688C79.1664 226.256 80.0624 226.04 81.1664 226.04C81.8384 226.04 82.4304 226.128 82.9424 226.304C83.4704 226.464 83.9024 226.752 84.2384 227.168C84.5904 227.568 84.8544 228.112 85.0304 228.8C85.2224 229.488 85.3184 230.352 85.3184 231.392V239H81.9584ZM87.2311 226.4H89.1511V224.672L92.5111 223.784V226.4H95.8951V229.208H92.5111V233.576C92.5111 234.584 92.6071 235.312 92.7991 235.76C93.0071 236.192 93.4071 236.408 93.9991 236.408C94.3671 236.408 94.6791 236.384 94.9351 236.336C95.1911 236.272 95.4631 236.176 95.7511 236.048L96.4471 238.568C95.9351 238.792 95.3431 238.984 94.6711 239.144C94.0151 239.304 93.3751 239.384 92.7511 239.384C91.5031 239.384 90.5911 239.08 90.0151 238.472C89.4391 237.848 89.1511 236.856 89.1511 235.496V229.208H87.2311V226.4ZM109.106 237.848C108.562 238.264 107.818 238.624 106.874 238.928C105.946 239.216 104.946 239.36 103.874 239.36C101.714 239.36 100.13 238.768 99.1216 237.584C98.1136 236.4 97.6096 234.776 97.6096 232.712C97.6096 230.52 98.1776 228.864 99.3136 227.744C100.45 226.608 102.05 226.04 104.114 226.04C104.786 226.04 105.45 226.128 106.106 226.304C106.762 226.464 107.346 226.744 107.858 227.144C108.37 227.528 108.778 228.056 109.082 228.728C109.402 229.384 109.562 230.2 109.562 231.176C109.562 231.512 109.538 231.88 109.49 232.28C109.458 232.68 109.394 233.096 109.298 233.528H100.898C100.978 234.616 101.29 235.424 101.834 235.952C102.394 236.464 103.298 236.72 104.546 236.72C105.298 236.72 105.97 236.616 106.562 236.408C107.17 236.184 107.634 235.96 107.954 235.736L109.106 237.848ZM104.066 228.68C103.074 228.68 102.338 228.952 101.858 229.496C101.378 230.024 101.098 230.704 101.018 231.536H106.442C106.506 230.656 106.346 229.96 105.962 229.448C105.578 228.936 104.946 228.68 104.066 228.68ZM121.076 239V232.088C121.076 231 120.908 230.216 120.572 229.736C120.236 229.256 119.644 229.016 118.796 229.016C118.076 229.016 117.46 229.216 116.948 229.616C116.452 230 116.108 230.496 115.916 231.104C115.916 232.416 115.916 233.736 115.916 235.064C115.932 236.376 115.94 237.688 115.94 239H112.58V226.4H115.22L115.58 228.2H115.94C116.356 227.608 116.908 227.104 117.596 226.688C118.284 226.256 119.18 226.04 120.284 226.04C120.956 226.04 121.548 226.128 122.06 226.304C122.588 226.464 123.02 226.752 123.356 227.168C123.708 227.568 123.972 228.112 124.148 228.8C124.34 229.488 124.436 230.352 124.436 231.392V239H121.076ZM128.292 226.4H131.652V239H128.292V226.4ZM127.788 223.256C127.788 222.744 127.972 222.32 128.34 221.984C128.708 221.632 129.228 221.456 129.9 221.456C130.588 221.456 131.132 221.632 131.532 221.984C131.932 222.336 132.132 222.76 132.132 223.256C132.132 223.72 131.932 224.12 131.532 224.456C131.132 224.792 130.588 224.96 129.9 224.96C129.228 224.96 128.708 224.792 128.34 224.456C127.972 224.12 127.788 223.72 127.788 223.256ZM143.373 239V232.424C143.373 231.208 143.245 230.336 142.989 229.808C142.733 229.28 142.205 229.016 141.405 229.016C140.733 229.016 140.197 229.184 139.797 229.52C139.397 229.84 139.085 230.264 138.861 230.792V239H135.501V226.4H138.093L138.477 228.152H138.789C138.997 227.88 139.237 227.616 139.509 227.36C139.781 227.104 140.077 226.88 140.397 226.688C140.733 226.496 141.101 226.344 141.501 226.232C141.917 226.104 142.381 226.04 142.893 226.04C143.741 226.04 144.445 226.232 145.005 226.616C145.581 226.984 146.037 227.608 146.373 228.488C146.837 227.72 147.397 227.12 148.053 226.688C148.725 226.256 149.501 226.04 150.381 226.04C151.149 226.04 151.797 226.128 152.325 226.304C152.869 226.48 153.309 226.784 153.645 227.216C153.981 227.648 154.221 228.232 154.365 228.968C154.525 229.704 154.605 230.624 154.605 231.728V239H151.245V232.256C151.245 231.728 151.221 231.264 151.173 230.864C151.125 230.464 151.029 230.128 150.885 229.856C150.741 229.568 150.533 229.36 150.261 229.232C150.005 229.088 149.661 229.016 149.229 229.016C148.557 229.016 148.013 229.192 147.597 229.544C147.197 229.88 146.909 230.352 146.733 230.96V239H143.373ZM158.48 226.4H161.84V239H158.48V226.4ZM157.976 223.256C157.976 222.744 158.16 222.32 158.528 221.984C158.896 221.632 159.416 221.456 160.088 221.456C160.776 221.456 161.32 221.632 161.72 221.984C162.12 222.336 162.32 222.76 162.32 223.256C162.32 223.72 162.12 224.12 161.72 224.456C161.32 224.792 160.776 224.96 160.088 224.96C159.416 224.96 158.896 224.792 158.528 224.456C158.16 224.12 157.976 223.72 157.976 223.256ZM176.465 237.848C175.921 238.264 175.177 238.624 174.233 238.928C173.305 239.216 172.305 239.36 171.233 239.36C169.073 239.36 167.489 238.768 166.481 237.584C165.473 236.4 164.969 234.776 164.969 232.712C164.969 230.52 165.537 228.864 166.673 227.744C167.809 226.608 169.409 226.04 171.473 226.04C172.145 226.04 172.809 226.128 173.465 226.304C174.121 226.464 174.705 226.744 175.217 227.144C175.729 227.528 176.137 228.056 176.441 228.728C176.761 229.384 176.921 230.2 176.921 231.176C176.921 231.512 176.897 231.88 176.849 232.28C176.817 232.68 176.753 233.096 176.657 233.528H168.257C168.337 234.616 168.649 235.424 169.193 235.952C169.753 236.464 170.657 236.72 171.905 236.72C172.657 236.72 173.329 236.616 173.921 236.408C174.529 236.184 174.993 235.96 175.313 235.736L176.465 237.848ZM171.425 228.68C170.433 228.68 169.697 228.952 169.217 229.496C168.737 230.024 168.457 230.704 168.377 231.536H173.801C173.865 230.656 173.705 229.96 173.321 229.448C172.937 228.936 172.305 228.68 171.425 228.68ZM188.435 239V232.088C188.435 231 188.267 230.216 187.931 229.736C187.595 229.256 187.003 229.016 186.155 229.016C185.435 229.016 184.819 229.216 184.307 229.616C183.811 230 183.467 230.496 183.275 231.104C183.275 232.416 183.275 233.736 183.275 235.064C183.291 236.376 183.299 237.688 183.299 239H179.939V226.4H182.579L182.939 228.2H183.299C183.715 227.608 184.267 227.104 184.955 226.688C185.643 226.256 186.539 226.04 187.643 226.04C188.315 226.04 188.907 226.128 189.419 226.304C189.947 226.464 190.379 226.752 190.715 227.168C191.067 227.568 191.331 228.112 191.507 228.8C191.699 229.488 191.795 230.352 191.795 231.392V239H188.435ZM193.708 226.4H195.628V224.672L198.988 223.784V226.4H202.372V229.208H198.988V233.576C198.988 234.584 199.084 235.312 199.276 235.76C199.484 236.192 199.884 236.408 200.476 236.408C200.844 236.408 201.156 236.384 201.412 236.336C201.668 236.272 201.94 236.176 202.228 236.048L202.924 238.568C202.412 238.792 201.82 238.984 201.148 239.144C200.492 239.304 199.852 239.384 199.228 239.384C197.98 239.384 197.068 239.08 196.492 238.472C195.916 237.848 195.628 236.856 195.628 235.496V229.208H193.708V226.4ZM204.086 232.712C204.086 230.632 204.638 229 205.742 227.816C206.846 226.632 208.422 226.04 210.47 226.04C211.542 226.04 212.478 226.208 213.278 226.544C214.078 226.88 214.742 227.352 215.27 227.96C215.798 228.552 216.19 229.256 216.446 230.072C216.718 230.872 216.854 231.752 216.854 232.712C216.854 233.736 216.71 234.664 216.422 235.496C216.134 236.312 215.718 237.008 215.174 237.584C214.63 238.16 213.958 238.6 213.158 238.904C212.374 239.208 211.478 239.36 210.47 239.36C209.382 239.36 208.438 239.192 207.638 238.856C206.838 238.52 206.174 238.056 205.646 237.464C205.118 236.856 204.726 236.152 204.47 235.352C204.214 234.536 204.086 233.656 204.086 232.712ZM207.542 232.712C207.542 233.24 207.598 233.736 207.71 234.2C207.822 234.664 207.99 235.072 208.214 235.424C208.454 235.76 208.758 236.032 209.126 236.24C209.494 236.448 209.942 236.552 210.47 236.552C212.422 236.552 213.398 235.272 213.398 232.712C213.398 232.152 213.342 231.64 213.23 231.176C213.134 230.696 212.966 230.288 212.726 229.952C212.502 229.6 212.198 229.328 211.814 229.136C211.446 228.944 210.998 228.848 210.47 228.848C209.558 228.848 208.838 229.152 208.31 229.76C207.798 230.368 207.542 231.352 207.542 232.712Z" fill="white"/>
<defs>
<filter id="filter0_d" x="0" y="0" width="258" height="258" filterUnits="userSpaceOnUse" color-interpolation-filters="sRGB">
<feFlood flood-opacity="0" result="BackgroundImageFix"/>
<feColorMatrix in="SourceAlpha" type="matrix" values="0 0 0 0 0 0 0 0 0 0 0 0 0 0 0 0 0 0 127 0"/>
<feOffset dy="4"/>
<feGaussianBlur stdDeviation="2"/>
<feColorMatrix type="matrix" values="0 0 0 0 0 0 0 0 0 0 0 0 0 0 0 0 0 0 0.25 0"/>
<feBlend mode="normal" in2="BackgroundImageFix" result="effect1_dropShadow"/>
<feBlend mode="normal" in="SourceGraphic" in2="effect1_dropShadow" result="shape"/>
</filter>
<clipPath id="clip0">
<rect width="191.57" height="198.41" fill="white" transform="translate(33 17)"/>
</clipPath>
</defs>
</svg>
