<svg width="258" height="258" viewBox="0 0 258 258" fill="none" xmlns="http://www.w3.org/2000/svg">
<g filter="url(#filter0_d)">
<path d="M204 0H54C26.3858 0 4 22.3858 4 50V200C4 227.614 26.3858 250 54 250H204C231.614 250 254 227.614 254 200V50C254 22.3858 231.614 0 204 0Z" fill="#001A23"/>
</g>
<path d="M50.56 219.368C51.28 219.24 52.08 219.144 52.96 219.08C53.84 219 54.72 218.96 55.6 218.96C56.496 218.96 57.4 219.032 58.312 219.176C59.224 219.304 60.04 219.576 60.76 219.992C61.496 220.392 62.096 220.96 62.56 221.696C63.024 222.416 63.256 223.376 63.256 224.576C63.256 225.632 63.056 226.536 62.656 227.288C62.256 228.024 61.72 228.624 61.048 229.088C60.392 229.552 59.64 229.896 58.792 230.12C57.944 230.328 57.072 230.432 56.176 230.432C56.096 230.432 55.96 230.432 55.768 230.432C55.576 230.432 55.368 230.432 55.144 230.432C54.936 230.416 54.736 230.4 54.544 230.384C54.352 230.368 54.208 230.352 54.112 230.336V236H50.56V219.368ZM55.84 222.08C55.504 222.08 55.176 222.088 54.856 222.104C54.552 222.12 54.304 222.152 54.112 222.2V227.192C54.176 227.208 54.28 227.224 54.424 227.24C54.568 227.256 54.72 227.272 54.88 227.288C55.04 227.288 55.184 227.296 55.312 227.312C55.456 227.312 55.568 227.312 55.648 227.312C56.112 227.312 56.576 227.28 57.04 227.216C57.504 227.152 57.912 227.016 58.264 226.808C58.632 226.6 58.928 226.32 59.152 225.968C59.376 225.6 59.488 225.112 59.488 224.504C59.488 223.992 59.384 223.584 59.176 223.28C58.968 222.96 58.688 222.712 58.336 222.536C58 222.36 57.608 222.24 57.16 222.176C56.728 222.112 56.288 222.08 55.84 222.08ZM72.2774 226.472C71.7974 226.312 71.3174 226.232 70.8374 226.232C70.1334 226.232 69.5494 226.4 69.0854 226.736C68.6374 227.072 68.3414 227.496 68.1974 228.008V236H64.8374V223.4H67.4774L67.8374 225.152H68.1494C68.4694 224.496 68.8934 223.992 69.4214 223.64C69.9654 223.288 70.5814 223.112 71.2694 223.112C71.7014 223.112 72.1974 223.2 72.7574 223.376L72.2774 226.472ZM73.8674 229.712C73.8674 227.632 74.4194 226 75.5234 224.816C76.6274 223.632 78.2034 223.04 80.2514 223.04C81.3234 223.04 82.2594 223.208 83.0594 223.544C83.8594 223.88 84.5234 224.352 85.0514 224.96C85.5794 225.552 85.9714 226.256 86.2274 227.072C86.4994 227.872 86.6354 228.752 86.6354 229.712C86.6354 230.736 86.4914 231.664 86.2034 232.496C85.9154 233.312 85.4994 234.008 84.9554 234.584C84.4114 235.16 83.7394 235.6 82.9394 235.904C82.1554 236.208 81.2594 236.36 80.2514 236.36C79.1634 236.36 78.2194 236.192 77.4194 235.856C76.6194 235.52 75.9554 235.056 75.4274 234.464C74.8994 233.856 74.5074 233.152 74.2514 232.352C73.9954 231.536 73.8674 230.656 73.8674 229.712ZM77.3234 229.712C77.3234 230.24 77.3794 230.736 77.4914 231.2C77.6034 231.664 77.7714 232.072 77.9954 232.424C78.2354 232.76 78.5394 233.032 78.9074 233.24C79.2754 233.448 79.7234 233.552 80.2514 233.552C82.2034 233.552 83.1794 232.272 83.1794 229.712C83.1794 229.152 83.1234 228.64 83.0114 228.176C82.9154 227.696 82.7474 227.288 82.5074 226.952C82.2834 226.6 81.9794 226.328 81.5954 226.136C81.2274 225.944 80.7794 225.848 80.2514 225.848C79.3394 225.848 78.6194 226.152 78.0914 226.76C77.5794 227.368 77.3234 228.352 77.3234 229.712ZM93.4883 229.928L93.9923 231.872H94.3763L94.7363 229.88L97.0883 223.4H100.712L94.9523 236.12H93.0323L87.0323 223.4H90.9443L93.4883 229.928ZM112.738 234.848C112.194 235.264 111.45 235.624 110.506 235.928C109.578 236.216 108.578 236.36 107.506 236.36C105.346 236.36 103.762 235.768 102.754 234.584C101.746 233.4 101.242 231.776 101.242 229.712C101.242 227.52 101.81 225.864 102.946 224.744C104.082 223.608 105.682 223.04 107.746 223.04C108.418 223.04 109.082 223.128 109.738 223.304C110.394 223.464 110.978 223.744 111.49 224.144C112.002 224.528 112.41 225.056 112.714 225.728C113.034 226.384 113.194 227.2 113.194 228.176C113.194 228.512 113.17 228.88 113.122 229.28C113.09 229.68 113.026 230.096 112.93 230.528H104.53C104.61 231.616 104.922 232.424 105.466 232.952C106.026 233.464 106.93 233.72 108.178 233.72C108.93 233.72 109.602 233.616 110.194 233.408C110.802 233.184 111.266 232.96 111.586 232.736L112.738 234.848ZM107.698 225.68C106.706 225.68 105.97 225.952 105.49 226.496C105.01 227.024 104.73 227.704 104.65 228.536H110.074C110.138 227.656 109.978 226.96 109.594 226.448C109.21 225.936 108.578 225.68 107.698 225.68ZM126.848 234.848C126.304 235.264 125.56 235.624 124.616 235.928C123.688 236.216 122.688 236.36 121.616 236.36C119.456 236.36 117.872 235.768 116.864 234.584C115.856 233.4 115.352 231.776 115.352 229.712C115.352 227.52 115.92 225.864 117.056 224.744C118.192 223.608 119.792 223.04 121.856 223.04C122.528 223.04 123.192 223.128 123.848 223.304C124.504 223.464 125.088 223.744 125.6 224.144C126.112 224.528 126.52 225.056 126.824 225.728C127.144 226.384 127.304 227.2 127.304 228.176C127.304 228.512 127.28 228.88 127.232 229.28C127.2 229.68 127.136 230.096 127.04 230.528H118.64C118.72 231.616 119.032 232.424 119.576 232.952C120.136 233.464 121.04 233.72 122.288 233.72C123.04 233.72 123.712 233.616 124.304 233.408C124.912 233.184 125.376 232.96 125.696 232.736L126.848 234.848ZM121.808 225.68C120.816 225.68 120.08 225.952 119.6 226.496C119.12 227.024 118.84 227.704 118.76 228.536H124.184C124.248 227.656 124.088 226.96 123.704 226.448C123.32 225.936 122.688 225.68 121.808 225.68ZM141.794 231.584C141.794 232.256 141.802 232.952 141.818 233.672C141.834 234.392 141.906 235.176 142.034 236.024H139.706L139.226 234.272H138.914C138.546 234.912 138.018 235.424 137.33 235.808C136.658 236.176 135.85 236.36 134.906 236.36C133.226 236.36 131.922 235.84 130.994 234.8C130.066 233.744 129.602 232.12 129.602 229.928C129.602 228.872 129.73 227.92 129.986 227.072C130.258 226.224 130.65 225.504 131.162 224.912C131.69 224.32 132.338 223.864 133.106 223.544C133.874 223.224 134.762 223.064 135.77 223.064C136.33 223.064 136.81 223.112 137.21 223.208C137.626 223.288 138.034 223.392 138.434 223.52V219.2H141.794V231.584ZM135.77 233.552C136.522 233.552 137.106 233.384 137.522 233.048C137.938 232.696 138.242 232.2 138.434 231.56V226.52C138.146 226.296 137.834 226.136 137.498 226.04C137.178 225.928 136.754 225.872 136.226 225.872C135.154 225.872 134.354 226.184 133.826 226.808C133.314 227.432 133.058 228.504 133.058 230.024C133.058 231.08 133.274 231.936 133.706 232.592C134.154 233.232 134.842 233.552 135.77 233.552ZM144.672 229.712C144.672 227.632 145.224 226 146.328 224.816C147.432 223.632 149.008 223.04 151.056 223.04C152.128 223.04 153.064 223.208 153.864 223.544C154.664 223.88 155.328 224.352 155.856 224.96C156.384 225.552 156.776 226.256 157.032 227.072C157.304 227.872 157.44 228.752 157.44 229.712C157.44 230.736 157.296 231.664 157.008 232.496C156.72 233.312 156.304 234.008 155.76 234.584C155.216 235.16 154.544 235.6 153.744 235.904C152.96 236.208 152.064 236.36 151.056 236.36C149.968 236.36 149.024 236.192 148.224 235.856C147.424 235.52 146.76 235.056 146.232 234.464C145.704 233.856 145.312 233.152 145.056 232.352C144.8 231.536 144.672 230.656 144.672 229.712ZM148.128 229.712C148.128 230.24 148.184 230.736 148.296 231.2C148.408 231.664 148.576 232.072 148.8 232.424C149.04 232.76 149.344 233.032 149.712 233.24C150.08 233.448 150.528 233.552 151.056 233.552C153.008 233.552 153.984 232.272 153.984 229.712C153.984 229.152 153.928 228.64 153.816 228.176C153.72 227.696 153.552 227.288 153.312 226.952C153.088 226.6 152.784 226.328 152.4 226.136C152.032 225.944 151.584 225.848 151.056 225.848C150.144 225.848 149.424 226.152 148.896 226.76C148.384 227.368 148.128 228.352 148.128 229.712ZM167.621 226.472C167.141 226.312 166.661 226.232 166.181 226.232C165.477 226.232 164.893 226.4 164.429 226.736C163.981 227.072 163.685 227.496 163.541 228.008V236H160.181V223.4H162.821L163.181 225.152H163.493C163.813 224.496 164.237 223.992 164.765 223.64C165.309 223.288 165.925 223.112 166.613 223.112C167.045 223.112 167.541 223.2 168.101 223.376L167.621 226.472ZM180.707 234.848C180.163 235.264 179.419 235.624 178.475 235.928C177.547 236.216 176.547 236.36 175.475 236.36C173.315 236.36 171.731 235.768 170.723 234.584C169.715 233.4 169.211 231.776 169.211 229.712C169.211 227.52 169.779 225.864 170.915 224.744C172.051 223.608 173.651 223.04 175.715 223.04C176.387 223.04 177.051 223.128 177.707 223.304C178.363 223.464 178.947 223.744 179.459 224.144C179.971 224.528 180.379 225.056 180.683 225.728C181.003 226.384 181.163 227.2 181.163 228.176C181.163 228.512 181.139 228.88 181.091 229.28C181.059 229.68 180.995 230.096 180.899 230.528H172.499C172.579 231.616 172.891 232.424 173.435 232.952C173.995 233.464 174.899 233.72 176.147 233.72C176.899 233.72 177.571 233.616 178.163 233.408C178.771 233.184 179.235 232.96 179.555 232.736L180.707 234.848ZM175.667 225.68C174.675 225.68 173.939 225.952 173.459 226.496C172.979 227.024 172.699 227.704 172.619 228.536H178.043C178.107 227.656 177.947 226.96 177.563 226.448C177.179 225.936 176.547 225.68 175.667 225.68ZM184.157 232.736C184.381 232.848 184.637 232.96 184.925 233.072C185.229 233.184 185.549 233.288 185.885 233.384C186.237 233.48 186.589 233.56 186.941 233.624C187.309 233.688 187.677 233.72 188.045 233.72C188.605 233.72 189.037 233.632 189.341 233.456C189.661 233.28 189.821 232.952 189.821 232.472C189.821 232.088 189.613 231.808 189.197 231.632C188.781 231.44 188.269 231.256 187.661 231.08C187.213 230.952 186.741 230.8 186.245 230.624C185.765 230.448 185.317 230.216 184.901 229.928C184.501 229.624 184.165 229.232 183.893 228.752C183.637 228.272 183.509 227.664 183.509 226.928C183.509 225.664 183.901 224.704 184.685 224.048C185.469 223.376 186.597 223.04 188.069 223.04C189.029 223.04 189.925 223.128 190.757 223.304C191.605 223.464 192.285 223.656 192.797 223.88L192.101 226.424C191.685 226.264 191.149 226.104 190.493 225.944C189.853 225.768 189.197 225.68 188.525 225.68C187.965 225.68 187.549 225.768 187.277 225.944C187.005 226.104 186.869 226.392 186.869 226.808C186.869 227.176 187.077 227.456 187.493 227.648C187.925 227.824 188.445 228 189.053 228.176C189.501 228.304 189.965 228.456 190.445 228.632C190.941 228.792 191.389 229.016 191.789 229.304C192.189 229.592 192.517 229.968 192.773 230.432C193.045 230.88 193.181 231.448 193.181 232.136C193.181 233.48 192.741 234.52 191.861 235.256C190.997 235.992 189.693 236.36 187.949 236.36C187.005 236.36 186.125 236.272 185.309 236.096C184.493 235.936 183.829 235.696 183.317 235.376L184.157 232.736Z" fill="white"/>
<path d="M131.778 209.31H221.577V134.906H131.778V209.31ZM167.698 141.106H185.657V147.307H167.698V141.106ZM137.765 141.106H161.711V153.507H191.644V141.106H215.59V203.11H137.765V141.106Z" fill="white"/>
<path d="M203.617 190.709H209.604V196.909H203.617V190.709Z" fill="white"/>
<path d="M191.644 190.709H197.63V196.909H191.644V190.709Z" fill="white"/>
<path d="M179.671 190.709H185.657V196.909H179.671V190.709Z" fill="white"/>
<path d="M215.59 79.1033H209.604V17.1002H131.778V79.1033H125.792V17.1002H47.9664V79.1033H41.9798C38.6783 79.1033 35.9933 81.8841 35.9933 85.3036V91.5039C35.9933 94.9234 38.6783 97.7042 41.9798 97.7042H57.7335C57.2366 99.6914 56.9463 101.759 56.9463 103.905C56.9463 112.523 61.2177 120.121 67.6772 124.567C49.3493 130.426 35.9933 148.128 35.9933 169.008C35.9933 175.348 39.696 180.795 44.9731 183.194V209.31H125.792V169.008C125.792 148.128 112.436 130.426 94.1078 124.567C100.567 120.121 104.839 112.523 104.839 103.905C104.839 101.759 104.548 99.6914 104.052 97.7042H215.59C218.892 97.7042 221.577 94.9234 221.577 91.5039V85.3036C221.577 81.8841 218.892 79.1033 215.59 79.1033ZM161.711 23.3005H179.671V29.5008H161.711V23.3005ZM137.765 23.3005H155.725V35.7011H185.657V23.3005H203.617V79.1033H185.657V66.7027H155.725V79.1033H137.765V23.3005ZM179.671 79.1033H161.711V72.903H179.671V79.1033ZM77.8992 23.3005H95.8589V29.5008H77.8992V23.3005ZM53.953 23.3005H71.9127V35.7011H101.845V23.3005H119.805V79.1033H101.845V66.7027H71.9127V79.1033H53.953V23.3005ZM77.8992 79.1033V72.903H95.8589V79.1033H77.8992ZM41.9798 91.5039V85.3036H65.1059C63.1603 87.0769 61.496 89.1695 60.185 91.5039H41.9798ZM50.9597 184.509H62.9328V203.11H50.9597V184.509ZM79.3959 162.808H68.9194V147.307H89.8723V162.808H104.839V203.11H68.9194V184.509H79.3959C85.1729 184.509 89.8723 179.641 89.8723 173.658C89.8723 167.675 85.1729 162.808 79.3959 162.808ZM95.8589 151.69L100.606 156.607H95.8589V151.69ZM119.805 169.008V203.11H110.825V158.424L94.1048 141.106H62.9328V162.808H53.953V169.008H79.3959C81.8713 169.008 83.8858 171.094 83.8858 173.658C83.8858 176.222 81.8713 178.308 79.3959 178.308H50.9597C46.0088 178.308 41.9798 174.135 41.9798 169.008C41.9798 146.786 59.4367 128.706 80.8925 128.706C102.348 128.706 119.805 146.786 119.805 169.008ZM80.8925 122.505C70.9877 122.505 62.9328 114.163 62.9328 103.905C62.9328 93.6461 70.9877 85.3036 80.8925 85.3036C90.7973 85.3036 98.8522 93.6461 98.8522 103.905C98.8522 114.163 90.7973 122.505 80.8925 122.505ZM215.59 91.5039H101.6C100.292 89.1695 98.6247 87.0769 96.6791 85.3036H215.59V91.5039Z" fill="white"/>
<path d="M179.671 178.308H209.604V184.509H179.671V178.308Z" fill="white"/>
<defs>
<filter id="filter0_d" x="0" y="0" width="258" height="258" filterUnits="userSpaceOnUse" color-interpolation-filters="sRGB">
<feFlood flood-opacity="0" result="BackgroundImageFix"/>
<feColorMatrix in="SourceAlpha" type="matrix" values="0 0 0 0 0 0 0 0 0 0 0 0 0 0 0 0 0 0 127 0"/>
<feOffset dy="4"/>
<feGaussianBlur stdDeviation="2"/>
<feColorMatrix type="matrix" values="0 0 0 0 0 0 0 0 0 0 0 0 0 0 0 0 0 0 0.25 0"/>
<feBlend mode="normal" in2="BackgroundImageFix" result="effect1_dropShadow"/>
<feBlend mode="normal" in="SourceGraphic" in2="effect1_dropShadow" result="shape"/>
</filter>
</defs>
</svg>
