<svg xmlns="http://www.w3.org/2000/svg" width="258" height="258" fill="none" viewBox="0 0 258 258"><g filter="url(#filter0_d)"><path fill="#D16014" d="M204 0H54C26.3858 0 4 22.3858 4 50V200C4 227.614 26.3858 250 54 250H204C231.614 250 254 227.614 254 200V50C254 22.3858 231.614 0 204 0Z"/></g><path fill="#fff" d="M221.114 99.2063H195.571V92.5926H217.921C219.683 92.5926 221.114 91.112 221.114 89.2857V52.91C221.114 51.0838 219.683 49.6032 217.921 49.6032H166.835C165.072 49.6032 163.642 51.0838 163.642 52.91V89.2857C163.642 91.112 165.072 92.5926 166.835 92.5926H189.185V99.2063H157.1C156.439 90.2749 151.768 82.1825 144.485 77.3512V39.6825C144.485 23.2454 131.62 9.92062 115.75 9.92062C99.8797 9.92062 87.014 23.2454 87.014 39.6825V77.3512C79.7312 82.1825 75.06 90.2749 74.3991 99.2063H67.857V92.5926C67.857 90.7663 66.4274 89.2857 64.6641 89.2857H64.2075V87.6323C64.1992 82.0668 60.3678 77.2954 55.0856 76.2731V76.0582C55.0856 74.2319 53.656 72.7513 51.8927 72.7513C50.1294 72.7513 48.6999 74.2319 48.6999 76.0582V76.2731C43.4176 77.2954 39.5862 82.0668 39.5779 87.6323V89.2857H39.1213C37.358 89.2857 35.9285 90.7663 35.9285 92.5926V99.2063C34.1652 99.2063 32.7356 100.687 32.7356 102.513V115.741C32.7356 117.567 34.1652 119.048 35.9285 119.048H39.1213V205.026C39.1213 206.852 40.5509 208.333 42.3142 208.333H214.728C216.49 208.333 217.921 206.852 217.921 205.026V119.048H221.114C222.876 119.048 224.307 117.567 224.307 115.741V102.513C224.307 100.687 222.876 99.2063 221.114 99.2063ZM170.028 85.9788V56.2169H214.728V85.9788H170.028ZM140.335 82.4735C146.183 85.9978 150.028 92.2297 150.66 99.2063H118.943V89.4775C121.623 88.7756 124.008 87.1876 125.737 84.9537L130.003 79.4312C133.216 79.5771 136.367 80.4021 139.262 81.8551C139.577 82.132 139.941 82.3421 140.335 82.4735ZM93.3997 39.6825C93.3997 26.8981 103.406 16.5344 115.75 16.5344C128.093 16.5344 138.1 26.8981 138.1 39.6825V74.2857C135.003 73.2626 131.771 72.7447 128.521 72.7513C128.457 72.7513 128.406 72.7844 128.345 72.7877C128.129 72.8084 127.914 72.8525 127.707 72.92C127.509 72.961 127.315 73.0234 127.129 73.1051C126.967 73.2019 126.813 73.3122 126.669 73.4358C126.479 73.5666 126.304 73.7185 126.146 73.8889C126.107 73.9319 126.053 73.955 126.015 74.0013L120.753 80.8201C118.376 83.6819 114.209 84.0064 111.446 81.5443C111.195 81.3214 110.962 81.0794 110.746 80.8201L105.472 73.9914C105.434 73.9418 105.376 73.9219 105.338 73.8756C105.186 73.7127 105.018 73.5666 104.837 73.4391C104.683 73.3148 104.52 73.2044 104.348 73.1085C104.173 73.0342 103.993 72.9757 103.808 72.9332C103.593 72.8622 103.37 72.8159 103.144 72.7943C103.087 72.7943 103.036 72.7612 102.978 72.7612C99.728 72.7546 96.4964 73.2725 93.3997 74.2956V39.6825ZM91.1648 82.4735C91.5639 82.3441 91.9338 82.1343 92.2535 81.8551C95.1481 80.4019 98.2993 79.5771 101.513 79.4312L105.778 84.9537C107.503 87.1841 109.883 88.7723 112.557 89.4775V99.2063H80.8391C81.4713 92.2297 85.3167 85.9978 91.1648 82.4735ZM45.9636 87.6323C45.9636 84.8928 48.1079 82.6719 50.7529 82.6719H53.0326C55.6775 82.6719 57.8218 84.8928 57.8218 87.6323V89.2857H45.9636V87.6323ZM42.3142 95.8995H61.4713V99.2063H42.3142V95.8995ZM211.535 201.72H45.507V119.048H211.535V201.72ZM217.921 112.434H39.1213V105.82H217.921V112.434Z"/><path fill="#fff" d="M131.714 36.3756C126.069 36.3756 116.982 34.8412 115.414 31.5906C114.828 30.4109 113.625 29.7006 112.346 29.7784C111.06 29.8653 109.951 30.7445 109.533 32.0073C108.091 36.3789 104.238 39.4122 99.7854 39.6825C98.0221 39.6825 96.5926 41.1631 96.5926 42.9894V53.4689C96.6049 64.4217 105.175 73.2974 115.75 73.3102V73.3168C126.324 73.3022 134.893 64.4274 134.907 53.4755V39.6825C134.907 37.8562 133.477 36.3756 131.714 36.3756ZM128.521 53.4557C128.521 60.761 122.803 66.6832 115.75 66.6832C108.696 66.6832 102.978 60.761 102.978 53.4557V45.9887C107.248 45.071 110.981 42.4136 113.339 38.6144C117.999 41.2685 123.205 42.729 128.521 42.8737V53.4557Z"/><path fill="#fff" d="M72.9655 216.183C73.3333 216.119 73.7318 216.063 74.1609 216.016C74.6054 215.952 75.0498 215.905 75.4943 215.873C75.9387 215.841 76.3678 215.817 76.7816 215.802C77.2107 215.786 77.6015 215.778 77.954 215.778C78.7663 215.778 79.5632 215.849 80.3448 215.992C81.1418 216.135 81.8467 216.381 82.4598 216.73C83.0881 217.079 83.5939 217.563 83.977 218.183C84.3602 218.786 84.5517 219.548 84.5517 220.468C84.5517 221.833 84.2222 222.96 83.5632 223.849C82.9195 224.722 82.023 225.317 80.8736 225.635L82.092 226.373L86.1149 232.683H82.1609L78.1609 226.23L76.3678 225.944V232.683H72.9655V216.183ZM78.1839 218.873C77.8314 218.873 77.4866 218.881 77.1494 218.897C76.8276 218.897 76.567 218.921 76.3678 218.968V223.563H77.8161C78.7816 223.563 79.5402 223.373 80.092 222.992C80.659 222.611 80.9425 221.952 80.9425 221.016C80.9425 220.317 80.705 219.786 80.2299 219.421C79.7548 219.056 79.0728 218.873 78.1839 218.873ZM97.2549 231.54C96.7338 231.952 96.0212 232.31 95.117 232.611C94.2281 232.897 93.2702 233.04 92.2434 233.04C90.1744 233.04 88.6572 232.452 87.6917 231.278C86.7261 230.103 86.2434 228.492 86.2434 226.444C86.2434 224.27 86.7874 222.627 87.8756 221.516C88.9637 220.389 90.4963 219.825 92.4733 219.825C93.117 219.825 93.753 219.913 94.3813 220.087C95.0097 220.246 95.5691 220.524 96.0595 220.921C96.5499 221.302 96.9407 221.825 97.2319 222.492C97.5384 223.143 97.6917 223.952 97.6917 224.921C97.6917 225.254 97.6687 225.619 97.6227 226.016C97.5921 226.413 97.5307 226.825 97.4388 227.254H89.3928C89.4694 228.333 89.7683 229.135 90.2894 229.659C90.8258 230.167 91.6917 230.421 92.8871 230.421C93.6074 230.421 94.2511 230.317 94.8181 230.111C95.4005 229.889 95.8449 229.667 96.1514 229.444L97.2549 231.54ZM92.4273 222.444C91.4771 222.444 90.7721 222.714 90.3124 223.254C89.8526 223.778 89.5844 224.452 89.5078 225.278H94.7032C94.7645 224.405 94.6112 223.714 94.2434 223.206C93.8756 222.698 93.2702 222.444 92.4273 222.444ZM109.551 231.921C109.03 232.286 108.402 232.564 107.666 232.754C106.946 232.944 106.195 233.04 105.413 233.04C104.371 233.04 103.49 232.881 102.77 232.564C102.065 232.246 101.482 231.794 101.022 231.206C100.578 230.619 100.256 229.929 100.057 229.135C99.8577 228.325 99.758 227.429 99.758 226.444C99.758 224.365 100.248 222.746 101.229 221.587C102.225 220.413 103.666 219.825 105.551 219.825C106.471 219.825 107.222 219.905 107.804 220.063C108.402 220.206 108.93 220.397 109.39 220.635L108.609 223.302C108.21 223.127 107.812 223 107.413 222.921C107.03 222.825 106.578 222.778 106.057 222.778C105.091 222.778 104.348 223.071 103.827 223.659C103.321 224.23 103.068 225.159 103.068 226.444C103.068 226.952 103.13 227.429 103.252 227.873C103.375 228.302 103.566 228.683 103.827 229.016C104.088 229.349 104.417 229.611 104.816 229.802C105.214 229.992 105.681 230.087 106.218 230.087C106.861 230.087 107.367 230.032 107.735 229.921C108.118 229.794 108.478 229.627 108.816 229.421L109.551 231.921ZM121.815 231.54C121.294 231.952 120.581 232.31 119.677 232.611C118.788 232.897 117.83 233.04 116.803 233.04C114.734 233.04 113.217 232.452 112.252 231.278C111.286 230.103 110.803 228.492 110.803 226.444C110.803 224.27 111.347 222.627 112.436 221.516C113.524 220.389 115.056 219.825 117.033 219.825C117.677 219.825 118.313 219.913 118.941 220.087C119.57 220.246 120.129 220.524 120.619 220.921C121.11 221.302 121.501 221.825 121.792 222.492C122.098 223.143 122.252 223.952 122.252 224.921C122.252 225.254 122.229 225.619 122.183 226.016C122.152 226.413 122.091 226.825 121.999 227.254H113.953C114.029 228.333 114.328 229.135 114.849 229.659C115.386 230.167 116.252 230.421 117.447 230.421C118.167 230.421 118.811 230.317 119.378 230.111C119.96 229.889 120.405 229.667 120.711 229.444L121.815 231.54ZM116.987 222.444C116.037 222.444 115.332 222.714 114.872 223.254C114.413 223.778 114.144 224.452 114.068 225.278H119.263C119.324 224.405 119.171 223.714 118.803 223.206C118.436 222.698 117.83 222.444 116.987 222.444ZM125.142 220.183H127.441L127.832 221.73H128.108C128.583 221.095 129.135 220.619 129.763 220.302C130.391 219.984 131.127 219.825 131.97 219.825C133.595 219.825 134.813 220.333 135.625 221.349C136.437 222.349 136.844 223.944 136.844 226.135C136.844 227.183 136.713 228.135 136.453 228.992C136.192 229.833 135.809 230.564 135.303 231.183C134.798 231.786 134.169 232.254 133.418 232.587C132.683 232.905 131.832 233.064 130.867 233.064C130.345 233.064 129.893 233.008 129.51 232.897C129.127 232.802 128.744 232.667 128.361 232.492V237.421H125.142V220.183ZM130.982 222.611C130.246 222.611 129.679 222.786 129.28 223.135C128.882 223.468 128.575 223.992 128.361 224.706V229.564C128.621 229.786 128.913 229.96 129.234 230.087C129.556 230.214 129.962 230.278 130.453 230.278C131.495 230.278 132.269 229.944 132.775 229.278C133.28 228.595 133.533 227.516 133.533 226.04C133.533 224.976 133.334 224.143 132.936 223.54C132.552 222.921 131.901 222.611 130.982 222.611ZM148.569 231.921C148.048 232.286 147.419 232.564 146.684 232.754C145.963 232.944 145.212 233.04 144.431 233.04C143.389 233.04 142.507 232.881 141.787 232.564C141.082 232.246 140.5 231.794 140.04 231.206C139.596 230.619 139.274 229.929 139.075 229.135C138.875 228.325 138.776 227.429 138.776 226.444C138.776 224.365 139.266 222.746 140.247 221.587C141.243 220.413 142.684 219.825 144.569 219.825C145.488 219.825 146.239 219.905 146.822 220.063C147.419 220.206 147.948 220.397 148.408 220.635L147.626 223.302C147.228 223.127 146.829 223 146.431 222.921C146.048 222.825 145.596 222.778 145.075 222.778C144.109 222.778 143.366 223.071 142.845 223.659C142.339 224.23 142.086 225.159 142.086 226.444C142.086 226.952 142.147 227.429 142.27 227.873C142.393 228.302 142.584 228.683 142.845 229.016C143.105 229.349 143.435 229.611 143.833 229.802C144.232 229.992 144.699 230.087 145.235 230.087C145.879 230.087 146.385 230.032 146.753 229.921C147.136 229.794 147.496 229.627 147.833 229.421L148.569 231.921ZM151.351 220.183H154.569V232.683H151.351V220.183ZM150.868 217.063C150.868 216.556 151.044 216.135 151.397 215.802C151.749 215.452 152.247 215.278 152.891 215.278C153.55 215.278 154.071 215.452 154.454 215.802C154.837 216.151 155.029 216.571 155.029 217.063C155.029 217.524 154.837 217.921 154.454 218.254C154.071 218.587 153.55 218.754 152.891 218.754C152.247 218.754 151.749 218.587 151.397 218.254C151.044 217.921 150.868 217.524 150.868 217.063ZM157.566 226.444C157.566 224.381 158.095 222.762 159.152 221.587C160.21 220.413 161.719 219.825 163.681 219.825C164.708 219.825 165.604 219.992 166.371 220.325C167.137 220.659 167.773 221.127 168.279 221.73C168.784 222.317 169.16 223.016 169.405 223.825C169.666 224.619 169.796 225.492 169.796 226.444C169.796 227.46 169.658 228.381 169.382 229.206C169.106 230.016 168.708 230.706 168.187 231.278C167.666 231.849 167.022 232.286 166.256 232.587C165.505 232.889 164.647 233.04 163.681 233.04C162.639 233.04 161.735 232.873 160.968 232.54C160.202 232.206 159.566 231.746 159.06 231.159C158.555 230.556 158.179 229.857 157.934 229.064C157.689 228.254 157.566 227.381 157.566 226.444ZM160.876 226.444C160.876 226.968 160.93 227.46 161.037 227.921C161.145 228.381 161.306 228.786 161.52 229.135C161.75 229.468 162.041 229.738 162.394 229.944C162.746 230.151 163.175 230.254 163.681 230.254C165.551 230.254 166.486 228.984 166.486 226.444C166.486 225.889 166.432 225.381 166.325 224.921C166.233 224.444 166.072 224.04 165.842 223.706C165.627 223.357 165.336 223.087 164.968 222.897C164.616 222.706 164.187 222.611 163.681 222.611C162.807 222.611 162.118 222.913 161.612 223.516C161.122 224.119 160.876 225.095 160.876 226.444ZM164.164 215.325H167.428V216.016L164.532 219.087H162.784L164.164 215.325ZM180.559 232.683V225.825C180.559 224.746 180.398 223.968 180.077 223.492C179.755 223.016 179.188 222.778 178.375 222.778C177.686 222.778 177.096 222.976 176.605 223.373C176.13 223.754 175.801 224.246 175.617 224.849C175.617 226.151 175.617 227.46 175.617 228.778C175.632 230.079 175.64 231.381 175.64 232.683H172.421V220.183H174.95L175.295 221.968H175.64C176.038 221.381 176.567 220.881 177.226 220.468C177.885 220.04 178.743 219.825 179.801 219.825C180.444 219.825 181.011 219.913 181.502 220.087C182.008 220.246 182.421 220.532 182.743 220.944C183.08 221.341 183.333 221.881 183.502 222.563C183.686 223.246 183.778 224.103 183.778 225.135V232.683H180.559Z"/><defs><filter id="filter0_d" width="258" height="258" x="0" y="0" color-interpolation-filters="sRGB" filterUnits="userSpaceOnUse"><feFlood flood-opacity="0" result="BackgroundImageFix"/><feColorMatrix in="SourceAlpha" type="matrix" values="0 0 0 0 0 0 0 0 0 0 0 0 0 0 0 0 0 0 127 0"/><feOffset dy="4"/><feGaussianBlur stdDeviation="2"/><feColorMatrix type="matrix" values="0 0 0 0 0 0 0 0 0 0 0 0 0 0 0 0 0 0 0.25 0"/><feBlend in2="BackgroundImageFix" mode="normal" result="effect1_dropShadow"/><feBlend in="SourceGraphic" in2="effect1_dropShadow" mode="normal" result="shape"/></filter></defs></svg>