<svg xmlns="http://www.w3.org/2000/svg" width="258" height="258" fill="none" viewBox="0 0 258 258"><g filter="url(#filter0_d)"><path fill="#046865" d="M204 0H54C26.3858 0 4 22.3858 4 50V200C4 227.614 26.3858 250 54 250H204C231.614 250 254 227.614 254 200V50C254 22.3858 231.614 0 204 0Z"/></g><g clip-path="url(#clip0)"><path fill="#fff" d="M56.5464 207.41H195.618C197.458 207.41 198.76 205.651 198.76 203.744V129.284L243.288 83.1628C244.599 81.8284 244.619 79.6465 243.332 78.2868L225.613 59.9116C224.281 58.5654 222.155 58.5637 220.821 59.9083L198.76 82.6186V47.5818C198.796 46.6787 198.477 45.7992 197.878 45.1404L164.213 10.1171C163.618 9.43975 162.787 9.03707 161.903 9H56.5464C54.7081 9 53.4165 10.759 53.4165 12.6646V203.745C53.4165 205.651 54.7081 207.41 56.5464 207.41ZM162.909 132.624L173.174 143.255L157.753 148.595L162.909 132.624ZM179.334 139.875L166.17 126.243L208.447 82.5546L221.517 96.0908L179.334 139.875ZM223.279 67.229L236.314 80.7299L226.222 91.2064L213.165 77.6803L223.279 67.229ZM165.443 20.9946L187.576 43.9374H165.443V20.9946ZM60.0798 15.9012H158.78V47.5818C158.741 48.4545 159.055 49.3037 159.65 49.9221C160.244 50.5421 161.061 50.874 161.903 50.8386H192.096V89.5047L159.008 123.795C158.658 124.149 158.398 124.585 158.25 125.067L153.551 139.692H81.6102C79.7703 139.692 78.2786 141.237 78.2786 143.142C78.2786 145.048 79.7703 146.593 81.6102 146.593H151.326L149.319 152.891C148.918 154.118 149.231 155.476 150.122 156.384C150.356 156.626 150.622 156.945 150.903 156.945H81.6102C79.7703 156.945 78.2786 158.49 78.2786 160.395C78.2786 162.301 79.7703 163.846 81.6102 163.846H170.317C172.159 163.846 173.649 162.301 173.649 160.395C173.649 158.49 172.159 156.945 170.317 156.945H154.204L180.393 147.953C180.854 147.796 181.27 147.521 181.602 147.157L192.096 136.201V200.509H60.0798V15.9012Z"/><path fill="#fff" d="M170.317 174.198H81.6102C79.7704 174.198 78.2786 175.743 78.2786 177.648C78.2786 179.554 79.7704 181.099 81.6102 181.099H170.317C172.159 181.099 173.649 179.554 173.649 177.648C173.649 175.743 172.159 174.198 170.317 174.198Z"/><path fill="#fff" d="M81.6102 129.34H128.671C130.513 129.34 132.003 127.795 132.003 125.889C132.003 123.984 130.513 122.439 128.671 122.439H81.6102C79.7704 122.439 78.2786 123.984 78.2786 125.889C78.2786 127.795 79.7704 129.34 81.6102 129.34Z"/></g><path fill="#fff" d="M24.56 214.368C24.944 214.304 25.36 214.248 25.808 214.2C26.272 214.136 26.736 214.088 27.2 214.056C27.664 214.024 28.112 214 28.544 213.984C28.992 213.968 29.4 213.96 29.768 213.96C30.616 213.96 31.448 214.032 32.264 214.176C33.096 214.32 33.832 214.568 34.472 214.92C35.128 215.272 35.656 215.76 36.056 216.384C36.456 216.992 36.656 217.76 36.656 218.688C36.656 220.064 36.312 221.2 35.624 222.096C34.952 222.976 34.016 223.576 32.816 223.896L34.088 224.64L38.288 231H34.16L29.984 224.496L28.112 224.208V231H24.56V214.368ZM30.008 217.08C29.64 217.08 29.28 217.088 28.928 217.104C28.592 217.104 28.32 217.128 28.112 217.176V221.808H29.624C30.632 221.808 31.424 221.616 32 221.232C32.592 220.848 32.888 220.184 32.888 219.24C32.888 218.536 32.64 218 32.144 217.632C31.648 217.264 30.936 217.08 30.008 217.08ZM49.9181 229.848C49.3741 230.264 48.6301 230.624 47.6861 230.928C46.7581 231.216 45.7581 231.36 44.6861 231.36C42.5261 231.36 40.9421 230.768 39.9341 229.584C38.9261 228.4 38.4221 226.776 38.4221 224.712C38.4221 222.52 38.9901 220.864 40.1261 219.744C41.2621 218.608 42.8621 218.04 44.9261 218.04C45.5981 218.04 46.2621 218.128 46.9181 218.304C47.5741 218.464 48.1581 218.744 48.6701 219.144C49.1821 219.528 49.5901 220.056 49.8941 220.728C50.2141 221.384 50.3741 222.2 50.3741 223.176C50.3741 223.512 50.3501 223.88 50.3021 224.28C50.2701 224.68 50.2061 225.096 50.1101 225.528H41.7101C41.7901 226.616 42.1021 227.424 42.6461 227.952C43.2061 228.464 44.1101 228.72 45.3581 228.72C46.1101 228.72 46.7821 228.616 47.3741 228.408C47.9821 228.184 48.4461 227.96 48.7661 227.736L49.9181 229.848ZM44.8781 220.68C43.8861 220.68 43.1501 220.952 42.6701 221.496C42.1901 222.024 41.9101 222.704 41.8301 223.536H47.2541C47.3181 222.656 47.1581 221.96 46.7741 221.448C46.3901 220.936 45.7581 220.68 44.8781 220.68ZM53.3921 218.4H55.7921L56.2001 219.96H56.4881C56.9841 219.32 57.5601 218.84 58.2161 218.52C58.8721 218.2 59.6401 218.04 60.5201 218.04C62.2161 218.04 63.4881 218.552 64.3361 219.576C65.1841 220.584 65.6081 222.192 65.6081 224.4C65.6081 225.456 65.4721 226.416 65.2001 227.28C64.9281 228.128 64.5281 228.864 64.0001 229.488C63.4721 230.096 62.8161 230.568 62.0321 230.904C61.2641 231.224 60.3761 231.384 59.3681 231.384C58.8241 231.384 58.3521 231.328 57.9521 231.216C57.5521 231.12 57.1521 230.984 56.7521 230.808V235.776H53.3921V218.4ZM59.4881 220.848C58.7201 220.848 58.1281 221.024 57.7121 221.376C57.2961 221.712 56.9761 222.24 56.7521 222.96V227.856C57.0241 228.08 57.3281 228.256 57.6641 228.384C58.0001 228.512 58.4241 228.576 58.9361 228.576C60.0241 228.576 60.8321 228.24 61.3601 227.568C61.8881 226.88 62.1521 225.792 62.1521 224.304C62.1521 223.232 61.9441 222.392 61.5281 221.784C61.1281 221.16 60.4481 220.848 59.4881 220.848ZM67.6252 224.712C67.6252 222.632 68.1772 221 69.2812 219.816C70.3852 218.632 71.9612 218.04 74.0092 218.04C75.0812 218.04 76.0172 218.208 76.8172 218.544C77.6172 218.88 78.2812 219.352 78.8092 219.96C79.3372 220.552 79.7292 221.256 79.9852 222.072C80.2572 222.872 80.3932 223.752 80.3932 224.712C80.3932 225.736 80.2492 226.664 79.9612 227.496C79.6732 228.312 79.2572 229.008 78.7132 229.584C78.1692 230.16 77.4972 230.6 76.6972 230.904C75.9132 231.208 75.0172 231.36 74.0092 231.36C72.9212 231.36 71.9772 231.192 71.1772 230.856C70.3772 230.52 69.7132 230.056 69.1852 229.464C68.6572 228.856 68.2652 228.152 68.0092 227.352C67.7532 226.536 67.6252 225.656 67.6252 224.712ZM71.0812 224.712C71.0812 225.24 71.1372 225.736 71.2492 226.2C71.3612 226.664 71.5292 227.072 71.7532 227.424C71.9932 227.76 72.2972 228.032 72.6652 228.24C73.0332 228.448 73.4812 228.552 74.0092 228.552C75.9612 228.552 76.9372 227.272 76.9372 224.712C76.9372 224.152 76.8812 223.64 76.7692 223.176C76.6732 222.696 76.5052 222.288 76.2652 221.952C76.0412 221.6 75.7372 221.328 75.3532 221.136C74.9852 220.944 74.5372 220.848 74.0092 220.848C73.0972 220.848 72.3772 221.152 71.8492 221.76C71.3372 222.368 71.0812 223.352 71.0812 224.712ZM90.5743 221.472C90.0943 221.312 89.6143 221.232 89.1343 221.232C88.4303 221.232 87.8463 221.4 87.3823 221.736C86.9343 222.072 86.6383 222.496 86.4943 223.008V231H83.1343V218.4H85.7743L86.1343 220.152H86.4463C86.7663 219.496 87.1903 218.992 87.7183 218.64C88.2623 218.288 88.8783 218.112 89.5663 218.112C89.9983 218.112 90.4943 218.2 91.0543 218.376L90.5743 221.472ZM92.192 218.4H94.112V216.672L97.472 215.784V218.4H100.856V221.208H97.472V225.576C97.472 226.584 97.568 227.312 97.76 227.76C97.968 228.192 98.368 228.408 98.96 228.408C99.328 228.408 99.64 228.384 99.896 228.336C100.152 228.272 100.424 228.176 100.712 228.048L101.408 230.568C100.896 230.792 100.304 230.984 99.632 231.144C98.976 231.304 98.336 231.384 97.712 231.384C96.464 231.384 95.552 231.08 94.976 230.472C94.4 229.848 94.112 228.856 94.112 227.496V221.208H92.192V218.4ZM114.067 229.848C113.523 230.264 112.779 230.624 111.835 230.928C110.907 231.216 109.907 231.36 108.835 231.36C106.675 231.36 105.091 230.768 104.083 229.584C103.075 228.4 102.571 226.776 102.571 224.712C102.571 222.52 103.139 220.864 104.275 219.744C105.411 218.608 107.011 218.04 109.075 218.04C109.747 218.04 110.411 218.128 111.067 218.304C111.723 218.464 112.307 218.744 112.819 219.144C113.331 219.528 113.739 220.056 114.043 220.728C114.363 221.384 114.523 222.2 114.523 223.176C114.523 223.512 114.499 223.88 114.451 224.28C114.419 224.68 114.355 225.096 114.259 225.528H105.859C105.939 226.616 106.251 227.424 106.795 227.952C107.355 228.464 108.259 228.72 109.507 228.72C110.259 228.72 110.931 228.616 111.523 228.408C112.131 228.184 112.595 227.96 112.915 227.736L114.067 229.848ZM109.027 220.68C108.035 220.68 107.299 220.952 106.819 221.496C106.339 222.024 106.059 222.704 105.979 223.536H111.403C111.467 222.656 111.307 221.96 110.923 221.448C110.539 220.936 109.907 220.68 109.027 220.68ZM135.645 226.584C135.645 227.256 135.653 227.952 135.669 228.672C135.685 229.392 135.757 230.176 135.885 231.024H133.557L133.077 229.272H132.765C132.397 229.912 131.869 230.424 131.181 230.808C130.509 231.176 129.701 231.36 128.757 231.36C127.077 231.36 125.773 230.84 124.845 229.8C123.917 228.744 123.453 227.12 123.453 224.928C123.453 223.872 123.581 222.92 123.837 222.072C124.109 221.224 124.501 220.504 125.013 219.912C125.541 219.32 126.189 218.864 126.957 218.544C127.725 218.224 128.613 218.064 129.621 218.064C130.181 218.064 130.661 218.112 131.061 218.208C131.477 218.288 131.885 218.392 132.285 218.52V214.2H135.645V226.584ZM129.621 228.552C130.373 228.552 130.957 228.384 131.373 228.048C131.789 227.696 132.093 227.2 132.285 226.56V221.52C131.997 221.296 131.685 221.136 131.349 221.04C131.029 220.928 130.605 220.872 130.077 220.872C129.005 220.872 128.205 221.184 127.677 221.808C127.165 222.432 126.909 223.504 126.909 225.024C126.909 226.08 127.125 226.936 127.557 227.592C128.005 228.232 128.693 228.552 129.621 228.552ZM150.02 229.848C149.476 230.264 148.732 230.624 147.788 230.928C146.86 231.216 145.86 231.36 144.788 231.36C142.628 231.36 141.044 230.768 140.036 229.584C139.028 228.4 138.524 226.776 138.524 224.712C138.524 222.52 139.092 220.864 140.228 219.744C141.364 218.608 142.964 218.04 145.028 218.04C145.7 218.04 146.364 218.128 147.02 218.304C147.676 218.464 148.26 218.744 148.772 219.144C149.284 219.528 149.692 220.056 149.996 220.728C150.316 221.384 150.476 222.2 150.476 223.176C150.476 223.512 150.452 223.88 150.404 224.28C150.372 224.68 150.308 225.096 150.212 225.528H141.812C141.892 226.616 142.204 227.424 142.748 227.952C143.308 228.464 144.212 228.72 145.46 228.72C146.212 228.72 146.884 228.616 147.476 228.408C148.084 228.184 148.548 227.96 148.868 227.736L150.02 229.848ZM144.98 220.68C143.988 220.68 143.252 220.952 142.772 221.496C142.292 222.024 142.012 222.704 141.932 223.536H147.356C147.42 222.656 147.26 221.96 146.876 221.448C146.492 220.936 145.86 220.68 144.98 220.68ZM165.162 223.896L165.642 226.752H165.762L166.29 223.872L169.794 214.2H173.538L166.746 231.12H164.202L157.362 214.2H161.49L165.162 223.896ZM183.863 229.848C183.319 230.264 182.575 230.624 181.631 230.928C180.703 231.216 179.703 231.36 178.631 231.36C176.471 231.36 174.887 230.768 173.879 229.584C172.871 228.4 172.367 226.776 172.367 224.712C172.367 222.52 172.935 220.864 174.071 219.744C175.207 218.608 176.807 218.04 178.871 218.04C179.543 218.04 180.207 218.128 180.863 218.304C181.519 218.464 182.103 218.744 182.615 219.144C183.127 219.528 183.535 220.056 183.839 220.728C184.159 221.384 184.319 222.2 184.319 223.176C184.319 223.512 184.295 223.88 184.247 224.28C184.215 224.68 184.151 225.096 184.055 225.528H175.655C175.735 226.616 176.047 227.424 176.591 227.952C177.151 228.464 178.055 228.72 179.303 228.72C180.055 228.72 180.727 228.616 181.319 228.408C181.927 228.184 182.391 227.96 182.711 227.736L183.863 229.848ZM178.823 220.68C177.831 220.68 177.095 220.952 176.615 221.496C176.135 222.024 175.855 222.704 175.775 223.536H181.199C181.263 222.656 181.103 221.96 180.719 221.448C180.335 220.936 179.703 220.68 178.823 220.68ZM195.833 231V224.088C195.833 223 195.665 222.216 195.329 221.736C194.993 221.256 194.401 221.016 193.553 221.016C192.833 221.016 192.217 221.216 191.705 221.616C191.209 222 190.865 222.496 190.673 223.104C190.673 224.416 190.673 225.736 190.673 227.064C190.689 228.376 190.697 229.688 190.697 231H187.337V218.4H189.977L190.337 220.2H190.697C191.113 219.608 191.665 219.104 192.353 218.688C193.041 218.256 193.937 218.04 195.041 218.04C195.713 218.04 196.305 218.128 196.817 218.304C197.345 218.464 197.777 218.752 198.113 219.168C198.465 219.568 198.729 220.112 198.905 220.8C199.097 221.488 199.193 222.352 199.193 223.392V231H195.833ZM201.106 218.4H203.026V216.672L206.386 215.784V218.4H209.77V221.208H206.386V225.576C206.386 226.584 206.482 227.312 206.674 227.76C206.882 228.192 207.282 228.408 207.874 228.408C208.242 228.408 208.554 228.384 208.81 228.336C209.066 228.272 209.338 228.176 209.626 228.048L210.322 230.568C209.81 230.792 209.218 230.984 208.546 231.144C207.89 231.304 207.25 231.384 206.626 231.384C205.378 231.384 204.466 231.08 203.89 230.472C203.314 229.848 203.026 228.856 203.026 227.496V221.208H201.106V218.4ZM212.225 219.264C212.945 218.944 213.825 218.68 214.865 218.472C215.921 218.264 217.009 218.16 218.129 218.16C219.009 218.16 219.745 218.264 220.337 218.472C220.945 218.68 221.425 218.984 221.777 219.384C222.129 219.768 222.377 220.24 222.521 220.8C222.681 221.344 222.761 221.952 222.761 222.624C222.761 223.44 222.729 224.248 222.665 225.048C222.601 225.848 222.569 226.696 222.569 227.592C222.569 228.2 222.609 228.792 222.689 229.368C222.769 229.944 222.897 230.496 223.073 231.024H220.337L219.785 229.152H219.497C219.081 229.712 218.553 230.192 217.913 230.592C217.273 230.992 216.449 231.192 215.441 231.192C214.833 231.192 214.273 231.104 213.761 230.928C213.265 230.752 212.833 230.504 212.465 230.184C212.113 229.848 211.833 229.456 211.625 229.008C211.433 228.56 211.337 228.072 211.337 227.544C211.337 226.12 211.809 225.048 212.753 224.328C213.713 223.592 215.161 223.224 217.097 223.224C217.545 223.224 217.993 223.264 218.441 223.344C218.889 223.408 219.201 223.456 219.377 223.488C219.425 223.152 219.449 222.864 219.449 222.624C219.449 222.016 219.297 221.568 218.993 221.28C218.689 220.992 218.121 220.848 217.289 220.848C216.521 220.848 215.769 220.944 215.033 221.136C214.313 221.312 213.673 221.536 213.113 221.808L212.225 219.264ZM216.617 228.504C217.369 228.504 217.969 228.328 218.417 227.976C218.865 227.624 219.193 227.256 219.401 226.872V225.432C219.321 225.4 219.193 225.368 219.017 225.336C218.857 225.304 218.673 225.272 218.465 225.24C218.273 225.208 218.073 225.184 217.865 225.168C217.673 225.152 217.497 225.144 217.337 225.144C216.473 225.144 215.833 225.304 215.417 225.624C215.001 225.928 214.793 226.312 214.793 226.776C214.793 227.352 214.953 227.784 215.273 228.072C215.609 228.36 216.057 228.504 216.617 228.504ZM226.22 227.736C226.444 227.848 226.7 227.96 226.988 228.072C227.292 228.184 227.612 228.288 227.948 228.384C228.3 228.48 228.652 228.56 229.004 228.624C229.372 228.688 229.74 228.72 230.108 228.72C230.668 228.72 231.1 228.632 231.404 228.456C231.724 228.28 231.884 227.952 231.884 227.472C231.884 227.088 231.676 226.808 231.26 226.632C230.844 226.44 230.332 226.256 229.724 226.08C229.276 225.952 228.804 225.8 228.308 225.624C227.828 225.448 227.38 225.216 226.964 224.928C226.564 224.624 226.228 224.232 225.956 223.752C225.7 223.272 225.572 222.664 225.572 221.928C225.572 220.664 225.964 219.704 226.748 219.048C227.532 218.376 228.66 218.04 230.132 218.04C231.092 218.04 231.988 218.128 232.82 218.304C233.668 218.464 234.348 218.656 234.86 218.88L234.164 221.424C233.748 221.264 233.212 221.104 232.556 220.944C231.916 220.768 231.26 220.68 230.588 220.68C230.028 220.68 229.612 220.768 229.34 220.944C229.068 221.104 228.932 221.392 228.932 221.808C228.932 222.176 229.14 222.456 229.556 222.648C229.988 222.824 230.508 223 231.116 223.176C231.564 223.304 232.028 223.456 232.508 223.632C233.004 223.792 233.452 224.016 233.852 224.304C234.252 224.592 234.58 224.968 234.836 225.432C235.108 225.88 235.244 226.448 235.244 227.136C235.244 228.48 234.804 229.52 233.924 230.256C233.06 230.992 231.756 231.36 230.012 231.36C229.068 231.36 228.188 231.272 227.372 231.096C226.556 230.936 225.892 230.696 225.38 230.376L226.22 227.736Z"/><defs><filter id="filter0_d" width="258" height="258" x="0" y="0" color-interpolation-filters="sRGB" filterUnits="userSpaceOnUse"><feFlood flood-opacity="0" result="BackgroundImageFix"/><feColorMatrix in="SourceAlpha" type="matrix" values="0 0 0 0 0 0 0 0 0 0 0 0 0 0 0 0 0 0 127 0"/><feOffset dy="4"/><feGaussianBlur stdDeviation="2"/><feColorMatrix type="matrix" values="0 0 0 0 0 0 0 0 0 0 0 0 0 0 0 0 0 0 0.25 0"/><feBlend in2="BackgroundImageFix" mode="normal" result="effect1_dropShadow"/><feBlend in="SourceGraphic" in2="effect1_dropShadow" mode="normal" result="shape"/></filter><clipPath id="clip0"><rect width="191.57" height="198.41" fill="#fff" transform="translate(53 9)"/></clipPath></defs></svg>