<?xml version="1.0" encoding="UTF-8" standalone="no"?>
<svg
   xmlns:osb="http://www.openswatchbook.org/uri/2009/osb"
   xmlns:dc="http://purl.org/dc/elements/1.1/"
   xmlns:cc="http://creativecommons.org/ns#"
   xmlns:rdf="http://www.w3.org/1999/02/22-rdf-syntax-ns#"
   xmlns:svg="http://www.w3.org/2000/svg"
   xmlns="http://www.w3.org/2000/svg"
   xmlns:sodipodi="http://sodipodi.sourceforge.net/DTD/sodipodi-0.dtd"
   xmlns:inkscape="http://www.inkscape.org/namespaces/inkscape"
   width="96.572914mm"
   height="24.077084mm"
   viewBox="0 0 96.572914 24.077084"
   version="1.1"
   id="svg8"
   inkscape:version="1.0.2-2 (e86c870879, 2021-01-15)"
   sodipodi:docname="evolve_logo.svg">
  <defs
     id="defs2">
    <linearGradient
       inkscape:collect="always"
       id="linearGradient3225"
       osb:paint="gradient">
      <stop
         style="stop-color:#000000;stop-opacity:0;"
         offset="0"
         id="stop3221" />
      <stop
         style="stop-color:#000000;stop-opacity:0;"
         offset="1"
         id="stop3223" />
    </linearGradient>
  </defs>
  <sodipodi:namedview
     id="base"
     pagecolor="#ffffff"
     bordercolor="#666666"
     borderopacity="1.0"
     inkscape:pageopacity="0.0"
     inkscape:pageshadow="2"
     inkscape:zoom="2.8"
     inkscape:cx="199.02818"
     inkscape:cy="20.637483"
     inkscape:document-units="mm"
     inkscape:current-layer="layer1"
     inkscape:document-rotation="0"
     showgrid="false"
     fit-margin-top="0"
     fit-margin-left="0"
     fit-margin-right="0"
     fit-margin-bottom="0"
     inkscape:window-width="1530"
     inkscape:window-height="877"
     inkscape:window-x="-8"
     inkscape:window-y="-8"
     inkscape:window-maximized="1" />
  <metadata
     id="metadata5">
    <rdf:RDF>
      <cc:Work
         rdf:about="">
        <dc:format>image/svg+xml</dc:format>
        <dc:type
           rdf:resource="http://purl.org/dc/dcmitype/StillImage" />
        <dc:title></dc:title>
      </cc:Work>
    </rdf:RDF>
  </metadata>
  <g
     inkscape:label="Capa 1"
     inkscape:groupmode="layer"
     id="layer1"
     transform="translate(-56.790924,-130.08049)">
    <path
       style="fill:#000000;stroke-width:0.264583"
       d="m 96.79568,153.46735 c -0.193804,0.0555 -0.560728,0.0467 -0.81539,-0.0194 -0.254661,-0.0661 -0.463021,-0.27789 -0.463021,-0.47058 0,-0.22471 0.298257,-0.33635 0.831702,-0.31133 0.457438,0.0215 0.879171,-0.0951 0.937189,-0.25901 0.05802,-0.16391 -0.324427,-0.55167 -0.849871,-0.86169 -0.716174,-0.42255 -0.934244,-0.71164 -0.87104,-1.15471 0.04651,-0.32603 0.398732,-0.74125 0.785566,-0.92605 0.385689,-0.18426 0.891704,-0.26193 1.124479,-0.17261 0.232773,0.0893 0.423225,0.26873 0.423225,0.39868 0,0.12995 -0.357187,0.23628 -0.79375,0.23628 -0.523023,0 -0.79375,0.13304 -0.79375,0.39008 0,0.21454 0.34276,0.56733 0.761688,0.78396 0.418928,0.21664 0.835221,0.58551 0.925092,0.81971 0.08987,0.23421 0.04058,0.65533 -0.109538,0.93583 -0.150119,0.2805 -0.378079,0.51 -0.506579,0.51 -0.128497,0 -0.3922,0.0454 -0.586002,0.10084 z m 6.26949,0.13305 c -0.14952,-0.0169 -0.48681,-0.0864 -0.74952,-0.15451 -0.26272,-0.0681 -0.4313,-0.26265 -0.37462,-0.43233 0.0583,-0.17455 0.46676,-0.27113 0.94068,-0.22242 0.66643,0.0685 0.8373,-0.0126 0.83597,-0.39688 -7.9e-4,-0.26563 -0.35811,-0.68578 -0.79375,-0.93367 -0.55749,-0.31723 -0.79208,-0.65221 -0.79208,-1.13103 0,-0.48158 0.19255,-0.75352 0.65916,-0.93093 0.36254,-0.13783 0.83879,-0.18168 1.05834,-0.0974 0.21954,0.0842 0.39917,0.25159 0.39917,0.37188 0,0.12028 -0.31824,0.25637 -0.7072,0.30242 -0.38896,0.046 -0.75605,0.23248 -0.81575,0.41431 -0.0597,0.18182 0.10971,0.40828 0.37647,0.50324 0.26676,0.095 0.69338,0.35159 0.94804,0.57031 0.25466,0.21872 0.46302,0.61059 0.46302,0.87082 0,0.26024 -0.26462,0.6585 -0.58804,0.88504 -0.32342,0.22653 -0.71037,0.39806 -0.85989,0.38118 z m 9.65002,0.019 c -0.0728,-0.002 -0.37042,-0.13468 -0.66146,-0.29387 -0.29104,-0.15919 -0.678,-0.47598 -0.8599,-0.70398 -0.1819,-0.228 -0.33073,-0.78776 -0.33073,-1.2439 0,-0.52193 0.22428,-1.04006 0.60505,-1.39777 0.33277,-0.31262 0.83879,-0.59037 1.12448,-0.61721 0.28568,-0.0268 0.72779,-0.0299 0.98245,-0.007 0.25466,0.0231 0.46302,0.16098 0.46302,0.3065 0,0.14552 -0.3929,0.26459 -0.87312,0.26459 -0.48022,0 -1.016,0.14287 -1.19063,0.3175 -0.17462,0.17462 -0.3175,0.68659 -0.3175,1.13771 0,0.45111 0.14288,0.96308 0.3175,1.1377 0.17463,0.17463 0.71041,0.3175 1.19063,0.3175 0.48022,0 0.87312,0.10518 0.87312,0.23373 0,0.12855 -0.26789,0.30552 -0.59531,0.39326 -0.32742,0.0877 -0.65484,0.15754 -0.7276,0.15511 z m -48.551045,-0.25293 c -0.3175,0 -0.396875,-0.39687 -0.396875,-1.98437 v -1.98438 h 1.190625 c 0.654844,0 1.190625,0.11906 1.190625,0.26458 0,0.14552 -0.357187,0.26459 -0.79375,0.26459 -0.617361,0 -0.79375,0.11759 -0.79375,0.52916 0,0.41476 0.176389,0.52917 0.815799,0.52917 0.534169,0 0.778308,0.11417 0.707199,0.33073 -0.05973,0.1819 -0.426838,0.3684 -0.815798,0.41445 -0.586805,0.0695 -0.7072,0.21586 -0.7072,0.85989 0,0.51355 -0.134288,0.77618 -0.396875,0.77618 z m 6.482292,0 c -0.152871,0 -0.264584,-0.83785 -0.264584,-1.98437 0,-1.64622 0.07246,-1.98438 0.425183,-1.98438 0.279008,0 0.36997,0.14388 0.264583,0.41852 -0.08833,0.23018 -0.160599,1.12315 -0.160599,1.98437 0,0.86752 -0.117999,1.56586 -0.264583,1.56586 z m 5.688541,0 c -0.312072,0 -0.396875,-0.36748 -0.396875,-1.71979 0,-1.5434 -0.05427,-1.71979 -0.529167,-1.71979 -0.291041,0 -0.529166,-0.11907 -0.529166,-0.26459 0,-0.14699 0.705555,-0.26458 1.5875,-0.26458 0.881944,0 1.5875,0.11759 1.5875,0.26458 0,0.14552 -0.297656,0.26459 -0.661459,0.26459 -0.637713,0 -0.661458,0.0617 -0.661458,1.71979 0,1.35231 -0.0848,1.71979 -0.396875,1.71979 z m 5.806337,0 c -0.29946,0 -0.382379,-0.43031 -0.382379,-1.98437 0,-1.58642 0.07949,-1.98438 0.396389,-1.98438 0.218014,0 0.751533,0.56555 1.185598,1.25677 l 0.789209,1.25677 0.005,-1.25677 c 0.0038,-0.93851 0.105532,-1.25677 0.401902,-1.25677 0.3175,0 0.396875,0.39688 0.396875,1.98438 0,1.52785 -0.08552,1.98437 -0.371734,1.98437 -0.204454,0 -0.71047,-0.56555 -1.124479,-1.25677 l -0.752745,-1.25677 -0.08064,1.25677 c -0.05662,0.88236 -0.194557,1.25677 -0.46302,1.25677 z m 8.216579,0 h -1.190625 v -1.98437 -1.98438 h 1.190625 c 0.654844,0 1.190625,0.11906 1.190625,0.26458 0,0.14552 -0.357187,0.26459 -0.79375,0.26459 -0.61736,0 -0.79375,0.11759 -0.79375,0.52916 0,0.41158 0.17639,0.52917 0.79375,0.52917 0.436563,0 0.79375,0.11906 0.79375,0.26458 0,0.14552 -0.357187,0.26459 -0.79375,0.26459 -0.670276,0 -0.79375,0.10289 -0.79375,0.66146 0,0.55856 0.123474,0.66145 0.79375,0.66145 0.436563,0 0.79375,0.11907 0.79375,0.26459 0,0.14552 -0.535781,0.26458 -1.190625,0.26458 z m 28.839586,0 h -1.19063 v -1.98437 -1.98438 h 1.19063 c 0.65484,0 1.19062,0.11906 1.19062,0.26458 0,0.14552 -0.35719,0.26459 -0.79375,0.26459 -0.61736,0 -0.79375,0.11759 -0.79375,0.52916 0,0.41158 0.17639,0.52917 0.79375,0.52917 0.43656,0 0.79375,0.11906 0.79375,0.26458 0,0.14552 -0.35719,0.26459 -0.79375,0.26459 -0.67027,0 -0.79375,0.10289 -0.79375,0.66146 0,0.55856 0.12348,0.66145 0.79375,0.66145 0.43656,0 0.79375,0.11907 0.79375,0.26459 0,0.14552 -0.53578,0.26458 -1.19062,0.26458 z m 5.68854,0 c -0.14552,0 -0.27403,-0.20836 -0.28557,-0.46302 -0.0115,-0.25466 -0.0559,-1.14763 -0.0987,-1.98438 -0.0647,-1.2672 -0.005,-1.52135 0.3577,-1.52135 0.24034,0 0.81791,0.62204 1.2893,1.38857 l 0.85392,1.38856 v -1.38856 c 0,-1.0579 0.0945,-1.38857 0.39687,-1.38857 0.3175,0 0.39688,0.39688 0.39688,1.98438 0,1.75026 -0.0574,1.98437 -0.4867,1.98437 -0.26768,0 -0.62412,-0.26789 -0.79208,-0.59531 -0.16797,-0.32742 -0.54426,-1.01018 -0.83622,-1.51723 l -0.53084,-0.92191 v 1.51722 c 0,0.8351 -0.11895,1.51723 -0.26458,1.51723 z m 8.19378,0 c -0.15009,0 -0.341,-0.17749 -0.42424,-0.39442 -0.0833,-0.21694 -0.0995,-0.99084 -0.036,-1.7198 0.10831,-1.2449 0.0779,-1.32536 -0.5018,-1.32536 -0.33942,0 -0.61712,-0.11907 -0.61712,-0.26459 0,-0.14699 0.70556,-0.26458 1.5875,-0.26458 0.88195,0 1.5875,0.11759 1.5875,0.26458 0,0.14552 -0.29765,0.26459 -0.66146,0.26459 -0.63771,0 -0.66146,0.0617 -0.66146,1.71979 0,1.00503 -0.11341,1.71979 -0.27288,1.71979 z m 6.49059,0 h -1.19062 v -1.98437 -1.98438 h 1.19062 c 0.65485,0 1.19063,0.11906 1.19063,0.26458 0,0.14552 -0.35719,0.26459 -0.79375,0.26459 -0.61736,0 -0.79375,0.11759 -0.79375,0.52916 0,0.38465 0.17639,0.52917 0.64584,0.52917 0.35521,0 0.71943,0.11906 0.80937,0.26458 0.0954,0.15437 -0.17364,0.26459 -0.64585,0.26459 -0.68693,0 -0.80936,0.10005 -0.80936,0.66146 0,0.55856 0.12347,0.66145 0.79375,0.66145 0.43656,0 0.79375,0.11907 0.79375,0.26459 0,0.14552 -0.53578,0.26458 -1.19063,0.26458 z m 5.68854,0 c -0.14552,0 -0.27946,-0.35719 -0.29765,-0.79375 -0.0182,-0.43656 -0.048,-1.28485 -0.0661,-1.88508 -0.0258,-0.85069 0.0783,-1.13253 0.47204,-1.27818 0.27781,-0.10277 0.78743,-0.13288 1.1325,-0.0669 0.34506,0.066 0.74703,0.34349 0.89326,0.61672 0.18193,0.33995 0.1733,0.66978 -0.0274,1.04471 -0.2111,0.39443 -0.21371,0.77608 -0.009,1.3624 0.15617,0.44797 0.28393,0.85625 0.28393,0.90729 0,0.0511 -0.16694,0.0928 -0.37099,0.0928 -0.20404,0 -0.49551,-0.35719 -0.64769,-0.79375 -0.15219,-0.43656 -0.46149,-0.79375 -0.68734,-0.79375 -0.27988,0 -0.41064,0.25276 -0.41064,0.79375 0,0.43656 -0.11906,0.79375 -0.26459,0.79375 z m 0.62907,-2.11667 c 0.20046,0 0.50837,-0.17337 0.68423,-0.38528 0.17587,-0.21191 0.24295,-0.50956 0.14908,-0.66146 -0.0939,-0.15189 -0.40179,-0.27617 -0.68424,-0.27617 -0.3714,0 -0.51355,0.18309 -0.51355,0.66146 0,0.38544 0.15209,0.66145 0.36448,0.66145 z m -47.592606,-3.46068 c -1.018646,-0.0114 -2.355172,-0.19882 -2.970059,-0.41654 -0.614886,-0.21773 -1.710219,-0.92835 -2.434071,-1.57915 -0.763781,-0.68671 -1.626005,-1.81648 -2.054577,-2.6921 -0.619223,-1.26515 -0.734761,-1.82929 -0.715425,-3.49319 0.01754,-1.50872 0.173984,-2.30149 0.652698,-3.30729 0.346305,-0.72761 1.144886,-1.83846 1.774626,-2.46856 0.629743,-0.6301 1.690643,-1.387 2.357557,-1.68201 0.666914,-0.29501 1.889476,-0.59776 2.716805,-0.67278 0.981122,-0.089 2.01876,0.0132 2.983782,0.29372 0.8315,0.24173 2.05924,0.88834 2.80307,1.4763 0.94868,0.74989 1.57126,1.54941 2.19825,2.82301 0.74446,1.51222 0.87357,2.0557 0.86691,3.64941 -0.005,1.31474 -0.17175,2.2369 -0.55815,3.09558 -0.30268,0.67266 -1.01024,1.73305 -1.57233,2.35643 -0.57633,0.63915 -1.71427,1.46143 -2.6095,1.88563 -1.29761,0.61486 -1.925711,0.74845 -3.439586,0.73154 z m -0.136382,-5.00598 c 3.608898,0 4.498308,-0.0736 4.764518,-0.39438 0.27061,-0.32607 -0.0568,-1.04779 -1.89061,-4.16718 -1.588861,-2.70278 -2.37329,-3.79521 -2.765797,-3.85178 -0.456218,-0.0657 -0.907751,0.56532 -2.698485,3.77141 -1.217716,2.18017 -2.084707,4.02204 -1.998713,4.24614 0.126461,0.32955 0.894422,0.39579 4.589087,0.39579 z m -34.323669,4.7625 h -5.292414 l -0.136517,-1.38907 c -0.07509,-0.76398 -0.08321,-1.47835 -0.01805,-1.5875 0.06516,-0.10914 2.231811,-0.19843 4.814785,-0.19843 3.455637,0 4.821617,0.0916 5.170618,0.34682 0.291279,0.21298 0.528266,0.82557 0.614146,1.5875 l 0.139843,1.24068 z m 16.241496,-0.0529 c -1.355268,0.0719 -1.516947,0.0222 -1.719491,-0.52917 -0.122962,-0.33471 -1.431969,-3.83198 -2.908906,-7.77172 -1.476936,-3.93974 -2.685339,-7.25804 -2.685339,-7.37399 0,-0.11595 0.709914,-0.15947 1.577585,-0.0967 1.010753,0.0731 1.76443,0.2832 2.097605,0.58472 0.286011,0.25884 1.113365,1.91844 1.838564,3.688 0.725199,1.76957 1.480482,3.61902 1.678407,4.10989 l 0.359863,0.8925 1.551091,-3.8955 c 0.8531,-2.14253 1.814839,-4.20213 2.1372,-4.5769 0.481975,-0.56033 0.875244,-0.70231 2.21352,-0.79911 0.895077,-0.0647 1.627415,-0.0464 1.627415,0.0408 0,0.0872 -1.190972,3.34595 -2.646603,7.2417 -1.455632,3.89575 -2.866739,7.38085 -3.135794,7.74465 -0.404827,0.54738 -0.747174,0.67515 -1.985117,0.74085 z m 35.813351,0.0529 h -4.49792 v -7.67292 c 0,-4.2201 -0.002,-7.76221 -0.005,-7.87135 -0.003,-0.10914 0.46715,-0.23473 1.04382,-0.27909 0.77884,-0.0599 1.18833,0.0592 1.59217,0.46302 0.51557,0.51556 0.54369,0.84468 0.54369,6.3645 v 5.82084 h 2.47253 c 2.05934,0 2.54571,0.0809 2.91042,0.48385 0.26014,0.28745 0.43788,0.93184 0.43788,1.5875 v 1.10365 z m 13.29446,0 h -1.2924 l -2.89218,-7.72659 c -1.5907,-4.24962 -2.93186,-7.8215 -2.98037,-7.9375 -0.0485,-0.116 0.56744,-0.21091 1.36876,-0.21091 1.15998,0 1.61392,0.13207 2.22703,0.64796 0.5537,0.46592 1.20442,1.72592 2.31603,4.48463 0.85028,2.11016 1.63057,3.78437 1.73398,3.72046 0.10341,-0.0639 0.8182,-1.69504 1.58842,-3.62473 0.77023,-1.92969 1.58731,-3.76828 1.81573,-4.08575 0.22843,-0.31748 0.68882,-0.70443 1.02309,-0.8599 0.33427,-0.15547 1.13794,-0.28267 1.78594,-0.28267 0.70311,0 1.17817,0.12119 1.17817,0.30057 0,0.16532 -0.7642,2.33821 -1.69822,4.82865 -0.93402,2.49044 -2.19325,5.80866 -2.7983,7.37383 -0.64472,1.66783 -1.30356,2.95465 -1.59167,3.10885 -0.27038,0.1447 -1.07318,0.2631 -1.78401,0.2631 z m 17.92637,0 h -5.29167 v -1.5875 -1.5875 h 4.87589 c 4.07985,0 4.94378,0.0679 5.29167,0.41577 0.2528,0.2528 0.41577,0.87507 0.41577,1.5875 v 1.17173 z m -84.966931,-6.35 c -2.017667,0 -3.675955,-0.0298 -3.685085,-0.0662 -0.0091,-0.0364 -0.0389,-0.78052 -0.06615,-1.65364 l -0.04955,-1.5875 3.805341,-0.0736 c 3.083294,-0.0597 3.924203,0.004 4.431771,0.33683 0.420845,0.27575 0.626429,0.66264 0.626429,1.1789 0,0.51503 -0.229902,0.94929 -0.697139,1.31682 -0.629144,0.49488 -1.054949,0.54837 -4.365625,0.54837 z m 83.652431,0 c -1.99342,0 -3.70377,-0.0794 -3.80078,-0.17639 -0.097,-0.097 -0.17639,-0.87092 -0.17639,-1.71979 v -1.54341 h 3.96875 c 3.61597,0 4.01579,0.047 4.49792,0.52917 0.29104,0.29104 0.52916,0.81818 0.52916,1.17142 0,0.3787 -0.28607,0.86728 -0.69714,1.19063 -0.62821,0.49415 -1.05546,0.54837 -4.32152,0.54837 z m -82.72639,-6.08542 c -2.526989,0 -4.601968,-0.0595 -4.611063,-0.13229 -0.0091,-0.0728 -0.02406,-0.8169 -0.03325,-1.65365 l -0.01671,-1.52135 5.324913,-0.0716 5.324914,-0.0716 v 1.1769 c 0,0.95629 -0.130681,1.27969 -0.69714,1.72527 -0.644489,0.50695 -1.044138,0.54837 -5.291667,0.54837 z m 83.70014,0 c -2.52898,0 -4.67752,-0.0794 -4.77453,-0.17639 -0.097,-0.097 -0.17639,-0.87338 -0.17639,-1.72527 v -1.54888 l 5.35781,0.0716 5.35782,0.0716 0.0819,0.98846 c 0.0638,0.77016 -0.065,1.13537 -0.58328,1.65365 -0.65949,0.65948 -0.70456,0.66518 -5.26332,0.66518 z"
       id="path2216" />
    <path
       style="fill:#000000;stroke-width:0.264583"
       id="path2170"
       d="" />
    <path
       style="opacity:1;mix-blend-mode:normal;fill:#fff300;fill-opacity:1;stroke:none;stroke-width:0;stroke-opacity:1;stroke-miterlimit:4;stroke-dasharray:none"
       d="M 7.4951375,41.800236 6.3449919,41.754352 6.2626358,39.580713 C 6.0710285,34.523582 5.9201072,29.610435 5.9555289,29.583039 c 0.087593,-0.06775 16.5521241,-0.32565 20.6199621,-0.322994 7.465338,0.0049 9.378694,0.33483 11.108338,1.915627 0.452668,0.413714 0.834607,0.922428 1.10515,1.471976 0.394855,0.802065 0.413419,0.905393 0.413419,2.301072 0,1.444297 -0.0057,1.4729 -0.492842,2.458497 -0.355512,0.719329 -0.728299,1.227686 -1.33783,1.824353 -1.441586,1.411163 -2.606133,1.967704 -4.924723,2.353543 -1.185105,0.197214 -2.5186,0.222773 -12.563773,0.240818 -6.180871,0.0111 -11.7555124,-5.05e-4 -12.3880925,-0.02569 z"
       id="path2226"
       transform="matrix(0.26458333,0,0,0.26458333,56.790924,130.08049)" />
    <path
       style="fill:#ffff00;stroke:none;stroke-width:0.126269"
       d="M 10.457411,18.773119 C 8.8845052,18.714346 7.3219255,18.620152 6.9850113,18.5638 L 6.37244,18.461342 6.2610907,12.556551 C 6.1998485,9.3089164 6.171438,6.6324936 6.1979561,6.6089451 6.2244742,6.5853966 13.377217,6.4736933 22.092939,6.3607156 30.808661,6.2477379 39.836213,6.1184618 42.154166,6.0734353 l 4.214458,-0.081866 -0.06778,3.3965181 c -0.09265,4.6427906 -0.230925,5.1347436 -1.915285,6.8141326 -1.569363,1.564732 -2.850955,2.109185 -5.814507,2.47015 -1.418444,0.17277 -24.018703,0.253759 -28.113641,0.100749 z"
       id="path2228"
       transform="matrix(0.26458333,0,0,0.26458333,56.790924,130.08049)" />
    <path
       style="fill:#fdf300;stroke:none;stroke-width:0;fill-opacity:1;stroke-miterlimit:4;stroke-dasharray:none;opacity:1"
       d="M 6.6353846,65.407239 C 6.184485,61.868642 5.8276966,56.399809 5.9810291,55.377315 c 0.1029845,-0.68675 0.098495,-0.684824 2.006445,-0.860768 2.9385999,-0.270987 8.1044489,-0.394321 16.5045769,-0.394044 11.288637,3.72e-4 16.116066,0.22283 18.276885,0.842237 1.933597,0.554273 2.865321,2.708115 3.438501,7.948685 0.144319,1.319512 0.293756,2.555371 0.332083,2.746352 l 0.06968,0.34724 H 26.660507 6.7118103 Z"
       id="path2230"
       transform="matrix(0.26458333,0,0,0.26458333,56.790924,130.08049)" />
    <path
       style="fill:#a0a0a0;stroke:none;stroke-width:0.126269"
       d="m 27.352965,87.71836 c -0.198096,-0.155822 -0.408124,-0.521519 -0.525764,-0.915451 -0.280283,-0.93856 -0.435912,-4.255532 -0.438703,-9.350233 l -0.0024,-4.401109 3.440832,0.06137 c 3.565376,0.06359 4.496011,0.18111 5.226951,0.66004 l 0.343745,0.22523 -0.340898,0.293229 c -0.471099,0.405222 -1.116658,0.553773 -2.912752,0.670261 -1.653552,0.107242 -2.115262,0.253026 -2.515838,0.794368 -0.320437,0.433044 -0.414621,1.510975 -0.190206,2.176922 0.256584,0.76141 0.713018,0.962012 2.477428,1.088828 2.088093,0.150081 2.490813,0.222146 2.858745,0.511561 0.951457,0.748416 -0.392701,1.768821 -2.977698,2.260491 -2.080205,0.395658 -2.354351,0.74728 -2.500801,3.207547 -0.103259,1.734702 -0.386339,2.56929 -0.960142,2.830732 -0.444758,0.202646 -0.603596,0.18425 -0.982488,-0.113787 z"
       id="path2232"
       transform="matrix(0.26458333,0,0,0.26458333,56.790924,130.08049)" />
    <path
       style="fill:#fdf300;fill-opacity:1;stroke-width:0.126269"
       d="m 27.337754,87.552022 c -0.16475,-0.164751 -0.360853,-0.519883 -0.435786,-0.789182 -0.234905,-0.844226 -0.376724,-3.724175 -0.432654,-8.785978 l -0.054,-4.887077 2.794873,0.06505 c 1.53718,0.03578 3.306263,0.120782 3.931294,0.188899 1.086565,0.118415 1.945479,0.411554 1.996451,0.681368 0.01312,0.06945 -0.232457,0.253596 -0.545726,0.409217 -0.424343,0.210799 -1.023579,0.328403 -2.350026,0.461207 -1.094426,0.109575 -1.936987,0.25921 -2.186719,0.388352 -0.568585,0.294026 -0.802648,0.91856 -0.742592,1.981404 0.08079,1.429735 0.412697,1.628889 3.110503,1.866371 2.181419,0.192026 2.774338,0.485658 2.444121,1.210406 -0.198677,0.436048 -1.260577,0.926181 -2.867713,1.323628 -1.709044,0.422649 -2.111862,0.621877 -2.37391,1.174102 -0.111944,0.235905 -0.285328,1.16175 -0.385297,2.057434 -0.19639,1.759589 -0.32668,2.23079 -0.738334,2.670237 -0.343912,0.367131 -0.787801,0.361246 -1.164486,-0.01544 z"
       id="path2234"
       transform="matrix(0.26458333,0,0,0.26458333,56.790924,130.08049)" />
    <path
       style="fill:#fdf300;fill-opacity:1;stroke-width:0.126269"
       d="M 52.178949,87.780862 C 51.596476,86.656176 51.24962,81.245939 51.49465,77.107204 c 0.149053,-2.51761 0.29338,-3.248238 0.73599,-3.725822 0.269109,-0.290374 0.383293,-0.325979 0.869607,-0.271164 1.032117,0.116334 1.051869,0.186831 0.645478,2.303845 -0.229846,1.197341 -0.463939,4.704822 -0.465284,6.971486 -0.0015,2.538733 -0.321591,4.833821 -0.747504,5.359801 -0.221192,0.27316 -0.23043,0.274087 -0.353988,0.03551 z"
       id="path2236"
       transform="matrix(0.26458333,0,0,0.26458333,56.790924,130.08049)" />
    <path
       style="fill:#fdf300;fill-opacity:1;stroke-width:0.126269"
       d="m 73.290995,87.690707 c -0.594668,-0.511511 -0.699359,-1.26473 -0.820064,-5.900056 -0.06058,-2.326508 -0.148182,-4.514119 -0.194665,-4.861359 -0.19198,-1.434133 -0.651217,-1.956487 -1.721302,-1.957875 -0.751856,-9.75e-4 -1.426135,-0.208526 -1.836964,-0.56544 -0.318002,-0.276269 -0.330449,-0.319139 -0.146874,-0.505859 1.044336,-1.062221 10.519211,-1.078638 11.577788,-0.02006 0.458436,0.458437 -0.646252,0.952764 -2.414403,1.0804 -0.705506,0.05093 -1.409283,0.160921 -1.56395,0.244428 -0.675053,0.364474 -0.77582,1.080771 -0.910934,6.475335 -0.122221,4.879793 -0.214969,5.540183 -0.848019,6.03814 -0.42543,0.334643 -0.707512,0.327682 -1.120613,-0.02765 z"
       id="path2238"
       transform="matrix(0.26458333,0,0,0.26458333,56.790924,130.08049)" />
    <path
       style="fill:#fdf300;fill-opacity:1;stroke-width:0.126269"
       d="M 83.724282,65.746074 C 82.756329,65.573874 82.26565,65.227476 81.893587,64.453687 81.720003,64.092679 80.547137,61.041486 79.287219,57.673259 66.830366,24.371469 64.389919,17.797277 62.061344,11.269376 60.344725,6.4570274 60.401152,6.6507632 60.660828,6.4608839 c 0.32406,-0.2369587 2.177202,-0.3511922 4.249341,-0.2619428 4.734695,0.2039288 8.085953,1.0684617 9.38394,2.4208 0.952549,0.9924361 3.142422,5.2063269 5.412559,10.4151829 0.871737,2.000214 6.593937,15.923973 8.626346,20.990383 0.27122,0.676101 0.530655,1.230107 0.576522,1.231123 0.04587,10e-4 1.546218,-3.677315 3.334115,-8.174072 4.384019,-11.026292 6.395677,-15.746637 8.530699,-20.017233 1.68596,-3.3723607 2.41364,-4.3789222 3.82632,-5.2927567 1.31197,-0.8486883 2.94312,-1.2100015 6.7645,-1.498392 1.88388,-0.1421719 5.71213,-0.1305704 5.86046,0.01776 0.11826,0.1182687 -0.70959,2.4687994 -4.51039,12.8063227 -6.81298,18.530157 -11.65337,31.11815 -14.954502,38.890873 -1.67199,3.936804 -2.092356,4.753161 -2.892669,5.617596 -0.877794,0.94812 -1.496539,1.320356 -2.706678,1.628328 -1.69035,0.430182 -7.06281,0.755707 -8.437109,0.511218 z"
       id="path2240"
       transform="matrix(0.26458333,0,0,0.26458333,56.790924,130.08049)" />
    <path
       style="fill:#fdf300;fill-opacity:1;stroke-width:0.126269"
       d="m 95.282607,87.690384 c -0.409621,-0.409621 -0.556428,-0.976853 -0.726267,-2.806141 -0.195762,-2.108505 -0.07273,-9.338277 0.175585,-10.317636 0.469116,-1.850231 1.191952,-1.92311 2.807915,-0.283105 1.139991,1.156952 2.054438,2.41779 3.95676,5.45557 0.92229,1.472783 1.72408,2.706953 1.78176,2.742601 0.0577,0.03565 0.13118,-1.653624 0.16334,-3.753936 0.0474,-3.098519 0.0982,-3.94247 0.26887,-4.474726 0.4714,-1.469791 1.68089,-1.582261 2.15184,-0.200097 0.32891,0.965302 0.49186,4.053734 0.4116,7.800872 -0.0948,4.422952 -0.31481,5.693577 -1.0436,6.025635 -0.86523,0.394225 -2.75884,-1.830371 -5.616718,-6.598461 -1.058646,-1.766248 -1.706894,-2.732068 -1.76239,-2.625773 -0.04828,0.09248 -0.155955,1.332973 -0.239275,2.756657 -0.168908,2.88615 -0.301803,4.021283 -0.592702,5.062622 -0.360241,1.289564 -1.126556,1.82608 -1.736718,1.215918 z"
       id="path2242"
       transform="matrix(0.26458333,0,0,0.26458333,56.790924,130.08049)" />
    <path
       style="fill:#fdf300;fill-opacity:1;stroke-width:0.126269"
       d="m 122.42902,80.52796 v -7.449875 l 2.87262,0.0025 c 1.57994,0.0014 3.27037,0.0592 3.75651,0.128493 1.11245,0.158573 2.08087,0.473019 2.1697,0.704502 0.20338,0.529999 -0.90267,0.907066 -3.08529,1.051813 -2.39195,0.158629 -2.80935,0.465473 -2.80935,2.065223 0,0.630343 0.0626,0.900327 0.2841,1.226046 0.37167,0.546431 0.86192,0.699308 2.58842,0.80716 2.10414,0.131441 3.2865,0.545178 2.99029,1.046367 -0.28421,0.480883 -0.9998,0.687787 -2.79105,0.807009 -2.77741,0.184857 -3.11679,0.493605 -3.04208,2.767488 0.0675,2.055818 0.3042,2.247999 2.95559,2.400143 1.38903,0.07971 1.78781,0.148656 2.28451,0.395005 0.84096,0.417094 0.84023,0.656629 -0.003,0.972104 -0.96852,0.362368 -2.72249,0.525896 -5.64066,0.525896 h -2.53036 z"
       id="path2244"
       transform="matrix(0.26458333,0,0,0.26458333,56.790924,130.08049)" />
    <path
       style="fill:#fdf300;fill-opacity:1;stroke-width:0.126269"
       d="m 154.25127,66.762695 c -3.52815,-0.294169 -6.87141,-0.883372 -8.63652,-1.522066 -1.80774,-0.654117 -5.06324,-2.636232 -7.46636,-4.545902 -4.67321,-3.713631 -8.80729,-9.349421 -10.83034,-14.764491 -1.01284,-2.711039 -1.22221,-4.233927 -1.22383,-8.90197 -0.002,-5.255119 0.282,-7.722271 1.2119,-10.534113 1.64292,-4.96787 6.21548,-11.22924 10.79983,-14.788591 3.8584,-2.9957203 6.54686,-4.3212084 10.97311,-5.4100693 3.4011,-0.8366756 4.42424,-0.9596461 7.94768,-0.9552351 2.7235,0.00341 3.46318,0.046305 4.79823,0.2782542 3.3712,0.5857084 5.40334,1.2692238 8.6094,2.8957965 6.71543,3.4070177 10.41709,7.1101817 13.79801,13.8036117 1.90337,3.768224 2.7585,6.055867 3.18596,8.523162 0.28101,1.621983 0.31981,8.11929 0.0607,10.16466 -0.52045,4.108352 -1.55188,6.969318 -3.81505,10.582145 -1.27744,2.03925 -3.437,4.850618 -4.65288,6.057238 -3.72389,3.695515 -9.79376,7.255904 -14.47135,8.488412 -0.76392,0.201289 -1.81511,0.427535 -2.33597,0.502769 -1.27159,0.183672 -6.30587,0.263681 -7.95251,0.126389 z m 12.15737,-18.812673 c 5.59521,-0.198806 7.2765,-0.505508 8.0313,-1.465081 0.94523,-1.201668 -0.36998,-4.15227 -6.56674,-14.732107 -4.9838,-8.508917 -7.89404,-12.916164 -9.68353,-14.664653 -0.7853,-0.767306 -1.10157,-0.947256 -1.67485,-0.952971 -1.64385,-0.01639 -3.57174,2.734985 -9.99473,14.26393 -4.33429,7.779823 -7.54982,14.526754 -7.54982,15.841254 0,1.53029 2.30124,1.781606 16.60438,1.81334 4.09743,0.0091 8.97273,-0.03758 10.83399,-0.103712 z"
       id="path2246"
       transform="matrix(0.26458333,0,0,0.26458333,56.790924,130.08049)" />
    <path
       style="fill:#fdf300;fill-opacity:1;stroke-width:0.126269"
       d="m 148.60046,88.349763 c -1.56021,-0.307911 -2.55715,-1.448479 -1.96238,-2.245108 0.34635,-0.463896 1.01003,-0.631139 2.54964,-0.642497 2.48021,-0.0183 3.82403,-0.449085 3.90162,-1.250746 0.0358,-0.370021 -0.0649,-0.518101 -0.94701,-1.392491 -0.63387,-0.62831 -1.46154,-1.267706 -2.31292,-1.786801 -1.70999,-1.042591 -2.91781,-2.219107 -3.15315,-3.071438 -0.32032,-1.160136 0.25407,-2.528391 1.55089,-3.69434 1.63102,-1.466424 4.42572,-2.122405 5.88715,-1.381846 0.70626,0.357892 1.17259,0.882892 1.11873,1.259476 -0.0567,0.396371 -1.117,0.68499 -3.00936,0.819168 -2.37985,0.168742 -3.07373,0.61818 -2.8441,1.842176 0.12785,0.681535 1.34122,1.846276 2.82176,2.708686 2.23951,1.30451 3.44071,2.538076 3.61714,3.714628 0.11893,0.793073 -0.22174,2.259595 -0.71506,3.078191 -0.47618,0.790164 -1.22495,1.515546 -1.64058,1.589349 -0.15801,0.02806 -0.91232,0.171617 -1.67625,0.319023 -1.444,0.278633 -2.27771,0.313846 -3.18612,0.13457 z"
       id="path2250"
       transform="matrix(0.26458333,0,0,0.26458333,56.790924,130.08049)" />
    <path
       style="fill:#fdf300;fill-opacity:1;stroke-width:0.126269"
       d="m 173.69426,88.615564 c -1.82448,-0.388234 -2.17712,-0.51675 -2.61245,-0.952088 -0.64664,-0.646634 -0.52732,-1.1435 0.36749,-1.53039 0.46643,-0.201671 0.8375,-0.229809 2.71329,-0.205743 1.19512,0.01533 2.31437,-0.02589 2.48721,-0.0916 0.46968,-0.178574 0.7199,-0.655183 0.72553,-1.381974 0.009,-1.204555 -0.90902,-2.337136 -3.02806,-3.734448 -2.03122,-1.339403 -2.76771,-2.336177 -2.89466,-3.91769 -0.1218,-1.517379 0.48446,-2.7142 1.71384,-3.383311 1.33802,-0.728245 3.77692,-1.073896 4.7395,-0.671704 0.56205,0.234841 1.34415,0.938221 1.34415,1.208862 0,0.464797 -0.90928,0.898913 -2.39911,1.145403 -1.44073,0.238365 -2.33063,0.588298 -2.99889,1.179252 -0.21498,0.190103 -0.28411,0.388903 -0.28411,0.816988 0,0.491508 0.0631,0.625325 0.48049,1.01971 0.26427,0.249677 0.75236,0.552566 1.08464,0.673088 0.94835,0.34398 2.55579,1.3531 3.43158,2.154292 0.9734,0.890482 1.69555,2.202733 1.69555,3.081061 0,1.619314 -2.06759,3.745784 -4.45947,4.586462 -0.83694,0.294159 -0.74293,0.293989 -2.10652,0.0038 z"
       id="path2252"
       transform="matrix(0.26458333,0,0,0.26458333,56.790924,130.08049)" />
    <path
       style="fill:#fdf300;fill-opacity:1;stroke-width:0.126269"
       d="M 206.39795,36.589567 V 7.1721168 l 0.34724,-0.1781674 c 0.9575,-0.4912874 4.01722,-0.8668364 5.75143,-0.7059283 1.31249,0.1217782 2.23122,0.4698798 3.1508,1.1938159 1.36052,1.0710595 1.93134,2.1827892 2.23649,4.35575 0.3021,2.151277 0.3789,7.018545 0.38106,24.148959 l 0.002,18.02491 4.57726,0.0057 c 5.50916,0.0069 11.47273,0.183827 12.58407,0.373353 1.79549,0.306198 2.76341,0.840563 3.50674,1.935984 0.97087,1.430735 1.29843,3.029685 1.39465,6.807873 l 0.0731,2.872618 h -17.00258 -17.00258 z"
       id="path2254"
       transform="matrix(0.26458333,0,0,0.26458333,56.790924,130.08049)" />
    <path
       style="fill:#fdf300;fill-opacity:1;stroke-width:0.126269"
       d="m 209.7312,88.1861 c -1.41403,-0.694253 -2.89816,-1.771708 -3.75755,-2.727927 -0.91347,-1.016382 -1.48401,-2.867081 -1.50044,-4.867078 -0.0249,-3.035537 1.73083,-5.593887 4.85541,-7.074815 1.18152,-0.559997 2.3842,-0.743131 4.26667,-0.649694 1.42243,0.0706 1.91936,0.20089 2.36754,0.620728 0.8667,0.811881 -0.0886,1.272273 -3.07707,1.482918 -2.44032,0.172009 -3.74905,0.555843 -4.44762,1.304431 -0.41982,0.449883 -0.87399,1.791291 -1.04736,3.093429 -0.24234,1.820246 0.20825,4.275673 0.96861,5.278211 0.60897,0.802931 2.16206,1.264559 4.85304,1.442481 1.76672,0.116811 2.43093,0.244762 2.84594,0.548223 0.65773,0.480945 -0.67223,1.363379 -2.85906,1.896999 -0.73865,0.180242 -1.51153,0.327713 -1.71752,0.327713 -0.20598,0 -0.99375,-0.304028 -1.75059,-0.675619 z"
       id="path2256"
       transform="matrix(0.26458333,0,0,0.26458333,56.790924,130.08049)" />
    <path
       style="fill:#fdf300;fill-opacity:1;stroke-width:0.126269"
       d="m 231.39923,80.514701 v -7.463134 l 3.44083,0.06137 c 2.41058,0.043 3.64877,0.115767 4.13531,0.243043 1.26234,0.330221 1.55292,0.640205 0.97859,1.0439 -0.44918,0.315716 -1.13843,0.454257 -2.79422,0.561646 -2.31398,0.150075 -2.85633,0.534095 -2.85633,2.022471 0,1.378903 0.68044,2.020121 2.14989,2.02596 2.0283,0.0081 3.78476,0.482633 3.78476,1.022592 0,0.46427 -0.94492,0.756994 -2.85369,0.884037 -2.77553,0.184732 -3.01782,0.39311 -3.01782,2.595451 0,2.178312 0.26981,2.418645 2.89001,2.574293 2.05444,0.122039 3.02937,0.428658 2.95553,0.929518 -0.0903,0.612399 -2.37336,0.961986 -6.28251,0.961986 h -2.53035 z"
       id="path2258"
       transform="matrix(0.26458333,0,0,0.26458333,56.790924,130.08049)" />
    <path
       style="fill:#fdf300;fill-opacity:1;stroke-width:0.126269"
       d="m 256.88163,87.643576 c -0.17038,-0.183843 -0.36134,-0.538975 -0.42435,-0.789182 -0.16952,-0.673082 -0.55319,-9.282111 -0.49961,-11.210262 0.0403,-1.450407 0.0803,-1.709701 0.31168,-2.020305 0.31642,-0.424788 0.77687,-0.612584 1.22575,-0.499924 0.41904,0.105173 1.67467,1.267387 2.60357,2.40988 0.91012,1.119397 1.83144,2.504488 3.74193,5.625523 l 1.50722,2.462246 0.0778,-4.230013 c 0.0855,-4.652796 0.17809,-5.389175 0.74925,-5.960331 0.64299,-0.642993 1.35468,-0.377728 1.68927,0.629637 0.28295,0.851879 0.44517,3.27201 0.44618,6.656519 0.001,3.568254 -0.16004,5.70011 -0.48653,6.438198 -0.39626,0.895824 -1.33603,1.03942 -2.47593,0.37832 -0.86001,-0.498773 -1.40082,-1.190768 -2.46551,-3.154715 -0.56473,-1.04172 -1.80359,-3.256669 -2.75303,-4.922109 l -1.72626,-3.028073 -0.0817,4.290764 c -0.0836,4.390705 -0.24791,6.051537 -0.68182,6.890626 -0.23453,0.453537 -0.36314,0.459171 -0.75791,0.0332 z"
       id="path2260"
       transform="matrix(0.26458333,0,0,0.26458333,56.790924,130.08049)" />
    <path
       style="fill:#fdf300;fill-opacity:1;stroke-width:0.126269"
       d="m 268.68119,65.659777 c -0.073,-0.190981 -4.18631,-11.171655 -9.14063,-24.401497 -4.95432,-13.229842 -9.89342,-26.404277 -10.97577,-29.276523 -1.08236,-2.8722462 -1.96793,-5.2423251 -1.96793,-5.266842 0,-0.1746817 1.64836,-0.4628501 3.32059,-0.5805092 2.22115,-0.1562822 4.99255,-0.00754 6.339,0.3402119 1.7787,0.4593962 3.71419,1.7112941 4.84624,3.1346161 1.86015,2.3387632 3.8393,6.3916792 7.59285,15.5486832 2.36859,5.778316 3.78864,9.036844 5.12225,11.75385 1.04321,2.125358 1.41937,2.685769 1.69032,2.51831 0.37322,-0.230658 2.49745,-5.022742 5.45852,-12.313933 3.35226,-8.254461 5.0196,-12.116319 6.54548,-15.160545 0.65901,-1.31477 0.94342,-1.731058 1.74886,-2.5598271 1.84351,-1.8969117 3.27143,-2.6001177 6.20202,-3.0543203 1.72808,-0.2678287 4.86642,-0.3055978 6.05405,-0.072859 0.97251,0.19058 1.77464,0.5739087 1.77464,0.8480757 0,1.0133911 -6.36501,18.3679357 -15.34685,41.8440247 -3.36874,8.80496 -5.14941,12.74599 -6.82786,15.111601 -0.47137,0.664354 -0.65734,0.818923 -1.25371,1.042057 -1.49812,0.560516 -4.80977,0.891348 -8.93116,0.892219 l -2.11813,4.47e-4 z"
       id="path2262"
       transform="matrix(0.26458333,0,0,0.26458333,56.790924,130.08049)" />
    <path
       style="fill:#fdf300;fill-opacity:1;stroke-width:0.126269"
       d="m 287.80964,87.737322 c -0.45997,-0.280485 -0.8339,-0.781812 -1.04497,-1.400985 -0.2739,-0.803528 -0.30899,-3.453193 -0.0866,-6.541912 0.22922,-3.184028 0.18998,-3.913901 -0.23713,-4.410444 -0.24896,-0.289427 -0.40566,-0.332466 -1.53071,-0.420403 -1.30201,-0.10177 -1.85558,-0.247629 -2.23172,-0.588026 -0.34722,-0.314232 -0.26413,-0.503116 0.31544,-0.717084 1.85993,-0.686652 7.83465,-0.764693 10.25618,-0.133965 0.9135,0.237936 1.11438,0.383242 0.95123,0.688079 -0.19704,0.36818 -1.08203,0.634724 -2.46609,0.742744 -2.31138,0.180393 -2.29568,0.141232 -2.46181,6.140845 -0.0654,2.361232 -0.15202,4.463612 -0.19252,4.671956 -0.23917,1.230422 -0.35762,1.671839 -0.5167,1.925603 -0.21593,0.344443 -0.25727,0.346832 -0.75457,0.04359 z"
       id="path2264"
       transform="matrix(0.26458333,0,0,0.26458333,56.790924,130.08049)" />
    <path
       style="fill:#fdf300;fill-opacity:1;stroke-width:0.126269"
       d="m 308.46871,80.530765 v -7.479198 l 3.44083,0.05866 c 3.67199,0.0626 4.6768,0.204696 5.2086,0.736596 l 0.25254,0.252587 -0.31568,0.239843 c -0.46285,0.351673 -1.26404,0.520593 -2.96732,0.625619 -2.30116,0.141891 -2.73707,0.464799 -2.73707,2.027558 0,1.538806 0.37813,1.849841 2.53756,2.087334 1.55723,0.171263 2.41583,0.447859 2.82618,0.910446 0.22098,0.249112 0.21799,0.264051 -0.10359,0.517004 -0.36511,0.2872 -0.75739,0.353892 -2.69695,0.458516 -2.23807,0.120726 -2.56792,0.45616 -2.56283,2.606214 0.005,2.113607 0.28387,2.353108 2.91924,2.507147 1.29256,0.07555 1.88015,0.16584 2.30644,0.354409 0.7307,0.32322 0.84845,0.512422 0.49636,0.797525 -0.58126,0.470682 -1.92972,0.651235 -5.35288,0.716731 l -3.25143,0.06221 z"
       id="path2266"
       transform="matrix(0.26458333,0,0,0.26458333,56.790924,130.08049)" />
    <path
       style="fill:#fdf300;fill-opacity:1;stroke-width:0.126269"
       d="m 321.47442,59.988482 v -6.018535 l 14.74192,0.08507 c 17.58487,0.10147 20.0151,0.195684 22.15563,0.85892 1.3765,0.426499 1.99652,1.215706 2.56461,3.264402 0.18645,0.672371 0.23716,1.454208 0.2805,4.324716 l 0.0529,3.503966 H 341.3722 321.47441 Z"
       id="path2268"
       transform="matrix(0.26458333,0,0,0.26458333,56.790924,130.08049)" />
    <path
       style="fill:#fdf300;fill-opacity:1;stroke-width:0.126269"
       d="m 334.06109,87.750595 c -0.62372,-0.6892 -0.79253,-2.146925 -0.91852,-7.931417 -0.0941,-4.323107 -0.0328,-5.051889 0.49065,-5.829042 0.85121,-1.263737 4.41796,-1.681161 6.43083,-0.752614 1.12823,0.520455 1.92174,1.24476 2.37714,2.1698 0.37492,0.761574 0.40097,0.89522 0.33949,1.741631 -0.0507,0.698579 -0.18244,1.172194 -0.55334,1.990048 -0.46831,1.032673 -0.48647,1.123456 -0.47969,2.399112 0.007,1.27935 0.0347,1.409493 0.79698,3.712668 0.86678,2.61904 0.86879,2.531378 -0.0613,2.672078 -0.99167,0.150009 -1.80174,-0.579917 -2.59914,-2.341998 -0.82059,-1.813349 -1.01497,-2.155177 -1.58771,-2.792212 -0.68778,-0.764971 -1.2841,-0.983485 -1.93815,-0.710208 -0.6422,0.268329 -0.8716,0.847504 -1.00467,2.536522 -0.14109,1.790863 -0.31771,2.633018 -0.63744,3.03949 -0.30205,0.383991 -0.38374,0.395981 -0.65509,0.09614 z m 3.91721,-8.048411 c 1.90666,-0.950129 2.76062,-3.238529 1.53436,-4.111703 -0.89371,-0.636381 -2.61411,-0.821644 -3.36706,-0.362585 -0.5815,0.354532 -0.78158,0.919378 -0.78158,2.206472 0,2.305227 0.92645,3.108897 2.61428,2.267816 z"
       id="path2270"
       transform="matrix(0.26458333,0,0,0.26458333,56.790924,130.08049)" />
    <path
       style="fill:#fdf300;fill-opacity:1;stroke-width:0.126269"
       d="m 326.46205,41.757317 c -1.96564,-0.102263 -4.17832,-0.325917 -4.36484,-0.441189 -0.14737,-0.09108 -0.3628,-1.158978 -0.49564,-2.45696 -0.0675,-0.659756 -0.12376,-3.155046 -0.12496,-5.545089 l -0.002,-4.345532 12.27967,0.08363 c 14.75987,0.100527 16.52831,0.20087 18.23222,1.034517 1.77338,0.867635 3.52006,3.922507 3.27938,5.735523 -0.2645,1.992524 -2.56361,4.536054 -4.79371,5.303318 -1.82682,0.62852 -2.65166,0.674622 -12.64571,0.706801 -5.13915,0.01655 -10.25305,-0.01721 -11.36422,-0.07502 z"
       id="path2272"
       transform="matrix(0.26458333,0,0,0.26458333,56.790924,130.08049)" />
    <path
       style="fill:#fdf300;fill-opacity:1;stroke-width:0.126269"
       d="m 328.10355,18.769543 c -2.82513,-0.101849 -5.56773,-0.305771 -5.91749,-0.439986 -0.47856,-0.183643 -0.70936,-2.779472 -0.7106,-7.992396 l -10e-4,-4.3414801 4.38785,0.082015 c 2.41332,0.045108 11.20638,0.167811 19.54014,0.2726723 8.33376,0.1048614 15.43639,0.203346 15.78363,0.2188547 l 0.63135,0.028198 0.14752,1.7046324 c 0.18573,2.1461207 0.19951,4.0672167 0.0343,4.7837467 -0.2462,1.067944 -0.78581,1.935248 -1.9783,3.179735 -1.82488,1.904436 -2.7345,2.260318 -6.41759,2.510833 -2.18519,0.14863 -21.32983,0.143506 -25.49979,-0.0068 z"
       id="path2274"
       transform="matrix(0.26458333,0,0,0.26458333,56.790924,130.08049)" />
  </g>
</svg>
