<svg width="88" height="88" viewBox="0 0 88 88" fill="none" xmlns="http://www.w3.org/2000/svg">
<g filter="url(#filter0_d)">
<path d="M64 0H24C12.9543 0 4 8.9543 4 20V60C4 71.0457 12.9543 80 24 80H64C75.0457 80 84 71.0457 84 60V20C84 8.9543 75.0457 0 64 0Z" fill="#ED254E"/>
</g>
<path d="M37.1563 66.73C36.9583 66.868 36.6973 66.967 36.3733 67.027C36.0493 67.093 35.7163 67.126 35.3743 67.126C34.9723 67.126 34.5853 67.066 34.2133 66.946C33.8473 66.826 33.5203 66.634 33.2323 66.37C32.9503 66.106 32.7253 65.767 32.5573 65.353C32.3893 64.939 32.3053 64.438 32.3053 63.85C32.3053 63.238 32.4013 62.725 32.5933 62.311C32.7853 61.891 33.0313 61.555 33.3313 61.303C33.6313 61.045 33.9643 60.859 34.3303 60.745C34.6963 60.631 35.0563 60.574 35.4103 60.574C35.8003 60.574 36.1273 60.598 36.3913 60.646C36.6613 60.694 36.8833 60.751 37.0573 60.817L36.7963 61.933C36.6463 61.867 36.4693 61.819 36.2653 61.789C36.0673 61.759 35.8153 61.744 35.5093 61.744C35.2393 61.744 34.9933 61.789 34.7713 61.879C34.5553 61.963 34.3693 62.092 34.2133 62.266C34.0573 62.44 33.9343 62.659 33.8443 62.923C33.7603 63.187 33.7183 63.496 33.7183 63.85C33.7183 64.162 33.7573 64.447 33.8353 64.705C33.9133 64.963 34.0303 65.185 34.1863 65.371C34.3423 65.557 34.5403 65.701 34.7803 65.803C35.0203 65.905 35.2993 65.956 35.6173 65.956C35.9113 65.956 36.1573 65.929 36.3553 65.875C36.5593 65.821 36.7393 65.752 36.8953 65.668L37.1563 66.73ZM40.7446 63.427C40.5646 63.367 40.3846 63.337 40.2046 63.337C39.9406 63.337 39.7216 63.4 39.5476 63.526C39.3796 63.652 39.2686 63.811 39.2146 64.003V67H37.9546V62.275H38.9446L39.0796 62.932H39.1966C39.3166 62.686 39.4756 62.497 39.6736 62.365C39.8776 62.233 40.1086 62.167 40.3666 62.167C40.5286 62.167 40.7146 62.2 40.9246 62.266L40.7446 63.427ZM45.6518 66.568C45.4478 66.724 45.1688 66.859 44.8148 66.973C44.4668 67.081 44.0918 67.135 43.6898 67.135C42.8798 67.135 42.2858 66.913 41.9078 66.469C41.5298 66.025 41.3408 65.416 41.3408 64.642C41.3408 63.82 41.5538 63.199 41.9798 62.779C42.4058 62.353 43.0058 62.14 43.7798 62.14C44.0318 62.14 44.2808 62.173 44.5268 62.239C44.7728 62.299 44.9918 62.404 45.1838 62.554C45.3758 62.698 45.5288 62.896 45.6428 63.148C45.7628 63.394 45.8228 63.7 45.8228 64.066C45.8228 64.192 45.8138 64.33 45.7958 64.48C45.7838 64.63 45.7598 64.786 45.7238 64.948H42.5738C42.6038 65.356 42.7208 65.659 42.9248 65.857C43.1348 66.049 43.4738 66.145 43.9418 66.145C44.2238 66.145 44.4758 66.106 44.6978 66.028C44.9258 65.944 45.0998 65.86 45.2198 65.776L45.6518 66.568ZM43.7618 63.13C43.3898 63.13 43.1138 63.232 42.9338 63.436C42.7538 63.634 42.6488 63.889 42.6188 64.201H44.6528C44.6768 63.871 44.6168 63.61 44.4728 63.418C44.3288 63.226 44.0918 63.13 43.7618 63.13ZM46.9096 62.599C47.1796 62.479 47.5096 62.38 47.8996 62.302C48.2956 62.224 48.7036 62.185 49.1236 62.185C49.4536 62.185 49.7296 62.224 49.9516 62.302C50.1796 62.38 50.3596 62.494 50.4916 62.644C50.6236 62.788 50.7166 62.965 50.7706 63.175C50.8306 63.379 50.8606 63.607 50.8606 63.859C50.8606 64.165 50.8486 64.468 50.8246 64.768C50.8006 65.068 50.7886 65.386 50.7886 65.722C50.7886 65.95 50.8036 66.172 50.8336 66.388C50.8636 66.604 50.9116 66.811 50.9776 67.009H49.9516L49.7446 66.307H49.6366C49.4806 66.517 49.2826 66.697 49.0426 66.847C48.8026 66.997 48.4936 67.072 48.1156 67.072C47.8876 67.072 47.6776 67.039 47.4856 66.973C47.2996 66.907 47.1376 66.814 46.9996 66.694C46.8676 66.568 46.7626 66.421 46.6846 66.253C46.6126 66.085 46.5766 65.902 46.5766 65.704C46.5766 65.17 46.7536 64.768 47.1076 64.498C47.4676 64.222 48.0106 64.084 48.7366 64.084C48.9046 64.084 49.0726 64.099 49.2406 64.129C49.4086 64.153 49.5256 64.171 49.5916 64.183C49.6096 64.057 49.6186 63.949 49.6186 63.859C49.6186 63.631 49.5616 63.463 49.4476 63.355C49.3336 63.247 49.1206 63.193 48.8086 63.193C48.5206 63.193 48.2386 63.229 47.9626 63.301C47.6926 63.367 47.4526 63.451 47.2426 63.553L46.9096 62.599ZM48.5566 66.064C48.8386 66.064 49.0636 65.998 49.2316 65.866C49.3996 65.734 49.5226 65.596 49.6006 65.452V64.912C49.5706 64.9 49.5226 64.888 49.4566 64.876C49.3966 64.864 49.3276 64.852 49.2496 64.84C49.1776 64.828 49.1026 64.819 49.0246 64.813C48.9526 64.807 48.8866 64.804 48.8266 64.804C48.5026 64.804 48.2626 64.864 48.1066 64.984C47.9506 65.098 47.8726 65.242 47.8726 65.416C47.8726 65.632 47.9326 65.794 48.0526 65.902C48.1786 66.01 48.3466 66.064 48.5566 66.064ZM54.9565 63.427C54.7765 63.367 54.5965 63.337 54.4165 63.337C54.1525 63.337 53.9335 63.4 53.7595 63.526C53.5915 63.652 53.4805 63.811 53.4265 64.003V67H52.1665V62.275H53.1565L53.2915 62.932H53.4085C53.5285 62.686 53.6875 62.497 53.8855 62.365C54.0895 62.233 54.3205 62.167 54.5785 62.167C54.7405 62.167 54.9265 62.2 55.1365 62.266L54.9565 63.427ZM22.9736 75.841L23.1176 74.536H23.0636L22.6316 75.526L21.1736 77.875H20.7596L19.2116 75.517L18.7886 74.545H18.7346L18.9236 75.832V79H17.6636V72.7H18.8696L20.6876 75.607L21.0296 76.3H21.0746L21.3716 75.589L23.1086 72.7H24.3056V79H22.9736V75.841ZM29.581 78.568C29.377 78.724 29.098 78.859 28.744 78.973C28.396 79.081 28.021 79.135 27.619 79.135C26.809 79.135 26.215 78.913 25.837 78.469C25.459 78.025 25.27 77.416 25.27 76.642C25.27 75.82 25.483 75.199 25.909 74.779C26.335 74.353 26.935 74.14 27.709 74.14C27.961 74.14 28.21 74.173 28.456 74.239C28.702 74.299 28.921 74.404 29.113 74.554C29.305 74.698 29.458 74.896 29.572 75.148C29.692 75.394 29.752 75.7 29.752 76.066C29.752 76.192 29.743 76.33 29.725 76.48C29.713 76.63 29.689 76.786 29.653 76.948H26.503C26.533 77.356 26.65 77.659 26.854 77.857C27.064 78.049 27.403 78.145 27.871 78.145C28.153 78.145 28.405 78.106 28.627 78.028C28.855 77.944 29.029 77.86 29.149 77.776L29.581 78.568ZM27.691 75.13C27.319 75.13 27.043 75.232 26.863 75.436C26.683 75.634 26.578 75.889 26.548 76.201H28.582C28.606 75.871 28.546 75.61 28.402 75.418C28.258 75.226 28.021 75.13 27.691 75.13ZM33.8358 79V76.534C33.8358 76.078 33.7878 75.751 33.6918 75.553C33.5958 75.355 33.3978 75.256 33.0978 75.256C32.8458 75.256 32.6448 75.319 32.4948 75.445C32.3448 75.565 32.2278 75.724 32.1438 75.922V79H30.8838V74.275H31.8558L31.9998 74.932H32.1168C32.1948 74.83 32.2848 74.731 32.3868 74.635C32.4888 74.539 32.5998 74.455 32.7198 74.383C32.8458 74.311 32.9838 74.254 33.1338 74.212C33.2898 74.164 33.4638 74.14 33.6558 74.14C33.9738 74.14 34.2378 74.212 34.4478 74.356C34.6638 74.494 34.8348 74.728 34.9608 75.058C35.1348 74.77 35.3448 74.545 35.5908 74.383C35.8428 74.221 36.1338 74.14 36.4638 74.14C36.7518 74.14 36.9948 74.173 37.1928 74.239C37.3968 74.305 37.5618 74.419 37.6878 74.581C37.8138 74.743 37.9038 74.962 37.9578 75.238C38.0178 75.514 38.0478 75.859 38.0478 76.273V79H36.7878V76.471C36.7878 76.273 36.7788 76.099 36.7608 75.949C36.7428 75.799 36.7068 75.673 36.6528 75.571C36.5988 75.463 36.5208 75.385 36.4188 75.337C36.3228 75.283 36.1938 75.256 36.0318 75.256C35.7798 75.256 35.5758 75.322 35.4198 75.454C35.2698 75.58 35.1618 75.757 35.0958 75.985V79H33.8358ZM39.3476 72.7H40.6076V74.68H40.7156C40.8596 74.518 41.0426 74.392 41.2646 74.302C41.4926 74.206 41.7416 74.158 42.0116 74.158C42.6236 74.158 43.0886 74.359 43.4066 74.761C43.7306 75.157 43.8926 75.739 43.8926 76.507C43.8926 76.921 43.8326 77.29 43.7126 77.614C43.5986 77.938 43.4336 78.211 43.2176 78.433C43.0016 78.655 42.7376 78.826 42.4256 78.946C42.1136 79.06 41.7626 79.117 41.3726 79.117C40.9226 79.117 40.5206 79.084 40.1666 79.018C39.8126 78.958 39.5396 78.889 39.3476 78.811V72.7ZM40.6076 77.929C40.7276 77.989 40.8536 78.028 40.9856 78.046C41.1236 78.058 41.2706 78.064 41.4266 78.064C42.2066 78.064 42.5966 77.554 42.5966 76.534C42.5966 76.102 42.5156 75.775 42.3536 75.553C42.1916 75.325 41.9516 75.211 41.6336 75.211C41.3636 75.211 41.1446 75.274 40.9766 75.4C40.8146 75.526 40.6916 75.712 40.6076 75.958V77.929ZM47.7099 75.427C47.5299 75.367 47.3499 75.337 47.1699 75.337C46.9059 75.337 46.6869 75.4 46.5129 75.526C46.3449 75.652 46.2339 75.811 46.1799 76.003V79H44.9199V74.275H45.9099L46.0449 74.932H46.1619C46.2819 74.686 46.4409 74.497 46.6389 74.365C46.8429 74.233 47.0739 74.167 47.3319 74.167C47.4939 74.167 47.6799 74.2 47.8899 74.266L47.7099 75.427ZM52.6172 78.568C52.4132 78.724 52.1342 78.859 51.7802 78.973C51.4322 79.081 51.0572 79.135 50.6552 79.135C49.8452 79.135 49.2512 78.913 48.8732 78.469C48.4952 78.025 48.3062 77.416 48.3062 76.642C48.3062 75.82 48.5192 75.199 48.9452 74.779C49.3712 74.353 49.9712 74.14 50.7452 74.14C50.9972 74.14 51.2462 74.173 51.4922 74.239C51.7382 74.299 51.9572 74.404 52.1492 74.554C52.3412 74.698 52.4942 74.896 52.6082 75.148C52.7282 75.394 52.7882 75.7 52.7882 76.066C52.7882 76.192 52.7792 76.33 52.7612 76.48C52.7492 76.63 52.7252 76.786 52.6892 76.948H49.5392C49.5692 77.356 49.6862 77.659 49.8902 77.857C50.1002 78.049 50.4392 78.145 50.9072 78.145C51.1892 78.145 51.4412 78.106 51.6632 78.028C51.8912 77.944 52.0652 77.86 52.1852 77.776L52.6172 78.568ZM50.7272 75.13C50.3552 75.13 50.0792 75.232 49.8992 75.436C49.7192 75.634 49.6142 75.889 49.5842 76.201H51.6182C51.6422 75.871 51.5822 75.61 51.4382 75.418C51.2942 75.226 51.0572 75.13 50.7272 75.13ZM53.9109 77.776C53.9949 77.818 54.0909 77.86 54.1989 77.902C54.3129 77.944 54.4329 77.983 54.5589 78.019C54.6909 78.055 54.8229 78.085 54.9549 78.109C55.0929 78.133 55.2309 78.145 55.3689 78.145C55.5789 78.145 55.7409 78.112 55.8549 78.046C55.9749 77.98 56.0349 77.857 56.0349 77.677C56.0349 77.533 55.9569 77.428 55.8009 77.362C55.6449 77.29 55.4529 77.221 55.2249 77.155C55.0569 77.107 54.8799 77.05 54.6939 76.984C54.5139 76.918 54.3459 76.831 54.1899 76.723C54.0399 76.609 53.9139 76.462 53.8119 76.282C53.7159 76.102 53.6679 75.874 53.6679 75.598C53.6679 75.124 53.8149 74.764 54.1089 74.518C54.4029 74.266 54.8259 74.14 55.3779 74.14C55.7379 74.14 56.0739 74.173 56.3859 74.239C56.7039 74.299 56.9589 74.371 57.1509 74.455L56.8899 75.409C56.7339 75.349 56.5329 75.289 56.2869 75.229C56.0469 75.163 55.8009 75.13 55.5489 75.13C55.3389 75.13 55.1829 75.163 55.0809 75.229C54.9789 75.289 54.9279 75.397 54.9279 75.553C54.9279 75.691 55.0059 75.796 55.1619 75.868C55.3239 75.934 55.5189 76 55.7469 76.066C55.9149 76.114 56.0889 76.171 56.2689 76.237C56.4549 76.297 56.6229 76.381 56.7729 76.489C56.9229 76.597 57.0459 76.738 57.1419 76.912C57.2439 77.08 57.2949 77.293 57.2949 77.551C57.2949 78.055 57.1299 78.445 56.7999 78.721C56.4759 78.997 55.9869 79.135 55.3329 79.135C54.9789 79.135 54.6489 79.102 54.3429 79.036C54.0369 78.976 53.7879 78.886 53.5959 78.766L53.9109 77.776ZM58.4235 74.275H59.6835V79H58.4235V74.275ZM58.2345 73.096C58.2345 72.904 58.3035 72.745 58.4415 72.619C58.5795 72.487 58.7745 72.421 59.0265 72.421C59.2845 72.421 59.4885 72.487 59.6385 72.619C59.7885 72.751 59.8635 72.91 59.8635 73.096C59.8635 73.27 59.7885 73.42 59.6385 73.546C59.4885 73.672 59.2845 73.735 59.0265 73.735C58.7745 73.735 58.5795 73.672 58.4415 73.546C58.3035 73.42 58.2345 73.27 58.2345 73.096ZM61.0819 74.599C61.3519 74.479 61.6819 74.38 62.0719 74.302C62.4679 74.224 62.8759 74.185 63.2959 74.185C63.6259 74.185 63.9019 74.224 64.1239 74.302C64.3519 74.38 64.5319 74.494 64.6639 74.644C64.7959 74.788 64.8889 74.965 64.9429 75.175C65.0029 75.379 65.0329 75.607 65.0329 75.859C65.0329 76.165 65.0209 76.468 64.9969 76.768C64.9729 77.068 64.9609 77.386 64.9609 77.722C64.9609 77.95 64.9759 78.172 65.0059 78.388C65.0359 78.604 65.0839 78.811 65.1499 79.009H64.1239L63.9169 78.307H63.8089C63.6529 78.517 63.4549 78.697 63.2149 78.847C62.9749 78.997 62.6659 79.072 62.2879 79.072C62.0599 79.072 61.8499 79.039 61.6579 78.973C61.4719 78.907 61.3099 78.814 61.1719 78.694C61.0399 78.568 60.9349 78.421 60.8569 78.253C60.7849 78.085 60.7489 77.902 60.7489 77.704C60.7489 77.17 60.9259 76.768 61.2799 76.498C61.6399 76.222 62.1829 76.084 62.9089 76.084C63.0769 76.084 63.2449 76.099 63.4129 76.129C63.5809 76.153 63.6979 76.171 63.7639 76.183C63.7819 76.057 63.7909 75.949 63.7909 75.859C63.7909 75.631 63.7339 75.463 63.6199 75.355C63.5059 75.247 63.2929 75.193 62.9809 75.193C62.6929 75.193 62.4109 75.229 62.1349 75.301C61.8649 75.367 61.6249 75.451 61.4149 75.553L61.0819 74.599ZM62.7289 78.064C63.0109 78.064 63.2359 77.998 63.4039 77.866C63.5719 77.734 63.6949 77.596 63.7729 77.452V76.912C63.7429 76.9 63.6949 76.888 63.6289 76.876C63.5689 76.864 63.4999 76.852 63.4219 76.84C63.3499 76.828 63.2749 76.819 63.1969 76.813C63.1249 76.807 63.0589 76.804 62.9989 76.804C62.6749 76.804 62.4349 76.864 62.2789 76.984C62.1229 77.098 62.0449 77.242 62.0449 77.416C62.0449 77.632 62.1049 77.794 62.2249 77.902C62.3509 78.01 62.5189 78.064 62.7289 78.064ZM66.3299 77.776C66.4139 77.818 66.5099 77.86 66.6179 77.902C66.7319 77.944 66.8519 77.983 66.9779 78.019C67.1099 78.055 67.2419 78.085 67.3739 78.109C67.5119 78.133 67.6499 78.145 67.7879 78.145C67.9979 78.145 68.1599 78.112 68.2739 78.046C68.3939 77.98 68.4539 77.857 68.4539 77.677C68.4539 77.533 68.3759 77.428 68.2199 77.362C68.0639 77.29 67.8719 77.221 67.6439 77.155C67.4759 77.107 67.2989 77.05 67.1129 76.984C66.9329 76.918 66.7649 76.831 66.6089 76.723C66.4589 76.609 66.3329 76.462 66.2309 76.282C66.1349 76.102 66.0869 75.874 66.0869 75.598C66.0869 75.124 66.2339 74.764 66.5279 74.518C66.8219 74.266 67.2449 74.14 67.7969 74.14C68.1569 74.14 68.4929 74.173 68.8049 74.239C69.1229 74.299 69.3779 74.371 69.5699 74.455L69.3089 75.409C69.1529 75.349 68.9519 75.289 68.7059 75.229C68.4659 75.163 68.2199 75.13 67.9679 75.13C67.7579 75.13 67.6019 75.163 67.4999 75.229C67.3979 75.289 67.3469 75.397 67.3469 75.553C67.3469 75.691 67.4249 75.796 67.5809 75.868C67.7429 75.934 67.9379 76 68.1659 76.066C68.3339 76.114 68.5079 76.171 68.6879 76.237C68.8739 76.297 69.0419 76.381 69.1919 76.489C69.3419 76.597 69.4649 76.738 69.5609 76.912C69.6629 77.08 69.7139 77.293 69.7139 77.551C69.7139 78.055 69.5489 78.445 69.2189 78.721C68.8949 78.997 68.4059 79.135 67.7519 79.135C67.3979 79.135 67.0679 79.102 66.7619 79.036C66.4559 78.976 66.2069 78.886 66.0149 78.766L66.3299 77.776Z" fill="white"/>
<g clip-path="url(#clip0)">
<path d="M64.1312 14.57H34.3812C33.7771 14.57 33.2875 14.9505 33.2875 15.42C33.2875 15.8895 33.7771 16.27 34.3812 16.27H64.1312C65.9406 16.27 67.4125 17.4139 67.4125 18.82V42.62C67.4125 44.0262 65.9406 45.17 64.1312 45.17H19.0687C17.2594 45.17 15.7875 44.0262 15.7875 42.62V18.82C15.7875 17.4139 17.2594 16.27 19.0687 16.27H25.6312C26.2354 16.27 26.725 15.8895 26.725 15.42C26.725 14.9505 26.2354 14.57 25.6312 14.57H19.0687C16.0532 14.57 13.6 16.4765 13.6 18.82V42.62C13.6 44.9635 16.0532 46.87 19.0687 46.87H64.1312C67.1468 46.87 69.6 44.9635 69.6 42.62V18.82C69.6 16.4765 67.1468 14.57 64.1312 14.57Z" fill="white"/>
<path d="M30.0062 18.9901C24.2166 18.9901 19.5062 22.6507 19.5062 27.1501C19.5062 31.6494 24.2166 35.3101 30.0062 35.3101C35.7959 35.3101 40.5062 31.6494 40.5062 27.1501C40.5062 22.6507 35.7959 18.9901 30.0062 18.9901ZM25.257 32.4473C26.0448 30.9754 27.9072 29.9876 30.0062 29.9876C32.1053 29.9876 33.9681 30.9754 34.7559 32.4473C33.4084 33.1791 31.7712 33.6101 30.0062 33.6101C28.2413 33.6101 26.6041 33.1791 25.257 32.4473ZM28.0161 26.741V26.4216C28.0161 25.5686 28.9091 24.875 30.0062 24.875C31.1034 24.875 31.9964 25.5686 31.9964 26.4216V26.741C31.9964 27.5936 31.1034 28.2876 30.0062 28.2876C28.9091 28.2876 28.0161 27.5936 28.0161 26.741ZM36.4337 31.2413C35.6929 30.1935 34.5479 29.3601 33.1794 28.8491C33.8049 28.2813 34.1839 27.5452 34.1839 26.741V26.4216C34.1839 24.6313 32.3095 23.175 30.0062 23.175C27.703 23.175 25.8286 24.6313 25.8286 26.4216V26.741C25.8286 27.5452 26.2076 28.2813 26.8331 28.8491C25.4646 29.3597 24.3196 30.1935 23.5788 31.2413C22.4017 30.1264 21.6937 28.7013 21.6937 27.1501C21.6937 23.588 25.4228 20.6901 30.0062 20.6901C34.5897 20.6901 38.3187 23.588 38.3187 27.1501C38.3187 28.7013 37.6108 30.1264 36.4337 31.2413Z" fill="white"/>
<path d="M46.85 31.57H62.6C63.2041 31.57 63.6937 31.1895 63.6937 30.72V23.92C63.6937 23.4505 63.2041 23.07 62.6 23.07H46.85C46.2459 23.07 45.7562 23.4505 45.7562 23.92V30.72C45.7562 31.1895 46.2459 31.57 46.85 31.57ZM47.9437 24.77H61.5062V29.87H47.9437V24.77Z" fill="white"/>
<path d="M46.85 34.97H62.6C63.2041 34.97 63.6937 34.5895 63.6937 34.12C63.6937 33.6505 63.2041 33.27 62.6 33.27H46.85C46.2459 33.27 45.7562 33.6505 45.7562 34.12C45.7562 34.5895 46.2459 34.97 46.85 34.97Z" fill="white"/>
<path d="M46.0767 38.121C46.2801 38.2791 46.5625 38.37 46.85 38.37C47.1375 38.37 47.4199 38.2791 47.6233 38.121C47.8267 37.963 47.9437 37.7435 47.9437 37.52C47.9437 37.2966 47.8267 37.0771 47.6233 36.9191C47.4199 36.761 47.1375 36.67 46.85 36.67C46.5625 36.67 46.2801 36.761 46.0767 36.9191C45.8733 37.0771 45.7562 37.2966 45.7562 37.52C45.7562 37.7435 45.8733 37.963 46.0767 38.121Z" fill="white"/>
<path d="M50.4517 36.9191C50.2483 37.0771 50.1312 37.2966 50.1312 37.52C50.1312 37.7435 50.2483 37.963 50.4517 38.121C50.6551 38.2791 50.9375 38.37 51.225 38.37C51.5125 38.37 51.7949 38.2791 51.9983 38.121C52.2017 37.963 52.3187 37.7435 52.3187 37.52C52.3187 37.2966 52.2017 37.0771 51.9983 36.9191C51.7949 36.761 51.5125 36.67 51.225 36.67C50.9375 36.67 50.6551 36.761 50.4517 36.9191Z" fill="white"/>
<path d="M62.6 36.67H55.6C54.9959 36.67 54.5062 37.0506 54.5062 37.52C54.5062 37.9895 54.9959 38.37 55.6 38.37H62.6C63.2041 38.37 63.6937 37.9895 63.6937 37.52C63.6937 37.0506 63.2041 36.67 62.6 36.67Z" fill="white"/>
<path d="M37.8449 37.867C37.8449 37.3978 37.3549 37.017 36.7512 37.017H23.2613C22.6576 37.017 22.1676 37.3978 22.1676 37.867C22.1676 38.3365 22.6576 38.717 23.2613 38.717H36.7512C37.3549 38.717 37.8449 38.3365 37.8449 37.867Z" fill="white"/>
<path d="M25.0113 40.417C24.4076 40.417 23.9176 40.7978 23.9176 41.267C23.9176 41.7365 24.4076 42.117 25.0113 42.117H35.0012C35.6049 42.117 36.0949 41.7365 36.0949 41.267C36.0949 40.7978 35.6049 40.417 35.0012 40.417H25.0113Z" fill="white"/>
<path d="M30.0062 16.27C30.2938 16.27 30.5762 16.179 30.7796 16.021C30.9829 15.8629 31.1 15.6435 31.1 15.42C31.1 15.1966 30.9829 14.9771 30.7796 14.819C30.5762 14.661 30.2938 14.57 30.0062 14.57C29.7187 14.57 29.4363 14.661 29.2329 14.819C29.0296 14.9771 28.9125 15.1966 28.9125 15.42C28.9125 15.6435 29.0296 15.8629 29.2329 16.021C29.4363 16.179 29.7187 16.27 30.0062 16.27Z" fill="white"/>
</g>
<g clip-path="url(#clip1)">
<path d="M80.139 52.5067C79.6172 52.5067 79.1938 52.9248 79.1938 53.44C79.1938 58.5864 74.9538 62.7733 69.7421 62.7733C64.5304 62.7733 60.2903 58.5864 60.2903 53.44C60.2903 48.2936 64.5304 44.1067 69.7421 44.1067C72.2794 44.1067 74.6612 45.0857 76.4495 46.8637C76.8167 47.2296 77.4155 47.2319 77.786 46.8684C78.1565 46.5053 78.1584 45.9145 77.7907 45.5487C75.6451 43.4151 72.7865 42.24 69.7421 42.24C63.4879 42.24 58.4 47.2641 58.4 53.44C58.4 59.6159 63.4879 64.64 69.7421 64.64C75.9963 64.64 81.0841 59.6159 81.0841 53.44C81.0841 52.9248 80.6607 52.5067 80.139 52.5067Z" fill="white"/>
<path d="M73.5227 52.5066H70.6872V49.7066C70.6872 49.1914 70.2638 48.7733 69.7421 48.7733C69.2203 48.7733 68.7969 49.1914 68.7969 49.7066V52.5066H65.9614C65.4396 52.5066 65.0162 52.9248 65.0162 53.44C65.0162 53.9552 65.4396 54.3733 65.9614 54.3733H68.7969V57.1733C68.7969 57.6885 69.2203 58.1066 69.7421 58.1066C70.2638 58.1066 70.6872 57.6885 70.6872 57.1733V54.3733H73.5227C74.0445 54.3733 74.4679 53.9552 74.4679 53.44C74.4679 52.9248 74.0445 52.5066 73.5227 52.5066Z" fill="white"/>
</g>
<defs>
<filter id="filter0_d" x="0" y="0" width="88" height="88" filterUnits="userSpaceOnUse" color-interpolation-filters="sRGB">
<feFlood flood-opacity="0" result="BackgroundImageFix"/>
<feColorMatrix in="SourceAlpha" type="matrix" values="0 0 0 0 0 0 0 0 0 0 0 0 0 0 0 0 0 0 127 0"/>
<feOffset dy="4"/>
<feGaussianBlur stdDeviation="2"/>
<feColorMatrix type="matrix" values="0 0 0 0 0 0 0 0 0 0 0 0 0 0 0 0 0 0 0.25 0"/>
<feBlend mode="normal" in2="BackgroundImageFix" result="effect1_dropShadow"/>
<feBlend mode="normal" in="SourceGraphic" in2="effect1_dropShadow" result="shape"/>
</filter>
<clipPath id="clip0">
<rect width="56" height="43.52" fill="white" transform="translate(13.6 8.96002)"/>
</clipPath>
<clipPath id="clip1">
<rect width="22.6841" height="22.4" fill="white" transform="translate(58.4 42.24)"/>
</clipPath>
</defs>
</svg>
