<svg width="88" height="88" viewBox="0 0 88 88" fill="none" xmlns="http://www.w3.org/2000/svg">
<g filter="url(#filter0_d)">
<path d="M64 0H24C12.9543 0 4 8.9543 4 20V60C4 71.0457 12.9543 80 24 80H64C75.0457 80 84 71.0457 84 60V20C84 8.9543 75.0457 0 64 0Z" fill="#B26E63"/>
</g>
<path d="M13.4019 72.73C13.2039 72.868 12.9429 72.967 12.6189 73.027C12.2949 73.093 11.9619 73.126 11.6199 73.126C11.2179 73.126 10.8309 73.066 10.4589 72.946C10.0929 72.826 9.76592 72.634 9.47792 72.37C9.19592 72.106 8.97092 71.767 8.80292 71.353C8.63492 70.939 8.55092 70.438 8.55092 69.85C8.55092 69.238 8.64692 68.725 8.83892 68.311C9.03092 67.891 9.27692 67.555 9.57692 67.303C9.87692 67.045 10.2099 66.859 10.5759 66.745C10.9419 66.631 11.3019 66.574 11.6559 66.574C12.0459 66.574 12.3729 66.598 12.6369 66.646C12.9069 66.694 13.1289 66.751 13.3029 66.817L13.0419 67.933C12.8919 67.867 12.7149 67.819 12.5109 67.789C12.3129 67.759 12.0609 67.744 11.7549 67.744C11.4849 67.744 11.2389 67.789 11.0169 67.879C10.8009 67.963 10.6149 68.092 10.4589 68.266C10.3029 68.44 10.1799 68.659 10.0899 68.923C10.0059 69.187 9.96392 69.496 9.96392 69.85C9.96392 70.162 10.0029 70.447 10.0809 70.705C10.1589 70.963 10.2759 71.185 10.4319 71.371C10.5879 71.557 10.7859 71.701 11.0259 71.803C11.2659 71.905 11.5449 71.956 11.8629 71.956C12.1569 71.956 12.4029 71.929 12.6009 71.875C12.8049 71.821 12.9849 71.752 13.1409 71.668L13.4019 72.73ZM16.9902 69.427C16.8102 69.367 16.6302 69.337 16.4502 69.337C16.1862 69.337 15.9672 69.4 15.7932 69.526C15.6252 69.652 15.5142 69.811 15.4602 70.003V73H14.2002V68.275H15.1902L15.3252 68.932H15.4422C15.5622 68.686 15.7212 68.497 15.9192 68.365C16.1232 68.233 16.3542 68.167 16.6122 68.167C16.7742 68.167 16.9602 68.2 17.1702 68.266L16.9902 69.427ZM21.8975 72.568C21.6935 72.724 21.4145 72.859 21.0605 72.973C20.7125 73.081 20.3375 73.135 19.9355 73.135C19.1255 73.135 18.5315 72.913 18.1535 72.469C17.7755 72.025 17.5865 71.416 17.5865 70.642C17.5865 69.82 17.7995 69.199 18.2255 68.779C18.6515 68.353 19.2515 68.14 20.0255 68.14C20.2775 68.14 20.5265 68.173 20.7725 68.239C21.0185 68.299 21.2375 68.404 21.4295 68.554C21.6215 68.698 21.7745 68.896 21.8885 69.148C22.0085 69.394 22.0685 69.7 22.0685 70.066C22.0685 70.192 22.0595 70.33 22.0415 70.48C22.0295 70.63 22.0055 70.786 21.9695 70.948H18.8195C18.8495 71.356 18.9665 71.659 19.1705 71.857C19.3805 72.049 19.7195 72.145 20.1875 72.145C20.4695 72.145 20.7215 72.106 20.9435 72.028C21.1715 71.944 21.3455 71.86 21.4655 71.776L21.8975 72.568ZM20.0075 69.13C19.6355 69.13 19.3595 69.232 19.1795 69.436C18.9995 69.634 18.8945 69.889 18.8645 70.201H20.8985C20.9225 69.871 20.8625 69.61 20.7185 69.418C20.5745 69.226 20.3375 69.13 20.0075 69.13ZM23.1552 68.599C23.4252 68.479 23.7552 68.38 24.1452 68.302C24.5412 68.224 24.9492 68.185 25.3692 68.185C25.6992 68.185 25.9752 68.224 26.1972 68.302C26.4252 68.38 26.6052 68.494 26.7372 68.644C26.8692 68.788 26.9622 68.965 27.0162 69.175C27.0762 69.379 27.1062 69.607 27.1062 69.859C27.1062 70.165 27.0942 70.468 27.0702 70.768C27.0462 71.068 27.0342 71.386 27.0342 71.722C27.0342 71.95 27.0492 72.172 27.0792 72.388C27.1092 72.604 27.1572 72.811 27.2232 73.009H26.1972L25.9902 72.307H25.8822C25.7262 72.517 25.5282 72.697 25.2882 72.847C25.0482 72.997 24.7392 73.072 24.3612 73.072C24.1332 73.072 23.9232 73.039 23.7312 72.973C23.5452 72.907 23.3832 72.814 23.2452 72.694C23.1132 72.568 23.0082 72.421 22.9302 72.253C22.8582 72.085 22.8222 71.902 22.8222 71.704C22.8222 71.17 22.9992 70.768 23.3532 70.498C23.7132 70.222 24.2562 70.084 24.9822 70.084C25.1502 70.084 25.3182 70.099 25.4862 70.129C25.6542 70.153 25.7712 70.171 25.8372 70.183C25.8552 70.057 25.8642 69.949 25.8642 69.859C25.8642 69.631 25.8072 69.463 25.6932 69.355C25.5792 69.247 25.3662 69.193 25.0542 69.193C24.7662 69.193 24.4842 69.229 24.2082 69.301C23.9382 69.367 23.6982 69.451 23.4882 69.553L23.1552 68.599ZM24.8022 72.064C25.0842 72.064 25.3092 71.998 25.4772 71.866C25.6452 71.734 25.7682 71.596 25.8462 71.452V70.912C25.8162 70.9 25.7682 70.888 25.7022 70.876C25.6422 70.864 25.5732 70.852 25.4952 70.84C25.4232 70.828 25.3482 70.819 25.2702 70.813C25.1982 70.807 25.1322 70.804 25.0722 70.804C24.7482 70.804 24.5082 70.864 24.3522 70.984C24.1962 71.098 24.1182 71.242 24.1182 71.416C24.1182 71.632 24.1782 71.794 24.2982 71.902C24.4242 72.01 24.5922 72.064 24.8022 72.064ZM31.2022 69.427C31.0222 69.367 30.8422 69.337 30.6622 69.337C30.3982 69.337 30.1792 69.4 30.0052 69.526C29.8372 69.652 29.7262 69.811 29.6722 70.003V73H28.4122V68.275H29.4022L29.5372 68.932H29.6542C29.7742 68.686 29.9332 68.497 30.1312 68.365C30.3352 68.233 30.5662 68.167 30.8242 68.167C30.9862 68.167 31.1722 68.2 31.3822 68.266L31.2022 69.427ZM34.4927 66.763C34.7627 66.715 35.0627 66.679 35.3927 66.655C35.7227 66.625 36.0527 66.61 36.3827 66.61C36.7187 66.61 37.0577 66.637 37.3997 66.691C37.7417 66.739 38.0477 66.841 38.3177 66.997C38.5937 67.147 38.8187 67.36 38.9927 67.636C39.1667 67.906 39.2537 68.266 39.2537 68.716C39.2537 69.112 39.1787 69.451 39.0287 69.733C38.8787 70.009 38.6777 70.234 38.4257 70.408C38.1797 70.582 37.8977 70.711 37.5797 70.795C37.2617 70.873 36.9347 70.912 36.5987 70.912C36.5687 70.912 36.5177 70.912 36.4457 70.912C36.3737 70.912 36.2957 70.912 36.2117 70.912C36.1337 70.906 36.0587 70.9 35.9867 70.894C35.9147 70.888 35.8607 70.882 35.8247 70.876V73H34.4927V66.763ZM36.4727 67.78C36.3467 67.78 36.2237 67.783 36.1037 67.789C35.9897 67.795 35.8967 67.807 35.8247 67.825V69.697C35.8487 69.703 35.8877 69.709 35.9417 69.715C35.9957 69.721 36.0527 69.727 36.1127 69.733C36.1727 69.733 36.2267 69.736 36.2747 69.742C36.3287 69.742 36.3707 69.742 36.4007 69.742C36.5747 69.742 36.7487 69.73 36.9227 69.706C37.0967 69.682 37.2497 69.631 37.3817 69.553C37.5197 69.475 37.6307 69.37 37.7147 69.238C37.7987 69.1 37.8407 68.917 37.8407 68.689C37.8407 68.497 37.8017 68.344 37.7237 68.23C37.6457 68.11 37.5407 68.017 37.4087 67.951C37.2827 67.885 37.1357 67.84 36.9677 67.816C36.8057 67.792 36.6407 67.78 36.4727 67.78ZM42.6367 69.427C42.4567 69.367 42.2767 69.337 42.0967 69.337C41.8327 69.337 41.6137 69.4 41.4397 69.526C41.2717 69.652 41.1607 69.811 41.1067 70.003V73H39.8467V68.275H40.8367L40.9717 68.932H41.0887C41.2087 68.686 41.3677 68.497 41.5657 68.365C41.7697 68.233 42.0007 68.167 42.2587 68.167C42.4207 68.167 42.6067 68.2 42.8167 68.266L42.6367 69.427ZM43.233 70.642C43.233 69.862 43.44 69.25 43.854 68.806C44.268 68.362 44.859 68.14 45.627 68.14C46.029 68.14 46.38 68.203 46.68 68.329C46.98 68.455 47.229 68.632 47.427 68.86C47.625 69.082 47.772 69.346 47.868 69.652C47.97 69.952 48.021 70.282 48.021 70.642C48.021 71.026 47.967 71.374 47.859 71.686C47.751 71.992 47.595 72.253 47.391 72.469C47.187 72.685 46.935 72.85 46.635 72.964C46.341 73.078 46.005 73.135 45.627 73.135C45.219 73.135 44.865 73.072 44.565 72.946C44.265 72.82 44.016 72.646 43.818 72.424C43.62 72.196 43.473 71.932 43.377 71.632C43.281 71.326 43.233 70.996 43.233 70.642ZM44.529 70.642C44.529 70.84 44.55 71.026 44.592 71.2C44.634 71.374 44.697 71.527 44.781 71.659C44.871 71.785 44.985 71.887 45.123 71.965C45.261 72.043 45.429 72.082 45.627 72.082C46.359 72.082 46.725 71.602 46.725 70.642C46.725 70.432 46.704 70.24 46.662 70.066C46.626 69.886 46.563 69.733 46.473 69.607C46.389 69.475 46.275 69.373 46.131 69.301C45.993 69.229 45.825 69.193 45.627 69.193C45.285 69.193 45.015 69.307 44.817 69.535C44.625 69.763 44.529 70.132 44.529 70.642ZM53.3509 71.344C53.3509 71.596 53.3539 71.857 53.3599 72.127C53.3659 72.397 53.3929 72.691 53.4409 73.009H52.5679L52.3879 72.352H52.2709C52.1329 72.592 51.9349 72.784 51.6769 72.928C51.4249 73.066 51.1219 73.135 50.7679 73.135C50.1379 73.135 49.6489 72.94 49.3009 72.55C48.9529 72.154 48.7789 71.545 48.7789 70.723C48.7789 70.327 48.8269 69.97 48.9229 69.652C49.0249 69.334 49.1719 69.064 49.3639 68.842C49.5619 68.62 49.8049 68.449 50.0929 68.329C50.3809 68.209 50.7139 68.149 51.0919 68.149C51.3019 68.149 51.4819 68.167 51.6319 68.203C51.7879 68.233 51.9409 68.272 52.0909 68.32V66.7H53.3509V71.344ZM51.0919 72.082C51.3739 72.082 51.5929 72.019 51.7489 71.893C51.9049 71.761 52.0189 71.575 52.0909 71.335V69.445C51.9829 69.361 51.8659 69.301 51.7399 69.265C51.6199 69.223 51.4609 69.202 51.2629 69.202C50.8609 69.202 50.5609 69.319 50.3629 69.553C50.1709 69.787 50.0749 70.189 50.0749 70.759C50.0749 71.155 50.1559 71.476 50.3179 71.722C50.4859 71.962 50.7439 72.082 51.0919 72.082ZM55.9602 68.275V70.894C55.9602 71.284 56.0142 71.569 56.1222 71.749C56.2302 71.929 56.4372 72.019 56.7432 72.019C57.0072 72.019 57.2292 71.95 57.4092 71.812C57.5892 71.674 57.7212 71.5 57.8052 71.29V68.275H59.0652V71.56C59.0652 71.812 59.0772 72.064 59.1012 72.316C59.1312 72.568 59.1702 72.796 59.2182 73H58.2912L58.0482 72.262H57.9492C57.7932 72.514 57.5712 72.724 57.2832 72.892C56.9952 73.054 56.6652 73.135 56.2932 73.135C56.0352 73.135 55.8072 73.102 55.6092 73.036C55.4112 72.97 55.2432 72.862 55.1052 72.712C54.9732 72.556 54.8712 72.352 54.7992 72.1C54.7332 71.848 54.7002 71.536 54.7002 71.164V68.275H55.9602ZM64.0387 72.712C63.8347 72.85 63.5887 72.955 63.3007 73.027C63.0187 73.099 62.7247 73.135 62.4187 73.135C62.0107 73.135 61.6657 73.075 61.3837 72.955C61.1077 72.835 60.8797 72.664 60.6997 72.442C60.5257 72.22 60.3997 71.959 60.3217 71.659C60.2437 71.353 60.2047 71.014 60.2047 70.642C60.2047 69.856 60.3967 69.244 60.7807 68.806C61.1707 68.362 61.7347 68.14 62.4727 68.14C62.8327 68.14 63.1267 68.17 63.3547 68.23C63.5887 68.284 63.7957 68.356 63.9757 68.446L63.6697 69.454C63.5137 69.388 63.3577 69.34 63.2017 69.31C63.0517 69.274 62.8747 69.256 62.6707 69.256C62.2927 69.256 62.0017 69.367 61.7977 69.589C61.5997 69.805 61.5007 70.156 61.5007 70.642C61.5007 70.834 61.5247 71.014 61.5727 71.182C61.6207 71.344 61.6957 71.488 61.7977 71.614C61.8997 71.74 62.0287 71.839 62.1847 71.911C62.3407 71.983 62.5237 72.019 62.7337 72.019C62.9857 72.019 63.1837 71.998 63.3277 71.956C63.4777 71.908 63.6187 71.845 63.7507 71.767L64.0387 72.712ZM64.3987 68.275H65.1187V67.627L66.3787 67.294V68.275H67.6477V69.328H66.3787V70.966C66.3787 71.344 66.4147 71.617 66.4867 71.785C66.5647 71.947 66.7147 72.028 66.9367 72.028C67.0747 72.028 67.1917 72.019 67.2877 72.001C67.3837 71.977 67.4857 71.941 67.5937 71.893L67.8547 72.838C67.6627 72.922 67.4407 72.994 67.1887 73.054C66.9427 73.114 66.7027 73.144 66.4687 73.144C66.0007 73.144 65.6587 73.03 65.4427 72.802C65.2267 72.568 65.1187 72.196 65.1187 71.686V69.328H64.3987V68.275ZM68.2906 70.642C68.2906 69.862 68.4976 69.25 68.9116 68.806C69.3256 68.362 69.9166 68.14 70.6846 68.14C71.0866 68.14 71.4376 68.203 71.7376 68.329C72.0376 68.455 72.2866 68.632 72.4846 68.86C72.6826 69.082 72.8296 69.346 72.9256 69.652C73.0276 69.952 73.0786 70.282 73.0786 70.642C73.0786 71.026 73.0246 71.374 72.9166 71.686C72.8086 71.992 72.6526 72.253 72.4486 72.469C72.2446 72.685 71.9926 72.85 71.6926 72.964C71.3986 73.078 71.0626 73.135 70.6846 73.135C70.2766 73.135 69.9226 73.072 69.6226 72.946C69.3226 72.82 69.0736 72.646 68.8756 72.424C68.6776 72.196 68.5306 71.932 68.4346 71.632C68.3386 71.326 68.2906 70.996 68.2906 70.642ZM69.5866 70.642C69.5866 70.84 69.6076 71.026 69.6496 71.2C69.6916 71.374 69.7546 71.527 69.8386 71.659C69.9286 71.785 70.0426 71.887 70.1806 71.965C70.3186 72.043 70.4866 72.082 70.6846 72.082C71.4166 72.082 71.7826 71.602 71.7826 70.642C71.7826 70.432 71.7616 70.24 71.7196 70.066C71.6836 69.886 71.6206 69.733 71.5306 69.607C71.4466 69.475 71.3326 69.373 71.1886 69.301C71.0506 69.229 70.8826 69.193 70.6846 69.193C70.3426 69.193 70.0726 69.307 69.8746 69.535C69.6826 69.763 69.5866 70.132 69.5866 70.642ZM74.0975 71.776C74.1815 71.818 74.2775 71.86 74.3855 71.902C74.4995 71.944 74.6195 71.983 74.7455 72.019C74.8775 72.055 75.0095 72.085 75.1415 72.109C75.2795 72.133 75.4175 72.145 75.5555 72.145C75.7655 72.145 75.9275 72.112 76.0415 72.046C76.1615 71.98 76.2215 71.857 76.2215 71.677C76.2215 71.533 76.1435 71.428 75.9875 71.362C75.8315 71.29 75.6395 71.221 75.4115 71.155C75.2435 71.107 75.0665 71.05 74.8805 70.984C74.7005 70.918 74.5325 70.831 74.3765 70.723C74.2265 70.609 74.1005 70.462 73.9985 70.282C73.9025 70.102 73.8545 69.874 73.8545 69.598C73.8545 69.124 74.0015 68.764 74.2955 68.518C74.5895 68.266 75.0125 68.14 75.5645 68.14C75.9245 68.14 76.2605 68.173 76.5725 68.239C76.8905 68.299 77.1455 68.371 77.3375 68.455L77.0765 69.409C76.9205 69.349 76.7195 69.289 76.4735 69.229C76.2335 69.163 75.9875 69.13 75.7355 69.13C75.5255 69.13 75.3695 69.163 75.2675 69.229C75.1655 69.289 75.1145 69.397 75.1145 69.553C75.1145 69.691 75.1925 69.796 75.3485 69.868C75.5105 69.934 75.7055 70 75.9335 70.066C76.1015 70.114 76.2755 70.171 76.4555 70.237C76.6415 70.297 76.8095 70.381 76.9595 70.489C77.1095 70.597 77.2325 70.738 77.3285 70.912C77.4305 71.08 77.4815 71.293 77.4815 71.551C77.4815 72.055 77.3165 72.445 76.9865 72.721C76.6625 72.997 76.1735 73.135 75.5195 73.135C75.1655 73.135 74.8355 73.102 74.5295 73.036C74.2235 72.976 73.9745 72.886 73.7825 72.766L74.0975 71.776Z" fill="white"/>
<g clip-path="url(#clip0)">
<path d="M64.8382 41.6654H61.482V47.7265H55.3175V51.0265H61.482V57.0876H64.8382V51.0265H71.0025V47.7265H64.8382V41.6654Z" fill="white"/>
<path d="M68.1693 35.361V8H21V54.3788H48.8273C50.9117 60.1643 56.5316 64.32 63.1209 64.32C71.4797 64.32 78.28 57.6337 78.28 49.415C78.28 42.936 74.0535 37.4104 68.1693 35.361ZM51.3181 11.3H64.813V14.6276H51.3181V11.3ZM41.2074 11.3H47.9619V22.5704L44.5846 21.1007L41.2073 22.5704V11.3H41.2074ZM24.3563 11.3H37.8512V14.6276H24.3563V11.3ZM48.0569 51.0788H24.3563V17.9276H37.8512V27.6398L44.5847 24.7096L51.3181 27.6398V17.9276H64.813V34.6034C64.2574 34.5423 63.693 34.51 63.1209 34.51C54.7622 34.51 47.9619 41.1964 47.9619 49.415C47.9619 49.9774 47.9948 50.5324 48.0569 51.0788ZM63.1209 61.02C56.6128 61.02 51.3181 55.814 51.3181 49.415C51.3181 43.016 56.6128 37.81 63.1209 37.81C69.629 37.81 74.9238 43.016 74.9238 49.415C74.9238 55.814 69.629 61.02 63.1209 61.02Z" fill="white"/>
</g>
<defs>
<filter id="filter0_d" x="0" y="0" width="88" height="88" filterUnits="userSpaceOnUse" color-interpolation-filters="sRGB">
<feFlood flood-opacity="0" result="BackgroundImageFix"/>
<feColorMatrix in="SourceAlpha" type="matrix" values="0 0 0 0 0 0 0 0 0 0 0 0 0 0 0 0 0 0 127 0"/>
<feOffset dy="4"/>
<feGaussianBlur stdDeviation="2"/>
<feColorMatrix type="matrix" values="0 0 0 0 0 0 0 0 0 0 0 0 0 0 0 0 0 0 0.25 0"/>
<feBlend mode="normal" in2="BackgroundImageFix" result="effect1_dropShadow"/>
<feBlend mode="normal" in="SourceGraphic" in2="effect1_dropShadow" result="shape"/>
</filter>
<clipPath id="clip0">
<rect width="57.28" height="56.32" fill="white" transform="translate(21 8)"/>
</clipPath>
</defs>
</svg>
