<svg xmlns="http://www.w3.org/2000/svg" width="88" height="88" fill="none" viewBox="0 0 88 88"><g filter="url(#filter0_d)"><path fill="#FF0035" d="M64 0H24C12.9543 0 4 8.9543 4 20V60C4 71.0457 12.9543 80 24 80H64C75.0457 80 84 71.0457 84 60V20C84 8.9543 75.0457 0 64 0Z"/></g><path fill="#fff" d="M28.9348 65.7H30.1948V69.741C30.1948 70.149 30.1348 70.503 30.0148 70.803C29.9008 71.103 29.7358 71.349 29.5198 71.541C29.3098 71.733 29.0548 71.877 28.7548 71.973C28.4608 72.063 28.1368 72.108 27.7828 72.108C26.9368 72.108 26.2918 71.925 25.8478 71.559C25.4038 71.187 25.1818 70.632 25.1818 69.894V65.7H26.5138V69.651C26.5138 70.131 26.6188 70.467 26.8288 70.659C27.0388 70.845 27.3508 70.938 27.7648 70.938C28.1608 70.938 28.4548 70.839 28.6468 70.641C28.8388 70.437 28.9348 70.107 28.9348 69.651V65.7ZM31.3801 70.776C31.4641 70.818 31.5601 70.86 31.6681 70.902C31.7821 70.944 31.9021 70.983 32.0281 71.019C32.1601 71.055 32.2921 71.085 32.4241 71.109C32.5621 71.133 32.7001 71.145 32.8381 71.145C33.0481 71.145 33.2101 71.112 33.3241 71.046C33.4441 70.98 33.5042 70.857 33.5042 70.677C33.5042 70.533 33.4262 70.428 33.2702 70.362C33.1142 70.29 32.9222 70.221 32.6941 70.155C32.5261 70.107 32.3491 70.05 32.1631 69.984C31.9831 69.918 31.8151 69.831 31.6591 69.723C31.5091 69.609 31.3831 69.462 31.2811 69.282C31.1851 69.102 31.1371 68.874 31.1371 68.598C31.1371 68.124 31.2841 67.764 31.5781 67.518C31.8721 67.266 32.2951 67.14 32.8472 67.14C33.2071 67.14 33.5431 67.173 33.8552 67.239C34.1732 67.299 34.4282 67.371 34.6202 67.455L34.3591 68.409C34.2032 68.349 34.0022 68.289 33.7561 68.229C33.5162 68.163 33.2702 68.13 33.0182 68.13C32.8082 68.13 32.6521 68.163 32.5501 68.229C32.4482 68.289 32.3972 68.397 32.3972 68.553C32.3972 68.691 32.4752 68.796 32.6311 68.868C32.7932 68.934 32.9882 69 33.2161 69.066C33.3841 69.114 33.5581 69.171 33.7381 69.237C33.9242 69.297 34.0922 69.381 34.2422 69.489C34.3922 69.597 34.5152 69.738 34.6111 69.912C34.7132 70.08 34.7642 70.293 34.7642 70.551C34.7642 71.055 34.5992 71.445 34.2692 71.721C33.9452 71.997 33.4562 72.135 32.8022 72.135C32.4481 72.135 32.1181 72.102 31.8121 72.036C31.5061 71.976 31.2571 71.886 31.0651 71.766L31.3801 70.776ZM36.9997 67.275V69.894C36.9997 70.284 37.0537 70.569 37.1617 70.749C37.2697 70.929 37.4767 71.019 37.7827 71.019C38.0467 71.019 38.2687 70.95 38.4487 70.812C38.6287 70.674 38.7607 70.5 38.8447 70.29V67.275H40.1047V70.56C40.1047 70.812 40.1167 71.064 40.1407 71.316C40.1707 71.568 40.2097 71.796 40.2577 72H39.3307L39.0877 71.262H38.9887C38.8327 71.514 38.6107 71.724 38.3227 71.892C38.0347 72.054 37.7047 72.135 37.3327 72.135C37.0747 72.135 36.8467 72.102 36.6487 72.036C36.4507 71.97 36.2827 71.862 36.1447 71.712C36.0127 71.556 35.9107 71.352 35.8387 71.1C35.7727 70.848 35.7397 70.536 35.7397 70.164V67.275H36.9997ZM41.4691 67.599C41.7391 67.479 42.0691 67.38 42.4591 67.302C42.8551 67.224 43.2632 67.185 43.6832 67.185C44.0132 67.185 44.2892 67.224 44.5112 67.302C44.7392 67.38 44.9192 67.494 45.0512 67.644C45.1832 67.788 45.2762 67.965 45.3302 68.175C45.3902 68.379 45.4202 68.607 45.4202 68.859C45.4202 69.165 45.4082 69.468 45.3842 69.768C45.3602 70.068 45.3482 70.386 45.3482 70.722C45.3482 70.95 45.3632 71.172 45.3932 71.388C45.4232 71.604 45.4712 71.811 45.5372 72.009H44.5112L44.3042 71.307H44.1961C44.0401 71.517 43.8422 71.697 43.6022 71.847C43.3621 71.997 43.0531 72.072 42.6751 72.072C42.4471 72.072 42.2371 72.039 42.0452 71.973C41.8591 71.907 41.6971 71.814 41.5591 71.694C41.4271 71.568 41.3221 71.421 41.2441 71.253C41.1721 71.085 41.1361 70.902 41.1361 70.704C41.1361 70.17 41.3131 69.768 41.6671 69.498C42.0271 69.222 42.5701 69.084 43.2961 69.084C43.4641 69.084 43.6321 69.099 43.8001 69.129C43.9681 69.153 44.0851 69.171 44.1511 69.183C44.1692 69.057 44.1782 68.949 44.1782 68.859C44.1782 68.631 44.1212 68.463 44.0071 68.355C43.8932 68.247 43.6802 68.193 43.3682 68.193C43.0802 68.193 42.7981 68.229 42.5222 68.301C42.2522 68.367 42.0121 68.451 41.8021 68.553L41.4691 67.599ZM43.1161 71.064C43.3982 71.064 43.6232 70.998 43.7912 70.866C43.9592 70.734 44.0822 70.596 44.1602 70.452V69.912C44.1302 69.9 44.0822 69.888 44.0162 69.876C43.9561 69.864 43.8871 69.852 43.8092 69.84C43.7372 69.828 43.6622 69.819 43.5842 69.813C43.5122 69.807 43.4462 69.804 43.3861 69.804C43.0621 69.804 42.8221 69.864 42.6661 69.984C42.5101 70.098 42.4321 70.242 42.4321 70.416C42.4321 70.632 42.4921 70.794 42.6121 70.902C42.7381 71.01 42.9061 71.064 43.1161 71.064ZM49.5161 68.427C49.3361 68.367 49.1561 68.337 48.9761 68.337C48.7121 68.337 48.4931 68.4 48.3191 68.526C48.1511 68.652 48.0401 68.811 47.9861 69.003V72H46.7261V67.275H47.7161L47.8511 67.932H47.9681C48.0881 67.686 48.2471 67.497 48.4451 67.365C48.6491 67.233 48.8801 67.167 49.1381 67.167C49.3001 67.167 49.4861 67.2 49.6961 67.266L49.5161 68.427ZM50.5353 67.275H51.7953V72H50.5353V67.275ZM50.3463 66.096C50.3463 65.904 50.4153 65.745 50.5533 65.619C50.6913 65.487 50.8863 65.421 51.1383 65.421C51.3963 65.421 51.6003 65.487 51.7503 65.619C51.9003 65.751 51.9753 65.91 51.9753 66.096C51.9753 66.27 51.9003 66.42 51.7503 66.546C51.6003 66.672 51.3963 66.735 51.1383 66.735C50.8863 66.735 50.6913 66.672 50.5533 66.546C50.4153 66.42 50.3463 66.27 50.3463 66.096ZM52.9688 69.642C52.9688 68.862 53.1758 68.25 53.5898 67.806C54.0038 67.362 54.5948 67.14 55.3628 67.14C55.7648 67.14 56.1158 67.203 56.4158 67.329C56.7158 67.455 56.9648 67.632 57.1628 67.86C57.3608 68.082 57.5078 68.346 57.6038 68.652C57.7058 68.952 57.7568 69.282 57.7568 69.642C57.7568 70.026 57.7028 70.374 57.5948 70.686C57.4868 70.992 57.3308 71.253 57.1268 71.469C56.9228 71.685 56.6708 71.85 56.3708 71.964C56.0768 72.078 55.7408 72.135 55.3628 72.135C54.9548 72.135 54.6008 72.072 54.3008 71.946C54.0008 71.82 53.7518 71.646 53.5538 71.424C53.3558 71.196 53.2088 70.932 53.1128 70.632C53.0168 70.326 52.9688 69.996 52.9688 69.642ZM54.2648 69.642C54.2648 69.84 54.2858 70.026 54.3278 70.2C54.3698 70.374 54.4328 70.527 54.5168 70.659C54.6068 70.785 54.7208 70.887 54.8588 70.965C54.9968 71.043 55.1648 71.082 55.3628 71.082C56.0948 71.082 56.4608 70.602 56.4608 69.642C56.4608 69.432 56.4398 69.24 56.3978 69.066C56.3618 68.886 56.2988 68.733 56.2088 68.607C56.1248 68.475 56.0108 68.373 55.8668 68.301C55.7288 68.229 55.5608 68.193 55.3628 68.193C55.0208 68.193 54.7508 68.307 54.5528 68.535C54.3608 68.763 54.2648 69.132 54.2648 69.642ZM58.7757 70.776C58.8597 70.818 58.9557 70.86 59.0637 70.902C59.1777 70.944 59.2977 70.983 59.4237 71.019C59.5557 71.055 59.6877 71.085 59.8197 71.109C59.9577 71.133 60.0957 71.145 60.2337 71.145C60.4437 71.145 60.6057 71.112 60.7197 71.046C60.8397 70.98 60.8997 70.857 60.8997 70.677C60.8997 70.533 60.8217 70.428 60.6657 70.362C60.5097 70.29 60.3177 70.221 60.0897 70.155C59.9217 70.107 59.7447 70.05 59.5587 69.984C59.3787 69.918 59.2107 69.831 59.0547 69.723C58.9047 69.609 58.7787 69.462 58.6767 69.282C58.5807 69.102 58.5327 68.874 58.5327 68.598C58.5327 68.124 58.6797 67.764 58.9737 67.518C59.2677 67.266 59.6907 67.14 60.2427 67.14C60.6027 67.14 60.9387 67.173 61.2507 67.239C61.5687 67.299 61.8237 67.371 62.0157 67.455L61.7547 68.409C61.5987 68.349 61.3977 68.289 61.1517 68.229C60.9117 68.163 60.6657 68.13 60.4137 68.13C60.2037 68.13 60.0477 68.163 59.9457 68.229C59.8437 68.289 59.7927 68.397 59.7927 68.553C59.7927 68.691 59.8707 68.796 60.0267 68.868C60.1887 68.934 60.3837 69 60.6117 69.066C60.7797 69.114 60.9537 69.171 61.1337 69.237C61.3197 69.297 61.4877 69.381 61.6377 69.489C61.7877 69.597 61.9107 69.738 62.0067 69.912C62.1087 70.08 62.1597 70.293 62.1597 70.551C62.1597 71.055 61.9947 71.445 61.6647 71.721C61.3407 71.997 60.8517 72.135 60.1977 72.135C59.8437 72.135 59.5137 72.102 59.2077 72.036C58.9017 71.976 58.6527 71.886 58.4607 71.766L58.7757 70.776Z"/><g clip-path="url(#clip0)"><path fill="#fff" d="M43.9999 11.9999C38.2939 11.9999 33.6521 16.7099 33.6521 22.5C33.6521 28.2901 38.2938 33 43.9999 33C49.7061 33 54.3478 28.2899 54.3478 22.5C54.3478 16.71 49.7061 11.9999 43.9999 11.9999ZM43.9999 29.9999C39.9259 29.9999 36.6087 26.6339 36.6087 22.5C36.6087 18.366 39.9259 15 43.9999 15C48.074 15 51.3912 18.366 51.3912 22.5C51.3912 26.6339 48.0741 29.9999 43.9999 29.9999Z"/><path fill="#fff" d="M64.6957 24.0001C60.6216 24.0001 57.3044 27.3661 57.3044 31.5C57.3044 35.634 60.6216 39 64.6957 39C68.7697 39 72.0869 35.634 72.0869 31.5C72.0869 27.3661 68.7697 24.0001 64.6957 24.0001ZM64.6957 36C62.2506 36 60.2609 33.9811 60.2609 31.5C60.2609 29.019 62.2506 27 64.6957 27C67.1408 27 69.1304 29.019 69.1304 31.5C69.1304 33.9811 67.1406 36 64.6957 36Z"/><path fill="#fff" d="M23.5143 24.0001C19.4372 24.0001 16.123 27.3661 16.123 31.5C16.123 35.634 19.4403 39 23.5143 39C27.5883 39 30.9056 35.634 30.9056 31.5C30.9056 27.3661 27.5912 24.0001 23.5143 24.0001ZM23.5143 36C21.0692 36 19.0795 33.9811 19.0795 31.5C19.0795 29.019 21.0692 27 23.5143 27C25.9594 27 27.9491 29.019 27.9491 31.5C27.9491 33.9811 25.9592 36 23.5143 36Z"/><path fill="#fff" d="M43.9999 36C33.4037 36 24.7825 44.748 24.7825 55.5C24.7825 56.328 25.4448 57.0001 26.2608 57.0001C27.0768 57.0001 27.7391 56.328 27.7391 55.5C27.7391 46.401 35.0328 39.0001 43.9999 39.0001C52.967 39.0001 60.2607 46.401 60.2607 55.5C60.2607 56.328 60.923 57.0001 61.739 57.0001C62.555 57.0001 63.2173 56.328 63.2173 55.5C63.2173 44.748 54.5961 36 43.9999 36Z"/><path fill="#fff" d="M64.6957 42C62.2625 42 59.8795 42.675 57.804 43.95C57.1093 44.382 56.8845 45.303 57.3073 46.011C57.736 46.7191 58.6407 46.9441 59.3384 46.515C60.9497 45.5219 62.8005 45 64.6957 45C70.4017 45 75.0435 49.7099 75.0435 55.5C75.0435 56.328 75.7058 57 76.5218 57C77.3378 57 78.0001 56.328 78.0001 55.5C78 48.057 72.0308 42 64.6957 42Z"/><path fill="#fff" d="M30.1931 43.947C28.1205 42.675 25.7376 42 23.3043 42C15.9692 42 10 48.057 10 55.5C10 56.328 10.6623 57 11.4783 57C12.2943 57 12.9566 56.328 12.9566 55.5C12.9565 49.7099 17.5983 45 23.3043 45C25.1995 45 27.0502 45.522 28.6586 46.512C29.3534 46.941 30.264 46.716 30.6898 46.0079C31.1155 45.2999 30.8907 44.379 30.1931 43.947Z"/></g><defs><filter id="filter0_d" width="88" height="88" x="0" y="0" color-interpolation-filters="sRGB" filterUnits="userSpaceOnUse"><feFlood flood-opacity="0" result="BackgroundImageFix"/><feColorMatrix in="SourceAlpha" type="matrix" values="0 0 0 0 0 0 0 0 0 0 0 0 0 0 0 0 0 0 127 0"/><feOffset dy="4"/><feGaussianBlur stdDeviation="2"/><feColorMatrix type="matrix" values="0 0 0 0 0 0 0 0 0 0 0 0 0 0 0 0 0 0 0.25 0"/><feBlend in2="BackgroundImageFix" mode="normal" result="effect1_dropShadow"/><feBlend in="SourceGraphic" in2="effect1_dropShadow" mode="normal" result="shape"/></filter><clipPath id="clip0"><rect width="68" height="69" fill="#fff" transform="translate(10)"/></clipPath></defs></svg>