<svg width="88" height="88" viewBox="0 0 88 88" fill="none" xmlns="http://www.w3.org/2000/svg">
<g filter="url(#filter0_d)">
<path d="M64 0H24C12.9543 0 4 8.9543 4 20V60C4 71.0457 12.9543 80 24 80H64C75.0457 80 84 71.0457 84 60V20C84 8.9543 75.0457 0 64 0Z" fill="#91785D"/>
</g>
<path d="M14.9871 60.38H14.2671V59.66H17.0391V60.38H16.3191V65.24H17.0391V65.96H14.2671V65.24H14.9871V60.38ZM21.2303 65.96V63.368C21.2303 62.96 21.1673 62.666 21.0413 62.486C20.9153 62.306 20.6933 62.216 20.3753 62.216C20.1053 62.216 19.8743 62.291 19.6823 62.441C19.4963 62.585 19.3673 62.771 19.2953 62.999C19.2953 63.491 19.2953 63.986 19.2953 64.484C19.3013 64.976 19.3043 65.468 19.3043 65.96H18.0443V61.235H19.0343L19.1693 61.91H19.3043C19.4603 61.688 19.6673 61.499 19.9253 61.343C20.1833 61.181 20.5193 61.1 20.9333 61.1C21.1853 61.1 21.4073 61.133 21.5993 61.199C21.7973 61.259 21.9593 61.367 22.0853 61.523C22.2173 61.673 22.3163 61.877 22.3823 62.135C22.4543 62.393 22.4903 62.717 22.4903 63.107V65.96H21.2303ZM25.4486 63.683L25.6376 64.412H25.7816L25.9166 63.665L26.7986 61.235H28.1576L25.9976 66.005H25.2776L23.0276 61.235H24.4946L25.4486 63.683ZM32.6673 65.528C32.4633 65.684 32.1843 65.819 31.8303 65.933C31.4823 66.041 31.1073 66.095 30.7053 66.095C29.8953 66.095 29.3013 65.873 28.9233 65.429C28.5453 64.985 28.3563 64.376 28.3563 63.602C28.3563 62.78 28.5693 62.159 28.9953 61.739C29.4213 61.313 30.0213 61.1 30.7953 61.1C31.0473 61.1 31.2963 61.133 31.5423 61.199C31.7883 61.259 32.0073 61.364 32.1993 61.514C32.3913 61.658 32.5443 61.856 32.6583 62.108C32.7783 62.354 32.8383 62.66 32.8383 63.026C32.8383 63.152 32.8293 63.29 32.8113 63.44C32.7993 63.59 32.7753 63.746 32.7393 63.908H29.5893C29.6193 64.316 29.7363 64.619 29.9403 64.817C30.1503 65.009 30.4893 65.105 30.9573 65.105C31.2393 65.105 31.4913 65.066 31.7133 64.988C31.9413 64.904 32.1153 64.82 32.2353 64.736L32.6673 65.528ZM30.7773 62.09C30.4053 62.09 30.1293 62.192 29.9493 62.396C29.7693 62.594 29.6643 62.849 29.6343 63.161H31.6683C31.6923 62.831 31.6323 62.57 31.4883 62.378C31.3443 62.186 31.1073 62.09 30.7773 62.09ZM37.1561 65.96V63.368C37.1561 62.96 37.0931 62.666 36.9671 62.486C36.8411 62.306 36.6191 62.216 36.3011 62.216C36.0311 62.216 35.8001 62.291 35.6081 62.441C35.4221 62.585 35.2931 62.771 35.2211 62.999C35.2211 63.491 35.2211 63.986 35.2211 64.484C35.2271 64.976 35.2301 65.468 35.2301 65.96H33.9701V61.235H34.9601L35.0951 61.91H35.2301C35.3861 61.688 35.5931 61.499 35.8511 61.343C36.1091 61.181 36.4451 61.1 36.8591 61.1C37.1111 61.1 37.3331 61.133 37.5251 61.199C37.7231 61.259 37.8851 61.367 38.0111 61.523C38.1431 61.673 38.2421 61.877 38.3081 62.135C38.3801 62.393 38.4161 62.717 38.4161 63.107V65.96H37.1561ZM39.1333 61.235H39.8533V60.587L41.1133 60.254V61.235H42.3823V62.288H41.1133V63.926C41.1133 64.304 41.1493 64.577 41.2213 64.745C41.2993 64.907 41.4493 64.988 41.6713 64.988C41.8093 64.988 41.9263 64.979 42.0223 64.961C42.1183 64.937 42.2203 64.901 42.3283 64.853L42.5893 65.798C42.3973 65.882 42.1753 65.954 41.9233 66.014C41.6773 66.074 41.4373 66.104 41.2033 66.104C40.7353 66.104 40.3933 65.99 40.1773 65.762C39.9613 65.528 39.8533 65.156 39.8533 64.646V62.288H39.1333V61.235ZM43.303 61.559C43.573 61.439 43.903 61.34 44.293 61.262C44.689 61.184 45.097 61.145 45.517 61.145C45.847 61.145 46.123 61.184 46.345 61.262C46.573 61.34 46.753 61.454 46.885 61.604C47.017 61.748 47.11 61.925 47.164 62.135C47.224 62.339 47.254 62.567 47.254 62.819C47.254 63.125 47.242 63.428 47.218 63.728C47.194 64.028 47.182 64.346 47.182 64.682C47.182 64.91 47.197 65.132 47.227 65.348C47.257 65.564 47.305 65.771 47.371 65.969H46.345L46.138 65.267H46.03C45.874 65.477 45.676 65.657 45.436 65.807C45.196 65.957 44.887 66.032 44.509 66.032C44.281 66.032 44.071 65.999 43.879 65.933C43.693 65.867 43.531 65.774 43.393 65.654C43.261 65.528 43.156 65.381 43.078 65.213C43.006 65.045 42.97 64.862 42.97 64.664C42.97 64.13 43.147 63.728 43.501 63.458C43.861 63.182 44.404 63.044 45.13 63.044C45.298 63.044 45.466 63.059 45.634 63.089C45.802 63.113 45.919 63.131 45.985 63.143C46.003 63.017 46.012 62.909 46.012 62.819C46.012 62.591 45.955 62.423 45.841 62.315C45.727 62.207 45.514 62.153 45.202 62.153C44.914 62.153 44.632 62.189 44.356 62.261C44.086 62.327 43.846 62.411 43.636 62.513L43.303 61.559ZM44.95 65.024C45.232 65.024 45.457 64.958 45.625 64.826C45.793 64.694 45.916 64.556 45.994 64.412V63.872C45.964 63.86 45.916 63.848 45.85 63.836C45.79 63.824 45.721 63.812 45.643 63.8C45.571 63.788 45.496 63.779 45.418 63.773C45.346 63.767 45.28 63.764 45.22 63.764C44.896 63.764 44.656 63.824 44.5 63.944C44.344 64.058 44.266 64.202 44.266 64.376C44.266 64.592 44.326 64.754 44.446 64.862C44.572 64.97 44.74 65.024 44.95 65.024ZM51.3499 62.387C51.1699 62.327 50.9899 62.297 50.8099 62.297C50.5459 62.297 50.3269 62.36 50.1529 62.486C49.9849 62.612 49.8739 62.771 49.8199 62.963V65.96H48.5599V61.235H49.5499L49.6849 61.892H49.8019C49.9219 61.646 50.0809 61.457 50.2789 61.325C50.4829 61.193 50.7139 61.127 50.9719 61.127C51.1339 61.127 51.3199 61.16 51.5299 61.226L51.3499 62.387ZM52.3692 61.235H53.6292V65.96H52.3692V61.235ZM52.1802 60.056C52.1802 59.864 52.2492 59.705 52.3872 59.579C52.5252 59.447 52.7202 59.381 52.9722 59.381C53.2302 59.381 53.4342 59.447 53.5842 59.579C53.7342 59.711 53.8092 59.87 53.8092 60.056C53.8092 60.23 53.7342 60.38 53.5842 60.506C53.4342 60.632 53.2302 60.695 52.9722 60.695C52.7202 60.695 52.5252 60.632 52.3872 60.506C52.2492 60.38 52.1802 60.23 52.1802 60.056ZM54.8026 63.602C54.8026 62.822 55.0096 62.21 55.4236 61.766C55.8376 61.322 56.4286 61.1 57.1966 61.1C57.5986 61.1 57.9496 61.163 58.2496 61.289C58.5496 61.415 58.7986 61.592 58.9966 61.82C59.1946 62.042 59.3416 62.306 59.4376 62.612C59.5396 62.912 59.5906 63.242 59.5906 63.602C59.5906 63.986 59.5366 64.334 59.4286 64.646C59.3206 64.952 59.1646 65.213 58.9606 65.429C58.7566 65.645 58.5046 65.81 58.2046 65.924C57.9106 66.038 57.5746 66.095 57.1966 66.095C56.7886 66.095 56.4346 66.032 56.1346 65.906C55.8346 65.78 55.5856 65.606 55.3876 65.384C55.1896 65.156 55.0426 64.892 54.9466 64.592C54.8506 64.286 54.8026 63.956 54.8026 63.602ZM56.0986 63.602C56.0986 63.8 56.1196 63.986 56.1616 64.16C56.2036 64.334 56.2666 64.487 56.3506 64.619C56.4406 64.745 56.5546 64.847 56.6926 64.925C56.8306 65.003 56.9986 65.042 57.1966 65.042C57.9286 65.042 58.2946 64.562 58.2946 63.602C58.2946 63.392 58.2736 63.2 58.2316 63.026C58.1956 62.846 58.1326 62.693 58.0426 62.567C57.9586 62.435 57.8446 62.333 57.7006 62.261C57.5626 62.189 57.3946 62.153 57.1966 62.153C56.8546 62.153 56.5846 62.267 56.3866 62.495C56.1946 62.723 56.0986 63.092 56.0986 63.602ZM67.4078 64.304C67.4078 64.556 67.4108 64.817 67.4168 65.087C67.4228 65.357 67.4498 65.651 67.4978 65.969H66.6248L66.4448 65.312H66.3278C66.1898 65.552 65.9918 65.744 65.7338 65.888C65.4818 66.026 65.1788 66.095 64.8248 66.095C64.1948 66.095 63.7058 65.9 63.3578 65.51C63.0098 65.114 62.8358 64.505 62.8358 63.683C62.8358 63.287 62.8838 62.93 62.9798 62.612C63.0818 62.294 63.2288 62.024 63.4208 61.802C63.6188 61.58 63.8618 61.409 64.1498 61.289C64.4378 61.169 64.7708 61.109 65.1488 61.109C65.3588 61.109 65.5388 61.127 65.6888 61.163C65.8448 61.193 65.9978 61.232 66.1478 61.28V59.66H67.4078V64.304ZM65.1488 65.042C65.4308 65.042 65.6498 64.979 65.8058 64.853C65.9618 64.721 66.0758 64.535 66.1478 64.295V62.405C66.0398 62.321 65.9228 62.261 65.7968 62.225C65.6768 62.183 65.5178 62.162 65.3198 62.162C64.9178 62.162 64.6178 62.279 64.4198 62.513C64.2278 62.747 64.1318 63.149 64.1318 63.719C64.1318 64.115 64.2128 64.436 64.3748 64.682C64.5428 64.922 64.8008 65.042 65.1488 65.042ZM72.7982 65.528C72.5942 65.684 72.3152 65.819 71.9612 65.933C71.6132 66.041 71.2382 66.095 70.8362 66.095C70.0262 66.095 69.4322 65.873 69.0542 65.429C68.6762 64.985 68.4872 64.376 68.4872 63.602C68.4872 62.78 68.7002 62.159 69.1262 61.739C69.5522 61.313 70.1522 61.1 70.9262 61.1C71.1782 61.1 71.4272 61.133 71.6732 61.199C71.9192 61.259 72.1382 61.364 72.3302 61.514C72.5222 61.658 72.6752 61.856 72.7892 62.108C72.9092 62.354 72.9692 62.66 72.9692 63.026C72.9692 63.152 72.9602 63.29 72.9422 63.44C72.9302 63.59 72.9062 63.746 72.8702 63.908H69.7202C69.7502 64.316 69.8672 64.619 70.0712 64.817C70.2812 65.009 70.6202 65.105 71.0882 65.105C71.3702 65.105 71.6222 65.066 71.8442 64.988C72.0722 64.904 72.2462 64.82 72.3662 64.736L72.7982 65.528ZM70.9082 62.09C70.5362 62.09 70.2602 62.192 70.0802 62.396C69.9002 62.594 69.7952 62.849 69.7652 63.161H71.7992C71.8232 62.831 71.7632 62.57 71.6192 62.378C71.4752 62.186 71.2382 62.09 70.9082 62.09ZM22.3143 71.723C22.5843 71.675 22.8843 71.639 23.2143 71.615C23.5443 71.585 23.8743 71.57 24.2043 71.57C24.5403 71.57 24.8793 71.597 25.2213 71.651C25.5633 71.699 25.8693 71.801 26.1393 71.957C26.4153 72.107 26.6403 72.32 26.8143 72.596C26.9883 72.866 27.0753 73.226 27.0753 73.676C27.0753 74.072 27.0003 74.411 26.8503 74.693C26.7003 74.969 26.4993 75.194 26.2473 75.368C26.0013 75.542 25.7193 75.671 25.4013 75.755C25.0833 75.833 24.7563 75.872 24.4203 75.872C24.3903 75.872 24.3393 75.872 24.2673 75.872C24.1953 75.872 24.1173 75.872 24.0333 75.872C23.9553 75.866 23.8803 75.86 23.8083 75.854C23.7363 75.848 23.6823 75.842 23.6463 75.836V77.96H22.3143V71.723ZM24.2943 72.74C24.1683 72.74 24.0453 72.743 23.9253 72.749C23.8113 72.755 23.7183 72.767 23.6463 72.785V74.657C23.6703 74.663 23.7093 74.669 23.7633 74.675C23.8173 74.681 23.8743 74.687 23.9343 74.693C23.9943 74.693 24.0483 74.696 24.0963 74.702C24.1503 74.702 24.1923 74.702 24.2223 74.702C24.3963 74.702 24.5703 74.69 24.7443 74.666C24.9183 74.642 25.0713 74.591 25.2033 74.513C25.3413 74.435 25.4523 74.33 25.5363 74.198C25.6203 74.06 25.6623 73.877 25.6623 73.649C25.6623 73.457 25.6233 73.304 25.5453 73.19C25.4673 73.07 25.3623 72.977 25.2303 72.911C25.1043 72.845 24.9573 72.8 24.7893 72.776C24.6273 72.752 24.4623 72.74 24.2943 72.74ZM30.4583 74.387C30.2783 74.327 30.0983 74.297 29.9183 74.297C29.6543 74.297 29.4353 74.36 29.2613 74.486C29.0933 74.612 28.9823 74.771 28.9283 74.963V77.96H27.6683V73.235H28.6583L28.7933 73.892H28.9103C29.0303 73.646 29.1893 73.457 29.3873 73.325C29.5913 73.193 29.8223 73.127 30.0803 73.127C30.2423 73.127 30.4283 73.16 30.6383 73.226L30.4583 74.387ZM31.0546 75.602C31.0546 74.822 31.2616 74.21 31.6756 73.766C32.0896 73.322 32.6806 73.1 33.4486 73.1C33.8506 73.1 34.2016 73.163 34.5016 73.289C34.8016 73.415 35.0506 73.592 35.2486 73.82C35.4466 74.042 35.5936 74.306 35.6896 74.612C35.7916 74.912 35.8426 75.242 35.8426 75.602C35.8426 75.986 35.7886 76.334 35.6806 76.646C35.5726 76.952 35.4166 77.213 35.2126 77.429C35.0086 77.645 34.7566 77.81 34.4566 77.924C34.1626 78.038 33.8266 78.095 33.4486 78.095C33.0406 78.095 32.6866 78.032 32.3866 77.906C32.0866 77.78 31.8376 77.606 31.6396 77.384C31.4416 77.156 31.2946 76.892 31.1986 76.592C31.1026 76.286 31.0546 75.956 31.0546 75.602ZM32.3506 75.602C32.3506 75.8 32.3716 75.986 32.4136 76.16C32.4556 76.334 32.5186 76.487 32.6026 76.619C32.6926 76.745 32.8066 76.847 32.9446 76.925C33.0826 77.003 33.2506 77.042 33.4486 77.042C34.1806 77.042 34.5466 76.562 34.5466 75.602C34.5466 75.392 34.5256 75.2 34.4836 75.026C34.4476 74.846 34.3846 74.693 34.2946 74.567C34.2106 74.435 34.0966 74.333 33.9526 74.261C33.8146 74.189 33.6466 74.153 33.4486 74.153C33.1066 74.153 32.8366 74.267 32.6386 74.495C32.4466 74.723 32.3506 75.092 32.3506 75.602ZM41.1725 76.304C41.1725 76.556 41.1755 76.817 41.1815 77.087C41.1875 77.357 41.2145 77.651 41.2625 77.969H40.3895L40.2095 77.312H40.0925C39.9545 77.552 39.7565 77.744 39.4985 77.888C39.2465 78.026 38.9435 78.095 38.5895 78.095C37.9595 78.095 37.4705 77.9 37.1225 77.51C36.7745 77.114 36.6005 76.505 36.6005 75.683C36.6005 75.287 36.6485 74.93 36.7445 74.612C36.8465 74.294 36.9935 74.024 37.1855 73.802C37.3835 73.58 37.6265 73.409 37.9145 73.289C38.2025 73.169 38.5355 73.109 38.9135 73.109C39.1235 73.109 39.3035 73.127 39.4535 73.163C39.6095 73.193 39.7625 73.232 39.9125 73.28V71.66H41.1725V76.304ZM38.9135 77.042C39.1955 77.042 39.4145 76.979 39.5705 76.853C39.7265 76.721 39.8405 76.535 39.9125 76.295V74.405C39.8045 74.321 39.6875 74.261 39.5615 74.225C39.4415 74.183 39.2825 74.162 39.0845 74.162C38.6825 74.162 38.3825 74.279 38.1845 74.513C37.9925 74.747 37.8965 75.149 37.8965 75.719C37.8965 76.115 37.9775 76.436 38.1395 76.682C38.3075 76.922 38.5655 77.042 38.9135 77.042ZM43.7818 73.235V75.854C43.7818 76.244 43.8358 76.529 43.9438 76.709C44.0518 76.889 44.2588 76.979 44.5648 76.979C44.8288 76.979 45.0508 76.91 45.2308 76.772C45.4108 76.634 45.5428 76.46 45.6268 76.25V73.235H46.8868V76.52C46.8868 76.772 46.8988 77.024 46.9228 77.276C46.9528 77.528 46.9918 77.756 47.0398 77.96H46.1128L45.8698 77.222H45.7708C45.6148 77.474 45.3928 77.684 45.1048 77.852C44.8168 78.014 44.4868 78.095 44.1148 78.095C43.8568 78.095 43.6288 78.062 43.4308 77.996C43.2328 77.93 43.0648 77.822 42.9268 77.672C42.7948 77.516 42.6928 77.312 42.6208 77.06C42.5548 76.808 42.5218 76.496 42.5218 76.124V73.235H43.7818ZM51.8603 77.672C51.6563 77.81 51.4103 77.915 51.1223 77.987C50.8403 78.059 50.5463 78.095 50.2403 78.095C49.8323 78.095 49.4873 78.035 49.2053 77.915C48.9293 77.795 48.7013 77.624 48.5213 77.402C48.3473 77.18 48.2213 76.919 48.1433 76.619C48.0653 76.313 48.0263 75.974 48.0263 75.602C48.0263 74.816 48.2183 74.204 48.6023 73.766C48.9923 73.322 49.5563 73.1 50.2943 73.1C50.6543 73.1 50.9483 73.13 51.1763 73.19C51.4103 73.244 51.6173 73.316 51.7973 73.406L51.4913 74.414C51.3353 74.348 51.1793 74.3 51.0233 74.27C50.8733 74.234 50.6963 74.216 50.4923 74.216C50.1143 74.216 49.8233 74.327 49.6193 74.549C49.4213 74.765 49.3223 75.116 49.3223 75.602C49.3223 75.794 49.3463 75.974 49.3943 76.142C49.4423 76.304 49.5173 76.448 49.6193 76.574C49.7213 76.7 49.8503 76.799 50.0063 76.871C50.1623 76.943 50.3453 76.979 50.5553 76.979C50.8073 76.979 51.0053 76.958 51.1493 76.916C51.2993 76.868 51.4403 76.805 51.5723 76.727L51.8603 77.672ZM52.2203 73.235H52.9403V72.587L54.2003 72.254V73.235H55.4693V74.288H54.2003V75.926C54.2003 76.304 54.2363 76.577 54.3083 76.745C54.3863 76.907 54.5363 76.988 54.7583 76.988C54.8963 76.988 55.0133 76.979 55.1093 76.961C55.2053 76.937 55.3073 76.901 55.4153 76.853L55.6763 77.798C55.4843 77.882 55.2623 77.954 55.0103 78.014C54.7643 78.074 54.5243 78.104 54.2903 78.104C53.8223 78.104 53.4803 77.99 53.2643 77.762C53.0483 77.528 52.9403 77.156 52.9403 76.646V74.288H52.2203V73.235ZM56.1122 75.602C56.1122 74.822 56.3192 74.21 56.7332 73.766C57.1472 73.322 57.7382 73.1 58.5062 73.1C58.9082 73.1 59.2592 73.163 59.5592 73.289C59.8592 73.415 60.1082 73.592 60.3062 73.82C60.5042 74.042 60.6512 74.306 60.7472 74.612C60.8492 74.912 60.9002 75.242 60.9002 75.602C60.9002 75.986 60.8462 76.334 60.7382 76.646C60.6302 76.952 60.4742 77.213 60.2702 77.429C60.0662 77.645 59.8142 77.81 59.5142 77.924C59.2202 78.038 58.8842 78.095 58.5062 78.095C58.0982 78.095 57.7442 78.032 57.4442 77.906C57.1442 77.78 56.8952 77.606 56.6972 77.384C56.4992 77.156 56.3522 76.892 56.2562 76.592C56.1602 76.286 56.1122 75.956 56.1122 75.602ZM57.4082 75.602C57.4082 75.8 57.4292 75.986 57.4712 76.16C57.5132 76.334 57.5762 76.487 57.6602 76.619C57.7502 76.745 57.8642 76.847 58.0022 76.925C58.1402 77.003 58.3082 77.042 58.5062 77.042C59.2382 77.042 59.6042 76.562 59.6042 75.602C59.6042 75.392 59.5832 75.2 59.5412 75.026C59.5052 74.846 59.4422 74.693 59.3522 74.567C59.2682 74.435 59.1542 74.333 59.0102 74.261C58.8722 74.189 58.7042 74.153 58.5062 74.153C58.1642 74.153 57.8942 74.267 57.6962 74.495C57.5042 74.723 57.4082 75.092 57.4082 75.602ZM61.9191 76.736C62.0031 76.778 62.0991 76.82 62.2071 76.862C62.3211 76.904 62.4411 76.943 62.5671 76.979C62.6991 77.015 62.8311 77.045 62.9631 77.069C63.1011 77.093 63.2391 77.105 63.3771 77.105C63.5871 77.105 63.7491 77.072 63.8631 77.006C63.9831 76.94 64.0431 76.817 64.0431 76.637C64.0431 76.493 63.9651 76.388 63.8091 76.322C63.6531 76.25 63.4611 76.181 63.2331 76.115C63.0651 76.067 62.8881 76.01 62.7021 75.944C62.5221 75.878 62.3541 75.791 62.1981 75.683C62.0481 75.569 61.9221 75.422 61.8201 75.242C61.7241 75.062 61.6761 74.834 61.6761 74.558C61.6761 74.084 61.8231 73.724 62.1171 73.478C62.4111 73.226 62.8341 73.1 63.3861 73.1C63.7461 73.1 64.0821 73.133 64.3941 73.199C64.7121 73.259 64.9671 73.331 65.1591 73.415L64.8981 74.369C64.7421 74.309 64.5411 74.249 64.2951 74.189C64.0551 74.123 63.8091 74.09 63.5571 74.09C63.3471 74.09 63.1911 74.123 63.0891 74.189C62.9871 74.249 62.9361 74.357 62.9361 74.513C62.9361 74.651 63.0141 74.756 63.1701 74.828C63.3321 74.894 63.5271 74.96 63.7551 75.026C63.9231 75.074 64.0971 75.131 64.2771 75.197C64.4631 75.257 64.6311 75.341 64.7811 75.449C64.9311 75.557 65.0541 75.698 65.1501 75.872C65.2521 76.04 65.3031 76.253 65.3031 76.511C65.3031 77.015 65.1381 77.405 64.8081 77.681C64.4841 77.957 63.9951 78.095 63.3411 78.095C62.9871 78.095 62.6571 78.062 62.3511 77.996C62.0451 77.936 61.7961 77.846 61.6041 77.726L61.9191 76.736Z" fill="white"/>
<path d="M18.92 47.8651H16.64C16.3377 47.8651 16.0477 47.9394 15.8339 48.0716C15.6201 48.2038 15.5 48.3831 15.5 48.5701C15.5 48.7571 15.6201 48.9364 15.8339 49.0686C16.0477 49.2008 16.3377 49.2751 16.64 49.2751H18.92C19.2223 49.2751 19.5123 49.2008 19.7261 49.0686C19.9399 48.9364 20.06 48.7571 20.06 48.5701C20.06 48.3831 19.9399 48.2038 19.7261 48.0716C19.5123 47.9394 19.2223 47.8651 18.92 47.8651Z" fill="white"/>
<path d="M18.92 45.7501H16.64C16.3377 45.7501 16.0477 45.8244 15.8339 45.9566C15.6201 46.0888 15.5 46.2681 15.5 46.4551C15.5 46.6421 15.6201 46.8214 15.8339 46.9536C16.0477 47.0858 16.3377 47.1601 16.64 47.1601H18.92C19.2223 47.1601 19.5123 47.0858 19.7261 46.9536C19.9399 46.8214 20.06 46.6421 20.06 46.4551C20.06 46.2681 19.9399 46.0888 19.7261 45.9566C19.5123 45.8244 19.2223 45.7501 18.92 45.7501Z" fill="white"/>
<path d="M39.44 47.8651H37.16C36.8577 47.8651 36.5677 47.9394 36.3539 48.0716C36.1401 48.2038 36.02 48.3831 36.02 48.5701C36.02 48.7571 36.1401 48.9364 36.3539 49.0686C36.5677 49.2008 36.8577 49.2751 37.16 49.2751H39.44C39.7424 49.2751 40.0323 49.2008 40.2461 49.0686C40.4599 48.9364 40.58 48.7571 40.58 48.5701C40.58 48.3831 40.4599 48.2038 40.2461 48.0716C40.0323 47.9394 39.7424 47.8651 39.44 47.8651Z" fill="white"/>
<path d="M39.44 45.7501H37.16C36.8577 45.7501 36.5677 45.8244 36.3539 45.9566C36.1401 46.0888 36.02 46.2681 36.02 46.4551C36.02 46.6421 36.1401 46.8214 36.3539 46.9536C36.5677 47.0858 36.8577 47.1601 37.16 47.1601H39.44C39.7424 47.1601 40.0323 47.0858 40.2461 46.9536C40.4599 46.8214 40.58 46.6421 40.58 46.4551C40.58 46.2681 40.4599 46.0888 40.2461 45.9566C40.0323 45.8244 39.7424 45.7501 39.44 45.7501Z" fill="white"/>
<path d="M59.96 47.8651H57.68C57.3777 47.8651 57.0877 47.9394 56.8739 48.0716C56.6601 48.2038 56.54 48.3831 56.54 48.5701C56.54 48.7571 56.6601 48.9364 56.8739 49.0686C57.0877 49.2008 57.3777 49.2751 57.68 49.2751H59.96C60.2623 49.2751 60.5523 49.2008 60.7661 49.0686C60.9799 48.9364 61.1 48.7571 61.1 48.5701C61.1 48.3831 60.9799 48.2038 60.7661 48.0716C60.5523 47.9394 60.2623 47.8651 59.96 47.8651Z" fill="white"/>
<path d="M59.96 45.7501H57.68C57.3777 45.7501 57.0877 45.8244 56.8739 45.9566C56.6601 46.0888 56.54 46.2681 56.54 46.4551C56.54 46.6421 56.6601 46.8214 56.8739 46.9536C57.0877 47.0858 57.3777 47.1601 57.68 47.1601H59.96C60.2623 47.1601 60.5523 47.0858 60.7661 46.9536C60.9799 46.8214 61.1 46.6421 61.1 46.4551C61.1 46.2681 60.9799 46.0888 60.7661 45.9566C60.5523 45.8244 60.2623 45.7501 59.96 45.7501Z" fill="white"/>
<path d="M74.78 35.8801H65.66V22.4851C65.66 22.2981 65.5399 22.1188 65.3261 21.9866C65.1123 21.8544 64.8223 21.7801 64.52 21.7801H55.4V9.79509C55.4 9.60811 55.2799 9.42879 55.0661 9.29658C54.8523 9.16436 54.5623 9.09009 54.26 9.09009H33.74C33.4377 9.09009 33.1477 9.16436 32.9339 9.29658C32.7201 9.42879 32.6 9.60811 32.6 9.79509V21.7801H23.48C23.1777 21.7801 22.8877 21.8544 22.6739 21.9866C22.4601 22.1188 22.34 22.2981 22.34 22.4851V35.8801H13.22C12.9177 35.8801 12.6277 35.9544 12.4139 36.0866C12.2001 36.2188 12.08 36.3981 12.08 36.5851V50.6851C12.08 50.8721 12.2001 51.0514 12.4139 51.1836C12.6277 51.3158 12.9177 51.3901 13.22 51.3901H74.78C75.0823 51.3901 75.3723 51.3158 75.5861 51.1836C75.7999 51.0514 75.92 50.8721 75.92 50.6851V36.5851C75.92 36.3981 75.7999 36.2188 75.5861 36.0866C75.3723 35.9544 75.0823 35.8801 74.78 35.8801ZM63.38 37.2901H65.66V40.1101H63.38V37.2901ZM63.38 35.8801H45.14V23.1901H50.84V26.7151C50.84 26.9021 50.9601 27.0814 51.1739 27.2136C51.3877 27.3458 51.6777 27.4201 51.98 27.4201H56.54C56.8423 27.4201 57.1323 27.3458 57.3461 27.2136C57.5599 27.0814 57.68 26.9021 57.68 26.7151V23.1901H63.38V35.8801ZM42.86 37.2901H45.14V40.1101H42.86V37.2901ZM55.4 23.1901V26.0101H53.12V23.1901H55.4ZM45.14 10.5001V11.9101H42.86V10.5001H45.14ZM34.88 10.5001H40.58V12.6151C40.58 12.8021 40.7001 12.9814 40.9139 13.1136C41.1277 13.2458 41.4177 13.3201 41.72 13.3201H46.28C46.5823 13.3201 46.8723 13.2458 47.0861 13.1136C47.2999 12.9814 47.42 12.8021 47.42 12.6151V10.5001H53.12V21.7801H34.88V10.5001ZM34.88 23.1901V26.0101H32.6V23.1901H34.88ZM24.62 23.1901H30.32V26.7151C30.32 26.9021 30.4401 27.0814 30.6539 27.2136C30.8677 27.3458 31.1577 27.4201 31.46 27.4201H36.02C36.3223 27.4201 36.6123 27.3458 36.8261 27.2136C37.0399 27.0814 37.16 26.9021 37.16 26.7151V23.1901H42.86V35.8801H24.62V23.1901ZM24.62 37.2901V40.1101H22.34V37.2901H24.62ZM14.36 37.2901H20.06V40.8151C20.06 41.0021 20.1801 41.1814 20.3939 41.3136C20.6077 41.4458 20.8977 41.5201 21.2 41.5201H25.76C26.0623 41.5201 26.3523 41.4458 26.5661 41.3136C26.7799 41.1814 26.9 41.0021 26.9 40.8151V37.2901H32.6V49.9801H14.36V37.2901ZM34.88 37.2901H40.58V40.8151C40.58 41.0021 40.7001 41.1814 40.9139 41.3136C41.1277 41.4458 41.4177 41.5201 41.72 41.5201H46.28C46.5823 41.5201 46.8723 41.4458 47.0861 41.3136C47.2999 41.1814 47.42 41.0021 47.42 40.8151V37.2901H53.12V49.9801H34.88V37.2901ZM73.64 49.9801H55.4V37.2901H61.1V40.8151C61.1 41.0021 61.2201 41.1814 61.4339 41.3136C61.6477 41.4458 61.9377 41.5201 62.24 41.5201H66.8C67.1023 41.5201 67.3923 41.4458 67.6061 41.3136C67.8199 41.1814 67.94 41.0021 67.94 40.8151V37.2901H73.64V49.9801Z" fill="white"/>
<path d="M26.9 35.1751H29.18C29.4823 35.1751 29.7723 35.1009 29.9861 34.9686C30.1999 34.8364 30.32 34.6571 30.32 34.4701C30.32 34.2832 30.1999 34.1038 29.9861 33.9716C29.7723 33.8394 29.4823 33.7651 29.18 33.7651H26.9C26.5977 33.7651 26.3077 33.8394 26.0939 33.9716C25.8801 34.1038 25.76 34.2832 25.76 34.4701C25.76 34.6571 25.8801 34.8364 26.0939 34.9686C26.3077 35.1009 26.5977 35.1751 26.9 35.1751Z" fill="white"/>
<path d="M26.9 33.0601H29.18C29.4823 33.0601 29.7723 32.9859 29.9861 32.8537C30.1999 32.7214 30.32 32.5421 30.32 32.3551C30.32 32.1682 30.1999 31.9888 29.9861 31.8566C29.7723 31.7244 29.4823 31.6501 29.18 31.6501H26.9C26.5977 31.6501 26.3077 31.7244 26.0939 31.8566C25.8801 31.9888 25.76 32.1682 25.76 32.3551C25.76 32.5421 25.8801 32.7214 26.0939 32.8537C26.3077 32.9859 26.5977 33.0601 26.9 33.0601Z" fill="white"/>
<path d="M49.7 33.7651H47.42C47.1177 33.7651 46.8277 33.8394 46.6139 33.9716C46.4001 34.1038 46.28 34.2832 46.28 34.4701C46.28 34.6571 46.4001 34.8364 46.6139 34.9686C46.8277 35.1009 47.1177 35.1751 47.42 35.1751H49.7C50.0023 35.1751 50.2923 35.1009 50.5061 34.9686C50.7199 34.8364 50.84 34.6571 50.84 34.4701C50.84 34.2832 50.7199 34.1038 50.5061 33.9716C50.2923 33.8394 50.0023 33.7651 49.7 33.7651Z" fill="white"/>
<path d="M49.7 31.6501H47.42C47.1177 31.6501 46.8277 31.7244 46.6139 31.8566C46.4001 31.9888 46.28 32.1682 46.28 32.3551C46.28 32.5421 46.4001 32.7214 46.6139 32.8537C46.8277 32.9859 47.1177 33.0601 47.42 33.0601H49.7C50.0023 33.0601 50.2923 32.9859 50.5061 32.8537C50.7199 32.7214 50.84 32.5421 50.84 32.3551C50.84 32.1682 50.7199 31.9888 50.5061 31.8566C50.2923 31.7244 50.0023 31.6501 49.7 31.6501Z" fill="white"/>
<path d="M37.16 18.96H39.44C39.7424 18.96 40.0323 18.8858 40.2461 18.7536C40.4599 18.6213 40.58 18.442 40.58 18.255C40.58 18.0681 40.4599 17.8888 40.2461 17.7565C40.0323 17.6243 39.7424 17.55 39.44 17.55H37.16C36.8577 17.55 36.5677 17.6243 36.3539 17.7565C36.1401 17.8888 36.02 18.0681 36.02 18.255C36.02 18.442 36.1401 18.6213 36.3539 18.7536C36.5677 18.8858 36.8577 18.96 37.16 18.96Z" fill="white"/>
<path d="M37.16 21.075H39.44C39.7424 21.075 40.0323 21.0008 40.2461 20.8685C40.4599 20.7363 40.58 20.557 40.58 20.37C40.58 20.1831 40.4599 20.0037 40.2461 19.8715C40.0323 19.7393 39.7424 19.665 39.44 19.665H37.16C36.8577 19.665 36.5677 19.7393 36.3539 19.8715C36.1401 20.0037 36.02 20.1831 36.02 20.37C36.02 20.557 36.1401 20.7363 36.3539 20.8685C36.5677 21.0008 36.8577 21.075 37.16 21.075Z" fill="white"/>
<defs>
<filter id="filter0_d" x="0" y="0" width="88" height="88" filterUnits="userSpaceOnUse" color-interpolation-filters="sRGB">
<feFlood flood-opacity="0" result="BackgroundImageFix"/>
<feColorMatrix in="SourceAlpha" type="matrix" values="0 0 0 0 0 0 0 0 0 0 0 0 0 0 0 0 0 0 127 0"/>
<feOffset dy="4"/>
<feGaussianBlur stdDeviation="2"/>
<feColorMatrix type="matrix" values="0 0 0 0 0 0 0 0 0 0 0 0 0 0 0 0 0 0 0.25 0"/>
<feBlend mode="normal" in2="BackgroundImageFix" result="effect1_dropShadow"/>
<feBlend mode="normal" in="SourceGraphic" in2="effect1_dropShadow" result="shape"/>
</filter>
</defs>
</svg>
