<svg width="88" height="88" viewBox="0 0 88 88" fill="none" xmlns="http://www.w3.org/2000/svg">
<g filter="url(#filter0_d)">
<path d="M64 0H24C12.9543 0 4 8.9543 4 20V60C4 71.0457 12.9543 80 24 80H64C75.0457 80 84 71.0457 84 60V20C84 8.9543 75.0457 0 64 0Z" fill="#5E7CE2"/>
</g>
<path d="M17.0672 69.643C17.3372 69.595 17.6372 69.559 17.9672 69.535C18.2972 69.505 18.6272 69.49 18.9572 69.49C19.2932 69.49 19.6322 69.517 19.9742 69.571C20.3162 69.619 20.6222 69.721 20.8922 69.877C21.1682 70.027 21.3932 70.24 21.5672 70.516C21.7412 70.786 21.8282 71.146 21.8282 71.596C21.8282 71.992 21.7532 72.331 21.6032 72.613C21.4532 72.889 21.2522 73.114 21.0002 73.288C20.7542 73.462 20.4722 73.591 20.1542 73.675C19.8362 73.753 19.5092 73.792 19.1732 73.792C19.1432 73.792 19.0922 73.792 19.0202 73.792C18.9482 73.792 18.8702 73.792 18.7862 73.792C18.7082 73.786 18.6332 73.78 18.5612 73.774C18.4892 73.768 18.4352 73.762 18.3992 73.756V75.88H17.0672V69.643ZM19.0472 70.66C18.9212 70.66 18.7982 70.663 18.6782 70.669C18.5642 70.675 18.4712 70.687 18.3992 70.705V72.577C18.4232 72.583 18.4622 72.589 18.5162 72.595C18.5702 72.601 18.6272 72.607 18.6872 72.613C18.7472 72.613 18.8012 72.616 18.8492 72.622C18.9032 72.622 18.9452 72.622 18.9752 72.622C19.1492 72.622 19.3232 72.61 19.4972 72.586C19.6712 72.562 19.8242 72.511 19.9562 72.433C20.0942 72.355 20.2052 72.25 20.2892 72.118C20.3732 71.98 20.4152 71.797 20.4152 71.569C20.4152 71.377 20.3762 71.224 20.2982 71.11C20.2202 70.99 20.1152 70.897 19.9832 70.831C19.8572 70.765 19.7102 70.72 19.5422 70.696C19.3802 70.672 19.2152 70.66 19.0472 70.66ZM25.2113 72.307C25.0313 72.247 24.8513 72.217 24.6713 72.217C24.4073 72.217 24.1883 72.28 24.0143 72.406C23.8463 72.532 23.7353 72.691 23.6813 72.883V75.88H22.4213V71.155H23.4113L23.5463 71.812H23.6633C23.7833 71.566 23.9423 71.377 24.1403 71.245C24.3443 71.113 24.5753 71.047 24.8333 71.047C24.9953 71.047 25.1813 71.08 25.3913 71.146L25.2113 72.307ZM25.8075 73.522C25.8075 72.742 26.0145 72.13 26.4285 71.686C26.8425 71.242 27.4335 71.02 28.2015 71.02C28.6035 71.02 28.9545 71.083 29.2545 71.209C29.5545 71.335 29.8035 71.512 30.0015 71.74C30.1995 71.962 30.3465 72.226 30.4425 72.532C30.5445 72.832 30.5955 73.162 30.5955 73.522C30.5955 73.906 30.5415 74.254 30.4335 74.566C30.3255 74.872 30.1695 75.133 29.9655 75.349C29.7615 75.565 29.5095 75.73 29.2095 75.844C28.9155 75.958 28.5795 76.015 28.2015 76.015C27.7935 76.015 27.4395 75.952 27.1395 75.826C26.8395 75.7 26.5905 75.526 26.3925 75.304C26.1945 75.076 26.0475 74.812 25.9515 74.512C25.8555 74.206 25.8075 73.876 25.8075 73.522ZM27.1035 73.522C27.1035 73.72 27.1245 73.906 27.1665 74.08C27.2085 74.254 27.2715 74.407 27.3555 74.539C27.4455 74.665 27.5595 74.767 27.6975 74.845C27.8355 74.923 28.0035 74.962 28.2015 74.962C28.9335 74.962 29.2995 74.482 29.2995 73.522C29.2995 73.312 29.2785 73.12 29.2365 72.946C29.2005 72.766 29.1375 72.613 29.0475 72.487C28.9635 72.355 28.8495 72.253 28.7055 72.181C28.5675 72.109 28.3995 72.073 28.2015 72.073C27.8595 72.073 27.5895 72.187 27.3915 72.415C27.1995 72.643 27.1035 73.012 27.1035 73.522ZM33.1654 73.603L33.3544 74.332H33.4984L33.6334 73.585L34.5154 71.155H35.8744L33.7144 75.925H32.9944L30.7444 71.155H32.2114L33.1654 73.603ZM40.3841 75.448C40.1801 75.604 39.9011 75.739 39.5471 75.853C39.1991 75.961 38.8241 76.015 38.4221 76.015C37.6121 76.015 37.0181 75.793 36.6401 75.349C36.2621 74.905 36.0731 74.296 36.0731 73.522C36.0731 72.7 36.2861 72.079 36.7121 71.659C37.1381 71.233 37.7381 71.02 38.5121 71.02C38.7641 71.02 39.0131 71.053 39.2591 71.119C39.5051 71.179 39.7241 71.284 39.9161 71.434C40.1081 71.578 40.2611 71.776 40.3751 72.028C40.4951 72.274 40.5551 72.58 40.5551 72.946C40.5551 73.072 40.5461 73.21 40.5281 73.36C40.5161 73.51 40.4921 73.666 40.4561 73.828H37.3061C37.3361 74.236 37.4531 74.539 37.6571 74.737C37.8671 74.929 38.2061 75.025 38.6741 75.025C38.9561 75.025 39.2081 74.986 39.4301 74.908C39.6581 74.824 39.8321 74.74 39.9521 74.656L40.3841 75.448ZM38.4941 72.01C38.1221 72.01 37.8461 72.112 37.6661 72.316C37.4861 72.514 37.3811 72.769 37.3511 73.081H39.3851C39.4091 72.751 39.3491 72.49 39.2051 72.298C39.0611 72.106 38.8241 72.01 38.4941 72.01ZM45.6751 75.448C45.4711 75.604 45.1921 75.739 44.8381 75.853C44.4901 75.961 44.1151 76.015 43.7131 76.015C42.9031 76.015 42.3091 75.793 41.9311 75.349C41.5531 74.905 41.3641 74.296 41.3641 73.522C41.3641 72.7 41.5771 72.079 42.0031 71.659C42.4291 71.233 43.0291 71.02 43.8031 71.02C44.0551 71.02 44.3041 71.053 44.5501 71.119C44.7961 71.179 45.0151 71.284 45.2071 71.434C45.3991 71.578 45.5521 71.776 45.6661 72.028C45.7861 72.274 45.8461 72.58 45.8461 72.946C45.8461 73.072 45.8371 73.21 45.8191 73.36C45.8071 73.51 45.7831 73.666 45.7471 73.828H42.5971C42.6271 74.236 42.7441 74.539 42.9481 74.737C43.1581 74.929 43.4971 75.025 43.9651 75.025C44.2471 75.025 44.4991 74.986 44.7211 74.908C44.9491 74.824 45.1231 74.74 45.2431 74.656L45.6751 75.448ZM43.7851 72.01C43.4131 72.01 43.1371 72.112 42.9571 72.316C42.7771 72.514 42.6721 72.769 42.6421 73.081H44.6761C44.7001 72.751 44.6401 72.49 44.4961 72.298C44.3521 72.106 44.1151 72.01 43.7851 72.01ZM51.2799 74.224C51.2799 74.476 51.2829 74.737 51.2889 75.007C51.2949 75.277 51.3219 75.571 51.3699 75.889H50.4969L50.3169 75.232H50.1999C50.0619 75.472 49.8639 75.664 49.6059 75.808C49.3539 75.946 49.0509 76.015 48.6969 76.015C48.0669 76.015 47.5779 75.82 47.2299 75.43C46.8819 75.034 46.7079 74.425 46.7079 73.603C46.7079 73.207 46.7559 72.85 46.8519 72.532C46.9539 72.214 47.1009 71.944 47.2929 71.722C47.4909 71.5 47.7339 71.329 48.0219 71.209C48.3099 71.089 48.6429 71.029 49.0209 71.029C49.2309 71.029 49.4109 71.047 49.5609 71.083C49.7169 71.113 49.8699 71.152 50.0199 71.2V69.58H51.2799V74.224ZM49.0209 74.962C49.3029 74.962 49.5219 74.899 49.6779 74.773C49.8339 74.641 49.9479 74.455 50.0199 74.215V72.325C49.9119 72.241 49.7949 72.181 49.6689 72.145C49.5489 72.103 49.3899 72.082 49.1919 72.082C48.7899 72.082 48.4899 72.199 48.2919 72.433C48.0999 72.667 48.0039 73.069 48.0039 73.639C48.0039 74.035 48.0849 74.356 48.2469 74.602C48.4149 74.842 48.6729 74.962 49.0209 74.962ZM52.3593 73.522C52.3593 72.742 52.5663 72.13 52.9803 71.686C53.3943 71.242 53.9853 71.02 54.7533 71.02C55.1553 71.02 55.5063 71.083 55.8063 71.209C56.1063 71.335 56.3553 71.512 56.5533 71.74C56.7513 71.962 56.8983 72.226 56.9943 72.532C57.0963 72.832 57.1473 73.162 57.1473 73.522C57.1473 73.906 57.0933 74.254 56.9853 74.566C56.8773 74.872 56.7213 75.133 56.5173 75.349C56.3133 75.565 56.0613 75.73 55.7613 75.844C55.4673 75.958 55.1313 76.015 54.7533 76.015C54.3453 76.015 53.9913 75.952 53.6913 75.826C53.3913 75.7 53.1423 75.526 52.9443 75.304C52.7463 75.076 52.5993 74.812 52.5033 74.512C52.4073 74.206 52.3593 73.876 52.3593 73.522ZM53.6553 73.522C53.6553 73.72 53.6763 73.906 53.7183 74.08C53.7603 74.254 53.8233 74.407 53.9073 74.539C53.9973 74.665 54.1113 74.767 54.2493 74.845C54.3873 74.923 54.5553 74.962 54.7533 74.962C55.4853 74.962 55.8513 74.482 55.8513 73.522C55.8513 73.312 55.8303 73.12 55.7883 72.946C55.7523 72.766 55.6893 72.613 55.5993 72.487C55.5153 72.355 55.4013 72.253 55.2573 72.181C55.1193 72.109 54.9513 72.073 54.7533 72.073C54.4113 72.073 54.1413 72.187 53.9433 72.415C53.7513 72.643 53.6553 73.012 53.6553 73.522ZM60.9652 72.307C60.7852 72.247 60.6052 72.217 60.4252 72.217C60.1612 72.217 59.9422 72.28 59.7682 72.406C59.6002 72.532 59.4892 72.691 59.4352 72.883V75.88H58.1752V71.155H59.1652L59.3002 71.812H59.4172C59.5372 71.566 59.6962 71.377 59.8942 71.245C60.0982 71.113 60.3292 71.047 60.5872 71.047C60.7492 71.047 60.9352 71.08 61.1452 71.146L60.9652 72.307ZM65.8724 75.448C65.6684 75.604 65.3894 75.739 65.0354 75.853C64.6874 75.961 64.3124 76.015 63.9104 76.015C63.1004 76.015 62.5064 75.793 62.1284 75.349C61.7504 74.905 61.5614 74.296 61.5614 73.522C61.5614 72.7 61.7744 72.079 62.2004 71.659C62.6264 71.233 63.2264 71.02 64.0004 71.02C64.2524 71.02 64.5014 71.053 64.7474 71.119C64.9934 71.179 65.2124 71.284 65.4044 71.434C65.5964 71.578 65.7494 71.776 65.8634 72.028C65.9834 72.274 66.0434 72.58 66.0434 72.946C66.0434 73.072 66.0344 73.21 66.0164 73.36C66.0044 73.51 65.9804 73.666 65.9444 73.828H62.7944C62.8244 74.236 62.9414 74.539 63.1454 74.737C63.3554 74.929 63.6944 75.025 64.1624 75.025C64.4444 75.025 64.6964 74.986 64.9184 74.908C65.1464 74.824 65.3204 74.74 65.4404 74.656L65.8724 75.448ZM63.9824 72.01C63.6104 72.01 63.3344 72.112 63.1544 72.316C62.9744 72.514 62.8694 72.769 62.8394 73.081H64.8734C64.8974 72.751 64.8374 72.49 64.6934 72.298C64.5494 72.106 64.3124 72.01 63.9824 72.01ZM67.1662 74.656C67.2502 74.698 67.3462 74.74 67.4542 74.782C67.5682 74.824 67.6882 74.863 67.8142 74.899C67.9462 74.935 68.0782 74.965 68.2102 74.989C68.3482 75.013 68.4862 75.025 68.6242 75.025C68.8342 75.025 68.9962 74.992 69.1102 74.926C69.2302 74.86 69.2902 74.737 69.2902 74.557C69.2902 74.413 69.2122 74.308 69.0562 74.242C68.9002 74.17 68.7082 74.101 68.4802 74.035C68.3122 73.987 68.1352 73.93 67.9492 73.864C67.7692 73.798 67.6012 73.711 67.4452 73.603C67.2952 73.489 67.1692 73.342 67.0672 73.162C66.9712 72.982 66.9232 72.754 66.9232 72.478C66.9232 72.004 67.0702 71.644 67.3642 71.398C67.6582 71.146 68.0812 71.02 68.6332 71.02C68.9932 71.02 69.3292 71.053 69.6412 71.119C69.9592 71.179 70.2142 71.251 70.4062 71.335L70.1452 72.289C69.9892 72.229 69.7882 72.169 69.5422 72.109C69.3022 72.043 69.0562 72.01 68.8042 72.01C68.5942 72.01 68.4382 72.043 68.3362 72.109C68.2342 72.169 68.1832 72.277 68.1832 72.433C68.1832 72.571 68.2612 72.676 68.4172 72.748C68.5792 72.814 68.7742 72.88 69.0022 72.946C69.1702 72.994 69.3442 73.051 69.5242 73.117C69.7102 73.177 69.8782 73.261 70.0282 73.369C70.1782 73.477 70.3012 73.618 70.3972 73.792C70.4992 73.96 70.5502 74.173 70.5502 74.431C70.5502 74.935 70.3852 75.325 70.0552 75.601C69.7312 75.877 69.2422 76.015 68.5882 76.015C68.2342 76.015 67.9042 75.982 67.5982 75.916C67.2922 75.856 67.0432 75.766 66.8512 75.646L67.1662 74.656Z" fill="white"/>
<path d="M73.6273 27.9842C73.7712 27.6883 73.855 27.3677 73.855 27.03V8.22C73.855 6.80583 72.4619 5.655 70.75 5.655H45.91C44.1981 5.655 42.805 6.80583 42.805 8.22V27.03C42.805 27.3677 42.8888 27.6883 43.0327 27.9842C41.7131 28.2792 40.735 29.2675 40.735 30.45V34.725H38.665V38.145H36.595V40.9195L29.6088 42.5688C29.2123 41.9831 28.7849 41.4128 28.315 40.8665V34.6917C29.3717 34.6104 30.3571 34.2488 31.1178 33.6203C31.9799 32.9073 32.455 31.9591 32.455 30.951V29.3565L35.56 28.5015V27.885C35.56 26.1169 34.3139 23.7382 33.2695 22.0548C33.1671 21.8897 33.047 21.7367 32.9176 21.5905C35.0632 20.9159 36.595 19.2042 36.595 17.1975C36.595 14.6043 34.0417 12.495 30.9025 12.495H25.5836C17.9588 12.495 11.755 17.6199 11.755 23.9187C11.755 28.274 14.6841 32.1891 19.3985 34.1368L20.035 34.3992V35.8425L19.4161 36.034C14.9035 37.4328 11.8554 41.0144 11.7633 44.985H11.755V58.665H32.455V53.7667L36.595 52.5415V58.665H50.05C51.7619 58.665 53.155 57.5142 53.155 56.1V43.275H55.4154C55.2995 43.5435 55.225 43.829 55.225 44.13V54.39C55.225 55.8042 56.6181 56.955 58.33 56.955H70.75C72.4619 56.955 73.855 55.8042 73.855 54.39V44.13C73.855 43.7923 73.7712 43.4716 73.6273 43.1758C74.9469 42.88 75.925 41.8925 75.925 40.71V30.45C75.925 29.2675 74.9469 28.2792 73.6273 27.9842V27.9842ZM55.225 7.365H61.435V10.785H55.225V7.365ZM44.875 8.22C44.875 7.74889 45.3397 7.365 45.91 7.365H53.155V12.495H63.505V7.365H70.75C71.3203 7.365 71.785 7.74889 71.785 8.22V27.03C71.785 27.5011 71.3203 27.885 70.75 27.885H60.4H56.26H45.91C45.3397 27.885 44.875 27.5011 44.875 27.03V8.22ZM65.575 29.595H67.645V31.305H65.575V29.595ZM49.015 29.595H51.085V31.305H49.015V29.595ZM40.735 36.435H50.05C50.6203 36.435 51.085 36.818 51.085 37.29C51.085 37.762 50.6203 38.145 50.05 38.145H40.735V36.435ZM23.6823 50.0209L38.4394 46.5377L39.1846 44.6926C39.3719 44.2275 39.819 43.8581 40.3821 43.7034C41.0652 43.5161 41.8073 43.6598 42.3186 44.0813L43.4115 44.985H45.0375C46.0891 44.985 46.945 45.6921 46.945 46.5616C46.945 47.2653 46.3716 47.8894 45.4815 48.0972L28.6917 53.0648C27.636 53.376 26.5317 53.535 25.4087 53.535H24.0198C22.7012 53.535 21.4095 53.3059 20.213 52.8861L23.6823 50.0209ZM36.595 42.6987V45.1953L31.539 46.3881C31.2658 45.6151 30.9418 44.8585 30.5506 44.1257L36.595 42.6987ZM33.432 27.2848L30.385 28.1244V30.9519C30.385 31.5034 30.1252 32.0215 29.6522 32.4122C29.1813 32.8021 28.5541 33.0167 27.8865 33.0167L24.175 33.015V34.725L26.245 34.7259V38.8016C25.0113 37.7312 23.6254 36.7821 22.105 35.981V29.241L20.3383 27.7815C20.1426 27.6199 20.035 27.4045 20.035 27.1762V27.03C20.035 26.5589 20.4997 26.175 21.07 26.175H22.105V23.61C22.105 22.6669 23.0334 21.9 24.175 21.9H29.35H29.5808C30.3622 21.9 31.0691 22.2582 31.4272 22.8345C32.5399 24.6274 33.2333 26.175 33.432 27.2848ZM13.825 23.9187C13.825 18.5629 19.1004 14.205 25.5836 14.205H30.9025C32.9001 14.205 34.525 15.5473 34.525 17.1975C34.525 18.8476 32.9001 20.19 30.9025 20.19H29.5808H29.35H24.175C21.8918 20.19 20.035 21.7239 20.035 23.61V24.6112C18.8303 24.9643 17.965 25.9151 17.965 27.03V27.1762C17.965 27.8611 18.2879 28.5057 18.8748 28.9905L20.035 29.949V32.4652C16.2024 30.7689 13.825 27.5276 13.825 23.9187V23.9187ZM20.1437 37.6354L20.9365 37.3892C25.093 39.5643 28.1732 42.9612 29.5518 46.8574L23.8086 48.2126L23.4008 47.2029C22.4434 44.8311 20.1178 43.0518 17.1805 42.4456L16.6785 44.1044C18.9255 44.5686 20.7046 45.9298 21.4374 47.7449L21.956 49.03L18.3355 52.0208C18.112 51.8883 17.8936 51.748 17.6835 51.5993L17.226 51.2752C15.0649 49.7439 13.825 47.5184 13.825 45.1671C13.825 41.8326 16.3639 38.8059 20.1437 37.6354V37.6354ZM30.385 56.955H13.825V50.6605C14.4036 51.3599 15.0825 52.0088 15.8784 52.5723L16.3359 52.8963C18.4742 54.4105 21.2025 55.245 24.0198 55.245H25.4087C26.7697 55.245 28.109 55.0526 29.3904 54.6739L30.385 54.3797V56.955ZM50.05 56.955H38.665V51.9285L46.1098 49.7251C47.8206 49.3293 49.015 48.0288 49.015 46.5616C49.015 44.7499 47.2307 43.275 45.0375 43.275H44.2685L43.781 42.8723C42.7129 41.9891 41.1593 41.6856 39.7269 42.0806C39.3388 42.1874 38.99 42.3584 38.665 42.5542V39.855H50.05C50.4143 39.855 50.76 39.7934 51.085 39.6977V56.1C51.085 56.572 50.6203 56.955 50.05 56.955ZM53.155 37.29C53.155 35.8758 51.7619 34.725 50.05 34.725H42.805V30.45C42.805 29.9789 43.2697 29.595 43.84 29.595H45.91H46.945V33.015H53.155V29.595H56.26C56.8303 29.595 57.295 29.9789 57.295 30.45V40.71C57.295 41.182 56.8303 41.565 56.26 41.565H53.155V37.29ZM71.785 54.39C71.785 54.862 71.3203 55.245 70.75 55.245H58.33C57.7597 55.245 57.295 54.862 57.295 54.39V44.13C57.295 43.658 57.7597 43.275 58.33 43.275H60.4H61.435V46.695H67.645V43.275H70.75C71.3203 43.275 71.785 43.658 71.785 44.13V54.39ZM63.505 43.275H65.575V44.985H63.505V43.275ZM73.855 40.71C73.855 41.182 73.3903 41.565 72.82 41.565H70.75H60.4C59.8297 41.565 59.365 41.182 59.365 40.71V30.45C59.365 29.9789 59.8297 29.595 60.4 29.595H63.505V33.015H69.715V29.595H70.75H72.82C73.3903 29.595 73.855 29.9789 73.855 30.45V40.71Z" fill="white"/>
<path d="M63.505 24.465H65.575V26.175H63.505V24.465Z" fill="white"/>
<path d="M67.645 24.465H69.715V26.175H67.645V24.465Z" fill="white"/>
<path d="M59.365 24.465H61.435V26.175H59.365V24.465Z" fill="white"/>
<path d="M59.365 21.045H69.715V22.755H59.365V21.045Z" fill="white"/>
<defs>
<filter id="filter0_d" x="0" y="0" width="88" height="88" filterUnits="userSpaceOnUse" color-interpolation-filters="sRGB">
<feFlood flood-opacity="0" result="BackgroundImageFix"/>
<feColorMatrix in="SourceAlpha" type="matrix" values="0 0 0 0 0 0 0 0 0 0 0 0 0 0 0 0 0 0 127 0"/>
<feOffset dy="4"/>
<feGaussianBlur stdDeviation="2"/>
<feColorMatrix type="matrix" values="0 0 0 0 0 0 0 0 0 0 0 0 0 0 0 0 0 0 0.25 0"/>
<feBlend mode="normal" in2="BackgroundImageFix" result="effect1_dropShadow"/>
<feBlend mode="normal" in="SourceGraphic" in2="effect1_dropShadow" result="shape"/>
</filter>
</defs>
</svg>
