<svg width="88" height="88" viewBox="0 0 88 88" fill="none" xmlns="http://www.w3.org/2000/svg">
<g filter="url(#filter0_d)">
<path d="M64 0H24C12.9543 0 4 8.9543 4 20V60C4 71.0457 12.9543 80 24 80H64C75.0457 80 84 71.0457 84 60V20C84 8.9543 75.0457 0 64 0Z" fill="#DA3E52"/>
</g>
<path d="M18.2456 56.763C18.3896 56.739 18.5456 56.718 18.7136 56.7C18.8876 56.676 19.0616 56.658 19.2356 56.646C19.4096 56.634 19.5776 56.625 19.7396 56.619C19.9076 56.613 20.0606 56.61 20.1986 56.61C20.5166 56.61 20.8286 56.637 21.1346 56.691C21.4466 56.745 21.7226 56.838 21.9626 56.97C22.2086 57.102 22.4066 57.285 22.5566 57.519C22.7066 57.747 22.7816 58.035 22.7816 58.383C22.7816 58.899 22.6526 59.325 22.3946 59.661C22.1426 59.991 21.7916 60.216 21.3416 60.336L21.8186 60.615L23.3936 63H21.8456L20.2796 60.561L19.5776 60.453V63H18.2456V56.763ZM20.2886 57.78C20.1506 57.78 20.0156 57.783 19.8836 57.789C19.7576 57.789 19.6556 57.798 19.5776 57.816V59.553H20.1446C20.5226 59.553 20.8196 59.481 21.0356 59.337C21.2576 59.193 21.3686 58.944 21.3686 58.59C21.3686 58.326 21.2756 58.125 21.0896 57.987C20.9036 57.849 20.6366 57.78 20.2886 57.78ZM27.7549 62.568C27.5509 62.724 27.2719 62.859 26.9179 62.973C26.5699 63.081 26.1949 63.135 25.7929 63.135C24.9829 63.135 24.3889 62.913 24.0109 62.469C23.6329 62.025 23.4439 61.416 23.4439 60.642C23.4439 59.82 23.6569 59.199 24.0829 58.779C24.5089 58.353 25.1089 58.14 25.8829 58.14C26.1349 58.14 26.3839 58.173 26.6299 58.239C26.8759 58.299 27.0949 58.404 27.2869 58.554C27.4789 58.698 27.6319 58.896 27.7459 59.148C27.8659 59.394 27.9259 59.7 27.9259 60.066C27.9259 60.192 27.9169 60.33 27.8989 60.48C27.8869 60.63 27.8629 60.786 27.8269 60.948H24.6769C24.7069 61.356 24.8239 61.659 25.0279 61.857C25.2379 62.049 25.5769 62.145 26.0449 62.145C26.3269 62.145 26.5789 62.106 26.8009 62.028C27.0289 61.944 27.2029 61.86 27.3229 61.776L27.7549 62.568ZM25.8649 59.13C25.4929 59.13 25.2169 59.232 25.0369 59.436C24.8569 59.634 24.7519 59.889 24.7219 60.201H26.7559C26.7799 59.871 26.7199 59.61 26.5759 59.418C26.4319 59.226 26.1949 59.13 25.8649 59.13ZM33.2799 62.82C33.2799 63.516 33.0819 64.029 32.6859 64.359C32.2899 64.689 31.7289 64.854 31.0029 64.854C30.5349 64.854 30.1569 64.821 29.8689 64.755C29.5869 64.695 29.3679 64.626 29.2119 64.548C29.2899 64.308 29.3469 64.116 29.3829 63.972C29.4249 63.834 29.4549 63.729 29.4729 63.657C29.4909 63.585 29.5029 63.54 29.5089 63.522C29.5149 63.504 29.5179 63.495 29.5179 63.495C29.6619 63.567 29.8359 63.639 30.0399 63.711C30.2439 63.789 30.4929 63.828 30.7869 63.828C31.0329 63.828 31.2369 63.804 31.3989 63.756C31.5609 63.708 31.6899 63.636 31.7859 63.54C31.8819 63.45 31.9479 63.339 31.9839 63.207C32.0259 63.075 32.0469 62.928 32.0469 62.766V62.415H31.9389C31.8189 62.589 31.6539 62.712 31.4439 62.784C31.2339 62.856 30.9729 62.892 30.6609 62.892C30.0189 62.892 29.5359 62.715 29.2119 62.361C28.8939 62.007 28.7349 61.437 28.7349 60.651C28.7349 59.823 28.9449 59.199 29.3649 58.779C29.7909 58.359 30.4209 58.149 31.2549 58.149C31.6929 58.149 32.0829 58.179 32.4249 58.239C32.7729 58.293 33.0579 58.356 33.2799 58.428V62.82ZM30.9579 61.911C31.2339 61.911 31.4589 61.86 31.6329 61.758C31.8129 61.656 31.9419 61.53 32.0199 61.38V59.346C31.7979 59.25 31.5159 59.202 31.1739 59.202C30.8079 59.202 30.5259 59.31 30.3279 59.526C30.1299 59.742 30.0309 60.099 30.0309 60.597C30.0309 61.053 30.1149 61.386 30.2829 61.596C30.4509 61.806 30.6759 61.911 30.9579 61.911ZM34.7301 58.275H35.9901V63H34.7301V58.275ZM34.5411 57.096C34.5411 56.904 34.6101 56.745 34.7481 56.619C34.8861 56.487 35.0811 56.421 35.3331 56.421C35.5911 56.421 35.7951 56.487 35.9451 56.619C36.0951 56.751 36.1701 56.91 36.1701 57.096C36.1701 57.27 36.0951 57.42 35.9451 57.546C35.7951 57.672 35.5911 57.735 35.3331 57.735C35.0811 57.735 34.8861 57.672 34.7481 57.546C34.6101 57.42 34.5411 57.27 34.5411 57.096ZM37.4246 61.776C37.5086 61.818 37.6046 61.86 37.7126 61.902C37.8266 61.944 37.9466 61.983 38.0726 62.019C38.2046 62.055 38.3366 62.085 38.4686 62.109C38.6066 62.133 38.7446 62.145 38.8826 62.145C39.0926 62.145 39.2546 62.112 39.3686 62.046C39.4886 61.98 39.5486 61.857 39.5486 61.677C39.5486 61.533 39.4706 61.428 39.3146 61.362C39.1586 61.29 38.9666 61.221 38.7386 61.155C38.5706 61.107 38.3936 61.05 38.2076 60.984C38.0276 60.918 37.8596 60.831 37.7036 60.723C37.5536 60.609 37.4276 60.462 37.3256 60.282C37.2296 60.102 37.1816 59.874 37.1816 59.598C37.1816 59.124 37.3286 58.764 37.6226 58.518C37.9166 58.266 38.3396 58.14 38.8916 58.14C39.2516 58.14 39.5876 58.173 39.8996 58.239C40.2176 58.299 40.4726 58.371 40.6646 58.455L40.4036 59.409C40.2476 59.349 40.0466 59.289 39.8006 59.229C39.5606 59.163 39.3146 59.13 39.0626 59.13C38.8526 59.13 38.6966 59.163 38.5946 59.229C38.4926 59.289 38.4416 59.397 38.4416 59.553C38.4416 59.691 38.5196 59.796 38.6756 59.868C38.8376 59.934 39.0326 60 39.2606 60.066C39.4286 60.114 39.6026 60.171 39.7826 60.237C39.9686 60.297 40.1366 60.381 40.2866 60.489C40.4366 60.597 40.5596 60.738 40.6556 60.912C40.7576 61.08 40.8086 61.293 40.8086 61.551C40.8086 62.055 40.6436 62.445 40.3136 62.721C39.9896 62.997 39.5006 63.135 38.8466 63.135C38.4926 63.135 38.1626 63.102 37.8566 63.036C37.5506 62.976 37.3016 62.886 37.1096 62.766L37.4246 61.776ZM41.2082 58.275H41.9282V57.627L43.1882 57.294V58.275H44.4572V59.328H43.1882V60.966C43.1882 61.344 43.2242 61.617 43.2962 61.785C43.3742 61.947 43.5242 62.028 43.7462 62.028C43.8842 62.028 44.0012 62.019 44.0972 62.001C44.1932 61.977 44.2952 61.941 44.4032 61.893L44.6642 62.838C44.4722 62.922 44.2502 62.994 43.9982 63.054C43.7522 63.114 43.5122 63.144 43.2782 63.144C42.8102 63.144 42.4682 63.03 42.2522 62.802C42.0362 62.568 41.9282 62.196 41.9282 61.686V59.328H41.2082V58.275ZM48.2128 59.427C48.0328 59.367 47.8528 59.337 47.6728 59.337C47.4088 59.337 47.1898 59.4 47.0158 59.526C46.8478 59.652 46.7368 59.811 46.6828 60.003V63H45.4228V58.275H46.4128L46.5478 58.932H46.6648C46.7848 58.686 46.9438 58.497 47.1418 58.365C47.3458 58.233 47.5768 58.167 47.8348 58.167C47.9968 58.167 48.1828 58.2 48.3928 58.266L48.2128 59.427ZM48.8091 60.642C48.8091 59.862 49.0161 59.25 49.4301 58.806C49.8441 58.362 50.4351 58.14 51.2031 58.14C51.6051 58.14 51.9561 58.203 52.2561 58.329C52.5561 58.455 52.8051 58.632 53.0031 58.86C53.2011 59.082 53.3481 59.346 53.4441 59.652C53.5461 59.952 53.5971 60.282 53.5971 60.642C53.5971 61.026 53.5431 61.374 53.4351 61.686C53.3271 61.992 53.1711 62.253 52.9671 62.469C52.7631 62.685 52.5111 62.85 52.2111 62.964C51.9171 63.078 51.5811 63.135 51.2031 63.135C50.7951 63.135 50.4411 63.072 50.1411 62.946C49.8411 62.82 49.5921 62.646 49.3941 62.424C49.1961 62.196 49.0491 61.932 48.9531 61.632C48.8571 61.326 48.8091 60.996 48.8091 60.642ZM50.1051 60.642C50.1051 60.84 50.1261 61.026 50.1681 61.2C50.2101 61.374 50.2731 61.527 50.3571 61.659C50.4471 61.785 50.5611 61.887 50.6991 61.965C50.8371 62.043 51.0051 62.082 51.2031 62.082C51.9351 62.082 52.3011 61.602 52.3011 60.642C52.3011 60.432 52.2801 60.24 52.2381 60.066C52.2021 59.886 52.1391 59.733 52.0491 59.607C51.9651 59.475 51.8511 59.373 51.7071 59.301C51.5691 59.229 51.4011 59.193 51.2031 59.193C50.8611 59.193 50.5911 59.307 50.3931 59.535C50.2011 59.763 50.1051 60.132 50.1051 60.642ZM61.4143 61.344C61.4143 61.596 61.4173 61.857 61.4233 62.127C61.4293 62.397 61.4563 62.691 61.5043 63.009H60.6313L60.4513 62.352H60.3343C60.1963 62.592 59.9983 62.784 59.7403 62.928C59.4883 63.066 59.1853 63.135 58.8313 63.135C58.2013 63.135 57.7123 62.94 57.3643 62.55C57.0163 62.154 56.8423 61.545 56.8423 60.723C56.8423 60.327 56.8903 59.97 56.9863 59.652C57.0883 59.334 57.2353 59.064 57.4273 58.842C57.6253 58.62 57.8683 58.449 58.1563 58.329C58.4443 58.209 58.7773 58.149 59.1553 58.149C59.3653 58.149 59.5453 58.167 59.6953 58.203C59.8513 58.233 60.0043 58.272 60.1543 58.32V56.7H61.4143V61.344ZM59.1553 62.082C59.4373 62.082 59.6563 62.019 59.8123 61.893C59.9683 61.761 60.0823 61.575 60.1543 61.335V59.445C60.0463 59.361 59.9293 59.301 59.8033 59.265C59.6833 59.223 59.5243 59.202 59.3263 59.202C58.9243 59.202 58.6243 59.319 58.4263 59.553C58.2343 59.787 58.1383 60.189 58.1383 60.759C58.1383 61.155 58.2193 61.476 58.3813 61.722C58.5493 61.962 58.8073 62.082 59.1553 62.082ZM66.8047 62.568C66.6007 62.724 66.3217 62.859 65.9677 62.973C65.6197 63.081 65.2447 63.135 64.8427 63.135C64.0327 63.135 63.4387 62.913 63.0607 62.469C62.6827 62.025 62.4937 61.416 62.4937 60.642C62.4937 59.82 62.7067 59.199 63.1327 58.779C63.5587 58.353 64.1587 58.14 64.9327 58.14C65.1847 58.14 65.4337 58.173 65.6797 58.239C65.9257 58.299 66.1447 58.404 66.3367 58.554C66.5287 58.698 66.6817 58.896 66.7957 59.148C66.9157 59.394 66.9757 59.7 66.9757 60.066C66.9757 60.192 66.9667 60.33 66.9487 60.48C66.9367 60.63 66.9127 60.786 66.8767 60.948H63.7267C63.7567 61.356 63.8737 61.659 64.0777 61.857C64.2877 62.049 64.6267 62.145 65.0947 62.145C65.3767 62.145 65.6287 62.106 65.8507 62.028C66.0787 61.944 66.2527 61.86 66.3727 61.776L66.8047 62.568ZM64.9147 59.13C64.5427 59.13 64.2667 59.232 64.0867 59.436C63.9067 59.634 63.8017 59.889 63.7717 60.201H65.8057C65.8297 59.871 65.7697 59.61 65.6257 59.418C65.4817 59.226 65.2447 59.13 64.9147 59.13ZM30.7841 72.723L30.9731 73.452H31.1171L31.2521 72.705L32.1341 70.275H33.4931L31.3331 75.045H30.6131L28.3631 70.275H29.8301L30.7841 72.723ZM34.1852 70.275H35.4452V75H34.1852V70.275ZM33.9962 69.096C33.9962 68.904 34.0652 68.745 34.2032 68.619C34.3412 68.487 34.5362 68.421 34.7882 68.421C35.0462 68.421 35.2502 68.487 35.4002 68.619C35.5502 68.751 35.6252 68.91 35.6252 69.096C35.6252 69.27 35.5502 69.42 35.4002 69.546C35.2502 69.672 35.0462 69.735 34.7882 69.735C34.5362 69.735 34.3412 69.672 34.2032 69.546C34.0652 69.42 33.9962 69.27 33.9962 69.096ZM36.8797 73.776C36.9637 73.818 37.0597 73.86 37.1677 73.902C37.2817 73.944 37.4017 73.983 37.5277 74.019C37.6597 74.055 37.7917 74.085 37.9237 74.109C38.0617 74.133 38.1997 74.145 38.3377 74.145C38.5477 74.145 38.7097 74.112 38.8237 74.046C38.9437 73.98 39.0037 73.857 39.0037 73.677C39.0037 73.533 38.9257 73.428 38.7697 73.362C38.6137 73.29 38.4217 73.221 38.1937 73.155C38.0257 73.107 37.8487 73.05 37.6627 72.984C37.4827 72.918 37.3147 72.831 37.1587 72.723C37.0087 72.609 36.8827 72.462 36.7807 72.282C36.6847 72.102 36.6367 71.874 36.6367 71.598C36.6367 71.124 36.7837 70.764 37.0777 70.518C37.3717 70.266 37.7947 70.14 38.3467 70.14C38.7067 70.14 39.0427 70.173 39.3547 70.239C39.6727 70.299 39.9277 70.371 40.1197 70.455L39.8587 71.409C39.7027 71.349 39.5017 71.289 39.2557 71.229C39.0157 71.163 38.7697 71.13 38.5177 71.13C38.3077 71.13 38.1517 71.163 38.0497 71.229C37.9477 71.289 37.8967 71.397 37.8967 71.553C37.8967 71.691 37.9747 71.796 38.1307 71.868C38.2927 71.934 38.4877 72 38.7157 72.066C38.8837 72.114 39.0577 72.171 39.2377 72.237C39.4237 72.297 39.5917 72.381 39.7417 72.489C39.8917 72.597 40.0147 72.738 40.1107 72.912C40.2127 73.08 40.2637 73.293 40.2637 73.551C40.2637 74.055 40.0987 74.445 39.7687 74.721C39.4447 74.997 38.9557 75.135 38.3017 75.135C37.9477 75.135 37.6177 75.102 37.3117 75.036C37.0057 74.976 36.7567 74.886 36.5647 74.766L36.8797 73.776ZM41.3922 70.275H42.6522V75H41.3922V70.275ZM41.2032 69.096C41.2032 68.904 41.2722 68.745 41.4102 68.619C41.5482 68.487 41.7432 68.421 41.9952 68.421C42.2532 68.421 42.4572 68.487 42.6072 68.619C42.7572 68.751 42.8322 68.91 42.8322 69.096C42.8322 69.27 42.7572 69.42 42.6072 69.546C42.4572 69.672 42.2532 69.735 41.9952 69.735C41.7432 69.735 41.5482 69.672 41.4102 69.546C41.2722 69.42 41.2032 69.27 41.2032 69.096ZM43.5197 70.275H44.2397V69.627L45.4997 69.294V70.275H46.7687V71.328H45.4997V72.966C45.4997 73.344 45.5357 73.617 45.6077 73.785C45.6857 73.947 45.8357 74.028 46.0577 74.028C46.1957 74.028 46.3127 74.019 46.4087 74.001C46.5047 73.977 46.6067 73.941 46.7147 73.893L46.9757 74.838C46.7837 74.922 46.5617 74.994 46.3097 75.054C46.0637 75.114 45.8237 75.144 45.5897 75.144C45.1217 75.144 44.7797 75.03 44.5637 74.802C44.3477 74.568 44.2397 74.196 44.2397 73.686V71.328H43.5197V70.275ZM47.6894 70.599C47.9594 70.479 48.2894 70.38 48.6794 70.302C49.0754 70.224 49.4834 70.185 49.9034 70.185C50.2334 70.185 50.5094 70.224 50.7314 70.302C50.9594 70.38 51.1394 70.494 51.2714 70.644C51.4034 70.788 51.4964 70.965 51.5504 71.175C51.6104 71.379 51.6404 71.607 51.6404 71.859C51.6404 72.165 51.6284 72.468 51.6044 72.768C51.5804 73.068 51.5684 73.386 51.5684 73.722C51.5684 73.95 51.5834 74.172 51.6134 74.388C51.6434 74.604 51.6914 74.811 51.7574 75.009H50.7314L50.5244 74.307H50.4164C50.2604 74.517 50.0624 74.697 49.8224 74.847C49.5824 74.997 49.2734 75.072 48.8954 75.072C48.6674 75.072 48.4574 75.039 48.2654 74.973C48.0794 74.907 47.9174 74.814 47.7794 74.694C47.6474 74.568 47.5424 74.421 47.4644 74.253C47.3924 74.085 47.3564 73.902 47.3564 73.704C47.3564 73.17 47.5334 72.768 47.8874 72.498C48.2474 72.222 48.7904 72.084 49.5164 72.084C49.6844 72.084 49.8524 72.099 50.0204 72.129C50.1884 72.153 50.3054 72.171 50.3714 72.183C50.3894 72.057 50.3984 71.949 50.3984 71.859C50.3984 71.631 50.3414 71.463 50.2274 71.355C50.1134 71.247 49.9004 71.193 49.5884 71.193C49.3004 71.193 49.0184 71.229 48.7424 71.301C48.4724 71.367 48.2324 71.451 48.0224 71.553L47.6894 70.599ZM49.3364 74.064C49.6184 74.064 49.8434 73.998 50.0114 73.866C50.1794 73.734 50.3024 73.596 50.3804 73.452V72.912C50.3504 72.9 50.3024 72.888 50.2364 72.876C50.1764 72.864 50.1074 72.852 50.0294 72.84C49.9574 72.828 49.8824 72.819 49.8044 72.813C49.7324 72.807 49.6664 72.804 49.6064 72.804C49.2824 72.804 49.0424 72.864 48.8864 72.984C48.7304 73.098 48.6524 73.242 48.6524 73.416C48.6524 73.632 48.7124 73.794 48.8324 73.902C48.9584 74.01 49.1264 74.064 49.3364 74.064ZM52.9373 73.776C53.0213 73.818 53.1173 73.86 53.2253 73.902C53.3393 73.944 53.4593 73.983 53.5853 74.019C53.7173 74.055 53.8493 74.085 53.9813 74.109C54.1193 74.133 54.2573 74.145 54.3953 74.145C54.6053 74.145 54.7673 74.112 54.8813 74.046C55.0013 73.98 55.0613 73.857 55.0613 73.677C55.0613 73.533 54.9833 73.428 54.8273 73.362C54.6713 73.29 54.4793 73.221 54.2513 73.155C54.0833 73.107 53.9063 73.05 53.7203 72.984C53.5403 72.918 53.3723 72.831 53.2163 72.723C53.0663 72.609 52.9403 72.462 52.8383 72.282C52.7423 72.102 52.6943 71.874 52.6943 71.598C52.6943 71.124 52.8413 70.764 53.1353 70.518C53.4293 70.266 53.8523 70.14 54.4043 70.14C54.7643 70.14 55.1003 70.173 55.4123 70.239C55.7303 70.299 55.9853 70.371 56.1773 70.455L55.9163 71.409C55.7603 71.349 55.5593 71.289 55.3133 71.229C55.0733 71.163 54.8273 71.13 54.5753 71.13C54.3653 71.13 54.2093 71.163 54.1073 71.229C54.0053 71.289 53.9543 71.397 53.9543 71.553C53.9543 71.691 54.0323 71.796 54.1883 71.868C54.3503 71.934 54.5453 72 54.7733 72.066C54.9413 72.114 55.1153 72.171 55.2953 72.237C55.4813 72.297 55.6493 72.381 55.7993 72.489C55.9493 72.597 56.0723 72.738 56.1683 72.912C56.2703 73.08 56.3213 73.293 56.3213 73.551C56.3213 74.055 56.1563 74.445 55.8263 74.721C55.5023 74.997 55.0133 75.135 54.3593 75.135C54.0053 75.135 53.6753 75.102 53.3693 75.036C53.0633 74.976 52.8143 74.886 52.6223 74.766L52.9373 73.776Z" fill="white"/>
<g clip-path="url(#clip0)">
<path d="M56.6562 41.3906C56.6563 42.1478 56.9403 42.8879 57.4726 43.5174C58.0048 44.1469 58.7613 44.6376 59.6464 44.9274C60.5315 45.2171 61.5054 45.2929 62.445 45.1452C63.3846 44.9975 64.2476 44.6329 64.925 44.0975C65.6025 43.5621 66.0638 42.88 66.2507 42.1375C66.4376 41.3949 66.3417 40.6252 65.975 39.9257C65.6084 39.2262 64.9876 38.6283 64.191 38.2077C63.3945 37.787 62.458 37.5625 61.5 37.5625C60.2158 37.5637 58.9847 37.9674 58.0767 38.6851C57.1686 39.4027 56.6578 40.3757 56.6562 41.3906V41.3906ZM64.4063 41.3906C64.4063 41.8449 64.2358 42.289 63.9165 42.6667C63.5971 43.0444 63.1432 43.3388 62.6122 43.5127C62.0811 43.6865 61.4968 43.732 60.933 43.6434C60.3693 43.5547 59.8514 43.336 59.445 43.0148C59.0385 42.6935 58.7617 42.2843 58.6496 41.8387C58.5375 41.3932 58.595 40.9313 58.815 40.5117C59.0349 40.092 59.4074 39.7332 59.8854 39.4808C60.3633 39.2285 60.9252 39.0938 61.5 39.0938C62.2708 39.0938 63.01 39.3357 63.555 39.7665C64.1001 40.1972 64.4063 40.7815 64.4063 41.3906Z" fill="white"/>
<path d="M65.223 48.4244C68.168 45.4232 72.508 40.4849 72.508 37.4683C72.5026 35.502 71.6284 33.599 70.0365 32.0879C68.4447 30.5768 66.235 29.5525 63.7893 29.1919V12.2027H65.7268C65.9837 12.2027 66.2301 12.122 66.4118 11.9785C66.5934 11.8349 66.6955 11.6401 66.6955 11.4371V8.37457C66.6955 8.17152 66.5934 7.97678 66.4118 7.83319C66.2301 7.68961 65.9837 7.60895 65.7268 7.60895H21.1643C20.9073 7.60895 20.6609 7.68961 20.4793 7.83319C20.2976 7.97678 20.1955 8.17152 20.1955 8.37457V11.4371C20.1955 11.6401 20.2976 11.8349 20.4793 11.9785C20.6609 12.122 20.9073 12.2027 21.1643 12.2027H23.1018V42.8277H21.1643C20.9073 42.8277 20.6609 42.9084 20.4793 43.0519C20.2976 43.1955 20.1955 43.3903 20.1955 43.5933V45.8902C20.1955 46.0933 20.2976 46.288 20.4793 46.4316C20.6609 46.5752 20.9073 46.6558 21.1643 46.6558H56.8046C57.3858 47.2913 57.9574 47.8885 58.4805 48.4244C56.1458 48.7766 54.1018 49.5422 54.1018 50.8668C54.1018 52.7043 58.1221 53.5464 61.8518 53.5464C65.5814 53.5464 69.6018 52.7043 69.6018 50.8668C69.6018 49.5422 67.5577 48.7766 65.223 48.4244ZM22.133 10.6714V9.1402H64.758V10.6714H22.133ZM58.9455 22.9214H53.133C52.8761 22.9214 52.6297 23.0021 52.448 23.1457C52.2663 23.2893 52.1643 23.484 52.1643 23.6871V29.0464H51.1955V30.5777H55.7486C54.3437 31.3516 53.196 32.3822 52.4033 33.5819C51.6106 34.7816 51.1962 36.1149 51.1955 37.4683C51.1955 38.946 52.2418 40.883 53.6464 42.8277H49.258V38.9996C49.258 37.7812 48.6456 36.6128 47.5556 35.7513C46.4655 34.8898 44.9871 34.4058 43.4455 34.4058C41.9039 34.4058 40.4255 34.8898 39.3355 35.7513C38.2454 36.6128 37.633 37.7812 37.633 38.9996V42.8277H25.0393V12.2027H61.8518V29.0464C61.2017 29.0482 60.5531 29.0969 59.9143 29.1919V23.6871C59.9143 23.484 59.8122 23.2893 59.6305 23.1457C59.4488 23.0021 59.2024 22.9214 58.9455 22.9214ZM57.9768 24.4527V29.0464H54.1018V24.4527H57.9768ZM47.3205 38.9996V42.8277H39.5705V38.9996C39.5705 38.1873 39.9788 37.4084 40.7055 36.8341C41.4322 36.2597 42.4178 35.9371 43.4455 35.9371C44.4732 35.9371 45.4588 36.2597 46.1855 36.8341C46.9123 37.4084 47.3205 38.1873 47.3205 38.9996V38.9996ZM22.133 45.1246V44.3589H54.8186C55.0318 44.6193 55.2449 44.8719 55.458 45.1246H22.133ZM53.133 37.4683C53.133 35.6408 54.0516 33.8882 55.6867 32.5959C57.3218 31.3037 59.5394 30.5777 61.8518 30.5777C64.1641 30.5777 66.3818 31.3037 68.0168 32.5959C69.6519 33.8882 70.5705 35.6408 70.5705 37.4683C70.5705 40.4313 64.8258 46.4797 61.8518 49.3049C58.8777 46.4797 53.133 40.4313 53.133 37.4683ZM61.8518 52.0152C58.1318 52.0152 56.1555 51.173 56.0393 50.8821C56.1264 50.6447 57.3664 50.0399 59.8755 49.8179C60.5633 50.4839 61.038 50.9127 61.1252 50.9893C61.2161 51.0707 61.3279 51.136 61.4532 51.1807C61.5784 51.2254 61.7143 51.2485 61.8518 51.2485C61.9892 51.2485 62.1251 51.2254 62.2503 51.1807C62.3756 51.136 62.4874 51.0707 62.5783 50.9893C62.6655 50.9127 63.1402 50.4839 63.828 49.8179C66.3371 50.0399 67.5771 50.6447 67.6643 50.8514C67.548 51.173 65.5718 52.0152 61.8518 52.0152Z" fill="white"/>
<path d="M59.5625 23.7812V18.4219C59.5625 18.2188 59.4604 18.0241 59.2788 17.8805C59.0971 17.7369 58.8507 17.6562 58.5938 17.6562H52.7812C52.5243 17.6562 52.2779 17.7369 52.0962 17.8805C51.9146 18.0241 51.8125 18.2188 51.8125 18.4219V23.7812H50.8438V25.3125H60.5312V23.7812H59.5625ZM57.625 23.7812H53.75V19.1875H57.625V23.7812Z" fill="white"/>
<path d="M46.9687 23.7812V18.4219C46.9687 18.2188 46.8667 18.0241 46.685 17.8805C46.5033 17.7369 46.2569 17.6562 46 17.6562H40.1875C39.9306 17.6562 39.6842 17.7369 39.5025 17.8805C39.3208 18.0241 39.2187 18.2188 39.2187 18.4219V23.7812H38.25V25.3125H47.9375V23.7812H46.9687ZM45.0312 23.7812H41.1562V19.1875H45.0312V23.7812Z" fill="white"/>
<path d="M34.375 23.7812V18.4219C34.375 18.2188 34.2729 18.0241 34.0913 17.8805C33.9096 17.7369 33.6632 17.6562 33.4062 17.6562H27.5938C27.3368 17.6562 27.0904 17.7369 26.9087 17.8805C26.7271 18.0241 26.625 18.2188 26.625 18.4219V23.7812H25.6562V25.3125H35.3438V23.7812H34.375ZM32.4375 23.7812H28.5625V19.1875H32.4375V23.7812Z" fill="white"/>
<path d="M34.375 32.9687V27.6094C34.375 27.4063 34.2729 27.2116 34.0913 27.068C33.9096 26.9244 33.6632 26.8438 33.4062 26.8438H27.5938C27.3368 26.8438 27.0904 26.9244 26.9087 27.068C26.7271 27.2116 26.625 27.4063 26.625 27.6094V32.9687H25.6562V34.5H35.3438V32.9687H34.375ZM32.4375 32.9687H28.5625V28.375H32.4375V32.9687Z" fill="white"/>
<path d="M46.9687 32.9687V27.6094C46.9687 27.4063 46.8667 27.2116 46.685 27.068C46.5033 26.9244 46.2569 26.8438 46 26.8438H40.1875C39.9306 26.8438 39.6842 26.9244 39.5025 27.068C39.3208 27.2116 39.2187 27.4063 39.2187 27.6094V32.9687H38.25V34.5H47.9375V32.9687H46.9687ZM45.0312 32.9687H41.1562V28.375H45.0312V32.9687Z" fill="white"/>
</g>
<defs>
<filter id="filter0_d" x="0" y="0" width="88" height="88" filterUnits="userSpaceOnUse" color-interpolation-filters="sRGB">
<feFlood flood-opacity="0" result="BackgroundImageFix"/>
<feColorMatrix in="SourceAlpha" type="matrix" values="0 0 0 0 0 0 0 0 0 0 0 0 0 0 0 0 0 0 127 0"/>
<feOffset dy="4"/>
<feGaussianBlur stdDeviation="2"/>
<feColorMatrix type="matrix" values="0 0 0 0 0 0 0 0 0 0 0 0 0 0 0 0 0 0 0.25 0"/>
<feBlend mode="normal" in2="BackgroundImageFix" result="effect1_dropShadow"/>
<feBlend mode="normal" in="SourceGraphic" in2="effect1_dropShadow" result="shape"/>
</filter>
<clipPath id="clip0">
<rect width="62" height="49" fill="white" transform="translate(15 10)"/>
</clipPath>
</defs>
</svg>
