<svg xmlns="http://www.w3.org/2000/svg" width="88" height="88" fill="none" viewBox="0 0 88 88"><g filter="url(#filter0_d)"><path fill="#8B5D33" d="M64 0H24C12.9543 0 4 8.9543 4 20V60C4 71.0457 12.9543 80 24 80H64C75.0457 80 84 71.0457 84 60V20C84 8.9543 75.0457 0 64 0Z"/></g><path fill="#fff" d="M23.7601 75.456L23.9401 76.527H23.9851L24.1831 75.447L25.4971 71.82H26.9011L24.3541 78.165H23.4001L20.8351 71.82H22.3831L23.7601 75.456ZM30.7733 77.688C30.5693 77.844 30.2903 77.979 29.9363 78.093C29.5883 78.201 29.2133 78.255 28.8113 78.255C28.0013 78.255 27.4073 78.033 27.0293 77.589C26.6513 77.145 26.4623 76.536 26.4623 75.762C26.4623 74.94 26.6753 74.319 27.1013 73.899C27.5273 73.473 28.1273 73.26 28.9013 73.26C29.1533 73.26 29.4023 73.293 29.6483 73.359C29.8943 73.419 30.1133 73.524 30.3053 73.674C30.4973 73.818 30.6503 74.016 30.7643 74.268C30.8843 74.514 30.9443 74.82 30.9443 75.186C30.9443 75.312 30.9353 75.45 30.9173 75.6C30.9053 75.75 30.8813 75.906 30.8453 76.068H27.6953C27.7253 76.476 27.8423 76.779 28.0463 76.977C28.2563 77.169 28.5953 77.265 29.0633 77.265C29.3453 77.265 29.5973 77.226 29.8193 77.148C30.0473 77.064 30.2213 76.98 30.3413 76.896L30.7733 77.688ZM28.8833 74.25C28.5113 74.25 28.2353 74.352 28.0553 74.556C27.8753 74.754 27.7703 75.009 27.7403 75.321H29.7743C29.7983 74.991 29.7383 74.73 29.5943 74.538C29.4503 74.346 29.2133 74.25 28.8833 74.25ZM34.866 74.547C34.686 74.487 34.506 74.457 34.326 74.457C34.062 74.457 33.843 74.52 33.669 74.646C33.501 74.772 33.39 74.931 33.336 75.123V78.12H32.076V73.395H33.066L33.201 74.052H33.318C33.438 73.806 33.597 73.617 33.795 73.485C33.999 73.353 34.23 73.287 34.488 73.287C34.65 73.287 34.836 73.32 35.046 73.386L34.866 74.547ZM40.4188 74.808H42.9928V77.634C42.8548 77.742 42.7018 77.835 42.5338 77.913C42.3718 77.985 42.1978 78.048 42.0118 78.102C41.8318 78.15 41.6458 78.186 41.4538 78.21C41.2618 78.234 41.0728 78.246 40.8868 78.246C40.4548 78.246 40.0498 78.183 39.6718 78.057C39.2998 77.931 38.9728 77.736 38.6908 77.472C38.4148 77.202 38.1958 76.86 38.0338 76.446C37.8778 76.032 37.7998 75.54 37.7998 74.97C37.7998 74.376 37.8958 73.872 38.0878 73.458C38.2798 73.038 38.5288 72.699 38.8348 72.441C39.1468 72.177 39.4918 71.988 39.8698 71.874C40.2538 71.754 40.6348 71.694 41.0128 71.694C41.4028 71.694 41.7448 71.724 42.0388 71.784C42.3388 71.838 42.5728 71.892 42.7408 71.946L42.4618 73.053C42.2998 72.999 42.1168 72.954 41.9128 72.918C41.7088 72.882 41.4538 72.864 41.1478 72.864C40.8658 72.864 40.6078 72.903 40.3738 72.981C40.1398 73.053 39.9358 73.173 39.7618 73.341C39.5878 73.509 39.4528 73.728 39.3568 73.998C39.2608 74.268 39.2128 74.595 39.2128 74.979C39.2128 75.351 39.2608 75.669 39.3568 75.933C39.4528 76.197 39.5818 76.416 39.7438 76.59C39.9118 76.758 40.1038 76.881 40.3198 76.959C40.5358 77.037 40.7638 77.076 41.0038 77.076C41.1658 77.076 41.3278 77.058 41.4898 77.022C41.6578 76.986 41.7988 76.929 41.9128 76.851V75.762L40.4188 75.618V74.808ZM43.993 73.719C44.263 73.599 44.593 73.5 44.983 73.422C45.379 73.344 45.787 73.305 46.207 73.305C46.537 73.305 46.813 73.344 47.035 73.422C47.263 73.5 47.443 73.614 47.575 73.764C47.707 73.908 47.8 74.085 47.854 74.295C47.914 74.499 47.944 74.727 47.944 74.979C47.944 75.285 47.932 75.588 47.908 75.888C47.884 76.188 47.872 76.506 47.872 76.842C47.872 77.07 47.887 77.292 47.917 77.508C47.947 77.724 47.995 77.931 48.061 78.129H47.035L46.828 77.427H46.72C46.564 77.637 46.366 77.817 46.126 77.967C45.886 78.117 45.577 78.192 45.199 78.192C44.971 78.192 44.761 78.159 44.569 78.093C44.383 78.027 44.221 77.934 44.083 77.814C43.951 77.688 43.846 77.541 43.768 77.373C43.696 77.205 43.66 77.022 43.66 76.824C43.66 76.29 43.837 75.888 44.191 75.618C44.551 75.342 45.094 75.204 45.82 75.204C45.988 75.204 46.156 75.219 46.324 75.249C46.492 75.273 46.609 75.291 46.675 75.303C46.693 75.177 46.702 75.069 46.702 74.979C46.702 74.751 46.645 74.583 46.531 74.475C46.417 74.367 46.204 74.313 45.892 74.313C45.604 74.313 45.322 74.349 45.046 74.421C44.776 74.487 44.536 74.571 44.326 74.673L43.993 73.719ZM45.64 77.184C45.922 77.184 46.147 77.118 46.315 76.986C46.483 76.854 46.606 76.716 46.684 76.572V76.032C46.654 76.02 46.606 76.008 46.54 75.996C46.48 75.984 46.411 75.972 46.333 75.96C46.261 75.948 46.186 75.939 46.108 75.933C46.036 75.927 45.97 75.924 45.91 75.924C45.586 75.924 45.346 75.984 45.19 76.104C45.034 76.218 44.956 76.362 44.956 76.536C44.956 76.752 45.016 76.914 45.136 77.022C45.262 77.13 45.43 77.184 45.64 77.184ZM49.2409 76.896C49.3249 76.938 49.4209 76.98 49.5289 77.022C49.6429 77.064 49.7629 77.103 49.8889 77.139C50.0209 77.175 50.1529 77.205 50.2849 77.229C50.4229 77.253 50.5609 77.265 50.6989 77.265C50.9089 77.265 51.0709 77.232 51.1849 77.166C51.3049 77.1 51.3649 76.977 51.3649 76.797C51.3649 76.653 51.2869 76.548 51.1309 76.482C50.9749 76.41 50.7829 76.341 50.5549 76.275C50.3869 76.227 50.2099 76.17 50.0239 76.104C49.8439 76.038 49.6759 75.951 49.5199 75.843C49.3699 75.729 49.2439 75.582 49.1419 75.402C49.0459 75.222 48.9979 74.994 48.9979 74.718C48.9979 74.244 49.1449 73.884 49.4389 73.638C49.7329 73.386 50.1559 73.26 50.7079 73.26C51.0679 73.26 51.4039 73.293 51.7159 73.359C52.0339 73.419 52.2889 73.491 52.4809 73.575L52.2199 74.529C52.0639 74.469 51.8629 74.409 51.6169 74.349C51.3769 74.283 51.1309 74.25 50.8789 74.25C50.6689 74.25 50.5129 74.283 50.4109 74.349C50.3089 74.409 50.2579 74.517 50.2579 74.673C50.2579 74.811 50.3359 74.916 50.4919 74.988C50.6539 75.054 50.8489 75.12 51.0769 75.186C51.2449 75.234 51.4189 75.291 51.5989 75.357C51.7849 75.417 51.9529 75.501 52.1029 75.609C52.2529 75.717 52.3759 75.858 52.4719 76.032C52.5739 76.2 52.6249 76.413 52.6249 76.671C52.6249 77.175 52.4599 77.565 52.1299 77.841C51.8059 78.117 51.3169 78.255 50.6629 78.255C50.3089 78.255 49.9789 78.222 49.6729 78.156C49.3669 78.096 49.1179 78.006 48.9259 77.886L49.2409 76.896ZM53.0245 73.395H53.7445V72.747L55.0045 72.414V73.395H56.2735V74.448H55.0045V76.086C55.0045 76.464 55.0405 76.737 55.1125 76.905C55.1905 77.067 55.3405 77.148 55.5625 77.148C55.7005 77.148 55.8175 77.139 55.9135 77.121C56.0095 77.097 56.1115 77.061 56.2195 77.013L56.4805 77.958C56.2885 78.042 56.0665 78.114 55.8145 78.174C55.5685 78.234 55.3285 78.264 55.0945 78.264C54.6265 78.264 54.2845 78.15 54.0685 77.922C53.8525 77.688 53.7445 77.316 53.7445 76.806V74.448H53.0245V73.395ZM56.9164 75.762C56.9164 74.982 57.1234 74.37 57.5374 73.926C57.9514 73.482 58.5424 73.26 59.3104 73.26C59.7124 73.26 60.0634 73.323 60.3634 73.449C60.6634 73.575 60.9124 73.752 61.1104 73.98C61.3084 74.202 61.4554 74.466 61.5514 74.772C61.6534 75.072 61.7044 75.402 61.7044 75.762C61.7044 76.146 61.6504 76.494 61.5424 76.806C61.4344 77.112 61.2784 77.373 61.0744 77.589C60.8704 77.805 60.6184 77.97 60.3184 78.084C60.0244 78.198 59.6884 78.255 59.3104 78.255C58.9024 78.255 58.5484 78.192 58.2484 78.066C57.9484 77.94 57.6994 77.766 57.5014 77.544C57.3034 77.316 57.1564 77.052 57.0604 76.752C56.9644 76.446 56.9164 76.116 56.9164 75.762ZM58.2124 75.762C58.2124 75.96 58.2334 76.146 58.2754 76.32C58.3174 76.494 58.3804 76.647 58.4644 76.779C58.5544 76.905 58.6684 77.007 58.8064 77.085C58.9444 77.163 59.1124 77.202 59.3104 77.202C60.0424 77.202 60.4084 76.722 60.4084 75.762C60.4084 75.552 60.3874 75.36 60.3454 75.186C60.3094 75.006 60.2464 74.853 60.1564 74.727C60.0724 74.595 59.9584 74.493 59.8144 74.421C59.6764 74.349 59.5084 74.313 59.3104 74.313C58.9684 74.313 58.6984 74.427 58.5004 74.655C58.3084 74.883 58.2124 75.252 58.2124 75.762ZM62.7233 76.896C62.8073 76.938 62.9033 76.98 63.0113 77.022C63.1253 77.064 63.2453 77.103 63.3713 77.139C63.5033 77.175 63.6353 77.205 63.7673 77.229C63.9053 77.253 64.0433 77.265 64.1813 77.265C64.3913 77.265 64.5533 77.232 64.6673 77.166C64.7873 77.1 64.8473 76.977 64.8473 76.797C64.8473 76.653 64.7693 76.548 64.6133 76.482C64.4573 76.41 64.2653 76.341 64.0373 76.275C63.8693 76.227 63.6923 76.17 63.5063 76.104C63.3263 76.038 63.1583 75.951 63.0023 75.843C62.8523 75.729 62.7263 75.582 62.6243 75.402C62.5283 75.222 62.4803 74.994 62.4803 74.718C62.4803 74.244 62.6273 73.884 62.9213 73.638C63.2153 73.386 63.6383 73.26 64.1903 73.26C64.5503 73.26 64.8863 73.293 65.1983 73.359C65.5163 73.419 65.7713 73.491 65.9633 73.575L65.7023 74.529C65.5463 74.469 65.3453 74.409 65.0993 74.349C64.8593 74.283 64.6133 74.25 64.3613 74.25C64.1513 74.25 63.9953 74.283 63.8933 74.349C63.7913 74.409 63.7403 74.517 63.7403 74.673C63.7403 74.811 63.8183 74.916 63.9743 74.988C64.1363 75.054 64.3313 75.12 64.5593 75.186C64.7273 75.234 64.9013 75.291 65.0813 75.357C65.2673 75.417 65.4353 75.501 65.5853 75.609C65.7353 75.717 65.8583 75.858 65.9543 76.032C66.0563 76.2 66.1073 76.413 66.1073 76.671C66.1073 77.175 65.9423 77.565 65.6123 77.841C65.2883 78.117 64.7993 78.255 64.1453 78.255C63.7913 78.255 63.4613 78.222 63.1553 78.156C62.8493 78.096 62.6003 78.006 62.4083 77.886L62.7233 76.896Z"/><g clip-path="url(#clip0)"><path fill="#fff" d="M68.5626 43.2045C68.4939 41.0994 68.0256 39.889 67.0442 39.2796C63.8008 37.2658 58.287 39.5595 54.8751 41.3297C54.2229 40.4767 53.1029 40.0115 51.928 40.1607L47.3674 40.7437C46.5866 40.8436 45.7766 40.7326 45.025 40.4228C44.1469 40.0608 42.5121 39.3874 39.8886 39.6751C35.1765 40.1921 35.3106 40.5624 34.0124 41.1627C33.7142 41.2919 32.694 41.4511 31.5225 41.5659C31.0066 40.4475 29.8405 39.6648 28.487 39.6648H22.4331C20.6031 39.6648 19.1143 41.0947 19.1143 42.8523V57.2924C19.1143 59.05 20.6031 60.4799 22.4331 60.4799H28.487C30.0109 60.4799 31.2973 59.488 31.6853 58.1413L34.16 57.7089C34.8566 57.6106 33.9901 57.6035 48.8807 58.5826C53.0265 58.8551 57.0125 57.3335 59.6364 54.7219C67.9048 46.5961 66.5082 47.9652 66.6699 47.8097C67.9457 46.5383 68.618 44.9029 68.5626 43.2045V43.2045ZM28.4869 57.2924H22.4331V42.8524H28.487V57.2924H28.4869ZM64.2843 45.5938C56.0157 53.7194 57.4132 52.3498 57.2514 52.5052C55.2279 54.5217 52.1829 55.605 49.1072 55.4027L35.7285 54.5236C34.2879 54.3658 33.4181 54.5991 31.8058 54.8806V44.7458C33.0912 44.6245 34.6445 44.4084 35.4495 44.036C36.6826 43.4661 36.2454 43.2832 40.2652 42.8423C42.0135 42.6503 43.0382 43.0728 43.7164 43.3523C45.0177 43.8887 46.4314 44.0791 47.8054 43.9035L52.2248 43.3386C52.3851 43.8707 52.4237 44.5917 52.214 45.0402C52.1077 45.2676 51.9489 45.4053 51.6831 45.5007C49.844 46.1612 49.844 46.1612 41.9506 47.2569C41.0436 47.3828 40.4146 48.191 40.5457 49.0622C40.6772 49.9363 41.522 50.5375 42.4253 50.4116C50.5172 49.2884 50.6719 49.2669 52.8454 48.4862C54.4815 47.8986 55.5686 46.5206 55.667 44.5471C58.7339 42.8346 63.2559 41.0583 65.0569 41.8589C65.1167 42.0418 65.2181 42.4674 65.2455 43.3045C65.2726 44.1343 64.9312 44.9472 64.2843 45.5938V45.5938Z"/><path fill="#fff" d="M47.4343 36.4675C56.1572 36.4675 63.2537 29.6516 63.2537 21.2737C63.2537 12.8958 56.1572 6.07996 47.4343 6.07996C38.7114 6.07996 31.6149 12.8958 31.6149 21.2737C31.6149 29.6516 38.7114 36.4675 47.4343 36.4675ZM47.4343 9.26746C54.3273 9.26746 59.9349 14.6534 59.9349 21.2737C59.9349 27.894 54.3273 33.28 47.4343 33.28C40.5414 33.28 34.9337 27.894 34.9337 21.2737C34.9337 14.6534 40.5414 9.26746 47.4343 9.26746Z"/><path fill="#fff" d="M43.1772 28.0403C44.1706 28.6645 44.9281 28.9544 45.7897 29.0811V29.362C45.7897 30.2422 46.5327 30.9558 47.4491 30.9558C48.3657 30.9558 49.1085 30.2422 49.1085 29.362V28.91C51.0418 28.2863 52.2776 26.6322 52.5633 24.9991C52.9579 22.7443 51.6865 20.7079 49.3996 19.9316C48.2398 19.5378 46.9601 19.0646 46.2637 18.5399C46.1568 18.4595 46.0777 18.1979 46.1418 17.8718C46.1736 17.7095 46.321 17.1668 46.8782 17.0057C48.2949 16.5959 48.93 17.3553 49.4894 17.6365C50.3017 18.0443 51.3042 17.7426 51.7288 16.9625C52.1431 16.2015 51.854 15.2661 51.0854 14.8424C50.5165 14.4714 49.9863 14.1302 49.1087 13.8934V13.6471C49.1087 12.7669 48.3658 12.0533 47.4493 12.0533C46.5329 12.0533 45.79 12.7669 45.79 13.6471V13.9967C42.5795 15.0361 41.7961 19.2253 44.2157 21.0483C45.2871 21.8552 46.8088 22.4329 48.2936 22.937C49.2809 23.2721 49.3806 23.956 49.2906 24.4708C49.1639 25.1941 48.5304 25.9757 47.4383 25.9826C46.2182 25.9925 45.9002 25.9425 44.9941 25.3731C44.2272 24.8911 43.1988 25.0976 42.697 25.8343C42.1953 26.5706 42.4103 27.5583 43.1772 28.0403V28.0403Z"/></g><defs><filter id="filter0_d" width="88" height="88" x="0" y="0" color-interpolation-filters="sRGB" filterUnits="userSpaceOnUse"><feFlood flood-opacity="0" result="BackgroundImageFix"/><feColorMatrix in="SourceAlpha" type="matrix" values="0 0 0 0 0 0 0 0 0 0 0 0 0 0 0 0 0 0 127 0"/><feOffset dy="4"/><feGaussianBlur stdDeviation="2"/><feColorMatrix type="matrix" values="0 0 0 0 0 0 0 0 0 0 0 0 0 0 0 0 0 0 0.25 0"/><feBlend in2="BackgroundImageFix" mode="normal" result="effect1_dropShadow"/><feBlend in="SourceGraphic" in2="effect1_dropShadow" mode="normal" result="shape"/></filter><clipPath id="clip0"><rect width="56.64" height="54.4" fill="#fff" transform="translate(15.52 6.07996)"/></clipPath></defs></svg>