<svg width="88" height="88" viewBox="0 0 88 88" fill="none" xmlns="http://www.w3.org/2000/svg">
<g filter="url(#filter0_d)">
<path d="M64 0H24C12.9543 0 4 8.9543 4 20V60C4 71.0457 12.9543 80 24 80H64C75.0457 80 84 71.0457 84 60V20C84 8.9543 75.0457 0 64 0Z" fill="#0A369D"/>
</g>
<path d="M27.2274 63.296L27.4074 64.367H27.4524L27.6504 63.287L28.9644 59.66H30.3684L27.8214 66.005H26.8674L24.3024 59.66H25.8504L27.2274 63.296ZM34.2406 65.528C34.0366 65.684 33.7576 65.819 33.4036 65.933C33.0556 66.041 32.6806 66.095 32.2786 66.095C31.4686 66.095 30.8746 65.873 30.4966 65.429C30.1186 64.985 29.9296 64.376 29.9296 63.602C29.9296 62.78 30.1426 62.159 30.5686 61.739C30.9946 61.313 31.5946 61.1 32.3686 61.1C32.6206 61.1 32.8696 61.133 33.1156 61.199C33.3616 61.259 33.5806 61.364 33.7726 61.514C33.9646 61.658 34.1176 61.856 34.2316 62.108C34.3516 62.354 34.4116 62.66 34.4116 63.026C34.4116 63.152 34.4026 63.29 34.3846 63.44C34.3726 63.59 34.3486 63.746 34.3126 63.908H31.1626C31.1926 64.316 31.3096 64.619 31.5136 64.817C31.7236 65.009 32.0626 65.105 32.5306 65.105C32.8126 65.105 33.0646 65.066 33.2866 64.988C33.5146 64.904 33.6886 64.82 33.8086 64.736L34.2406 65.528ZM32.3506 62.09C31.9786 62.09 31.7026 62.192 31.5226 62.396C31.3426 62.594 31.2376 62.849 31.2076 63.161H33.2416C33.2656 62.831 33.2056 62.57 33.0616 62.378C32.9176 62.186 32.6806 62.09 32.3506 62.09ZM38.7293 65.96V63.368C38.7293 62.96 38.6663 62.666 38.5403 62.486C38.4143 62.306 38.1923 62.216 37.8743 62.216C37.6043 62.216 37.3733 62.291 37.1813 62.441C36.9953 62.585 36.8663 62.771 36.7943 62.999C36.7943 63.491 36.7943 63.986 36.7943 64.484C36.8003 64.976 36.8033 65.468 36.8033 65.96H35.5433V61.235H36.5333L36.6683 61.91H36.8033C36.9593 61.688 37.1663 61.499 37.4243 61.343C37.6823 61.181 38.0183 61.1 38.4323 61.1C38.6843 61.1 38.9063 61.133 39.0983 61.199C39.2963 61.259 39.4583 61.367 39.5843 61.523C39.7163 61.673 39.8153 61.877 39.8813 62.135C39.9533 62.393 39.9893 62.717 39.9893 63.107V65.96H38.7293ZM40.7066 61.235H41.4266V60.587L42.6866 60.254V61.235H43.9556V62.288H42.6866V63.926C42.6866 64.304 42.7226 64.577 42.7946 64.745C42.8726 64.907 43.0226 64.988 43.2446 64.988C43.3826 64.988 43.4996 64.979 43.5956 64.961C43.6916 64.937 43.7936 64.901 43.9016 64.853L44.1626 65.798C43.9706 65.882 43.7486 65.954 43.4966 66.014C43.2506 66.074 43.0106 66.104 42.7766 66.104C42.3086 66.104 41.9666 65.99 41.7506 65.762C41.5346 65.528 41.4266 65.156 41.4266 64.646V62.288H40.7066V61.235ZM44.8763 61.559C45.1463 61.439 45.4763 61.34 45.8663 61.262C46.2623 61.184 46.6703 61.145 47.0903 61.145C47.4203 61.145 47.6963 61.184 47.9183 61.262C48.1463 61.34 48.3263 61.454 48.4583 61.604C48.5903 61.748 48.6833 61.925 48.7373 62.135C48.7973 62.339 48.8273 62.567 48.8273 62.819C48.8273 63.125 48.8153 63.428 48.7913 63.728C48.7673 64.028 48.7553 64.346 48.7553 64.682C48.7553 64.91 48.7703 65.132 48.8003 65.348C48.8303 65.564 48.8783 65.771 48.9443 65.969H47.9183L47.7113 65.267H47.6033C47.4473 65.477 47.2493 65.657 47.0093 65.807C46.7693 65.957 46.4603 66.032 46.0823 66.032C45.8543 66.032 45.6443 65.999 45.4523 65.933C45.2663 65.867 45.1043 65.774 44.9663 65.654C44.8343 65.528 44.7293 65.381 44.6513 65.213C44.5793 65.045 44.5433 64.862 44.5433 64.664C44.5433 64.13 44.7203 63.728 45.0743 63.458C45.4343 63.182 45.9773 63.044 46.7033 63.044C46.8713 63.044 47.0393 63.059 47.2073 63.089C47.3753 63.113 47.4923 63.131 47.5583 63.143C47.5763 63.017 47.5853 62.909 47.5853 62.819C47.5853 62.591 47.5283 62.423 47.4143 62.315C47.3003 62.207 47.0873 62.153 46.7753 62.153C46.4873 62.153 46.2053 62.189 45.9293 62.261C45.6593 62.327 45.4193 62.411 45.2093 62.513L44.8763 61.559ZM46.5233 65.024C46.8053 65.024 47.0303 64.958 47.1983 64.826C47.3663 64.694 47.4893 64.556 47.5673 64.412V63.872C47.5373 63.86 47.4893 63.848 47.4233 63.836C47.3633 63.824 47.2943 63.812 47.2163 63.8C47.1443 63.788 47.0693 63.779 46.9913 63.773C46.9193 63.767 46.8533 63.764 46.7933 63.764C46.4693 63.764 46.2293 63.824 46.0733 63.944C45.9173 64.058 45.8393 64.202 45.8393 64.376C45.8393 64.592 45.8993 64.754 46.0193 64.862C46.1453 64.97 46.3133 65.024 46.5233 65.024ZM56.9225 64.304C56.9225 64.556 56.9255 64.817 56.9315 65.087C56.9375 65.357 56.9645 65.651 57.0125 65.969H56.1395L55.9595 65.312H55.8425C55.7045 65.552 55.5065 65.744 55.2485 65.888C54.9965 66.026 54.6935 66.095 54.3395 66.095C53.7095 66.095 53.2205 65.9 52.8725 65.51C52.5245 65.114 52.3505 64.505 52.3505 63.683C52.3505 63.287 52.3985 62.93 52.4945 62.612C52.5965 62.294 52.7435 62.024 52.9355 61.802C53.1335 61.58 53.3765 61.409 53.6645 61.289C53.9525 61.169 54.2855 61.109 54.6635 61.109C54.8735 61.109 55.0535 61.127 55.2035 61.163C55.3595 61.193 55.5125 61.232 55.6625 61.28V59.66H56.9225V64.304ZM54.6635 65.042C54.9455 65.042 55.1645 64.979 55.3205 64.853C55.4765 64.721 55.5905 64.535 55.6625 64.295V62.405C55.5545 62.321 55.4375 62.261 55.3115 62.225C55.1915 62.183 55.0325 62.162 54.8345 62.162C54.4325 62.162 54.1325 62.279 53.9345 62.513C53.7425 62.747 53.6465 63.149 53.6465 63.719C53.6465 64.115 53.7275 64.436 53.8895 64.682C54.0575 64.922 54.3155 65.042 54.6635 65.042ZM62.3128 65.528C62.1088 65.684 61.8298 65.819 61.4758 65.933C61.1278 66.041 60.7528 66.095 60.3508 66.095C59.5408 66.095 58.9468 65.873 58.5688 65.429C58.1908 64.985 58.0018 64.376 58.0018 63.602C58.0018 62.78 58.2148 62.159 58.6408 61.739C59.0668 61.313 59.6668 61.1 60.4408 61.1C60.6928 61.1 60.9418 61.133 61.1878 61.199C61.4338 61.259 61.6528 61.364 61.8448 61.514C62.0368 61.658 62.1898 61.856 62.3038 62.108C62.4238 62.354 62.4838 62.66 62.4838 63.026C62.4838 63.152 62.4748 63.29 62.4568 63.44C62.4448 63.59 62.4208 63.746 62.3848 63.908H59.2348C59.2648 64.316 59.3818 64.619 59.5858 64.817C59.7958 65.009 60.1348 65.105 60.6028 65.105C60.8848 65.105 61.1368 65.066 61.3588 64.988C61.5868 64.904 61.7608 64.82 61.8808 64.736L62.3128 65.528ZM60.4228 62.09C60.0508 62.09 59.7748 62.192 59.5948 62.396C59.4148 62.594 59.3098 62.849 59.2798 63.161H61.3138C61.3378 62.831 61.2778 62.57 61.1338 62.378C60.9898 62.186 60.7528 62.09 60.4228 62.09ZM23.0935 74.801L23.2375 73.496H23.1835L22.7515 74.486L21.2935 76.835H20.8795L19.3315 74.477L18.9085 73.505H18.8545L19.0435 74.792V77.96H17.7835V71.66H18.9895L20.8075 74.567L21.1495 75.26H21.1945L21.4915 74.549L23.2285 71.66H24.4255V77.96H23.0935V74.801ZM29.701 77.528C29.497 77.684 29.218 77.819 28.864 77.933C28.516 78.041 28.141 78.095 27.739 78.095C26.929 78.095 26.335 77.873 25.957 77.429C25.579 76.985 25.39 76.376 25.39 75.602C25.39 74.78 25.603 74.159 26.029 73.739C26.455 73.313 27.055 73.1 27.829 73.1C28.081 73.1 28.33 73.133 28.576 73.199C28.822 73.259 29.041 73.364 29.233 73.514C29.425 73.658 29.578 73.856 29.692 74.108C29.812 74.354 29.872 74.66 29.872 75.026C29.872 75.152 29.863 75.29 29.845 75.44C29.833 75.59 29.809 75.746 29.773 75.908H26.623C26.653 76.316 26.77 76.619 26.974 76.817C27.184 77.009 27.523 77.105 27.991 77.105C28.273 77.105 28.525 77.066 28.747 76.988C28.975 76.904 29.149 76.82 29.269 76.736L29.701 77.528ZM27.811 74.09C27.439 74.09 27.163 74.192 26.983 74.396C26.803 74.594 26.698 74.849 26.668 75.161H28.702C28.726 74.831 28.666 74.57 28.522 74.378C28.378 74.186 28.141 74.09 27.811 74.09ZM33.9558 77.96V75.494C33.9558 75.038 33.9078 74.711 33.8118 74.513C33.7158 74.315 33.5178 74.216 33.2178 74.216C32.9658 74.216 32.7648 74.279 32.6148 74.405C32.4648 74.525 32.3478 74.684 32.2638 74.882V77.96H31.0038V73.235H31.9758L32.1198 73.892H32.2368C32.3148 73.79 32.4048 73.691 32.5068 73.595C32.6088 73.499 32.7198 73.415 32.8398 73.343C32.9658 73.271 33.1038 73.214 33.2538 73.172C33.4098 73.124 33.5838 73.1 33.7758 73.1C34.0938 73.1 34.3578 73.172 34.5678 73.316C34.7838 73.454 34.9548 73.688 35.0808 74.018C35.2548 73.73 35.4648 73.505 35.7108 73.343C35.9628 73.181 36.2538 73.1 36.5838 73.1C36.8718 73.1 37.1148 73.133 37.3128 73.199C37.5168 73.265 37.6818 73.379 37.8078 73.541C37.9338 73.703 38.0238 73.922 38.0778 74.198C38.1378 74.474 38.1678 74.819 38.1678 75.233V77.96H36.9078V75.431C36.9078 75.233 36.8988 75.059 36.8808 74.909C36.8628 74.759 36.8268 74.633 36.7728 74.531C36.7188 74.423 36.6408 74.345 36.5388 74.297C36.4428 74.243 36.3138 74.216 36.1518 74.216C35.8998 74.216 35.6958 74.282 35.5398 74.414C35.3898 74.54 35.2818 74.717 35.2158 74.945V77.96H33.9558ZM39.4676 71.66H40.7276V73.64H40.8356C40.9796 73.478 41.1626 73.352 41.3846 73.262C41.6126 73.166 41.8616 73.118 42.1316 73.118C42.7436 73.118 43.2086 73.319 43.5266 73.721C43.8506 74.117 44.0126 74.699 44.0126 75.467C44.0126 75.881 43.9526 76.25 43.8326 76.574C43.7186 76.898 43.5536 77.171 43.3376 77.393C43.1216 77.615 42.8576 77.786 42.5456 77.906C42.2336 78.02 41.8826 78.077 41.4926 78.077C41.0426 78.077 40.6406 78.044 40.2866 77.978C39.9326 77.918 39.6596 77.849 39.4676 77.771V71.66ZM40.7276 76.889C40.8476 76.949 40.9736 76.988 41.1056 77.006C41.2436 77.018 41.3906 77.024 41.5466 77.024C42.3266 77.024 42.7166 76.514 42.7166 75.494C42.7166 75.062 42.6356 74.735 42.4736 74.513C42.3116 74.285 42.0716 74.171 41.7536 74.171C41.4836 74.171 41.2646 74.234 41.0966 74.36C40.9346 74.486 40.8116 74.672 40.7276 74.918V76.889ZM47.8299 74.387C47.6499 74.327 47.4699 74.297 47.2899 74.297C47.0259 74.297 46.8069 74.36 46.6329 74.486C46.4649 74.612 46.3539 74.771 46.2999 74.963V77.96H45.0399V73.235H46.0299L46.1649 73.892H46.2819C46.4019 73.646 46.5609 73.457 46.7589 73.325C46.9629 73.193 47.1939 73.127 47.4519 73.127C47.6139 73.127 47.7999 73.16 48.0099 73.226L47.8299 74.387ZM52.7372 77.528C52.5332 77.684 52.2542 77.819 51.9002 77.933C51.5522 78.041 51.1772 78.095 50.7752 78.095C49.9652 78.095 49.3712 77.873 48.9932 77.429C48.6152 76.985 48.4262 76.376 48.4262 75.602C48.4262 74.78 48.6392 74.159 49.0652 73.739C49.4912 73.313 50.0912 73.1 50.8652 73.1C51.1172 73.1 51.3662 73.133 51.6122 73.199C51.8582 73.259 52.0772 73.364 52.2692 73.514C52.4612 73.658 52.6142 73.856 52.7282 74.108C52.8482 74.354 52.9082 74.66 52.9082 75.026C52.9082 75.152 52.8992 75.29 52.8812 75.44C52.8692 75.59 52.8452 75.746 52.8092 75.908H49.6592C49.6892 76.316 49.8062 76.619 50.0102 76.817C50.2202 77.009 50.5592 77.105 51.0272 77.105C51.3092 77.105 51.5612 77.066 51.7832 76.988C52.0112 76.904 52.1852 76.82 52.3052 76.736L52.7372 77.528ZM50.8472 74.09C50.4752 74.09 50.1992 74.192 50.0192 74.396C49.8392 74.594 49.7342 74.849 49.7042 75.161H51.7382C51.7622 74.831 51.7022 74.57 51.5582 74.378C51.4142 74.186 51.1772 74.09 50.8472 74.09ZM54.0309 76.736C54.1149 76.778 54.2109 76.82 54.3189 76.862C54.4329 76.904 54.5529 76.943 54.6789 76.979C54.8109 77.015 54.9429 77.045 55.0749 77.069C55.2129 77.093 55.3509 77.105 55.4889 77.105C55.6989 77.105 55.8609 77.072 55.9749 77.006C56.0949 76.94 56.1549 76.817 56.1549 76.637C56.1549 76.493 56.0769 76.388 55.9209 76.322C55.7649 76.25 55.5729 76.181 55.3449 76.115C55.1769 76.067 54.9999 76.01 54.8139 75.944C54.6339 75.878 54.4659 75.791 54.3099 75.683C54.1599 75.569 54.0339 75.422 53.9319 75.242C53.8359 75.062 53.7879 74.834 53.7879 74.558C53.7879 74.084 53.9349 73.724 54.2289 73.478C54.5229 73.226 54.9459 73.1 55.4979 73.1C55.8579 73.1 56.1939 73.133 56.5059 73.199C56.8239 73.259 57.0789 73.331 57.2709 73.415L57.0099 74.369C56.8539 74.309 56.6529 74.249 56.4069 74.189C56.1669 74.123 55.9209 74.09 55.6689 74.09C55.4589 74.09 55.3029 74.123 55.2009 74.189C55.0989 74.249 55.0479 74.357 55.0479 74.513C55.0479 74.651 55.1259 74.756 55.2819 74.828C55.4439 74.894 55.6389 74.96 55.8669 75.026C56.0349 75.074 56.2089 75.131 56.3889 75.197C56.5749 75.257 56.7429 75.341 56.8929 75.449C57.0429 75.557 57.1659 75.698 57.2619 75.872C57.3639 76.04 57.4149 76.253 57.4149 76.511C57.4149 77.015 57.2499 77.405 56.9199 77.681C56.5959 77.957 56.1069 78.095 55.4529 78.095C55.0989 78.095 54.7689 78.062 54.4629 77.996C54.1569 77.936 53.9079 77.846 53.7159 77.726L54.0309 76.736ZM58.5435 73.235H59.8035V77.96H58.5435V73.235ZM58.3545 72.056C58.3545 71.864 58.4235 71.705 58.5615 71.579C58.6995 71.447 58.8945 71.381 59.1465 71.381C59.4045 71.381 59.6085 71.447 59.7585 71.579C59.9085 71.711 59.9835 71.87 59.9835 72.056C59.9835 72.23 59.9085 72.38 59.7585 72.506C59.6085 72.632 59.4045 72.695 59.1465 72.695C58.8945 72.695 58.6995 72.632 58.5615 72.506C58.4235 72.38 58.3545 72.23 58.3545 72.056ZM61.2019 73.559C61.4719 73.439 61.8019 73.34 62.1919 73.262C62.5879 73.184 62.9959 73.145 63.4159 73.145C63.7459 73.145 64.0219 73.184 64.2439 73.262C64.4719 73.34 64.6519 73.454 64.7839 73.604C64.9159 73.748 65.0089 73.925 65.0629 74.135C65.1229 74.339 65.1529 74.567 65.1529 74.819C65.1529 75.125 65.1409 75.428 65.1169 75.728C65.0929 76.028 65.0809 76.346 65.0809 76.682C65.0809 76.91 65.0959 77.132 65.1259 77.348C65.1559 77.564 65.2039 77.771 65.2699 77.969H64.2439L64.0369 77.267H63.9289C63.7729 77.477 63.5749 77.657 63.3349 77.807C63.0949 77.957 62.7859 78.032 62.4079 78.032C62.1799 78.032 61.9699 77.999 61.7779 77.933C61.5919 77.867 61.4299 77.774 61.2919 77.654C61.1599 77.528 61.0549 77.381 60.9769 77.213C60.9049 77.045 60.8689 76.862 60.8689 76.664C60.8689 76.13 61.0459 75.728 61.3999 75.458C61.7599 75.182 62.3029 75.044 63.0289 75.044C63.1969 75.044 63.3649 75.059 63.5329 75.089C63.7009 75.113 63.8179 75.131 63.8839 75.143C63.9019 75.017 63.9109 74.909 63.9109 74.819C63.9109 74.591 63.8539 74.423 63.7399 74.315C63.6259 74.207 63.4129 74.153 63.1009 74.153C62.8129 74.153 62.5309 74.189 62.2549 74.261C61.9849 74.327 61.7449 74.411 61.5349 74.513L61.2019 73.559ZM62.8489 77.024C63.1309 77.024 63.3559 76.958 63.5239 76.826C63.6919 76.694 63.8149 76.556 63.8929 76.412V75.872C63.8629 75.86 63.8149 75.848 63.7489 75.836C63.6889 75.824 63.6199 75.812 63.5419 75.8C63.4699 75.788 63.3949 75.779 63.3169 75.773C63.2449 75.767 63.1789 75.764 63.1189 75.764C62.7949 75.764 62.5549 75.824 62.3989 75.944C62.2429 76.058 62.1649 76.202 62.1649 76.376C62.1649 76.592 62.2249 76.754 62.3449 76.862C62.4709 76.97 62.6389 77.024 62.8489 77.024ZM66.4499 76.736C66.5339 76.778 66.6299 76.82 66.7379 76.862C66.8519 76.904 66.9719 76.943 67.0979 76.979C67.2299 77.015 67.3619 77.045 67.4939 77.069C67.6319 77.093 67.7699 77.105 67.9079 77.105C68.1179 77.105 68.2799 77.072 68.3939 77.006C68.5139 76.94 68.5739 76.817 68.5739 76.637C68.5739 76.493 68.4959 76.388 68.3399 76.322C68.1839 76.25 67.9919 76.181 67.7639 76.115C67.5959 76.067 67.4189 76.01 67.2329 75.944C67.0529 75.878 66.8849 75.791 66.7289 75.683C66.5789 75.569 66.4529 75.422 66.3509 75.242C66.2549 75.062 66.2069 74.834 66.2069 74.558C66.2069 74.084 66.3539 73.724 66.6479 73.478C66.9419 73.226 67.3649 73.1 67.9169 73.1C68.2769 73.1 68.6129 73.133 68.9249 73.199C69.2429 73.259 69.4979 73.331 69.6899 73.415L69.4289 74.369C69.2729 74.309 69.0719 74.249 68.8259 74.189C68.5859 74.123 68.3399 74.09 68.0879 74.09C67.8779 74.09 67.7219 74.123 67.6199 74.189C67.5179 74.249 67.4669 74.357 67.4669 74.513C67.4669 74.651 67.5449 74.756 67.7009 74.828C67.8629 74.894 68.0579 74.96 68.2859 75.026C68.4539 75.074 68.6279 75.131 68.8079 75.197C68.9939 75.257 69.1619 75.341 69.3119 75.449C69.4619 75.557 69.5849 75.698 69.6809 75.872C69.7829 76.04 69.8339 76.253 69.8339 76.511C69.8339 77.015 69.6689 77.405 69.3389 77.681C69.0149 77.957 68.5259 78.095 67.8719 78.095C67.5179 78.095 67.1879 78.062 66.8819 77.996C66.5759 77.936 66.3269 77.846 66.1349 77.726L66.4499 76.736Z" fill="white"/>
<g clip-path="url(#clip0)">
<path d="M64.1313 14.57H34.3813C33.7771 14.57 33.2875 14.9505 33.2875 15.42C33.2875 15.8895 33.7771 16.27 34.3813 16.27H64.1313C65.9406 16.27 67.4125 17.4139 67.4125 18.82V42.62C67.4125 44.0262 65.9406 45.17 64.1313 45.17H19.0688C17.2594 45.17 15.7875 44.0262 15.7875 42.62V18.82C15.7875 17.4139 17.2594 16.27 19.0688 16.27H25.6313C26.2354 16.27 26.725 15.8895 26.725 15.42C26.725 14.9505 26.2354 14.57 25.6313 14.57H19.0688C16.0533 14.57 13.6 16.4765 13.6 18.82V42.62C13.6 44.9635 16.0533 46.87 19.0688 46.87H64.1313C67.1468 46.87 69.6 44.9635 69.6 42.62V18.82C69.6 16.4765 67.1468 14.57 64.1313 14.57Z" fill="white"/>
<path d="M30.0063 18.99C24.2166 18.99 19.5063 22.6506 19.5063 27.15C19.5063 31.6493 24.2166 35.31 30.0063 35.31C35.7959 35.31 40.5063 31.6493 40.5063 27.15C40.5063 22.6506 35.7959 18.99 30.0063 18.99ZM25.257 32.4472C26.0448 30.9753 27.9072 29.9875 30.0063 29.9875C32.1053 29.9875 33.9681 30.9753 34.756 32.4472C33.4084 33.179 31.7712 33.61 30.0063 33.61C28.2413 33.61 26.6041 33.179 25.257 32.4472ZM28.0161 26.7409V26.4215C28.0161 25.5685 28.9091 24.8749 30.0063 24.8749C31.1034 24.8749 31.9964 25.5685 31.9964 26.4215V26.7409C31.9964 27.5936 31.1034 28.2875 30.0063 28.2875C28.9091 28.2875 28.0161 27.5936 28.0161 26.7409ZM36.4337 31.2413C35.6929 30.1934 34.5479 29.36 33.1794 28.849C33.8049 28.2812 34.1839 27.5451 34.1839 26.7409V26.4215C34.1839 24.6312 32.3095 23.1749 30.0063 23.1749C27.703 23.1749 25.8286 24.6312 25.8286 26.4215V26.7409C25.8286 27.5451 26.2076 28.2812 26.8331 28.849C25.4646 29.3597 24.3196 30.1934 23.5788 31.2413C22.4017 30.1263 21.6938 28.7012 21.6938 27.15C21.6938 23.588 25.4228 20.69 30.0063 20.69C34.5898 20.69 38.3188 23.588 38.3188 27.15C38.3188 28.7012 37.6108 30.1263 36.4337 31.2413Z" fill="white"/>
<path d="M46.85 31.57H62.6C63.2041 31.57 63.6938 31.1895 63.6938 30.72V23.92C63.6938 23.4505 63.2041 23.07 62.6 23.07H46.85C46.2459 23.07 45.7563 23.4505 45.7563 23.92V30.72C45.7563 31.1895 46.2459 31.57 46.85 31.57ZM47.9438 24.77H61.5063V29.87H47.9438V24.77Z" fill="white"/>
<path d="M46.85 34.97H62.6C63.2041 34.97 63.6938 34.5895 63.6938 34.12C63.6938 33.6505 63.2041 33.27 62.6 33.27H46.85C46.2459 33.27 45.7563 33.6505 45.7563 34.12C45.7563 34.5895 46.2459 34.97 46.85 34.97Z" fill="white"/>
<path d="M46.0767 38.121C46.2801 38.279 46.5625 38.37 46.85 38.37C47.1375 38.37 47.42 38.279 47.6233 38.121C47.8267 37.9629 47.9438 37.7434 47.9438 37.52C47.9438 37.2965 47.8267 37.0771 47.6233 36.919C47.42 36.761 47.1375 36.67 46.85 36.67C46.5625 36.67 46.2801 36.761 46.0767 36.919C45.8733 37.0771 45.7563 37.2965 45.7563 37.52C45.7563 37.7434 45.8733 37.9629 46.0767 38.121Z" fill="white"/>
<path d="M50.4517 36.919C50.2483 37.0771 50.1313 37.2965 50.1313 37.52C50.1313 37.7434 50.2483 37.9629 50.4517 38.121C50.6551 38.279 50.9375 38.37 51.225 38.37C51.5125 38.37 51.795 38.279 51.9983 38.121C52.2017 37.9629 52.3188 37.7434 52.3188 37.52C52.3188 37.2965 52.2017 37.0771 51.9983 36.919C51.795 36.761 51.5125 36.67 51.225 36.67C50.9375 36.67 50.6551 36.761 50.4517 36.919Z" fill="white"/>
<path d="M62.6 36.67H55.6C54.9959 36.67 54.5063 37.0505 54.5063 37.52C54.5063 37.9895 54.9959 38.37 55.6 38.37H62.6C63.2041 38.37 63.6938 37.9895 63.6938 37.52C63.6938 37.0505 63.2041 36.67 62.6 36.67Z" fill="white"/>
<path d="M37.8449 37.867C37.8449 37.3978 37.3549 37.017 36.7512 37.017H23.2613C22.6576 37.017 22.1676 37.3978 22.1676 37.867C22.1676 38.3365 22.6576 38.717 23.2613 38.717H36.7512C37.3549 38.717 37.8449 38.3365 37.8449 37.867Z" fill="white"/>
<path d="M25.0113 40.417C24.4076 40.417 23.9176 40.7978 23.9176 41.267C23.9176 41.7365 24.4076 42.117 25.0113 42.117H35.0012C35.6049 42.117 36.0949 41.7365 36.0949 41.267C36.0949 40.7978 35.6049 40.417 35.0012 40.417H25.0113Z" fill="white"/>
<path d="M30.0063 16.27C30.2938 16.27 30.5762 16.179 30.7796 16.021C30.9829 15.8629 31.1 15.6435 31.1 15.42C31.1 15.1966 30.9829 14.9771 30.7796 14.819C30.5762 14.661 30.2938 14.57 30.0063 14.57C29.7187 14.57 29.4363 14.661 29.2329 14.819C29.0296 14.9771 28.9125 15.1966 28.9125 15.42C28.9125 15.6435 29.0296 15.8629 29.2329 16.021C29.4363 16.179 29.7187 16.27 30.0063 16.27Z" fill="white"/>
</g>
<path d="M75.68 45.056C73.8175 45.056 72.3022 44.2665 72.3022 43.296C72.3022 42.3255 73.8175 41.536 75.68 41.536C77.5425 41.536 79.0578 42.3255 79.0578 43.296C79.0578 43.6848 79.6627 44 80.4089 44C81.1551 44 81.76 43.6848 81.76 43.296C81.76 41.7912 79.7352 40.5289 77.0311 40.2078V39.424C77.0311 39.0352 76.4262 38.72 75.68 38.72C74.9338 38.72 74.3289 39.0352 74.3289 39.424V40.2078C71.6248 40.5289 69.6 41.7912 69.6 43.296C69.6 45.0428 72.3275 46.464 75.68 46.464C77.5425 46.464 79.0578 47.2535 79.0578 48.224C79.0578 49.1945 77.5425 49.984 75.68 49.984C73.8175 49.984 72.3022 49.1945 72.3022 48.224C72.3022 47.8352 71.6974 47.52 70.9511 47.52C70.2049 47.52 69.6 47.8352 69.6 48.224C69.6 49.7288 71.6248 50.9911 74.3289 51.3122V52.096C74.3289 52.4848 74.9338 52.8 75.68 52.8C76.4262 52.8 77.0311 52.4848 77.0311 52.096V51.3122C79.7352 50.9911 81.76 49.7288 81.76 48.224C81.76 46.4772 79.0325 45.056 75.68 45.056Z" fill="white"/>
<defs>
<filter id="filter0_d" x="0" y="0" width="88" height="88" filterUnits="userSpaceOnUse" color-interpolation-filters="sRGB">
<feFlood flood-opacity="0" result="BackgroundImageFix"/>
<feColorMatrix in="SourceAlpha" type="matrix" values="0 0 0 0 0 0 0 0 0 0 0 0 0 0 0 0 0 0 127 0"/>
<feOffset dy="4"/>
<feGaussianBlur stdDeviation="2"/>
<feColorMatrix type="matrix" values="0 0 0 0 0 0 0 0 0 0 0 0 0 0 0 0 0 0 0.25 0"/>
<feBlend mode="normal" in2="BackgroundImageFix" result="effect1_dropShadow"/>
<feBlend mode="normal" in="SourceGraphic" in2="effect1_dropShadow" result="shape"/>
</filter>
<clipPath id="clip0">
<rect width="56" height="43.52" fill="white" transform="translate(13.6 8.95999)"/>
</clipPath>
</defs>
</svg>
