<svg xmlns="http://www.w3.org/2000/svg" width="88" height="88" fill="none" viewBox="0 0 88 88"><g filter="url(#filter0_d)"><path fill="#4472CA" d="M64 0H24C12.9543 0 4 8.9543 4 20V60C4 71.0457 12.9543 80 24 80H64C75.0457 80 84 71.0457 84 60V20C84 8.9543 75.0457 0 64 0Z"/></g><path fill="#fff" d="M27.2274 63.296L27.4074 64.367H27.4524L27.6504 63.287L28.9644 59.66H30.3684L27.8214 66.005H26.8674L24.3024 59.66H25.8504L27.2274 63.296ZM34.2406 65.528C34.0366 65.684 33.7576 65.819 33.4036 65.933C33.0556 66.041 32.6806 66.095 32.2786 66.095C31.4686 66.095 30.8746 65.873 30.4966 65.429C30.1186 64.985 29.9296 64.376 29.9296 63.602C29.9296 62.78 30.1426 62.159 30.5686 61.739C30.9946 61.313 31.5946 61.1 32.3686 61.1C32.6206 61.1 32.8696 61.133 33.1156 61.199C33.3616 61.259 33.5806 61.364 33.7726 61.514C33.9646 61.658 34.1176 61.856 34.2316 62.108C34.3516 62.354 34.4116 62.66 34.4116 63.026C34.4116 63.152 34.4026 63.29 34.3846 63.44C34.3726 63.59 34.3486 63.746 34.3126 63.908H31.1626C31.1926 64.316 31.3096 64.619 31.5136 64.817C31.7236 65.009 32.0626 65.105 32.5306 65.105C32.8126 65.105 33.0646 65.066 33.2866 64.988C33.5146 64.904 33.6886 64.82 33.8086 64.736L34.2406 65.528ZM32.3506 62.09C31.9786 62.09 31.7026 62.192 31.5226 62.396C31.3426 62.594 31.2376 62.849 31.2076 63.161H33.2416C33.2656 62.831 33.2056 62.57 33.0616 62.378C32.9176 62.186 32.6806 62.09 32.3506 62.09ZM38.7293 65.96V63.368C38.7293 62.96 38.6663 62.666 38.5403 62.486C38.4143 62.306 38.1923 62.216 37.8743 62.216C37.6043 62.216 37.3733 62.291 37.1813 62.441C36.9953 62.585 36.8663 62.771 36.7943 62.999C36.7943 63.491 36.7943 63.986 36.7943 64.484C36.8003 64.976 36.8033 65.468 36.8033 65.96H35.5433V61.235H36.5333L36.6683 61.91H36.8033C36.9593 61.688 37.1663 61.499 37.4243 61.343C37.6823 61.181 38.0183 61.1 38.4323 61.1C38.6843 61.1 38.9063 61.133 39.0983 61.199C39.2963 61.259 39.4583 61.367 39.5843 61.523C39.7163 61.673 39.8153 61.877 39.8813 62.135C39.9533 62.393 39.9893 62.717 39.9893 63.107V65.96H38.7293ZM40.7066 61.235H41.4266V60.587L42.6866 60.254V61.235H43.9556V62.288H42.6866V63.926C42.6866 64.304 42.7226 64.577 42.7946 64.745C42.8726 64.907 43.0226 64.988 43.2446 64.988C43.3826 64.988 43.4996 64.979 43.5956 64.961C43.6916 64.937 43.7936 64.901 43.9016 64.853L44.1626 65.798C43.9706 65.882 43.7486 65.954 43.4966 66.014C43.2506 66.074 43.0106 66.104 42.7766 66.104C42.3086 66.104 41.9666 65.99 41.7506 65.762C41.5346 65.528 41.4266 65.156 41.4266 64.646V62.288H40.7066V61.235ZM44.8763 61.559C45.1463 61.439 45.4763 61.34 45.8663 61.262C46.2623 61.184 46.6703 61.145 47.0903 61.145C47.4203 61.145 47.6963 61.184 47.9183 61.262C48.1463 61.34 48.3263 61.454 48.4583 61.604C48.5903 61.748 48.6833 61.925 48.7373 62.135C48.7973 62.339 48.8273 62.567 48.8273 62.819C48.8273 63.125 48.8153 63.428 48.7913 63.728C48.7673 64.028 48.7553 64.346 48.7553 64.682C48.7553 64.91 48.7703 65.132 48.8003 65.348C48.8303 65.564 48.8783 65.771 48.9443 65.969H47.9183L47.7113 65.267H47.6033C47.4473 65.477 47.2493 65.657 47.0093 65.807C46.7693 65.957 46.4603 66.032 46.0823 66.032C45.8543 66.032 45.6443 65.999 45.4523 65.933C45.2663 65.867 45.1043 65.774 44.9663 65.654C44.8343 65.528 44.7293 65.381 44.6513 65.213C44.5793 65.045 44.5433 64.862 44.5433 64.664C44.5433 64.13 44.7203 63.728 45.0743 63.458C45.4343 63.182 45.9773 63.044 46.7033 63.044C46.8713 63.044 47.0393 63.059 47.2073 63.089C47.3753 63.113 47.4923 63.131 47.5583 63.143C47.5763 63.017 47.5853 62.909 47.5853 62.819C47.5853 62.591 47.5283 62.423 47.4143 62.315C47.3003 62.207 47.0873 62.153 46.7753 62.153C46.4873 62.153 46.2053 62.189 45.9293 62.261C45.6593 62.327 45.4193 62.411 45.2093 62.513L44.8763 61.559ZM46.5233 65.024C46.8053 65.024 47.0303 64.958 47.1983 64.826C47.3663 64.694 47.4893 64.556 47.5673 64.412V63.872C47.5373 63.86 47.4893 63.848 47.4233 63.836C47.3633 63.824 47.2943 63.812 47.2163 63.8C47.1443 63.788 47.0693 63.779 46.9913 63.773C46.9193 63.767 46.8533 63.764 46.7933 63.764C46.4693 63.764 46.2293 63.824 46.0733 63.944C45.9173 64.058 45.8393 64.202 45.8393 64.376C45.8393 64.592 45.8993 64.754 46.0193 64.862C46.1453 64.97 46.3133 65.024 46.5233 65.024ZM56.9225 64.304C56.9225 64.556 56.9255 64.817 56.9315 65.087C56.9375 65.357 56.9645 65.651 57.0125 65.969H56.1395L55.9595 65.312H55.8425C55.7045 65.552 55.5065 65.744 55.2485 65.888C54.9965 66.026 54.6935 66.095 54.3395 66.095C53.7095 66.095 53.2205 65.9 52.8725 65.51C52.5245 65.114 52.3505 64.505 52.3505 63.683C52.3505 63.287 52.3985 62.93 52.4945 62.612C52.5965 62.294 52.7435 62.024 52.9355 61.802C53.1335 61.58 53.3765 61.409 53.6645 61.289C53.9525 61.169 54.2855 61.109 54.6635 61.109C54.8735 61.109 55.0535 61.127 55.2035 61.163C55.3595 61.193 55.5125 61.232 55.6625 61.28V59.66H56.9225V64.304ZM54.6635 65.042C54.9455 65.042 55.1645 64.979 55.3205 64.853C55.4765 64.721 55.5905 64.535 55.6625 64.295V62.405C55.5545 62.321 55.4375 62.261 55.3115 62.225C55.1915 62.183 55.0325 62.162 54.8345 62.162C54.4325 62.162 54.1325 62.279 53.9345 62.513C53.7425 62.747 53.6465 63.149 53.6465 63.719C53.6465 64.115 53.7275 64.436 53.8895 64.682C54.0575 64.922 54.3155 65.042 54.6635 65.042ZM62.3128 65.528C62.1088 65.684 61.8298 65.819 61.4758 65.933C61.1278 66.041 60.7528 66.095 60.3508 66.095C59.5408 66.095 58.9468 65.873 58.5688 65.429C58.1908 64.985 58.0018 64.376 58.0018 63.602C58.0018 62.78 58.2148 62.159 58.6408 61.739C59.0668 61.313 59.6668 61.1 60.4408 61.1C60.6928 61.1 60.9418 61.133 61.1878 61.199C61.4338 61.259 61.6528 61.364 61.8448 61.514C62.0368 61.658 62.1898 61.856 62.3038 62.108C62.4238 62.354 62.4838 62.66 62.4838 63.026C62.4838 63.152 62.4748 63.29 62.4568 63.44C62.4448 63.59 62.4208 63.746 62.3848 63.908H59.2348C59.2648 64.316 59.3818 64.619 59.5858 64.817C59.7958 65.009 60.1348 65.105 60.6028 65.105C60.8848 65.105 61.1368 65.066 61.3588 64.988C61.5868 64.904 61.7608 64.82 61.8808 64.736L62.3128 65.528ZM60.4228 62.09C60.0508 62.09 59.7748 62.192 59.5948 62.396C59.4148 62.594 59.3098 62.849 59.2798 63.161H61.3138C61.3378 62.831 61.2778 62.57 61.1338 62.378C60.9898 62.186 60.7528 62.09 60.4228 62.09ZM22.3143 71.723C22.5843 71.675 22.8843 71.639 23.2143 71.615C23.5443 71.585 23.8743 71.57 24.2043 71.57C24.5403 71.57 24.8793 71.597 25.2213 71.651C25.5633 71.699 25.8693 71.801 26.1393 71.957C26.4153 72.107 26.6403 72.32 26.8143 72.596C26.9883 72.866 27.0753 73.226 27.0753 73.676C27.0753 74.072 27.0003 74.411 26.8503 74.693C26.7003 74.969 26.4993 75.194 26.2473 75.368C26.0013 75.542 25.7193 75.671 25.4013 75.755C25.0833 75.833 24.7563 75.872 24.4203 75.872C24.3903 75.872 24.3393 75.872 24.2673 75.872C24.1953 75.872 24.1173 75.872 24.0333 75.872C23.9553 75.866 23.8803 75.86 23.8083 75.854C23.7363 75.848 23.6823 75.842 23.6463 75.836V77.96H22.3143V71.723ZM24.2943 72.74C24.1683 72.74 24.0453 72.743 23.9253 72.749C23.8113 72.755 23.7183 72.767 23.6463 72.785V74.657C23.6703 74.663 23.7093 74.669 23.7633 74.675C23.8173 74.681 23.8743 74.687 23.9343 74.693C23.9943 74.693 24.0483 74.696 24.0963 74.702C24.1503 74.702 24.1923 74.702 24.2223 74.702C24.3963 74.702 24.5703 74.69 24.7443 74.666C24.9183 74.642 25.0713 74.591 25.2033 74.513C25.3413 74.435 25.4523 74.33 25.5363 74.198C25.6203 74.06 25.6623 73.877 25.6623 73.649C25.6623 73.457 25.6233 73.304 25.5453 73.19C25.4673 73.07 25.3623 72.977 25.2303 72.911C25.1043 72.845 24.9573 72.8 24.7893 72.776C24.6273 72.752 24.4623 72.74 24.2943 72.74ZM30.4583 74.387C30.2783 74.327 30.0983 74.297 29.9183 74.297C29.6543 74.297 29.4353 74.36 29.2613 74.486C29.0933 74.612 28.9823 74.771 28.9283 74.963V77.96H27.6683V73.235H28.6583L28.7933 73.892H28.9103C29.0303 73.646 29.1893 73.457 29.3873 73.325C29.5913 73.193 29.8223 73.127 30.0803 73.127C30.2423 73.127 30.4283 73.16 30.6383 73.226L30.4583 74.387ZM31.0546 75.602C31.0546 74.822 31.2616 74.21 31.6756 73.766C32.0896 73.322 32.6806 73.1 33.4486 73.1C33.8506 73.1 34.2016 73.163 34.5016 73.289C34.8016 73.415 35.0506 73.592 35.2486 73.82C35.4466 74.042 35.5936 74.306 35.6896 74.612C35.7916 74.912 35.8426 75.242 35.8426 75.602C35.8426 75.986 35.7886 76.334 35.6806 76.646C35.5726 76.952 35.4166 77.213 35.2126 77.429C35.0086 77.645 34.7566 77.81 34.4566 77.924C34.1626 78.038 33.8266 78.095 33.4486 78.095C33.0406 78.095 32.6866 78.032 32.3866 77.906C32.0866 77.78 31.8376 77.606 31.6396 77.384C31.4416 77.156 31.2946 76.892 31.1986 76.592C31.1026 76.286 31.0546 75.956 31.0546 75.602ZM32.3506 75.602C32.3506 75.8 32.3716 75.986 32.4136 76.16C32.4556 76.334 32.5186 76.487 32.6026 76.619C32.6926 76.745 32.8066 76.847 32.9446 76.925C33.0826 77.003 33.2506 77.042 33.4486 77.042C34.1806 77.042 34.5466 76.562 34.5466 75.602C34.5466 75.392 34.5256 75.2 34.4836 75.026C34.4476 74.846 34.3846 74.693 34.2946 74.567C34.2106 74.435 34.0966 74.333 33.9526 74.261C33.8146 74.189 33.6466 74.153 33.4486 74.153C33.1066 74.153 32.8366 74.267 32.6386 74.495C32.4466 74.723 32.3506 75.092 32.3506 75.602ZM41.1725 76.304C41.1725 76.556 41.1755 76.817 41.1815 77.087C41.1875 77.357 41.2145 77.651 41.2625 77.969H40.3895L40.2095 77.312H40.0925C39.9545 77.552 39.7565 77.744 39.4985 77.888C39.2465 78.026 38.9435 78.095 38.5895 78.095C37.9595 78.095 37.4705 77.9 37.1225 77.51C36.7745 77.114 36.6005 76.505 36.6005 75.683C36.6005 75.287 36.6485 74.93 36.7445 74.612C36.8465 74.294 36.9935 74.024 37.1855 73.802C37.3835 73.58 37.6265 73.409 37.9145 73.289C38.2025 73.169 38.5355 73.109 38.9135 73.109C39.1235 73.109 39.3035 73.127 39.4535 73.163C39.6095 73.193 39.7625 73.232 39.9125 73.28V71.66H41.1725V76.304ZM38.9135 77.042C39.1955 77.042 39.4145 76.979 39.5705 76.853C39.7265 76.721 39.8405 76.535 39.9125 76.295V74.405C39.8045 74.321 39.6875 74.261 39.5615 74.225C39.4415 74.183 39.2825 74.162 39.0845 74.162C38.6825 74.162 38.3825 74.279 38.1845 74.513C37.9925 74.747 37.8965 75.149 37.8965 75.719C37.8965 76.115 37.9775 76.436 38.1395 76.682C38.3075 76.922 38.5655 77.042 38.9135 77.042ZM43.7818 73.235V75.854C43.7818 76.244 43.8358 76.529 43.9438 76.709C44.0518 76.889 44.2588 76.979 44.5648 76.979C44.8288 76.979 45.0508 76.91 45.2308 76.772C45.4108 76.634 45.5428 76.46 45.6268 76.25V73.235H46.8868V76.52C46.8868 76.772 46.8988 77.024 46.9228 77.276C46.9528 77.528 46.9918 77.756 47.0398 77.96H46.1128L45.8698 77.222H45.7708C45.6148 77.474 45.3928 77.684 45.1048 77.852C44.8168 78.014 44.4868 78.095 44.1148 78.095C43.8568 78.095 43.6288 78.062 43.4308 77.996C43.2328 77.93 43.0648 77.822 42.9268 77.672C42.7948 77.516 42.6928 77.312 42.6208 77.06C42.5548 76.808 42.5218 76.496 42.5218 76.124V73.235H43.7818ZM51.8603 77.672C51.6563 77.81 51.4103 77.915 51.1223 77.987C50.8403 78.059 50.5463 78.095 50.2403 78.095C49.8323 78.095 49.4873 78.035 49.2053 77.915C48.9293 77.795 48.7013 77.624 48.5213 77.402C48.3473 77.18 48.2213 76.919 48.1433 76.619C48.0653 76.313 48.0263 75.974 48.0263 75.602C48.0263 74.816 48.2183 74.204 48.6023 73.766C48.9923 73.322 49.5563 73.1 50.2943 73.1C50.6543 73.1 50.9483 73.13 51.1763 73.19C51.4103 73.244 51.6173 73.316 51.7973 73.406L51.4913 74.414C51.3353 74.348 51.1793 74.3 51.0233 74.27C50.8733 74.234 50.6963 74.216 50.4923 74.216C50.1143 74.216 49.8233 74.327 49.6193 74.549C49.4213 74.765 49.3223 75.116 49.3223 75.602C49.3223 75.794 49.3463 75.974 49.3943 76.142C49.4423 76.304 49.5173 76.448 49.6193 76.574C49.7213 76.7 49.8503 76.799 50.0063 76.871C50.1623 76.943 50.3453 76.979 50.5553 76.979C50.8073 76.979 51.0053 76.958 51.1493 76.916C51.2993 76.868 51.4403 76.805 51.5723 76.727L51.8603 77.672ZM52.2203 73.235H52.9403V72.587L54.2003 72.254V73.235H55.4693V74.288H54.2003V75.926C54.2003 76.304 54.2363 76.577 54.3083 76.745C54.3863 76.907 54.5363 76.988 54.7583 76.988C54.8963 76.988 55.0133 76.979 55.1093 76.961C55.2053 76.937 55.3073 76.901 55.4153 76.853L55.6763 77.798C55.4843 77.882 55.2623 77.954 55.0103 78.014C54.7643 78.074 54.5243 78.104 54.2903 78.104C53.8223 78.104 53.4803 77.99 53.2643 77.762C53.0483 77.528 52.9403 77.156 52.9403 76.646V74.288H52.2203V73.235ZM56.1122 75.602C56.1122 74.822 56.3192 74.21 56.7332 73.766C57.1472 73.322 57.7382 73.1 58.5062 73.1C58.9082 73.1 59.2592 73.163 59.5592 73.289C59.8592 73.415 60.1082 73.592 60.3062 73.82C60.5042 74.042 60.6512 74.306 60.7472 74.612C60.8492 74.912 60.9002 75.242 60.9002 75.602C60.9002 75.986 60.8462 76.334 60.7382 76.646C60.6302 76.952 60.4742 77.213 60.2702 77.429C60.0662 77.645 59.8142 77.81 59.5142 77.924C59.2202 78.038 58.8842 78.095 58.5062 78.095C58.0982 78.095 57.7442 78.032 57.4442 77.906C57.1442 77.78 56.8952 77.606 56.6972 77.384C56.4992 77.156 56.3522 76.892 56.2562 76.592C56.1602 76.286 56.1122 75.956 56.1122 75.602ZM57.4082 75.602C57.4082 75.8 57.4292 75.986 57.4712 76.16C57.5132 76.334 57.5762 76.487 57.6602 76.619C57.7502 76.745 57.8642 76.847 58.0022 76.925C58.1402 77.003 58.3082 77.042 58.5062 77.042C59.2382 77.042 59.6042 76.562 59.6042 75.602C59.6042 75.392 59.5832 75.2 59.5412 75.026C59.5052 74.846 59.4422 74.693 59.3522 74.567C59.2682 74.435 59.1542 74.333 59.0102 74.261C58.8722 74.189 58.7042 74.153 58.5062 74.153C58.1642 74.153 57.8942 74.267 57.6962 74.495C57.5042 74.723 57.4082 75.092 57.4082 75.602ZM61.9191 76.736C62.0031 76.778 62.0991 76.82 62.2071 76.862C62.3211 76.904 62.4411 76.943 62.5671 76.979C62.6991 77.015 62.8311 77.045 62.9631 77.069C63.1011 77.093 63.2391 77.105 63.3771 77.105C63.5871 77.105 63.7491 77.072 63.8631 77.006C63.9831 76.94 64.0431 76.817 64.0431 76.637C64.0431 76.493 63.9651 76.388 63.8091 76.322C63.6531 76.25 63.4611 76.181 63.2331 76.115C63.0651 76.067 62.8881 76.01 62.7021 75.944C62.5221 75.878 62.3541 75.791 62.1981 75.683C62.0481 75.569 61.9221 75.422 61.8201 75.242C61.7241 75.062 61.6761 74.834 61.6761 74.558C61.6761 74.084 61.8231 73.724 62.1171 73.478C62.4111 73.226 62.8341 73.1 63.3861 73.1C63.7461 73.1 64.0821 73.133 64.3941 73.199C64.7121 73.259 64.9671 73.331 65.1591 73.415L64.8981 74.369C64.7421 74.309 64.5411 74.249 64.2951 74.189C64.0551 74.123 63.8091 74.09 63.5571 74.09C63.3471 74.09 63.1911 74.123 63.0891 74.189C62.9871 74.249 62.9361 74.357 62.9361 74.513C62.9361 74.651 63.0141 74.756 63.1701 74.828C63.3321 74.894 63.5271 74.96 63.7551 75.026C63.9231 75.074 64.0971 75.131 64.2771 75.197C64.4631 75.257 64.6311 75.341 64.7811 75.449C64.9311 75.557 65.0541 75.698 65.1501 75.872C65.2521 76.04 65.3031 76.253 65.3031 76.511C65.3031 77.015 65.1381 77.405 64.8081 77.681C64.4841 77.957 63.9951 78.095 63.3411 78.095C62.9871 78.095 62.6571 78.062 62.3511 77.996C62.0451 77.936 61.7961 77.846 61.6041 77.726L61.9191 76.736Z"/><g clip-path="url(#clip0)"><path fill="#fff" d="M20.9759 42.9331C19.3058 42.9331 17.9519 43.9574 17.9519 45.221C17.9519 46.4847 19.3058 47.509 20.9759 47.509C22.646 47.509 23.9998 46.4847 23.9998 45.221C23.9998 43.9574 22.646 42.9331 20.9759 42.9331ZM20.9759 45.9837C20.4192 45.9837 19.9679 45.6422 19.9679 45.221C19.9679 44.7999 20.4192 44.4584 20.9759 44.4584C21.5325 44.4584 21.9839 44.7999 21.9839 45.221C21.9839 45.6422 21.5325 45.9837 20.9759 45.9837Z"/><path fill="#fff" d="M73.7058 37.0961C72.8258 35.986 71.2404 35.3067 69.5294 35.3067H69.3167C68.5177 35.3071 67.7309 35.4558 67.0256 35.7399L59.2792 38.866V28.4428H62.8072C65.8691 28.4428 68.3511 26.5649 68.3511 24.2482C68.3511 21.9316 65.8691 20.0536 62.8072 20.0536H41.1355C38.3521 20.0536 36.0956 18.3463 36.0956 16.2404C36.0956 14.1344 38.3521 12.4271 41.1355 12.4271H44.6635L50.409 18.2233C50.5994 18.4153 50.8981 18.5283 51.2154 18.5283H73.391C73.9477 18.5283 74.399 18.1869 74.399 17.7657V5.56322C74.399 5.14205 73.9477 4.80057 73.391 4.80057H51.2154C50.8981 4.80057 50.5994 4.91363 50.409 5.10563L44.6635 10.9018H41.1355C37.2387 10.9018 34.0797 13.292 34.0797 16.2404C34.0797 19.1888 37.2387 21.579 41.1355 21.579H62.8072C64.7556 21.579 66.3351 22.774 66.3351 24.2482C66.3351 25.7225 64.7556 26.9175 62.8072 26.9175H59.2792V23.8669C59.2792 23.4457 58.8279 23.1043 58.2713 23.1043H30.0477C29.4911 23.1043 29.0397 23.4457 29.0397 23.8669V35.3067C28.2582 35.5132 27.5007 35.7683 26.7748 36.0694H13.92V37.5947H26.0158V49.0345H13.92V50.5598H52.1145C53.0282 50.5598 53.9247 50.3718 54.708 50.016L72.0343 42.1508C74.3407 41.1041 75.089 38.8411 73.7058 37.0961ZM53.2438 13.8215C54.8184 13.4003 55.6436 12.0931 55.0868 10.9018C54.5301 9.71044 52.8023 9.08611 51.2279 9.50738C50.3667 9.7377 49.6893 10.2503 49.3849 10.9018H47.1834L51.7194 6.32588H72.383V17.003H51.7194L47.1834 12.4271H49.3849C49.9415 13.6185 51.6694 14.2428 53.2438 13.8215ZM51.2154 11.6645C51.2154 11.2433 51.6667 10.9018 52.2234 10.9018C52.78 10.9018 53.2313 11.2433 53.2313 11.6645C53.2313 12.0856 52.78 12.4271 52.2234 12.4271C51.6667 12.4271 51.2154 12.0856 51.2154 11.6645ZM42.1435 24.6296H46.1755V27.6802H42.1435V24.6296ZM31.0557 24.6296H40.1276V28.4428C40.1276 28.864 40.5789 29.2055 41.1355 29.2055H47.1834C47.7401 29.2055 48.1914 28.864 48.1914 28.4428V24.6296H57.2633V39.679L55.6122 40.3448C56.228 38.5076 54.7586 36.6405 52.3302 36.1746C51.9658 36.1047 51.5914 36.0694 51.2154 36.0694H41.3986C38.242 34.7674 34.58 34.3484 31.0557 34.8857V24.6296ZM70.9971 40.8428L53.6708 48.7081C53.2007 48.9216 52.6628 49.0345 52.1145 49.0345H28.0318V37.2896C32.0103 35.7501 36.7457 35.8283 40.6316 37.4978C40.7854 37.5631 40.9592 37.5966 41.1355 37.5947H51.2154C52.6072 37.5947 53.7353 38.4483 53.7353 39.5013C53.7353 40.5544 52.6072 41.408 51.2154 41.408H42.1435C41.5869 41.408 41.1355 41.7494 41.1355 42.1706C41.1355 42.5918 41.5869 42.9333 42.1435 42.9333H53.2313C53.3969 42.9335 53.56 42.9029 53.7061 42.844L67.9741 37.086C68.3875 36.9195 68.8485 36.8323 69.3167 36.832H69.5294C71.1054 36.8319 72.3832 37.7985 72.3833 38.9909C72.3833 39.7497 71.8571 40.4526 70.9971 40.8428Z"/><path fill="#fff" d="M68.3406 12.8332C68.2621 12.2529 67.7957 11.7437 67.1052 11.4843L64.4522 10.4806C64.3342 10.437 64.2853 10.3291 64.343 10.2399C64.3823 10.179 64.4634 10.14 64.553 10.1389H68.3511V8.61364H66.3351V7.85098H64.3192V8.63194C63.0853 8.72746 62.1874 9.56171 62.3137 10.4953C62.3922 11.0756 62.8586 11.5848 63.5491 11.8442L66.2021 12.8479C66.3201 12.8916 66.369 12.9994 66.3113 13.0886C66.272 13.1495 66.1909 13.1885 66.1013 13.1896H62.3032V14.7149H64.3192V15.4775H66.3351V14.6966C67.569 14.601 68.4669 13.7668 68.3406 12.8332Z"/></g><defs><filter id="filter0_d" width="88" height="88" x="0" y="0" color-interpolation-filters="sRGB" filterUnits="userSpaceOnUse"><feFlood flood-opacity="0" result="BackgroundImageFix"/><feColorMatrix in="SourceAlpha" type="matrix" values="0 0 0 0 0 0 0 0 0 0 0 0 0 0 0 0 0 0 127 0"/><feOffset dy="4"/><feGaussianBlur stdDeviation="2"/><feColorMatrix type="matrix" values="0 0 0 0 0 0 0 0 0 0 0 0 0 0 0 0 0 0 0.25 0"/><feBlend in2="BackgroundImageFix" mode="normal" result="effect1_dropShadow"/><feBlend in="SourceGraphic" in2="effect1_dropShadow" mode="normal" result="shape"/></filter><clipPath id="clip0"><rect width="60.48" height="45.76" fill="#fff" transform="translate(13.92 4.79999)"/></clipPath></defs></svg>