<svg width="258" height="258" viewBox="0 0 258 258" fill="none" xmlns="http://www.w3.org/2000/svg">
<g filter="url(#filter0_d)">
<path d="M204 0H54C26.3858 0 4 22.3858 4 50V200C4 227.614 26.3858 250 54 250H204C231.614 250 254 227.614 254 200V50C254 22.3858 231.614 0 204 0Z" fill="#ED254E"/>
</g>
<path d="M36.9898 234.28C36.4618 234.648 35.7658 234.912 34.9018 235.072C34.0378 235.248 33.1498 235.336 32.2378 235.336C31.1658 235.336 30.1338 235.176 29.1418 234.856C28.1658 234.536 27.2938 234.024 26.5258 233.32C25.7738 232.616 25.1738 231.712 24.7258 230.608C24.2778 229.504 24.0538 228.168 24.0538 226.6C24.0538 224.968 24.3098 223.6 24.8218 222.496C25.3338 221.376 25.9898 220.48 26.7898 219.808C27.5898 219.12 28.4778 218.624 29.4538 218.32C30.4298 218.016 31.3898 217.864 32.3338 217.864C33.3738 217.864 34.2458 217.928 34.9498 218.056C35.6698 218.184 36.2618 218.336 36.7258 218.512L36.0298 221.488C35.6298 221.312 35.1578 221.184 34.6138 221.104C34.0858 221.024 33.4138 220.984 32.5978 220.984C31.8778 220.984 31.2218 221.104 30.6298 221.344C30.0538 221.568 29.5578 221.912 29.1418 222.376C28.7258 222.84 28.3978 223.424 28.1578 224.128C27.9338 224.832 27.8218 225.656 27.8218 226.6C27.8218 227.432 27.9258 228.192 28.1338 228.88C28.3418 229.568 28.6538 230.16 29.0698 230.656C29.4858 231.152 30.0138 231.536 30.6538 231.808C31.2938 232.08 32.0378 232.216 32.8858 232.216C33.6698 232.216 34.3258 232.144 34.8538 232C35.3978 231.856 35.8778 231.672 36.2938 231.448L36.9898 234.28ZM46.5586 225.472C46.0786 225.312 45.5986 225.232 45.1186 225.232C44.4146 225.232 43.8306 225.4 43.3666 225.736C42.9186 226.072 42.6226 226.496 42.4786 227.008V235H39.1186V222.4H41.7586L42.1186 224.152H42.4306C42.7506 223.496 43.1746 222.992 43.7026 222.64C44.2466 222.288 44.8626 222.112 45.5506 222.112C45.9826 222.112 46.4786 222.2 47.0386 222.376L46.5586 225.472ZM59.6446 233.848C59.1006 234.264 58.3566 234.624 57.4126 234.928C56.4846 235.216 55.4846 235.36 54.4126 235.36C52.2526 235.36 50.6686 234.768 49.6606 233.584C48.6526 232.4 48.1486 230.776 48.1486 228.712C48.1486 226.52 48.7166 224.864 49.8526 223.744C50.9886 222.608 52.5886 222.04 54.6526 222.04C55.3246 222.04 55.9886 222.128 56.6446 222.304C57.3006 222.464 57.8846 222.744 58.3966 223.144C58.9086 223.528 59.3166 224.056 59.6206 224.728C59.9406 225.384 60.1006 226.2 60.1006 227.176C60.1006 227.512 60.0766 227.88 60.0286 228.28C59.9966 228.68 59.9326 229.096 59.8366 229.528H51.4366C51.5166 230.616 51.8286 231.424 52.3726 231.952C52.9326 232.464 53.8366 232.72 55.0846 232.72C55.8366 232.72 56.5086 232.616 57.1006 232.408C57.7086 232.184 58.1726 231.96 58.4926 231.736L59.6446 233.848ZM54.6046 224.68C53.6126 224.68 52.8766 224.952 52.3966 225.496C51.9166 226.024 51.6366 226.704 51.5566 227.536H56.9806C57.0446 226.656 56.8846 225.96 56.5006 225.448C56.1166 224.936 55.4846 224.68 54.6046 224.68ZM62.9986 223.264C63.7186 222.944 64.5986 222.68 65.6386 222.472C66.6946 222.264 67.7826 222.16 68.9026 222.16C69.7826 222.16 70.5186 222.264 71.1106 222.472C71.7186 222.68 72.1986 222.984 72.5506 223.384C72.9026 223.768 73.1506 224.24 73.2946 224.8C73.4546 225.344 73.5346 225.952 73.5346 226.624C73.5346 227.44 73.5026 228.248 73.4386 229.048C73.3746 229.848 73.3426 230.696 73.3426 231.592C73.3426 232.2 73.3826 232.792 73.4626 233.368C73.5426 233.944 73.6706 234.496 73.8466 235.024H71.1106L70.5586 233.152H70.2706C69.8546 233.712 69.3266 234.192 68.6866 234.592C68.0466 234.992 67.2226 235.192 66.2146 235.192C65.6066 235.192 65.0466 235.104 64.5346 234.928C64.0386 234.752 63.6066 234.504 63.2386 234.184C62.8866 233.848 62.6066 233.456 62.3986 233.008C62.2066 232.56 62.1106 232.072 62.1106 231.544C62.1106 230.12 62.5826 229.048 63.5266 228.328C64.4866 227.592 65.9346 227.224 67.8706 227.224C68.3186 227.224 68.7666 227.264 69.2146 227.344C69.6626 227.408 69.9746 227.456 70.1506 227.488C70.1986 227.152 70.2226 226.864 70.2226 226.624C70.2226 226.016 70.0706 225.568 69.7666 225.28C69.4626 224.992 68.8946 224.848 68.0626 224.848C67.2946 224.848 66.5426 224.944 65.8066 225.136C65.0866 225.312 64.4466 225.536 63.8866 225.808L62.9986 223.264ZM67.3906 232.504C68.1426 232.504 68.7426 232.328 69.1906 231.976C69.6386 231.624 69.9666 231.256 70.1746 230.872V229.432C70.0946 229.4 69.9666 229.368 69.7906 229.336C69.6306 229.304 69.4466 229.272 69.2386 229.24C69.0466 229.208 68.8466 229.184 68.6386 229.168C68.4466 229.152 68.2706 229.144 68.1106 229.144C67.2466 229.144 66.6066 229.304 66.1906 229.624C65.7746 229.928 65.5666 230.312 65.5666 230.776C65.5666 231.352 65.7266 231.784 66.0466 232.072C66.3826 232.36 66.8306 232.504 67.3906 232.504ZM84.4571 225.472C83.9771 225.312 83.4971 225.232 83.0171 225.232C82.3131 225.232 81.7291 225.4 81.2651 225.736C80.8171 226.072 80.5211 226.496 80.3771 227.008V235H77.0171V222.4H79.6571L80.0171 224.152H80.3291C80.6491 223.496 81.0731 222.992 81.6011 222.64C82.1451 222.288 82.7611 222.112 83.4491 222.112C83.8811 222.112 84.3771 222.2 84.9371 222.376L84.4571 225.472ZM107.392 226.576L107.776 223.096H107.632L106.48 225.736L102.592 232H101.488L97.3599 225.712L96.2319 223.12H96.0879L96.5919 226.552V235H93.2319V218.2H96.4479L101.296 225.952L102.208 227.8H102.328L103.12 225.904L107.752 218.2H110.944V235H107.392V226.576ZM125.012 233.848C124.468 234.264 123.724 234.624 122.78 234.928C121.852 235.216 120.852 235.36 119.78 235.36C117.62 235.36 116.036 234.768 115.028 233.584C114.02 232.4 113.516 230.776 113.516 228.712C113.516 226.52 114.084 224.864 115.22 223.744C116.356 222.608 117.956 222.04 120.02 222.04C120.692 222.04 121.356 222.128 122.012 222.304C122.668 222.464 123.252 222.744 123.764 223.144C124.276 223.528 124.684 224.056 124.988 224.728C125.308 225.384 125.468 226.2 125.468 227.176C125.468 227.512 125.444 227.88 125.396 228.28C125.364 228.68 125.3 229.096 125.204 229.528H116.804C116.884 230.616 117.196 231.424 117.74 231.952C118.3 232.464 119.204 232.72 120.452 232.72C121.204 232.72 121.876 232.616 122.468 232.408C123.076 232.184 123.54 231.96 123.86 231.736L125.012 233.848ZM119.972 224.68C118.98 224.68 118.244 224.952 117.764 225.496C117.284 226.024 117.004 226.704 116.924 227.536H122.348C122.412 226.656 122.252 225.96 121.868 225.448C121.484 224.936 120.852 224.68 119.972 224.68ZM136.358 235V228.424C136.358 227.208 136.23 226.336 135.974 225.808C135.718 225.28 135.19 225.016 134.39 225.016C133.718 225.016 133.182 225.184 132.782 225.52C132.382 225.84 132.07 226.264 131.846 226.792V235H128.486V222.4H131.078L131.462 224.152H131.774C131.982 223.88 132.222 223.616 132.494 223.36C132.766 223.104 133.062 222.88 133.382 222.688C133.718 222.496 134.086 222.344 134.486 222.232C134.902 222.104 135.366 222.04 135.878 222.04C136.726 222.04 137.43 222.232 137.99 222.616C138.566 222.984 139.022 223.608 139.358 224.488C139.822 223.72 140.382 223.12 141.038 222.688C141.71 222.256 142.486 222.04 143.366 222.04C144.134 222.04 144.782 222.128 145.31 222.304C145.854 222.48 146.294 222.784 146.63 223.216C146.966 223.648 147.206 224.232 147.35 224.968C147.51 225.704 147.59 226.624 147.59 227.728V235H144.23V228.256C144.23 227.728 144.206 227.264 144.158 226.864C144.11 226.464 144.014 226.128 143.87 225.856C143.726 225.568 143.518 225.36 143.246 225.232C142.99 225.088 142.646 225.016 142.214 225.016C141.542 225.016 140.998 225.192 140.582 225.544C140.182 225.88 139.894 226.352 139.718 226.96V235H136.358ZM151.056 218.2H154.416V223.48H154.704C155.088 223.048 155.576 222.712 156.168 222.472C156.776 222.216 157.44 222.088 158.16 222.088C159.792 222.088 161.032 222.624 161.88 223.696C162.744 224.752 163.176 226.304 163.176 228.352C163.176 229.456 163.016 230.44 162.696 231.304C162.392 232.168 161.952 232.896 161.376 233.488C160.8 234.08 160.096 234.536 159.264 234.856C158.432 235.16 157.496 235.312 156.456 235.312C155.256 235.312 154.184 235.224 153.24 235.048C152.296 234.888 151.568 234.704 151.056 234.496V218.2ZM154.416 232.144C154.736 232.304 155.072 232.408 155.424 232.456C155.792 232.488 156.184 232.504 156.6 232.504C158.68 232.504 159.72 231.144 159.72 228.424C159.72 227.272 159.504 226.4 159.072 225.808C158.64 225.2 158 224.896 157.152 224.896C156.432 224.896 155.848 225.064 155.4 225.4C154.968 225.736 154.64 226.232 154.416 226.888V232.144ZM173.356 225.472C172.876 225.312 172.396 225.232 171.916 225.232C171.212 225.232 170.628 225.4 170.164 225.736C169.716 226.072 169.42 226.496 169.276 227.008V235H165.916V222.4H168.556L168.916 224.152H169.228C169.548 223.496 169.972 222.992 170.5 222.64C171.044 222.288 171.66 222.112 172.348 222.112C172.78 222.112 173.276 222.2 173.836 222.376L173.356 225.472ZM186.442 233.848C185.898 234.264 185.154 234.624 184.21 234.928C183.282 235.216 182.282 235.36 181.21 235.36C179.05 235.36 177.466 234.768 176.458 233.584C175.45 232.4 174.946 230.776 174.946 228.712C174.946 226.52 175.514 224.864 176.65 223.744C177.786 222.608 179.386 222.04 181.45 222.04C182.122 222.04 182.786 222.128 183.442 222.304C184.098 222.464 184.682 222.744 185.194 223.144C185.706 223.528 186.114 224.056 186.418 224.728C186.738 225.384 186.898 226.2 186.898 227.176C186.898 227.512 186.874 227.88 186.826 228.28C186.794 228.68 186.73 229.096 186.634 229.528H178.234C178.314 230.616 178.626 231.424 179.17 231.952C179.73 232.464 180.634 232.72 181.882 232.72C182.634 232.72 183.306 232.616 183.898 232.408C184.506 232.184 184.97 231.96 185.29 231.736L186.442 233.848ZM181.402 224.68C180.41 224.68 179.674 224.952 179.194 225.496C178.714 226.024 178.434 226.704 178.354 227.536H183.778C183.842 226.656 183.682 225.96 183.298 225.448C182.914 224.936 182.282 224.68 181.402 224.68ZM189.892 231.736C190.116 231.848 190.372 231.96 190.66 232.072C190.964 232.184 191.284 232.288 191.62 232.384C191.972 232.48 192.324 232.56 192.676 232.624C193.044 232.688 193.412 232.72 193.78 232.72C194.34 232.72 194.772 232.632 195.076 232.456C195.396 232.28 195.556 231.952 195.556 231.472C195.556 231.088 195.348 230.808 194.932 230.632C194.516 230.44 194.004 230.256 193.396 230.08C192.948 229.952 192.476 229.8 191.98 229.624C191.5 229.448 191.052 229.216 190.636 228.928C190.236 228.624 189.9 228.232 189.628 227.752C189.372 227.272 189.244 226.664 189.244 225.928C189.244 224.664 189.636 223.704 190.42 223.048C191.204 222.376 192.332 222.04 193.804 222.04C194.764 222.04 195.66 222.128 196.492 222.304C197.34 222.464 198.02 222.656 198.532 222.88L197.836 225.424C197.42 225.264 196.884 225.104 196.228 224.944C195.588 224.768 194.932 224.68 194.26 224.68C193.7 224.68 193.284 224.768 193.012 224.944C192.74 225.104 192.604 225.392 192.604 225.808C192.604 226.176 192.812 226.456 193.228 226.648C193.66 226.824 194.18 227 194.788 227.176C195.236 227.304 195.7 227.456 196.18 227.632C196.676 227.792 197.124 228.016 197.524 228.304C197.924 228.592 198.252 228.968 198.508 229.432C198.78 229.88 198.916 230.448 198.916 231.136C198.916 232.48 198.476 233.52 197.596 234.256C196.732 234.992 195.428 235.36 193.684 235.36C192.74 235.36 191.86 235.272 191.044 235.096C190.228 234.936 189.564 234.696 189.052 234.376L189.892 231.736ZM201.925 222.4H205.285V235H201.925V222.4ZM201.421 219.256C201.421 218.744 201.605 218.32 201.973 217.984C202.341 217.632 202.861 217.456 203.533 217.456C204.221 217.456 204.765 217.632 205.165 217.984C205.565 218.336 205.765 218.76 205.765 219.256C205.765 219.72 205.565 220.12 205.165 220.456C204.765 220.792 204.221 220.96 203.533 220.96C202.861 220.96 202.341 220.792 201.973 220.456C201.605 220.12 201.421 219.72 201.421 219.256ZM209.014 223.264C209.734 222.944 210.614 222.68 211.654 222.472C212.71 222.264 213.798 222.16 214.918 222.16C215.798 222.16 216.534 222.264 217.126 222.472C217.734 222.68 218.214 222.984 218.566 223.384C218.918 223.768 219.166 224.24 219.31 224.8C219.47 225.344 219.55 225.952 219.55 226.624C219.55 227.44 219.518 228.248 219.454 229.048C219.39 229.848 219.358 230.696 219.358 231.592C219.358 232.2 219.398 232.792 219.478 233.368C219.558 233.944 219.686 234.496 219.862 235.024H217.126L216.574 233.152H216.286C215.87 233.712 215.342 234.192 214.702 234.592C214.062 234.992 213.238 235.192 212.23 235.192C211.622 235.192 211.062 235.104 210.55 234.928C210.054 234.752 209.622 234.504 209.254 234.184C208.902 233.848 208.622 233.456 208.414 233.008C208.222 232.56 208.126 232.072 208.126 231.544C208.126 230.12 208.598 229.048 209.542 228.328C210.502 227.592 211.95 227.224 213.886 227.224C214.334 227.224 214.782 227.264 215.23 227.344C215.678 227.408 215.99 227.456 216.166 227.488C216.214 227.152 216.238 226.864 216.238 226.624C216.238 226.016 216.086 225.568 215.782 225.28C215.478 224.992 214.91 224.848 214.078 224.848C213.31 224.848 212.558 224.944 211.822 225.136C211.102 225.312 210.462 225.536 209.902 225.808L209.014 223.264ZM213.406 232.504C214.158 232.504 214.758 232.328 215.206 231.976C215.654 231.624 215.982 231.256 216.19 230.872V229.432C216.11 229.4 215.982 229.368 215.806 229.336C215.646 229.304 215.462 229.272 215.254 229.24C215.062 229.208 214.862 229.184 214.654 229.168C214.462 229.152 214.286 229.144 214.126 229.144C213.262 229.144 212.622 229.304 212.206 229.624C211.79 229.928 211.582 230.312 211.582 230.776C211.582 231.352 211.742 231.784 212.062 232.072C212.398 232.36 212.846 232.504 213.406 232.504ZM223.009 231.736C223.233 231.848 223.489 231.96 223.777 232.072C224.081 232.184 224.401 232.288 224.737 232.384C225.089 232.48 225.441 232.56 225.793 232.624C226.161 232.688 226.529 232.72 226.897 232.72C227.457 232.72 227.889 232.632 228.193 232.456C228.513 232.28 228.673 231.952 228.673 231.472C228.673 231.088 228.465 230.808 228.049 230.632C227.633 230.44 227.121 230.256 226.513 230.08C226.065 229.952 225.593 229.8 225.097 229.624C224.617 229.448 224.169 229.216 223.753 228.928C223.353 228.624 223.017 228.232 222.745 227.752C222.489 227.272 222.361 226.664 222.361 225.928C222.361 224.664 222.753 223.704 223.537 223.048C224.321 222.376 225.449 222.04 226.921 222.04C227.881 222.04 228.777 222.128 229.609 222.304C230.457 222.464 231.137 222.656 231.649 222.88L230.953 225.424C230.537 225.264 230.001 225.104 229.345 224.944C228.705 224.768 228.049 224.68 227.377 224.68C226.817 224.68 226.401 224.768 226.129 224.944C225.857 225.104 225.721 225.392 225.721 225.808C225.721 226.176 225.929 226.456 226.345 226.648C226.777 226.824 227.297 227 227.905 227.176C228.353 227.304 228.817 227.456 229.297 227.632C229.793 227.792 230.241 228.016 230.641 228.304C231.041 228.592 231.369 228.968 231.625 229.432C231.897 229.88 232.033 230.448 232.033 231.136C232.033 232.48 231.593 233.52 230.713 234.256C229.849 234.992 228.545 235.36 226.801 235.36C225.857 235.36 224.977 235.272 224.161 235.096C223.345 234.936 222.681 234.696 222.169 234.376L223.009 231.736Z" fill="white"/>
<path d="M191.91 45.5312H98.9414C97.0535 45.5312 95.5234 46.7203 95.5234 48.1875C95.5234 49.6547 97.0535 50.8438 98.9414 50.8438H191.91C197.564 50.8438 202.164 54.4183 202.164 58.8125V133.188C202.164 137.582 197.564 141.156 191.91 141.156H51.0898C45.4355 141.156 40.8359 137.582 40.8359 133.188V58.8125C40.8359 54.4183 45.4355 50.8438 51.0898 50.8438H71.5977C73.4856 50.8438 75.0156 49.6547 75.0156 48.1875C75.0156 46.7203 73.4856 45.5312 71.5977 45.5312H51.0898C41.6664 45.5312 34 51.4891 34 58.8125V133.188C34 140.511 41.6664 146.469 51.0898 146.469H191.91C201.334 146.469 209 140.511 209 133.188V58.8125C209 51.4891 201.334 45.5312 191.91 45.5312Z" fill="white"/>
<path d="M85.2695 59.3438C67.177 59.3438 52.457 70.7833 52.457 84.8438C52.457 98.9042 67.177 110.344 85.2695 110.344C103.362 110.344 118.082 98.9042 118.082 84.8438C118.082 70.7833 103.362 59.3438 85.2695 59.3438ZM70.4281 101.398C72.8901 96.7979 78.71 93.7111 85.2695 93.7111C91.8291 93.7111 97.6503 96.7979 100.112 101.398C95.9013 103.684 90.785 105.031 85.2695 105.031C79.7541 105.031 74.6378 103.684 70.4281 101.398ZM79.0504 83.5654V82.5673C79.0504 79.9017 81.8409 77.7341 85.2695 77.7341C88.6982 77.7341 91.4886 79.9017 91.4886 82.5673V83.5654C91.4886 86.23 88.6982 88.3986 85.2695 88.3986C81.8409 88.3986 79.0504 86.23 79.0504 83.5654ZM105.355 97.629C103.04 94.3544 99.4621 91.75 95.1856 90.1531C97.1403 88.3788 98.3246 86.0785 98.3246 83.5654V82.5673C98.3246 76.9725 92.4673 72.4216 85.2695 72.4216C78.0718 72.4216 72.2145 76.9725 72.2145 82.5673V83.5654C72.2145 86.0785 73.3988 88.3788 75.3534 90.1531C71.077 91.749 67.4988 94.3544 65.1836 97.629C61.5053 94.1448 59.293 89.6914 59.293 84.8438C59.293 73.7124 70.9461 64.6562 85.2695 64.6562C99.593 64.6562 111.246 73.7124 111.246 84.8438C111.246 89.6914 109.034 94.1448 105.355 97.629Z" fill="white"/>
<path d="M137.906 98.6562H187.125C189.013 98.6562 190.543 97.4672 190.543 96V74.75C190.543 73.2828 189.013 72.0938 187.125 72.0938H137.906C136.018 72.0938 134.488 73.2828 134.488 74.75V96C134.488 97.4672 136.018 98.6562 137.906 98.6562ZM141.324 77.4062H183.707V93.3438H141.324V77.4062Z" fill="white"/>
<path d="M137.906 109.281H187.125C189.013 109.281 190.543 108.092 190.543 106.625C190.543 105.158 189.013 103.969 187.125 103.969H137.906C136.018 103.969 134.488 105.158 134.488 106.625C134.488 108.092 136.018 109.281 137.906 109.281Z" fill="white"/>
<path d="M135.49 119.128C136.125 119.622 137.008 119.906 137.906 119.906C138.805 119.906 139.687 119.622 140.323 119.128C140.958 118.634 141.324 117.948 141.324 117.25C141.324 116.552 140.958 115.866 140.323 115.372C139.687 114.878 138.805 114.594 137.906 114.594C137.008 114.594 136.125 114.878 135.49 115.372C134.854 115.866 134.488 116.552 134.488 117.25C134.488 117.948 134.854 118.634 135.49 119.128Z" fill="white"/>
<path d="M149.162 115.372C148.526 115.866 148.16 116.552 148.16 117.25C148.16 117.948 148.526 118.634 149.162 119.128C149.797 119.622 150.68 119.906 151.578 119.906C152.477 119.906 153.359 119.622 153.995 119.128C154.63 118.634 154.996 117.948 154.996 117.25C154.996 116.552 154.63 115.866 153.995 115.372C153.359 114.878 152.477 114.594 151.578 114.594C150.68 114.594 149.797 114.878 149.162 115.372Z" fill="white"/>
<path d="M187.125 114.594H165.25C163.362 114.594 161.832 115.783 161.832 117.25C161.832 118.717 163.362 119.906 165.25 119.906H187.125C189.013 119.906 190.543 118.717 190.543 117.25C190.543 115.783 189.013 114.594 187.125 114.594Z" fill="white"/>
<path d="M109.765 118.334C109.765 116.868 108.234 115.678 106.347 115.678H64.1916C62.3051 115.678 60.7736 116.868 60.7736 118.334C60.7736 119.801 62.3051 120.991 64.1916 120.991H106.347C108.234 120.991 109.765 119.801 109.765 118.334Z" fill="white"/>
<path d="M69.6604 126.303C67.7738 126.303 66.2424 127.493 66.2424 128.959C66.2424 130.426 67.7738 131.616 69.6604 131.616H100.879C102.765 131.616 104.297 130.426 104.297 128.959C104.297 127.493 102.765 126.303 100.879 126.303H69.6604Z" fill="white"/>
<path d="M85.2695 50.8438C86.1681 50.8438 87.0506 50.5594 87.6861 50.0656C88.3217 49.5717 88.6875 48.8858 88.6875 48.1875C88.6875 47.4892 88.3217 46.8033 87.6861 46.3094C87.0506 45.8156 86.1681 45.5312 85.2695 45.5312C84.371 45.5312 83.4884 45.8156 82.8529 46.3094C82.2174 46.8033 81.8516 47.4892 81.8516 48.1875C81.8516 48.8858 82.2174 49.5717 82.8529 50.0656C83.4884 50.5594 84.371 50.8438 85.2695 50.8438Z" fill="white"/>
<g clip-path="url(#clip0)">
<path d="M241.934 164.083C240.304 164.083 238.981 165.39 238.981 167C238.981 183.083 225.73 196.167 209.444 196.167C193.157 196.167 179.907 183.083 179.907 167C179.907 150.918 193.157 137.833 209.444 137.833C217.373 137.833 224.816 140.893 230.405 146.449C231.552 147.593 233.423 147.6 234.581 146.464C235.739 145.329 235.745 143.483 234.596 142.34C227.891 135.672 218.958 132 209.444 132C189.9 132 174 147.7 174 167C174 186.3 189.9 202 209.444 202C228.988 202 244.888 186.3 244.888 167C244.888 165.39 243.565 164.083 241.934 164.083Z" fill="white"/>
<path d="M221.259 164.083H212.398V155.333C212.398 153.723 211.074 152.417 209.444 152.417C207.814 152.417 206.49 153.723 206.49 155.333V164.083H197.629C195.999 164.083 194.676 165.39 194.676 167C194.676 168.61 195.999 169.917 197.629 169.917H206.49V178.667C206.49 180.277 207.814 181.583 209.444 181.583C211.074 181.583 212.398 180.277 212.398 178.667V169.917H221.259C222.889 169.917 224.212 168.61 224.212 167C224.212 165.39 222.889 164.083 221.259 164.083Z" fill="white"/>
</g>
<defs>
<filter id="filter0_d" x="0" y="0" width="258" height="258" filterUnits="userSpaceOnUse" color-interpolation-filters="sRGB">
<feFlood flood-opacity="0" result="BackgroundImageFix"/>
<feColorMatrix in="SourceAlpha" type="matrix" values="0 0 0 0 0 0 0 0 0 0 0 0 0 0 0 0 0 0 127 0"/>
<feOffset dy="4"/>
<feGaussianBlur stdDeviation="2"/>
<feColorMatrix type="matrix" values="0 0 0 0 0 0 0 0 0 0 0 0 0 0 0 0 0 0 0.25 0"/>
<feBlend mode="normal" in2="BackgroundImageFix" result="effect1_dropShadow"/>
<feBlend mode="normal" in="SourceGraphic" in2="effect1_dropShadow" result="shape"/>
</filter>
<clipPath id="clip0">
<rect width="70.8879" height="70" fill="white" transform="translate(174 132)"/>
</clipPath>
</defs>
</svg>
