<svg width="258" height="258" viewBox="0 0 258 258" fill="none" xmlns="http://www.w3.org/2000/svg">
<g filter="url(#filter0_d)">
<path d="M204 0H54C26.3858 0 4 22.3858 4 50V200C4 227.614 26.3858 250 54 250H204C231.614 250 254 227.614 254 200V50C254 22.3858 231.614 0 204 0Z" fill="#B26E63"/>
</g>
<path d="M49.0718 235.28C48.5438 235.648 47.8478 235.912 46.9838 236.072C46.1198 236.248 45.2318 236.336 44.3198 236.336C43.2478 236.336 42.2158 236.176 41.2238 235.856C40.2478 235.536 39.3758 235.024 38.6078 234.32C37.8558 233.616 37.2558 232.712 36.8078 231.608C36.3598 230.504 36.1358 229.168 36.1358 227.6C36.1358 225.968 36.3918 224.6 36.9038 223.496C37.4158 222.376 38.0718 221.48 38.8718 220.808C39.6718 220.12 40.5598 219.624 41.5358 219.32C42.5118 219.016 43.4718 218.864 44.4158 218.864C45.4558 218.864 46.3278 218.928 47.0318 219.056C47.7518 219.184 48.3438 219.336 48.8078 219.512L48.1118 222.488C47.7118 222.312 47.2398 222.184 46.6958 222.104C46.1678 222.024 45.4958 221.984 44.6798 221.984C43.9598 221.984 43.3038 222.104 42.7118 222.344C42.1358 222.568 41.6398 222.912 41.2238 223.376C40.8078 223.84 40.4798 224.424 40.2398 225.128C40.0158 225.832 39.9038 226.656 39.9038 227.6C39.9038 228.432 40.0078 229.192 40.2158 229.88C40.4238 230.568 40.7358 231.16 41.1518 231.656C41.5678 232.152 42.0958 232.536 42.7358 232.808C43.3758 233.08 44.1198 233.216 44.9678 233.216C45.7518 233.216 46.4078 233.144 46.9358 233C47.4798 232.856 47.9598 232.672 48.3758 232.448L49.0718 235.28ZM58.6407 226.472C58.1607 226.312 57.6807 226.232 57.2007 226.232C56.4967 226.232 55.9127 226.4 55.4487 226.736C55.0007 227.072 54.7047 227.496 54.5607 228.008V236H51.2007V223.4H53.8407L54.2007 225.152H54.5127C54.8327 224.496 55.2567 223.992 55.7847 223.64C56.3287 223.288 56.9447 223.112 57.6327 223.112C58.0647 223.112 58.5607 223.2 59.1207 223.376L58.6407 226.472ZM71.7267 234.848C71.1827 235.264 70.4387 235.624 69.4947 235.928C68.5667 236.216 67.5667 236.36 66.4947 236.36C64.3347 236.36 62.7507 235.768 61.7427 234.584C60.7347 233.4 60.2307 231.776 60.2307 229.712C60.2307 227.52 60.7987 225.864 61.9347 224.744C63.0707 223.608 64.6707 223.04 66.7347 223.04C67.4067 223.04 68.0707 223.128 68.7267 223.304C69.3827 223.464 69.9667 223.744 70.4787 224.144C70.9907 224.528 71.3987 225.056 71.7027 225.728C72.0227 226.384 72.1827 227.2 72.1827 228.176C72.1827 228.512 72.1587 228.88 72.1107 229.28C72.0787 229.68 72.0147 230.096 71.9187 230.528H63.5187C63.5987 231.616 63.9107 232.424 64.4547 232.952C65.0147 233.464 65.9187 233.72 67.1667 233.72C67.9187 233.72 68.5907 233.616 69.1827 233.408C69.7907 233.184 70.2547 232.96 70.5747 232.736L71.7267 234.848ZM66.6867 225.68C65.6947 225.68 64.9587 225.952 64.4787 226.496C63.9987 227.024 63.7187 227.704 63.6387 228.536H69.0627C69.1267 227.656 68.9667 226.96 68.5827 226.448C68.1987 225.936 67.5667 225.68 66.6867 225.68ZM75.0807 224.264C75.8007 223.944 76.6807 223.68 77.7207 223.472C78.7767 223.264 79.8647 223.16 80.9847 223.16C81.8647 223.16 82.6007 223.264 83.1927 223.472C83.8007 223.68 84.2807 223.984 84.6327 224.384C84.9847 224.768 85.2327 225.24 85.3767 225.8C85.5367 226.344 85.6167 226.952 85.6167 227.624C85.6167 228.44 85.5847 229.248 85.5207 230.048C85.4567 230.848 85.4247 231.696 85.4247 232.592C85.4247 233.2 85.4647 233.792 85.5447 234.368C85.6247 234.944 85.7527 235.496 85.9287 236.024H83.1927L82.6407 234.152H82.3527C81.9367 234.712 81.4087 235.192 80.7687 235.592C80.1287 235.992 79.3047 236.192 78.2967 236.192C77.6887 236.192 77.1287 236.104 76.6167 235.928C76.1207 235.752 75.6887 235.504 75.3207 235.184C74.9687 234.848 74.6887 234.456 74.4807 234.008C74.2887 233.56 74.1927 233.072 74.1927 232.544C74.1927 231.12 74.6647 230.048 75.6087 229.328C76.5687 228.592 78.0167 228.224 79.9527 228.224C80.4007 228.224 80.8487 228.264 81.2967 228.344C81.7447 228.408 82.0567 228.456 82.2327 228.488C82.2807 228.152 82.3047 227.864 82.3047 227.624C82.3047 227.016 82.1527 226.568 81.8487 226.28C81.5447 225.992 80.9767 225.848 80.1447 225.848C79.3767 225.848 78.6247 225.944 77.8887 226.136C77.1687 226.312 76.5287 226.536 75.9687 226.808L75.0807 224.264ZM79.4727 233.504C80.2247 233.504 80.8247 233.328 81.2727 232.976C81.7207 232.624 82.0487 232.256 82.2567 231.872V230.432C82.1767 230.4 82.0487 230.368 81.8727 230.336C81.7127 230.304 81.5287 230.272 81.3207 230.24C81.1287 230.208 80.9287 230.184 80.7207 230.168C80.5287 230.152 80.3527 230.144 80.1927 230.144C79.3287 230.144 78.6887 230.304 78.2727 230.624C77.8567 230.928 77.6487 231.312 77.6487 231.776C77.6487 232.352 77.8087 232.784 78.1287 233.072C78.4647 233.36 78.9127 233.504 79.4727 233.504ZM96.5391 226.472C96.0591 226.312 95.5791 226.232 95.0991 226.232C94.3951 226.232 93.8111 226.4 93.3471 226.736C92.8991 227.072 92.6031 227.496 92.4591 228.008V236H89.0991V223.4H91.7391L92.0991 225.152H92.4111C92.7311 224.496 93.1551 223.992 93.6831 223.64C94.2271 223.288 94.8431 223.112 95.5311 223.112C95.9631 223.112 96.4591 223.2 97.0191 223.376L96.5391 226.472ZM105.314 219.368C106.034 219.24 106.834 219.144 107.714 219.08C108.594 219 109.474 218.96 110.354 218.96C111.25 218.96 112.154 219.032 113.066 219.176C113.978 219.304 114.794 219.576 115.514 219.992C116.25 220.392 116.85 220.96 117.314 221.696C117.778 222.416 118.01 223.376 118.01 224.576C118.01 225.632 117.81 226.536 117.41 227.288C117.01 228.024 116.474 228.624 115.802 229.088C115.146 229.552 114.394 229.896 113.546 230.12C112.698 230.328 111.826 230.432 110.93 230.432C110.85 230.432 110.714 230.432 110.522 230.432C110.33 230.432 110.122 230.432 109.898 230.432C109.69 230.416 109.49 230.4 109.298 230.384C109.106 230.368 108.962 230.352 108.866 230.336V236H105.314V219.368ZM110.594 222.08C110.258 222.08 109.93 222.088 109.61 222.104C109.306 222.12 109.058 222.152 108.866 222.2V227.192C108.93 227.208 109.034 227.224 109.178 227.24C109.322 227.256 109.474 227.272 109.634 227.288C109.794 227.288 109.938 227.296 110.066 227.312C110.21 227.312 110.322 227.312 110.402 227.312C110.866 227.312 111.33 227.28 111.794 227.216C112.258 227.152 112.666 227.016 113.018 226.808C113.386 226.6 113.682 226.32 113.906 225.968C114.13 225.6 114.242 225.112 114.242 224.504C114.242 223.992 114.138 223.584 113.93 223.28C113.722 222.96 113.442 222.712 113.09 222.536C112.754 222.36 112.362 222.24 111.914 222.176C111.482 222.112 111.042 222.08 110.594 222.08ZM127.031 226.472C126.551 226.312 126.071 226.232 125.591 226.232C124.887 226.232 124.303 226.4 123.839 226.736C123.391 227.072 123.095 227.496 122.951 228.008V236H119.591V223.4H122.231L122.591 225.152H122.903C123.223 224.496 123.647 223.992 124.175 223.64C124.719 223.288 125.335 223.112 126.023 223.112C126.455 223.112 126.951 223.2 127.511 223.376L127.031 226.472ZM128.621 229.712C128.621 227.632 129.173 226 130.277 224.816C131.381 223.632 132.957 223.04 135.005 223.04C136.077 223.04 137.013 223.208 137.813 223.544C138.613 223.88 139.277 224.352 139.805 224.96C140.333 225.552 140.725 226.256 140.981 227.072C141.253 227.872 141.389 228.752 141.389 229.712C141.389 230.736 141.245 231.664 140.957 232.496C140.669 233.312 140.253 234.008 139.709 234.584C139.165 235.16 138.493 235.6 137.693 235.904C136.909 236.208 136.013 236.36 135.005 236.36C133.917 236.36 132.973 236.192 132.173 235.856C131.373 235.52 130.709 235.056 130.181 234.464C129.653 233.856 129.261 233.152 129.005 232.352C128.749 231.536 128.621 230.656 128.621 229.712ZM132.077 229.712C132.077 230.24 132.133 230.736 132.245 231.2C132.357 231.664 132.525 232.072 132.749 232.424C132.989 232.76 133.293 233.032 133.661 233.24C134.029 233.448 134.477 233.552 135.005 233.552C136.957 233.552 137.933 232.272 137.933 229.712C137.933 229.152 137.877 228.64 137.765 228.176C137.669 227.696 137.501 227.288 137.261 226.952C137.037 226.6 136.733 226.328 136.349 226.136C135.981 225.944 135.533 225.848 135.005 225.848C134.093 225.848 133.373 226.152 132.845 226.76C132.333 227.368 132.077 228.352 132.077 229.712ZM155.602 231.584C155.602 232.256 155.61 232.952 155.626 233.672C155.642 234.392 155.714 235.176 155.842 236.024H153.514L153.034 234.272H152.722C152.354 234.912 151.826 235.424 151.138 235.808C150.466 236.176 149.658 236.36 148.714 236.36C147.034 236.36 145.73 235.84 144.802 234.8C143.874 233.744 143.41 232.12 143.41 229.928C143.41 228.872 143.538 227.92 143.794 227.072C144.066 226.224 144.458 225.504 144.97 224.912C145.498 224.32 146.146 223.864 146.914 223.544C147.682 223.224 148.57 223.064 149.578 223.064C150.138 223.064 150.618 223.112 151.018 223.208C151.434 223.288 151.842 223.392 152.242 223.52V219.2H155.602V231.584ZM149.578 233.552C150.33 233.552 150.914 233.384 151.33 233.048C151.746 232.696 152.05 232.2 152.242 231.56V226.52C151.954 226.296 151.642 226.136 151.306 226.04C150.986 225.928 150.562 225.872 150.034 225.872C148.962 225.872 148.162 226.184 147.634 226.808C147.122 227.432 146.866 228.504 146.866 230.024C146.866 231.08 147.082 231.936 147.514 232.592C147.962 233.232 148.65 233.552 149.578 233.552ZM162.561 223.4V230.384C162.561 231.424 162.705 232.184 162.993 232.664C163.281 233.144 163.833 233.384 164.649 233.384C165.353 233.384 165.945 233.2 166.425 232.832C166.905 232.464 167.257 232 167.481 231.44V223.4H170.841V232.16C170.841 232.832 170.873 233.504 170.937 234.176C171.017 234.848 171.121 235.456 171.249 236H168.777L168.129 234.032H167.865C167.449 234.704 166.857 235.264 166.089 235.712C165.321 236.144 164.441 236.36 163.449 236.36C162.761 236.36 162.153 236.272 161.625 236.096C161.097 235.92 160.649 235.632 160.281 235.232C159.929 234.816 159.657 234.272 159.465 233.6C159.289 232.928 159.201 232.096 159.201 231.104V223.4H162.561ZM184.103 235.232C183.559 235.6 182.903 235.88 182.135 236.072C181.383 236.264 180.599 236.36 179.783 236.36C178.695 236.36 177.775 236.2 177.023 235.88C176.287 235.56 175.679 235.104 175.199 234.512C174.735 233.92 174.399 233.224 174.191 232.424C173.983 231.608 173.879 230.704 173.879 229.712C173.879 227.616 174.391 225.984 175.415 224.816C176.455 223.632 177.959 223.04 179.927 223.04C180.887 223.04 181.671 223.12 182.279 223.28C182.903 223.424 183.455 223.616 183.935 223.856L183.119 226.544C182.703 226.368 182.287 226.24 181.871 226.16C181.471 226.064 180.999 226.016 180.455 226.016C179.447 226.016 178.671 226.312 178.127 226.904C177.599 227.48 177.335 228.416 177.335 229.712C177.335 230.224 177.399 230.704 177.527 231.152C177.655 231.584 177.855 231.968 178.127 232.304C178.399 232.64 178.743 232.904 179.159 233.096C179.575 233.288 180.063 233.384 180.623 233.384C181.295 233.384 181.823 233.328 182.207 233.216C182.607 233.088 182.983 232.92 183.335 232.712L184.103 235.232ZM185.063 223.4H186.983V221.672L190.343 220.784V223.4H193.727V226.208H190.343V230.576C190.343 231.584 190.439 232.312 190.631 232.76C190.839 233.192 191.239 233.408 191.831 233.408C192.199 233.408 192.511 233.384 192.767 233.336C193.023 233.272 193.295 233.176 193.583 233.048L194.279 235.568C193.767 235.792 193.175 235.984 192.503 236.144C191.847 236.304 191.207 236.384 190.583 236.384C189.335 236.384 188.423 236.08 187.847 235.472C187.271 234.848 186.983 233.856 186.983 232.496V226.208H185.063V223.4ZM195.442 229.712C195.442 227.632 195.994 226 197.098 224.816C198.202 223.632 199.778 223.04 201.826 223.04C202.898 223.04 203.834 223.208 204.634 223.544C205.434 223.88 206.098 224.352 206.626 224.96C207.154 225.552 207.546 226.256 207.802 227.072C208.074 227.872 208.21 228.752 208.21 229.712C208.21 230.736 208.066 231.664 207.778 232.496C207.49 233.312 207.074 234.008 206.53 234.584C205.986 235.16 205.314 235.6 204.514 235.904C203.73 236.208 202.834 236.36 201.826 236.36C200.738 236.36 199.794 236.192 198.994 235.856C198.194 235.52 197.53 235.056 197.002 234.464C196.474 233.856 196.082 233.152 195.826 232.352C195.57 231.536 195.442 230.656 195.442 229.712ZM198.898 229.712C198.898 230.24 198.954 230.736 199.066 231.2C199.178 231.664 199.346 232.072 199.57 232.424C199.81 232.76 200.114 233.032 200.482 233.24C200.85 233.448 201.298 233.552 201.826 233.552C203.778 233.552 204.754 232.272 204.754 229.712C204.754 229.152 204.698 228.64 204.586 228.176C204.49 227.696 204.322 227.288 204.082 226.952C203.858 226.6 203.554 226.328 203.17 226.136C202.802 225.944 202.354 225.848 201.826 225.848C200.914 225.848 200.194 226.152 199.666 226.76C199.154 227.368 198.898 228.352 198.898 229.712ZM210.927 232.736C211.151 232.848 211.407 232.96 211.695 233.072C211.999 233.184 212.319 233.288 212.655 233.384C213.007 233.48 213.359 233.56 213.711 233.624C214.079 233.688 214.447 233.72 214.815 233.72C215.375 233.72 215.807 233.632 216.111 233.456C216.431 233.28 216.591 232.952 216.591 232.472C216.591 232.088 216.383 231.808 215.967 231.632C215.551 231.44 215.039 231.256 214.431 231.08C213.983 230.952 213.511 230.8 213.015 230.624C212.535 230.448 212.087 230.216 211.671 229.928C211.271 229.624 210.935 229.232 210.663 228.752C210.407 228.272 210.279 227.664 210.279 226.928C210.279 225.664 210.671 224.704 211.455 224.048C212.239 223.376 213.367 223.04 214.839 223.04C215.799 223.04 216.695 223.128 217.527 223.304C218.375 223.464 219.055 223.656 219.567 223.88L218.871 226.424C218.455 226.264 217.919 226.104 217.263 225.944C216.623 225.768 215.967 225.68 215.295 225.68C214.735 225.68 214.319 225.768 214.047 225.944C213.775 226.104 213.639 226.392 213.639 226.808C213.639 227.176 213.847 227.456 214.263 227.648C214.695 227.824 215.215 228 215.823 228.176C216.271 228.304 216.735 228.456 217.215 228.632C217.711 228.792 218.159 229.016 218.559 229.304C218.959 229.592 219.287 229.968 219.543 230.432C219.815 230.88 219.951 231.448 219.951 232.136C219.951 233.48 219.511 234.52 218.631 235.256C217.767 235.992 216.463 236.36 214.719 236.36C213.775 236.36 212.895 236.272 212.079 236.096C211.263 235.936 210.599 235.696 210.087 235.376L210.927 232.736Z" fill="white"/>
<path d="M176.994 138.204H166.506V157.145H147.242V167.458H166.506V186.399H176.994V167.458H196.258V157.145H176.994V138.204Z" fill="white"/>
<path d="M187.404 118.503V33H40V177.934H126.96C133.474 196.013 151.036 209 171.628 209C197.749 209 219 188.105 219 162.422C219 142.175 205.792 124.907 187.404 118.503ZM134.744 43.3125H176.916V53.7113H134.744V43.3125ZM103.148 43.3125H124.256V78.5324L113.702 73.9396L103.148 78.5324V43.3125H103.148ZM50.4883 43.3125H92.6599V53.7113H50.4883V43.3125ZM124.553 167.621H50.4883V64.0238H92.6599V94.3745L113.702 85.2173L134.744 94.3745V64.0238H176.916V116.136C175.179 115.945 173.415 115.844 171.628 115.844C145.507 115.844 124.256 136.739 124.256 162.422C124.256 164.179 124.359 165.914 124.553 167.621ZM171.628 198.688C151.29 198.688 134.744 182.419 134.744 162.422C134.744 142.425 151.29 126.156 171.628 126.156C191.966 126.156 208.512 142.425 208.512 162.422C208.512 182.419 191.966 198.688 171.628 198.688Z" fill="white"/>
<defs>
<filter id="filter0_d" x="0" y="0" width="258" height="258" filterUnits="userSpaceOnUse" color-interpolation-filters="sRGB">
<feFlood flood-opacity="0" result="BackgroundImageFix"/>
<feColorMatrix in="SourceAlpha" type="matrix" values="0 0 0 0 0 0 0 0 0 0 0 0 0 0 0 0 0 0 127 0"/>
<feOffset dy="4"/>
<feGaussianBlur stdDeviation="2"/>
<feColorMatrix type="matrix" values="0 0 0 0 0 0 0 0 0 0 0 0 0 0 0 0 0 0 0.25 0"/>
<feBlend mode="normal" in2="BackgroundImageFix" result="effect1_dropShadow"/>
<feBlend mode="normal" in="SourceGraphic" in2="effect1_dropShadow" result="shape"/>
</filter>
</defs>
</svg>
