<svg xmlns="http://www.w3.org/2000/svg" width="258" height="258" fill="none" viewBox="0 0 258 258"><g filter="url(#filter0_d)"><path fill="#FF0035" d="M204 0H54C26.3858 0 4 22.3858 4 50V200C4 227.614 26.3858 250 54 250H204C231.614 250 254 227.614 254 200V50C254 22.3858 231.614 0 204 0Z"/></g><path fill="#fff" d="M88.9993 217.2H92.3593V227.976C92.3593 229.064 92.1993 230.008 91.8793 230.808C91.5753 231.608 91.1353 232.264 90.5593 232.776C89.9993 233.288 89.3193 233.672 88.5193 233.928C87.7353 234.168 86.8713 234.288 85.9273 234.288C83.6713 234.288 81.9513 233.8 80.7673 232.824C79.5833 231.832 78.9913 230.352 78.9913 228.384V217.2H82.5433V227.736C82.5433 229.016 82.8233 229.912 83.3833 230.424C83.9433 230.92 84.7753 231.168 85.8793 231.168C86.9353 231.168 87.7193 230.904 88.2313 230.376C88.7433 229.832 88.9993 228.952 88.9993 227.736V217.2ZM95.5204 230.736C95.7444 230.848 96.0004 230.96 96.2884 231.072C96.5924 231.184 96.9124 231.288 97.2484 231.384C97.6004 231.48 97.9524 231.56 98.3044 231.624C98.6724 231.688 99.0404 231.72 99.4084 231.72C99.9684 231.72 100.4 231.632 100.704 231.456C101.024 231.28 101.184 230.952 101.184 230.472C101.184 230.088 100.976 229.808 100.56 229.632C100.144 229.44 99.6324 229.256 99.0244 229.08C98.5764 228.952 98.1044 228.8 97.6084 228.624C97.1284 228.448 96.6804 228.216 96.2644 227.928C95.8644 227.624 95.5284 227.232 95.2564 226.752C95.0004 226.272 94.8724 225.664 94.8724 224.928C94.8724 223.664 95.2644 222.704 96.0484 222.048C96.8324 221.376 97.9604 221.04 99.4324 221.04C100.392 221.04 101.288 221.128 102.12 221.304C102.968 221.464 103.648 221.656 104.16 221.88L103.464 224.424C103.048 224.264 102.512 224.104 101.856 223.944C101.216 223.768 100.56 223.68 99.8884 223.68C99.3284 223.68 98.9124 223.768 98.6404 223.944C98.3684 224.104 98.2324 224.392 98.2324 224.808C98.2324 225.176 98.4404 225.456 98.8564 225.648C99.2884 225.824 99.8084 226 100.416 226.176C100.864 226.304 101.328 226.456 101.808 226.632C102.304 226.792 102.752 227.016 103.152 227.304C103.552 227.592 103.88 227.968 104.136 228.432C104.408 228.88 104.544 229.448 104.544 230.136C104.544 231.48 104.104 232.52 103.224 233.256C102.36 233.992 101.056 234.36 99.3124 234.36C98.3684 234.36 97.4884 234.272 96.6724 234.096C95.8564 233.936 95.1924 233.696 94.6804 233.376L95.5204 230.736ZM110.506 221.4V228.384C110.506 229.424 110.65 230.184 110.938 230.664C111.226 231.144 111.778 231.384 112.594 231.384C113.298 231.384 113.89 231.2 114.37 230.832C114.85 230.464 115.202 230 115.426 229.44V221.4H118.786V230.16C118.786 230.832 118.818 231.504 118.882 232.176C118.962 232.848 119.066 233.456 119.194 234H116.722L116.074 232.032H115.81C115.394 232.704 114.802 233.264 114.034 233.712C113.266 234.144 112.386 234.36 111.394 234.36C110.706 234.36 110.098 234.272 109.57 234.096C109.042 233.92 108.594 233.632 108.226 233.232C107.874 232.816 107.602 232.272 107.41 231.6C107.234 230.928 107.146 230.096 107.146 229.104V221.4H110.506ZM122.424 222.264C123.144 221.944 124.024 221.68 125.064 221.472C126.12 221.264 127.208 221.16 128.328 221.16C129.208 221.16 129.944 221.264 130.536 221.472C131.144 221.68 131.624 221.984 131.976 222.384C132.328 222.768 132.576 223.24 132.72 223.8C132.88 224.344 132.96 224.952 132.96 225.624C132.96 226.44 132.928 227.248 132.864 228.048C132.8 228.848 132.768 229.696 132.768 230.592C132.768 231.2 132.808 231.792 132.888 232.368C132.968 232.944 133.096 233.496 133.272 234.024H130.536L129.984 232.152H129.696C129.28 232.712 128.752 233.192 128.112 233.592C127.472 233.992 126.648 234.192 125.64 234.192C125.032 234.192 124.472 234.104 123.96 233.928C123.464 233.752 123.032 233.504 122.664 233.184C122.312 232.848 122.032 232.456 121.824 232.008C121.632 231.56 121.536 231.072 121.536 230.544C121.536 229.12 122.008 228.048 122.952 227.328C123.912 226.592 125.36 226.224 127.296 226.224C127.744 226.224 128.192 226.264 128.64 226.344C129.088 226.408 129.4 226.456 129.576 226.488C129.624 226.152 129.648 225.864 129.648 225.624C129.648 225.016 129.496 224.568 129.192 224.28C128.888 223.992 128.32 223.848 127.488 223.848C126.72 223.848 125.968 223.944 125.232 224.136C124.512 224.312 123.872 224.536 123.312 224.808L122.424 222.264ZM126.816 231.504C127.568 231.504 128.168 231.328 128.616 230.976C129.064 230.624 129.392 230.256 129.6 229.872V228.432C129.52 228.4 129.392 228.368 129.216 228.336C129.056 228.304 128.872 228.272 128.664 228.24C128.472 228.208 128.272 228.184 128.064 228.168C127.872 228.152 127.696 228.144 127.536 228.144C126.672 228.144 126.032 228.304 125.616 228.624C125.2 228.928 124.992 229.312 124.992 229.776C124.992 230.352 125.152 230.784 125.472 231.072C125.808 231.36 126.256 231.504 126.816 231.504ZM143.883 224.472C143.403 224.312 142.923 224.232 142.443 224.232C141.739 224.232 141.155 224.4 140.691 224.736C140.243 225.072 139.947 225.496 139.803 226.008V234H136.443V221.4H139.083L139.443 223.152H139.755C140.075 222.496 140.499 221.992 141.027 221.64C141.571 221.288 142.187 221.112 142.875 221.112C143.307 221.112 143.803 221.2 144.363 221.376L143.883 224.472ZM146.601 221.4H149.961V234H146.601V221.4ZM146.097 218.256C146.097 217.744 146.281 217.32 146.649 216.984C147.017 216.632 147.537 216.456 148.209 216.456C148.897 216.456 149.441 216.632 149.841 216.984C150.241 217.336 150.441 217.76 150.441 218.256C150.441 218.72 150.241 219.12 149.841 219.456C149.441 219.792 148.897 219.96 148.209 219.96C147.537 219.96 147.017 219.792 146.649 219.456C146.281 219.12 146.097 218.72 146.097 218.256ZM153.09 227.712C153.09 225.632 153.642 224 154.746 222.816C155.85 221.632 157.426 221.04 159.474 221.04C160.546 221.04 161.482 221.208 162.282 221.544C163.082 221.88 163.746 222.352 164.274 222.96C164.802 223.552 165.194 224.256 165.45 225.072C165.722 225.872 165.858 226.752 165.858 227.712C165.858 228.736 165.714 229.664 165.426 230.496C165.138 231.312 164.722 232.008 164.178 232.584C163.634 233.16 162.962 233.6 162.162 233.904C161.378 234.208 160.482 234.36 159.474 234.36C158.386 234.36 157.442 234.192 156.642 233.856C155.842 233.52 155.178 233.056 154.65 232.464C154.122 231.856 153.73 231.152 153.474 230.352C153.218 229.536 153.09 228.656 153.09 227.712ZM156.546 227.712C156.546 228.24 156.602 228.736 156.714 229.2C156.826 229.664 156.994 230.072 157.218 230.424C157.458 230.76 157.762 231.032 158.13 231.24C158.498 231.448 158.946 231.552 159.474 231.552C161.426 231.552 162.402 230.272 162.402 227.712C162.402 227.152 162.346 226.64 162.234 226.176C162.138 225.696 161.97 225.288 161.73 224.952C161.506 224.6 161.202 224.328 160.818 224.136C160.45 223.944 160.002 223.848 159.474 223.848C158.562 223.848 157.842 224.152 157.314 224.76C156.802 225.368 156.546 226.352 156.546 227.712ZM168.575 230.736C168.799 230.848 169.055 230.96 169.343 231.072C169.647 231.184 169.967 231.288 170.303 231.384C170.655 231.48 171.007 231.56 171.359 231.624C171.727 231.688 172.095 231.72 172.463 231.72C173.023 231.72 173.455 231.632 173.759 231.456C174.079 231.28 174.239 230.952 174.239 230.472C174.239 230.088 174.031 229.808 173.615 229.632C173.199 229.44 172.687 229.256 172.079 229.08C171.631 228.952 171.159 228.8 170.663 228.624C170.183 228.448 169.735 228.216 169.319 227.928C168.919 227.624 168.583 227.232 168.311 226.752C168.055 226.272 167.927 225.664 167.927 224.928C167.927 223.664 168.319 222.704 169.103 222.048C169.887 221.376 171.015 221.04 172.487 221.04C173.447 221.04 174.343 221.128 175.175 221.304C176.023 221.464 176.703 221.656 177.215 221.88L176.519 224.424C176.103 224.264 175.567 224.104 174.911 223.944C174.271 223.768 173.615 223.68 172.943 223.68C172.383 223.68 171.967 223.768 171.695 223.944C171.423 224.104 171.287 224.392 171.287 224.808C171.287 225.176 171.495 225.456 171.911 225.648C172.343 225.824 172.863 226 173.471 226.176C173.919 226.304 174.383 226.456 174.863 226.632C175.359 226.792 175.807 227.016 176.207 227.304C176.607 227.592 176.935 227.968 177.191 228.432C177.463 228.88 177.599 229.448 177.599 230.136C177.599 231.48 177.159 232.52 176.279 233.256C175.415 233.992 174.111 234.36 172.367 234.36C171.423 234.36 170.543 234.272 169.727 234.096C168.911 233.936 168.247 233.696 167.735 233.376L168.575 230.736Z"/><g clip-path="url(#clip0)"><path fill="#fff" d="M132.5 55.6955C115.13 55.6955 101 66.9585 101 80.8043C101 94.6502 115.13 105.913 132.5 105.913C149.87 105.913 164 94.6499 164 80.8043C164 66.9588 149.87 55.6955 132.5 55.6955ZM132.5 98.739C120.098 98.739 110 90.6899 110 80.8043C110 70.9188 120.098 62.8697 132.5 62.8697C144.902 62.8697 155 70.9188 155 80.8043C155 90.6899 144.902 98.739 132.5 98.739Z"/><path fill="#fff" d="M195.5 84.3914C183.098 84.3914 173 92.4405 173 102.326C173 112.212 183.098 120.261 195.5 120.261C207.902 120.261 218 112.212 218 102.326C218 92.4405 207.902 84.3914 195.5 84.3914ZM195.5 113.087C188.057 113.087 182 108.259 182 102.326C182 96.3931 188.057 91.5652 195.5 91.5652C202.943 91.5652 209 96.3931 209 102.326C209 108.259 202.943 113.087 195.5 113.087Z"/><path fill="#fff" d="M70.1391 84.3914C57.728 84.3914 47.6393 92.4405 47.6393 102.326C47.6393 112.212 57.7372 120.261 70.1391 120.261C82.5409 120.261 92.6389 112.212 92.6389 102.326C92.6389 92.4405 82.5498 84.3914 70.1391 84.3914ZM70.1391 113.087C62.696 113.087 56.6391 108.259 56.6391 102.326C56.6391 96.3931 62.696 91.5652 70.1391 91.5652C77.5822 91.5652 83.6391 96.3931 83.6391 102.326C83.6391 108.259 77.5818 113.087 70.1391 113.087Z"/><path fill="#fff" d="M132.5 113.087C100.244 113.087 73.9997 134.006 73.9997 159.717C73.9997 161.697 76.0158 163.304 78.4998 163.304C80.9838 163.304 83 161.697 83 159.717C83 137.959 105.203 120.261 132.5 120.261C159.797 120.261 182 137.959 182 159.717C182 161.697 184.016 163.304 186.5 163.304C188.984 163.304 191 161.697 191 159.717C191 134.006 164.756 113.087 132.5 113.087Z"/><path fill="#fff" d="M195.5 127.435C188.093 127.435 180.839 129.049 174.521 132.098C172.406 133.131 171.722 135.333 173.009 137.026C174.314 138.72 177.068 139.258 179.192 138.232C184.097 135.857 189.731 134.609 195.5 134.609C212.87 134.609 227 145.872 227 159.717C227 161.697 229.016 163.304 231.5 163.304C233.984 163.304 236 161.697 236 159.717C236 141.919 217.829 127.435 195.5 127.435Z"/><path fill="#fff" d="M90.4701 132.091C84.161 129.049 76.9073 127.435 69.5 127.435C47.171 127.435 29 141.919 29 159.717C29 161.697 31.0161 163.304 33.5001 163.304C35.9841 163.304 38.0003 161.697 38.0003 159.717C37.9999 145.872 52.1301 134.609 69.5 134.609C75.2691 134.609 80.9028 135.857 85.7991 138.224C87.914 139.25 90.6861 138.712 91.9821 137.019C93.2781 135.326 92.5938 133.124 90.4701 132.091Z"/></g><defs><filter id="filter0_d" width="258" height="258" x="0" y="0" color-interpolation-filters="sRGB" filterUnits="userSpaceOnUse"><feFlood flood-opacity="0" result="BackgroundImageFix"/><feColorMatrix in="SourceAlpha" type="matrix" values="0 0 0 0 0 0 0 0 0 0 0 0 0 0 0 0 0 0 127 0"/><feOffset dy="4"/><feGaussianBlur stdDeviation="2"/><feColorMatrix type="matrix" values="0 0 0 0 0 0 0 0 0 0 0 0 0 0 0 0 0 0 0.25 0"/><feBlend in2="BackgroundImageFix" mode="normal" result="effect1_dropShadow"/><feBlend in="SourceGraphic" in2="effect1_dropShadow" mode="normal" result="shape"/></filter><clipPath id="clip0"><rect width="207" height="165" fill="#fff" transform="translate(29 27)"/></clipPath></defs></svg>