<svg xmlns="http://www.w3.org/2000/svg" width="258" height="258" fill="none" viewBox="0 0 258 258"><g filter="url(#filter0_d)"><path fill="#91785D" d="M204 0H54C26.3858 0 4 22.3858 4 50V200C4 227.614 26.3858 250 54 250H204C231.614 250 254 227.614 254 200V50C254 22.3858 231.614 0 204 0Z"/></g><path fill="#fff" d="M51.4855 187.12H49.5655V185.2H56.9575V187.12H55.0375V200.08H56.9575V202H49.5655V200.08H51.4855V187.12ZM68.1342 202V195.088C68.1342 194 67.9662 193.216 67.6302 192.736C67.2942 192.256 66.7022 192.016 65.8542 192.016C65.1342 192.016 64.5182 192.216 64.0062 192.616C63.5102 193 63.1662 193.496 62.9742 194.104C62.9742 195.416 62.9742 196.736 62.9742 198.064C62.9902 199.376 62.9982 200.688 62.9982 202H59.6382V189.4H62.2782L62.6382 191.2H62.9982C63.4142 190.608 63.9662 190.104 64.6542 189.688C65.3422 189.256 66.2382 189.04 67.3422 189.04C68.0142 189.04 68.6062 189.128 69.1182 189.304C69.6462 189.464 70.0782 189.752 70.4142 190.168C70.7662 190.568 71.0302 191.112 71.2062 191.8C71.3982 192.488 71.4942 193.352 71.4942 194.392V202H68.1342ZM79.3828 195.928L79.8868 197.872H80.2708L80.6308 195.88L82.9828 189.4H86.6068L80.8468 202.12H78.9268L72.9268 189.4H76.8388L79.3828 195.928ZM98.6329 200.848C98.0889 201.264 97.3449 201.624 96.4009 201.928C95.4729 202.216 94.4729 202.36 93.4009 202.36C91.2409 202.36 89.6569 201.768 88.6489 200.584C87.6409 199.4 87.1369 197.776 87.1369 195.712C87.1369 193.52 87.7049 191.864 88.8409 190.744C89.9769 189.608 91.5769 189.04 93.6409 189.04C94.3129 189.04 94.9769 189.128 95.6329 189.304C96.2889 189.464 96.8729 189.744 97.3849 190.144C97.8969 190.528 98.3049 191.056 98.6089 191.728C98.9289 192.384 99.0889 193.2 99.0889 194.176C99.0889 194.512 99.0649 194.88 99.0169 195.28C98.9849 195.68 98.9209 196.096 98.8249 196.528H90.4249C90.5049 197.616 90.8169 198.424 91.3609 198.952C91.9209 199.464 92.8249 199.72 94.0729 199.72C94.8249 199.72 95.4969 199.616 96.0889 199.408C96.6969 199.184 97.1609 198.96 97.4809 198.736L98.6329 200.848ZM93.5929 191.68C92.6009 191.68 91.8649 191.952 91.3849 192.496C90.9049 193.024 90.6249 193.704 90.5449 194.536H95.9689C96.0329 193.656 95.8729 192.96 95.4889 192.448C95.1049 191.936 94.4729 191.68 93.5929 191.68ZM110.603 202V195.088C110.603 194 110.435 193.216 110.099 192.736C109.763 192.256 109.171 192.016 108.323 192.016C107.603 192.016 106.987 192.216 106.475 192.616C105.979 193 105.635 193.496 105.443 194.104C105.443 195.416 105.443 196.736 105.443 198.064C105.459 199.376 105.467 200.688 105.467 202H102.107V189.4H104.747L105.107 191.2H105.467C105.883 190.608 106.435 190.104 107.123 189.688C107.811 189.256 108.707 189.04 109.811 189.04C110.483 189.04 111.075 189.128 111.587 189.304C112.115 189.464 112.547 189.752 112.883 190.168C113.235 190.568 113.499 191.112 113.675 191.8C113.867 192.488 113.963 193.352 113.963 194.392V202H110.603ZM115.876 189.4H117.796V187.672L121.156 186.784V189.4H124.54V192.208H121.156V196.576C121.156 197.584 121.252 198.312 121.444 198.76C121.652 199.192 122.052 199.408 122.644 199.408C123.012 199.408 123.324 199.384 123.58 199.336C123.836 199.272 124.108 199.176 124.396 199.048L125.092 201.568C124.58 201.792 123.988 201.984 123.316 202.144C122.66 202.304 122.02 202.384 121.396 202.384C120.148 202.384 119.236 202.08 118.66 201.472C118.084 200.848 117.796 199.856 117.796 198.496V192.208H115.876V189.4ZM126.995 190.264C127.715 189.944 128.595 189.68 129.635 189.472C130.691 189.264 131.779 189.16 132.899 189.16C133.779 189.16 134.515 189.264 135.107 189.472C135.715 189.68 136.195 189.984 136.547 190.384C136.899 190.768 137.147 191.24 137.291 191.8C137.451 192.344 137.531 192.952 137.531 193.624C137.531 194.44 137.499 195.248 137.435 196.048C137.371 196.848 137.339 197.696 137.339 198.592C137.339 199.2 137.379 199.792 137.459 200.368C137.539 200.944 137.667 201.496 137.843 202.024H135.107L134.555 200.152H134.267C133.851 200.712 133.323 201.192 132.683 201.592C132.043 201.992 131.219 202.192 130.211 202.192C129.603 202.192 129.043 202.104 128.531 201.928C128.035 201.752 127.603 201.504 127.235 201.184C126.883 200.848 126.603 200.456 126.395 200.008C126.203 199.56 126.107 199.072 126.107 198.544C126.107 197.12 126.579 196.048 127.523 195.328C128.483 194.592 129.931 194.224 131.867 194.224C132.315 194.224 132.763 194.264 133.211 194.344C133.659 194.408 133.971 194.456 134.147 194.488C134.195 194.152 134.219 193.864 134.219 193.624C134.219 193.016 134.067 192.568 133.763 192.28C133.459 191.992 132.891 191.848 132.059 191.848C131.291 191.848 130.539 191.944 129.803 192.136C129.083 192.312 128.443 192.536 127.883 192.808L126.995 190.264ZM131.387 199.504C132.139 199.504 132.739 199.328 133.187 198.976C133.635 198.624 133.963 198.256 134.171 197.872V196.432C134.091 196.4 133.963 196.368 133.787 196.336C133.627 196.304 133.443 196.272 133.235 196.24C133.043 196.208 132.843 196.184 132.635 196.168C132.443 196.152 132.267 196.144 132.107 196.144C131.243 196.144 130.603 196.304 130.187 196.624C129.771 196.928 129.563 197.312 129.563 197.776C129.563 198.352 129.723 198.784 130.043 199.072C130.379 199.36 130.827 199.504 131.387 199.504ZM148.453 192.472C147.973 192.312 147.493 192.232 147.013 192.232C146.309 192.232 145.725 192.4 145.261 192.736C144.813 193.072 144.517 193.496 144.373 194.008V202H141.013V189.4H143.653L144.013 191.152H144.325C144.645 190.496 145.069 189.992 145.597 189.64C146.141 189.288 146.757 189.112 147.445 189.112C147.877 189.112 148.373 189.2 148.933 189.376L148.453 192.472ZM151.171 189.4H154.531V202H151.171V189.4ZM150.667 186.256C150.667 185.744 150.851 185.32 151.219 184.984C151.587 184.632 152.107 184.456 152.779 184.456C153.467 184.456 154.011 184.632 154.411 184.984C154.811 185.336 155.011 185.76 155.011 186.256C155.011 186.72 154.811 187.12 154.411 187.456C154.011 187.792 153.467 187.96 152.779 187.96C152.107 187.96 151.587 187.792 151.219 187.456C150.851 187.12 150.667 186.72 150.667 186.256ZM157.66 195.712C157.66 193.632 158.212 192 159.316 190.816C160.42 189.632 161.996 189.04 164.044 189.04C165.116 189.04 166.052 189.208 166.852 189.544C167.652 189.88 168.316 190.352 168.844 190.96C169.372 191.552 169.764 192.256 170.02 193.072C170.292 193.872 170.428 194.752 170.428 195.712C170.428 196.736 170.284 197.664 169.996 198.496C169.708 199.312 169.292 200.008 168.748 200.584C168.204 201.16 167.532 201.6 166.732 201.904C165.948 202.208 165.052 202.36 164.044 202.36C162.956 202.36 162.012 202.192 161.212 201.856C160.412 201.52 159.748 201.056 159.22 200.464C158.692 199.856 158.3 199.152 158.044 198.352C157.788 197.536 157.66 196.656 157.66 195.712ZM161.116 195.712C161.116 196.24 161.172 196.736 161.284 197.2C161.396 197.664 161.564 198.072 161.788 198.424C162.028 198.76 162.332 199.032 162.7 199.24C163.068 199.448 163.516 199.552 164.044 199.552C165.996 199.552 166.972 198.272 166.972 195.712C166.972 195.152 166.916 194.64 166.804 194.176C166.708 193.696 166.54 193.288 166.3 192.952C166.076 192.6 165.772 192.328 165.388 192.136C165.02 191.944 164.572 191.848 164.044 191.848C163.132 191.848 162.412 192.152 161.884 192.76C161.372 193.368 161.116 194.352 161.116 195.712ZM191.274 197.584C191.274 198.256 191.282 198.952 191.298 199.672C191.314 200.392 191.386 201.176 191.514 202.024H189.186L188.706 200.272H188.394C188.026 200.912 187.498 201.424 186.81 201.808C186.138 202.176 185.33 202.36 184.386 202.36C182.706 202.36 181.402 201.84 180.474 200.8C179.546 199.744 179.082 198.12 179.082 195.928C179.082 194.872 179.21 193.92 179.466 193.072C179.738 192.224 180.13 191.504 180.642 190.912C181.17 190.32 181.818 189.864 182.586 189.544C183.354 189.224 184.242 189.064 185.25 189.064C185.81 189.064 186.29 189.112 186.69 189.208C187.106 189.288 187.514 189.392 187.914 189.52V185.2H191.274V197.584ZM185.25 199.552C186.002 199.552 186.586 199.384 187.002 199.048C187.418 198.696 187.722 198.2 187.914 197.56V192.52C187.626 192.296 187.314 192.136 186.978 192.04C186.658 191.928 186.234 191.872 185.706 191.872C184.634 191.872 183.834 192.184 183.306 192.808C182.794 193.432 182.538 194.504 182.538 196.024C182.538 197.08 182.754 197.936 183.186 198.592C183.634 199.232 184.322 199.552 185.25 199.552ZM205.649 200.848C205.105 201.264 204.361 201.624 203.417 201.928C202.489 202.216 201.489 202.36 200.417 202.36C198.257 202.36 196.673 201.768 195.665 200.584C194.657 199.4 194.153 197.776 194.153 195.712C194.153 193.52 194.721 191.864 195.857 190.744C196.993 189.608 198.593 189.04 200.657 189.04C201.329 189.04 201.993 189.128 202.649 189.304C203.305 189.464 203.889 189.744 204.401 190.144C204.913 190.528 205.321 191.056 205.625 191.728C205.945 192.384 206.105 193.2 206.105 194.176C206.105 194.512 206.081 194.88 206.033 195.28C206.001 195.68 205.937 196.096 205.841 196.528H197.441C197.521 197.616 197.833 198.424 198.377 198.952C198.937 199.464 199.841 199.72 201.089 199.72C201.841 199.72 202.513 199.616 203.105 199.408C203.713 199.184 204.177 198.96 204.497 198.736L205.649 200.848ZM200.609 191.68C199.617 191.68 198.881 191.952 198.401 192.496C197.921 193.024 197.641 193.704 197.561 194.536H202.985C203.049 193.656 202.889 192.96 202.505 192.448C202.121 191.936 201.489 191.68 200.609 191.68ZM71.0248 216.368C71.7448 216.24 72.5448 216.144 73.4248 216.08C74.3048 216 75.1848 215.96 76.0648 215.96C76.9608 215.96 77.8648 216.032 78.7768 216.176C79.6888 216.304 80.5048 216.576 81.2248 216.992C81.9608 217.392 82.5608 217.96 83.0248 218.696C83.4888 219.416 83.7208 220.376 83.7208 221.576C83.7208 222.632 83.5208 223.536 83.1208 224.288C82.7208 225.024 82.1848 225.624 81.5128 226.088C80.8568 226.552 80.1048 226.896 79.2568 227.12C78.4088 227.328 77.5368 227.432 76.6408 227.432C76.5608 227.432 76.4248 227.432 76.2328 227.432C76.0408 227.432 75.8328 227.432 75.6088 227.432C75.4008 227.416 75.2008 227.4 75.0088 227.384C74.8168 227.368 74.6728 227.352 74.5768 227.336V233H71.0248V216.368ZM76.3048 219.08C75.9688 219.08 75.6408 219.088 75.3208 219.104C75.0168 219.12 74.7688 219.152 74.5768 219.2V224.192C74.6408 224.208 74.7448 224.224 74.8888 224.24C75.0328 224.256 75.1848 224.272 75.3448 224.288C75.5048 224.288 75.6488 224.296 75.7768 224.312C75.9208 224.312 76.0328 224.312 76.1128 224.312C76.5768 224.312 77.0408 224.28 77.5048 224.216C77.9688 224.152 78.3768 224.016 78.7288 223.808C79.0968 223.6 79.3928 223.32 79.6168 222.968C79.8408 222.6 79.9528 222.112 79.9528 221.504C79.9528 220.992 79.8488 220.584 79.6408 220.28C79.4328 219.96 79.1528 219.712 78.8008 219.536C78.4648 219.36 78.0728 219.24 77.6248 219.176C77.1928 219.112 76.7528 219.08 76.3048 219.08ZM92.7422 223.472C92.2622 223.312 91.7822 223.232 91.3022 223.232C90.5982 223.232 90.0142 223.4 89.5502 223.736C89.1022 224.072 88.8062 224.496 88.6622 225.008V233H85.3022V220.4H87.9422L88.3022 222.152H88.6142C88.9342 221.496 89.3582 220.992 89.8862 220.64C90.4302 220.288 91.0462 220.112 91.7342 220.112C92.1662 220.112 92.6622 220.2 93.2222 220.376L92.7422 223.472ZM94.3322 226.712C94.3322 224.632 94.8842 223 95.9882 221.816C97.0922 220.632 98.6682 220.04 100.716 220.04C101.788 220.04 102.724 220.208 103.524 220.544C104.324 220.88 104.988 221.352 105.516 221.96C106.044 222.552 106.436 223.256 106.692 224.072C106.964 224.872 107.1 225.752 107.1 226.712C107.1 227.736 106.956 228.664 106.668 229.496C106.38 230.312 105.964 231.008 105.42 231.584C104.876 232.16 104.204 232.6 103.404 232.904C102.62 233.208 101.724 233.36 100.716 233.36C99.6282 233.36 98.6842 233.192 97.8842 232.856C97.0842 232.52 96.4202 232.056 95.8922 231.464C95.3642 230.856 94.9722 230.152 94.7162 229.352C94.4602 228.536 94.3322 227.656 94.3322 226.712ZM97.7882 226.712C97.7882 227.24 97.8442 227.736 97.9562 228.2C98.0682 228.664 98.2362 229.072 98.4602 229.424C98.7002 229.76 99.0042 230.032 99.3722 230.24C99.7402 230.448 100.188 230.552 100.716 230.552C102.668 230.552 103.644 229.272 103.644 226.712C103.644 226.152 103.588 225.64 103.476 225.176C103.38 224.696 103.212 224.288 102.972 223.952C102.748 223.6 102.444 223.328 102.06 223.136C101.692 222.944 101.244 222.848 100.716 222.848C99.8042 222.848 99.0842 223.152 98.5562 223.76C98.0442 224.368 97.7882 225.352 97.7882 226.712ZM121.313 228.584C121.313 229.256 121.321 229.952 121.337 230.672C121.353 231.392 121.425 232.176 121.553 233.024H119.225L118.745 231.272H118.433C118.065 231.912 117.537 232.424 116.849 232.808C116.177 233.176 115.369 233.36 114.425 233.36C112.745 233.36 111.441 232.84 110.513 231.8C109.585 230.744 109.121 229.12 109.121 226.928C109.121 225.872 109.249 224.92 109.505 224.072C109.777 223.224 110.169 222.504 110.681 221.912C111.209 221.32 111.857 220.864 112.625 220.544C113.393 220.224 114.281 220.064 115.289 220.064C115.849 220.064 116.329 220.112 116.729 220.208C117.145 220.288 117.553 220.392 117.953 220.52V216.2H121.313V228.584ZM115.289 230.552C116.041 230.552 116.625 230.384 117.041 230.048C117.457 229.696 117.761 229.2 117.953 228.56V223.52C117.665 223.296 117.353 223.136 117.017 223.04C116.697 222.928 116.273 222.872 115.745 222.872C114.673 222.872 113.873 223.184 113.345 223.808C112.833 224.432 112.577 225.504 112.577 227.024C112.577 228.08 112.793 228.936 113.225 229.592C113.673 230.232 114.361 230.552 115.289 230.552ZM128.272 220.4V227.384C128.272 228.424 128.416 229.184 128.704 229.664C128.992 230.144 129.544 230.384 130.36 230.384C131.064 230.384 131.656 230.2 132.136 229.832C132.616 229.464 132.968 229 133.192 228.44V220.4H136.552V229.16C136.552 229.832 136.584 230.504 136.648 231.176C136.728 231.848 136.832 232.456 136.96 233H134.488L133.84 231.032H133.576C133.16 231.704 132.568 232.264 131.8 232.712C131.032 233.144 130.152 233.36 129.16 233.36C128.472 233.36 127.864 233.272 127.336 233.096C126.808 232.92 126.36 232.632 125.992 232.232C125.64 231.816 125.368 231.272 125.176 230.6C125 229.928 124.912 229.096 124.912 228.104V220.4H128.272ZM149.814 232.232C149.27 232.6 148.614 232.88 147.846 233.072C147.094 233.264 146.31 233.36 145.494 233.36C144.406 233.36 143.486 233.2 142.734 232.88C141.998 232.56 141.39 232.104 140.91 231.512C140.446 230.92 140.11 230.224 139.902 229.424C139.694 228.608 139.59 227.704 139.59 226.712C139.59 224.616 140.102 222.984 141.126 221.816C142.166 220.632 143.67 220.04 145.638 220.04C146.598 220.04 147.382 220.12 147.99 220.28C148.614 220.424 149.166 220.616 149.646 220.856L148.83 223.544C148.414 223.368 147.998 223.24 147.582 223.16C147.182 223.064 146.71 223.016 146.166 223.016C145.158 223.016 144.382 223.312 143.838 223.904C143.31 224.48 143.046 225.416 143.046 226.712C143.046 227.224 143.11 227.704 143.238 228.152C143.366 228.584 143.566 228.968 143.838 229.304C144.11 229.64 144.454 229.904 144.87 230.096C145.286 230.288 145.774 230.384 146.334 230.384C147.006 230.384 147.534 230.328 147.918 230.216C148.318 230.088 148.694 229.92 149.046 229.712L149.814 232.232ZM150.774 220.4H152.694V218.672L156.054 217.784V220.4H159.438V223.208H156.054V227.576C156.054 228.584 156.15 229.312 156.342 229.76C156.55 230.192 156.95 230.408 157.542 230.408C157.91 230.408 158.222 230.384 158.478 230.336C158.734 230.272 159.006 230.176 159.294 230.048L159.99 232.568C159.478 232.792 158.886 232.984 158.214 233.144C157.558 233.304 156.918 233.384 156.294 233.384C155.046 233.384 154.134 233.08 153.558 232.472C152.982 231.848 152.694 230.856 152.694 229.496V223.208H150.774V220.4ZM161.153 226.712C161.153 224.632 161.705 223 162.809 221.816C163.913 220.632 165.489 220.04 167.537 220.04C168.609 220.04 169.545 220.208 170.345 220.544C171.145 220.88 171.809 221.352 172.337 221.96C172.865 222.552 173.257 223.256 173.513 224.072C173.785 224.872 173.921 225.752 173.921 226.712C173.921 227.736 173.777 228.664 173.489 229.496C173.201 230.312 172.785 231.008 172.241 231.584C171.697 232.16 171.025 232.6 170.225 232.904C169.441 233.208 168.545 233.36 167.537 233.36C166.449 233.36 165.505 233.192 164.705 232.856C163.905 232.52 163.241 232.056 162.713 231.464C162.185 230.856 161.793 230.152 161.537 229.352C161.281 228.536 161.153 227.656 161.153 226.712ZM164.609 226.712C164.609 227.24 164.665 227.736 164.777 228.2C164.889 228.664 165.057 229.072 165.281 229.424C165.521 229.76 165.825 230.032 166.193 230.24C166.561 230.448 167.009 230.552 167.537 230.552C169.489 230.552 170.465 229.272 170.465 226.712C170.465 226.152 170.409 225.64 170.297 225.176C170.201 224.696 170.033 224.288 169.793 223.952C169.569 223.6 169.265 223.328 168.881 223.136C168.513 222.944 168.065 222.848 167.537 222.848C166.625 222.848 165.905 223.152 165.377 223.76C164.865 224.368 164.609 225.352 164.609 226.712ZM176.638 229.736C176.862 229.848 177.118 229.96 177.406 230.072C177.71 230.184 178.03 230.288 178.366 230.384C178.718 230.48 179.07 230.56 179.422 230.624C179.79 230.688 180.158 230.72 180.526 230.72C181.086 230.72 181.518 230.632 181.822 230.456C182.142 230.28 182.302 229.952 182.302 229.472C182.302 229.088 182.094 228.808 181.678 228.632C181.262 228.44 180.75 228.256 180.142 228.08C179.694 227.952 179.222 227.8 178.726 227.624C178.246 227.448 177.798 227.216 177.382 226.928C176.982 226.624 176.646 226.232 176.374 225.752C176.118 225.272 175.99 224.664 175.99 223.928C175.99 222.664 176.382 221.704 177.166 221.048C177.95 220.376 179.078 220.04 180.55 220.04C181.51 220.04 182.406 220.128 183.238 220.304C184.086 220.464 184.766 220.656 185.278 220.88L184.582 223.424C184.166 223.264 183.63 223.104 182.974 222.944C182.334 222.768 181.678 222.68 181.006 222.68C180.446 222.68 180.03 222.768 179.758 222.944C179.486 223.104 179.35 223.392 179.35 223.808C179.35 224.176 179.558 224.456 179.974 224.648C180.406 224.824 180.926 225 181.534 225.176C181.982 225.304 182.446 225.456 182.926 225.632C183.422 225.792 183.87 226.016 184.27 226.304C184.67 226.592 184.998 226.968 185.254 227.432C185.526 227.88 185.662 228.448 185.662 229.136C185.662 230.48 185.222 231.52 184.342 232.256C183.478 232.992 182.174 233.36 180.43 233.36C179.486 233.36 178.606 233.272 177.79 233.096C176.974 232.936 176.31 232.696 175.798 232.376L176.638 229.736Z"/><path fill="#fff" d="M50.625 149.578H43.5C42.5552 149.578 41.649 149.81 40.9809 150.223C40.3128 150.637 39.9375 151.197 39.9375 151.781C39.9375 152.366 40.3128 152.926 40.9809 153.339C41.649 153.752 42.5552 153.984 43.5 153.984H50.625C51.5698 153.984 52.476 153.752 53.1441 153.339C53.8122 152.926 54.1875 152.366 54.1875 151.781C54.1875 151.197 53.8122 150.637 53.1441 150.223C52.476 149.81 51.5698 149.578 50.625 149.578Z"/><path fill="#fff" d="M50.625 142.969H43.5C42.5552 142.969 41.649 143.201 40.9809 143.614C40.3128 144.027 39.9375 144.588 39.9375 145.172C39.9375 145.756 40.3128 146.317 40.9809 146.73C41.649 147.143 42.5552 147.375 43.5 147.375H50.625C51.5698 147.375 52.476 147.143 53.1441 146.73C53.8122 146.317 54.1875 145.756 54.1875 145.172C54.1875 144.588 53.8122 144.027 53.1441 143.614C52.476 143.201 51.5698 142.969 50.625 142.969Z"/><path fill="#fff" d="M114.75 149.578H107.625C106.68 149.578 105.774 149.81 105.106 150.223C104.438 150.637 104.062 151.197 104.062 151.781C104.062 152.366 104.438 152.926 105.106 153.339C105.774 153.752 106.68 153.984 107.625 153.984H114.75C115.695 153.984 116.601 153.752 117.269 153.339C117.937 152.926 118.312 152.366 118.312 151.781C118.312 151.197 117.937 150.637 117.269 150.223C116.601 149.81 115.695 149.578 114.75 149.578Z"/><path fill="#fff" d="M114.75 142.969H107.625C106.68 142.969 105.774 143.201 105.106 143.614C104.438 144.027 104.062 144.588 104.062 145.172C104.062 145.756 104.438 146.317 105.106 146.73C105.774 147.143 106.68 147.375 107.625 147.375H114.75C115.695 147.375 116.601 147.143 117.269 146.73C117.937 146.317 118.312 145.756 118.312 145.172C118.312 144.588 117.937 144.027 117.269 143.614C116.601 143.201 115.695 142.969 114.75 142.969Z"/><path fill="#fff" d="M178.875 149.578H171.75C170.805 149.578 169.899 149.81 169.231 150.223C168.563 150.637 168.188 151.197 168.188 151.781C168.188 152.366 168.563 152.926 169.231 153.339C169.899 153.752 170.805 153.984 171.75 153.984H178.875C179.82 153.984 180.726 153.752 181.394 153.339C182.062 152.926 182.438 152.366 182.438 151.781C182.438 151.197 182.062 150.637 181.394 150.223C180.726 149.81 179.82 149.578 178.875 149.578Z"/><path fill="#fff" d="M178.875 142.969H171.75C170.805 142.969 169.899 143.201 169.231 143.614C168.563 144.027 168.188 144.588 168.188 145.172C168.188 145.756 168.563 146.317 169.231 146.73C169.899 147.143 170.805 147.375 171.75 147.375H178.875C179.82 147.375 180.726 147.143 181.394 146.73C182.062 146.317 182.438 145.756 182.438 145.172C182.438 144.588 182.062 144.027 181.394 143.614C180.726 143.201 179.82 142.969 178.875 142.969Z"/><path fill="#fff" d="M225.188 112.125H196.688V70.2656C196.688 69.6813 196.312 69.1209 195.644 68.7078C194.976 68.2946 194.07 68.0625 193.125 68.0625H164.625V30.6094C164.625 30.0251 164.25 29.4647 163.582 29.0515C162.913 28.6384 162.007 28.4062 161.062 28.4062H96.9375C95.9927 28.4062 95.0865 28.6384 94.4184 29.0515C93.7503 29.4647 93.375 30.0251 93.375 30.6094V68.0625H64.875C63.9302 68.0625 63.024 68.2946 62.3559 68.7078C61.6878 69.1209 61.3125 69.6813 61.3125 70.2656V112.125H32.8125C31.8677 112.125 30.9615 112.357 30.2934 112.77C29.6253 113.183 29.25 113.744 29.25 114.328V158.391C29.25 158.975 29.6253 159.535 30.2934 159.948C30.9615 160.362 31.8677 160.594 32.8125 160.594H225.188C226.132 160.594 227.038 160.362 227.707 159.948C228.375 159.535 228.75 158.975 228.75 158.391V114.328C228.75 113.744 228.375 113.183 227.707 112.77C227.038 112.357 226.132 112.125 225.188 112.125ZM189.562 116.531H196.688V125.344H189.562V116.531ZM189.562 112.125H132.562V72.4688H150.375V83.4844C150.375 84.0687 150.75 84.6291 151.418 85.0422C152.087 85.4554 152.993 85.6875 153.938 85.6875H168.188C169.132 85.6875 170.038 85.4554 170.707 85.0422C171.375 84.6291 171.75 84.0687 171.75 83.4844V72.4688H189.562V112.125ZM125.438 116.531H132.562V125.344H125.438V116.531ZM164.625 72.4688V81.2812H157.5V72.4688H164.625ZM132.562 32.8125V37.2188H125.438V32.8125H132.562ZM100.5 32.8125H118.312V39.4219C118.312 40.0062 118.688 40.5666 119.356 40.9797C120.024 41.3929 120.93 41.625 121.875 41.625H136.125C137.07 41.625 137.976 41.3929 138.644 40.9797C139.312 40.5666 139.688 40.0062 139.688 39.4219V32.8125H157.5V68.0625H100.5V32.8125ZM100.5 72.4688V81.2812H93.375V72.4688H100.5ZM68.4375 72.4688H86.25V83.4844C86.25 84.0687 86.6253 84.6291 87.2934 85.0422C87.9615 85.4554 88.8677 85.6875 89.8125 85.6875H104.062C105.007 85.6875 105.913 85.4554 106.582 85.0422C107.25 84.6291 107.625 84.0687 107.625 83.4844V72.4688H125.438V112.125H68.4375V72.4688ZM68.4375 116.531V125.344H61.3125V116.531H68.4375ZM36.375 116.531H54.1875V127.547C54.1875 128.131 54.5628 128.692 55.2309 129.105C55.899 129.518 56.8052 129.75 57.75 129.75H72C72.9448 129.75 73.851 129.518 74.5191 129.105C75.1872 128.692 75.5625 128.131 75.5625 127.547V116.531H93.375V156.188H36.375V116.531ZM100.5 116.531H118.312V127.547C118.312 128.131 118.688 128.692 119.356 129.105C120.024 129.518 120.93 129.75 121.875 129.75H136.125C137.07 129.75 137.976 129.518 138.644 129.105C139.312 128.692 139.688 128.131 139.688 127.547V116.531H157.5V156.188H100.5V116.531ZM221.625 156.188H164.625V116.531H182.438V127.547C182.438 128.131 182.813 128.692 183.481 129.105C184.149 129.518 185.055 129.75 186 129.75H200.25C201.195 129.75 202.101 129.518 202.769 129.105C203.437 128.692 203.812 128.131 203.812 127.547V116.531H221.625V156.188Z"/><path fill="#fff" d="M75.5625 109.922H82.6875C83.6323 109.922 84.5385 109.69 85.2066 109.277C85.8747 108.863 86.25 108.303 86.25 107.719C86.25 107.134 85.8747 106.574 85.2066 106.161C84.5385 105.748 83.6323 105.516 82.6875 105.516H75.5625C74.6177 105.516 73.7115 105.748 73.0434 106.161C72.3753 106.574 72 107.134 72 107.719C72 108.303 72.3753 108.863 73.0434 109.277C73.7115 109.69 74.6177 109.922 75.5625 109.922Z"/><path fill="#fff" d="M75.5625 103.312H82.6875C83.6323 103.312 84.5385 103.08 85.2066 102.667C85.8747 102.254 86.25 101.694 86.25 101.109C86.25 100.525 85.8747 99.9647 85.2066 99.5515C84.5385 99.1384 83.6323 98.9062 82.6875 98.9062H75.5625C74.6177 98.9062 73.7115 99.1384 73.0434 99.5515C72.3753 99.9647 72 100.525 72 101.109C72 101.694 72.3753 102.254 73.0434 102.667C73.7115 103.08 74.6177 103.312 75.5625 103.312Z"/><path fill="#fff" d="M146.812 105.516H139.688C138.743 105.516 137.837 105.748 137.168 106.161C136.5 106.574 136.125 107.134 136.125 107.719C136.125 108.303 136.5 108.863 137.168 109.277C137.837 109.69 138.743 109.922 139.688 109.922H146.812C147.757 109.922 148.663 109.69 149.332 109.277C150 108.863 150.375 108.303 150.375 107.719C150.375 107.134 150 106.574 149.332 106.161C148.663 105.748 147.757 105.516 146.812 105.516Z"/><path fill="#fff" d="M146.812 98.9062H139.688C138.743 98.9062 137.837 99.1384 137.168 99.5515C136.5 99.9647 136.125 100.525 136.125 101.109C136.125 101.694 136.5 102.254 137.168 102.667C137.837 103.08 138.743 103.312 139.688 103.312H146.812C147.757 103.312 148.663 103.08 149.332 102.667C150 102.254 150.375 101.694 150.375 101.109C150.375 100.525 150 99.9647 149.332 99.5515C148.663 99.1384 147.757 98.9062 146.812 98.9062Z"/><path fill="#fff" d="M107.625 59.25H114.75C115.695 59.25 116.601 59.0179 117.269 58.6047C117.937 58.1916 118.312 57.6312 118.312 57.0469C118.312 56.4626 117.937 55.9022 117.269 55.489C116.601 55.0759 115.695 54.8438 114.75 54.8438H107.625C106.68 54.8438 105.774 55.0759 105.106 55.489C104.438 55.9022 104.062 56.4626 104.062 57.0469C104.062 57.6312 104.438 58.1916 105.106 58.6047C105.774 59.0179 106.68 59.25 107.625 59.25Z"/><path fill="#fff" d="M107.625 65.8594H114.75C115.695 65.8594 116.601 65.6273 117.269 65.2141C117.937 64.8009 118.312 64.2406 118.312 63.6562C118.312 63.0719 117.937 62.5116 117.269 62.0984C116.601 61.6852 115.695 61.4531 114.75 61.4531H107.625C106.68 61.4531 105.774 61.6852 105.106 62.0984C104.438 62.5116 104.062 63.0719 104.062 63.6562C104.062 64.2406 104.438 64.8009 105.106 65.2141C105.774 65.6273 106.68 65.8594 107.625 65.8594Z"/><defs><filter id="filter0_d" width="258" height="258" x="0" y="0" color-interpolation-filters="sRGB" filterUnits="userSpaceOnUse"><feFlood flood-opacity="0" result="BackgroundImageFix"/><feColorMatrix in="SourceAlpha" type="matrix" values="0 0 0 0 0 0 0 0 0 0 0 0 0 0 0 0 0 0 127 0"/><feOffset dy="4"/><feGaussianBlur stdDeviation="2"/><feColorMatrix type="matrix" values="0 0 0 0 0 0 0 0 0 0 0 0 0 0 0 0 0 0 0.25 0"/><feBlend in2="BackgroundImageFix" mode="normal" result="effect1_dropShadow"/><feBlend in="SourceGraphic" in2="effect1_dropShadow" mode="normal" result="shape"/></filter></defs></svg>