<svg width="258" height="258" viewBox="0 0 258 258" fill="none" xmlns="http://www.w3.org/2000/svg">
<g filter="url(#filter0_d)">
<path d="M204 0H54C26.3858 0 4 22.3858 4 50V200C4 227.614 26.3858 250 54 250H204C231.614 250 254 227.614 254 200V50C254 22.3858 231.614 0 204 0Z" fill="#5E7CE2"/>
</g>
<path d="M57.0327 216.368C57.7527 216.24 58.5527 216.144 59.4327 216.08C60.3127 216 61.1927 215.96 62.0727 215.96C62.9687 215.96 63.8727 216.032 64.7847 216.176C65.6967 216.304 66.5127 216.576 67.2327 216.992C67.9687 217.392 68.5687 217.96 69.0327 218.696C69.4967 219.416 69.7287 220.376 69.7287 221.576C69.7287 222.632 69.5287 223.536 69.1287 224.288C68.7287 225.024 68.1927 225.624 67.5207 226.088C66.8647 226.552 66.1127 226.896 65.2647 227.12C64.4167 227.328 63.5447 227.432 62.6487 227.432C62.5687 227.432 62.4327 227.432 62.2407 227.432C62.0487 227.432 61.8407 227.432 61.6167 227.432C61.4087 227.416 61.2087 227.4 61.0167 227.384C60.8247 227.368 60.6807 227.352 60.5847 227.336V233H57.0327V216.368ZM62.3127 219.08C61.9767 219.08 61.6487 219.088 61.3287 219.104C61.0247 219.12 60.7767 219.152 60.5847 219.2V224.192C60.6487 224.208 60.7527 224.224 60.8967 224.24C61.0407 224.256 61.1927 224.272 61.3527 224.288C61.5127 224.288 61.6567 224.296 61.7847 224.312C61.9287 224.312 62.0407 224.312 62.1207 224.312C62.5847 224.312 63.0487 224.28 63.5127 224.216C63.9767 224.152 64.3847 224.016 64.7367 223.808C65.1047 223.6 65.4007 223.32 65.6247 222.968C65.8487 222.6 65.9607 222.112 65.9607 221.504C65.9607 220.992 65.8567 220.584 65.6487 220.28C65.4407 219.96 65.1607 219.712 64.8087 219.536C64.4727 219.36 64.0807 219.24 63.6327 219.176C63.2007 219.112 62.7607 219.08 62.3127 219.08ZM78.75 223.472C78.27 223.312 77.79 223.232 77.31 223.232C76.606 223.232 76.022 223.4 75.558 223.736C75.11 224.072 74.814 224.496 74.67 225.008V233H71.31V220.4H73.95L74.31 222.152H74.622C74.942 221.496 75.366 220.992 75.894 220.64C76.438 220.288 77.054 220.112 77.742 220.112C78.174 220.112 78.67 220.2 79.23 220.376L78.75 223.472ZM80.34 226.712C80.34 224.632 80.892 223 81.996 221.816C83.1 220.632 84.676 220.04 86.724 220.04C87.796 220.04 88.732 220.208 89.532 220.544C90.332 220.88 90.996 221.352 91.524 221.96C92.052 222.552 92.444 223.256 92.7 224.072C92.972 224.872 93.108 225.752 93.108 226.712C93.108 227.736 92.964 228.664 92.676 229.496C92.388 230.312 91.972 231.008 91.428 231.584C90.884 232.16 90.212 232.6 89.412 232.904C88.628 233.208 87.732 233.36 86.724 233.36C85.636 233.36 84.692 233.192 83.892 232.856C83.092 232.52 82.428 232.056 81.9 231.464C81.372 230.856 80.98 230.152 80.724 229.352C80.468 228.536 80.34 227.656 80.34 226.712ZM83.796 226.712C83.796 227.24 83.852 227.736 83.964 228.2C84.076 228.664 84.244 229.072 84.468 229.424C84.708 229.76 85.012 230.032 85.38 230.24C85.748 230.448 86.196 230.552 86.724 230.552C88.676 230.552 89.652 229.272 89.652 226.712C89.652 226.152 89.596 225.64 89.484 225.176C89.388 224.696 89.22 224.288 88.98 223.952C88.756 223.6 88.452 223.328 88.068 223.136C87.7 222.944 87.252 222.848 86.724 222.848C85.812 222.848 85.092 223.152 84.564 223.76C84.052 224.368 83.796 225.352 83.796 226.712ZM99.961 226.928L100.465 228.872H100.849L101.209 226.88L103.561 220.4H107.185L101.425 233.12H99.505L93.505 220.4H97.417L99.961 226.928ZM119.211 231.848C118.667 232.264 117.923 232.624 116.979 232.928C116.051 233.216 115.051 233.36 113.979 233.36C111.819 233.36 110.235 232.768 109.227 231.584C108.219 230.4 107.715 228.776 107.715 226.712C107.715 224.52 108.283 222.864 109.419 221.744C110.555 220.608 112.155 220.04 114.219 220.04C114.891 220.04 115.555 220.128 116.211 220.304C116.867 220.464 117.451 220.744 117.963 221.144C118.475 221.528 118.883 222.056 119.187 222.728C119.507 223.384 119.667 224.2 119.667 225.176C119.667 225.512 119.643 225.88 119.595 226.28C119.563 226.68 119.499 227.096 119.403 227.528H111.003C111.083 228.616 111.395 229.424 111.939 229.952C112.499 230.464 113.403 230.72 114.651 230.72C115.403 230.72 116.075 230.616 116.667 230.408C117.275 230.184 117.739 229.96 118.059 229.736L119.211 231.848ZM114.171 222.68C113.179 222.68 112.443 222.952 111.963 223.496C111.483 224.024 111.203 224.704 111.123 225.536H116.547C116.611 224.656 116.451 223.96 116.067 223.448C115.683 222.936 115.051 222.68 114.171 222.68ZM133.32 231.848C132.776 232.264 132.032 232.624 131.088 232.928C130.16 233.216 129.16 233.36 128.088 233.36C125.928 233.36 124.344 232.768 123.336 231.584C122.328 230.4 121.824 228.776 121.824 226.712C121.824 224.52 122.392 222.864 123.528 221.744C124.664 220.608 126.264 220.04 128.328 220.04C129 220.04 129.664 220.128 130.32 220.304C130.976 220.464 131.56 220.744 132.072 221.144C132.584 221.528 132.992 222.056 133.296 222.728C133.616 223.384 133.776 224.2 133.776 225.176C133.776 225.512 133.752 225.88 133.704 226.28C133.672 226.68 133.608 227.096 133.512 227.528H125.112C125.192 228.616 125.504 229.424 126.048 229.952C126.608 230.464 127.512 230.72 128.76 230.72C129.512 230.72 130.184 230.616 130.776 230.408C131.384 230.184 131.848 229.96 132.168 229.736L133.32 231.848ZM128.28 222.68C127.288 222.68 126.552 222.952 126.072 223.496C125.592 224.024 125.312 224.704 125.232 225.536H130.656C130.72 224.656 130.56 223.96 130.176 223.448C129.792 222.936 129.16 222.68 128.28 222.68ZM148.266 228.584C148.266 229.256 148.274 229.952 148.29 230.672C148.306 231.392 148.378 232.176 148.506 233.024H146.178L145.698 231.272H145.386C145.018 231.912 144.49 232.424 143.802 232.808C143.13 233.176 142.322 233.36 141.378 233.36C139.698 233.36 138.394 232.84 137.466 231.8C136.538 230.744 136.074 229.12 136.074 226.928C136.074 225.872 136.202 224.92 136.458 224.072C136.73 223.224 137.122 222.504 137.634 221.912C138.162 221.32 138.81 220.864 139.578 220.544C140.346 220.224 141.234 220.064 142.242 220.064C142.802 220.064 143.282 220.112 143.682 220.208C144.098 220.288 144.506 220.392 144.906 220.52V216.2H148.266V228.584ZM142.242 230.552C142.994 230.552 143.578 230.384 143.994 230.048C144.41 229.696 144.714 229.2 144.906 228.56V223.52C144.618 223.296 144.306 223.136 143.97 223.04C143.65 222.928 143.226 222.872 142.698 222.872C141.626 222.872 140.826 223.184 140.298 223.808C139.786 224.432 139.53 225.504 139.53 227.024C139.53 228.08 139.746 228.936 140.178 229.592C140.626 230.232 141.314 230.552 142.242 230.552ZM151.145 226.712C151.145 224.632 151.697 223 152.801 221.816C153.905 220.632 155.481 220.04 157.529 220.04C158.601 220.04 159.537 220.208 160.337 220.544C161.137 220.88 161.801 221.352 162.329 221.96C162.857 222.552 163.249 223.256 163.505 224.072C163.777 224.872 163.913 225.752 163.913 226.712C163.913 227.736 163.769 228.664 163.481 229.496C163.193 230.312 162.777 231.008 162.233 231.584C161.689 232.16 161.017 232.6 160.217 232.904C159.433 233.208 158.537 233.36 157.529 233.36C156.441 233.36 155.497 233.192 154.697 232.856C153.897 232.52 153.233 232.056 152.705 231.464C152.177 230.856 151.785 230.152 151.529 229.352C151.273 228.536 151.145 227.656 151.145 226.712ZM154.601 226.712C154.601 227.24 154.657 227.736 154.769 228.2C154.881 228.664 155.049 229.072 155.273 229.424C155.513 229.76 155.817 230.032 156.185 230.24C156.553 230.448 157.001 230.552 157.529 230.552C159.481 230.552 160.457 229.272 160.457 226.712C160.457 226.152 160.401 225.64 160.289 225.176C160.193 224.696 160.025 224.288 159.785 223.952C159.561 223.6 159.257 223.328 158.873 223.136C158.505 222.944 158.057 222.848 157.529 222.848C156.617 222.848 155.897 223.152 155.369 223.76C154.857 224.368 154.601 225.352 154.601 226.712ZM174.094 223.472C173.614 223.312 173.134 223.232 172.654 223.232C171.95 223.232 171.366 223.4 170.902 223.736C170.454 224.072 170.158 224.496 170.014 225.008V233H166.654V220.4H169.294L169.654 222.152H169.966C170.286 221.496 170.71 220.992 171.238 220.64C171.782 220.288 172.398 220.112 173.086 220.112C173.518 220.112 174.014 220.2 174.574 220.376L174.094 223.472ZM187.18 231.848C186.636 232.264 185.892 232.624 184.948 232.928C184.02 233.216 183.02 233.36 181.948 233.36C179.788 233.36 178.204 232.768 177.196 231.584C176.188 230.4 175.684 228.776 175.684 226.712C175.684 224.52 176.252 222.864 177.388 221.744C178.524 220.608 180.124 220.04 182.188 220.04C182.86 220.04 183.524 220.128 184.18 220.304C184.836 220.464 185.42 220.744 185.932 221.144C186.444 221.528 186.852 222.056 187.156 222.728C187.476 223.384 187.636 224.2 187.636 225.176C187.636 225.512 187.612 225.88 187.564 226.28C187.532 226.68 187.468 227.096 187.372 227.528H178.972C179.052 228.616 179.364 229.424 179.908 229.952C180.468 230.464 181.372 230.72 182.62 230.72C183.372 230.72 184.044 230.616 184.636 230.408C185.244 230.184 185.708 229.96 186.028 229.736L187.18 231.848ZM182.14 222.68C181.148 222.68 180.412 222.952 179.932 223.496C179.452 224.024 179.172 224.704 179.092 225.536H184.516C184.58 224.656 184.42 223.96 184.036 223.448C183.652 222.936 183.02 222.68 182.14 222.68ZM190.63 229.736C190.854 229.848 191.11 229.96 191.398 230.072C191.702 230.184 192.022 230.288 192.358 230.384C192.71 230.48 193.062 230.56 193.414 230.624C193.782 230.688 194.15 230.72 194.518 230.72C195.078 230.72 195.51 230.632 195.814 230.456C196.134 230.28 196.294 229.952 196.294 229.472C196.294 229.088 196.086 228.808 195.67 228.632C195.254 228.44 194.742 228.256 194.134 228.08C193.686 227.952 193.214 227.8 192.718 227.624C192.238 227.448 191.79 227.216 191.374 226.928C190.974 226.624 190.638 226.232 190.366 225.752C190.11 225.272 189.982 224.664 189.982 223.928C189.982 222.664 190.374 221.704 191.158 221.048C191.942 220.376 193.07 220.04 194.542 220.04C195.502 220.04 196.398 220.128 197.23 220.304C198.078 220.464 198.758 220.656 199.27 220.88L198.574 223.424C198.158 223.264 197.622 223.104 196.966 222.944C196.326 222.768 195.67 222.68 194.998 222.68C194.438 222.68 194.022 222.768 193.75 222.944C193.478 223.104 193.342 223.392 193.342 223.808C193.342 224.176 193.55 224.456 193.966 224.648C194.398 224.824 194.918 225 195.526 225.176C195.974 225.304 196.438 225.456 196.918 225.632C197.414 225.792 197.862 226.016 198.262 226.304C198.662 226.592 198.99 226.968 199.246 227.432C199.518 227.88 199.654 228.448 199.654 229.136C199.654 230.48 199.214 231.52 198.334 232.256C197.47 232.992 196.166 233.36 194.422 233.36C193.478 233.36 192.598 233.272 191.782 233.096C190.966 232.936 190.302 232.696 189.79 232.376L190.63 229.736Z" fill="white"/>
<path d="M221.585 87.4506C222.035 86.5261 222.297 85.5241 222.297 84.4688V25.6875C222.297 21.2682 217.943 17.6719 212.594 17.6719H134.969C129.619 17.6719 125.266 21.2682 125.266 25.6875V84.4688C125.266 85.5241 125.528 86.5261 125.977 87.4506C121.853 88.3724 118.797 91.461 118.797 95.1562V108.516H112.328V119.203H105.859V127.873L84.0273 133.027C82.7886 131.197 81.4528 129.415 79.9844 127.708V108.411C83.2867 108.158 86.3658 107.027 88.7431 105.064C91.4373 102.835 92.9219 99.8721 92.9219 96.722V91.7389L102.625 89.067V87.1406C102.625 81.6152 98.7308 74.182 95.4673 68.9211C95.1471 68.4054 94.7719 67.9272 94.3676 67.4703C101.073 65.3622 105.859 60.0131 105.859 53.7422C105.859 45.6384 97.8802 39.0469 88.0703 39.0469H71.4489C47.6212 39.0469 28.2344 55.0621 28.2344 74.7458C28.2344 88.3563 37.3877 100.591 52.1202 106.677L54.1094 107.498V112.008L52.1752 112.606C38.0733 116.977 28.5481 128.17 28.2603 140.578H28.2344V183.328H92.9219V168.021L105.859 164.192V183.328H147.906C153.256 183.328 157.609 179.732 157.609 175.312V135.234H164.673C164.311 136.073 164.078 136.966 164.078 137.906V169.969C164.078 174.388 168.432 177.984 173.781 177.984H212.594C217.943 177.984 222.297 174.388 222.297 169.969V137.906C222.297 136.851 222.035 135.849 221.585 134.924C225.709 134 228.766 130.914 228.766 127.219V95.1562C228.766 91.461 225.709 88.3724 221.585 87.4506V87.4506ZM164.078 23.0156H183.484V33.7031H164.078V23.0156ZM131.734 25.6875C131.734 24.2153 133.187 23.0156 134.969 23.0156H157.609V39.0469H189.953V23.0156H212.594C214.376 23.0156 215.828 24.2153 215.828 25.6875V84.4688C215.828 85.941 214.376 87.1406 212.594 87.1406H180.25H167.312H134.969C133.187 87.1406 131.734 85.941 131.734 84.4688V25.6875ZM196.422 92.4844H202.891V97.8281H196.422V92.4844ZM144.672 92.4844H151.141V97.8281H144.672V92.4844ZM118.797 113.859H147.906C149.688 113.859 151.141 115.056 151.141 116.531C151.141 118.006 149.688 119.203 147.906 119.203H118.797V113.859ZM65.5073 156.315L111.623 145.43L113.952 139.664C114.537 138.211 115.934 137.057 117.694 136.573C119.829 135.988 122.148 136.437 123.745 137.754L127.161 140.578H132.242C135.528 140.578 138.203 142.788 138.203 145.505C138.203 147.704 136.411 149.654 133.63 150.304L81.1617 165.827C77.8626 166.8 74.4115 167.297 70.9023 167.297H66.5617C62.4411 167.297 58.4046 166.581 54.6657 165.269L65.5073 156.315ZM105.859 133.434V141.235L90.0595 144.963C89.2056 142.547 88.1932 140.183 86.9706 137.893L105.859 133.434ZM95.9751 85.265L86.4531 87.8888V96.7246C86.4531 98.448 85.6413 100.067 84.1632 101.288C82.6915 102.507 80.7315 103.177 78.6453 103.177L67.0469 103.172V108.516L73.5156 108.518V121.255C69.6602 117.91 65.3294 114.944 60.5781 112.441V91.3782L55.057 86.8173C54.4458 86.3123 54.1094 85.639 54.1094 84.9256V84.4688C54.1094 82.9965 55.5616 81.7969 57.3438 81.7969H60.5781V73.7812C60.5781 70.8342 63.4794 68.4375 67.0469 68.4375H83.2188H83.94C86.382 68.4375 88.591 69.557 89.7101 71.3579C93.1871 76.9608 95.3541 81.7969 95.9751 85.265ZM34.7031 74.7458C34.7031 58.0092 51.1887 44.3906 71.4489 44.3906H88.0703C94.3127 44.3906 99.3906 48.5855 99.3906 53.7422C99.3906 58.8989 94.3127 63.0938 88.0703 63.0938H83.94H83.2188H67.0469C59.9118 63.0938 54.1094 67.8871 54.1094 73.7812V76.91C50.3446 78.0135 47.6406 80.9846 47.6406 84.4688V84.9256C47.6406 87.0658 48.6498 89.0804 50.4836 90.5954L54.1094 93.5905V101.454C42.1325 96.1529 34.7031 86.0238 34.7031 74.7458V74.7458ZM54.449 117.611L56.9265 116.841C69.9158 123.638 79.5413 134.254 83.8495 146.43L65.9019 150.664L64.6276 147.509C61.6358 140.097 54.3681 134.537 45.189 132.643L43.6203 137.826C50.6421 139.277 56.202 143.531 58.492 149.203L60.1124 153.219L48.7985 162.565C48.0999 162.151 47.4175 161.713 46.7609 161.248L45.3313 160.235C38.5779 155.45 34.7031 148.495 34.7031 141.147C34.7031 130.727 42.637 121.268 54.449 117.611V117.611ZM86.4531 177.984H34.7031V158.314C36.5111 160.5 38.6329 162.528 41.1201 164.288L42.5497 165.301C49.2319 170.033 57.7578 172.641 66.5617 172.641H70.9023C75.1555 172.641 79.3407 172.039 83.3449 170.856L86.4531 169.937V177.984ZM147.906 177.984H112.328V162.276L135.593 155.391C140.939 154.154 144.672 150.09 144.672 145.505C144.672 139.843 139.096 135.234 132.242 135.234H129.839L128.316 133.976C124.978 131.216 120.123 130.267 115.647 131.502C114.434 131.836 113.344 132.37 112.328 132.982V124.547H147.906C149.045 124.547 150.125 124.355 151.141 124.055V175.312C151.141 176.787 149.688 177.984 147.906 177.984ZM157.609 116.531C157.609 112.112 153.256 108.516 147.906 108.516H125.266V95.1562C125.266 93.684 126.718 92.4844 128.5 92.4844H134.969H138.203V103.172H157.609V92.4844H167.312C169.095 92.4844 170.547 93.684 170.547 95.1562V127.219C170.547 128.694 169.095 129.891 167.312 129.891H157.609V116.531ZM215.828 169.969C215.828 171.444 214.376 172.641 212.594 172.641H173.781C171.999 172.641 170.547 171.444 170.547 169.969V137.906C170.547 136.431 171.999 135.234 173.781 135.234H180.25H183.484V145.922H202.891V135.234H212.594C214.376 135.234 215.828 136.431 215.828 137.906V169.969ZM189.953 135.234H196.422V140.578H189.953V135.234ZM222.297 127.219C222.297 128.694 220.845 129.891 219.062 129.891H212.594H180.25C178.468 129.891 177.016 128.694 177.016 127.219V95.1562C177.016 93.684 178.468 92.4844 180.25 92.4844H189.953V103.172H209.359V92.4844H212.594H219.062C220.845 92.4844 222.297 93.684 222.297 95.1562V127.219Z" fill="white"/>
<path d="M189.953 76.4531H196.422V81.7969H189.953V76.4531Z" fill="white"/>
<path d="M202.891 76.4531H209.359V81.7969H202.891V76.4531Z" fill="white"/>
<path d="M177.016 76.4531H183.484V81.7969H177.016V76.4531Z" fill="white"/>
<path d="M177.016 65.7656H209.359V71.1094H177.016V65.7656Z" fill="white"/>
<defs>
<filter id="filter0_d" x="0" y="0" width="258" height="258" filterUnits="userSpaceOnUse" color-interpolation-filters="sRGB">
<feFlood flood-opacity="0" result="BackgroundImageFix"/>
<feColorMatrix in="SourceAlpha" type="matrix" values="0 0 0 0 0 0 0 0 0 0 0 0 0 0 0 0 0 0 127 0"/>
<feOffset dy="4"/>
<feGaussianBlur stdDeviation="2"/>
<feColorMatrix type="matrix" values="0 0 0 0 0 0 0 0 0 0 0 0 0 0 0 0 0 0 0.25 0"/>
<feBlend mode="normal" in2="BackgroundImageFix" result="effect1_dropShadow"/>
<feBlend mode="normal" in="SourceGraphic" in2="effect1_dropShadow" result="shape"/>
</filter>
</defs>
</svg>
