<svg xmlns="http://www.w3.org/2000/svg" width="258" height="258" fill="none" viewBox="0 0 258 258"><g filter="url(#filter0_d)"><path fill="#DA3E52" d="M204 0H54C26.3858 0 4 22.3858 4 50V200C4 227.614 26.3858 250 54 250H204C231.614 250 254 227.614 254 200V50C254 22.3858 231.614 0 204 0Z"/></g><path fill="#fff" d="M22.5561 214.368C22.9401 214.304 23.3561 214.248 23.8041 214.2C24.2681 214.136 24.7321 214.088 25.1961 214.056C25.6601 214.024 26.1081 214 26.5401 213.984C26.9881 213.968 27.3961 213.96 27.7641 213.96C28.6121 213.96 29.4441 214.032 30.2601 214.176C31.0921 214.32 31.8281 214.568 32.4681 214.92C33.1241 215.272 33.6521 215.76 34.0521 216.384C34.4521 216.992 34.6521 217.76 34.6521 218.688C34.6521 220.064 34.3081 221.2 33.6201 222.096C32.9481 222.976 32.0121 223.576 30.8121 223.896L32.0841 224.64L36.2841 231H32.1561L27.9801 224.496L26.1081 224.208V231H22.5561V214.368ZM28.0041 217.08C27.6361 217.08 27.2761 217.088 26.9241 217.104C26.5881 217.104 26.3161 217.128 26.1081 217.176V221.808H27.6201C28.6281 221.808 29.4201 221.616 29.9961 221.232C30.5881 220.848 30.8841 220.184 30.8841 219.24C30.8841 218.536 30.6361 218 30.1401 217.632C29.6441 217.264 28.9321 217.08 28.0041 217.08ZM47.9142 229.848C47.3702 230.264 46.6262 230.624 45.6822 230.928C44.7542 231.216 43.7542 231.36 42.6822 231.36C40.5222 231.36 38.9382 230.768 37.9302 229.584C36.9222 228.4 36.4182 226.776 36.4182 224.712C36.4182 222.52 36.9862 220.864 38.1222 219.744C39.2582 218.608 40.8582 218.04 42.9222 218.04C43.5942 218.04 44.2582 218.128 44.9142 218.304C45.5702 218.464 46.1542 218.744 46.6662 219.144C47.1782 219.528 47.5862 220.056 47.8902 220.728C48.2102 221.384 48.3702 222.2 48.3702 223.176C48.3702 223.512 48.3462 223.88 48.2982 224.28C48.2662 224.68 48.2022 225.096 48.1062 225.528H39.7062C39.7862 226.616 40.0982 227.424 40.6422 227.952C41.2022 228.464 42.1062 228.72 43.3542 228.72C44.1062 228.72 44.7782 228.616 45.3702 228.408C45.9782 228.184 46.4422 227.96 46.7622 227.736L47.9142 229.848ZM42.8742 220.68C41.8822 220.68 41.1462 220.952 40.6662 221.496C40.1862 222.024 39.9062 222.704 39.8262 223.536H45.2502C45.3142 222.656 45.1542 221.96 44.7702 221.448C44.3862 220.936 43.7542 220.68 42.8742 220.68ZM62.6475 230.52C62.6475 232.376 62.1195 233.744 61.0635 234.624C60.0075 235.504 58.5115 235.944 56.5755 235.944C55.3275 235.944 54.3195 235.856 53.5515 235.68C52.7995 235.52 52.2155 235.336 51.7995 235.128C52.0075 234.488 52.1595 233.976 52.2555 233.592C52.3675 233.224 52.4475 232.944 52.4955 232.752C52.5435 232.56 52.5755 232.44 52.5915 232.392C52.6075 232.344 52.6155 232.32 52.6155 232.32C52.9995 232.512 53.4635 232.704 54.0075 232.896C54.5515 233.104 55.2155 233.208 55.9995 233.208C56.6555 233.208 57.1995 233.144 57.6315 233.016C58.0635 232.888 58.4075 232.696 58.6635 232.44C58.9195 232.2 59.0955 231.904 59.1915 231.552C59.3035 231.2 59.3595 230.808 59.3595 230.376V229.44H59.0715C58.7515 229.904 58.3115 230.232 57.7515 230.424C57.1915 230.616 56.4955 230.712 55.6635 230.712C53.9515 230.712 52.6635 230.24 51.7995 229.296C50.9515 228.352 50.5275 226.832 50.5275 224.736C50.5275 222.528 51.0875 220.864 52.2075 219.744C53.3435 218.624 55.0235 218.064 57.2475 218.064C58.4155 218.064 59.4555 218.144 60.3675 218.304C61.2955 218.448 62.0555 218.616 62.6475 218.808V230.52ZM56.4555 228.096C57.1915 228.096 57.7915 227.96 58.2555 227.688C58.7355 227.416 59.0795 227.08 59.2875 226.68V221.256C58.6955 221 57.9435 220.872 57.0315 220.872C56.0555 220.872 55.3035 221.16 54.7755 221.736C54.2475 222.312 53.9835 223.264 53.9835 224.592C53.9835 225.808 54.2075 226.696 54.6555 227.256C55.1035 227.816 55.7035 228.096 56.4555 228.096ZM66.5149 218.4H69.8749V231H66.5149V218.4ZM66.0109 215.256C66.0109 214.744 66.1949 214.32 66.5629 213.984C66.9309 213.632 67.4509 213.456 68.1229 213.456C68.8109 213.456 69.3549 213.632 69.7549 213.984C70.1549 214.336 70.3549 214.76 70.3549 215.256C70.3549 215.72 70.1549 216.12 69.7549 216.456C69.3549 216.792 68.8109 216.96 68.1229 216.96C67.4509 216.96 66.9309 216.792 66.5629 216.456C66.1949 216.12 66.0109 215.72 66.0109 215.256ZM73.7001 227.736C73.9241 227.848 74.1801 227.96 74.4681 228.072C74.7721 228.184 75.0921 228.288 75.4281 228.384C75.7801 228.48 76.1321 228.56 76.4841 228.624C76.8521 228.688 77.2201 228.72 77.5881 228.72C78.1481 228.72 78.5801 228.632 78.8841 228.456C79.2041 228.28 79.3641 227.952 79.3641 227.472C79.3641 227.088 79.1561 226.808 78.7401 226.632C78.3241 226.44 77.8121 226.256 77.2041 226.08C76.7561 225.952 76.2841 225.8 75.7881 225.624C75.3081 225.448 74.8601 225.216 74.4441 224.928C74.0441 224.624 73.7081 224.232 73.4361 223.752C73.1801 223.272 73.0521 222.664 73.0521 221.928C73.0521 220.664 73.4441 219.704 74.2281 219.048C75.0121 218.376 76.1401 218.04 77.6121 218.04C78.5721 218.04 79.4681 218.128 80.3001 218.304C81.1481 218.464 81.8281 218.656 82.3401 218.88L81.6441 221.424C81.2281 221.264 80.6921 221.104 80.0361 220.944C79.3961 220.768 78.7401 220.68 78.0681 220.68C77.5081 220.68 77.0921 220.768 76.8201 220.944C76.5481 221.104 76.4121 221.392 76.4121 221.808C76.4121 222.176 76.6201 222.456 77.0361 222.648C77.4681 222.824 77.9881 223 78.5961 223.176C79.0441 223.304 79.5081 223.456 79.9881 223.632C80.4841 223.792 80.9321 224.016 81.3321 224.304C81.7321 224.592 82.0601 224.968 82.3161 225.432C82.5881 225.88 82.7241 226.448 82.7241 227.136C82.7241 228.48 82.2841 229.52 81.4041 230.256C80.5401 230.992 79.2361 231.36 77.4921 231.36C76.5481 231.36 75.6681 231.272 74.8521 231.096C74.0361 230.936 73.3721 230.696 72.8601 230.376L73.7001 227.736ZM83.7897 218.4H85.7097V216.672L89.0697 215.784V218.4H92.4537V221.208H89.0697V225.576C89.0697 226.584 89.1657 227.312 89.3577 227.76C89.5657 228.192 89.9657 228.408 90.5577 228.408C90.9257 228.408 91.2377 228.384 91.4937 228.336C91.7497 228.272 92.0217 228.176 92.3097 228.048L93.0057 230.568C92.4937 230.792 91.9017 230.984 91.2297 231.144C90.5737 231.304 89.9337 231.384 89.3097 231.384C88.0617 231.384 87.1497 231.08 86.5737 230.472C85.9977 229.848 85.7097 228.856 85.7097 227.496V221.208H83.7897V218.4ZM102.469 221.472C101.989 221.312 101.509 221.232 101.029 221.232C100.325 221.232 99.7408 221.4 99.2768 221.736C98.8288 222.072 98.5328 222.496 98.3888 223.008V231H95.0288V218.4H97.6688L98.0288 220.152H98.3408C98.6608 219.496 99.0848 218.992 99.6128 218.64C100.157 218.288 100.773 218.112 101.461 218.112C101.893 218.112 102.389 218.2 102.949 218.376L102.469 221.472ZM104.059 224.712C104.059 222.632 104.611 221 105.715 219.816C106.819 218.632 108.395 218.04 110.443 218.04C111.515 218.04 112.451 218.208 113.251 218.544C114.051 218.88 114.715 219.352 115.243 219.96C115.771 220.552 116.163 221.256 116.419 222.072C116.691 222.872 116.827 223.752 116.827 224.712C116.827 225.736 116.683 226.664 116.395 227.496C116.107 228.312 115.691 229.008 115.147 229.584C114.603 230.16 113.931 230.6 113.131 230.904C112.347 231.208 111.451 231.36 110.443 231.36C109.355 231.36 108.411 231.192 107.611 230.856C106.811 230.52 106.147 230.056 105.619 229.464C105.091 228.856 104.699 228.152 104.443 227.352C104.187 226.536 104.059 225.656 104.059 224.712ZM107.515 224.712C107.515 225.24 107.571 225.736 107.683 226.2C107.795 226.664 107.963 227.072 108.187 227.424C108.427 227.76 108.731 228.032 109.099 228.24C109.467 228.448 109.915 228.552 110.443 228.552C112.395 228.552 113.371 227.272 113.371 224.712C113.371 224.152 113.315 223.64 113.203 223.176C113.107 222.696 112.939 222.288 112.699 221.952C112.475 221.6 112.171 221.328 111.787 221.136C111.419 220.944 110.971 220.848 110.443 220.848C109.531 220.848 108.811 221.152 108.283 221.76C107.771 222.368 107.515 223.352 107.515 224.712ZM137.673 226.584C137.673 227.256 137.681 227.952 137.697 228.672C137.713 229.392 137.785 230.176 137.913 231.024H135.585L135.105 229.272H134.793C134.425 229.912 133.897 230.424 133.209 230.808C132.537 231.176 131.729 231.36 130.785 231.36C129.105 231.36 127.801 230.84 126.873 229.8C125.945 228.744 125.481 227.12 125.481 224.928C125.481 223.872 125.609 222.92 125.865 222.072C126.137 221.224 126.529 220.504 127.041 219.912C127.569 219.32 128.217 218.864 128.985 218.544C129.753 218.224 130.641 218.064 131.649 218.064C132.209 218.064 132.689 218.112 133.089 218.208C133.505 218.288 133.913 218.392 134.313 218.52V214.2H137.673V226.584ZM131.649 228.552C132.401 228.552 132.985 228.384 133.401 228.048C133.817 227.696 134.121 227.2 134.313 226.56V221.52C134.025 221.296 133.713 221.136 133.377 221.04C133.057 220.928 132.633 220.872 132.105 220.872C131.033 220.872 130.233 221.184 129.705 221.808C129.193 222.432 128.937 223.504 128.937 225.024C128.937 226.08 129.153 226.936 129.585 227.592C130.033 228.232 130.721 228.552 131.649 228.552ZM152.047 229.848C151.503 230.264 150.759 230.624 149.815 230.928C148.887 231.216 147.887 231.36 146.815 231.36C144.655 231.36 143.071 230.768 142.063 229.584C141.055 228.4 140.551 226.776 140.551 224.712C140.551 222.52 141.119 220.864 142.255 219.744C143.391 218.608 144.991 218.04 147.055 218.04C147.727 218.04 148.391 218.128 149.047 218.304C149.703 218.464 150.287 218.744 150.799 219.144C151.311 219.528 151.719 220.056 152.023 220.728C152.343 221.384 152.503 222.2 152.503 223.176C152.503 223.512 152.479 223.88 152.431 224.28C152.399 224.68 152.335 225.096 152.239 225.528H143.839C143.919 226.616 144.231 227.424 144.775 227.952C145.335 228.464 146.239 228.72 147.487 228.72C148.239 228.72 148.911 228.616 149.503 228.408C150.111 228.184 150.575 227.96 150.895 227.736L152.047 229.848ZM147.007 220.68C146.015 220.68 145.279 220.952 144.799 221.496C144.319 222.024 144.039 222.704 143.959 223.536H149.383C149.447 222.656 149.287 221.96 148.903 221.448C148.519 220.936 147.887 220.68 147.007 220.68ZM166.031 224.928L166.535 226.872H166.919L167.279 224.88L169.631 218.4H173.255L167.495 231.12H165.575L159.575 218.4H163.487L166.031 224.928ZM175.101 218.4H178.461V231H175.101V218.4ZM174.597 215.256C174.597 214.744 174.781 214.32 175.149 213.984C175.517 213.632 176.037 213.456 176.709 213.456C177.397 213.456 177.941 213.632 178.341 213.984C178.741 214.336 178.941 214.76 178.941 215.256C178.941 215.72 178.741 216.12 178.341 216.456C177.941 216.792 177.397 216.96 176.709 216.96C176.037 216.96 175.517 216.792 175.149 216.456C174.781 216.12 174.597 215.72 174.597 215.256ZM182.286 227.736C182.51 227.848 182.766 227.96 183.054 228.072C183.358 228.184 183.678 228.288 184.014 228.384C184.366 228.48 184.718 228.56 185.07 228.624C185.438 228.688 185.806 228.72 186.174 228.72C186.734 228.72 187.166 228.632 187.47 228.456C187.79 228.28 187.95 227.952 187.95 227.472C187.95 227.088 187.742 226.808 187.326 226.632C186.91 226.44 186.398 226.256 185.79 226.08C185.342 225.952 184.87 225.8 184.374 225.624C183.894 225.448 183.446 225.216 183.03 224.928C182.63 224.624 182.294 224.232 182.022 223.752C181.766 223.272 181.638 222.664 181.638 221.928C181.638 220.664 182.03 219.704 182.814 219.048C183.598 218.376 184.726 218.04 186.198 218.04C187.158 218.04 188.054 218.128 188.886 218.304C189.734 218.464 190.414 218.656 190.926 218.88L190.23 221.424C189.814 221.264 189.278 221.104 188.622 220.944C187.982 220.768 187.326 220.68 186.654 220.68C186.094 220.68 185.678 220.768 185.406 220.944C185.134 221.104 184.998 221.392 184.998 221.808C184.998 222.176 185.206 222.456 185.622 222.648C186.054 222.824 186.574 223 187.182 223.176C187.63 223.304 188.094 223.456 188.574 223.632C189.07 223.792 189.518 224.016 189.918 224.304C190.318 224.592 190.646 224.968 190.902 225.432C191.174 225.88 191.31 226.448 191.31 227.136C191.31 228.48 190.87 229.52 189.99 230.256C189.126 230.992 187.822 231.36 186.078 231.36C185.134 231.36 184.254 231.272 183.438 231.096C182.622 230.936 181.958 230.696 181.446 230.376L182.286 227.736ZM194.32 218.4H197.68V231H194.32V218.4ZM193.816 215.256C193.816 214.744 194 214.32 194.368 213.984C194.736 213.632 195.256 213.456 195.928 213.456C196.616 213.456 197.16 213.632 197.56 213.984C197.96 214.336 198.16 214.76 198.16 215.256C198.16 215.72 197.96 216.12 197.56 216.456C197.16 216.792 196.616 216.96 195.928 216.96C195.256 216.96 194.736 216.792 194.368 216.456C194 216.12 193.816 215.72 193.816 215.256ZM199.993 218.4H201.913V216.672L205.273 215.784V218.4H208.657V221.208H205.273V225.576C205.273 226.584 205.369 227.312 205.561 227.76C205.769 228.192 206.169 228.408 206.761 228.408C207.129 228.408 207.441 228.384 207.697 228.336C207.953 228.272 208.225 228.176 208.513 228.048L209.209 230.568C208.697 230.792 208.105 230.984 207.433 231.144C206.777 231.304 206.137 231.384 205.513 231.384C204.265 231.384 203.353 231.08 202.777 230.472C202.201 229.848 201.913 228.856 201.913 227.496V221.208H199.993V218.4ZM211.112 219.264C211.832 218.944 212.712 218.68 213.752 218.472C214.808 218.264 215.896 218.16 217.016 218.16C217.896 218.16 218.632 218.264 219.224 218.472C219.832 218.68 220.312 218.984 220.664 219.384C221.016 219.768 221.264 220.24 221.408 220.8C221.568 221.344 221.648 221.952 221.648 222.624C221.648 223.44 221.616 224.248 221.552 225.048C221.488 225.848 221.456 226.696 221.456 227.592C221.456 228.2 221.496 228.792 221.576 229.368C221.656 229.944 221.784 230.496 221.96 231.024H219.224L218.672 229.152H218.384C217.968 229.712 217.44 230.192 216.8 230.592C216.16 230.992 215.336 231.192 214.328 231.192C213.72 231.192 213.16 231.104 212.648 230.928C212.152 230.752 211.72 230.504 211.352 230.184C211 229.848 210.72 229.456 210.512 229.008C210.32 228.56 210.224 228.072 210.224 227.544C210.224 226.12 210.696 225.048 211.64 224.328C212.6 223.592 214.048 223.224 215.984 223.224C216.432 223.224 216.88 223.264 217.328 223.344C217.776 223.408 218.088 223.456 218.264 223.488C218.312 223.152 218.336 222.864 218.336 222.624C218.336 222.016 218.184 221.568 217.88 221.28C217.576 220.992 217.008 220.848 216.176 220.848C215.408 220.848 214.656 220.944 213.92 221.136C213.2 221.312 212.56 221.536 212 221.808L211.112 219.264ZM215.504 228.504C216.256 228.504 216.856 228.328 217.304 227.976C217.752 227.624 218.08 227.256 218.288 226.872V225.432C218.208 225.4 218.08 225.368 217.904 225.336C217.744 225.304 217.56 225.272 217.352 225.24C217.16 225.208 216.96 225.184 216.752 225.168C216.56 225.152 216.384 225.144 216.224 225.144C215.36 225.144 214.72 225.304 214.304 225.624C213.888 225.928 213.68 226.312 213.68 226.776C213.68 227.352 213.84 227.784 214.16 228.072C214.496 228.36 214.944 228.504 215.504 228.504ZM225.106 227.736C225.33 227.848 225.586 227.96 225.874 228.072C226.178 228.184 226.498 228.288 226.834 228.384C227.186 228.48 227.538 228.56 227.89 228.624C228.258 228.688 228.626 228.72 228.994 228.72C229.554 228.72 229.986 228.632 230.29 228.456C230.61 228.28 230.77 227.952 230.77 227.472C230.77 227.088 230.562 226.808 230.146 226.632C229.73 226.44 229.218 226.256 228.61 226.08C228.162 225.952 227.69 225.8 227.194 225.624C226.714 225.448 226.266 225.216 225.85 224.928C225.45 224.624 225.114 224.232 224.842 223.752C224.586 223.272 224.458 222.664 224.458 221.928C224.458 220.664 224.85 219.704 225.634 219.048C226.418 218.376 227.546 218.04 229.018 218.04C229.978 218.04 230.874 218.128 231.706 218.304C232.554 218.464 233.234 218.656 233.746 218.88L233.05 221.424C232.634 221.264 232.098 221.104 231.442 220.944C230.802 220.768 230.146 220.68 229.474 220.68C228.914 220.68 228.498 220.768 228.226 220.944C227.954 221.104 227.818 221.392 227.818 221.808C227.818 222.176 228.026 222.456 228.442 222.648C228.874 222.824 229.394 223 230.002 223.176C230.45 223.304 230.914 223.456 231.394 223.632C231.89 223.792 232.338 224.016 232.738 224.304C233.138 224.592 233.466 224.968 233.722 225.432C233.994 225.88 234.13 226.448 234.13 227.136C234.13 228.48 233.69 229.52 232.81 230.256C231.946 230.992 230.642 231.36 228.898 231.36C227.954 231.36 227.074 231.272 226.258 231.096C225.442 230.936 224.778 230.696 224.266 230.376L225.106 227.736Z"/><path fill="#fff" d="M159.266 150.797C159.266 153.686 160.086 156.511 161.622 158.913C163.159 161.316 165.343 163.188 167.898 164.294C170.454 165.4 173.266 165.689 175.978 165.126C178.691 164.562 181.183 163.17 183.138 161.127C185.094 159.084 186.426 156.481 186.966 153.647C187.505 150.813 187.228 147.876 186.17 145.206C185.111 142.537 183.319 140.255 181.019 138.65C178.72 137.044 176.016 136.188 173.25 136.188C169.542 136.192 165.988 137.733 163.366 140.472C160.745 143.21 159.27 146.924 159.266 150.797V150.797ZM181.641 150.797C181.641 152.531 181.149 154.225 180.227 155.667C179.305 157.108 177.994 158.232 176.461 158.895C174.928 159.559 173.241 159.732 171.613 159.394C169.985 159.056 168.49 158.221 167.317 156.995C166.143 155.769 165.344 154.207 165.021 152.507C164.697 150.807 164.863 149.044 165.498 147.442C166.133 145.841 167.209 144.472 168.588 143.509C169.968 142.545 171.59 142.031 173.25 142.031C175.475 142.031 177.61 142.955 179.183 144.599C180.757 146.243 181.641 148.472 181.641 150.797Z"/><path fill="#fff" d="M182.983 192.609C191.486 181.155 204.016 162.309 204.016 150.797C204 143.293 201.476 136.03 196.88 130.263C192.284 124.496 185.905 120.587 178.844 119.211V54.375H184.438C185.179 54.375 185.891 54.0672 186.415 53.5192C186.94 52.9712 187.234 52.2281 187.234 51.4531V39.7656C187.234 38.9907 186.94 38.2475 186.415 37.6995C185.891 37.1516 185.179 36.8438 184.438 36.8438H55.7812C55.0395 36.8438 54.3281 37.1516 53.8036 37.6995C53.279 38.2475 52.9844 38.9907 52.9844 39.7656V51.4531C52.9844 52.2281 53.279 52.9712 53.8036 53.5192C54.3281 54.0672 55.0395 54.375 55.7812 54.375H61.375V171.25H55.7812C55.0395 171.25 54.3281 171.558 53.8036 172.106C53.279 172.654 52.9844 173.397 52.9844 174.172V182.938C52.9844 183.712 53.279 184.456 53.8036 185.004C54.3281 185.552 55.0395 185.859 55.7812 185.859H158.678C160.356 188.285 162.007 190.564 163.517 192.609C156.776 193.953 150.875 196.875 150.875 201.93C150.875 208.942 162.482 212.156 173.25 212.156C184.018 212.156 195.625 208.942 195.625 201.93C195.625 196.875 189.724 193.953 182.983 192.609ZM58.5781 48.5312V42.6875H181.641V48.5312H58.5781ZM164.859 95.2812H148.078C147.336 95.2812 146.625 95.5891 146.1 96.137C145.576 96.685 145.281 97.4282 145.281 98.2031V118.656H142.484V124.5H155.63C151.573 127.453 148.26 131.387 145.971 135.965C143.683 140.544 142.486 145.632 142.484 150.797C142.484 156.436 145.505 163.828 149.56 171.25H136.891V156.641C136.891 151.991 135.123 147.532 131.976 144.244C128.828 140.956 124.56 139.109 120.109 139.109C115.659 139.109 111.39 140.956 108.243 144.244C105.096 147.532 103.328 151.991 103.328 156.641V171.25H66.9688V54.375H173.25V118.656C171.373 118.663 169.501 118.849 167.656 119.211V98.2031C167.656 97.4282 167.362 96.685 166.837 96.137C166.313 95.5891 165.601 95.2812 164.859 95.2812ZM162.062 101.125V118.656H150.875V101.125H162.062ZM131.297 156.641V171.25H108.922V156.641C108.922 153.541 110.101 150.568 112.199 148.376C114.297 146.184 117.142 144.953 120.109 144.953C123.076 144.953 125.922 146.184 128.02 148.376C130.118 150.568 131.297 153.541 131.297 156.641V156.641ZM58.5781 180.016V177.094H152.945C153.56 178.087 154.175 179.051 154.791 180.016H58.5781ZM148.078 150.797C148.078 143.823 150.73 137.134 155.451 132.202C160.171 127.271 166.574 124.5 173.25 124.5C179.926 124.5 186.329 127.271 191.049 132.202C195.77 137.134 198.422 143.823 198.422 150.797C198.422 162.105 181.836 185.187 173.25 195.969C164.664 185.187 148.078 162.105 148.078 150.797ZM173.25 206.312C162.51 206.312 156.804 203.098 156.469 201.988C156.72 201.082 160.3 198.774 167.544 197.927C169.53 200.469 170.901 202.105 171.152 202.397C171.415 202.708 171.738 202.957 172.099 203.128C172.461 203.298 172.853 203.386 173.25 203.386C173.647 203.386 174.039 203.298 174.401 203.128C174.762 202.957 175.085 202.708 175.348 202.397C175.599 202.105 176.97 200.469 178.956 197.927C186.2 198.774 189.78 201.082 190.031 201.871C189.696 203.098 183.99 206.312 173.25 206.312Z"/><path fill="#fff" d="M167.656 83.5938V63.1406C167.656 62.3657 167.362 61.6225 166.837 61.0745C166.313 60.5266 165.601 60.2188 164.859 60.2188H148.078C147.336 60.2188 146.625 60.5266 146.1 61.0745C145.576 61.6225 145.281 62.3657 145.281 63.1406V83.5938H142.484V89.4375H170.453V83.5938H167.656ZM162.062 83.5938H150.875V66.0625H162.062V83.5938Z"/><path fill="#fff" d="M131.297 83.5938V63.1406C131.297 62.3657 131.002 61.6225 130.478 61.0745C129.953 60.5266 129.242 60.2188 128.5 60.2188H111.719C110.977 60.2188 110.266 60.5266 109.741 61.0745C109.217 61.6225 108.922 62.3657 108.922 63.1406V83.5938H106.125V89.4375H134.094V83.5938H131.297ZM125.703 83.5938H114.516V66.0625H125.703V83.5938Z"/><path fill="#fff" d="M94.9375 83.5938V63.1406C94.9375 62.3657 94.6428 61.6225 94.1183 61.0745C93.5938 60.5266 92.8824 60.2188 92.1406 60.2188H75.3594C74.6176 60.2188 73.9062 60.5266 73.3817 61.0745C72.8572 61.6225 72.5625 62.3657 72.5625 63.1406V83.5938H69.7656V89.4375H97.7344V83.5938H94.9375ZM89.3438 83.5938H78.1562V66.0625H89.3438V83.5938Z"/><path fill="#fff" d="M94.9375 118.656V98.2031C94.9375 97.4282 94.6428 96.685 94.1183 96.137C93.5938 95.5891 92.8824 95.2812 92.1406 95.2812H75.3594C74.6176 95.2812 73.9062 95.5891 73.3817 96.137C72.8572 96.685 72.5625 97.4282 72.5625 98.2031V118.656H69.7656V124.5H97.7344V118.656H94.9375ZM89.3438 118.656H78.1562V101.125H89.3438V118.656Z"/><path fill="#fff" d="M131.297 118.656V98.2031C131.297 97.4282 131.002 96.685 130.478 96.137C129.953 95.5891 129.242 95.2812 128.5 95.2812H111.719C110.977 95.2812 110.266 95.5891 109.741 96.137C109.217 96.685 108.922 97.4282 108.922 98.2031V118.656H106.125V124.5H134.094V118.656H131.297ZM125.703 118.656H114.516V101.125H125.703V118.656Z"/><defs><filter id="filter0_d" width="258" height="258" x="0" y="0" color-interpolation-filters="sRGB" filterUnits="userSpaceOnUse"><feFlood flood-opacity="0" result="BackgroundImageFix"/><feColorMatrix in="SourceAlpha" type="matrix" values="0 0 0 0 0 0 0 0 0 0 0 0 0 0 0 0 0 0 127 0"/><feOffset dy="4"/><feGaussianBlur stdDeviation="2"/><feColorMatrix type="matrix" values="0 0 0 0 0 0 0 0 0 0 0 0 0 0 0 0 0 0 0.25 0"/><feBlend in2="BackgroundImageFix" mode="normal" result="effect1_dropShadow"/><feBlend in="SourceGraphic" in2="effect1_dropShadow" mode="normal" result="shape"/></filter></defs></svg>