<svg width="258" height="258" viewBox="0 0 258 258" fill="none" xmlns="http://www.w3.org/2000/svg">
<g filter="url(#filter0_d)">
<path d="M204 0H54C26.3858 0 4 22.3858 4 50V200C4 227.614 26.3858 250 54 250H204C231.614 250 254 227.614 254 200V50C254 22.3858 231.614 0 204 0Z" fill="#8B5D33"/>
</g>
<path d="M74.8803 232.896L75.3603 235.752H75.4803L76.0083 232.872L79.5123 223.2H83.2563L76.4643 240.12H73.9203L67.0803 223.2H71.2083L74.8803 232.896ZM93.5821 238.848C93.0381 239.264 92.2941 239.624 91.3501 239.928C90.4221 240.216 89.4221 240.36 88.3501 240.36C86.1901 240.36 84.6061 239.768 83.5981 238.584C82.5901 237.4 82.0861 235.776 82.0861 233.712C82.0861 231.52 82.6541 229.864 83.7901 228.744C84.9261 227.608 86.5261 227.04 88.5901 227.04C89.2621 227.04 89.9261 227.128 90.5821 227.304C91.2381 227.464 91.8221 227.744 92.3341 228.144C92.8461 228.528 93.2541 229.056 93.5581 229.728C93.8781 230.384 94.0381 231.2 94.0381 232.176C94.0381 232.512 94.0141 232.88 93.9661 233.28C93.9341 233.68 93.8701 234.096 93.7741 234.528H85.3741C85.4541 235.616 85.7661 236.424 86.3101 236.952C86.8701 237.464 87.7741 237.72 89.0221 237.72C89.7741 237.72 90.4461 237.616 91.0381 237.408C91.6461 237.184 92.1101 236.96 92.4301 236.736L93.5821 238.848ZM88.5421 229.68C87.5501 229.68 86.8141 229.952 86.3341 230.496C85.8541 231.024 85.5741 231.704 85.4941 232.536H90.9181C90.9821 231.656 90.8221 230.96 90.4381 230.448C90.0541 229.936 89.4221 229.68 88.5421 229.68ZM104.496 230.472C104.016 230.312 103.536 230.232 103.056 230.232C102.352 230.232 101.768 230.4 101.304 230.736C100.856 231.072 100.56 231.496 100.416 232.008V240H97.0561V227.4H99.6961L100.056 229.152H100.368C100.688 228.496 101.112 227.992 101.64 227.64C102.184 227.288 102.8 227.112 103.488 227.112C103.92 227.112 104.416 227.2 104.976 227.376L104.496 230.472ZM119.303 231.168H126.167V238.704C125.799 238.992 125.391 239.24 124.943 239.448C124.511 239.64 124.047 239.808 123.551 239.952C123.071 240.08 122.575 240.176 122.063 240.24C121.551 240.304 121.047 240.336 120.551 240.336C119.399 240.336 118.319 240.168 117.311 239.832C116.319 239.496 115.447 238.976 114.695 238.272C113.959 237.552 113.375 236.64 112.943 235.536C112.527 234.432 112.319 233.12 112.319 231.6C112.319 230.016 112.575 228.672 113.087 227.568C113.599 226.448 114.263 225.544 115.079 224.856C115.911 224.152 116.831 223.648 117.839 223.344C118.863 223.024 119.879 222.864 120.887 222.864C121.927 222.864 122.839 222.944 123.623 223.104C124.423 223.248 125.047 223.392 125.495 223.536L124.751 226.488C124.319 226.344 123.831 226.224 123.287 226.128C122.743 226.032 122.063 225.984 121.247 225.984C120.495 225.984 119.807 226.088 119.183 226.296C118.559 226.488 118.015 226.808 117.551 227.256C117.087 227.704 116.727 228.288 116.471 229.008C116.215 229.728 116.087 230.6 116.087 231.624C116.087 232.616 116.215 233.464 116.471 234.168C116.727 234.872 117.071 235.456 117.503 235.92C117.951 236.368 118.463 236.696 119.039 236.904C119.615 237.112 120.223 237.216 120.863 237.216C121.295 237.216 121.727 237.168 122.159 237.072C122.607 236.976 122.983 236.824 123.287 236.616V233.712L119.303 233.328V231.168ZM128.835 228.264C129.555 227.944 130.435 227.68 131.475 227.472C132.531 227.264 133.619 227.16 134.739 227.16C135.619 227.16 136.355 227.264 136.947 227.472C137.555 227.68 138.035 227.984 138.387 228.384C138.739 228.768 138.987 229.24 139.131 229.8C139.291 230.344 139.371 230.952 139.371 231.624C139.371 232.44 139.339 233.248 139.275 234.048C139.211 234.848 139.179 235.696 139.179 236.592C139.179 237.2 139.219 237.792 139.299 238.368C139.379 238.944 139.507 239.496 139.683 240.024H136.947L136.395 238.152H136.107C135.691 238.712 135.163 239.192 134.523 239.592C133.883 239.992 133.059 240.192 132.051 240.192C131.443 240.192 130.883 240.104 130.371 239.928C129.875 239.752 129.443 239.504 129.075 239.184C128.723 238.848 128.443 238.456 128.235 238.008C128.043 237.56 127.947 237.072 127.947 236.544C127.947 235.12 128.419 234.048 129.363 233.328C130.323 232.592 131.771 232.224 133.707 232.224C134.155 232.224 134.603 232.264 135.051 232.344C135.499 232.408 135.811 232.456 135.987 232.488C136.035 232.152 136.059 231.864 136.059 231.624C136.059 231.016 135.907 230.568 135.603 230.28C135.299 229.992 134.731 229.848 133.899 229.848C133.131 229.848 132.379 229.944 131.643 230.136C130.923 230.312 130.283 230.536 129.723 230.808L128.835 228.264ZM133.227 237.504C133.979 237.504 134.579 237.328 135.027 236.976C135.475 236.624 135.803 236.256 136.011 235.872V234.432C135.931 234.4 135.803 234.368 135.627 234.336C135.467 234.304 135.283 234.272 135.075 234.24C134.883 234.208 134.683 234.184 134.475 234.168C134.283 234.152 134.107 234.144 133.947 234.144C133.083 234.144 132.443 234.304 132.027 234.624C131.611 234.928 131.403 235.312 131.403 235.776C131.403 236.352 131.563 236.784 131.883 237.072C132.219 237.36 132.667 237.504 133.227 237.504ZM142.829 236.736C143.053 236.848 143.309 236.96 143.597 237.072C143.901 237.184 144.221 237.288 144.557 237.384C144.909 237.48 145.261 237.56 145.613 237.624C145.981 237.688 146.349 237.72 146.717 237.72C147.277 237.72 147.709 237.632 148.013 237.456C148.333 237.28 148.493 236.952 148.493 236.472C148.493 236.088 148.285 235.808 147.869 235.632C147.453 235.44 146.941 235.256 146.333 235.08C145.885 234.952 145.413 234.8 144.917 234.624C144.437 234.448 143.989 234.216 143.573 233.928C143.173 233.624 142.837 233.232 142.565 232.752C142.309 232.272 142.181 231.664 142.181 230.928C142.181 229.664 142.573 228.704 143.357 228.048C144.141 227.376 145.269 227.04 146.741 227.04C147.701 227.04 148.597 227.128 149.429 227.304C150.277 227.464 150.957 227.656 151.469 227.88L150.773 230.424C150.357 230.264 149.821 230.104 149.165 229.944C148.525 229.768 147.869 229.68 147.197 229.68C146.637 229.68 146.221 229.768 145.949 229.944C145.677 230.104 145.541 230.392 145.541 230.808C145.541 231.176 145.749 231.456 146.165 231.648C146.597 231.824 147.117 232 147.725 232.176C148.173 232.304 148.637 232.456 149.117 232.632C149.613 232.792 150.061 233.016 150.461 233.304C150.861 233.592 151.189 233.968 151.445 234.432C151.717 234.88 151.853 235.448 151.853 236.136C151.853 237.48 151.413 238.52 150.533 239.256C149.669 239.992 148.365 240.36 146.621 240.36C145.677 240.36 144.797 240.272 143.981 240.096C143.165 239.936 142.501 239.696 141.989 239.376L142.829 236.736ZM152.919 227.4H154.839V225.672L158.199 224.784V227.4H161.583V230.208H158.199V234.576C158.199 235.584 158.295 236.312 158.487 236.76C158.695 237.192 159.095 237.408 159.687 237.408C160.055 237.408 160.367 237.384 160.623 237.336C160.879 237.272 161.151 237.176 161.439 237.048L162.135 239.568C161.623 239.792 161.031 239.984 160.359 240.144C159.703 240.304 159.063 240.384 158.439 240.384C157.191 240.384 156.279 240.08 155.703 239.472C155.127 238.848 154.839 237.856 154.839 236.496V230.208H152.919V227.4ZM163.297 233.712C163.297 231.632 163.849 230 164.953 228.816C166.057 227.632 167.633 227.04 169.681 227.04C170.753 227.04 171.689 227.208 172.489 227.544C173.289 227.88 173.953 228.352 174.481 228.96C175.009 229.552 175.401 230.256 175.657 231.072C175.929 231.872 176.065 232.752 176.065 233.712C176.065 234.736 175.921 235.664 175.633 236.496C175.345 237.312 174.929 238.008 174.385 238.584C173.841 239.16 173.169 239.6 172.369 239.904C171.585 240.208 170.689 240.36 169.681 240.36C168.593 240.36 167.649 240.192 166.849 239.856C166.049 239.52 165.385 239.056 164.857 238.464C164.329 237.856 163.937 237.152 163.681 236.352C163.425 235.536 163.297 234.656 163.297 233.712ZM166.753 233.712C166.753 234.24 166.809 234.736 166.921 235.2C167.033 235.664 167.201 236.072 167.425 236.424C167.665 236.76 167.969 237.032 168.337 237.24C168.705 237.448 169.153 237.552 169.681 237.552C171.633 237.552 172.609 236.272 172.609 233.712C172.609 233.152 172.553 232.64 172.441 232.176C172.345 231.696 172.177 231.288 171.937 230.952C171.713 230.6 171.409 230.328 171.025 230.136C170.657 229.944 170.209 229.848 169.681 229.848C168.769 229.848 168.049 230.152 167.521 230.76C167.009 231.368 166.753 232.352 166.753 233.712ZM178.782 236.736C179.006 236.848 179.262 236.96 179.55 237.072C179.854 237.184 180.174 237.288 180.51 237.384C180.862 237.48 181.214 237.56 181.566 237.624C181.934 237.688 182.302 237.72 182.67 237.72C183.23 237.72 183.662 237.632 183.966 237.456C184.286 237.28 184.446 236.952 184.446 236.472C184.446 236.088 184.238 235.808 183.822 235.632C183.406 235.44 182.894 235.256 182.286 235.08C181.838 234.952 181.366 234.8 180.87 234.624C180.39 234.448 179.942 234.216 179.526 233.928C179.126 233.624 178.79 233.232 178.518 232.752C178.262 232.272 178.134 231.664 178.134 230.928C178.134 229.664 178.526 228.704 179.31 228.048C180.094 227.376 181.222 227.04 182.694 227.04C183.654 227.04 184.55 227.128 185.382 227.304C186.23 227.464 186.91 227.656 187.422 227.88L186.726 230.424C186.31 230.264 185.774 230.104 185.118 229.944C184.478 229.768 183.822 229.68 183.15 229.68C182.59 229.68 182.174 229.768 181.902 229.944C181.63 230.104 181.494 230.392 181.494 230.808C181.494 231.176 181.702 231.456 182.118 231.648C182.55 231.824 183.07 232 183.678 232.176C184.126 232.304 184.59 232.456 185.07 232.632C185.566 232.792 186.014 233.016 186.414 233.304C186.814 233.592 187.142 233.968 187.398 234.432C187.67 234.88 187.806 235.448 187.806 236.136C187.806 237.48 187.366 238.52 186.486 239.256C185.622 239.992 184.318 240.36 182.574 240.36C181.63 240.36 180.75 240.272 179.934 240.096C179.118 239.936 178.454 239.696 177.942 239.376L178.782 236.736Z" fill="white"/>
<path d="M205.758 135.014C205.543 128.436 204.08 124.653 201.013 122.749C190.878 116.456 173.647 123.624 162.985 129.156C160.947 126.49 157.446 125.036 153.775 125.502L139.523 127.324C137.083 127.637 134.552 127.29 132.203 126.321C129.459 125.19 124.35 123.086 116.152 123.985C101.427 125.601 101.846 126.758 97.7888 128.634C96.8568 129.037 93.6687 129.535 90.0077 129.894C88.3957 126.399 84.7516 123.953 80.5219 123.953H61.6033C55.8847 123.953 51.2322 128.421 51.2322 133.914V179.039C51.2322 184.532 55.8847 189 61.6033 189H80.5219C85.284 189 89.3042 185.9 90.5166 181.692L98.2499 180.341C100.427 180.034 97.7189 180.011 144.252 183.071C157.208 183.923 169.664 179.168 177.864 171.006C203.703 145.613 199.338 149.891 199.843 149.406C203.83 145.433 205.931 140.322 205.758 135.014V135.014ZM80.5216 179.039H61.6033V133.914H80.5219V179.039H80.5216ZM192.388 142.481C166.549 167.874 170.916 163.593 170.411 164.079C164.087 170.381 154.572 173.766 144.96 173.134L103.152 170.387C98.6496 169.893 95.9317 170.622 90.893 171.502V139.831C94.9101 139.452 99.7641 138.777 102.28 137.613C106.133 135.832 104.767 135.26 117.329 133.882C122.792 133.283 125.994 134.603 128.114 135.476C132.18 137.152 136.598 137.747 140.892 137.199L154.703 135.433C155.203 137.096 155.324 139.349 154.669 140.751C154.336 141.461 153.84 141.892 153.01 142.19C147.262 144.254 147.262 144.254 122.596 147.678C119.761 148.072 117.796 150.597 118.205 153.32C118.616 156.051 121.256 157.93 124.079 157.536C149.366 154.027 149.85 153.959 156.642 151.52C161.755 149.684 165.152 145.377 165.459 139.21C175.043 133.858 189.175 128.307 194.803 130.809C194.99 131.381 195.306 132.711 195.392 135.327C195.477 137.92 194.41 140.46 192.388 142.481V142.481Z" fill="white"/>
<path d="M139.732 113.961C166.991 113.961 189.168 92.6615 189.168 66.4805C189.168 40.2995 166.991 19 139.732 19C112.473 19 90.2967 40.2995 90.2967 66.4805C90.2967 92.6615 112.473 113.961 139.732 113.961ZM139.732 28.9609C161.273 28.9609 178.797 45.7919 178.797 66.4805C178.797 87.169 161.273 104 139.732 104C118.192 104 100.668 87.169 100.668 66.4805C100.668 45.7919 118.192 28.9609 139.732 28.9609Z" fill="white"/>
<path d="M126.429 87.6259C129.533 89.5766 131.9 90.4827 134.593 90.8785V91.7564C134.593 94.5069 136.915 96.7368 139.779 96.7368C142.643 96.7368 144.964 94.5069 144.964 91.7564V90.3439C151.006 88.3949 154.867 83.2258 155.76 78.1222C156.994 71.0761 153.02 64.7124 145.874 62.2863C142.249 61.0558 138.25 59.5769 136.074 57.9373C135.74 57.686 135.493 56.8685 135.693 55.8495C135.793 55.3422 136.253 53.6465 137.994 53.1428C142.421 51.8621 144.406 54.2355 146.154 55.1141C148.693 56.3884 151.826 55.4458 153.152 53.008C154.447 50.6296 153.544 47.7068 151.142 46.3826C149.364 45.2232 147.707 44.157 144.965 43.4169V42.6473C144.965 39.8967 142.643 37.6668 139.779 37.6668C136.915 37.6668 134.594 39.8967 134.594 42.6473V43.7397C124.561 46.9879 122.113 60.0793 129.674 65.7759C133.022 68.2977 137.778 70.1029 142.418 71.6781C145.503 72.7253 145.815 74.8626 145.533 76.4713C145.137 78.7318 143.157 81.1742 139.745 81.1958C135.932 81.2267 134.938 81.0703 132.107 79.2909C129.71 77.7848 126.496 78.43 124.928 80.7323C123.36 83.0332 124.032 86.1198 126.429 87.6259V87.6259Z" fill="white"/>
<defs>
<filter id="filter0_d" x="0" y="0" width="258" height="258" filterUnits="userSpaceOnUse" color-interpolation-filters="sRGB">
<feFlood flood-opacity="0" result="BackgroundImageFix"/>
<feColorMatrix in="SourceAlpha" type="matrix" values="0 0 0 0 0 0 0 0 0 0 0 0 0 0 0 0 0 0 127 0"/>
<feOffset dy="4"/>
<feGaussianBlur stdDeviation="2"/>
<feColorMatrix type="matrix" values="0 0 0 0 0 0 0 0 0 0 0 0 0 0 0 0 0 0 0.25 0"/>
<feBlend mode="normal" in2="BackgroundImageFix" result="effect1_dropShadow"/>
<feBlend mode="normal" in="SourceGraphic" in2="effect1_dropShadow" result="shape"/>
</filter>
</defs>
</svg>
