<svg xmlns="http://www.w3.org/2000/svg" width="258" height="258" fill="none" viewBox="0 0 258 258"><g filter="url(#filter0_d)"><path fill="#0A369D" d="M204 0H54C26.3858 0 4 22.3858 4 50V200C4 227.614 26.3858 250 54 250H204C231.614 250 254 227.614 254 200V50C254 22.3858 231.614 0 204 0Z"/></g><path fill="#fff" d="M84.1264 194.896L84.6064 197.752H84.7264L85.2544 194.872L88.7584 185.2H92.5024L85.7104 202.12H83.1664L76.3264 185.2H80.4544L84.1264 194.896ZM102.828 200.848C102.284 201.264 101.54 201.624 100.596 201.928C99.6682 202.216 98.6682 202.36 97.5962 202.36C95.4362 202.36 93.8522 201.768 92.8442 200.584C91.8362 199.4 91.3322 197.776 91.3322 195.712C91.3322 193.52 91.9002 191.864 93.0362 190.744C94.1722 189.608 95.7722 189.04 97.8362 189.04C98.5082 189.04 99.1722 189.128 99.8282 189.304C100.484 189.464 101.068 189.744 101.58 190.144C102.092 190.528 102.5 191.056 102.804 191.728C103.124 192.384 103.284 193.2 103.284 194.176C103.284 194.512 103.26 194.88 103.212 195.28C103.18 195.68 103.116 196.096 103.02 196.528H94.6202C94.7002 197.616 95.0122 198.424 95.5562 198.952C96.1162 199.464 97.0202 199.72 98.2682 199.72C99.0202 199.72 99.6922 199.616 100.284 199.408C100.892 199.184 101.356 198.96 101.676 198.736L102.828 200.848ZM97.7882 191.68C96.7962 191.68 96.0602 191.952 95.5802 192.496C95.1002 193.024 94.8202 193.704 94.7402 194.536H100.164C100.228 193.656 100.068 192.96 99.6842 192.448C99.3002 191.936 98.6682 191.68 97.7882 191.68ZM114.798 202V195.088C114.798 194 114.63 193.216 114.294 192.736C113.958 192.256 113.366 192.016 112.518 192.016C111.798 192.016 111.182 192.216 110.67 192.616C110.174 193 109.83 193.496 109.638 194.104C109.638 195.416 109.638 196.736 109.638 198.064C109.654 199.376 109.662 200.688 109.662 202H106.302V189.4H108.942L109.302 191.2H109.662C110.078 190.608 110.63 190.104 111.318 189.688C112.006 189.256 112.902 189.04 114.006 189.04C114.678 189.04 115.27 189.128 115.782 189.304C116.31 189.464 116.742 189.752 117.078 190.168C117.43 190.568 117.694 191.112 117.87 191.8C118.062 192.488 118.158 193.352 118.158 194.392V202H114.798ZM120.071 189.4H121.991V187.672L125.351 186.784V189.4H128.735V192.208H125.351V196.576C125.351 197.584 125.447 198.312 125.639 198.76C125.847 199.192 126.247 199.408 126.839 199.408C127.207 199.408 127.519 199.384 127.775 199.336C128.031 199.272 128.303 199.176 128.591 199.048L129.287 201.568C128.775 201.792 128.183 201.984 127.511 202.144C126.855 202.304 126.215 202.384 125.591 202.384C124.343 202.384 123.431 202.08 122.855 201.472C122.279 200.848 121.991 199.856 121.991 198.496V192.208H120.071V189.4ZM131.19 190.264C131.91 189.944 132.79 189.68 133.83 189.472C134.886 189.264 135.974 189.16 137.094 189.16C137.974 189.16 138.71 189.264 139.302 189.472C139.91 189.68 140.39 189.984 140.742 190.384C141.094 190.768 141.342 191.24 141.486 191.8C141.646 192.344 141.726 192.952 141.726 193.624C141.726 194.44 141.694 195.248 141.63 196.048C141.566 196.848 141.534 197.696 141.534 198.592C141.534 199.2 141.574 199.792 141.654 200.368C141.734 200.944 141.862 201.496 142.038 202.024H139.302L138.75 200.152H138.462C138.046 200.712 137.518 201.192 136.878 201.592C136.238 201.992 135.414 202.192 134.406 202.192C133.798 202.192 133.238 202.104 132.726 201.928C132.23 201.752 131.798 201.504 131.43 201.184C131.078 200.848 130.798 200.456 130.59 200.008C130.398 199.56 130.302 199.072 130.302 198.544C130.302 197.12 130.774 196.048 131.718 195.328C132.678 194.592 134.126 194.224 136.062 194.224C136.51 194.224 136.958 194.264 137.406 194.344C137.854 194.408 138.166 194.456 138.342 194.488C138.39 194.152 138.414 193.864 138.414 193.624C138.414 193.016 138.262 192.568 137.958 192.28C137.654 191.992 137.086 191.848 136.254 191.848C135.486 191.848 134.734 191.944 133.998 192.136C133.278 192.312 132.638 192.536 132.078 192.808L131.19 190.264ZM135.582 199.504C136.334 199.504 136.934 199.328 137.382 198.976C137.83 198.624 138.158 198.256 138.366 197.872V196.432C138.286 196.4 138.158 196.368 137.982 196.336C137.822 196.304 137.638 196.272 137.43 196.24C137.238 196.208 137.038 196.184 136.83 196.168C136.638 196.152 136.462 196.144 136.302 196.144C135.438 196.144 134.798 196.304 134.382 196.624C133.966 196.928 133.758 197.312 133.758 197.776C133.758 198.352 133.918 198.784 134.238 199.072C134.574 199.36 135.022 199.504 135.582 199.504ZM163.313 197.584C163.313 198.256 163.321 198.952 163.337 199.672C163.353 200.392 163.425 201.176 163.553 202.024H161.225L160.745 200.272H160.433C160.065 200.912 159.537 201.424 158.849 201.808C158.177 202.176 157.369 202.36 156.425 202.36C154.745 202.36 153.441 201.84 152.513 200.8C151.585 199.744 151.121 198.12 151.121 195.928C151.121 194.872 151.249 193.92 151.505 193.072C151.777 192.224 152.169 191.504 152.681 190.912C153.209 190.32 153.857 189.864 154.625 189.544C155.393 189.224 156.281 189.064 157.289 189.064C157.849 189.064 158.329 189.112 158.729 189.208C159.145 189.288 159.553 189.392 159.953 189.52V185.2H163.313V197.584ZM157.289 199.552C158.041 199.552 158.625 199.384 159.041 199.048C159.457 198.696 159.761 198.2 159.953 197.56V192.52C159.665 192.296 159.353 192.136 159.017 192.04C158.697 191.928 158.273 191.872 157.745 191.872C156.673 191.872 155.873 192.184 155.345 192.808C154.833 193.432 154.577 194.504 154.577 196.024C154.577 197.08 154.793 197.936 155.225 198.592C155.673 199.232 156.361 199.552 157.289 199.552ZM177.688 200.848C177.144 201.264 176.4 201.624 175.456 201.928C174.528 202.216 173.528 202.36 172.456 202.36C170.296 202.36 168.712 201.768 167.704 200.584C166.696 199.4 166.192 197.776 166.192 195.712C166.192 193.52 166.76 191.864 167.896 190.744C169.032 189.608 170.632 189.04 172.696 189.04C173.368 189.04 174.032 189.128 174.688 189.304C175.344 189.464 175.928 189.744 176.44 190.144C176.952 190.528 177.36 191.056 177.664 191.728C177.984 192.384 178.144 193.2 178.144 194.176C178.144 194.512 178.12 194.88 178.072 195.28C178.04 195.68 177.976 196.096 177.88 196.528H169.48C169.56 197.616 169.872 198.424 170.416 198.952C170.976 199.464 171.88 199.72 173.128 199.72C173.88 199.72 174.552 199.616 175.144 199.408C175.752 199.184 176.216 198.96 176.536 198.736L177.688 200.848ZM172.648 191.68C171.656 191.68 170.92 191.952 170.44 192.496C169.96 193.024 169.68 193.704 169.6 194.536H175.024C175.088 193.656 174.928 192.96 174.544 192.448C174.16 191.936 173.528 191.68 172.648 191.68ZM73.1028 224.576L73.4868 221.096H73.3428L72.1908 223.736L68.3028 230H67.1988L63.0708 223.712L61.9428 221.12H61.7988L62.3028 224.552V233H58.9428V216.2H62.1588L67.0068 223.952L67.9188 225.8H68.0388L68.8308 223.904L73.4628 216.2H76.6548V233H73.1028V224.576ZM90.7228 231.848C90.1788 232.264 89.4348 232.624 88.4908 232.928C87.5628 233.216 86.5628 233.36 85.4908 233.36C83.3308 233.36 81.7468 232.768 80.7388 231.584C79.7308 230.4 79.2268 228.776 79.2268 226.712C79.2268 224.52 79.7948 222.864 80.9308 221.744C82.0668 220.608 83.6668 220.04 85.7308 220.04C86.4028 220.04 87.0668 220.128 87.7228 220.304C88.3788 220.464 88.9628 220.744 89.4748 221.144C89.9868 221.528 90.3948 222.056 90.6988 222.728C91.0188 223.384 91.1788 224.2 91.1788 225.176C91.1788 225.512 91.1548 225.88 91.1068 226.28C91.0748 226.68 91.0108 227.096 90.9148 227.528H82.5148C82.5948 228.616 82.9068 229.424 83.4508 229.952C84.0108 230.464 84.9148 230.72 86.1628 230.72C86.9148 230.72 87.5868 230.616 88.1788 230.408C88.7868 230.184 89.2508 229.96 89.5708 229.736L90.7228 231.848ZM85.6828 222.68C84.6908 222.68 83.9548 222.952 83.4748 223.496C82.9948 224.024 82.7148 224.704 82.6348 225.536H88.0588C88.1228 224.656 87.9628 223.96 87.5788 223.448C87.1948 222.936 86.5628 222.68 85.6828 222.68ZM102.069 233V226.424C102.069 225.208 101.941 224.336 101.685 223.808C101.429 223.28 100.901 223.016 100.101 223.016C99.4288 223.016 98.8928 223.184 98.4928 223.52C98.0928 223.84 97.7808 224.264 97.5568 224.792V233H94.1968V220.4H96.7888L97.1728 222.152H97.4848C97.6928 221.88 97.9328 221.616 98.2048 221.36C98.4768 221.104 98.7728 220.88 99.0928 220.688C99.4288 220.496 99.7968 220.344 100.197 220.232C100.613 220.104 101.077 220.04 101.589 220.04C102.437 220.04 103.141 220.232 103.701 220.616C104.277 220.984 104.733 221.608 105.069 222.488C105.533 221.72 106.093 221.12 106.749 220.688C107.421 220.256 108.197 220.04 109.077 220.04C109.845 220.04 110.493 220.128 111.021 220.304C111.565 220.48 112.005 220.784 112.341 221.216C112.677 221.648 112.917 222.232 113.061 222.968C113.221 223.704 113.301 224.624 113.301 225.728V233H109.941V226.256C109.941 225.728 109.917 225.264 109.869 224.864C109.821 224.464 109.725 224.128 109.581 223.856C109.437 223.568 109.229 223.36 108.957 223.232C108.701 223.088 108.357 223.016 107.925 223.016C107.253 223.016 106.709 223.192 106.293 223.544C105.893 223.88 105.605 224.352 105.429 224.96V233H102.069ZM116.767 216.2H120.127V221.48H120.415C120.799 221.048 121.287 220.712 121.879 220.472C122.487 220.216 123.151 220.088 123.871 220.088C125.503 220.088 126.743 220.624 127.591 221.696C128.455 222.752 128.887 224.304 128.887 226.352C128.887 227.456 128.727 228.44 128.407 229.304C128.103 230.168 127.663 230.896 127.087 231.488C126.511 232.08 125.807 232.536 124.975 232.856C124.143 233.16 123.207 233.312 122.167 233.312C120.967 233.312 119.895 233.224 118.951 233.048C118.007 232.888 117.279 232.704 116.767 232.496V216.2ZM120.127 230.144C120.447 230.304 120.783 230.408 121.135 230.456C121.503 230.488 121.895 230.504 122.311 230.504C124.391 230.504 125.431 229.144 125.431 226.424C125.431 225.272 125.215 224.4 124.783 223.808C124.351 223.2 123.711 222.896 122.863 222.896C122.143 222.896 121.559 223.064 121.111 223.4C120.679 223.736 120.351 224.232 120.127 224.888V230.144ZM139.066 223.472C138.586 223.312 138.106 223.232 137.626 223.232C136.922 223.232 136.338 223.4 135.874 223.736C135.426 224.072 135.13 224.496 134.986 225.008V233H131.626V220.4H134.266L134.626 222.152H134.938C135.258 221.496 135.682 220.992 136.21 220.64C136.754 220.288 137.37 220.112 138.058 220.112C138.49 220.112 138.986 220.2 139.546 220.376L139.066 223.472ZM152.152 231.848C151.608 232.264 150.864 232.624 149.92 232.928C148.992 233.216 147.992 233.36 146.92 233.36C144.76 233.36 143.176 232.768 142.168 231.584C141.16 230.4 140.656 228.776 140.656 226.712C140.656 224.52 141.224 222.864 142.36 221.744C143.496 220.608 145.096 220.04 147.16 220.04C147.832 220.04 148.496 220.128 149.152 220.304C149.808 220.464 150.392 220.744 150.904 221.144C151.416 221.528 151.824 222.056 152.128 222.728C152.448 223.384 152.608 224.2 152.608 225.176C152.608 225.512 152.584 225.88 152.536 226.28C152.504 226.68 152.44 227.096 152.344 227.528H143.944C144.024 228.616 144.336 229.424 144.88 229.952C145.44 230.464 146.344 230.72 147.592 230.72C148.344 230.72 149.016 230.616 149.608 230.408C150.216 230.184 150.68 229.96 151 229.736L152.152 231.848ZM147.112 222.68C146.12 222.68 145.384 222.952 144.904 223.496C144.424 224.024 144.144 224.704 144.064 225.536H149.488C149.552 224.656 149.392 223.96 149.008 223.448C148.624 222.936 147.992 222.68 147.112 222.68ZM155.602 229.736C155.826 229.848 156.082 229.96 156.37 230.072C156.674 230.184 156.994 230.288 157.33 230.384C157.682 230.48 158.034 230.56 158.386 230.624C158.754 230.688 159.122 230.72 159.49 230.72C160.05 230.72 160.482 230.632 160.786 230.456C161.106 230.28 161.266 229.952 161.266 229.472C161.266 229.088 161.058 228.808 160.642 228.632C160.226 228.44 159.714 228.256 159.106 228.08C158.658 227.952 158.186 227.8 157.69 227.624C157.21 227.448 156.762 227.216 156.346 226.928C155.946 226.624 155.61 226.232 155.338 225.752C155.082 225.272 154.954 224.664 154.954 223.928C154.954 222.664 155.346 221.704 156.13 221.048C156.914 220.376 158.042 220.04 159.514 220.04C160.474 220.04 161.37 220.128 162.202 220.304C163.05 220.464 163.73 220.656 164.242 220.88L163.546 223.424C163.13 223.264 162.594 223.104 161.938 222.944C161.298 222.768 160.642 222.68 159.97 222.68C159.41 222.68 158.994 222.768 158.722 222.944C158.45 223.104 158.314 223.392 158.314 223.808C158.314 224.176 158.522 224.456 158.938 224.648C159.37 224.824 159.89 225 160.498 225.176C160.946 225.304 161.41 225.456 161.89 225.632C162.386 225.792 162.834 226.016 163.234 226.304C163.634 226.592 163.962 226.968 164.218 227.432C164.49 227.88 164.626 228.448 164.626 229.136C164.626 230.48 164.186 231.52 163.306 232.256C162.442 232.992 161.138 233.36 159.394 233.36C158.45 233.36 157.57 233.272 156.754 233.096C155.938 232.936 155.274 232.696 154.762 232.376L155.602 229.736ZM167.636 220.4H170.996V233H167.636V220.4ZM167.132 217.256C167.132 216.744 167.316 216.32 167.684 215.984C168.052 215.632 168.572 215.456 169.244 215.456C169.932 215.456 170.476 215.632 170.876 215.984C171.276 216.336 171.476 216.76 171.476 217.256C171.476 217.72 171.276 218.12 170.876 218.456C170.476 218.792 169.932 218.96 169.244 218.96C168.572 218.96 168.052 218.792 167.684 218.456C167.316 218.12 167.132 217.72 167.132 217.256ZM174.725 221.264C175.445 220.944 176.325 220.68 177.365 220.472C178.421 220.264 179.509 220.16 180.629 220.16C181.509 220.16 182.245 220.264 182.837 220.472C183.445 220.68 183.925 220.984 184.277 221.384C184.629 221.768 184.877 222.24 185.021 222.8C185.181 223.344 185.261 223.952 185.261 224.624C185.261 225.44 185.229 226.248 185.165 227.048C185.101 227.848 185.069 228.696 185.069 229.592C185.069 230.2 185.109 230.792 185.189 231.368C185.269 231.944 185.397 232.496 185.573 233.024H182.837L182.285 231.152H181.997C181.581 231.712 181.053 232.192 180.413 232.592C179.773 232.992 178.949 233.192 177.941 233.192C177.333 233.192 176.773 233.104 176.261 232.928C175.765 232.752 175.333 232.504 174.965 232.184C174.613 231.848 174.333 231.456 174.125 231.008C173.933 230.56 173.837 230.072 173.837 229.544C173.837 228.12 174.309 227.048 175.253 226.328C176.213 225.592 177.661 225.224 179.597 225.224C180.045 225.224 180.493 225.264 180.941 225.344C181.389 225.408 181.701 225.456 181.877 225.488C181.925 225.152 181.949 224.864 181.949 224.624C181.949 224.016 181.797 223.568 181.493 223.28C181.189 222.992 180.621 222.848 179.789 222.848C179.021 222.848 178.269 222.944 177.533 223.136C176.813 223.312 176.173 223.536 175.613 223.808L174.725 221.264ZM179.117 230.504C179.869 230.504 180.469 230.328 180.917 229.976C181.365 229.624 181.693 229.256 181.901 228.872V227.432C181.821 227.4 181.693 227.368 181.517 227.336C181.357 227.304 181.173 227.272 180.965 227.24C180.773 227.208 180.573 227.184 180.365 227.168C180.173 227.152 179.997 227.144 179.837 227.144C178.973 227.144 178.333 227.304 177.917 227.624C177.501 227.928 177.293 228.312 177.293 228.776C177.293 229.352 177.453 229.784 177.773 230.072C178.109 230.36 178.557 230.504 179.117 230.504ZM188.72 229.736C188.944 229.848 189.2 229.96 189.488 230.072C189.792 230.184 190.112 230.288 190.448 230.384C190.8 230.48 191.152 230.56 191.504 230.624C191.872 230.688 192.24 230.72 192.608 230.72C193.168 230.72 193.6 230.632 193.904 230.456C194.224 230.28 194.384 229.952 194.384 229.472C194.384 229.088 194.176 228.808 193.76 228.632C193.344 228.44 192.832 228.256 192.224 228.08C191.776 227.952 191.304 227.8 190.808 227.624C190.328 227.448 189.88 227.216 189.464 226.928C189.064 226.624 188.728 226.232 188.456 225.752C188.2 225.272 188.072 224.664 188.072 223.928C188.072 222.664 188.464 221.704 189.248 221.048C190.032 220.376 191.16 220.04 192.632 220.04C193.592 220.04 194.488 220.128 195.32 220.304C196.168 220.464 196.848 220.656 197.36 220.88L196.664 223.424C196.248 223.264 195.712 223.104 195.056 222.944C194.416 222.768 193.76 222.68 193.088 222.68C192.528 222.68 192.112 222.768 191.84 222.944C191.568 223.104 191.432 223.392 191.432 223.808C191.432 224.176 191.64 224.456 192.056 224.648C192.488 224.824 193.008 225 193.616 225.176C194.064 225.304 194.528 225.456 195.008 225.632C195.504 225.792 195.952 226.016 196.352 226.304C196.752 226.592 197.08 226.968 197.336 227.432C197.608 227.88 197.744 228.448 197.744 229.136C197.744 230.48 197.304 231.52 196.424 232.256C195.56 232.992 194.256 233.36 192.512 233.36C191.568 233.36 190.688 233.272 189.872 233.096C189.056 232.936 188.392 232.696 187.88 232.376L188.72 229.736Z"/><path fill="#fff" d="M191.91 45.5312H98.9414C97.0535 45.5312 95.5234 46.7203 95.5234 48.1875C95.5234 49.6547 97.0535 50.8438 98.9414 50.8438H191.91C197.564 50.8438 202.164 54.4183 202.164 58.8125V133.188C202.164 137.582 197.564 141.156 191.91 141.156H51.0898C45.4355 141.156 40.8359 137.582 40.8359 133.188V58.8125C40.8359 54.4183 45.4355 50.8438 51.0898 50.8438H71.5977C73.4856 50.8438 75.0156 49.6547 75.0156 48.1875C75.0156 46.7203 73.4856 45.5312 71.5977 45.5312H51.0898C41.6664 45.5312 34 51.4891 34 58.8125V133.188C34 140.511 41.6664 146.469 51.0898 146.469H191.91C201.334 146.469 209 140.511 209 133.188V58.8125C209 51.4891 201.334 45.5312 191.91 45.5312Z"/><path fill="#fff" d="M85.2695 59.3438C67.177 59.3438 52.457 70.7833 52.457 84.8438C52.457 98.9042 67.177 110.344 85.2695 110.344C103.362 110.344 118.082 98.9042 118.082 84.8438C118.082 70.7833 103.362 59.3438 85.2695 59.3438ZM70.4281 101.398C72.8901 96.7979 78.71 93.7111 85.2695 93.7111C91.8291 93.7111 97.6503 96.7979 100.112 101.398C95.9013 103.684 90.785 105.031 85.2695 105.031C79.7541 105.031 74.6378 103.684 70.4281 101.398ZM79.0504 83.5654V82.5673C79.0504 79.9017 81.8409 77.7341 85.2695 77.7341C88.6982 77.7341 91.4886 79.9017 91.4886 82.5673V83.5654C91.4886 86.23 88.6982 88.3986 85.2695 88.3986C81.8409 88.3986 79.0504 86.23 79.0504 83.5654ZM105.355 97.629C103.04 94.3544 99.4621 91.75 95.1856 90.1531C97.1403 88.3788 98.3246 86.0785 98.3246 83.5654V82.5673C98.3246 76.9725 92.4673 72.4216 85.2695 72.4216C78.0718 72.4216 72.2145 76.9725 72.2145 82.5673V83.5654C72.2145 86.0785 73.3988 88.3788 75.3534 90.1531C71.077 91.749 67.4988 94.3544 65.1836 97.629C61.5053 94.1448 59.293 89.6914 59.293 84.8438C59.293 73.7124 70.9461 64.6562 85.2695 64.6562C99.593 64.6562 111.246 73.7124 111.246 84.8438C111.246 89.6914 109.034 94.1448 105.355 97.629Z"/><path fill="#fff" d="M137.906 98.6562H187.125C189.013 98.6562 190.543 97.4672 190.543 96V74.75C190.543 73.2828 189.013 72.0938 187.125 72.0938H137.906C136.018 72.0938 134.488 73.2828 134.488 74.75V96C134.488 97.4672 136.018 98.6562 137.906 98.6562ZM141.324 77.4062H183.707V93.3438H141.324V77.4062Z"/><path fill="#fff" d="M137.906 109.281H187.125C189.013 109.281 190.543 108.092 190.543 106.625C190.543 105.158 189.013 103.969 187.125 103.969H137.906C136.018 103.969 134.488 105.158 134.488 106.625C134.488 108.092 136.018 109.281 137.906 109.281Z"/><path fill="#fff" d="M135.49 119.128C136.125 119.622 137.008 119.906 137.906 119.906C138.805 119.906 139.687 119.622 140.323 119.128C140.958 118.634 141.324 117.948 141.324 117.25C141.324 116.552 140.958 115.866 140.323 115.372C139.687 114.878 138.805 114.594 137.906 114.594C137.008 114.594 136.125 114.878 135.49 115.372C134.854 115.866 134.488 116.552 134.488 117.25C134.488 117.948 134.854 118.634 135.49 119.128Z"/><path fill="#fff" d="M149.162 115.372C148.526 115.866 148.16 116.552 148.16 117.25C148.16 117.948 148.526 118.634 149.162 119.128C149.797 119.622 150.68 119.906 151.578 119.906C152.477 119.906 153.359 119.622 153.995 119.128C154.63 118.634 154.996 117.948 154.996 117.25C154.996 116.552 154.63 115.866 153.995 115.372C153.359 114.878 152.477 114.594 151.578 114.594C150.68 114.594 149.797 114.878 149.162 115.372Z"/><path fill="#fff" d="M187.125 114.594H165.25C163.362 114.594 161.832 115.783 161.832 117.25C161.832 118.717 163.362 119.906 165.25 119.906H187.125C189.013 119.906 190.543 118.717 190.543 117.25C190.543 115.783 189.013 114.594 187.125 114.594Z"/><path fill="#fff" d="M109.765 118.334C109.765 116.868 108.234 115.678 106.347 115.678H64.1916C62.3051 115.678 60.7737 116.868 60.7737 118.334C60.7737 119.801 62.3051 120.991 64.1916 120.991H106.347C108.234 120.991 109.765 119.801 109.765 118.334Z"/><path fill="#fff" d="M69.6604 126.303C67.7738 126.303 66.2424 127.493 66.2424 128.959C66.2424 130.426 67.7738 131.616 69.6604 131.616H100.879C102.765 131.616 104.297 130.426 104.297 128.959C104.297 127.493 102.765 126.303 100.879 126.303H69.6604Z"/><path fill="#fff" d="M85.2695 50.8438C86.1681 50.8438 87.0506 50.5594 87.6861 50.0656C88.3217 49.5717 88.6875 48.8858 88.6875 48.1875C88.6875 47.4892 88.3217 46.8033 87.6861 46.3094C87.0506 45.8156 86.1681 45.5312 85.2695 45.5312C84.371 45.5312 83.4884 45.8156 82.8529 46.3094C82.2174 46.8033 81.8516 47.4892 81.8516 48.1875C81.8516 48.8858 82.2174 49.5717 82.8529 50.0656C83.4884 50.5594 84.371 50.8438 85.2695 50.8438Z"/><path fill="#fff" d="M228 140.8C222.18 140.8 217.444 138.333 217.444 135.3C217.444 132.267 222.18 129.8 228 129.8C233.82 129.8 238.556 132.267 238.556 135.3C238.556 136.515 240.446 137.5 242.778 137.5C245.11 137.5 247 136.515 247 135.3C247 130.597 240.672 126.653 232.222 125.649V123.2C232.222 121.985 230.332 121 228 121C225.668 121 223.778 121.985 223.778 123.2V125.649C215.328 126.653 209 130.597 209 135.3C209 140.759 217.523 145.2 228 145.2C233.82 145.2 238.556 147.667 238.556 150.7C238.556 153.733 233.82 156.2 228 156.2C222.18 156.2 217.444 153.733 217.444 150.7C217.444 149.485 215.554 148.5 213.222 148.5C210.89 148.5 209 149.485 209 150.7C209 155.403 215.328 159.347 223.778 160.351V162.8C223.778 164.015 225.668 165 228 165C230.332 165 232.222 164.015 232.222 162.8V160.351C240.672 159.347 247 155.403 247 150.7C247 145.241 238.477 140.8 228 140.8Z"/><defs><filter id="filter0_d" width="258" height="258" x="0" y="0" color-interpolation-filters="sRGB" filterUnits="userSpaceOnUse"><feFlood flood-opacity="0" result="BackgroundImageFix"/><feColorMatrix in="SourceAlpha" type="matrix" values="0 0 0 0 0 0 0 0 0 0 0 0 0 0 0 0 0 0 127 0"/><feOffset dy="4"/><feGaussianBlur stdDeviation="2"/><feColorMatrix type="matrix" values="0 0 0 0 0 0 0 0 0 0 0 0 0 0 0 0 0 0 0.25 0"/><feBlend in2="BackgroundImageFix" mode="normal" result="effect1_dropShadow"/><feBlend in="SourceGraphic" in2="effect1_dropShadow" mode="normal" result="shape"/></filter></defs></svg>