<svg width="258" height="258" viewBox="0 0 258 258" fill="none" xmlns="http://www.w3.org/2000/svg">
<g filter="url(#filter0_d)">
<path d="M204 0H54C26.3858 0 4 22.3858 4 50V200C4 227.614 26.3858 250 54 250H204C231.614 250 254 227.614 254 200V50C254 22.3858 231.614 0 204 0Z" fill="#4472CA"/>
</g>
<path d="M84.1264 194.896L84.6064 197.752H84.7264L85.2544 194.872L88.7584 185.2H92.5024L85.7104 202.12H83.1664L76.3264 185.2H80.4544L84.1264 194.896ZM102.828 200.848C102.284 201.264 101.54 201.624 100.596 201.928C99.6682 202.216 98.6682 202.36 97.5962 202.36C95.4362 202.36 93.8522 201.768 92.8442 200.584C91.8362 199.4 91.3322 197.776 91.3322 195.712C91.3322 193.52 91.9002 191.864 93.0362 190.744C94.1722 189.608 95.7722 189.04 97.8362 189.04C98.5082 189.04 99.1722 189.128 99.8282 189.304C100.484 189.464 101.068 189.744 101.58 190.144C102.092 190.528 102.5 191.056 102.804 191.728C103.124 192.384 103.284 193.2 103.284 194.176C103.284 194.512 103.26 194.88 103.212 195.28C103.18 195.68 103.116 196.096 103.02 196.528H94.6202C94.7002 197.616 95.0122 198.424 95.5562 198.952C96.1162 199.464 97.0202 199.72 98.2682 199.72C99.0202 199.72 99.6922 199.616 100.284 199.408C100.892 199.184 101.356 198.96 101.676 198.736L102.828 200.848ZM97.7882 191.68C96.7962 191.68 96.0602 191.952 95.5802 192.496C95.1002 193.024 94.8202 193.704 94.7402 194.536H100.164C100.228 193.656 100.068 192.96 99.6842 192.448C99.3002 191.936 98.6682 191.68 97.7882 191.68ZM114.798 202V195.088C114.798 194 114.63 193.216 114.294 192.736C113.958 192.256 113.366 192.016 112.518 192.016C111.798 192.016 111.182 192.216 110.67 192.616C110.174 193 109.83 193.496 109.638 194.104C109.638 195.416 109.638 196.736 109.638 198.064C109.654 199.376 109.662 200.688 109.662 202H106.302V189.4H108.942L109.302 191.2H109.662C110.078 190.608 110.63 190.104 111.318 189.688C112.006 189.256 112.902 189.04 114.006 189.04C114.678 189.04 115.27 189.128 115.782 189.304C116.31 189.464 116.742 189.752 117.078 190.168C117.43 190.568 117.694 191.112 117.87 191.8C118.062 192.488 118.158 193.352 118.158 194.392V202H114.798ZM120.071 189.4H121.991V187.672L125.351 186.784V189.4H128.735V192.208H125.351V196.576C125.351 197.584 125.447 198.312 125.639 198.76C125.847 199.192 126.247 199.408 126.839 199.408C127.207 199.408 127.519 199.384 127.775 199.336C128.031 199.272 128.303 199.176 128.591 199.048L129.287 201.568C128.775 201.792 128.183 201.984 127.511 202.144C126.855 202.304 126.215 202.384 125.591 202.384C124.343 202.384 123.431 202.08 122.855 201.472C122.279 200.848 121.991 199.856 121.991 198.496V192.208H120.071V189.4ZM131.19 190.264C131.91 189.944 132.79 189.68 133.83 189.472C134.886 189.264 135.974 189.16 137.094 189.16C137.974 189.16 138.71 189.264 139.302 189.472C139.91 189.68 140.39 189.984 140.742 190.384C141.094 190.768 141.342 191.24 141.486 191.8C141.646 192.344 141.726 192.952 141.726 193.624C141.726 194.44 141.694 195.248 141.63 196.048C141.566 196.848 141.534 197.696 141.534 198.592C141.534 199.2 141.574 199.792 141.654 200.368C141.734 200.944 141.862 201.496 142.038 202.024H139.302L138.75 200.152H138.462C138.046 200.712 137.518 201.192 136.878 201.592C136.238 201.992 135.414 202.192 134.406 202.192C133.798 202.192 133.238 202.104 132.726 201.928C132.23 201.752 131.798 201.504 131.43 201.184C131.078 200.848 130.798 200.456 130.59 200.008C130.398 199.56 130.302 199.072 130.302 198.544C130.302 197.12 130.774 196.048 131.718 195.328C132.678 194.592 134.126 194.224 136.062 194.224C136.51 194.224 136.958 194.264 137.406 194.344C137.854 194.408 138.166 194.456 138.342 194.488C138.39 194.152 138.414 193.864 138.414 193.624C138.414 193.016 138.262 192.568 137.958 192.28C137.654 191.992 137.086 191.848 136.254 191.848C135.486 191.848 134.734 191.944 133.998 192.136C133.278 192.312 132.638 192.536 132.078 192.808L131.19 190.264ZM135.582 199.504C136.334 199.504 136.934 199.328 137.382 198.976C137.83 198.624 138.158 198.256 138.366 197.872V196.432C138.286 196.4 138.158 196.368 137.982 196.336C137.822 196.304 137.638 196.272 137.43 196.24C137.238 196.208 137.038 196.184 136.83 196.168C136.638 196.152 136.462 196.144 136.302 196.144C135.438 196.144 134.798 196.304 134.382 196.624C133.966 196.928 133.758 197.312 133.758 197.776C133.758 198.352 133.918 198.784 134.238 199.072C134.574 199.36 135.022 199.504 135.582 199.504ZM163.313 197.584C163.313 198.256 163.321 198.952 163.337 199.672C163.353 200.392 163.425 201.176 163.553 202.024H161.225L160.745 200.272H160.433C160.065 200.912 159.537 201.424 158.849 201.808C158.177 202.176 157.369 202.36 156.425 202.36C154.745 202.36 153.441 201.84 152.513 200.8C151.585 199.744 151.121 198.12 151.121 195.928C151.121 194.872 151.249 193.92 151.505 193.072C151.777 192.224 152.169 191.504 152.681 190.912C153.209 190.32 153.857 189.864 154.625 189.544C155.393 189.224 156.281 189.064 157.289 189.064C157.849 189.064 158.329 189.112 158.729 189.208C159.145 189.288 159.553 189.392 159.953 189.52V185.2H163.313V197.584ZM157.289 199.552C158.041 199.552 158.625 199.384 159.041 199.048C159.457 198.696 159.761 198.2 159.953 197.56V192.52C159.665 192.296 159.353 192.136 159.017 192.04C158.697 191.928 158.273 191.872 157.745 191.872C156.673 191.872 155.873 192.184 155.345 192.808C154.833 193.432 154.577 194.504 154.577 196.024C154.577 197.08 154.793 197.936 155.225 198.592C155.673 199.232 156.361 199.552 157.289 199.552ZM177.688 200.848C177.144 201.264 176.4 201.624 175.456 201.928C174.528 202.216 173.528 202.36 172.456 202.36C170.296 202.36 168.712 201.768 167.704 200.584C166.696 199.4 166.192 197.776 166.192 195.712C166.192 193.52 166.76 191.864 167.896 190.744C169.032 189.608 170.632 189.04 172.696 189.04C173.368 189.04 174.032 189.128 174.688 189.304C175.344 189.464 175.928 189.744 176.44 190.144C176.952 190.528 177.36 191.056 177.664 191.728C177.984 192.384 178.144 193.2 178.144 194.176C178.144 194.512 178.12 194.88 178.072 195.28C178.04 195.68 177.976 196.096 177.88 196.528H169.48C169.56 197.616 169.872 198.424 170.416 198.952C170.976 199.464 171.88 199.72 173.128 199.72C173.88 199.72 174.552 199.616 175.144 199.408C175.752 199.184 176.216 198.96 176.536 198.736L177.688 200.848ZM172.648 191.68C171.656 191.68 170.92 191.952 170.44 192.496C169.96 193.024 169.68 193.704 169.6 194.536H175.024C175.088 193.656 174.928 192.96 174.544 192.448C174.16 191.936 173.528 191.68 172.648 191.68ZM71.0248 216.368C71.7448 216.24 72.5448 216.144 73.4248 216.08C74.3048 216 75.1848 215.96 76.0648 215.96C76.9608 215.96 77.8648 216.032 78.7768 216.176C79.6888 216.304 80.5048 216.576 81.2248 216.992C81.9608 217.392 82.5608 217.96 83.0248 218.696C83.4888 219.416 83.7208 220.376 83.7208 221.576C83.7208 222.632 83.5208 223.536 83.1208 224.288C82.7208 225.024 82.1848 225.624 81.5128 226.088C80.8568 226.552 80.1048 226.896 79.2568 227.12C78.4088 227.328 77.5368 227.432 76.6408 227.432C76.5608 227.432 76.4248 227.432 76.2328 227.432C76.0408 227.432 75.8328 227.432 75.6088 227.432C75.4008 227.416 75.2008 227.4 75.0088 227.384C74.8168 227.368 74.6728 227.352 74.5768 227.336V233H71.0248V216.368ZM76.3048 219.08C75.9688 219.08 75.6408 219.088 75.3208 219.104C75.0168 219.12 74.7688 219.152 74.5768 219.2V224.192C74.6408 224.208 74.7448 224.224 74.8888 224.24C75.0328 224.256 75.1848 224.272 75.3448 224.288C75.5048 224.288 75.6488 224.296 75.7768 224.312C75.9208 224.312 76.0328 224.312 76.1128 224.312C76.5768 224.312 77.0408 224.28 77.5048 224.216C77.9688 224.152 78.3768 224.016 78.7288 223.808C79.0968 223.6 79.3928 223.32 79.6168 222.968C79.8408 222.6 79.9528 222.112 79.9528 221.504C79.9528 220.992 79.8488 220.584 79.6408 220.28C79.4328 219.96 79.1528 219.712 78.8008 219.536C78.4648 219.36 78.0728 219.24 77.6248 219.176C77.1928 219.112 76.7528 219.08 76.3048 219.08ZM92.7422 223.472C92.2622 223.312 91.7822 223.232 91.3022 223.232C90.5982 223.232 90.0142 223.4 89.5502 223.736C89.1022 224.072 88.8062 224.496 88.6622 225.008V233H85.3022V220.4H87.9422L88.3022 222.152H88.6142C88.9342 221.496 89.3582 220.992 89.8862 220.64C90.4302 220.288 91.0462 220.112 91.7342 220.112C92.1662 220.112 92.6622 220.2 93.2222 220.376L92.7422 223.472ZM94.3322 226.712C94.3322 224.632 94.8842 223 95.9882 221.816C97.0922 220.632 98.6682 220.04 100.716 220.04C101.788 220.04 102.724 220.208 103.524 220.544C104.324 220.88 104.988 221.352 105.516 221.96C106.044 222.552 106.436 223.256 106.692 224.072C106.964 224.872 107.1 225.752 107.1 226.712C107.1 227.736 106.956 228.664 106.668 229.496C106.38 230.312 105.964 231.008 105.42 231.584C104.876 232.16 104.204 232.6 103.404 232.904C102.62 233.208 101.724 233.36 100.716 233.36C99.6282 233.36 98.6842 233.192 97.8842 232.856C97.0842 232.52 96.4202 232.056 95.8922 231.464C95.3642 230.856 94.9722 230.152 94.7162 229.352C94.4602 228.536 94.3322 227.656 94.3322 226.712ZM97.7882 226.712C97.7882 227.24 97.8442 227.736 97.9562 228.2C98.0682 228.664 98.2362 229.072 98.4602 229.424C98.7002 229.76 99.0042 230.032 99.3722 230.24C99.7402 230.448 100.188 230.552 100.716 230.552C102.668 230.552 103.644 229.272 103.644 226.712C103.644 226.152 103.588 225.64 103.476 225.176C103.38 224.696 103.212 224.288 102.972 223.952C102.748 223.6 102.444 223.328 102.06 223.136C101.692 222.944 101.244 222.848 100.716 222.848C99.8042 222.848 99.0842 223.152 98.5562 223.76C98.0442 224.368 97.7882 225.352 97.7882 226.712ZM121.313 228.584C121.313 229.256 121.321 229.952 121.337 230.672C121.353 231.392 121.425 232.176 121.553 233.024H119.225L118.745 231.272H118.433C118.065 231.912 117.537 232.424 116.849 232.808C116.177 233.176 115.369 233.36 114.425 233.36C112.745 233.36 111.441 232.84 110.513 231.8C109.585 230.744 109.121 229.12 109.121 226.928C109.121 225.872 109.249 224.92 109.505 224.072C109.777 223.224 110.169 222.504 110.681 221.912C111.209 221.32 111.857 220.864 112.625 220.544C113.393 220.224 114.281 220.064 115.289 220.064C115.849 220.064 116.329 220.112 116.729 220.208C117.145 220.288 117.553 220.392 117.953 220.52V216.2H121.313V228.584ZM115.289 230.552C116.041 230.552 116.625 230.384 117.041 230.048C117.457 229.696 117.761 229.2 117.953 228.56V223.52C117.665 223.296 117.353 223.136 117.017 223.04C116.697 222.928 116.273 222.872 115.745 222.872C114.673 222.872 113.873 223.184 113.345 223.808C112.833 224.432 112.577 225.504 112.577 227.024C112.577 228.08 112.793 228.936 113.225 229.592C113.673 230.232 114.361 230.552 115.289 230.552ZM128.272 220.4V227.384C128.272 228.424 128.416 229.184 128.704 229.664C128.992 230.144 129.544 230.384 130.36 230.384C131.064 230.384 131.656 230.2 132.136 229.832C132.616 229.464 132.968 229 133.192 228.44V220.4H136.552V229.16C136.552 229.832 136.584 230.504 136.648 231.176C136.728 231.848 136.832 232.456 136.96 233H134.488L133.84 231.032H133.576C133.16 231.704 132.568 232.264 131.8 232.712C131.032 233.144 130.152 233.36 129.16 233.36C128.472 233.36 127.864 233.272 127.336 233.096C126.808 232.92 126.36 232.632 125.992 232.232C125.64 231.816 125.368 231.272 125.176 230.6C125 229.928 124.912 229.096 124.912 228.104V220.4H128.272ZM149.814 232.232C149.27 232.6 148.614 232.88 147.846 233.072C147.094 233.264 146.31 233.36 145.494 233.36C144.406 233.36 143.486 233.2 142.734 232.88C141.998 232.56 141.39 232.104 140.91 231.512C140.446 230.92 140.11 230.224 139.902 229.424C139.694 228.608 139.59 227.704 139.59 226.712C139.59 224.616 140.102 222.984 141.126 221.816C142.166 220.632 143.67 220.04 145.638 220.04C146.598 220.04 147.382 220.12 147.99 220.28C148.614 220.424 149.166 220.616 149.646 220.856L148.83 223.544C148.414 223.368 147.998 223.24 147.582 223.16C147.182 223.064 146.71 223.016 146.166 223.016C145.158 223.016 144.382 223.312 143.838 223.904C143.31 224.48 143.046 225.416 143.046 226.712C143.046 227.224 143.11 227.704 143.238 228.152C143.366 228.584 143.566 228.968 143.838 229.304C144.11 229.64 144.454 229.904 144.87 230.096C145.286 230.288 145.774 230.384 146.334 230.384C147.006 230.384 147.534 230.328 147.918 230.216C148.318 230.088 148.694 229.92 149.046 229.712L149.814 232.232ZM150.774 220.4H152.694V218.672L156.054 217.784V220.4H159.438V223.208H156.054V227.576C156.054 228.584 156.15 229.312 156.342 229.76C156.55 230.192 156.95 230.408 157.542 230.408C157.91 230.408 158.222 230.384 158.478 230.336C158.734 230.272 159.006 230.176 159.294 230.048L159.99 232.568C159.478 232.792 158.886 232.984 158.214 233.144C157.558 233.304 156.918 233.384 156.294 233.384C155.046 233.384 154.134 233.08 153.558 232.472C152.982 231.848 152.694 230.856 152.694 229.496V223.208H150.774V220.4ZM161.153 226.712C161.153 224.632 161.705 223 162.809 221.816C163.913 220.632 165.489 220.04 167.537 220.04C168.609 220.04 169.545 220.208 170.345 220.544C171.145 220.88 171.809 221.352 172.337 221.96C172.865 222.552 173.257 223.256 173.513 224.072C173.785 224.872 173.921 225.752 173.921 226.712C173.921 227.736 173.777 228.664 173.489 229.496C173.201 230.312 172.785 231.008 172.241 231.584C171.697 232.16 171.025 232.6 170.225 232.904C169.441 233.208 168.545 233.36 167.537 233.36C166.449 233.36 165.505 233.192 164.705 232.856C163.905 232.52 163.241 232.056 162.713 231.464C162.185 230.856 161.793 230.152 161.537 229.352C161.281 228.536 161.153 227.656 161.153 226.712ZM164.609 226.712C164.609 227.24 164.665 227.736 164.777 228.2C164.889 228.664 165.057 229.072 165.281 229.424C165.521 229.76 165.825 230.032 166.193 230.24C166.561 230.448 167.009 230.552 167.537 230.552C169.489 230.552 170.465 229.272 170.465 226.712C170.465 226.152 170.409 225.64 170.297 225.176C170.201 224.696 170.033 224.288 169.793 223.952C169.569 223.6 169.265 223.328 168.881 223.136C168.513 222.944 168.065 222.848 167.537 222.848C166.625 222.848 165.905 223.152 165.377 223.76C164.865 224.368 164.609 225.352 164.609 226.712ZM176.638 229.736C176.862 229.848 177.118 229.96 177.406 230.072C177.71 230.184 178.03 230.288 178.366 230.384C178.718 230.48 179.07 230.56 179.422 230.624C179.79 230.688 180.158 230.72 180.526 230.72C181.086 230.72 181.518 230.632 181.822 230.456C182.142 230.28 182.302 229.952 182.302 229.472C182.302 229.088 182.094 228.808 181.678 228.632C181.262 228.44 180.75 228.256 180.142 228.08C179.694 227.952 179.222 227.8 178.726 227.624C178.246 227.448 177.798 227.216 177.382 226.928C176.982 226.624 176.646 226.232 176.374 225.752C176.118 225.272 175.99 224.664 175.99 223.928C175.99 222.664 176.382 221.704 177.166 221.048C177.95 220.376 179.078 220.04 180.55 220.04C181.51 220.04 182.406 220.128 183.238 220.304C184.086 220.464 184.766 220.656 185.278 220.88L184.582 223.424C184.166 223.264 183.63 223.104 182.974 222.944C182.334 222.768 181.678 222.68 181.006 222.68C180.446 222.68 180.03 222.768 179.758 222.944C179.486 223.104 179.35 223.392 179.35 223.808C179.35 224.176 179.558 224.456 179.974 224.648C180.406 224.824 180.926 225 181.534 225.176C181.982 225.304 182.446 225.456 182.926 225.632C183.422 225.792 183.87 226.016 184.27 226.304C184.67 226.592 184.998 226.968 185.254 227.432C185.526 227.88 185.662 228.448 185.662 229.136C185.662 230.48 185.222 231.52 184.342 232.256C183.478 232.992 182.174 233.36 180.43 233.36C179.486 233.36 178.606 233.272 177.79 233.096C176.974 232.936 176.31 232.696 175.798 232.376L176.638 229.736Z" fill="white"/>
<path d="M57.0496 134.166C51.8306 134.166 47.5998 137.367 47.5998 141.316C47.5998 145.265 51.8306 148.466 57.0496 148.466C62.2687 148.466 66.4995 145.265 66.4995 141.316C66.4995 137.367 62.2687 134.166 57.0496 134.166ZM57.0496 143.699C55.3101 143.699 53.8997 142.632 53.8997 141.316C53.8997 140 55.3101 138.932 57.0496 138.932C58.7892 138.932 60.1996 140 60.1996 141.316C60.1996 142.632 58.7892 143.699 57.0496 143.699Z" fill="white"/>
<path d="M221.83 115.925C219.081 112.456 214.126 110.334 208.779 110.334H208.115C205.618 110.335 203.159 110.799 200.955 111.687L176.748 121.456V88.8839H187.772C197.341 88.8839 205.097 83.0153 205.097 75.7758C205.097 68.5362 197.341 62.6677 187.772 62.6677H120.049C111.35 62.6677 104.299 57.3324 104.299 50.7512C104.299 44.17 111.35 38.8347 120.049 38.8347H131.073L149.028 56.9478C149.623 57.5478 150.557 57.9011 151.548 57.9011H220.847C222.586 57.9011 223.997 56.834 223.997 55.5178V17.3851C223.997 16.0689 222.586 15.0018 220.847 15.0018H151.548C150.557 15.0018 149.623 15.3551 149.028 15.9551L131.073 34.0682H120.049C107.871 34.0682 97.999 41.5374 97.999 50.7512C97.999 59.965 107.871 67.4343 120.049 67.4343H187.772C193.861 67.4343 198.797 71.1689 198.797 75.7758C198.797 80.3827 193.861 84.1173 187.772 84.1173H176.748V74.5841C176.748 73.268 175.337 72.2009 173.598 72.2009H85.3992C83.6596 72.2009 82.2492 73.268 82.2492 74.5841V110.334C79.8068 110.979 77.4396 111.776 75.1713 112.717H35V117.483H72.7994V153.233H35V157.999H154.358C157.213 157.999 160.015 157.412 162.463 156.3L216.607 131.721C223.815 128.45 226.153 121.379 221.83 115.925ZM157.887 43.1923C162.808 41.8761 165.386 37.7909 163.646 34.0682C161.907 30.3452 156.507 28.3941 151.587 29.7106C148.896 30.4304 146.779 32.0322 145.828 34.0682H138.948L153.123 19.7684H217.697V53.1345H153.123L138.948 38.8347H145.828C147.567 42.5577 152.967 44.5088 157.887 43.1923ZM151.548 36.4515C151.548 35.1353 152.958 34.0682 154.698 34.0682C156.438 34.0682 157.848 35.1353 157.848 36.4515C157.848 37.7676 156.438 38.8347 154.698 38.8347C152.958 38.8347 151.548 37.7676 151.548 36.4515ZM123.199 76.9674H135.798V86.5006H123.199V76.9674ZM88.5491 76.9674H116.899V88.8839C116.899 90.2001 118.309 91.2672 120.049 91.2672H138.948C140.688 91.2672 142.098 90.2001 142.098 88.8839V76.9674H170.448V123.997L165.288 126.078C167.212 120.336 162.621 114.502 155.032 113.046C153.893 112.827 152.723 112.717 151.548 112.717H120.871C111.006 108.648 99.5625 107.339 88.5491 109.018V76.9674ZM213.366 127.634L159.221 152.213C157.752 152.88 156.071 153.233 154.358 153.233H79.0993V116.53C91.5321 111.719 106.33 111.963 118.474 117.181C118.954 117.385 119.497 117.489 120.049 117.483H151.548C155.897 117.483 159.423 120.151 159.423 123.442C159.423 126.732 155.897 129.4 151.548 129.4H123.199C121.459 129.4 120.049 130.467 120.049 131.783C120.049 133.099 121.459 134.166 123.199 134.166H157.848C158.365 134.167 158.875 134.071 159.332 133.888L203.919 115.894C205.211 115.374 206.652 115.101 208.115 115.1H208.779C213.704 115.1 217.697 118.12 217.698 121.847C217.698 124.218 216.053 126.415 213.366 127.634Z" fill="white"/>
<path d="M205.064 40.1038C204.819 38.2904 203.362 36.699 201.204 35.8884L192.913 32.752C192.544 32.6155 192.391 32.2786 192.572 31.9997C192.695 31.8094 192.948 31.6875 193.228 31.6842H205.097V26.9177H198.797V24.5344H192.497V26.9749C188.641 27.2734 185.836 29.8804 186.23 32.7978C186.475 34.6112 187.933 36.2027 190.091 37.0133L198.381 40.1497C198.75 40.2861 198.903 40.6231 198.723 40.9019C198.6 41.0923 198.346 41.2141 198.066 41.2174H186.197V45.984H192.497V48.3673H198.797V45.9268C202.653 45.6283 205.459 43.0213 205.064 40.1038Z" fill="white"/>
<defs>
<filter id="filter0_d" x="0" y="0" width="258" height="258" filterUnits="userSpaceOnUse" color-interpolation-filters="sRGB">
<feFlood flood-opacity="0" result="BackgroundImageFix"/>
<feColorMatrix in="SourceAlpha" type="matrix" values="0 0 0 0 0 0 0 0 0 0 0 0 0 0 0 0 0 0 127 0"/>
<feOffset dy="4"/>
<feGaussianBlur stdDeviation="2"/>
<feColorMatrix type="matrix" values="0 0 0 0 0 0 0 0 0 0 0 0 0 0 0 0 0 0 0.25 0"/>
<feBlend mode="normal" in2="BackgroundImageFix" result="effect1_dropShadow"/>
<feBlend mode="normal" in="SourceGraphic" in2="effect1_dropShadow" result="shape"/>
</filter>
</defs>
</svg>
