<svg width="88" height="88" viewBox="0 0 88 88" fill="none" xmlns="http://www.w3.org/2000/svg">
<g filter="url(#filter0_d)">
<path d="M64 0H24C12.9543 0 4 8.9543 4 20V60C4 71.0457 12.9543 80 24 80H64C75.0457 80 84 71.0457 84 60V20C84 8.9543 75.0457 0 64 0Z" fill="#684756"/>
</g>
<g clip-path="url(#clip0)">
<path d="M50.0282 39.3614C49.6352 39.041 49.0623 39.1072 48.7489 39.5092L46.4448 42.466C46.3162 42.6308 46.2463 42.8354 46.2463 43.0462V62.2482C46.2463 62.7623 46.6539 63.1792 47.1567 63.1792C47.6594 63.1792 48.067 62.7623 48.067 62.2482V43.3718L50.1727 40.6697C50.4862 40.2676 50.4214 39.6819 50.0282 39.3614Z" fill="white"/>
<path d="M69.0269 11.596H67.5711C67.3356 11.596 67.1084 11.6319 66.8923 11.6945C66.8268 10.3479 65.7381 9.27199 64.4054 9.27199H61.9228C60.5481 9.27199 59.4295 10.4158 59.4295 11.8219V20.7372H51.7074V17.5657C51.7074 15.3867 49.9741 13.614 47.8435 13.614C46.8345 13.614 45.9149 14.0121 45.226 14.6622C44.5448 13.5343 43.3253 12.7808 41.9366 12.7808C40.5082 12.7808 39.2594 13.5781 38.5908 14.7599C37.9084 14.1407 37.0115 13.7636 36.0297 13.7636C34.7382 13.7636 33.5936 14.4155 32.8917 15.4139C32.1891 14.6747 31.2078 14.2143 30.1228 14.2143C27.9922 14.2143 26.2589 15.987 26.2589 18.166V20.6156C26.2589 20.6563 26.2607 20.6967 26.2619 20.7372H21.5303V18.1029C21.5303 17.5888 21.1228 17.1719 20.62 17.1719C20.1172 17.1719 19.7097 17.5888 19.7097 18.1029V37.072C19.7097 37.4513 19.408 37.7599 19.0371 37.7599H16.5546C16.1838 37.7599 15.8821 37.4514 15.8821 37.072V11.8219C15.8821 11.4427 16.1837 11.1341 16.5546 11.1341H19.0372C19.408 11.1341 19.7098 11.4425 19.7098 11.8219V14.1351C19.7098 14.6493 20.1174 15.0661 20.6201 15.0661C21.1229 15.0661 21.5305 14.6493 21.5305 14.1351V11.8219C21.5305 10.4159 20.4121 9.27199 19.0372 9.27199H16.5546C15.2219 9.27199 14.1333 10.3479 14.0677 11.6945C13.8515 11.6319 13.6244 11.596 13.389 11.596H11.9333C10.5584 11.596 9.44 12.7399 9.44 14.1459V34.7479C9.44 36.1539 10.5584 37.2978 11.9333 37.2978H13.3891C13.6246 37.2978 13.8518 37.262 14.0678 37.1993C14.1334 38.5459 15.222 39.6218 16.5548 39.6218H19.0373C20.4121 39.6218 21.5306 38.478 21.5306 37.0719V28.1565H26.571V33.8636C26.571 36.0726 27.284 38.263 28.5785 40.0314L29.2128 40.8977V62.248C29.2128 62.7622 29.6204 63.1791 30.1231 63.1791C30.6259 63.1791 31.0335 62.7622 31.0335 62.248V40.5879C31.0335 40.3867 30.9698 40.1909 30.8519 40.0299L30.036 38.9154C28.9756 37.467 28.3918 35.6729 28.3918 33.8636V28.1565H40.3566C40.8118 28.5631 41.3535 28.8702 41.9497 29.045C40.0582 30.6967 38.9245 33.1522 38.9245 35.7291V36.4818C38.9245 36.9959 39.3321 37.4128 39.8348 37.4128C40.3376 37.4128 40.7452 36.9959 40.7452 36.4818V35.7291C40.7452 33.3357 41.9864 31.0747 43.9843 29.8283L44.9712 29.2128C44.9723 29.2122 44.9732 29.2113 44.9743 29.2107H45.7803C46.2831 29.2107 46.6907 28.7939 46.6907 28.2797C46.6907 27.7655 46.2831 27.3486 45.7803 27.3486H43.0985C41.8009 27.3486 40.7452 26.269 40.7452 24.9419C40.7452 23.6147 41.8009 22.5351 43.0985 22.5351H49.5756C51.398 22.5351 52.8807 24.0514 52.8807 25.9152V28.4391C52.8807 31.2094 52.1907 33.9572 50.8854 36.3853C50.6431 36.8359 50.804 37.402 51.2446 37.6498C51.3837 37.728 51.5341 37.7651 51.6823 37.7651C52.0036 37.7651 52.3151 37.5907 52.4808 37.2824C53.9334 34.5802 54.7012 31.5223 54.7012 28.4392V28.1567H59.4299V37.072C59.4299 38.478 60.5483 39.622 61.9232 39.622H64.4057C65.7385 39.622 66.8271 38.5461 66.8927 37.1994C67.1088 37.2621 67.3359 37.298 67.5714 37.298H69.0272C70.402 37.298 71.5205 36.1542 71.5205 34.748V14.1459C71.52 12.7399 70.4016 11.596 69.0269 11.596V11.596ZM13.389 35.4358H11.9333C11.5624 35.4358 11.2607 35.1273 11.2607 34.7479V14.1459C11.2607 13.7667 11.5623 13.4581 11.9333 13.4581H13.3891C13.7599 13.4581 14.0616 13.7665 14.0616 14.1459V34.7479C14.0615 35.1272 13.7598 35.4358 13.389 35.4358ZM33.9866 17.7153C33.9866 16.5631 34.9032 15.6256 36.0298 15.6256C37.1565 15.6256 38.073 16.563 38.073 17.7153V21.1246C38.073 22.2767 37.1565 23.2142 36.0298 23.2142C34.9032 23.2142 33.9866 22.2768 33.9866 21.1246V17.7153ZM28.0797 18.1661C28.0797 17.014 28.9963 16.0765 30.1229 16.0765C31.2495 16.0765 32.1661 17.0139 32.1661 18.1661V20.6158C32.1661 21.768 31.2495 22.7054 30.1229 22.7054C28.9963 22.7054 28.0797 21.768 28.0797 20.6158V18.1661ZM21.5303 22.5992H26.7832C27.4533 23.775 28.6989 24.5673 30.1228 24.5673C31.1958 24.5673 32.1678 24.1173 32.8685 23.3926C33.5682 24.4097 34.7239 25.0762 36.0297 25.0762C37.3488 25.0762 38.5152 24.3961 39.2126 23.3613C39.216 23.3605 39.2194 23.3596 39.2228 23.3586C39.0308 23.8486 38.924 24.3825 38.924 24.9419C38.924 25.4146 39.0006 25.869 39.1399 26.2945H21.5303V22.5992ZM39.8936 22.2101V16.7325C39.8936 15.5803 40.8101 14.6428 41.9367 14.6428C43.0634 14.6428 43.9799 15.5802 43.9799 16.7325V20.6731H43.0981C41.8118 20.6731 40.6599 21.2715 39.8936 22.2101V22.2101ZM45.8006 20.6731V17.5657C45.8006 16.4135 46.7171 15.4761 47.8438 15.4761C48.9704 15.4761 49.887 16.4134 49.887 17.5657V20.6731H45.8006ZM54.701 26.2945V25.9152C54.701 24.6582 54.2657 23.5033 53.5418 22.5992H59.4297V26.2945H54.701ZM69.6993 34.7479C69.6993 35.1272 69.3977 35.4358 69.0268 35.4358H67.5709C67.2001 35.4358 66.8984 35.1273 66.8984 34.7479V30.2429C66.8984 29.7288 66.4908 29.3119 65.988 29.3119C65.4853 29.3119 65.0777 29.7288 65.0777 30.2429V37.0719C65.0777 37.4512 64.7761 37.7598 64.4051 37.7598H61.9226C61.5517 37.7598 61.25 37.4513 61.25 37.0719V11.8219C61.25 11.4427 61.5516 11.1341 61.9226 11.1341H64.4051C64.7759 11.1341 65.0777 11.4425 65.0777 11.8219V26.2752C65.0777 26.7894 65.4853 27.2063 65.988 27.2063C66.4908 27.2063 66.8984 26.7894 66.8984 26.2752V14.1459C66.8984 13.7667 67.2 13.4581 67.5709 13.4581H69.0268C69.3976 13.4581 69.6993 13.7665 69.6993 14.1459V34.7479Z" fill="white"/>
</g>
<g clip-path="url(#clip1)">
<path d="M77.259 50.9067C76.7372 50.9067 76.3138 51.3248 76.3138 51.84C76.3138 56.9864 72.0737 61.1733 66.8621 61.1733C61.6504 61.1733 57.4103 56.9864 57.4103 51.84C57.4103 46.6936 61.6504 42.5067 66.8621 42.5067C69.3994 42.5067 71.7812 43.4857 73.5695 45.2637C73.9367 45.6296 74.5354 45.6319 74.9059 45.2684C75.2765 44.9053 75.2783 44.3145 74.9107 43.9487C72.7651 41.8151 69.9065 40.64 66.8621 40.64C60.6079 40.64 55.52 45.6641 55.52 51.84C55.52 58.0159 60.6079 63.04 66.8621 63.04C73.1163 63.04 78.2041 58.0159 78.2041 51.84C78.2041 51.3248 77.7807 50.9067 77.259 50.9067Z" fill="white"/>
<path d="M70.6428 50.9067H67.8072V48.1067C67.8072 47.5915 67.3838 47.1733 66.8621 47.1733C66.3403 47.1733 65.9169 47.5915 65.9169 48.1067V50.9067H63.0814C62.5596 50.9067 62.1362 51.3248 62.1362 51.84C62.1362 52.3552 62.5596 52.7733 63.0814 52.7733H65.9169V55.5733C65.9169 56.0885 66.3403 56.5067 66.8621 56.5067C67.3838 56.5067 67.8072 56.0885 67.8072 55.5733V52.7733H70.6428C71.1645 52.7733 71.5879 52.3552 71.5879 51.84C71.5879 51.3248 71.1645 50.9067 70.6428 50.9067Z" fill="white"/>
</g>
<path d="M5.585 65.763C5.729 65.739 5.885 65.718 6.053 65.7C6.227 65.676 6.401 65.658 6.575 65.646C6.749 65.634 6.917 65.625 7.079 65.619C7.247 65.613 7.4 65.61 7.538 65.61C7.856 65.61 8.168 65.637 8.474 65.691C8.786 65.745 9.062 65.838 9.302 65.97C9.548 66.102 9.746 66.285 9.896 66.519C10.046 66.747 10.121 67.035 10.121 67.383C10.121 67.899 9.992 68.325 9.734 68.661C9.482 68.991 9.131 69.216 8.681 69.336L9.158 69.615L10.733 72H9.185L7.619 69.561L6.917 69.453V72H5.585V65.763ZM7.628 66.78C7.49 66.78 7.355 66.783 7.223 66.789C7.097 66.789 6.995 66.798 6.917 66.816V68.553H7.484C7.862 68.553 8.159 68.481 8.375 68.337C8.597 68.193 8.708 67.944 8.708 67.59C8.708 67.326 8.615 67.125 8.429 66.987C8.243 66.849 7.976 66.78 7.628 66.78ZM15.0943 71.568C14.8903 71.724 14.6113 71.859 14.2573 71.973C13.9093 72.081 13.5343 72.135 13.1323 72.135C12.3223 72.135 11.7283 71.913 11.3503 71.469C10.9723 71.025 10.7833 70.416 10.7833 69.642C10.7833 68.82 10.9963 68.199 11.4223 67.779C11.8483 67.353 12.4483 67.14 13.2223 67.14C13.4743 67.14 13.7233 67.173 13.9693 67.239C14.2153 67.299 14.4343 67.404 14.6263 67.554C14.8183 67.698 14.9713 67.896 15.0853 68.148C15.2053 68.394 15.2653 68.7 15.2653 69.066C15.2653 69.192 15.2563 69.33 15.2383 69.48C15.2263 69.63 15.2023 69.786 15.1663 69.948H12.0163C12.0463 70.356 12.1633 70.659 12.3673 70.857C12.5773 71.049 12.9163 71.145 13.3843 71.145C13.6663 71.145 13.9183 71.106 14.1403 71.028C14.3683 70.944 14.5423 70.86 14.6623 70.776L15.0943 71.568ZM13.2043 68.13C12.8323 68.13 12.5563 68.232 12.3763 68.436C12.1963 68.634 12.0913 68.889 12.0613 69.201H14.0953C14.1193 68.871 14.0593 68.61 13.9153 68.418C13.7713 68.226 13.5343 68.13 13.2043 68.13ZM20.6193 71.82C20.6193 72.516 20.4213 73.029 20.0253 73.359C19.6293 73.689 19.0683 73.854 18.3423 73.854C17.8743 73.854 17.4963 73.821 17.2083 73.755C16.9263 73.695 16.7073 73.626 16.5513 73.548C16.6293 73.308 16.6863 73.116 16.7223 72.972C16.7643 72.834 16.7943 72.729 16.8123 72.657C16.8303 72.585 16.8423 72.54 16.8483 72.522C16.8543 72.504 16.8573 72.495 16.8573 72.495C17.0013 72.567 17.1753 72.639 17.3793 72.711C17.5833 72.789 17.8323 72.828 18.1263 72.828C18.3723 72.828 18.5763 72.804 18.7383 72.756C18.9003 72.708 19.0293 72.636 19.1253 72.54C19.2213 72.45 19.2873 72.339 19.3233 72.207C19.3653 72.075 19.3863 71.928 19.3863 71.766V71.415H19.2783C19.1583 71.589 18.9933 71.712 18.7833 71.784C18.5733 71.856 18.3123 71.892 18.0003 71.892C17.3583 71.892 16.8753 71.715 16.5513 71.361C16.2333 71.007 16.0743 70.437 16.0743 69.651C16.0743 68.823 16.2843 68.199 16.7043 67.779C17.1303 67.359 17.7603 67.149 18.5943 67.149C19.0323 67.149 19.4223 67.179 19.7643 67.239C20.1123 67.293 20.3973 67.356 20.6193 67.428V71.82ZM18.2973 70.911C18.5733 70.911 18.7983 70.86 18.9723 70.758C19.1523 70.656 19.2813 70.53 19.3593 70.38V68.346C19.1373 68.25 18.8553 68.202 18.5133 68.202C18.1473 68.202 17.8653 68.31 17.6673 68.526C17.4693 68.742 17.3703 69.099 17.3703 69.597C17.3703 70.053 17.4543 70.386 17.6223 70.596C17.7903 70.806 18.0153 70.911 18.2973 70.911ZM22.0696 67.275H23.3296V72H22.0696V67.275ZM21.8806 66.096C21.8806 65.904 21.9496 65.745 22.0876 65.619C22.2256 65.487 22.4206 65.421 22.6726 65.421C22.9306 65.421 23.1346 65.487 23.2846 65.619C23.4346 65.751 23.5096 65.91 23.5096 66.096C23.5096 66.27 23.4346 66.42 23.2846 66.546C23.1346 66.672 22.9306 66.735 22.6726 66.735C22.4206 66.735 22.2256 66.672 22.0876 66.546C21.9496 66.42 21.8806 66.27 21.8806 66.096ZM24.764 70.776C24.848 70.818 24.944 70.86 25.052 70.902C25.166 70.944 25.286 70.983 25.412 71.019C25.544 71.055 25.676 71.085 25.808 71.109C25.946 71.133 26.084 71.145 26.222 71.145C26.432 71.145 26.594 71.112 26.708 71.046C26.828 70.98 26.888 70.857 26.888 70.677C26.888 70.533 26.81 70.428 26.654 70.362C26.498 70.29 26.306 70.221 26.078 70.155C25.91 70.107 25.733 70.05 25.547 69.984C25.367 69.918 25.199 69.831 25.043 69.723C24.893 69.609 24.767 69.462 24.665 69.282C24.569 69.102 24.521 68.874 24.521 68.598C24.521 68.124 24.668 67.764 24.962 67.518C25.256 67.266 25.679 67.14 26.231 67.14C26.591 67.14 26.927 67.173 27.239 67.239C27.557 67.299 27.812 67.371 28.004 67.455L27.743 68.409C27.587 68.349 27.386 68.289 27.14 68.229C26.9 68.163 26.654 68.13 26.402 68.13C26.192 68.13 26.036 68.163 25.934 68.229C25.832 68.289 25.781 68.397 25.781 68.553C25.781 68.691 25.859 68.796 26.015 68.868C26.177 68.934 26.372 69 26.6 69.066C26.768 69.114 26.942 69.171 27.122 69.237C27.308 69.297 27.476 69.381 27.626 69.489C27.776 69.597 27.899 69.738 27.995 69.912C28.097 70.08 28.148 70.293 28.148 70.551C28.148 71.055 27.983 71.445 27.653 71.721C27.329 71.997 26.84 72.135 26.186 72.135C25.832 72.135 25.502 72.102 25.196 72.036C24.89 71.976 24.641 71.886 24.449 71.766L24.764 70.776ZM28.5476 67.275H29.2676V66.627L30.5276 66.294V67.275H31.7966V68.328H30.5276V69.966C30.5276 70.344 30.5636 70.617 30.6356 70.785C30.7136 70.947 30.8636 71.028 31.0856 71.028C31.2236 71.028 31.3406 71.019 31.4366 71.001C31.5326 70.977 31.6346 70.941 31.7426 70.893L32.0036 71.838C31.8116 71.922 31.5896 71.994 31.3376 72.054C31.0916 72.114 30.8516 72.144 30.6176 72.144C30.1496 72.144 29.8076 72.03 29.5916 71.802C29.3756 71.568 29.2676 71.196 29.2676 70.686V68.328H28.5476V67.275ZM35.5523 68.427C35.3723 68.367 35.1923 68.337 35.0123 68.337C34.7483 68.337 34.5293 68.4 34.3553 68.526C34.1873 68.652 34.0763 68.811 34.0223 69.003V72H32.7623V67.275H33.7523L33.8873 67.932H34.0043C34.1243 67.686 34.2833 67.497 34.4813 67.365C34.6853 67.233 34.9163 67.167 35.1743 67.167C35.3363 67.167 35.5223 67.2 35.7323 67.266L35.5523 68.427ZM36.3735 67.599C36.6435 67.479 36.9735 67.38 37.3635 67.302C37.7595 67.224 38.1675 67.185 38.5875 67.185C38.9175 67.185 39.1935 67.224 39.4155 67.302C39.6435 67.38 39.8235 67.494 39.9555 67.644C40.0875 67.788 40.1805 67.965 40.2345 68.175C40.2945 68.379 40.3245 68.607 40.3245 68.859C40.3245 69.165 40.3125 69.468 40.2885 69.768C40.2645 70.068 40.2525 70.386 40.2525 70.722C40.2525 70.95 40.2675 71.172 40.2975 71.388C40.3275 71.604 40.3755 71.811 40.4415 72.009H39.4155L39.2085 71.307H39.1005C38.9445 71.517 38.7465 71.697 38.5065 71.847C38.2665 71.997 37.9575 72.072 37.5795 72.072C37.3515 72.072 37.1415 72.039 36.9495 71.973C36.7635 71.907 36.6015 71.814 36.4635 71.694C36.3315 71.568 36.2265 71.421 36.1485 71.253C36.0765 71.085 36.0405 70.902 36.0405 70.704C36.0405 70.17 36.2175 69.768 36.5715 69.498C36.9315 69.222 37.4745 69.084 38.2005 69.084C38.3685 69.084 38.5365 69.099 38.7045 69.129C38.8725 69.153 38.9895 69.171 39.0555 69.183C39.0735 69.057 39.0825 68.949 39.0825 68.859C39.0825 68.631 39.0255 68.463 38.9115 68.355C38.7975 68.247 38.5845 68.193 38.2725 68.193C37.9845 68.193 37.7025 68.229 37.4265 68.301C37.1565 68.367 36.9165 68.451 36.7065 68.553L36.3735 67.599ZM38.0205 71.064C38.3025 71.064 38.5275 70.998 38.6955 70.866C38.8635 70.734 38.9865 70.596 39.0645 70.452V69.912C39.0345 69.9 38.9865 69.888 38.9205 69.876C38.8605 69.864 38.7915 69.852 38.7135 69.84C38.6415 69.828 38.5665 69.819 38.4885 69.813C38.4165 69.807 38.3505 69.804 38.2905 69.804C37.9665 69.804 37.7265 69.864 37.5705 69.984C37.4145 70.098 37.3365 70.242 37.3365 70.416C37.3365 70.632 37.3965 70.794 37.5165 70.902C37.6425 71.01 37.8105 71.064 38.0205 71.064ZM44.4204 68.427C44.2404 68.367 44.0604 68.337 43.8804 68.337C43.6164 68.337 43.3974 68.4 43.2234 68.526C43.0554 68.652 42.9444 68.811 42.8904 69.003V72H41.6304V67.275H42.6204L42.7554 67.932H42.8724C42.9924 67.686 43.1514 67.497 43.3494 67.365C43.5534 67.233 43.7844 67.167 44.0424 67.167C44.2044 67.167 44.3904 67.2 44.6004 67.266L44.4204 68.427ZM47.711 65.7H51.77V66.87H49.043V68.238H51.518V69.408H49.043V70.83H51.815V72H47.711V65.7ZM57.1466 73.791H55.8866V71.55H55.7786C55.6586 71.736 55.4996 71.88 55.3016 71.982C55.1096 72.084 54.8546 72.135 54.5366 72.135C53.9066 72.135 53.4266 71.937 53.0966 71.541C52.7666 71.139 52.6016 70.539 52.6016 69.741C52.6016 68.895 52.8296 68.253 53.2856 67.815C53.7416 67.371 54.3986 67.149 55.2566 67.149C55.4366 67.149 55.6166 67.158 55.7966 67.176C55.9826 67.194 56.1566 67.218 56.3186 67.248C56.4866 67.272 56.6396 67.302 56.7776 67.338C56.9216 67.368 57.0446 67.401 57.1466 67.437V73.791ZM54.9056 71.082C55.1876 71.082 55.4036 71.022 55.5536 70.902C55.7036 70.782 55.8146 70.605 55.8866 70.371V68.337C55.7786 68.289 55.6556 68.256 55.5176 68.238C55.3796 68.214 55.2236 68.202 55.0496 68.202C54.6536 68.202 54.3626 68.337 54.1766 68.607C53.9906 68.877 53.8976 69.237 53.8976 69.687C53.8976 70.137 53.9846 70.482 54.1586 70.722C54.3326 70.962 54.5816 71.082 54.9056 71.082ZM59.7039 67.275V69.894C59.7039 70.284 59.7579 70.569 59.8659 70.749C59.9739 70.929 60.1809 71.019 60.4869 71.019C60.7509 71.019 60.9729 70.95 61.1529 70.812C61.3329 70.674 61.4649 70.5 61.5489 70.29V67.275H62.8089V70.56C62.8089 70.812 62.8209 71.064 62.8449 71.316C62.8749 71.568 62.9139 71.796 62.9619 72H62.0349L61.7919 71.262H61.6929C61.5369 71.514 61.3149 71.724 61.0269 71.892C60.7389 72.054 60.4089 72.135 60.0369 72.135C59.7789 72.135 59.5509 72.102 59.3529 72.036C59.1549 71.97 58.9869 71.862 58.8489 71.712C58.7169 71.556 58.6149 71.352 58.5429 71.1C58.4769 70.848 58.4439 70.536 58.4439 70.164V67.275H59.7039ZM64.3713 67.275H65.6313V72H64.3713V67.275ZM64.1823 66.096C64.1823 65.904 64.2513 65.745 64.3893 65.619C64.5273 65.487 64.7223 65.421 64.9743 65.421C65.2323 65.421 65.4363 65.487 65.5863 65.619C65.7363 65.751 65.8113 65.91 65.8113 66.096C65.8113 66.27 65.7363 66.42 65.5863 66.546C65.4363 66.672 65.2323 66.735 64.9743 66.735C64.7223 66.735 64.5273 66.672 64.3893 66.546C64.2513 66.42 64.1823 66.27 64.1823 66.096ZM67.0748 67.275H67.9748L68.1278 67.86H68.2358C68.4218 67.62 68.6378 67.44 68.8838 67.32C69.1298 67.2 69.4178 67.14 69.7478 67.14C70.3838 67.14 70.8608 67.332 71.1788 67.716C71.4968 68.094 71.6558 68.697 71.6558 69.525C71.6558 69.921 71.6048 70.281 71.5028 70.605C71.4008 70.923 71.2508 71.199 71.0528 71.433C70.8548 71.661 70.6088 71.838 70.3148 71.964C70.0268 72.084 69.6938 72.144 69.3158 72.144C69.1118 72.144 68.9348 72.123 68.7848 72.081C68.6348 72.045 68.4848 71.994 68.3348 71.928V73.791H67.0748V67.275ZM69.3608 68.193C69.0728 68.193 68.8508 68.259 68.6948 68.391C68.5388 68.517 68.4188 68.715 68.3348 68.985V70.821C68.4368 70.905 68.5508 70.971 68.6768 71.019C68.8028 71.067 68.9618 71.091 69.1538 71.091C69.5618 71.091 69.8648 70.965 70.0628 70.713C70.2608 70.455 70.3598 70.047 70.3598 69.489C70.3598 69.087 70.2818 68.772 70.1258 68.544C69.9758 68.31 69.7208 68.193 69.3608 68.193ZM72.4122 69.642C72.4122 68.862 72.6192 68.25 73.0332 67.806C73.4472 67.362 74.0382 67.14 74.8062 67.14C75.2082 67.14 75.5592 67.203 75.8592 67.329C76.1592 67.455 76.4082 67.632 76.6062 67.86C76.8042 68.082 76.9512 68.346 77.0472 68.652C77.1492 68.952 77.2002 69.282 77.2002 69.642C77.2002 70.026 77.1462 70.374 77.0382 70.686C76.9302 70.992 76.7742 71.253 76.5702 71.469C76.3662 71.685 76.1142 71.85 75.8142 71.964C75.5202 72.078 75.1842 72.135 74.8062 72.135C74.3982 72.135 74.0442 72.072 73.7442 71.946C73.4442 71.82 73.1952 71.646 72.9972 71.424C72.7992 71.196 72.6522 70.932 72.5562 70.632C72.4602 70.326 72.4122 69.996 72.4122 69.642ZM73.7082 69.642C73.7082 69.84 73.7292 70.026 73.7712 70.2C73.8132 70.374 73.8762 70.527 73.9602 70.659C74.0502 70.785 74.1642 70.887 74.3022 70.965C74.4402 71.043 74.6082 71.082 74.8062 71.082C75.5382 71.082 75.9042 70.602 75.9042 69.642C75.9042 69.432 75.8832 69.24 75.8412 69.066C75.8052 68.886 75.7422 68.733 75.6522 68.607C75.5682 68.475 75.4542 68.373 75.3102 68.301C75.1722 68.229 75.0042 68.193 74.8062 68.193C74.4642 68.193 74.1942 68.307 73.9962 68.535C73.8042 68.763 73.7082 69.132 73.7082 69.642Z" fill="white"/>
<defs>
<filter id="filter0_d" x="0" y="0" width="88" height="88" filterUnits="userSpaceOnUse" color-interpolation-filters="sRGB">
<feFlood flood-opacity="0" result="BackgroundImageFix"/>
<feColorMatrix in="SourceAlpha" type="matrix" values="0 0 0 0 0 0 0 0 0 0 0 0 0 0 0 0 0 0 127 0"/>
<feOffset dy="4"/>
<feGaussianBlur stdDeviation="2"/>
<feColorMatrix type="matrix" values="0 0 0 0 0 0 0 0 0 0 0 0 0 0 0 0 0 0 0.25 0"/>
<feBlend mode="normal" in2="BackgroundImageFix" result="effect1_dropShadow"/>
<feBlend mode="normal" in="SourceGraphic" in2="effect1_dropShadow" result="shape"/>
</filter>
<clipPath id="clip0">
<rect width="62.08" height="63.4912" fill="white" transform="translate(9.44 4.48)"/>
</clipPath>
<clipPath id="clip1">
<rect width="22.6841" height="22.4" fill="white" transform="translate(55.52 40.64)"/>
</clipPath>
</defs>
</svg>
