<svg width="98" height="98" viewBox="0 0 98 98" fill="none" xmlns="http://www.w3.org/2000/svg">
<g filter="url(#filter0_d)">
<path d="M74 0H24C12.9543 0 4 8.9543 4 20V70C4 81.0457 12.9543 90 24 90H74C85.0457 90 94 81.0457 94 70V20C94 8.95431 85.0457 0 74 0Z" fill="#684756"/>
</g>
<g clip-path="url(#clip0)">
<path d="M55.7818 44.2816C55.3396 43.9211 54.6951 43.9956 54.3425 44.4479L51.7504 47.7742C51.6058 47.9597 51.5271 48.1898 51.5271 48.427V70.0292C51.5271 70.6076 51.9856 71.0766 52.5512 71.0766C53.1168 71.0766 53.5754 70.6076 53.5754 70.0292V48.7933L55.9443 45.7534C56.297 45.3011 56.2241 44.6422 55.7818 44.2816Z" fill="white"/>
<path d="M77.1552 13.0455H75.5174C75.2525 13.0455 74.9969 13.0858 74.7538 13.1564C74.6801 11.6414 73.4554 10.431 71.956 10.431H69.1631C67.6165 10.431 66.3582 11.7178 66.3582 13.2997V23.3293H57.6708V19.7614C57.6708 17.31 55.7209 15.3157 53.324 15.3157C52.1888 15.3157 51.1543 15.7636 50.3792 16.495C49.6129 15.2261 48.241 14.3784 46.6787 14.3784C45.0717 14.3784 43.6668 15.2754 42.9146 16.6049C42.1469 15.9083 41.138 15.484 40.0334 15.484C38.5805 15.484 37.2928 16.2175 36.5031 17.3406C35.7128 16.5091 34.6087 15.9911 33.3881 15.9911C30.9912 15.9911 29.0413 17.9854 29.0413 20.4368V23.1926C29.0413 23.2384 29.0433 23.2838 29.0447 23.3293H23.7216V20.3658C23.7216 19.7874 23.2631 19.3184 22.6975 19.3184C22.1319 19.3184 21.6734 19.7874 21.6734 20.3658V41.706C21.6734 42.1327 21.334 42.4799 20.9167 42.4799H18.124C17.7068 42.4799 17.3673 42.1328 17.3673 41.706V13.2997C17.3673 12.873 17.7067 12.5258 18.124 12.5258H20.9169C21.334 12.5258 21.6735 12.8729 21.6735 13.2997V15.902C21.6735 16.4805 22.132 16.9494 22.6976 16.9494C23.2632 16.9494 23.7218 16.4805 23.7218 15.902V13.2997C23.7218 11.7179 22.4636 10.431 20.9169 10.431H18.124C16.6246 10.431 15.3999 11.6414 15.3262 13.1564C15.083 13.0858 14.8275 13.0455 14.5626 13.0455H12.9249C11.3782 13.0455 10.12 14.3324 10.12 15.9142V39.0914C10.12 40.6732 11.3782 41.9601 12.9249 41.9601H14.5627C14.8276 41.9601 15.0832 41.9197 15.3263 41.8492C15.4 43.3642 16.6248 44.5746 18.1241 44.5746H20.917C22.4636 44.5746 23.7219 43.2878 23.7219 41.7059V31.6761H29.3923V38.0965C29.3923 40.5817 30.1944 43.0459 31.6508 45.0353L32.3644 46.01V70.0291C32.3644 70.6075 32.8229 71.0765 33.3885 71.0765C33.9541 71.0765 34.4127 70.6075 34.4127 70.0291V45.6614C34.4127 45.435 34.341 45.2148 34.2084 45.0336L33.2905 43.7798C32.0976 42.1504 31.4408 40.132 31.4408 38.0965V31.6761H44.9012C45.4133 32.1335 46.0227 32.479 46.6934 32.6756C44.5654 34.5337 43.29 37.2963 43.29 40.1952V41.042C43.29 41.6204 43.7486 42.0894 44.3142 42.0894C44.8798 42.0894 45.3383 41.6204 45.3383 41.042V40.1952C45.3383 37.5027 46.7347 34.959 48.9823 33.5569L50.0926 32.8644C50.0938 32.8637 50.0948 32.8628 50.096 32.8621H51.0029C51.5685 32.8621 52.027 32.3931 52.027 31.8146C52.027 31.2362 51.5685 30.7672 51.0029 30.7672H47.9858C46.526 30.7672 45.3383 29.5526 45.3383 28.0596C45.3383 26.5665 46.526 25.3519 47.9858 25.3519H55.2726C57.3227 25.3519 58.9907 27.0578 58.9907 29.1546V31.994C58.9907 35.1105 58.2146 38.2018 56.7461 40.9335C56.4735 41.4404 56.6545 42.0772 57.1501 42.356C57.3066 42.444 57.4758 42.4857 57.6425 42.4857C58.004 42.4857 58.3545 42.2895 58.5409 41.9428C60.175 38.9027 61.0389 35.4626 61.0389 31.9941V31.6763H66.3586V41.706C66.3586 43.2878 67.6168 44.5747 69.1635 44.5747H71.9564C73.4558 44.5747 74.6805 43.3643 74.7542 41.8493C74.9974 41.9199 75.2529 41.9602 75.5178 41.9602H77.1556C78.7022 41.9602 79.9605 40.6734 79.9605 39.0915V15.9142C79.96 14.3324 78.7018 13.0455 77.1552 13.0455V13.0455ZM14.5626 39.8652H12.9249C12.5077 39.8652 12.1683 39.5182 12.1683 39.0914V15.9142C12.1683 15.4875 12.5076 15.1403 12.9249 15.1403H14.5627C14.9799 15.1403 15.3193 15.4874 15.3193 15.9142V39.0914C15.3192 39.5181 14.9797 39.8652 14.5626 39.8652ZM37.735 19.9297C37.735 18.6335 38.7661 17.5788 40.0335 17.5788C41.301 17.5788 42.3321 18.6334 42.3321 19.9297V23.7652C42.3321 25.0613 41.301 26.116 40.0335 26.116C38.7661 26.116 37.735 25.0615 37.735 23.7652V19.9297ZM31.0897 20.4369C31.0897 19.1408 32.1208 18.0861 33.3883 18.0861C34.6557 18.0861 35.6868 19.1406 35.6868 20.4369V23.1927C35.6868 24.489 34.6557 25.5436 33.3883 25.5436C32.1208 25.5436 31.0897 24.489 31.0897 23.1927V20.4369ZM23.7216 25.4241H29.631C30.3849 26.7468 31.7862 27.6382 33.3881 27.6382C34.5952 27.6382 35.6887 27.132 36.477 26.3167C37.2643 27.4609 38.5644 28.2107 40.0334 28.2107C41.5174 28.2107 42.8296 27.4457 43.6142 26.2815C43.618 26.2805 43.6218 26.2795 43.6257 26.2784C43.4096 26.8296 43.2895 27.4303 43.2895 28.0596C43.2895 28.5914 43.3756 29.1027 43.5324 29.5813H23.7216V25.4241ZM44.3802 24.9863V18.824C44.3802 17.5279 45.4113 16.4732 46.6788 16.4732C47.9463 16.4732 48.9774 17.5277 48.9774 18.824V23.2572H47.9853C46.5383 23.2572 45.2424 23.9304 44.3802 24.9863V24.9863ZM51.0257 23.2572V19.7614C51.0257 18.4652 52.0568 17.4106 53.3242 17.4106C54.5917 17.4106 55.6228 18.4651 55.6228 19.7614V23.2572H51.0257ZM61.0386 29.5813V29.1546C61.0386 27.7405 60.5489 26.4413 59.7345 25.4241H66.3584V29.5813H61.0386ZM77.9117 39.0914C77.9117 39.5181 77.5724 39.8652 77.1551 39.8652H75.5173C75.1001 39.8652 74.7607 39.5182 74.7607 39.0914V34.0233C74.7607 33.4449 74.3021 32.9759 73.7365 32.9759C73.1709 32.9759 72.7124 33.4449 72.7124 34.0233V41.7059C72.7124 42.1326 72.3731 42.4797 71.9558 42.4797H69.1629C68.7457 42.4797 68.4062 42.1327 68.4062 41.7059V13.2997C68.4062 12.873 68.7456 12.5258 69.1629 12.5258H71.9558C72.3729 12.5258 72.7124 12.8729 72.7124 13.2997V29.5596C72.7124 30.1381 73.1709 30.607 73.7365 30.607C74.3021 30.607 74.7607 30.1381 74.7607 29.5596V15.9142C74.7607 15.4875 75.1 15.1403 75.5173 15.1403H77.1551C77.5723 15.1403 77.9117 15.4874 77.9117 15.9142V39.0914Z" fill="white"/>
</g>
<g clip-path="url(#clip1)">
<path d="M86.4163 57.27C85.8294 57.27 85.353 57.7404 85.353 58.32C85.353 64.1097 80.583 68.82 74.7198 68.82C68.8567 68.82 64.0866 64.1097 64.0866 58.32C64.0866 52.5303 68.8567 47.82 74.7198 47.82C77.5743 47.82 80.2539 48.9214 82.2657 50.9217C82.6788 51.3333 83.3524 51.3359 83.7692 50.9269C84.186 50.5185 84.1881 49.8538 83.7745 49.4422C81.3608 47.0419 78.1448 45.72 74.7198 45.72C67.6838 45.72 61.96 51.3721 61.96 58.32C61.96 65.2678 67.6838 70.92 74.7198 70.92C81.7558 70.92 87.4796 65.2678 87.4796 58.32C87.4796 57.7404 87.0033 57.27 86.4163 57.27Z" fill="white"/>
<path d="M78.9731 57.27H75.7831V54.12C75.7831 53.5404 75.3068 53.07 74.7198 53.07C74.1329 53.07 73.6565 53.5404 73.6565 54.12V57.27H70.4665C69.8796 57.27 69.4032 57.7404 69.4032 58.32C69.4032 58.8996 69.8796 59.37 70.4665 59.37H73.6565V62.52C73.6565 63.0996 74.1329 63.57 74.7198 63.57C75.3068 63.57 75.7831 63.0996 75.7831 62.52V59.37H78.9731C79.5601 59.37 80.0364 58.8996 80.0364 58.32C80.0364 57.7404 79.5601 57.27 78.9731 57.27Z" fill="white"/>
</g>
<path d="M9.65 71.07C9.81 71.0433 9.98333 71.02 10.17 71C10.3633 70.9733 10.5567 70.9533 10.75 70.94C10.9433 70.9267 11.13 70.9167 11.31 70.91C11.4967 70.9033 11.6667 70.9 11.82 70.9C12.1733 70.9 12.52 70.93 12.86 70.99C13.2067 71.05 13.5133 71.1533 13.78 71.3C14.0533 71.4467 14.2733 71.65 14.44 71.91C14.6067 72.1633 14.69 72.4833 14.69 72.87C14.69 73.4433 14.5467 73.9167 14.26 74.29C13.98 74.6567 13.59 74.9067 13.09 75.04L13.62 75.35L15.37 78H13.65L11.91 75.29L11.13 75.17V78H9.65V71.07ZM11.92 72.2C11.7667 72.2 11.6167 72.2033 11.47 72.21C11.33 72.21 11.2167 72.22 11.13 72.24V74.17H11.76C12.18 74.17 12.51 74.09 12.75 73.93C12.9967 73.77 13.12 73.4933 13.12 73.1C13.12 72.8067 13.0167 72.5833 12.81 72.43C12.6033 72.2767 12.3067 72.2 11.92 72.2ZM20.2159 77.52C19.9892 77.6933 19.6792 77.8433 19.2859 77.97C18.8992 78.09 18.4825 78.15 18.0359 78.15C17.1359 78.15 16.4759 77.9033 16.0559 77.41C15.6359 76.9167 15.4259 76.24 15.4259 75.38C15.4259 74.4667 15.6625 73.7767 16.1359 73.31C16.6092 72.8367 17.2759 72.6 18.1359 72.6C18.4159 72.6 18.6925 72.6367 18.9659 72.71C19.2392 72.7767 19.4825 72.8933 19.6959 73.06C19.9092 73.22 20.0792 73.44 20.2059 73.72C20.3392 73.9933 20.4059 74.3333 20.4059 74.74C20.4059 74.88 20.3959 75.0333 20.3759 75.2C20.3625 75.3667 20.3359 75.54 20.2959 75.72H16.7959C16.8292 76.1733 16.9592 76.51 17.1859 76.73C17.4192 76.9433 17.7959 77.05 18.3159 77.05C18.6292 77.05 18.9092 77.0067 19.1559 76.92C19.4092 76.8267 19.6025 76.7333 19.7359 76.64L20.2159 77.52ZM18.1159 73.7C17.7025 73.7 17.3959 73.8133 17.1959 74.04C16.9959 74.26 16.8792 74.5433 16.8459 74.89H19.1059C19.1325 74.5233 19.0659 74.2333 18.9059 74.02C18.7459 73.8067 18.4825 73.7 18.1159 73.7ZM26.3548 77.8C26.3548 78.5733 26.1348 79.1433 25.6948 79.51C25.2548 79.8767 24.6314 80.06 23.8248 80.06C23.3048 80.06 22.8848 80.0233 22.5648 79.95C22.2514 79.8833 22.0081 79.8067 21.8348 79.72C21.9214 79.4533 21.9848 79.24 22.0248 79.08C22.0714 78.9267 22.1048 78.81 22.1248 78.73C22.1448 78.65 22.1581 78.6 22.1648 78.58C22.1714 78.56 22.1748 78.55 22.1748 78.55C22.3348 78.63 22.5281 78.71 22.7548 78.79C22.9814 78.8767 23.2581 78.92 23.5848 78.92C23.8581 78.92 24.0848 78.8933 24.2648 78.84C24.4448 78.7867 24.5881 78.7067 24.6948 78.6C24.8014 78.5 24.8748 78.3767 24.9148 78.23C24.9614 78.0833 24.9848 77.92 24.9848 77.74V77.35H24.8648C24.7314 77.5433 24.5481 77.68 24.3148 77.76C24.0814 77.84 23.7914 77.88 23.4448 77.88C22.7314 77.88 22.1948 77.6833 21.8348 77.29C21.4814 76.8967 21.3048 76.2633 21.3048 75.39C21.3048 74.47 21.5381 73.7767 22.0048 73.31C22.4781 72.8433 23.1781 72.61 24.1048 72.61C24.5914 72.61 25.0248 72.6433 25.4048 72.71C25.7914 72.77 26.1081 72.84 26.3548 72.92V77.8ZM23.7748 76.79C24.0814 76.79 24.3314 76.7333 24.5248 76.62C24.7248 76.5067 24.8681 76.3667 24.9548 76.2V73.94C24.7081 73.8333 24.3948 73.78 24.0148 73.78C23.6081 73.78 23.2948 73.9 23.0748 74.14C22.8548 74.38 22.7448 74.7767 22.7448 75.33C22.7448 75.8367 22.8381 76.2067 23.0248 76.44C23.2114 76.6733 23.4614 76.79 23.7748 76.79ZM27.9662 72.75H29.3662V78H27.9662V72.75ZM27.7562 71.44C27.7562 71.2267 27.8328 71.05 27.9862 70.91C28.1395 70.7633 28.3562 70.69 28.6362 70.69C28.9228 70.69 29.1495 70.7633 29.3162 70.91C29.4828 71.0567 29.5662 71.2333 29.5662 71.44C29.5662 71.6333 29.4828 71.8 29.3162 71.94C29.1495 72.08 28.9228 72.15 28.6362 72.15C28.3562 72.15 28.1395 72.08 27.9862 71.94C27.8328 71.8 27.7562 71.6333 27.7562 71.44ZM30.96 76.64C31.0533 76.6867 31.16 76.7333 31.28 76.78C31.4067 76.8267 31.54 76.87 31.68 76.91C31.8267 76.95 31.9733 76.9833 32.12 77.01C32.2733 77.0367 32.4267 77.05 32.58 77.05C32.8133 77.05 32.9933 77.0133 33.12 76.94C33.2533 76.8667 33.32 76.73 33.32 76.53C33.32 76.37 33.2333 76.2533 33.06 76.18C32.8867 76.1 32.6733 76.0233 32.42 75.95C32.2333 75.8967 32.0367 75.8333 31.83 75.76C31.63 75.6867 31.4433 75.59 31.27 75.47C31.1033 75.3433 30.9633 75.18 30.85 74.98C30.7433 74.78 30.69 74.5267 30.69 74.22C30.69 73.6933 30.8533 73.2933 31.18 73.02C31.5067 72.74 31.9767 72.6 32.59 72.6C32.99 72.6 33.3633 72.6367 33.71 72.71C34.0633 72.7767 34.3467 72.8567 34.56 72.95L34.27 74.01C34.0967 73.9433 33.8733 73.8767 33.6 73.81C33.3333 73.7367 33.06 73.7 32.78 73.7C32.5467 73.7 32.3733 73.7367 32.26 73.81C32.1467 73.8767 32.09 73.9967 32.09 74.17C32.09 74.3233 32.1767 74.44 32.35 74.52C32.53 74.5933 32.7467 74.6667 33 74.74C33.1867 74.7933 33.38 74.8567 33.58 74.93C33.7867 74.9967 33.9733 75.09 34.14 75.21C34.3067 75.33 34.4433 75.4867 34.55 75.68C34.6633 75.8667 34.72 76.1033 34.72 76.39C34.72 76.95 34.5367 77.3833 34.17 77.69C33.81 77.9967 33.2667 78.15 32.54 78.15C32.1467 78.15 31.78 78.1133 31.44 78.04C31.1 77.9733 30.8233 77.8733 30.61 77.74L30.96 76.64ZM35.164 72.75H35.964V72.03L37.364 71.66V72.75H38.774V73.92H37.364V75.74C37.364 76.16 37.404 76.4633 37.484 76.65C37.5707 76.83 37.7373 76.92 37.984 76.92C38.1373 76.92 38.2673 76.91 38.374 76.89C38.4807 76.8633 38.594 76.8233 38.714 76.77L39.004 77.82C38.7907 77.9133 38.544 77.9933 38.264 78.06C37.9907 78.1267 37.724 78.16 37.464 78.16C36.944 78.16 36.564 78.0333 36.324 77.78C36.084 77.52 35.964 77.1067 35.964 76.54V73.92H35.164V72.75ZM42.947 74.03C42.747 73.9633 42.547 73.93 42.347 73.93C42.0536 73.93 41.8103 74 41.617 74.14C41.4303 74.28 41.307 74.4567 41.247 74.67V78H39.847V72.75H40.947L41.097 73.48H41.227C41.3603 73.2067 41.537 72.9967 41.757 72.85C41.9836 72.7033 42.2403 72.63 42.527 72.63C42.707 72.63 42.9136 72.6667 43.147 72.74L42.947 74.03ZM43.8595 73.11C44.1595 72.9767 44.5261 72.8667 44.9595 72.78C45.3995 72.6933 45.8528 72.65 46.3195 72.65C46.6861 72.65 46.9928 72.6933 47.2395 72.78C47.4928 72.8667 47.6928 72.9933 47.8395 73.16C47.9861 73.32 48.0895 73.5167 48.1495 73.75C48.2161 73.9767 48.2495 74.23 48.2495 74.51C48.2495 74.85 48.2361 75.1867 48.2095 75.52C48.1828 75.8533 48.1695 76.2067 48.1695 76.58C48.1695 76.8333 48.1861 77.08 48.2195 77.32C48.2528 77.56 48.3061 77.79 48.3795 78.01H47.2395L47.0095 77.23H46.8895C46.7161 77.4633 46.4961 77.6633 46.2295 77.83C45.9628 77.9967 45.6195 78.08 45.1995 78.08C44.9461 78.08 44.7128 78.0433 44.4995 77.97C44.2928 77.8967 44.1128 77.7933 43.9595 77.66C43.8128 77.52 43.6961 77.3567 43.6095 77.17C43.5295 76.9833 43.4895 76.78 43.4895 76.56C43.4895 75.9667 43.6861 75.52 44.0795 75.22C44.4795 74.9133 45.0828 74.76 45.8895 74.76C46.0761 74.76 46.2628 74.7767 46.4495 74.81C46.6361 74.8367 46.7661 74.8567 46.8395 74.87C46.8595 74.73 46.8695 74.61 46.8695 74.51C46.8695 74.2567 46.8061 74.07 46.6795 73.95C46.5528 73.83 46.3161 73.77 45.9695 73.77C45.6495 73.77 45.3361 73.81 45.0295 73.89C44.7295 73.9633 44.4628 74.0567 44.2295 74.17L43.8595 73.11ZM45.6895 76.96C46.0028 76.96 46.2528 76.8867 46.4395 76.74C46.6261 76.5933 46.7628 76.44 46.8495 76.28V75.68C46.8161 75.6667 46.7628 75.6533 46.6895 75.64C46.6228 75.6267 46.5461 75.6133 46.4595 75.6C46.3795 75.5867 46.2961 75.5767 46.2095 75.57C46.1295 75.5633 46.0561 75.56 45.9895 75.56C45.6295 75.56 45.3628 75.6267 45.1895 75.76C45.0161 75.8867 44.9295 76.0467 44.9295 76.24C44.9295 76.48 44.9961 76.66 45.1295 76.78C45.2695 76.9 45.4561 76.96 45.6895 76.96ZM52.8005 74.03C52.6005 73.9633 52.4005 73.93 52.2005 73.93C51.9071 73.93 51.6638 74 51.4705 74.14C51.2838 74.28 51.1605 74.4567 51.1005 74.67V78H49.7005V72.75H50.8005L50.9505 73.48H51.0805C51.2138 73.2067 51.3905 72.9967 51.6105 72.85C51.8371 72.7033 52.0938 72.63 52.3805 72.63C52.5605 72.63 52.7671 72.6667 53.0005 72.74L52.8005 74.03ZM56.4566 71H60.9666V72.3H57.9366V73.82H60.6866V75.12H57.9366V76.7H61.0166V78H56.4566V71ZM66.9407 79.99H65.5407V77.5H65.4207C65.2874 77.7067 65.1107 77.8667 64.8907 77.98C64.6774 78.0933 64.394 78.15 64.0407 78.15C63.3407 78.15 62.8074 77.93 62.4407 77.49C62.074 77.0433 61.8907 76.3767 61.8907 75.49C61.8907 74.55 62.144 73.8367 62.6507 73.35C63.1574 72.8567 63.8874 72.61 64.8407 72.61C65.0407 72.61 65.2407 72.62 65.4407 72.64C65.6474 72.66 65.8407 72.6867 66.0207 72.72C66.2074 72.7467 66.3774 72.78 66.5307 72.82C66.6907 72.8533 66.8274 72.89 66.9407 72.93V79.99ZM64.4507 76.98C64.764 76.98 65.004 76.9133 65.1707 76.78C65.3374 76.6467 65.4607 76.45 65.5407 76.19V73.93C65.4207 73.8767 65.284 73.84 65.1307 73.82C64.9774 73.7933 64.804 73.78 64.6107 73.78C64.1707 73.78 63.8474 73.93 63.6407 74.23C63.434 74.53 63.3307 74.93 63.3307 75.43C63.3307 75.93 63.4274 76.3133 63.6207 76.58C63.814 76.8467 64.0907 76.98 64.4507 76.98ZM69.7821 72.75V75.66C69.7821 76.0933 69.8421 76.41 69.9621 76.61C70.0821 76.81 70.3121 76.91 70.6521 76.91C70.9454 76.91 71.1921 76.8333 71.3921 76.68C71.5921 76.5267 71.7388 76.3333 71.8321 76.1V72.75H73.2321V76.4C73.2321 76.68 73.2454 76.96 73.2721 77.24C73.3054 77.52 73.3488 77.7733 73.4021 78H72.3721L72.1021 77.18H71.9921C71.8188 77.46 71.5721 77.6933 71.2521 77.88C70.9321 78.06 70.5654 78.15 70.1521 78.15C69.8654 78.15 69.6121 78.1133 69.3921 78.04C69.1721 77.9667 68.9854 77.8467 68.8321 77.68C68.6854 77.5067 68.5721 77.28 68.4921 77C68.4188 76.72 68.3821 76.3733 68.3821 75.96V72.75H69.7821ZM74.9681 72.75H76.3681V78H74.9681V72.75ZM74.7581 71.44C74.7581 71.2267 74.8348 71.05 74.9881 70.91C75.1415 70.7633 75.3581 70.69 75.6381 70.69C75.9248 70.69 76.1515 70.7633 76.3181 70.91C76.4848 71.0567 76.5681 71.2333 76.5681 71.44C76.5681 71.6333 76.4848 71.8 76.3181 71.94C76.1515 72.08 75.9248 72.15 75.6381 72.15C75.3581 72.15 75.1415 72.08 74.9881 71.94C74.8348 71.8 74.7581 71.6333 74.7581 71.44ZM77.972 72.75H78.972L79.142 73.4H79.262C79.4686 73.1333 79.7086 72.9333 79.982 72.8C80.2553 72.6667 80.5753 72.6 80.942 72.6C81.6486 72.6 82.1786 72.8133 82.532 73.24C82.8853 73.66 83.062 74.33 83.062 75.25C83.062 75.69 83.0053 76.09 82.892 76.45C82.7786 76.8033 82.612 77.11 82.392 77.37C82.172 77.6233 81.8986 77.82 81.572 77.96C81.252 78.0933 80.882 78.16 80.462 78.16C80.2353 78.16 80.0386 78.1367 79.872 78.09C79.7053 78.05 79.5386 77.9933 79.372 77.92V79.99H77.972V72.75ZM80.512 73.77C80.192 73.77 79.9453 73.8433 79.772 73.99C79.5986 74.13 79.4653 74.35 79.372 74.65V76.69C79.4853 76.7833 79.612 76.8567 79.752 76.91C79.892 76.9633 80.0686 76.99 80.282 76.99C80.7353 76.99 81.072 76.85 81.292 76.57C81.512 76.2833 81.622 75.83 81.622 75.21C81.622 74.7633 81.5353 74.4133 81.362 74.16C81.1953 73.9 80.912 73.77 80.512 73.77ZM83.9024 75.38C83.9024 74.5133 84.1324 73.8333 84.5924 73.34C85.0524 72.8467 85.7091 72.6 86.5624 72.6C87.0091 72.6 87.3991 72.67 87.7324 72.81C88.0658 72.95 88.3424 73.1467 88.5624 73.4C88.7824 73.6467 88.9458 73.94 89.0524 74.28C89.1658 74.6133 89.2224 74.98 89.2224 75.38C89.2224 75.8067 89.1624 76.1933 89.0424 76.54C88.9224 76.88 88.7491 77.17 88.5224 77.41C88.2958 77.65 88.0158 77.8333 87.6824 77.96C87.3558 78.0867 86.9824 78.15 86.5624 78.15C86.1091 78.15 85.7158 78.08 85.3824 77.94C85.0491 77.8 84.7724 77.6067 84.5524 77.36C84.3324 77.1067 84.1691 76.8133 84.0624 76.48C83.9558 76.14 83.9024 75.7733 83.9024 75.38ZM85.3424 75.38C85.3424 75.6 85.3658 75.8067 85.4124 76C85.4591 76.1933 85.5291 76.3633 85.6224 76.51C85.7224 76.65 85.8491 76.7633 86.0024 76.85C86.1558 76.9367 86.3424 76.98 86.5624 76.98C87.3758 76.98 87.7824 76.4467 87.7824 75.38C87.7824 75.1467 87.7591 74.9333 87.7124 74.74C87.6724 74.54 87.6024 74.37 87.5024 74.23C87.4091 74.0833 87.2824 73.97 87.1224 73.89C86.9691 73.81 86.7824 73.77 86.5624 73.77C86.1824 73.77 85.8824 73.8967 85.6624 74.15C85.4491 74.4033 85.3424 74.8133 85.3424 75.38Z" fill="white"/>
<defs>
<filter id="filter0_d" x="0" y="0" width="98" height="98" filterUnits="userSpaceOnUse" color-interpolation-filters="sRGB">
<feFlood flood-opacity="0" result="BackgroundImageFix"/>
<feColorMatrix in="SourceAlpha" type="matrix" values="0 0 0 0 0 0 0 0 0 0 0 0 0 0 0 0 0 0 127 0"/>
<feOffset dy="4"/>
<feGaussianBlur stdDeviation="2"/>
<feColorMatrix type="matrix" values="0 0 0 0 0 0 0 0 0 0 0 0 0 0 0 0 0 0 0.25 0"/>
<feBlend mode="normal" in2="BackgroundImageFix" result="effect1_dropShadow"/>
<feBlend mode="normal" in="SourceGraphic" in2="effect1_dropShadow" result="shape"/>
</filter>
<clipPath id="clip0">
<rect width="69.84" height="71.4276" fill="white" transform="translate(10.12 5.04)"/>
</clipPath>
<clipPath id="clip1">
<rect width="25.5197" height="25.2" fill="white" transform="translate(61.96 45.72)"/>
</clipPath>
</defs>
</svg>
