<svg xmlns="http://www.w3.org/2000/svg" width="88" height="88" fill="none" viewBox="0 0 88 88"><g clip-path="url(#clip0)" filter="url(#filter0_d)"><g filter="url(#filter1_d)"><rect width="80" height="80" x="4" fill="#989572" rx="20"/></g><path fill="#fff" d="M12.585 65.763C12.729 65.739 12.885 65.718 13.053 65.7C13.227 65.676 13.401 65.658 13.575 65.646C13.749 65.634 13.917 65.625 14.079 65.619C14.247 65.613 14.4 65.61 14.538 65.61C14.856 65.61 15.168 65.637 15.474 65.691C15.786 65.745 16.062 65.838 16.302 65.97C16.548 66.102 16.746 66.285 16.896 66.519C17.046 66.747 17.121 67.035 17.121 67.383C17.121 67.899 16.992 68.325 16.734 68.661C16.482 68.991 16.131 69.216 15.681 69.336L16.158 69.615L17.733 72H16.185L14.619 69.561L13.917 69.453V72H12.585V65.763ZM14.628 66.78C14.49 66.78 14.355 66.783 14.223 66.789C14.097 66.789 13.995 66.798 13.917 66.816V68.553H14.484C14.862 68.553 15.159 68.481 15.375 68.337C15.597 68.193 15.708 67.944 15.708 67.59C15.708 67.326 15.615 67.125 15.429 66.987C15.243 66.849 14.976 66.78 14.628 66.78ZM22.0943 71.568C21.8903 71.724 21.6113 71.859 21.2573 71.973C20.9093 72.081 20.5343 72.135 20.1323 72.135C19.3223 72.135 18.7283 71.913 18.3503 71.469C17.9723 71.025 17.7833 70.416 17.7833 69.642C17.7833 68.82 17.9963 68.199 18.4223 67.779C18.8483 67.353 19.4483 67.14 20.2223 67.14C20.4743 67.14 20.7233 67.173 20.9693 67.239C21.2153 67.299 21.4343 67.404 21.6263 67.554C21.8183 67.698 21.9713 67.896 22.0853 68.148C22.2053 68.394 22.2653 68.7 22.2653 69.066C22.2653 69.192 22.2563 69.33 22.2383 69.48C22.2263 69.63 22.2023 69.786 22.1663 69.948H19.0163C19.0463 70.356 19.1633 70.659 19.3673 70.857C19.5773 71.049 19.9163 71.145 20.3843 71.145C20.6663 71.145 20.9183 71.106 21.1403 71.028C21.3683 70.944 21.5423 70.86 21.6623 70.776L22.0943 71.568ZM20.2043 68.13C19.8323 68.13 19.5563 68.232 19.3763 68.436C19.1963 68.634 19.0913 68.889 19.0613 69.201H21.0953C21.1193 68.871 21.0593 68.61 20.9153 68.418C20.7713 68.226 20.5343 68.13 20.2043 68.13ZM23.397 67.275H24.297L24.45 67.86H24.558C24.744 67.62 24.96 67.44 25.206 67.32C25.452 67.2 25.74 67.14 26.07 67.14C26.706 67.14 27.183 67.332 27.501 67.716C27.819 68.094 27.978 68.697 27.978 69.525C27.978 69.921 27.927 70.281 27.825 70.605C27.723 70.923 27.573 71.199 27.375 71.433C27.177 71.661 26.931 71.838 26.637 71.964C26.349 72.084 26.016 72.144 25.638 72.144C25.434 72.144 25.257 72.123 25.107 72.081C24.957 72.045 24.807 71.994 24.657 71.928V73.791H23.397V67.275ZM25.683 68.193C25.395 68.193 25.173 68.259 25.017 68.391C24.861 68.517 24.741 68.715 24.657 68.985V70.821C24.759 70.905 24.873 70.971 24.999 71.019C25.125 71.067 25.284 71.091 25.476 71.091C25.884 71.091 26.187 70.965 26.385 70.713C26.583 70.455 26.682 70.047 26.682 69.489C26.682 69.087 26.604 68.772 26.448 68.544C26.298 68.31 26.043 68.193 25.683 68.193ZM28.7344 69.642C28.7344 68.862 28.9414 68.25 29.3554 67.806C29.7694 67.362 30.3604 67.14 31.1284 67.14C31.5304 67.14 31.8814 67.203 32.1814 67.329C32.4814 67.455 32.7304 67.632 32.9284 67.86C33.1264 68.082 33.2734 68.346 33.3694 68.652C33.4714 68.952 33.5224 69.282 33.5224 69.642C33.5224 70.026 33.4684 70.374 33.3604 70.686C33.2524 70.992 33.0964 71.253 32.8924 71.469C32.6884 71.685 32.4364 71.85 32.1364 71.964C31.8424 72.078 31.5064 72.135 31.1284 72.135C30.7204 72.135 30.3664 72.072 30.0664 71.946C29.7664 71.82 29.5174 71.646 29.3194 71.424C29.1214 71.196 28.9744 70.932 28.8784 70.632C28.7824 70.326 28.7344 69.996 28.7344 69.642ZM30.0304 69.642C30.0304 69.84 30.0514 70.026 30.0934 70.2C30.1354 70.374 30.1984 70.527 30.2824 70.659C30.3724 70.785 30.4864 70.887 30.6244 70.965C30.7624 71.043 30.9304 71.082 31.1284 71.082C31.8604 71.082 32.2264 70.602 32.2264 69.642C32.2264 69.432 32.2054 69.24 32.1634 69.066C32.1274 68.886 32.0644 68.733 31.9744 68.607C31.8904 68.475 31.7764 68.373 31.6324 68.301C31.4944 68.229 31.3264 68.193 31.1284 68.193C30.7864 68.193 30.5164 68.307 30.3184 68.535C30.1264 68.763 30.0304 69.132 30.0304 69.642ZM37.3403 68.427C37.1603 68.367 36.9803 68.337 36.8003 68.337C36.5363 68.337 36.3173 68.4 36.1433 68.526C35.9753 68.652 35.8643 68.811 35.8103 69.003V72H34.5503V67.275H35.5403L35.6753 67.932H35.7923C35.9123 67.686 36.0713 67.497 36.2693 67.365C36.4733 67.233 36.7043 67.167 36.9623 67.167C37.1243 67.167 37.3103 67.2 37.5203 67.266L37.3403 68.427ZM37.947 67.275H38.667V66.627L39.927 66.294V67.275H41.196V68.328H39.927V69.966C39.927 70.344 39.963 70.617 40.035 70.785C40.113 70.947 40.263 71.028 40.485 71.028C40.623 71.028 40.74 71.019 40.836 71.001C40.932 70.977 41.034 70.941 41.142 70.893L41.403 71.838C41.211 71.922 40.989 71.994 40.737 72.054C40.491 72.114 40.251 72.144 40.017 72.144C39.549 72.144 39.207 72.03 38.991 71.802C38.775 71.568 38.667 71.196 38.667 70.686V68.328H37.947V67.275ZM42.1167 67.599C42.3867 67.479 42.7167 67.38 43.1067 67.302C43.5027 67.224 43.9107 67.185 44.3307 67.185C44.6607 67.185 44.9367 67.224 45.1587 67.302C45.3867 67.38 45.5667 67.494 45.6987 67.644C45.8307 67.788 45.9237 67.965 45.9777 68.175C46.0377 68.379 46.0677 68.607 46.0677 68.859C46.0677 69.165 46.0557 69.468 46.0317 69.768C46.0077 70.068 45.9957 70.386 45.9957 70.722C45.9957 70.95 46.0107 71.172 46.0407 71.388C46.0707 71.604 46.1187 71.811 46.1847 72.009H45.1587L44.9517 71.307H44.8437C44.6877 71.517 44.4897 71.697 44.2497 71.847C44.0097 71.997 43.7007 72.072 43.3227 72.072C43.0947 72.072 42.8847 72.039 42.6927 71.973C42.5067 71.907 42.3447 71.814 42.2067 71.694C42.0747 71.568 41.9697 71.421 41.8917 71.253C41.8197 71.085 41.7837 70.902 41.7837 70.704C41.7837 70.17 41.9607 69.768 42.3147 69.498C42.6747 69.222 43.2177 69.084 43.9437 69.084C44.1117 69.084 44.2797 69.099 44.4477 69.129C44.6157 69.153 44.7327 69.171 44.7987 69.183C44.8167 69.057 44.8257 68.949 44.8257 68.859C44.8257 68.631 44.7687 68.463 44.6547 68.355C44.5407 68.247 44.3277 68.193 44.0157 68.193C43.7277 68.193 43.4457 68.229 43.1697 68.301C42.8997 68.367 42.6597 68.451 42.4497 68.553L42.1167 67.599ZM43.7637 71.064C44.0457 71.064 44.2707 70.998 44.4387 70.866C44.6067 70.734 44.7297 70.596 44.8077 70.452V69.912C44.7777 69.9 44.7297 69.888 44.6637 69.876C44.6037 69.864 44.5347 69.852 44.4567 69.84C44.3847 69.828 44.3097 69.819 44.2317 69.813C44.1597 69.807 44.0937 69.804 44.0337 69.804C43.7097 69.804 43.4697 69.864 43.3137 69.984C43.1577 70.098 43.0797 70.242 43.0797 70.416C43.0797 70.632 43.1397 70.794 43.2597 70.902C43.3857 71.01 43.5537 71.064 43.7637 71.064ZM50.1636 68.427C49.9836 68.367 49.8036 68.337 49.6236 68.337C49.3596 68.337 49.1406 68.4 48.9666 68.526C48.7986 68.652 48.6876 68.811 48.6336 69.003V72H47.3736V67.275H48.3636L48.4986 67.932H48.6156C48.7356 67.686 48.8946 67.497 49.0926 67.365C49.2966 67.233 49.5276 67.167 49.7856 67.167C49.9476 67.167 50.1336 67.2 50.3436 67.266L50.1636 68.427ZM53.4541 65.7H57.5131V66.87H54.7861V68.337H57.2971V69.507H54.7861V72H53.4541V65.7ZM58.4292 67.599C58.6992 67.479 59.0292 67.38 59.4192 67.302C59.8152 67.224 60.2232 67.185 60.6432 67.185C60.9732 67.185 61.2492 67.224 61.4712 67.302C61.6992 67.38 61.8792 67.494 62.0112 67.644C62.1432 67.788 62.2362 67.965 62.2902 68.175C62.3502 68.379 62.3802 68.607 62.3802 68.859C62.3802 69.165 62.3682 69.468 62.3442 69.768C62.3202 70.068 62.3082 70.386 62.3082 70.722C62.3082 70.95 62.3232 71.172 62.3532 71.388C62.3832 71.604 62.4312 71.811 62.4972 72.009H61.4712L61.2642 71.307H61.1562C61.0002 71.517 60.8022 71.697 60.5622 71.847C60.3222 71.997 60.0132 72.072 59.6352 72.072C59.4072 72.072 59.1972 72.039 59.0052 71.973C58.8192 71.907 58.6572 71.814 58.5192 71.694C58.3872 71.568 58.2822 71.421 58.2042 71.253C58.1322 71.085 58.0962 70.902 58.0962 70.704C58.0962 70.17 58.2732 69.768 58.6272 69.498C58.9872 69.222 59.5302 69.084 60.2562 69.084C60.4242 69.084 60.5922 69.099 60.7602 69.129C60.9282 69.153 61.0452 69.171 61.1112 69.183C61.1292 69.057 61.1382 68.949 61.1382 68.859C61.1382 68.631 61.0812 68.463 60.9672 68.355C60.8532 68.247 60.6402 68.193 60.3282 68.193C60.0402 68.193 59.7582 68.229 59.4822 68.301C59.2122 68.367 58.9722 68.451 58.7622 68.553L58.4292 67.599ZM60.0762 71.064C60.3582 71.064 60.5832 70.998 60.7512 70.866C60.9192 70.734 61.0422 70.596 61.1202 70.452V69.912C61.0902 69.9 61.0422 69.888 60.9762 69.876C60.9162 69.864 60.8472 69.852 60.7692 69.84C60.6972 69.828 60.6222 69.819 60.5442 69.813C60.4722 69.807 60.4062 69.804 60.3462 69.804C60.0222 69.804 59.7822 69.864 59.6262 69.984C59.4702 70.098 59.3922 70.242 59.3922 70.416C59.3922 70.632 59.4522 70.794 59.5722 70.902C59.6982 71.01 59.8662 71.064 60.0762 71.064ZM64.9731 70.344C64.9731 70.8 65.1201 71.028 65.4141 71.028C65.4981 71.028 65.5761 71.022 65.6481 71.01C65.7261 70.992 65.8161 70.965 65.9181 70.929L66.0711 71.91C65.9511 71.964 65.7801 72.015 65.5581 72.063C65.3421 72.117 65.1171 72.144 64.8831 72.144C64.5051 72.144 64.2141 72.06 64.0101 71.892C63.8121 71.724 63.7131 71.448 63.7131 71.064V65.7H64.9731V70.344ZM68.0053 70.344C68.0053 70.8 68.1523 71.028 68.4463 71.028C68.5303 71.028 68.6083 71.022 68.6803 71.01C68.7583 70.992 68.8483 70.965 68.9503 70.929L69.1033 71.91C68.9833 71.964 68.8123 72.015 68.5903 72.063C68.3743 72.117 68.1493 72.144 67.9153 72.144C67.5373 72.144 67.2463 72.06 67.0423 71.892C66.8443 71.724 66.7453 71.448 66.7453 71.064V65.7H68.0053V70.344ZM69.7055 67.599C69.9755 67.479 70.3055 67.38 70.6955 67.302C71.0915 67.224 71.4995 67.185 71.9195 67.185C72.2495 67.185 72.5255 67.224 72.7475 67.302C72.9755 67.38 73.1555 67.494 73.2875 67.644C73.4195 67.788 73.5125 67.965 73.5665 68.175C73.6265 68.379 73.6565 68.607 73.6565 68.859C73.6565 69.165 73.6445 69.468 73.6205 69.768C73.5965 70.068 73.5845 70.386 73.5845 70.722C73.5845 70.95 73.5995 71.172 73.6295 71.388C73.6595 71.604 73.7075 71.811 73.7735 72.009H72.7475L72.5405 71.307H72.4325C72.2765 71.517 72.0785 71.697 71.8385 71.847C71.5985 71.997 71.2895 72.072 70.9115 72.072C70.6835 72.072 70.4735 72.039 70.2815 71.973C70.0955 71.907 69.9335 71.814 69.7955 71.694C69.6635 71.568 69.5585 71.421 69.4805 71.253C69.4085 71.085 69.3725 70.902 69.3725 70.704C69.3725 70.17 69.5495 69.768 69.9035 69.498C70.2635 69.222 70.8065 69.084 71.5325 69.084C71.7005 69.084 71.8685 69.099 72.0365 69.129C72.2045 69.153 72.3215 69.171 72.3875 69.183C72.4055 69.057 72.4145 68.949 72.4145 68.859C72.4145 68.631 72.3575 68.463 72.2435 68.355C72.1295 68.247 71.9165 68.193 71.6045 68.193C71.3165 68.193 71.0345 68.229 70.7585 68.301C70.4885 68.367 70.2485 68.451 70.0385 68.553L69.7055 67.599ZM71.3525 71.064C71.6345 71.064 71.8595 70.998 72.0275 70.866C72.1955 70.734 72.3185 70.596 72.3965 70.452V69.912C72.3665 69.9 72.3185 69.888 72.2525 69.876C72.1925 69.864 72.1235 69.852 72.0455 69.84C71.9735 69.828 71.8985 69.819 71.8205 69.813C71.7485 69.807 71.6825 69.804 71.6225 69.804C71.2985 69.804 71.0585 69.864 70.9025 69.984C70.7465 70.098 70.6685 70.242 70.6685 70.416C70.6685 70.632 70.7285 70.794 70.8485 70.902C70.9745 71.01 71.1425 71.064 71.3525 71.064Z"/><g clip-path="url(#clip1)"><path fill="#fff" d="M44.3791 43.5109C42.4568 43.5109 40.8454 44.9987 40.8454 46.7737C40.8454 48.5487 42.4568 50.0365 44.3791 50.0365C46.2307 50.0365 47.9127 48.5487 47.8279 46.852C47.9127 44.9857 46.3155 43.5109 44.3791 43.5109Z"/><path fill="#fff" d="M77.0866 55.0744C79.3058 51.5374 79.3199 47.3219 77.1149 43.798L54.98 8.40273C52.7891 4.83971 48.8314 2.72539 44.3931 2.72539C39.9548 2.72539 35.9971 4.85276 33.8062 8.38967L11.643 43.8241C9.43803 47.3871 9.45217 51.6288 11.6854 55.1657C13.8905 58.6635 17.834 60.7647 22.2441 60.7647H66.4573C70.8815 60.7647 74.8534 58.6374 77.0866 55.0744ZM72.2808 52.5163C71.0511 54.474 68.8744 55.6356 66.4432 55.6356H22.2299C19.827 55.6356 17.6644 54.5001 16.463 52.5815C15.2474 50.6369 15.2333 48.3138 16.4488 46.3561L38.612 10.9347C39.8135 8.99004 41.9619 7.84152 44.3931 7.84152C46.8101 7.84152 48.9727 9.00309 50.1742 10.9477L72.3232 46.3691C73.5106 48.2746 73.4964 50.5716 72.2808 52.5163Z"/><path fill="#fff" d="M43.5027 20.6057C41.8207 21.0495 40.7747 22.459 40.7747 24.1688C40.8595 25.1998 40.9302 26.2439 41.015 27.275C41.2553 31.2034 41.4956 35.0536 41.7359 38.982C41.8207 40.3133 42.9373 41.2791 44.3791 41.2791C45.8208 41.2791 46.9516 40.248 47.0223 38.9037C47.0223 38.0946 47.0223 37.3506 47.1071 36.5284C47.2626 34.0095 47.4322 31.4906 47.5877 28.9717C47.6725 27.3402 47.8279 25.7088 47.9128 24.0774C47.9128 23.4901 47.8279 22.968 47.5877 22.446C46.8668 20.9842 45.1848 20.2403 43.5027 20.6057Z"/></g></g><defs><filter id="filter0_d" width="88" height="88" x="0" y="0" color-interpolation-filters="sRGB" filterUnits="userSpaceOnUse"><feFlood flood-opacity="0" result="BackgroundImageFix"/><feColorMatrix in="SourceAlpha" type="matrix" values="0 0 0 0 0 0 0 0 0 0 0 0 0 0 0 0 0 0 127 0"/><feOffset dy="4"/><feGaussianBlur stdDeviation="2"/><feColorMatrix type="matrix" values="0 0 0 0 0 0 0 0 0 0 0 0 0 0 0 0 0 0 0.25 0"/><feBlend in2="BackgroundImageFix" mode="normal" result="effect1_dropShadow"/><feBlend in="SourceGraphic" in2="effect1_dropShadow" mode="normal" result="shape"/></filter><filter id="filter1_d" width="88" height="88" x="0" y="0" color-interpolation-filters="sRGB" filterUnits="userSpaceOnUse"><feFlood flood-opacity="0" result="BackgroundImageFix"/><feColorMatrix in="SourceAlpha" type="matrix" values="0 0 0 0 0 0 0 0 0 0 0 0 0 0 0 0 0 0 127 0"/><feOffset dy="4"/><feGaussianBlur stdDeviation="2"/><feColorMatrix type="matrix" values="0 0 0 0 0 0 0 0 0 0 0 0 0 0 0 0 0 0 0.25 0"/><feBlend in2="BackgroundImageFix" mode="normal" result="effect1_dropShadow"/><feBlend in="SourceGraphic" in2="effect1_dropShadow" mode="normal" result="shape"/></filter><clipPath id="clip0"><rect width="80" height="80" fill="#fff" transform="translate(4)"/></clipPath><clipPath id="clip1"><rect width="68.76" height="63.49" fill="#fff" transform="translate(10)"/></clipPath></defs></svg>