<svg width="98" height="98" viewBox="0 0 98 98" fill="none" xmlns="http://www.w3.org/2000/svg">
<g clip-path="url(#clip0)" filter="url(#filter0_d)">
<g filter="url(#filter1_d)">
<rect x="4" width="90" height="90" rx="20" fill="#989572"/>
</g>
<path d="M12.65 80.07C12.81 80.0433 12.9833 80.02 13.17 80C13.3633 79.9733 13.5567 79.9533 13.75 79.94C13.9433 79.9267 14.13 79.9167 14.31 79.91C14.4967 79.9033 14.6667 79.9 14.82 79.9C15.1733 79.9 15.52 79.93 15.86 79.99C16.2067 80.05 16.5133 80.1533 16.78 80.3C17.0533 80.4467 17.2733 80.65 17.44 80.91C17.6067 81.1633 17.69 81.4833 17.69 81.87C17.69 82.4433 17.5467 82.9167 17.26 83.29C16.98 83.6567 16.59 83.9067 16.09 84.04L16.62 84.35L18.37 87H16.65L14.91 84.29L14.13 84.17V87H12.65V80.07ZM14.92 81.2C14.7667 81.2 14.6167 81.2033 14.47 81.21C14.33 81.21 14.2167 81.22 14.13 81.24V83.17H14.76C15.18 83.17 15.51 83.09 15.75 82.93C15.9967 82.77 16.12 82.4933 16.12 82.1C16.12 81.8067 16.0167 81.5833 15.81 81.43C15.6033 81.2767 15.3067 81.2 14.92 81.2ZM23.2159 86.52C22.9892 86.6933 22.6792 86.8433 22.2859 86.97C21.8992 87.09 21.4825 87.15 21.0359 87.15C20.1359 87.15 19.4759 86.9033 19.0559 86.41C18.6359 85.9167 18.4259 85.24 18.4259 84.38C18.4259 83.4667 18.6625 82.7767 19.1359 82.31C19.6092 81.8367 20.2759 81.6 21.1359 81.6C21.4159 81.6 21.6925 81.6367 21.9659 81.71C22.2392 81.7767 22.4825 81.8933 22.6959 82.06C22.9092 82.22 23.0792 82.44 23.2059 82.72C23.3392 82.9933 23.4059 83.3333 23.4059 83.74C23.4059 83.88 23.3959 84.0333 23.3759 84.2C23.3625 84.3667 23.3359 84.54 23.2959 84.72H19.7959C19.8292 85.1733 19.9592 85.51 20.1859 85.73C20.4192 85.9433 20.7959 86.05 21.3159 86.05C21.6292 86.05 21.9092 86.0067 22.1559 85.92C22.4092 85.8267 22.6025 85.7333 22.7359 85.64L23.2159 86.52ZM21.1159 82.7C20.7025 82.7 20.3959 82.8133 20.1959 83.04C19.9959 83.26 19.8792 83.5433 19.8459 83.89H22.1059C22.1325 83.5233 22.0659 83.2333 21.9059 83.02C21.7459 82.8067 21.4825 82.7 21.1159 82.7ZM24.6634 81.75H25.6634L25.8334 82.4H25.9534C26.16 82.1333 26.4 81.9333 26.6734 81.8C26.9467 81.6667 27.2667 81.6 27.6334 81.6C28.34 81.6 28.87 81.8133 29.2234 82.24C29.5767 82.66 29.7534 83.33 29.7534 84.25C29.7534 84.69 29.6967 85.09 29.5834 85.45C29.47 85.8033 29.3034 86.11 29.0834 86.37C28.8634 86.6233 28.59 86.82 28.2634 86.96C27.9434 87.0933 27.5734 87.16 27.1534 87.16C26.9267 87.16 26.73 87.1367 26.5634 87.09C26.3967 87.05 26.23 86.9933 26.0634 86.92V88.99H24.6634V81.75ZM27.2034 82.77C26.8834 82.77 26.6367 82.8433 26.4634 82.99C26.29 83.13 26.1567 83.35 26.0634 83.65V85.69C26.1767 85.7833 26.3034 85.8567 26.4434 85.91C26.5834 85.9633 26.76 85.99 26.9734 85.99C27.4267 85.99 27.7634 85.85 27.9834 85.57C28.2034 85.2833 28.3134 84.83 28.3134 84.21C28.3134 83.7633 28.2267 83.4133 28.0534 83.16C27.8867 82.9 27.6034 82.77 27.2034 82.77ZM30.5938 84.38C30.5938 83.5133 30.8238 82.8333 31.2838 82.34C31.7438 81.8467 32.4005 81.6 33.2538 81.6C33.7005 81.6 34.0905 81.67 34.4238 81.81C34.7572 81.95 35.0338 82.1467 35.2538 82.4C35.4738 82.6467 35.6372 82.94 35.7438 83.28C35.8572 83.6133 35.9138 83.98 35.9138 84.38C35.9138 84.8067 35.8538 85.1933 35.7338 85.54C35.6138 85.88 35.4405 86.17 35.2138 86.41C34.9872 86.65 34.7072 86.8333 34.3738 86.96C34.0472 87.0867 33.6738 87.15 33.2538 87.15C32.8005 87.15 32.4072 87.08 32.0738 86.94C31.7405 86.8 31.4638 86.6067 31.2438 86.36C31.0238 86.1067 30.8605 85.8133 30.7538 85.48C30.6472 85.14 30.5938 84.7733 30.5938 84.38ZM32.0338 84.38C32.0338 84.6 32.0572 84.8067 32.1038 85C32.1505 85.1933 32.2205 85.3633 32.3138 85.51C32.4138 85.65 32.5405 85.7633 32.6938 85.85C32.8472 85.9367 33.0338 85.98 33.2538 85.98C34.0672 85.98 34.4738 85.4467 34.4738 84.38C34.4738 84.1467 34.4505 83.9333 34.4038 83.74C34.3638 83.54 34.2938 83.37 34.1938 83.23C34.1005 83.0833 33.9738 82.97 33.8138 82.89C33.6605 82.81 33.4738 82.77 33.2538 82.77C32.8738 82.77 32.5738 82.8967 32.3538 83.15C32.1405 83.4033 32.0338 83.8133 32.0338 84.38ZM40.1559 83.03C39.9559 82.9633 39.7559 82.93 39.5559 82.93C39.2626 82.93 39.0193 83 38.8259 83.14C38.6393 83.28 38.5159 83.4567 38.4559 83.67V87H37.0559V81.75H38.1559L38.3059 82.48H38.4359C38.5693 82.2067 38.7459 81.9967 38.9659 81.85C39.1926 81.7033 39.4493 81.63 39.7359 81.63C39.9159 81.63 40.1226 81.6667 40.3559 81.74L40.1559 83.03ZM40.83 81.75H41.63V81.03L43.03 80.66V81.75H44.44V82.92H43.03V84.74C43.03 85.16 43.07 85.4633 43.15 85.65C43.2367 85.83 43.4033 85.92 43.65 85.92C43.8033 85.92 43.9333 85.91 44.04 85.89C44.1467 85.8633 44.26 85.8233 44.38 85.77L44.67 86.82C44.4567 86.9133 44.21 86.9933 43.93 87.06C43.6567 87.1267 43.39 87.16 43.13 87.16C42.61 87.16 42.23 87.0333 41.99 86.78C41.75 86.52 41.63 86.1067 41.63 85.54V82.92H40.83V81.75ZM45.463 82.11C45.763 81.9767 46.1296 81.8667 46.563 81.78C47.003 81.6933 47.4563 81.65 47.923 81.65C48.2896 81.65 48.5963 81.6933 48.843 81.78C49.0963 81.8667 49.2963 81.9933 49.443 82.16C49.5896 82.32 49.693 82.5167 49.753 82.75C49.8196 82.9767 49.853 83.23 49.853 83.51C49.853 83.85 49.8396 84.1867 49.813 84.52C49.7863 84.8533 49.773 85.2067 49.773 85.58C49.773 85.8333 49.7896 86.08 49.823 86.32C49.8563 86.56 49.9096 86.79 49.983 87.01H48.843L48.613 86.23H48.493C48.3196 86.4633 48.0996 86.6633 47.833 86.83C47.5663 86.9967 47.223 87.08 46.803 87.08C46.5496 87.08 46.3163 87.0433 46.103 86.97C45.8963 86.8967 45.7163 86.7933 45.563 86.66C45.4163 86.52 45.2996 86.3567 45.213 86.17C45.133 85.9833 45.093 85.78 45.093 85.56C45.093 84.9667 45.2896 84.52 45.683 84.22C46.083 83.9133 46.6863 83.76 47.493 83.76C47.6796 83.76 47.8663 83.7767 48.053 83.81C48.2396 83.8367 48.3696 83.8567 48.443 83.87C48.463 83.73 48.473 83.61 48.473 83.51C48.473 83.2567 48.4096 83.07 48.283 82.95C48.1563 82.83 47.9196 82.77 47.573 82.77C47.253 82.77 46.9396 82.81 46.633 82.89C46.333 82.9633 46.0663 83.0567 45.833 83.17L45.463 82.11ZM47.293 85.96C47.6063 85.96 47.8563 85.8867 48.043 85.74C48.2296 85.5933 48.3663 85.44 48.453 85.28V84.68C48.4196 84.6667 48.3663 84.6533 48.293 84.64C48.2263 84.6267 48.1496 84.6133 48.063 84.6C47.983 84.5867 47.8996 84.5767 47.813 84.57C47.733 84.5633 47.6596 84.56 47.593 84.56C47.233 84.56 46.9663 84.6267 46.793 84.76C46.6196 84.8867 46.533 85.0467 46.533 85.24C46.533 85.48 46.5996 85.66 46.733 85.78C46.873 85.9 47.0596 85.96 47.293 85.96ZM54.404 83.03C54.204 82.9633 54.004 82.93 53.804 82.93C53.5107 82.93 53.2673 83 53.074 83.14C52.8873 83.28 52.764 83.4567 52.704 83.67V87H51.304V81.75H52.404L52.554 82.48H52.684C52.8173 82.2067 52.994 81.9967 53.214 81.85C53.4407 81.7033 53.6973 81.63 53.984 81.63C54.164 81.63 54.3707 81.6667 54.604 81.74L54.404 83.03ZM58.0602 80H62.5702V81.3H59.5402V82.93H62.3302V84.23H59.5402V87H58.0602V80ZM63.588 82.11C63.888 81.9767 64.2546 81.8667 64.688 81.78C65.128 81.6933 65.5813 81.65 66.048 81.65C66.4146 81.65 66.7213 81.6933 66.968 81.78C67.2213 81.8667 67.4213 81.9933 67.568 82.16C67.7146 82.32 67.818 82.5167 67.878 82.75C67.9446 82.9767 67.978 83.23 67.978 83.51C67.978 83.85 67.9646 84.1867 67.938 84.52C67.9113 84.8533 67.898 85.2067 67.898 85.58C67.898 85.8333 67.9146 86.08 67.948 86.32C67.9813 86.56 68.0346 86.79 68.108 87.01H66.968L66.738 86.23H66.618C66.4446 86.4633 66.2246 86.6633 65.958 86.83C65.6913 86.9967 65.348 87.08 64.928 87.08C64.6746 87.08 64.4413 87.0433 64.228 86.97C64.0213 86.8967 63.8413 86.7933 63.688 86.66C63.5413 86.52 63.4246 86.3567 63.338 86.17C63.258 85.9833 63.218 85.78 63.218 85.56C63.218 84.9667 63.4146 84.52 63.808 84.22C64.208 83.9133 64.8113 83.76 65.618 83.76C65.8046 83.76 65.9913 83.7767 66.178 83.81C66.3646 83.8367 66.4946 83.8567 66.568 83.87C66.588 83.73 66.598 83.61 66.598 83.51C66.598 83.2567 66.5346 83.07 66.408 82.95C66.2813 82.83 66.0446 82.77 65.698 82.77C65.378 82.77 65.0646 82.81 64.758 82.89C64.458 82.9633 64.1913 83.0567 63.958 83.17L63.588 82.11ZM65.418 85.96C65.7313 85.96 65.9813 85.8867 66.168 85.74C66.3546 85.5933 66.4913 85.44 66.578 85.28V84.68C66.5446 84.6667 66.4913 84.6533 66.418 84.64C66.3513 84.6267 66.2746 84.6133 66.188 84.6C66.108 84.5867 66.0246 84.5767 65.938 84.57C65.858 84.5633 65.7846 84.56 65.718 84.56C65.358 84.56 65.0913 84.6267 64.918 84.76C64.7446 84.8867 64.658 85.0467 64.658 85.24C64.658 85.48 64.7246 85.66 64.858 85.78C64.998 85.9 65.1846 85.96 65.418 85.96ZM70.859 85.16C70.859 85.6667 71.0223 85.92 71.349 85.92C71.4423 85.92 71.529 85.9133 71.609 85.9C71.6957 85.88 71.7957 85.85 71.909 85.81L72.079 86.9C71.9457 86.96 71.7557 87.0167 71.509 87.07C71.269 87.13 71.019 87.16 70.759 87.16C70.339 87.16 70.0157 87.0667 69.789 86.88C69.569 86.6933 69.459 86.3867 69.459 85.96V80H70.859V85.16ZM74.2281 85.16C74.2281 85.6667 74.3915 85.92 74.7181 85.92C74.8115 85.92 74.8981 85.9133 74.9781 85.9C75.0648 85.88 75.1648 85.85 75.2781 85.81L75.4481 86.9C75.3148 86.96 75.1248 87.0167 74.8781 87.07C74.6381 87.13 74.3881 87.16 74.1281 87.16C73.7081 87.16 73.3848 87.0667 73.1581 86.88C72.9381 86.6933 72.8281 86.3867 72.8281 85.96V80H74.2281V85.16ZM76.1173 82.11C76.4173 81.9767 76.7839 81.8667 77.2173 81.78C77.6573 81.6933 78.1106 81.65 78.5773 81.65C78.9439 81.65 79.2506 81.6933 79.4973 81.78C79.7506 81.8667 79.9506 81.9933 80.0973 82.16C80.2439 82.32 80.3473 82.5167 80.4073 82.75C80.4739 82.9767 80.5073 83.23 80.5073 83.51C80.5073 83.85 80.4939 84.1867 80.4673 84.52C80.4406 84.8533 80.4273 85.2067 80.4273 85.58C80.4273 85.8333 80.4439 86.08 80.4773 86.32C80.5106 86.56 80.5639 86.79 80.6373 87.01H79.4973L79.2673 86.23H79.1473C78.9739 86.4633 78.7539 86.6633 78.4873 86.83C78.2206 86.9967 77.8773 87.08 77.4573 87.08C77.2039 87.08 76.9706 87.0433 76.7573 86.97C76.5506 86.8967 76.3706 86.7933 76.2173 86.66C76.0706 86.52 75.9539 86.3567 75.8673 86.17C75.7873 85.9833 75.7473 85.78 75.7473 85.56C75.7473 84.9667 75.9439 84.52 76.3373 84.22C76.7373 83.9133 77.3406 83.76 78.1473 83.76C78.3339 83.76 78.5206 83.7767 78.7073 83.81C78.8939 83.8367 79.0239 83.8567 79.0973 83.87C79.1173 83.73 79.1273 83.61 79.1273 83.51C79.1273 83.2567 79.0639 83.07 78.9373 82.95C78.8106 82.83 78.5739 82.77 78.2273 82.77C77.9073 82.77 77.5939 82.81 77.2873 82.89C76.9873 82.9633 76.7206 83.0567 76.4873 83.17L76.1173 82.11ZM77.9473 85.96C78.2606 85.96 78.5106 85.8867 78.6973 85.74C78.8839 85.5933 79.0206 85.44 79.1073 85.28V84.68C79.0739 84.6667 79.0206 84.6533 78.9473 84.64C78.8806 84.6267 78.8039 84.6133 78.7173 84.6C78.6373 84.5867 78.5539 84.5767 78.4673 84.57C78.3873 84.5633 78.3139 84.56 78.2473 84.56C77.8873 84.56 77.6206 84.6267 77.4473 84.76C77.2739 84.8867 77.1873 85.0467 77.1873 85.24C77.1873 85.48 77.2539 85.66 77.3873 85.78C77.5273 85.9 77.7139 85.96 77.9473 85.96Z" fill="white"/>
<g clip-path="url(#clip1)">
<path d="M48.679 57.9523C46.5162 57.9523 44.7033 59.6262 44.7033 61.6232C44.7033 63.6201 46.5162 65.2941 48.679 65.2941C50.7622 65.2941 52.6546 63.6201 52.5592 61.7113C52.6546 59.6115 50.8576 57.9523 48.679 57.9523Z" fill="white"/>
<path d="M85.4774 70.9619C87.9741 66.9827 87.99 62.2399 85.5092 58.2753L60.6058 18.4536C58.1409 14.445 53.6882 12.0662 48.6948 12.0662C43.7014 12.0662 39.2487 14.4596 36.7838 18.4389L11.8486 58.3047C9.36777 62.3133 9.38367 67.0855 11.8963 71.0647C14.3771 74.9999 18.8139 77.3639 23.7755 77.3639H73.5186C78.4961 77.3639 82.9648 74.9705 85.4774 70.9619ZM80.0705 68.0839C78.687 70.2865 76.238 71.5933 73.5027 71.5933H23.7596C21.0561 71.5933 18.623 70.3158 17.2713 68.1573C15.9037 65.9695 15.8878 63.3558 17.2554 61.1533L42.1906 21.3022C43.5423 19.1143 45.9595 17.8222 48.6948 17.8222C51.4141 17.8222 53.8472 19.129 55.1989 21.3169L80.1182 61.168C81.454 63.3118 81.4381 65.8961 80.0705 68.0839Z" fill="white"/>
<path d="M47.693 32.1827C45.8006 32.6819 44.6238 34.2677 44.6238 36.1913C44.7192 37.3513 44.7987 38.526 44.8942 39.686C45.1645 44.1057 45.4348 48.4373 45.7052 52.8571C45.8006 54.3548 47.0569 55.4414 48.679 55.4414C50.301 55.4414 51.5732 54.2814 51.6527 52.769C51.6527 51.8586 51.6527 51.0216 51.7482 50.0966C51.9231 47.2627 52.1139 44.4287 52.2888 41.5948C52.3843 39.7594 52.5592 37.9239 52.6546 36.0885C52.6546 35.4277 52.5592 34.8404 52.2888 34.253C51.4778 32.6085 49.5854 31.7715 47.693 32.1827Z" fill="white"/>
</g>
</g>
<defs>
<filter id="filter0_d" x="0" y="0" width="98" height="98" filterUnits="userSpaceOnUse" color-interpolation-filters="sRGB">
<feFlood flood-opacity="0" result="BackgroundImageFix"/>
<feColorMatrix in="SourceAlpha" type="matrix" values="0 0 0 0 0 0 0 0 0 0 0 0 0 0 0 0 0 0 127 0"/>
<feOffset dy="4"/>
<feGaussianBlur stdDeviation="2"/>
<feColorMatrix type="matrix" values="0 0 0 0 0 0 0 0 0 0 0 0 0 0 0 0 0 0 0.25 0"/>
<feBlend mode="normal" in2="BackgroundImageFix" result="effect1_dropShadow"/>
<feBlend mode="normal" in="SourceGraphic" in2="effect1_dropShadow" result="shape"/>
</filter>
<filter id="filter1_d" x="0" y="0" width="98" height="98" filterUnits="userSpaceOnUse" color-interpolation-filters="sRGB">
<feFlood flood-opacity="0" result="BackgroundImageFix"/>
<feColorMatrix in="SourceAlpha" type="matrix" values="0 0 0 0 0 0 0 0 0 0 0 0 0 0 0 0 0 0 127 0"/>
<feOffset dy="4"/>
<feGaussianBlur stdDeviation="2"/>
<feColorMatrix type="matrix" values="0 0 0 0 0 0 0 0 0 0 0 0 0 0 0 0 0 0 0.25 0"/>
<feBlend mode="normal" in2="BackgroundImageFix" result="effect1_dropShadow"/>
<feBlend mode="normal" in="SourceGraphic" in2="effect1_dropShadow" result="shape"/>
</filter>
<clipPath id="clip0">
<rect width="90" height="90" fill="white" transform="translate(4)"/>
</clipPath>
<clipPath id="clip1">
<rect width="77.36" height="71.43" fill="white" transform="translate(10 9)"/>
</clipPath>
</defs>
</svg>
