<svg width="98" height="98" viewBox="0 0 98 98" fill="none" xmlns="http://www.w3.org/2000/svg">
<g filter="url(#filter0_d)">
<path d="M74 0H24C12.9543 0 4 8.9543 4 20V70C4 81.0457 12.9543 90 24 90H74C85.0457 90 94 81.0457 94 70V20C94 8.95431 85.0457 0 74 0Z" fill="#31493C"/>
</g>
<path d="M8.6175 72.4165C8.7695 72.3912 8.93417 72.369 9.1115 72.35C9.29517 72.3247 9.47883 72.3057 9.6625 72.293C9.84617 72.2803 10.0235 72.2708 10.1945 72.2645C10.3718 72.2582 10.5333 72.255 10.679 72.255C11.0147 72.255 11.344 72.2835 11.667 72.3405C11.9963 72.3975 12.2877 72.4957 12.541 72.635C12.8007 72.7743 13.0097 72.9675 13.168 73.2145C13.3263 73.4552 13.4055 73.7592 13.4055 74.1265C13.4055 74.6712 13.2693 75.1208 12.997 75.4755C12.731 75.8238 12.3605 76.0613 11.8855 76.188L12.389 76.4825L14.0515 79H12.4175L10.7645 76.4255L10.0235 76.3115V79H8.6175V72.4165ZM10.774 73.49C10.6283 73.49 10.4858 73.4932 10.3465 73.4995C10.2135 73.4995 10.1058 73.509 10.0235 73.528V75.3615H10.622C11.021 75.3615 11.3345 75.2855 11.5625 75.1335C11.7968 74.9815 11.914 74.7187 11.914 74.345C11.914 74.0663 11.8158 73.8542 11.6195 73.7085C11.4232 73.5628 11.1413 73.49 10.774 73.49ZM18.6551 78.544C18.4397 78.7087 18.1452 78.8512 17.7716 78.9715C17.4042 79.0855 17.0084 79.1425 16.5841 79.1425C15.7291 79.1425 15.1021 78.9082 14.7031 78.4395C14.3041 77.9708 14.1046 77.328 14.1046 76.511C14.1046 75.6433 14.3294 74.9878 14.7791 74.5445C15.2287 74.0948 15.8621 73.87 16.6791 73.87C16.9451 73.87 17.2079 73.9048 17.4676 73.9745C17.7272 74.0378 17.9584 74.1487 18.1611 74.307C18.3637 74.459 18.5252 74.668 18.6456 74.934C18.7722 75.1937 18.8356 75.5167 18.8356 75.903C18.8356 76.036 18.8261 76.1817 18.8071 76.34C18.7944 76.4983 18.7691 76.663 18.7311 76.834H15.4061C15.4377 77.2647 15.5612 77.5845 15.7766 77.7935C15.9982 77.9962 16.3561 78.0975 16.8501 78.0975C17.1477 78.0975 17.4137 78.0563 17.6481 77.974C17.8887 77.8853 18.0724 77.7967 18.1991 77.708L18.6551 78.544ZM16.6601 74.915C16.2674 74.915 15.9761 75.0227 15.7861 75.238C15.5961 75.447 15.4852 75.7162 15.4536 76.0455H17.6006C17.6259 75.6972 17.5626 75.4217 17.4106 75.219C17.2586 75.0163 17.0084 74.915 16.6601 74.915ZM20.0302 74.0125H20.9802L21.1417 74.63H21.2557C21.452 74.3767 21.68 74.1867 21.9397 74.06C22.1994 73.9333 22.5034 73.87 22.8517 73.87C23.523 73.87 24.0265 74.0727 24.3622 74.478C24.6979 74.877 24.8657 75.5135 24.8657 76.3875C24.8657 76.8055 24.8119 77.1855 24.7042 77.5275C24.5965 77.8632 24.4382 78.1545 24.2292 78.4015C24.0202 78.6422 23.7605 78.829 23.4502 78.962C23.1462 79.0887 22.7947 79.152 22.3957 79.152C22.1804 79.152 21.9935 79.1298 21.8352 79.0855C21.6769 79.0475 21.5185 78.9937 21.3602 78.924V80.8905H20.0302V74.0125ZM22.4432 74.9815C22.1392 74.9815 21.9049 75.0512 21.7402 75.1905C21.5755 75.3235 21.4489 75.5325 21.3602 75.8175V77.7555C21.4679 77.8442 21.5882 77.9138 21.7212 77.9645C21.8542 78.0152 22.022 78.0405 22.2247 78.0405C22.6554 78.0405 22.9752 77.9075 23.1842 77.6415C23.3932 77.3692 23.4977 76.9385 23.4977 76.3495C23.4977 75.9252 23.4154 75.5927 23.2507 75.352C23.0924 75.105 22.8232 74.9815 22.4432 74.9815ZM25.6641 76.511C25.6641 75.6877 25.8826 75.0417 26.3196 74.573C26.7566 74.1043 27.3805 73.87 28.1911 73.87C28.6155 73.87 28.986 73.9365 29.3026 74.0695C29.6193 74.2025 29.8821 74.3893 30.0911 74.63C30.3001 74.8643 30.4553 75.143 30.5566 75.466C30.6643 75.7827 30.7181 76.131 30.7181 76.511C30.7181 76.9163 30.6611 77.2837 30.5471 77.613C30.4331 77.936 30.2685 78.2115 30.0531 78.4395C29.8378 78.6675 29.5718 78.8417 29.2551 78.962C28.9448 79.0823 28.5901 79.1425 28.1911 79.1425C27.7605 79.1425 27.3868 79.076 27.0701 78.943C26.7535 78.81 26.4906 78.6263 26.2816 78.392C26.0726 78.1513 25.9175 77.8727 25.8161 77.556C25.7148 77.233 25.6641 76.8847 25.6641 76.511ZM27.0321 76.511C27.0321 76.72 27.0543 76.9163 27.0986 77.1C27.143 77.2837 27.2095 77.4452 27.2981 77.5845C27.3931 77.7175 27.5135 77.8252 27.6591 77.9075C27.8048 77.9898 27.9821 78.031 28.1911 78.031C28.9638 78.031 29.3501 77.5243 29.3501 76.511C29.3501 76.2893 29.328 76.0867 29.2836 75.903C29.2456 75.713 29.1791 75.5515 29.0841 75.4185C28.9955 75.2792 28.8751 75.1715 28.7231 75.0955C28.5775 75.0195 28.4001 74.9815 28.1911 74.9815C27.8301 74.9815 27.5451 75.1018 27.3361 75.3425C27.1335 75.5832 27.0321 75.9727 27.0321 76.511ZM34.7481 75.2285C34.5581 75.1652 34.3681 75.1335 34.1781 75.1335C33.8995 75.1335 33.6683 75.2 33.4846 75.333C33.3073 75.466 33.1901 75.6338 33.1331 75.8365V79H31.8031V74.0125H32.8481L32.9906 74.706H33.1141C33.2408 74.4463 33.4086 74.2468 33.6176 74.1075C33.833 73.9682 34.0768 73.8985 34.3491 73.8985C34.5201 73.8985 34.7165 73.9333 34.9381 74.003L34.7481 75.2285ZM35.3885 74.0125H36.1485V73.3285L37.4785 72.977V74.0125H38.818V75.124H37.4785V76.853C37.4785 77.252 37.5165 77.5402 37.5925 77.7175C37.6748 77.8885 37.8332 77.974 38.0675 77.974C38.2132 77.974 38.3367 77.9645 38.438 77.9455C38.5393 77.9202 38.647 77.8822 38.761 77.8315L39.0365 78.829C38.8338 78.9177 38.5995 78.9937 38.3335 79.057C38.0738 79.1203 37.8205 79.152 37.5735 79.152C37.0795 79.152 36.7185 79.0317 36.4905 78.791C36.2625 78.544 36.1485 78.1513 36.1485 77.613V75.124H35.3885V74.0125ZM44.0472 78.544C43.8318 78.7087 43.5373 78.8512 43.1637 78.9715C42.7963 79.0855 42.4005 79.1425 41.9762 79.1425C41.1212 79.1425 40.4942 78.9082 40.0952 78.4395C39.6962 77.9708 39.4967 77.328 39.4967 76.511C39.4967 75.6433 39.7215 74.9878 40.1712 74.5445C40.6208 74.0948 41.2542 73.87 42.0712 73.87C42.3372 73.87 42.6 73.9048 42.8597 73.9745C43.1193 74.0378 43.3505 74.1487 43.5532 74.307C43.7558 74.459 43.9173 74.668 44.0377 74.934C44.1643 75.1937 44.2277 75.5167 44.2277 75.903C44.2277 76.036 44.2182 76.1817 44.1992 76.34C44.1865 76.4983 44.1612 76.663 44.1232 76.834H40.7982C40.8298 77.2647 40.9533 77.5845 41.1687 77.7935C41.3903 77.9962 41.7482 78.0975 42.2422 78.0975C42.5398 78.0975 42.8058 78.0563 43.0402 77.974C43.2808 77.8853 43.4645 77.7967 43.5912 77.708L44.0472 78.544ZM42.0522 74.915C41.6595 74.915 41.3682 75.0227 41.1782 75.238C40.9882 75.447 40.8773 75.7162 40.8457 76.0455H42.9927C43.018 75.6972 42.9547 75.4217 42.8027 75.219C42.6507 75.0163 42.4005 74.915 42.0522 74.915ZM52.5888 77.252C52.5888 77.518 52.5919 77.7935 52.5983 78.0785C52.6046 78.3635 52.6331 78.6738 52.6838 79.0095H51.7623L51.5723 78.316H51.4488C51.3031 78.5693 51.0941 78.772 50.8218 78.924C50.5558 79.0697 50.2359 79.1425 49.8623 79.1425C49.1973 79.1425 48.6811 78.9367 48.3138 78.525C47.9464 78.107 47.7628 77.4642 47.7628 76.5965C47.7628 76.1785 47.8134 75.8017 47.9148 75.466C48.0224 75.1303 48.1776 74.8453 48.3803 74.611C48.5893 74.3767 48.8458 74.1962 49.1498 74.0695C49.4538 73.9428 49.8053 73.8795 50.2043 73.8795C50.4259 73.8795 50.6159 73.8985 50.7743 73.9365C50.9389 73.9682 51.1004 74.0093 51.2588 74.06V72.35H52.5888V77.252ZM50.2043 78.031C50.5019 78.031 50.7331 77.9645 50.8978 77.8315C51.0624 77.6922 51.1828 77.4958 51.2588 77.2425V75.2475C51.1448 75.1588 51.0213 75.0955 50.8883 75.0575C50.7616 75.0132 50.5938 74.991 50.3848 74.991C49.9604 74.991 49.6438 75.1145 49.4348 75.3615C49.2321 75.6085 49.1308 76.0328 49.1308 76.6345C49.1308 77.0525 49.2163 77.3913 49.3873 77.651C49.5646 77.9043 49.8369 78.031 50.2043 78.031ZM58.2786 78.544C58.0633 78.7087 57.7688 78.8512 57.3951 78.9715C57.0278 79.0855 56.6319 79.1425 56.2076 79.1425C55.3526 79.1425 54.7256 78.9082 54.3266 78.4395C53.9276 77.9708 53.7281 77.328 53.7281 76.511C53.7281 75.6433 53.9529 74.9878 54.4026 74.5445C54.8523 74.0948 55.4856 73.87 56.3026 73.87C56.5686 73.87 56.8314 73.9048 57.0911 73.9745C57.3508 74.0378 57.5819 74.1487 57.7846 74.307C57.9873 74.459 58.1488 74.668 58.2691 74.934C58.3958 75.1937 58.4591 75.5167 58.4591 75.903C58.4591 76.036 58.4496 76.1817 58.4306 76.34C58.4179 76.4983 58.3926 76.663 58.3546 76.834H55.0296C55.0613 77.2647 55.1848 77.5845 55.4001 77.7935C55.6218 77.9962 55.9796 78.0975 56.4736 78.0975C56.7713 78.0975 57.0373 78.0563 57.2716 77.974C57.5123 77.8853 57.6959 77.7967 57.8226 77.708L58.2786 78.544ZM56.2836 74.915C55.8909 74.915 55.5996 75.0227 55.4096 75.238C55.2196 75.447 55.1088 75.7162 55.0771 76.0455H57.2241C57.2494 75.6972 57.1861 75.4217 57.0341 75.219C56.8821 75.0163 56.6319 74.915 56.2836 74.915ZM62.2127 72.35H66.4972V73.585H63.6187V75.1335H66.2692V76.3685H63.6187V79H62.2127V72.35ZM67.4641 74.3545C67.7491 74.2278 68.0975 74.1233 68.5091 74.041C68.9271 73.9587 69.3578 73.9175 69.8011 73.9175C70.1495 73.9175 70.4408 73.9587 70.6751 74.041C70.9158 74.1233 71.1058 74.2437 71.2451 74.402C71.3845 74.554 71.4826 74.7408 71.5396 74.9625C71.603 75.1778 71.6346 75.4185 71.6346 75.6845C71.6346 76.0075 71.622 76.3273 71.5966 76.644C71.5713 76.9607 71.5586 77.2963 71.5586 77.651C71.5586 77.8917 71.5745 78.126 71.6061 78.354C71.6378 78.582 71.6885 78.8005 71.7581 79.0095H70.6751L70.4566 78.2685H70.3426C70.178 78.4902 69.969 78.6802 69.7156 78.8385C69.4623 78.9968 69.1361 79.076 68.7371 79.076C68.4965 79.076 68.2748 79.0412 68.0721 78.9715C67.8758 78.9018 67.7048 78.8037 67.5591 78.677C67.4198 78.544 67.309 78.3888 67.2266 78.2115C67.1506 78.0342 67.1126 77.841 67.1126 77.632C67.1126 77.0683 67.2995 76.644 67.6731 76.359C68.0531 76.0677 68.6263 75.922 69.3926 75.922C69.57 75.922 69.7473 75.9378 69.9246 75.9695C70.102 75.9948 70.2255 76.0138 70.2951 76.0265C70.3141 75.8935 70.3236 75.7795 70.3236 75.6845C70.3236 75.4438 70.2635 75.2665 70.1431 75.1525C70.0228 75.0385 69.798 74.9815 69.4686 74.9815C69.1646 74.9815 68.867 75.0195 68.5756 75.0955C68.2906 75.1652 68.0373 75.2538 67.8156 75.3615L67.4641 74.3545ZM69.2026 78.012C69.5003 78.012 69.7378 77.9423 69.9151 77.803C70.0925 77.6637 70.2223 77.518 70.3046 77.366V76.796C70.273 76.7833 70.2223 76.7707 70.1526 76.758C70.0893 76.7453 70.0165 76.7327 69.9341 76.72C69.8581 76.7073 69.779 76.6978 69.6966 76.6915C69.6206 76.6852 69.551 76.682 69.4876 76.682C69.1456 76.682 68.8923 76.7453 68.7276 76.872C68.563 76.9923 68.4806 77.1443 68.4806 77.328C68.4806 77.556 68.544 77.727 68.6706 77.841C68.8036 77.955 68.981 78.012 69.2026 78.012ZM74.3716 77.252C74.3716 77.7333 74.5268 77.974 74.8371 77.974C74.9258 77.974 75.0081 77.9677 75.0841 77.955C75.1664 77.936 75.2614 77.9075 75.3691 77.8695L75.5306 78.905C75.4039 78.962 75.2234 79.0158 74.9891 79.0665C74.7611 79.1235 74.5236 79.152 74.2766 79.152C73.8776 79.152 73.5704 79.0633 73.3551 78.886C73.1461 78.7087 73.0416 78.4173 73.0416 78.012V72.35H74.3716V77.252ZM77.5723 77.252C77.5723 77.7333 77.7275 77.974 78.0378 77.974C78.1265 77.974 78.2088 77.9677 78.2848 77.955C78.3671 77.936 78.4621 77.9075 78.5698 77.8695L78.7313 78.905C78.6046 78.962 78.4241 79.0158 78.1898 79.0665C77.9618 79.1235 77.7243 79.152 77.4773 79.152C77.0783 79.152 76.7711 79.0633 76.5558 78.886C76.3468 78.7087 76.2423 78.4173 76.2423 78.012V72.35H77.5723V77.252ZM79.367 74.3545C79.652 74.2278 80.0003 74.1233 80.412 74.041C80.83 73.9587 81.2606 73.9175 81.704 73.9175C82.0523 73.9175 82.3436 73.9587 82.578 74.041C82.8186 74.1233 83.0086 74.2437 83.148 74.402C83.2873 74.554 83.3855 74.7408 83.4425 74.9625C83.5058 75.1778 83.5375 75.4185 83.5375 75.6845C83.5375 76.0075 83.5248 76.3273 83.4995 76.644C83.4741 76.9607 83.4615 77.2963 83.4615 77.651C83.4615 77.8917 83.4773 78.126 83.509 78.354C83.5406 78.582 83.5913 78.8005 83.661 79.0095H82.578L82.3595 78.2685H82.2455C82.0808 78.4902 81.8718 78.6802 81.6185 78.8385C81.3651 78.9968 81.039 79.076 80.64 79.076C80.3993 79.076 80.1776 79.0412 79.975 78.9715C79.7786 78.9018 79.6076 78.8037 79.462 78.677C79.3226 78.544 79.2118 78.3888 79.1295 78.2115C79.0535 78.0342 79.0155 77.841 79.0155 77.632C79.0155 77.0683 79.2023 76.644 79.576 76.359C79.956 76.0677 80.5291 75.922 81.2955 75.922C81.4728 75.922 81.6501 75.9378 81.8275 75.9695C82.0048 75.9948 82.1283 76.0138 82.198 76.0265C82.217 75.8935 82.2265 75.7795 82.2265 75.6845C82.2265 75.4438 82.1663 75.2665 82.046 75.1525C81.9256 75.0385 81.7008 74.9815 81.3715 74.9815C81.0675 74.9815 80.7698 75.0195 80.4785 75.0955C80.1935 75.1652 79.9401 75.2538 79.7185 75.3615L79.367 74.3545ZM81.1055 78.012C81.4031 78.012 81.6406 77.9423 81.818 77.803C81.9953 77.6637 82.1251 77.518 82.2075 77.366V76.796C82.1758 76.7833 82.1251 76.7707 82.0555 76.758C81.9921 76.7453 81.9193 76.7327 81.837 76.72C81.761 76.7073 81.6818 76.6978 81.5995 76.6915C81.5235 76.6852 81.4538 76.682 81.3905 76.682C81.0485 76.682 80.7951 76.7453 80.6305 76.872C80.4658 76.9923 80.3835 77.1443 80.3835 77.328C80.3835 77.556 80.4468 77.727 80.5735 77.841C80.7065 77.955 80.8838 78.012 81.1055 78.012ZM84.9064 77.708C84.9951 77.7523 85.0964 77.7967 85.2104 77.841C85.3308 77.8853 85.4574 77.9265 85.5904 77.9645C85.7298 78.0025 85.8691 78.0342 86.0084 78.0595C86.1541 78.0848 86.2998 78.0975 86.4454 78.0975C86.6671 78.0975 86.8381 78.0627 86.9584 77.993C87.0851 77.9233 87.1484 77.7935 87.1484 77.6035C87.1484 77.4515 87.0661 77.3407 86.9014 77.271C86.7368 77.195 86.5341 77.1222 86.2934 77.0525C86.1161 77.0018 85.9293 76.9417 85.7329 76.872C85.5429 76.8023 85.3656 76.7105 85.2009 76.5965C85.0426 76.4762 84.9096 76.321 84.8019 76.131C84.7006 75.941 84.6499 75.7003 84.6499 75.409C84.6499 74.9087 84.8051 74.5287 85.1154 74.269C85.4258 74.003 85.8723 73.87 86.4549 73.87C86.8349 73.87 87.1896 73.9048 87.5189 73.9745C87.8546 74.0378 88.1238 74.1138 88.3264 74.2025L88.0509 75.2095C87.8863 75.1462 87.6741 75.0828 87.4144 75.0195C87.1611 74.9498 86.9014 74.915 86.6354 74.915C86.4138 74.915 86.2491 74.9498 86.1414 75.0195C86.0338 75.0828 85.9799 75.1968 85.9799 75.3615C85.9799 75.5072 86.0623 75.618 86.2269 75.694C86.3979 75.7637 86.6038 75.8333 86.8444 75.903C87.0218 75.9537 87.2054 76.0138 87.3954 76.0835C87.5918 76.1468 87.7691 76.2355 87.9274 76.3495C88.0858 76.4635 88.2156 76.6123 88.3169 76.796C88.4246 76.9733 88.4784 77.1982 88.4784 77.4705C88.4784 78.0025 88.3043 78.4142 87.9559 78.7055C87.6139 78.9968 87.0978 79.1425 86.4074 79.1425C86.0338 79.1425 85.6854 79.1077 85.3624 79.038C85.0394 78.9747 84.7766 78.8797 84.5739 78.753L84.9064 77.708Z" fill="white"/>
<g clip-path="url(#clip0)">
<path d="M77.3847 53.2965C71.9252 47.6579 72.2832 48.0152 72.1295 47.898L57.6781 36.8784L63.2843 31.0889C67.7916 32.7477 72.8948 31.6009 76.3292 28.0539C80.071 24.1895 81.0532 18.2814 78.7733 13.3525C78.2419 12.2041 76.7683 11.944 75.8979 12.8431L71.2764 17.6162C70.5799 18.3355 69.4467 18.3356 68.7497 17.6162C68.0515 16.895 68.0515 15.728 68.7497 15.0068L73.3714 10.2336C74.2428 9.33377 73.9894 7.81217 72.8782 7.26412C68.1058 4.90949 62.3854 5.92389 58.6435 9.78818C55.2082 13.3361 54.0991 18.6068 55.7048 23.2607L49.2393 29.9376C47.9229 28.8801 49.66 30.6863 37.2616 17.1086L38.5613 15.7663C39.3834 14.9174 39.212 13.496 38.2172 12.8795L28.6486 6.94998C26.1403 5.39565 22.9441 5.80195 20.8757 7.93817C18.8074 10.0743 18.4139 13.3755 19.9189 15.9659L25.6602 25.8484C26.258 26.8778 27.6349 27.051 28.4553 26.2037L29.681 24.9378C42.0152 38.4453 40.3918 36.6106 41.3668 37.9054C41.3899 37.936 41.4157 37.9631 41.4402 37.9919L35.707 43.9125C31.2012 42.2542 26.0974 43.3997 22.6623 46.9476C18.9206 50.812 17.9384 56.72 20.2184 61.649C20.7499 62.7975 22.2232 63.0574 23.0937 62.1584L27.7153 57.3852C28.4122 56.6657 29.5453 56.666 30.2419 57.3852C30.9402 58.1064 30.9402 59.2733 30.2419 59.9945L25.6201 64.7677C24.7487 65.6676 25.0023 67.1892 26.1134 67.7374C27.8288 68.5837 29.6661 68.9948 31.4907 68.9948C34.742 68.9946 37.9512 67.6886 40.3481 65.2133C43.7834 61.6654 44.8924 56.3946 43.2868 51.7406L48.183 46.6843L59.5828 60.9922C59.6696 61.1007 59.3834 60.7982 64.482 66.064C66.3381 67.981 68.8057 68.9747 71.2323 68.9747C73.0127 68.9747 74.7711 68.4392 76.2481 67.3408C80.7553 63.9881 81.2867 57.326 77.3847 53.2965ZM31.0184 21.0238C30.3258 20.2655 29.1648 20.2522 28.4553 20.9851L27.5466 21.9234L22.9827 14.0673C22.3229 12.9315 22.4953 11.4841 23.4022 10.5475C24.3091 9.61074 25.7106 9.43282 26.8101 10.1143L34.4169 14.8279L33.5082 15.7662C32.8249 16.4718 32.8087 17.6108 33.4717 18.3367C47.7176 33.9377 45.4767 31.5901 46.6929 32.5671L43.9816 35.367C43.0446 34.1225 45.2203 36.5767 31.0184 21.0238ZM39.9166 50.0024C39.3812 50.5553 39.2415 51.3967 39.5679 52.1024C41.1965 55.623 40.4945 59.8432 37.8216 62.6037C36.109 64.3724 33.8168 65.3056 31.4938 65.3053C31.0759 65.3053 30.6573 65.2752 30.2406 65.2142L32.7683 62.6036C34.8629 60.4404 34.8633 56.9389 32.7683 54.7755C30.6787 52.6172 27.2783 52.6174 25.1887 54.7755L22.661 57.386C22.2741 54.564 23.1683 51.6434 25.1887 49.5568C27.8618 46.796 31.9478 46.0714 35.3567 47.7531C36.0398 48.0901 36.8544 47.946 37.39 47.3929L59.0748 24.9987C59.6102 24.4458 59.75 23.6044 59.4237 22.8987C57.7951 19.3782 58.4971 15.1579 61.17 12.3974C63.1908 10.3105 66.0183 9.38705 68.7507 9.78682L66.223 12.3974C65.2107 13.4428 64.6531 14.833 64.6531 16.3115C64.6531 17.79 65.2107 19.18 66.223 20.2256C68.3126 22.3839 71.713 22.3838 73.8026 20.2256L76.3303 17.6151C76.7173 20.4371 75.823 23.3577 73.8026 25.4443C71.1296 28.205 67.0434 28.9298 63.6346 27.248C62.9516 26.911 62.1368 27.0552 61.6013 27.6082L39.9166 50.0024ZM50.7139 44.0705L55.1232 39.517L59.617 42.9437L54.2479 48.4888C50.5975 43.9072 50.8253 44.1834 50.7139 44.0705ZM74.1598 64.3464C72.076 65.8963 69.0015 65.5133 67.0083 63.4547L62.2866 58.5784L56.5288 51.3517L62.5237 45.1602L69.8997 50.7846L74.8581 55.9057C77.1245 58.2464 76.9789 62.2495 74.1598 64.3464Z" fill="white"/>
<path d="M72.3 58.1965L65.1539 50.816C64.4563 50.0954 63.3251 50.0954 62.6274 50.816C61.9297 51.5366 61.9297 52.7048 62.6274 53.4253L69.7736 60.8058C70.4711 61.5263 71.6024 61.5264 72.3 60.8058C72.9977 60.0853 72.9977 58.9171 72.3 58.1965Z" fill="white"/>
</g>
<defs>
<filter id="filter0_d" x="0" y="0" width="98" height="98" filterUnits="userSpaceOnUse" color-interpolation-filters="sRGB">
<feFlood flood-opacity="0" result="BackgroundImageFix"/>
<feColorMatrix in="SourceAlpha" type="matrix" values="0 0 0 0 0 0 0 0 0 0 0 0 0 0 0 0 0 0 127 0"/>
<feOffset dy="4"/>
<feGaussianBlur stdDeviation="2"/>
<feColorMatrix type="matrix" values="0 0 0 0 0 0 0 0 0 0 0 0 0 0 0 0 0 0 0.25 0"/>
<feBlend mode="normal" in2="BackgroundImageFix" result="effect1_dropShadow"/>
<feBlend mode="normal" in="SourceGraphic" in2="effect1_dropShadow" result="shape"/>
</filter>
<clipPath id="clip0">
<rect width="61" height="63" fill="white" transform="translate(19 6)"/>
</clipPath>
</defs>
</svg>
