<svg width="88" height="88" viewBox="0 0 88 88" fill="none" xmlns="http://www.w3.org/2000/svg">
<g filter="url(#filter0_d)">
<path d="M64 0H24C12.9543 0 4 8.9543 4 20V60C4 71.0457 12.9543 80 24 80H64C75.0457 80 84 71.0457 84 60V20C84 8.9543 75.0457 0 64 0Z" fill="#31493C"/>
</g>
<path d="M8.5525 64.1095C8.6885 64.0868 8.83583 64.067 8.9945 64.05C9.15883 64.0273 9.32317 64.0103 9.4875 63.999C9.65183 63.9877 9.8105 63.9792 9.9635 63.9735C10.1222 63.9678 10.2667 63.965 10.397 63.965C10.6973 63.965 10.992 63.9905 11.281 64.0415C11.5757 64.0925 11.8363 64.1803 12.063 64.305C12.2953 64.4297 12.4823 64.6025 12.624 64.8235C12.7657 65.0388 12.8365 65.3108 12.8365 65.6395C12.8365 66.1268 12.7147 66.5292 12.471 66.8465C12.233 67.1582 11.9015 67.3707 11.4765 67.484L11.927 67.7475L13.4145 70H11.9525L10.4735 67.6965L9.8105 67.5945V70H8.5525V64.1095ZM10.482 65.07C10.3517 65.07 10.2242 65.0728 10.0995 65.0785C9.9805 65.0785 9.88417 65.087 9.8105 65.104V66.7445H10.346C10.703 66.7445 10.9835 66.6765 11.1875 66.5405C11.3972 66.4045 11.502 66.1693 11.502 65.835C11.502 65.5857 11.4142 65.3958 11.2385 65.2655C11.0628 65.1352 10.8107 65.07 10.482 65.07ZM17.5335 69.592C17.3408 69.7393 17.0773 69.8668 16.743 69.9745C16.4143 70.0765 16.0601 70.1275 15.6805 70.1275C14.9155 70.1275 14.3545 69.9178 13.9975 69.4985C13.6405 69.0792 13.462 68.504 13.462 67.773C13.462 66.9967 13.6631 66.4102 14.0655 66.0135C14.4678 65.6112 15.0345 65.41 15.7655 65.41C16.0035 65.41 16.2386 65.4412 16.471 65.5035C16.7033 65.5602 16.9101 65.6593 17.0915 65.801C17.2728 65.937 17.4173 66.124 17.525 66.362C17.6383 66.5943 17.695 66.8833 17.695 67.229C17.695 67.348 17.6865 67.4783 17.6695 67.62C17.6581 67.7617 17.6355 67.909 17.6015 68.062H14.6265C14.6548 68.4473 14.7653 68.7335 14.958 68.9205C15.1563 69.1018 15.4765 69.1925 15.9185 69.1925C16.1848 69.1925 16.4228 69.1557 16.6325 69.082C16.8478 69.0027 17.0121 68.9233 17.1255 68.844L17.5335 69.592ZM15.7485 66.345C15.3971 66.345 15.1365 66.4413 14.9665 66.634C14.7965 66.821 14.6973 67.0618 14.669 67.3565H16.59C16.6126 67.0448 16.556 66.7983 16.42 66.617C16.284 66.4357 16.0601 66.345 15.7485 66.345ZM18.7639 65.5375H19.6139L19.7584 66.09H19.8604C20.036 65.8633 20.24 65.6933 20.4724 65.58C20.7047 65.4667 20.9767 65.41 21.2884 65.41C21.889 65.41 22.3395 65.5913 22.6399 65.954C22.9402 66.311 23.0904 66.8805 23.0904 67.6625C23.0904 68.0365 23.0422 68.3765 22.9459 68.6825C22.8495 68.9828 22.7079 69.2435 22.5209 69.4645C22.3339 69.6798 22.1015 69.847 21.8239 69.966C21.5519 70.0793 21.2374 70.136 20.8804 70.136C20.6877 70.136 20.5205 70.1162 20.3789 70.0765C20.2372 70.0425 20.0955 69.9943 19.9539 69.932V71.6915H18.7639V65.5375ZM20.9229 66.4045C20.6509 66.4045 20.4412 66.4668 20.2939 66.5915C20.1465 66.7105 20.0332 66.8975 19.9539 67.1525V68.8865C20.0502 68.9658 20.1579 69.0282 20.2769 69.0735C20.3959 69.1188 20.546 69.1415 20.7274 69.1415C21.1127 69.1415 21.3989 69.0225 21.5859 68.7845C21.7729 68.5408 21.8664 68.1555 21.8664 67.6285C21.8664 67.2488 21.7927 66.9513 21.6454 66.736C21.5037 66.515 21.2629 66.4045 20.9229 66.4045ZM23.8048 67.773C23.8048 67.0363 24.0003 66.4583 24.3913 66.039C24.7823 65.6197 25.3404 65.41 26.0658 65.41C26.4454 65.41 26.7769 65.4695 27.0603 65.5885C27.3436 65.7075 27.5788 65.8747 27.7658 66.09C27.9528 66.2997 28.0916 66.549 28.1823 66.838C28.2786 67.1213 28.3268 67.433 28.3268 67.773C28.3268 68.1357 28.2758 68.4643 28.1738 68.759C28.0718 69.048 27.9244 69.2945 27.7318 69.4985C27.5391 69.7025 27.3011 69.8583 27.0178 69.966C26.7401 70.0737 26.4228 70.1275 26.0658 70.1275C25.6804 70.1275 25.3461 70.068 25.0628 69.949C24.7794 69.83 24.5443 69.6657 24.3573 69.456C24.1703 69.2407 24.0314 68.9913 23.9408 68.708C23.8501 68.419 23.8048 68.1073 23.8048 67.773ZM25.0288 67.773C25.0288 67.96 25.0486 68.1357 25.0883 68.3C25.1279 68.4643 25.1874 68.6088 25.2668 68.7335C25.3518 68.8525 25.4594 68.9488 25.5898 69.0225C25.7201 69.0962 25.8788 69.133 26.0658 69.133C26.7571 69.133 27.1028 68.6797 27.1028 67.773C27.1028 67.5747 27.0829 67.3933 27.0433 67.229C27.0093 67.059 26.9498 66.9145 26.8648 66.7955C26.7854 66.6708 26.6778 66.5745 26.5418 66.5065C26.4114 66.4385 26.2528 66.4045 26.0658 66.4045C25.7428 66.4045 25.4878 66.5122 25.3008 66.7275C25.1194 66.9428 25.0288 67.2913 25.0288 67.773ZM31.9325 66.6255C31.7625 66.5688 31.5925 66.5405 31.4225 66.5405C31.1732 66.5405 30.9664 66.6 30.802 66.719C30.6434 66.838 30.5385 66.9882 30.4875 67.1695V70H29.2975V65.5375H30.2325L30.36 66.158H30.4705C30.5839 65.9257 30.734 65.7472 30.921 65.6225C31.1137 65.4978 31.3319 65.4355 31.5755 65.4355C31.7285 65.4355 31.9042 65.4667 32.1025 65.529L31.9325 66.6255ZM32.5055 65.5375H33.1855V64.9255L34.3755 64.611V65.5375H35.574V66.532H34.3755V68.079C34.3755 68.436 34.4095 68.6938 34.4775 68.8525C34.5512 69.0055 34.6928 69.082 34.9025 69.082C35.0328 69.082 35.1433 69.0735 35.234 69.0565C35.3247 69.0338 35.421 68.9998 35.523 68.9545L35.7695 69.847C35.5882 69.9263 35.3785 69.9943 35.1405 70.051C34.9082 70.1077 34.6815 70.136 34.4605 70.136C34.0185 70.136 33.6955 70.0283 33.4915 69.813C33.2875 69.592 33.1855 69.2407 33.1855 68.759V66.532H32.5055V65.5375ZM40.2527 69.592C40.0601 69.7393 39.7966 69.8668 39.4622 69.9745C39.1336 70.0765 38.7794 70.1275 38.3997 70.1275C37.6347 70.1275 37.0737 69.9178 36.7167 69.4985C36.3597 69.0792 36.1812 68.504 36.1812 67.773C36.1812 66.9967 36.3824 66.4102 36.7847 66.0135C37.1871 65.6112 37.7537 65.41 38.4847 65.41C38.7227 65.41 38.9579 65.4412 39.1902 65.5035C39.4226 65.5602 39.6294 65.6593 39.8107 65.801C39.9921 65.937 40.1366 66.124 40.2442 66.362C40.3576 66.5943 40.4142 66.8833 40.4142 67.229C40.4142 67.348 40.4057 67.4783 40.3887 67.62C40.3774 67.7617 40.3547 67.909 40.3207 68.062H37.3457C37.3741 68.4473 37.4846 68.7335 37.6772 68.9205C37.8756 69.1018 38.1957 69.1925 38.6377 69.1925C38.9041 69.1925 39.1421 69.1557 39.3517 69.082C39.5671 69.0027 39.7314 68.9233 39.8447 68.844L40.2527 69.592ZM38.4677 66.345C38.1164 66.345 37.8557 66.4413 37.6857 66.634C37.5157 66.821 37.4166 67.0618 37.3882 67.3565H39.3092C39.3319 67.0448 39.2752 66.7983 39.1392 66.617C39.0032 66.4357 38.7794 66.345 38.4677 66.345ZM47.8952 68.436C47.8952 68.674 47.898 68.9205 47.9037 69.1755C47.9094 69.4305 47.9349 69.7082 47.9802 70.0085H47.1557L46.9857 69.388H46.8752C46.7449 69.6147 46.5579 69.796 46.3142 69.932C46.0762 70.0623 45.79 70.1275 45.4557 70.1275C44.8607 70.1275 44.3989 69.9433 44.0702 69.575C43.7415 69.201 43.5772 68.6258 43.5772 67.8495C43.5772 67.4755 43.6225 67.1383 43.7132 66.838C43.8095 66.5377 43.9484 66.2827 44.1297 66.073C44.3167 65.8633 44.5462 65.7018 44.8182 65.5885C45.0902 65.4752 45.4047 65.4185 45.7617 65.4185C45.96 65.4185 46.13 65.4355 46.2717 65.4695C46.419 65.4978 46.5635 65.5347 46.7052 65.58V64.05H47.8952V68.436ZM45.7617 69.133C46.028 69.133 46.2349 69.0735 46.3822 68.9545C46.5295 68.8298 46.6372 68.6542 46.7052 68.4275V66.6425C46.6032 66.5632 46.4927 66.5065 46.3737 66.4725C46.2604 66.4328 46.1102 66.413 45.9232 66.413C45.5435 66.413 45.2602 66.5235 45.0732 66.7445C44.8919 66.9655 44.8012 67.3452 44.8012 67.8835C44.8012 68.2575 44.8777 68.5607 45.0307 68.793C45.1894 69.0197 45.433 69.133 45.7617 69.133ZM52.9861 69.592C52.7935 69.7393 52.53 69.8668 52.1956 69.9745C51.867 70.0765 51.5128 70.1275 51.1331 70.1275C50.3681 70.1275 49.8071 69.9178 49.4501 69.4985C49.0931 69.0792 48.9146 68.504 48.9146 67.773C48.9146 66.9967 49.1158 66.4102 49.5181 66.0135C49.9205 65.6112 50.4871 65.41 51.2181 65.41C51.4561 65.41 51.6913 65.4412 51.9236 65.5035C52.156 65.5602 52.3628 65.6593 52.5441 65.801C52.7255 65.937 52.87 66.124 52.9776 66.362C53.091 66.5943 53.1476 66.8833 53.1476 67.229C53.1476 67.348 53.1391 67.4783 53.1221 67.62C53.1108 67.7617 53.0881 67.909 53.0541 68.062H50.0791C50.1075 68.4473 50.218 68.7335 50.4106 68.9205C50.609 69.1018 50.9291 69.1925 51.3711 69.1925C51.6375 69.1925 51.8755 69.1557 52.0851 69.082C52.3005 69.0027 52.4648 68.9233 52.5781 68.844L52.9861 69.592ZM51.2011 66.345C50.8498 66.345 50.5891 66.4413 50.4191 66.634C50.2491 66.821 50.15 67.0618 50.1216 67.3565H52.0426C52.0653 67.0448 52.0086 66.7983 51.8726 66.617C51.7366 66.4357 51.5128 66.345 51.2011 66.345ZM56.5061 64.05H60.3396V65.155H57.7641V66.5405H60.1356V67.6455H57.7641V70H56.5061V64.05ZM61.2048 65.8435C61.4598 65.7302 61.7714 65.6367 62.1398 65.563C62.5138 65.4893 62.8991 65.4525 63.2958 65.4525C63.6074 65.4525 63.8681 65.4893 64.0778 65.563C64.2931 65.6367 64.4631 65.7443 64.5878 65.886C64.7124 66.022 64.8003 66.1892 64.8513 66.3875C64.9079 66.5802 64.9363 66.7955 64.9363 67.0335C64.9363 67.3225 64.9249 67.6087 64.9023 67.892C64.8796 68.1753 64.8683 68.4757 64.8683 68.793C64.8683 69.0083 64.8824 69.218 64.9108 69.422C64.9391 69.626 64.9844 69.8215 65.0468 70.0085H64.0778L63.8823 69.3455H63.7803C63.6329 69.5438 63.4459 69.7138 63.2193 69.8555C62.9926 69.9972 62.7008 70.068 62.3438 70.068C62.1284 70.068 61.9301 70.0368 61.7488 69.9745C61.5731 69.9122 61.4201 69.8243 61.2898 69.711C61.1651 69.592 61.0659 69.4532 60.9923 69.2945C60.9243 69.1358 60.8903 68.963 60.8903 68.776C60.8903 68.2717 61.0574 67.892 61.3918 67.637C61.7318 67.3763 62.2446 67.246 62.9303 67.246C63.0889 67.246 63.2476 67.2602 63.4063 67.2885C63.5649 67.3112 63.6754 67.3282 63.7378 67.3395C63.7548 67.2205 63.7633 67.1185 63.7633 67.0335C63.7633 66.8182 63.7094 66.6595 63.6018 66.5575C63.4941 66.4555 63.2929 66.4045 62.9983 66.4045C62.7263 66.4045 62.4599 66.4385 62.1993 66.5065C61.9443 66.5688 61.7176 66.6482 61.5193 66.7445L61.2048 65.8435ZM62.7603 69.116C63.0266 69.116 63.2391 69.0537 63.3978 68.929C63.5564 68.8043 63.6726 68.674 63.7463 68.538V68.028C63.7179 68.0167 63.6726 68.0053 63.6103 67.994C63.5536 67.9827 63.4884 67.9713 63.4148 67.96C63.3468 67.9487 63.2759 67.9402 63.2023 67.9345C63.1343 67.9288 63.0719 67.926 63.0153 67.926C62.7093 67.926 62.4826 67.9827 62.3353 68.096C62.1879 68.2037 62.1143 68.3397 62.1143 68.504C62.1143 68.708 62.1709 68.861 62.2843 68.963C62.4033 69.065 62.5619 69.116 62.7603 69.116ZM67.3851 68.436C67.3851 68.8667 67.524 69.082 67.8016 69.082C67.881 69.082 67.9546 69.0763 68.0226 69.065C68.0963 69.048 68.1813 69.0225 68.2776 68.9885L68.4221 69.915C68.3088 69.966 68.1473 70.0142 67.9376 70.0595C67.7336 70.1105 67.5211 70.136 67.3001 70.136C66.9431 70.136 66.6683 70.0567 66.4756 69.898C66.2886 69.7393 66.1951 69.4787 66.1951 69.116V64.05H67.3851V68.436ZM70.2489 68.436C70.2489 68.8667 70.3877 69.082 70.6654 69.082C70.7447 69.082 70.8184 69.0763 70.8864 69.065C70.9601 69.048 71.0451 69.0225 71.1414 68.9885L71.2859 69.915C71.1726 69.966 71.0111 70.0142 70.8014 70.0595C70.5974 70.1105 70.3849 70.136 70.1639 70.136C69.8069 70.136 69.5321 70.0567 69.3394 69.898C69.1524 69.7393 69.0589 69.4787 69.0589 69.116V64.05H70.2489V68.436ZM71.8547 65.8435C72.1097 65.7302 72.4213 65.6367 72.7897 65.563C73.1637 65.4893 73.549 65.4525 73.9457 65.4525C74.2573 65.4525 74.518 65.4893 74.7277 65.563C74.943 65.6367 75.113 65.7443 75.2377 65.886C75.3623 66.022 75.4502 66.1892 75.5012 66.3875C75.5578 66.5802 75.5862 66.7955 75.5862 67.0335C75.5862 67.3225 75.5748 67.6087 75.5522 67.892C75.5295 68.1753 75.5182 68.4757 75.5182 68.793C75.5182 69.0083 75.5323 69.218 75.5607 69.422C75.589 69.626 75.6343 69.8215 75.6967 70.0085H74.7277L74.5322 69.3455H74.4302C74.2828 69.5438 74.0958 69.7138 73.8692 69.8555C73.6425 69.9972 73.3507 70.068 72.9937 70.068C72.7783 70.068 72.58 70.0368 72.3987 69.9745C72.223 69.9122 72.07 69.8243 71.9397 69.711C71.815 69.592 71.7158 69.4532 71.6422 69.2945C71.5742 69.1358 71.5402 68.963 71.5402 68.776C71.5402 68.2717 71.7073 67.892 72.0417 67.637C72.3817 67.3763 72.8945 67.246 73.5802 67.246C73.7388 67.246 73.8975 67.2602 74.0562 67.2885C74.2148 67.3112 74.3253 67.3282 74.3877 67.3395C74.4047 67.2205 74.4132 67.1185 74.4132 67.0335C74.4132 66.8182 74.3593 66.6595 74.2517 66.5575C74.144 66.4555 73.9428 66.4045 73.6482 66.4045C73.3762 66.4045 73.1098 66.4385 72.8492 66.5065C72.5942 66.5688 72.3675 66.6482 72.1692 66.7445L71.8547 65.8435ZM73.4102 69.116C73.6765 69.116 73.889 69.0537 74.0477 68.929C74.2063 68.8043 74.3225 68.674 74.3962 68.538V68.028C74.3678 68.0167 74.3225 68.0053 74.2602 67.994C74.2035 67.9827 74.1383 67.9713 74.0647 67.96C73.9967 67.9487 73.9258 67.9402 73.8522 67.9345C73.7842 67.9288 73.7218 67.926 73.6652 67.926C73.3592 67.926 73.1325 67.9827 72.9852 68.096C72.8378 68.2037 72.7642 68.3397 72.7642 68.504C72.7642 68.708 72.8208 68.861 72.9342 68.963C73.0532 69.065 73.2118 69.116 73.4102 69.116ZM76.811 68.844C76.8904 68.8837 76.981 68.9233 77.083 68.963C77.1907 69.0027 77.304 69.0395 77.423 69.0735C77.5477 69.1075 77.6724 69.1358 77.797 69.1585C77.9274 69.1812 78.0577 69.1925 78.188 69.1925C78.3864 69.1925 78.5394 69.1613 78.647 69.099C78.7604 69.0367 78.817 68.9205 78.817 68.7505C78.817 68.6145 78.7434 68.5153 78.596 68.453C78.4487 68.385 78.2674 68.3198 78.052 68.2575C77.8934 68.2122 77.7262 68.1583 77.5505 68.096C77.3805 68.0337 77.2219 67.9515 77.0745 67.8495C76.9329 67.7418 76.8139 67.603 76.7175 67.433C76.6269 67.263 76.5815 67.0477 76.5815 66.787C76.5815 66.3393 76.7204 65.9993 76.998 65.767C77.2757 65.529 77.6752 65.41 78.1965 65.41C78.5365 65.41 78.8539 65.4412 79.1485 65.5035C79.4489 65.5602 79.6897 65.6282 79.871 65.7075L79.6245 66.6085C79.4772 66.5518 79.2874 66.4952 79.055 66.4385C78.8284 66.3762 78.596 66.345 78.358 66.345C78.1597 66.345 78.0124 66.3762 77.916 66.4385C77.8197 66.4952 77.7715 66.5972 77.7715 66.7445C77.7715 66.8748 77.8452 66.974 77.9925 67.042C78.1455 67.1043 78.3297 67.1667 78.545 67.229C78.7037 67.2743 78.868 67.3282 79.038 67.3905C79.2137 67.4472 79.3724 67.5265 79.514 67.6285C79.6557 67.7305 79.7719 67.8637 79.8625 68.028C79.9589 68.1867 80.007 68.3878 80.007 68.6315C80.007 69.1075 79.8512 69.4758 79.5395 69.7365C79.2335 69.9972 78.7717 70.1275 78.154 70.1275C77.8197 70.1275 77.508 70.0963 77.219 70.034C76.93 69.9773 76.6949 69.8923 76.5135 69.779L76.811 68.844Z" fill="white"/>
<g clip-path="url(#clip0)">
<path d="M69.2309 47.3754C64.378 42.3634 64.6963 42.6809 64.5597 42.5768L51.714 32.7816L56.6972 27.6354C60.7037 29.1099 65.2399 28.0905 68.2927 24.9375C71.6187 21.5025 72.4918 16.2509 70.4652 11.8696C69.9929 10.8488 68.683 10.6176 67.9094 11.4168L63.8013 15.6596C63.1822 16.299 62.1749 16.2991 61.5554 15.6596C60.9347 15.0185 60.9347 13.9812 61.5554 13.3402L65.6636 9.0973C66.4382 8.29744 66.2129 6.94491 65.2252 6.45775C60.983 4.36475 55.8982 5.26644 52.5721 8.70136C49.5185 11.8551 48.5327 16.5402 49.9599 20.6769L44.2128 26.612C43.0427 25.672 44.5867 27.2775 33.566 15.2084L34.7212 14.0152C35.452 13.2607 35.2997 11.9972 34.4154 11.4492L25.9099 6.17851C23.6804 4.79689 20.8393 5.15805 19.0007 7.05691C17.1623 8.95566 16.8125 11.8901 18.1502 14.1926L23.2536 22.9771C23.785 23.8921 25.0089 24.0461 25.7382 23.293L26.8277 22.1677C37.7914 34.1744 36.3483 32.5435 37.215 33.6944C37.2356 33.7217 37.2585 33.7457 37.2803 33.7713L32.1841 39.0341C28.1789 37.5601 23.6422 38.5782 20.5888 41.732C17.2629 45.167 16.3898 50.4185 18.4165 54.7999C18.8889 55.8208 20.1985 56.0518 20.9723 55.2527L25.0804 51.0098C25.6998 50.3703 26.7071 50.3705 27.3263 51.0098C27.947 51.6508 27.947 52.6882 27.3263 53.3292L23.218 57.5721C22.4434 58.3719 22.6688 59.7245 23.6564 60.2117C25.1812 60.964 26.8144 61.3294 28.4362 61.3294C31.3263 61.3293 34.1789 60.1684 36.3095 57.9681C39.3631 54.8144 40.3489 50.1293 38.9217 45.9924L43.2738 41.4979L53.407 54.216C53.4841 54.3125 53.2298 54.0436 57.7619 58.7243C59.4117 60.4283 61.6052 61.3116 63.7621 61.3116C65.3447 61.3116 66.9077 60.8356 68.2206 59.8592C72.227 56.8791 72.6994 50.9572 69.2309 47.3754ZM28.0164 18.6886C27.4008 18.0145 26.3688 18.0027 25.7382 18.6542L24.9304 19.4882L20.8736 12.505C20.2871 11.4955 20.4404 10.2089 21.2465 9.37631C22.0526 8.54364 23.2984 8.38548 24.2757 8.9912L31.0373 13.1811L30.2296 14.0151C29.6222 14.6424 29.6078 15.6548 30.1972 16.3001C42.8602 30.1676 40.8683 28.0809 41.9493 28.9493L39.5393 31.4381C38.7064 30.3319 40.6404 32.5134 28.0164 18.6886ZM35.926 44.4473C35.4501 44.9388 35.3258 45.6867 35.616 46.314C37.0636 49.4434 36.4396 53.1947 34.0637 55.6485C32.5415 57.2207 30.5039 58.0502 28.439 58.0499C28.0676 58.0499 27.6954 58.0231 27.3251 57.9689L29.5719 55.6484C31.4338 53.7256 31.4341 50.6131 29.5719 48.6901C27.7145 46.7716 24.6919 46.7717 22.8345 48.6901L20.5877 51.0106C20.2437 48.502 21.0386 45.906 22.8345 44.0513C25.2105 41.5972 28.8426 40.9531 31.8727 42.4479C32.4799 42.7475 33.204 42.6194 33.6801 42.1278L52.9555 22.2219C53.4314 21.7303 53.5556 20.9824 53.2656 20.3552C51.818 17.2258 52.442 13.4745 54.8179 11.0207C56.6141 9.16566 59.1275 8.3448 61.5563 8.70016L59.3094 11.0207C58.4096 11.9499 57.914 13.1856 57.914 14.4999C57.914 15.8141 58.4096 17.0496 59.3094 17.9791C61.1669 19.8975 64.1894 19.8974 66.0469 17.9791L68.2937 15.6586C68.6377 18.1671 67.8428 20.7631 66.0469 22.6179C63.6708 25.0718 60.0387 25.7162 57.0086 24.2212C56.4016 23.9217 55.6773 24.0498 55.2013 24.5414L35.926 44.4473ZM45.5235 39.1745L49.4429 35.127L53.4374 38.1729L48.6649 43.1019C45.4201 39.0294 45.6226 39.2748 45.5235 39.1745ZM66.3644 57.1976C64.5121 58.5753 61.7792 58.2348 60.0074 56.4049L55.8104 52.0704L50.6923 45.6467L56.0212 40.1432L62.5776 45.1426L66.9851 49.6947C68.9996 51.7753 68.8702 55.3336 66.3644 57.1976Z" fill="white"/>
<path d="M64.7112 51.7302L58.359 45.1698C57.7389 44.5293 56.7334 44.5293 56.1132 45.1698C55.4931 45.8103 55.4931 46.8487 56.1132 47.4892L62.4654 54.0496C63.0854 54.69 64.091 54.6901 64.7112 54.0496C65.3313 53.4091 65.3313 52.3707 64.7112 51.7302Z" fill="white"/>
</g>
<defs>
<filter id="filter0_d" x="0" y="0" width="88" height="88" filterUnits="userSpaceOnUse" color-interpolation-filters="sRGB">
<feFlood flood-opacity="0" result="BackgroundImageFix"/>
<feColorMatrix in="SourceAlpha" type="matrix" values="0 0 0 0 0 0 0 0 0 0 0 0 0 0 0 0 0 0 127 0"/>
<feOffset dy="4"/>
<feGaussianBlur stdDeviation="2"/>
<feColorMatrix type="matrix" values="0 0 0 0 0 0 0 0 0 0 0 0 0 0 0 0 0 0 0.25 0"/>
<feBlend mode="normal" in2="BackgroundImageFix" result="effect1_dropShadow"/>
<feBlend mode="normal" in="SourceGraphic" in2="effect1_dropShadow" result="shape"/>
</filter>
<clipPath id="clip0">
<rect width="54.2222" height="56" fill="white" transform="translate(17.3333 5.33334)"/>
</clipPath>
</defs>
</svg>
