<svg width="88" height="88" viewBox="0 0 88 88" fill="none" xmlns="http://www.w3.org/2000/svg">
<g filter="url(#filter0_d)">
<path d="M64 0H24C12.9543 0 4 8.9543 4 20V60C4 71.0457 12.9543 80 24 80H64C75.0457 80 84 71.0457 84 60V20C84 8.9543 75.0457 0 64 0Z" fill="#A46682"/>
</g>
<path d="M11.0725 70.659H8.94852L8.43552 72H7.10352L9.56952 65.655H10.5505L13.0255 72H11.6125L11.0725 70.659ZM9.31752 69.606H10.7575L10.2715 68.292L10.0555 67.293H10.0105L9.79452 68.301L9.31752 69.606ZM17.9773 70.344C17.9773 70.596 17.9803 70.857 17.9863 71.127C17.9923 71.397 18.0193 71.691 18.0673 72.009H17.1943L17.0143 71.352H16.8973C16.7593 71.592 16.5613 71.784 16.3033 71.928C16.0513 72.066 15.7483 72.135 15.3943 72.135C14.7643 72.135 14.2753 71.94 13.9273 71.55C13.5793 71.154 13.4053 70.545 13.4053 69.723C13.4053 69.327 13.4533 68.97 13.5493 68.652C13.6513 68.334 13.7983 68.064 13.9903 67.842C14.1883 67.62 14.4313 67.449 14.7193 67.329C15.0073 67.209 15.3403 67.149 15.7183 67.149C15.9283 67.149 16.1083 67.167 16.2583 67.203C16.4143 67.233 16.5673 67.272 16.7173 67.32V65.7H17.9773V70.344ZM15.7183 71.082C16.0003 71.082 16.2193 71.019 16.3753 70.893C16.5313 70.761 16.6453 70.575 16.7173 70.335V68.445C16.6093 68.361 16.4923 68.301 16.3663 68.265C16.2463 68.223 16.0873 68.202 15.8893 68.202C15.4873 68.202 15.1873 68.319 14.9893 68.553C14.7973 68.787 14.7013 69.189 14.7013 69.759C14.7013 70.155 14.7823 70.476 14.9443 70.722C15.1123 70.962 15.3703 71.082 15.7183 71.082ZM22.2787 72V69.534C22.2787 69.078 22.2307 68.751 22.1347 68.553C22.0387 68.355 21.8407 68.256 21.5407 68.256C21.2887 68.256 21.0877 68.319 20.9377 68.445C20.7877 68.565 20.6707 68.724 20.5867 68.922V72H19.3267V67.275H20.2987L20.4427 67.932H20.5597C20.6377 67.83 20.7277 67.731 20.8297 67.635C20.9317 67.539 21.0427 67.455 21.1627 67.383C21.2887 67.311 21.4267 67.254 21.5767 67.212C21.7327 67.164 21.9067 67.14 22.0987 67.14C22.4167 67.14 22.6807 67.212 22.8907 67.356C23.1067 67.494 23.2777 67.728 23.4037 68.058C23.5777 67.77 23.7877 67.545 24.0337 67.383C24.2857 67.221 24.5767 67.14 24.9067 67.14C25.1947 67.14 25.4377 67.173 25.6357 67.239C25.8397 67.305 26.0047 67.419 26.1307 67.581C26.2567 67.743 26.3467 67.962 26.4007 68.238C26.4607 68.514 26.4907 68.859 26.4907 69.273V72H25.2307V69.471C25.2307 69.273 25.2217 69.099 25.2037 68.949C25.1857 68.799 25.1497 68.673 25.0957 68.571C25.0417 68.463 24.9637 68.385 24.8617 68.337C24.7657 68.283 24.6367 68.256 24.4747 68.256C24.2227 68.256 24.0187 68.322 23.8627 68.454C23.7127 68.58 23.6047 68.757 23.5387 68.985V72H22.2787ZM27.9436 67.275H29.2036V72H27.9436V67.275ZM27.7546 66.096C27.7546 65.904 27.8236 65.745 27.9616 65.619C28.0996 65.487 28.2946 65.421 28.5466 65.421C28.8046 65.421 29.0086 65.487 29.1586 65.619C29.3086 65.751 29.3836 65.91 29.3836 66.096C29.3836 66.27 29.3086 66.42 29.1586 66.546C29.0086 66.672 28.8046 66.735 28.5466 66.735C28.2946 66.735 28.0996 66.672 27.9616 66.546C27.8236 66.42 27.7546 66.27 27.7546 66.096ZM33.833 72V69.408C33.833 69 33.77 68.706 33.644 68.526C33.518 68.346 33.296 68.256 32.978 68.256C32.708 68.256 32.477 68.331 32.285 68.481C32.099 68.625 31.97 68.811 31.898 69.039C31.898 69.531 31.898 70.026 31.898 70.524C31.904 71.016 31.907 71.508 31.907 72H30.647V67.275H31.637L31.772 67.95H31.907C32.063 67.728 32.27 67.539 32.528 67.383C32.786 67.221 33.122 67.14 33.536 67.14C33.788 67.14 34.01 67.173 34.202 67.239C34.4 67.299 34.562 67.407 34.688 67.563C34.82 67.713 34.919 67.917 34.985 68.175C35.057 68.433 35.093 68.757 35.093 69.147V72H33.833ZM36.5393 67.275H37.7993V72H36.5393V67.275ZM36.3503 66.096C36.3503 65.904 36.4193 65.745 36.5573 65.619C36.6953 65.487 36.8903 65.421 37.1423 65.421C37.4003 65.421 37.6043 65.487 37.7543 65.619C37.9043 65.751 37.9793 65.91 37.9793 66.096C37.9793 66.27 37.9043 66.42 37.7543 66.546C37.6043 66.672 37.4003 66.735 37.1423 66.735C36.8903 66.735 36.6953 66.672 36.5573 66.546C36.4193 66.42 36.3503 66.27 36.3503 66.096ZM39.2337 70.776C39.3177 70.818 39.4137 70.86 39.5217 70.902C39.6357 70.944 39.7557 70.983 39.8817 71.019C40.0137 71.055 40.1457 71.085 40.2777 71.109C40.4157 71.133 40.5537 71.145 40.6917 71.145C40.9017 71.145 41.0637 71.112 41.1777 71.046C41.2977 70.98 41.3577 70.857 41.3577 70.677C41.3577 70.533 41.2797 70.428 41.1237 70.362C40.9677 70.29 40.7757 70.221 40.5477 70.155C40.3797 70.107 40.2027 70.05 40.0167 69.984C39.8367 69.918 39.6687 69.831 39.5127 69.723C39.3627 69.609 39.2367 69.462 39.1347 69.282C39.0387 69.102 38.9907 68.874 38.9907 68.598C38.9907 68.124 39.1377 67.764 39.4317 67.518C39.7257 67.266 40.1487 67.14 40.7007 67.14C41.0607 67.14 41.3967 67.173 41.7087 67.239C42.0267 67.299 42.2817 67.371 42.4737 67.455L42.2127 68.409C42.0567 68.349 41.8557 68.289 41.6097 68.229C41.3697 68.163 41.1237 68.13 40.8717 68.13C40.6617 68.13 40.5057 68.163 40.4037 68.229C40.3017 68.289 40.2507 68.397 40.2507 68.553C40.2507 68.691 40.3287 68.796 40.4847 68.868C40.6467 68.934 40.8417 69 41.0697 69.066C41.2377 69.114 41.4117 69.171 41.5917 69.237C41.7777 69.297 41.9457 69.381 42.0957 69.489C42.2457 69.597 42.3687 69.738 42.4647 69.912C42.5667 70.08 42.6177 70.293 42.6177 70.551C42.6177 71.055 42.4527 71.445 42.1227 71.721C41.7987 71.997 41.3097 72.135 40.6557 72.135C40.3017 72.135 39.9717 72.102 39.6657 72.036C39.3597 71.976 39.1107 71.886 38.9187 71.766L39.2337 70.776ZM43.0173 67.275H43.7373V66.627L44.9973 66.294V67.275H46.2663V68.328H44.9973V69.966C44.9973 70.344 45.0333 70.617 45.1053 70.785C45.1833 70.947 45.3333 71.028 45.5553 71.028C45.6933 71.028 45.8103 71.019 45.9063 71.001C46.0023 70.977 46.1043 70.941 46.2123 70.893L46.4733 71.838C46.2813 71.922 46.0593 71.994 45.8073 72.054C45.5613 72.114 45.3213 72.144 45.0873 72.144C44.6193 72.144 44.2773 72.03 44.0613 71.802C43.8453 71.568 43.7373 71.196 43.7373 70.686V68.328H43.0173V67.275ZM50.022 68.427C49.842 68.367 49.662 68.337 49.482 68.337C49.218 68.337 48.999 68.4 48.825 68.526C48.657 68.652 48.546 68.811 48.492 69.003V72H47.232V67.275H48.222L48.357 67.932H48.474C48.594 67.686 48.753 67.497 48.951 67.365C49.155 67.233 49.386 67.167 49.644 67.167C49.806 67.167 49.992 67.2 50.202 67.266L50.022 68.427ZM50.8432 67.599C51.1132 67.479 51.4432 67.38 51.8332 67.302C52.2292 67.224 52.6372 67.185 53.0572 67.185C53.3872 67.185 53.6632 67.224 53.8852 67.302C54.1132 67.38 54.2932 67.494 54.4252 67.644C54.5572 67.788 54.6502 67.965 54.7042 68.175C54.7642 68.379 54.7942 68.607 54.7942 68.859C54.7942 69.165 54.7822 69.468 54.7582 69.768C54.7342 70.068 54.7222 70.386 54.7222 70.722C54.7222 70.95 54.7372 71.172 54.7672 71.388C54.7972 71.604 54.8452 71.811 54.9112 72.009H53.8852L53.6782 71.307H53.5702C53.4142 71.517 53.2162 71.697 52.9762 71.847C52.7362 71.997 52.4272 72.072 52.0492 72.072C51.8212 72.072 51.6112 72.039 51.4192 71.973C51.2332 71.907 51.0712 71.814 50.9332 71.694C50.8012 71.568 50.6962 71.421 50.6182 71.253C50.5462 71.085 50.5102 70.902 50.5102 70.704C50.5102 70.17 50.6872 69.768 51.0412 69.498C51.4012 69.222 51.9442 69.084 52.6702 69.084C52.8382 69.084 53.0062 69.099 53.1742 69.129C53.3422 69.153 53.4592 69.171 53.5252 69.183C53.5432 69.057 53.5522 68.949 53.5522 68.859C53.5522 68.631 53.4952 68.463 53.3812 68.355C53.2672 68.247 53.0542 68.193 52.7422 68.193C52.4542 68.193 52.1722 68.229 51.8962 68.301C51.6262 68.367 51.3862 68.451 51.1762 68.553L50.8432 67.599ZM52.4902 71.064C52.7722 71.064 52.9972 70.998 53.1652 70.866C53.3332 70.734 53.4562 70.596 53.5342 70.452V69.912C53.5042 69.9 53.4562 69.888 53.3902 69.876C53.3302 69.864 53.2612 69.852 53.1832 69.84C53.1112 69.828 53.0362 69.819 52.9582 69.813C52.8862 69.807 52.8202 69.804 52.7602 69.804C52.4362 69.804 52.1962 69.864 52.0402 69.984C51.8842 70.098 51.8062 70.242 51.8062 70.416C51.8062 70.632 51.8662 70.794 51.9862 70.902C52.1122 71.01 52.2802 71.064 52.4902 71.064ZM58.8901 68.427C58.7101 68.367 58.5301 68.337 58.3501 68.337C58.0861 68.337 57.8671 68.4 57.6931 68.526C57.5251 68.652 57.4141 68.811 57.3601 69.003V72H56.1001V67.275H57.0901L57.2251 67.932H57.3421C57.4621 67.686 57.6211 67.497 57.8191 67.365C58.0231 67.233 58.2541 67.167 58.5121 67.167C58.6741 67.167 58.8601 67.2 59.0701 67.266L58.8901 68.427ZM66.6801 66.87H64.6821V72H63.3501V66.87H61.3521V65.7H66.6801V66.87ZM66.3647 67.599C66.6347 67.479 66.9647 67.38 67.3547 67.302C67.7507 67.224 68.1587 67.185 68.5787 67.185C68.9087 67.185 69.1847 67.224 69.4067 67.302C69.6347 67.38 69.8147 67.494 69.9467 67.644C70.0787 67.788 70.1717 67.965 70.2257 68.175C70.2857 68.379 70.3157 68.607 70.3157 68.859C70.3157 69.165 70.3037 69.468 70.2797 69.768C70.2557 70.068 70.2437 70.386 70.2437 70.722C70.2437 70.95 70.2587 71.172 70.2887 71.388C70.3187 71.604 70.3667 71.811 70.4327 72.009H69.4067L69.1997 71.307H69.0917C68.9357 71.517 68.7377 71.697 68.4977 71.847C68.2577 71.997 67.9487 72.072 67.5707 72.072C67.3427 72.072 67.1327 72.039 66.9407 71.973C66.7547 71.907 66.5927 71.814 66.4547 71.694C66.3227 71.568 66.2177 71.421 66.1397 71.253C66.0677 71.085 66.0317 70.902 66.0317 70.704C66.0317 70.17 66.2087 69.768 66.5627 69.498C66.9227 69.222 67.4657 69.084 68.1917 69.084C68.3597 69.084 68.5277 69.099 68.6957 69.129C68.8637 69.153 68.9807 69.171 69.0467 69.183C69.0647 69.057 69.0737 68.949 69.0737 68.859C69.0737 68.631 69.0167 68.463 68.9027 68.355C68.7887 68.247 68.5757 68.193 68.2637 68.193C67.9757 68.193 67.6937 68.229 67.4177 68.301C67.1477 68.367 66.9077 68.451 66.6977 68.553L66.3647 67.599ZM68.0117 71.064C68.2937 71.064 68.5187 70.998 68.6867 70.866C68.8547 70.734 68.9777 70.596 69.0557 70.452V69.912C69.0257 69.9 68.9777 69.888 68.9117 69.876C68.8517 69.864 68.7827 69.852 68.7047 69.84C68.6327 69.828 68.5577 69.819 68.4797 69.813C68.4077 69.807 68.3417 69.804 68.2817 69.804C67.9577 69.804 67.7177 69.864 67.5617 69.984C67.4057 70.098 67.3277 70.242 67.3277 70.416C67.3277 70.632 67.3877 70.794 67.5077 70.902C67.6337 71.01 67.8017 71.064 68.0117 71.064ZM75.8966 71.82C75.8966 72.516 75.6986 73.029 75.3026 73.359C74.9066 73.689 74.3456 73.854 73.6196 73.854C73.1516 73.854 72.7736 73.821 72.4856 73.755C72.2036 73.695 71.9846 73.626 71.8286 73.548C71.9066 73.308 71.9636 73.116 71.9996 72.972C72.0416 72.834 72.0716 72.729 72.0896 72.657C72.1076 72.585 72.1196 72.54 72.1256 72.522C72.1316 72.504 72.1346 72.495 72.1346 72.495C72.2786 72.567 72.4526 72.639 72.6566 72.711C72.8606 72.789 73.1096 72.828 73.4036 72.828C73.6496 72.828 73.8536 72.804 74.0156 72.756C74.1776 72.708 74.3066 72.636 74.4026 72.54C74.4986 72.45 74.5646 72.339 74.6006 72.207C74.6426 72.075 74.6636 71.928 74.6636 71.766V71.415H74.5556C74.4356 71.589 74.2706 71.712 74.0606 71.784C73.8506 71.856 73.5896 71.892 73.2776 71.892C72.6356 71.892 72.1526 71.715 71.8286 71.361C71.5106 71.007 71.3516 70.437 71.3516 69.651C71.3516 68.823 71.5616 68.199 71.9816 67.779C72.4076 67.359 73.0376 67.149 73.8716 67.149C74.3096 67.149 74.6996 67.179 75.0416 67.239C75.3896 67.293 75.6746 67.356 75.8966 67.428V71.82ZM73.5746 70.911C73.8506 70.911 74.0756 70.86 74.2496 70.758C74.4296 70.656 74.5586 70.53 74.6366 70.38V68.346C74.4146 68.25 74.1326 68.202 73.7906 68.202C73.4246 68.202 73.1426 68.31 72.9446 68.526C72.7466 68.742 72.6476 69.099 72.6476 69.597C72.6476 70.053 72.7316 70.386 72.8996 70.596C73.0676 70.806 73.2926 70.911 73.5746 70.911ZM77.1849 70.776C77.2689 70.818 77.3649 70.86 77.4729 70.902C77.5869 70.944 77.7069 70.983 77.8329 71.019C77.9649 71.055 78.0969 71.085 78.2289 71.109C78.3669 71.133 78.5049 71.145 78.6429 71.145C78.8529 71.145 79.0149 71.112 79.1289 71.046C79.2489 70.98 79.3089 70.857 79.3089 70.677C79.3089 70.533 79.2309 70.428 79.0749 70.362C78.9189 70.29 78.7269 70.221 78.4989 70.155C78.3309 70.107 78.1539 70.05 77.9679 69.984C77.7879 69.918 77.6199 69.831 77.4639 69.723C77.3139 69.609 77.1879 69.462 77.0859 69.282C76.9899 69.102 76.9419 68.874 76.9419 68.598C76.9419 68.124 77.0889 67.764 77.3829 67.518C77.6769 67.266 78.0999 67.14 78.6519 67.14C79.0119 67.14 79.3479 67.173 79.6599 67.239C79.9779 67.299 80.2329 67.371 80.4249 67.455L80.1639 68.409C80.0079 68.349 79.8069 68.289 79.5609 68.229C79.3209 68.163 79.0749 68.13 78.8229 68.13C78.6129 68.13 78.4569 68.163 78.3549 68.229C78.2529 68.289 78.2019 68.397 78.2019 68.553C78.2019 68.691 78.2799 68.796 78.4359 68.868C78.5979 68.934 78.7929 69 79.0209 69.066C79.1889 69.114 79.3629 69.171 79.5429 69.237C79.7289 69.297 79.8969 69.381 80.0469 69.489C80.1969 69.597 80.3199 69.738 80.4159 69.912C80.5179 70.08 80.5689 70.293 80.5689 70.551C80.5689 71.055 80.4039 71.445 80.0739 71.721C79.7499 71.997 79.2609 72.135 78.6069 72.135C78.2529 72.135 77.9229 72.102 77.6169 72.036C77.3109 71.976 77.0619 71.886 76.8699 71.766L77.1849 70.776Z" fill="white"/>
<g clip-path="url(#clip0)">
<path d="M59.3404 10.6077H43.0676C42.0376 10.6077 41.0485 10.9868 40.3198 11.6605L19.1383 31.2399C17.6206 32.643 17.6206 34.9175 19.1383 36.3225L35.4111 51.3672C36.9288 52.7703 39.389 52.7703 40.9067 51.3672L62.0882 31.7878C62.8169 31.1123 63.227 30.1978 63.227 29.2439V14.2009C63.227 12.2157 61.4877 10.6077 59.3404 10.6077ZM52.539 23.1839C50.93 23.1839 49.6241 21.9766 49.6241 20.489C49.6241 19.0014 50.93 17.7941 52.539 17.7941C54.148 17.7941 55.4539 19.0014 55.4539 20.489C55.4539 21.9766 54.148 23.1839 52.539 23.1839Z" fill="white"/>
<path d="M67.1135 14.201L67.1115 30.9255C67.1115 31.7537 66.7559 32.5496 66.1205 33.1353L44.5969 53.0345L44.9273 53.3399C46.445 54.743 48.9051 54.743 50.4228 53.3399L69.8593 35.3739C70.59 34.7002 71 33.7857 71 32.8335V17.7942C71 15.8089 69.2608 14.201 67.1135 14.201Z" fill="white"/>
</g>
<defs>
<filter id="filter0_d" x="0" y="0" width="88" height="88" filterUnits="userSpaceOnUse" color-interpolation-filters="sRGB">
<feFlood flood-opacity="0" result="BackgroundImageFix"/>
<feColorMatrix in="SourceAlpha" type="matrix" values="0 0 0 0 0 0 0 0 0 0 0 0 0 0 0 0 0 0 127 0"/>
<feOffset dy="4"/>
<feGaussianBlur stdDeviation="2"/>
<feColorMatrix type="matrix" values="0 0 0 0 0 0 0 0 0 0 0 0 0 0 0 0 0 0 0.25 0"/>
<feBlend mode="normal" in2="BackgroundImageFix" result="effect1_dropShadow"/>
<feBlend mode="normal" in="SourceGraphic" in2="effect1_dropShadow" result="shape"/>
</filter>
<clipPath id="clip0">
<rect width="53" height="49" fill="white" transform="translate(18 8)"/>
</clipPath>
</defs>
</svg>
