<svg width="158" height="158" viewBox="0 0 158 158" fill="none" xmlns="http://www.w3.org/2000/svg">
<g clip-path="url(#clip0)" filter="url(#filter0_d)">
<rect width="150" height="150" transform="translate(4)" fill="#D0D050" fill-opacity="0.59"/>
<g filter="url(#filter1_d)">
<rect x="4" width="150" height="150" fill="#FFFF00" fill-opacity="0.49"/>
</g>
<path d="M122.5 51.5H110.5V48.5H121C121.828 48.5 122.5 47.8284 122.5 47V30.5C122.5 29.6716 121.828 29 121 29H97C96.1716 29 95.5 29.6716 95.5 30.5V47C95.5 47.8284 96.1716 48.5 97 48.5H107.5V51.5H92.4265C92.116 47.4487 89.9215 43.778 86.5 41.5865V24.5C86.5 17.0441 80.4559 11 73 11C65.5443 11 59.5 17.0441 59.5 24.5V41.5865C56.0785 43.778 53.884 47.4487 53.5735 51.5H50.5V48.5C50.5 47.6716 49.8284 47 49 47H48.7855V46.25C48.7816 43.7255 46.9816 41.5612 44.5 41.0975V41C44.5 40.1716 43.8284 39.5 43 39.5C42.1716 39.5 41.5 40.1716 41.5 41V41.0975C39.0184 41.5612 37.2184 43.7255 37.2145 46.25V47H37C36.1716 47 35.5 47.6716 35.5 48.5V51.5C34.6716 51.5 34 52.1716 34 53V59C34 59.8284 34.6716 60.5 35.5 60.5H37V99.5C37 100.328 37.6716 101 38.5 101H119.5C120.328 101 121 100.328 121 99.5V60.5H122.5C123.328 60.5 124 59.8284 124 59V53C124 52.1716 123.328 51.5 122.5 51.5ZM98.5 45.5V32H119.5V45.5H98.5ZM84.55 43.91C87.2974 45.5086 89.104 48.3354 89.401 51.5H74.5V47.087C75.7591 46.7686 76.8798 46.0483 77.692 45.035L79.696 42.53C81.2058 42.5962 82.6861 42.9704 84.046 43.6295C84.1939 43.7551 84.3653 43.8504 84.55 43.91ZM62.5 24.5C62.5 18.701 67.201 14 73 14C78.799 14 83.5 18.701 83.5 24.5V40.196C82.0452 39.7319 80.527 39.497 79 39.5C78.97 39.5 78.946 39.515 78.9175 39.5165C78.8157 39.5259 78.715 39.5459 78.6175 39.5765C78.5243 39.5951 78.4334 39.6234 78.346 39.6605C78.2699 39.7044 78.1977 39.7544 78.13 39.8105C78.0408 39.8698 77.9583 39.9387 77.884 40.016C77.866 40.0355 77.8405 40.046 77.8225 40.067L75.3505 43.16C74.2337 44.4581 72.2763 44.6053 70.978 43.4885C70.8604 43.3874 70.7506 43.2776 70.6495 43.16L68.1715 40.0625C68.1535 40.04 68.1265 40.031 68.1085 40.01C68.0371 39.9361 67.9581 39.8698 67.873 39.812C67.8008 39.7556 67.7241 39.7055 67.6435 39.662C67.5614 39.6282 67.4766 39.6018 67.39 39.5825C67.2886 39.5503 67.1839 39.5293 67.078 39.5195C67.051 39.5195 67.027 39.5045 67 39.5045C65.473 39.5015 63.9548 39.7364 62.5 40.2005V24.5ZM61.45 43.91C61.6375 43.8513 61.8113 43.7561 61.9615 43.6295C63.3214 42.9703 64.8018 42.5962 66.3115 42.53L68.3155 45.035C69.1259 46.0468 70.2438 46.7671 71.5 47.087V51.5H56.599C56.896 48.3354 58.7026 45.5086 61.45 43.91ZM40.2145 46.25C40.2145 45.0074 41.2219 44 42.4645 44H43.5355C44.7781 44 45.7855 45.0074 45.7855 46.25V47H40.2145V46.25ZM38.5 50H47.5V51.5H38.5V50ZM118 98H40V60.5H118V98ZM121 57.5H37V54.5H121V57.5Z" fill="#020202"/>
<path d="M80.5 23C77.848 23 73.579 22.304 72.8425 20.8295C72.5669 20.2944 72.0018 19.9722 71.401 20.0075C70.7969 20.0469 70.2756 20.4457 70.0795 21.0185C69.4019 23.0015 67.5919 24.3774 65.5 24.5C64.6716 24.5 64 25.1716 64 26V30.7535C64.0058 35.7217 68.0318 39.7477 73 39.7535V39.7565C77.9678 39.7499 81.9934 35.7243 82 30.7565V24.5C82 23.6716 81.3284 23 80.5 23ZM79 30.7475C79 34.0612 76.3137 36.7475 73 36.7475C69.6863 36.7475 67 34.0612 67 30.7475V27.3605C69.0059 26.9442 70.7599 25.7388 71.8675 24.0155C74.0568 25.2194 76.5023 25.8819 79 25.9475V30.7475Z" fill="#020202"/>
<path d="M21.56 116.368C21.944 116.304 22.36 116.248 22.808 116.2C23.272 116.136 23.736 116.088 24.2 116.056C24.664 116.024 25.112 116 25.544 115.984C25.992 115.968 26.4 115.96 26.768 115.96C27.616 115.96 28.448 116.032 29.264 116.176C30.096 116.32 30.832 116.568 31.472 116.92C32.128 117.272 32.656 117.76 33.056 118.384C33.456 118.992 33.656 119.76 33.656 120.688C33.656 122.064 33.312 123.2 32.624 124.096C31.952 124.976 31.016 125.576 29.816 125.896L31.088 126.64L35.288 133H31.16L26.984 126.496L25.112 126.208V133H21.56V116.368ZM27.008 119.08C26.64 119.08 26.28 119.088 25.928 119.104C25.592 119.104 25.32 119.128 25.112 119.176V123.808H26.624C27.632 123.808 28.424 123.616 29 123.232C29.592 122.848 29.888 122.184 29.888 121.24C29.888 120.536 29.64 120 29.144 119.632C28.648 119.264 27.936 119.08 27.008 119.08ZM46.9181 131.848C46.3741 132.264 45.6301 132.624 44.6861 132.928C43.7581 133.216 42.7581 133.36 41.6861 133.36C39.5261 133.36 37.9421 132.768 36.9341 131.584C35.9261 130.4 35.4221 128.776 35.4221 126.712C35.4221 124.52 35.9901 122.864 37.1261 121.744C38.2621 120.608 39.8621 120.04 41.9261 120.04C42.5981 120.04 43.2621 120.128 43.9181 120.304C44.5741 120.464 45.1581 120.744 45.6701 121.144C46.1821 121.528 46.5901 122.056 46.8941 122.728C47.2141 123.384 47.3741 124.2 47.3741 125.176C47.3741 125.512 47.3501 125.88 47.3021 126.28C47.2701 126.68 47.2061 127.096 47.1101 127.528H38.7101C38.7901 128.616 39.1021 129.424 39.6461 129.952C40.2061 130.464 41.1101 130.72 42.3581 130.72C43.1101 130.72 43.7821 130.616 44.3741 130.408C44.9821 130.184 45.4461 129.96 45.7661 129.736L46.9181 131.848ZM41.8781 122.68C40.8861 122.68 40.1501 122.952 39.6701 123.496C39.1901 124.024 38.9101 124.704 38.8301 125.536H44.2541C44.3181 124.656 44.1581 123.96 43.7741 123.448C43.3901 122.936 42.7581 122.68 41.8781 122.68ZM59.7554 132.232C59.2114 132.6 58.5554 132.88 57.7874 133.072C57.0354 133.264 56.2514 133.36 55.4354 133.36C54.3474 133.36 53.4274 133.2 52.6754 132.88C51.9394 132.56 51.3314 132.104 50.8514 131.512C50.3874 130.92 50.0514 130.224 49.8434 129.424C49.6354 128.608 49.5314 127.704 49.5314 126.712C49.5314 124.616 50.0434 122.984 51.0674 121.816C52.1074 120.632 53.6114 120.04 55.5794 120.04C56.5394 120.04 57.3234 120.12 57.9314 120.28C58.5554 120.424 59.1074 120.616 59.5874 120.856L58.7714 123.544C58.3554 123.368 57.9394 123.24 57.5234 123.16C57.1234 123.064 56.6514 123.016 56.1074 123.016C55.0994 123.016 54.3234 123.312 53.7794 123.904C53.2514 124.48 52.9874 125.416 52.9874 126.712C52.9874 127.224 53.0514 127.704 53.1794 128.152C53.3074 128.584 53.5074 128.968 53.7794 129.304C54.0514 129.64 54.3954 129.904 54.8114 130.096C55.2274 130.288 55.7154 130.384 56.2754 130.384C56.9474 130.384 57.4754 130.328 57.8594 130.216C58.2594 130.088 58.6354 129.92 58.9874 129.712L59.7554 132.232ZM72.5587 131.848C72.0147 132.264 71.2707 132.624 70.3267 132.928C69.3987 133.216 68.3987 133.36 67.3267 133.36C65.1667 133.36 63.5827 132.768 62.5747 131.584C61.5667 130.4 61.0627 128.776 61.0627 126.712C61.0627 124.52 61.6307 122.864 62.7667 121.744C63.9027 120.608 65.5027 120.04 67.5667 120.04C68.2387 120.04 68.9027 120.128 69.5587 120.304C70.2147 120.464 70.7987 120.744 71.3107 121.144C71.8227 121.528 72.2307 122.056 72.5347 122.728C72.8547 123.384 73.0147 124.2 73.0147 125.176C73.0147 125.512 72.9907 125.88 72.9427 126.28C72.9107 126.68 72.8467 127.096 72.7507 127.528H64.3507C64.4307 128.616 64.7427 129.424 65.2867 129.952C65.8467 130.464 66.7507 130.72 67.9987 130.72C68.7507 130.72 69.4227 130.616 70.0147 130.408C70.6227 130.184 71.0867 129.96 71.4067 129.736L72.5587 131.848ZM67.5187 122.68C66.5267 122.68 65.7907 122.952 65.3107 123.496C64.8307 124.024 64.5507 124.704 64.4707 125.536H69.8947C69.9587 124.656 69.7987 123.96 69.4147 123.448C69.0307 122.936 68.3987 122.68 67.5187 122.68ZM76.0327 120.4H78.4327L78.8407 121.96H79.1287C79.6247 121.32 80.2007 120.84 80.8567 120.52C81.5127 120.2 82.2807 120.04 83.1607 120.04C84.8567 120.04 86.1287 120.552 86.9767 121.576C87.8247 122.584 88.2487 124.192 88.2487 126.4C88.2487 127.456 88.1127 128.416 87.8407 129.28C87.5687 130.128 87.1687 130.864 86.6407 131.488C86.1127 132.096 85.4567 132.568 84.6727 132.904C83.9047 133.224 83.0167 133.384 82.0087 133.384C81.4647 133.384 80.9927 133.328 80.5927 133.216C80.1927 133.12 79.7927 132.984 79.3927 132.808V137.776H76.0327V120.4ZM82.1287 122.848C81.3607 122.848 80.7687 123.024 80.3527 123.376C79.9367 123.712 79.6167 124.24 79.3927 124.96V129.856C79.6647 130.08 79.9687 130.256 80.3047 130.384C80.6407 130.512 81.0647 130.576 81.5767 130.576C82.6647 130.576 83.4727 130.24 84.0007 129.568C84.5287 128.88 84.7927 127.792 84.7927 126.304C84.7927 125.232 84.5847 124.392 84.1687 123.784C83.7687 123.16 83.0887 122.848 82.1287 122.848ZM100.49 132.232C99.9458 132.6 99.2898 132.88 98.5218 133.072C97.7698 133.264 96.9858 133.36 96.1698 133.36C95.0818 133.36 94.1618 133.2 93.4098 132.88C92.6738 132.56 92.0658 132.104 91.5858 131.512C91.1218 130.92 90.7858 130.224 90.5778 129.424C90.3698 128.608 90.2658 127.704 90.2658 126.712C90.2658 124.616 90.7778 122.984 91.8018 121.816C92.8418 120.632 94.3458 120.04 96.3138 120.04C97.2738 120.04 98.0578 120.12 98.6658 120.28C99.2898 120.424 99.8418 120.616 100.322 120.856L99.5058 123.544C99.0898 123.368 98.6738 123.24 98.2578 123.16C97.8578 123.064 97.3858 123.016 96.8418 123.016C95.8338 123.016 95.0578 123.312 94.5138 123.904C93.9858 124.48 93.7218 125.416 93.7218 126.712C93.7218 127.224 93.7858 127.704 93.9138 128.152C94.0418 128.584 94.2418 128.968 94.5138 129.304C94.7858 129.64 95.1298 129.904 95.5458 130.096C95.9618 130.288 96.4498 130.384 97.0098 130.384C97.6818 130.384 98.2098 130.328 98.5938 130.216C98.9938 130.088 99.3698 129.92 99.7218 129.712L100.49 132.232ZM103.394 120.4H106.754V133H103.394V120.4ZM102.89 117.256C102.89 116.744 103.074 116.32 103.442 115.984C103.81 115.632 104.33 115.456 105.002 115.456C105.69 115.456 106.234 115.632 106.634 115.984C107.034 116.336 107.234 116.76 107.234 117.256C107.234 117.72 107.034 118.12 106.634 118.456C106.234 118.792 105.69 118.96 105.002 118.96C104.33 118.96 103.81 118.792 103.442 118.456C103.074 118.12 102.89 117.72 102.89 117.256ZM109.883 126.712C109.883 124.632 110.435 123 111.539 121.816C112.643 120.632 114.219 120.04 116.267 120.04C117.339 120.04 118.275 120.208 119.075 120.544C119.875 120.88 120.539 121.352 121.067 121.96C121.595 122.552 121.987 123.256 122.243 124.072C122.515 124.872 122.651 125.752 122.651 126.712C122.651 127.736 122.507 128.664 122.219 129.496C121.931 130.312 121.515 131.008 120.971 131.584C120.427 132.16 119.755 132.6 118.955 132.904C118.171 133.208 117.275 133.36 116.267 133.36C115.179 133.36 114.235 133.192 113.435 132.856C112.635 132.52 111.971 132.056 111.443 131.464C110.915 130.856 110.523 130.152 110.267 129.352C110.011 128.536 109.883 127.656 109.883 126.712ZM113.339 126.712C113.339 127.24 113.395 127.736 113.507 128.2C113.619 128.664 113.787 129.072 114.011 129.424C114.251 129.76 114.555 130.032 114.923 130.24C115.291 130.448 115.739 130.552 116.267 130.552C118.219 130.552 119.195 129.272 119.195 126.712C119.195 126.152 119.139 125.64 119.027 125.176C118.931 124.696 118.763 124.288 118.523 123.952C118.299 123.6 117.995 123.328 117.611 123.136C117.243 122.944 116.795 122.848 116.267 122.848C115.355 122.848 114.635 123.152 114.107 123.76C113.595 124.368 113.339 125.352 113.339 126.712ZM116.771 115.504H120.179V116.2L117.155 119.296H115.331L116.771 115.504ZM133.888 133V126.088C133.888 125 133.72 124.216 133.384 123.736C133.048 123.256 132.456 123.016 131.608 123.016C130.888 123.016 130.272 123.216 129.76 123.616C129.264 124 128.92 124.496 128.728 125.104C128.728 126.416 128.728 127.736 128.728 129.064C128.744 130.376 128.752 131.688 128.752 133H125.392V120.4H128.032L128.392 122.2H128.752C129.168 121.608 129.72 121.104 130.408 120.688C131.096 120.256 131.992 120.04 133.096 120.04C133.768 120.04 134.36 120.128 134.872 120.304C135.4 120.464 135.832 120.752 136.168 121.168C136.52 121.568 136.784 122.112 136.96 122.8C137.152 123.488 137.248 124.352 137.248 125.392V133H133.888Z" fill="#020202"/>
</g>
<defs>
<filter id="filter0_d" x="0" y="0" width="158" height="158" filterUnits="userSpaceOnUse" color-interpolation-filters="sRGB">
<feFlood flood-opacity="0" result="BackgroundImageFix"/>
<feColorMatrix in="SourceAlpha" type="matrix" values="0 0 0 0 0 0 0 0 0 0 0 0 0 0 0 0 0 0 127 0"/>
<feOffset dy="4"/>
<feGaussianBlur stdDeviation="2"/>
<feColorMatrix type="matrix" values="0 0 0 0 0 0 0 0 0 0 0 0 0 0 0 0 0 0 0.25 0"/>
<feBlend mode="normal" in2="BackgroundImageFix" result="effect1_dropShadow"/>
<feBlend mode="normal" in="SourceGraphic" in2="effect1_dropShadow" result="shape"/>
</filter>
<filter id="filter1_d" x="0" y="0" width="158" height="158" filterUnits="userSpaceOnUse" color-interpolation-filters="sRGB">
<feFlood flood-opacity="0" result="BackgroundImageFix"/>
<feColorMatrix in="SourceAlpha" type="matrix" values="0 0 0 0 0 0 0 0 0 0 0 0 0 0 0 0 0 0 127 0"/>
<feOffset dy="4"/>
<feGaussianBlur stdDeviation="2"/>
<feColorMatrix type="matrix" values="0 0 0 0 0 0 0 0 0 0 0 0 0 0 0 0 0 0 0.25 0"/>
<feBlend mode="normal" in2="BackgroundImageFix" result="effect1_dropShadow"/>
<feBlend mode="normal" in="SourceGraphic" in2="effect1_dropShadow" result="shape"/>
</filter>
<clipPath id="clip0">
<rect width="150" height="150" fill="white" transform="translate(4)"/>
</clipPath>
</defs>
</svg>
