<svg xmlns="http://www.w3.org/2000/svg" width="458" height="258" fill="none" viewBox="0 0 458 258"><g filter="url(#filter0_d)"><path fill="#D16014" d="M404 0H54C26.3858 0 4 22.3858 4 50V200C4 227.614 26.3858 250 54 250H404C431.614 250 454 227.614 454 200V50C454 22.3858 431.614 0 404 0Z"/></g><path fill="#fff" d="M236.833 115H211.5V108.333H233.667C235.415 108.333 236.833 106.841 236.833 105V68.3333C236.833 66.4924 235.415 65 233.667 65H183C181.251 65 179.833 66.4924 179.833 68.3333V105C179.833 106.841 181.251 108.333 183 108.333H205.167V115H173.345C172.689 105.997 168.057 97.84 160.833 92.97V55C160.833 38.4313 148.074 25 132.333 25C116.594 25 103.833 38.4313 103.833 55V92.97C96.6102 97.84 91.9773 105.997 91.3218 115H84.8333V108.333C84.8333 106.492 83.4155 105 81.6667 105H81.2138V103.333C81.2056 97.7233 77.4056 92.9138 72.1667 91.8833V91.6667C72.1667 89.8258 70.7488 88.3333 69 88.3333C67.2512 88.3333 65.8333 89.8258 65.8333 91.6667V91.8833C60.5944 92.9138 56.7944 97.7233 56.7862 103.333V105H56.3333C54.5845 105 53.1667 106.492 53.1667 108.333V115C51.4178 115 50 116.492 50 118.333V131.667C50 133.508 51.4178 135 53.1667 135H56.3333V221.667C56.3333 223.507 57.7512 225 59.5 225H230.5C232.248 225 233.667 223.507 233.667 221.667V135H236.833C238.581 135 240 133.508 240 131.667V118.333C240 116.492 238.581 115 236.833 115ZM186.167 101.667V71.6667H230.5V101.667H186.167ZM156.717 98.1333C162.517 101.686 166.331 107.968 166.958 115H135.5V105.193C138.158 104.486 140.524 102.885 142.239 100.633L146.469 95.0667C149.656 95.2138 152.782 96.0453 155.653 97.51C155.965 97.7891 156.327 98.0009 156.717 98.1333ZM110.167 55C110.167 42.1133 120.091 31.6667 132.333 31.6667C144.576 31.6667 154.5 42.1133 154.5 55V89.88C151.429 88.8487 148.224 88.3267 145 88.3333C144.937 88.3333 144.886 88.3667 144.826 88.37C144.611 88.3909 144.398 88.4353 144.193 88.5033C143.996 88.5447 143.804 88.6076 143.619 88.69C143.459 88.7876 143.306 88.8987 143.163 89.0233C142.975 89.1551 142.801 89.3082 142.644 89.48C142.606 89.5233 142.552 89.5467 142.514 89.5933L137.296 96.4667C134.938 99.3513 130.805 99.6784 128.065 97.1967C127.816 96.972 127.585 96.728 127.371 96.4667L122.14 89.5833C122.102 89.5333 122.045 89.5133 122.007 89.4667C121.856 89.3024 121.689 89.1551 121.51 89.0267C121.357 88.9013 121.195 88.79 121.025 88.6933C120.852 88.6184 120.673 88.5596 120.49 88.5167C120.276 88.4451 120.055 88.3984 119.831 88.3767C119.774 88.3767 119.724 88.3433 119.667 88.3433C116.443 88.3367 113.238 88.8587 110.167 89.89V55ZM107.95 98.1333C108.346 98.0029 108.713 97.7913 109.03 97.51C111.901 96.0451 115.026 95.2138 118.213 95.0667L122.444 100.633C124.155 102.882 126.515 104.482 129.167 105.193V115H97.709C98.336 107.968 102.15 101.686 107.95 98.1333ZM63.1195 103.333C63.1195 100.572 65.2462 98.3333 67.8695 98.3333H70.1305C72.7538 98.3333 74.8805 100.572 74.8805 103.333V105H63.1195V103.333ZM59.5 111.667H78.5V115H59.5V111.667ZM227.333 218.333H62.6667V135H227.333V218.333ZM233.667 128.333H56.3333V121.667H233.667V128.333Z"/><path fill="#fff" d="M148.167 51.6667C142.568 51.6667 133.556 50.12 132.001 46.8433C131.419 45.6542 130.226 44.9382 128.958 45.0167C127.682 45.1042 126.582 45.9904 126.168 47.2633C124.737 51.67 120.916 54.7275 116.5 55C114.751 55 113.333 56.4924 113.333 58.3333V68.8966C113.346 79.9371 121.845 88.8838 132.333 88.8966V88.9033C142.821 88.8886 151.319 79.9429 151.333 68.9033V55C151.333 53.1591 149.915 51.6667 148.167 51.6667ZM145 68.8833C145 76.2471 139.329 82.2166 132.333 82.2166C125.338 82.2166 119.667 76.2471 119.667 68.8833V61.3567C123.901 60.4315 127.604 57.7529 129.942 53.9233C134.564 56.5986 139.727 58.0709 145 58.2167V68.8833Z"/><path fill="#fff" d="M278 126.839C278.514 126.71 279.072 126.597 279.672 126.5C280.294 126.371 280.915 126.274 281.537 126.21C282.159 126.145 282.759 126.097 283.338 126.065C283.938 126.032 284.485 126.016 284.978 126.016C286.114 126.016 287.229 126.161 288.322 126.452C289.437 126.742 290.423 127.242 291.28 127.952C292.159 128.661 292.867 129.645 293.402 130.903C293.938 132.129 294.206 133.677 294.206 135.548C294.206 138.323 293.745 140.613 292.824 142.419C291.923 144.194 290.669 145.403 289.061 146.048L290.766 147.548L296.393 160.371H290.862L285.267 147.258L282.759 146.677V160.371H278V126.839ZM285.299 132.306C284.806 132.306 284.324 132.323 283.852 132.355C283.402 132.355 283.038 132.403 282.759 132.5V141.839H284.785C286.135 141.839 287.196 141.452 287.968 140.677C288.761 139.903 289.158 138.565 289.158 136.661C289.158 135.242 288.826 134.161 288.161 133.419C287.497 132.677 286.543 132.306 285.299 132.306ZM311.975 158.048C311.246 158.887 310.249 159.613 308.985 160.226C307.741 160.806 306.401 161.097 304.965 161.097C302.071 161.097 299.949 159.903 298.598 157.516C297.248 155.129 296.573 151.855 296.573 147.694C296.573 143.274 297.334 139.935 298.856 137.677C300.378 135.387 302.521 134.242 305.287 134.242C306.187 134.242 307.077 134.419 307.956 134.774C308.835 135.097 309.617 135.661 310.303 136.468C310.989 137.242 311.536 138.306 311.943 139.661C312.372 140.984 312.586 142.629 312.586 144.597C312.586 145.274 312.554 146.016 312.49 146.823C312.447 147.629 312.361 148.468 312.232 149.339H300.978C301.085 151.532 301.503 153.161 302.232 154.226C302.982 155.258 304.193 155.774 305.866 155.774C306.873 155.774 307.773 155.565 308.567 155.145C309.381 154.694 310.003 154.242 310.432 153.79L311.975 158.048ZM305.222 139.565C303.893 139.565 302.907 140.113 302.264 141.21C301.621 142.274 301.246 143.645 301.139 145.323H308.406C308.492 143.548 308.277 142.145 307.763 141.113C307.248 140.081 306.401 139.565 305.222 139.565ZM329.175 158.823C328.446 159.565 327.567 160.129 326.538 160.516C325.53 160.903 324.48 161.097 323.387 161.097C321.929 161.097 320.696 160.774 319.689 160.129C318.703 159.484 317.888 158.565 317.245 157.371C316.623 156.177 316.173 154.774 315.894 153.161C315.616 151.516 315.476 149.694 315.476 147.694C315.476 143.468 316.162 140.177 317.534 137.823C318.928 135.435 320.943 134.242 323.58 134.242C324.866 134.242 325.916 134.403 326.731 134.726C327.567 135.016 328.306 135.403 328.95 135.887L327.856 141.306C327.299 140.952 326.742 140.694 326.184 140.532C325.648 140.339 325.016 140.242 324.287 140.242C322.936 140.242 321.897 140.839 321.168 142.032C320.46 143.194 320.107 145.081 320.107 147.694C320.107 148.726 320.193 149.694 320.364 150.597C320.536 151.468 320.803 152.242 321.168 152.919C321.532 153.597 321.993 154.129 322.551 154.516C323.108 154.903 323.762 155.097 324.512 155.097C325.412 155.097 326.12 154.984 326.634 154.758C327.17 154.5 327.674 154.161 328.146 153.742L329.175 158.823ZM346.329 158.048C345.6 158.887 344.603 159.613 343.338 160.226C342.095 160.806 340.755 161.097 339.319 161.097C336.425 161.097 334.302 159.903 332.952 157.516C331.601 155.129 330.926 151.855 330.926 147.694C330.926 143.274 331.687 139.935 333.209 137.677C334.731 135.387 336.875 134.242 339.64 134.242C340.541 134.242 341.43 134.419 342.309 134.774C343.188 135.097 343.971 135.661 344.657 136.468C345.342 137.242 345.889 138.306 346.296 139.661C346.725 140.984 346.94 142.629 346.94 144.597C346.94 145.274 346.907 146.016 346.843 146.823C346.8 147.629 346.714 148.468 346.586 149.339H335.331C335.439 151.532 335.857 153.161 336.585 154.226C337.336 155.258 338.547 155.774 340.219 155.774C341.227 155.774 342.127 155.565 342.92 155.145C343.735 154.694 344.356 154.242 344.785 153.79L346.329 158.048ZM339.576 139.565C338.247 139.565 337.261 140.113 336.618 141.21C335.975 142.274 335.599 143.645 335.492 145.323H342.759C342.845 143.548 342.631 142.145 342.116 141.113C341.602 140.081 340.755 139.565 339.576 139.565ZM350.983 134.968H354.199L354.745 138.113H355.131C355.796 136.823 356.567 135.855 357.446 135.21C358.325 134.565 359.354 134.242 360.533 134.242C362.806 134.242 364.51 135.274 365.646 137.339C366.782 139.371 367.35 142.613 367.35 147.065C367.35 149.194 367.168 151.129 366.804 152.871C366.439 154.581 365.903 156.065 365.196 157.323C364.488 158.548 363.609 159.5 362.559 160.177C361.53 160.823 360.34 161.145 358.99 161.145C358.261 161.145 357.629 161.032 357.093 160.806C356.557 160.613 356.021 160.339 355.485 159.984V170H350.983V134.968ZM359.151 139.903C358.122 139.903 357.328 140.258 356.771 140.968C356.214 141.645 355.785 142.71 355.485 144.161V154.032C355.849 154.484 356.257 154.839 356.707 155.097C357.157 155.355 357.725 155.484 358.411 155.484C359.869 155.484 360.951 154.806 361.659 153.452C362.366 152.064 362.72 149.871 362.72 146.871C362.72 144.71 362.441 143.016 361.884 141.79C361.348 140.532 360.437 139.903 359.151 139.903ZM383.751 158.823C383.022 159.565 382.143 160.129 381.114 160.516C380.107 160.903 379.056 161.097 377.963 161.097C376.505 161.097 375.273 160.774 374.265 160.129C373.279 159.484 372.464 158.565 371.821 157.371C371.2 156.177 370.749 154.774 370.471 153.161C370.192 151.516 370.053 149.694 370.053 147.694C370.053 143.468 370.739 140.177 372.111 137.823C373.504 135.435 375.519 134.242 378.156 134.242C379.442 134.242 380.493 134.403 381.307 134.726C382.143 135.016 382.883 135.403 383.526 135.887L382.433 141.306C381.875 140.952 381.318 140.694 380.761 140.532C380.225 140.339 379.592 140.242 378.863 140.242C377.513 140.242 376.473 140.839 375.744 142.032C375.037 143.194 374.683 145.081 374.683 147.694C374.683 148.726 374.769 149.694 374.94 150.597C375.112 151.468 375.38 152.242 375.744 152.919C376.109 153.597 376.57 154.129 377.127 154.516C377.684 154.903 378.338 155.097 379.088 155.097C379.989 155.097 380.696 154.984 381.211 154.758C381.747 154.5 382.25 154.161 382.722 153.742L383.751 158.823ZM387.642 134.968H392.144V160.371H387.642V134.968ZM386.967 128.629C386.967 127.597 387.213 126.742 387.706 126.065C388.199 125.355 388.896 125 389.796 125C390.718 125 391.447 125.355 391.983 126.065C392.519 126.774 392.787 127.629 392.787 128.629C392.787 129.565 392.519 130.371 391.983 131.048C391.447 131.726 390.718 132.065 389.796 132.065C388.896 132.065 388.199 131.726 387.706 131.048C387.213 130.371 386.967 129.565 386.967 128.629ZM396.336 147.694C396.336 143.5 397.076 140.21 398.555 137.823C400.034 135.435 402.146 134.242 404.889 134.242C406.326 134.242 407.58 134.581 408.652 135.258C409.723 135.935 410.613 136.887 411.321 138.113C412.028 139.306 412.553 140.726 412.896 142.371C413.261 143.984 413.443 145.758 413.443 147.694C413.443 149.758 413.25 151.629 412.864 153.306C412.478 154.952 411.921 156.355 411.192 157.516C410.463 158.677 409.563 159.565 408.491 160.177C407.44 160.79 406.24 161.097 404.889 161.097C403.432 161.097 402.167 160.758 401.095 160.081C400.023 159.403 399.134 158.468 398.426 157.274C397.719 156.048 397.194 154.629 396.851 153.016C396.508 151.371 396.336 149.597 396.336 147.694ZM400.966 147.694C400.966 148.758 401.042 149.758 401.192 150.694C401.342 151.629 401.567 152.452 401.867 153.161C402.188 153.839 402.596 154.387 403.089 154.806C403.582 155.226 404.182 155.435 404.889 155.435C407.505 155.435 408.812 152.855 408.812 147.694C408.812 146.565 408.737 145.532 408.587 144.597C408.459 143.629 408.234 142.806 407.912 142.129C407.612 141.419 407.205 140.871 406.69 140.484C406.197 140.097 405.597 139.903 404.889 139.903C403.668 139.903 402.703 140.516 401.995 141.742C401.309 142.968 400.966 144.952 400.966 147.694ZM405.565 125.097H410.131V126.5L406.079 132.742H403.635L405.565 125.097ZM428.498 160.371V146.435C428.498 144.242 428.273 142.661 427.823 141.694C427.373 140.726 426.58 140.242 425.443 140.242C424.479 140.242 423.653 140.645 422.967 141.452C422.303 142.226 421.842 143.226 421.585 144.452C421.585 147.097 421.585 149.758 421.585 152.435C421.606 155.081 421.617 157.726 421.617 160.371H417.115V134.968H420.652L421.135 138.597H421.617C422.174 137.403 422.914 136.387 423.836 135.548C424.757 134.677 425.958 134.242 427.437 134.242C428.337 134.242 429.131 134.419 429.817 134.774C430.524 135.097 431.103 135.677 431.553 136.516C432.025 137.323 432.378 138.419 432.614 139.806C432.871 141.194 433 142.935 433 145.032V160.371H428.498Z"/><defs><filter id="filter0_d" width="458" height="258" x="0" y="0" color-interpolation-filters="sRGB" filterUnits="userSpaceOnUse"><feFlood flood-opacity="0" result="BackgroundImageFix"/><feColorMatrix in="SourceAlpha" type="matrix" values="0 0 0 0 0 0 0 0 0 0 0 0 0 0 0 0 0 0 127 0"/><feOffset dy="4"/><feGaussianBlur stdDeviation="2"/><feColorMatrix type="matrix" values="0 0 0 0 0 0 0 0 0 0 0 0 0 0 0 0 0 0 0.25 0"/><feBlend in2="BackgroundImageFix" mode="normal" result="effect1_dropShadow"/><feBlend in="SourceGraphic" in2="effect1_dropShadow" mode="normal" result="shape"/></filter></defs></svg>