<svg width="104" height="107" viewBox="0 0 104 107" fill="none" xmlns="http://www.w3.org/2000/svg">
<g clip-path="url(#clip0)" filter="url(#filter0_d)">
<g filter="url(#filter1_d)">
<rect x="4" width="90" height="90" rx="20" fill="#21A0A0"/>
</g>
<path d="M12.851 80.361H10.255L9.628 82H8L11.014 74.245H12.213L15.238 82H13.511L12.851 80.361ZM10.706 79.074H12.466L11.872 77.468L11.608 76.247H11.553L11.289 77.479L10.706 79.074ZM21.2902 79.976C21.2902 80.284 21.2939 80.603 21.3012 80.933C21.3086 81.263 21.3416 81.6223 21.4002 82.011H20.3332L20.1132 81.208H19.9702C19.8016 81.5013 19.5596 81.736 19.2442 81.912C18.9362 82.0807 18.5659 82.165 18.1332 82.165C17.3632 82.165 16.7656 81.9267 16.3402 81.45C15.9149 80.966 15.7022 80.2217 15.7022 79.217C15.7022 78.733 15.7609 78.2967 15.8782 77.908C16.0029 77.5193 16.1826 77.1893 16.4172 76.918C16.6592 76.6467 16.9562 76.4377 17.3082 76.291C17.6602 76.1443 18.0672 76.071 18.5292 76.071C18.7859 76.071 19.0059 76.093 19.1892 76.137C19.3799 76.1737 19.5669 76.2213 19.7502 76.28V74.3H21.2902V79.976ZM18.5292 80.878C18.8739 80.878 19.1416 80.801 19.3322 80.647C19.5229 80.4857 19.6622 80.2583 19.7502 79.965V77.655C19.6182 77.5523 19.4752 77.479 19.3212 77.435C19.1746 77.3837 18.9802 77.358 18.7382 77.358C18.2469 77.358 17.8802 77.501 17.6382 77.787C17.4036 78.073 17.2862 78.5643 17.2862 79.261C17.2862 79.745 17.3852 80.1373 17.5832 80.438C17.7886 80.7313 18.1039 80.878 18.5292 80.878ZM26.5475 82V78.986C26.5475 78.4287 26.4888 78.029 26.3715 77.787C26.2541 77.545 26.0121 77.424 25.6455 77.424C25.3375 77.424 25.0918 77.501 24.9085 77.655C24.7251 77.8017 24.5821 77.996 24.4795 78.238V82H22.9395V76.225H24.1275L24.3035 77.028H24.4465C24.5418 76.9033 24.6518 76.7823 24.7765 76.665C24.9011 76.5477 25.0368 76.445 25.1835 76.357C25.3375 76.269 25.5061 76.1993 25.6895 76.148C25.8801 76.0893 26.0928 76.06 26.3275 76.06C26.7161 76.06 27.0388 76.148 27.2955 76.324C27.5595 76.4927 27.7685 76.7787 27.9225 77.182C28.1351 76.83 28.3918 76.555 28.6925 76.357C29.0005 76.159 29.3561 76.06 29.7595 76.06C30.1115 76.06 30.4085 76.1003 30.6505 76.181C30.8998 76.2617 31.1015 76.401 31.2555 76.599C31.4095 76.797 31.5195 77.0647 31.5855 77.402C31.6588 77.7393 31.6955 78.161 31.6955 78.667V82H30.1555V78.909C30.1555 78.667 30.1445 78.4543 30.1225 78.271C30.1005 78.0877 30.0565 77.9337 29.9905 77.809C29.9245 77.677 29.8291 77.5817 29.7045 77.523C29.5871 77.457 29.4295 77.424 29.2315 77.424C28.9235 77.424 28.6741 77.5047 28.4835 77.666C28.3001 77.82 28.1681 78.0363 28.0875 78.315V82H26.5475ZM33.4712 76.225H35.0112V82H33.4712V76.225ZM33.2402 74.784C33.2402 74.5493 33.3245 74.355 33.4932 74.201C33.6619 74.0397 33.9002 73.959 34.2082 73.959C34.5235 73.959 34.7729 74.0397 34.9562 74.201C35.1395 74.3623 35.2312 74.5567 35.2312 74.784C35.2312 74.9967 35.1395 75.18 34.9562 75.334C34.7729 75.488 34.5235 75.565 34.2082 75.565C33.9002 75.565 33.6619 75.488 33.4932 75.334C33.3245 75.18 33.2402 74.9967 33.2402 74.784ZM40.6694 82V78.832C40.6694 78.3333 40.5924 77.974 40.4384 77.754C40.2844 77.534 40.0131 77.424 39.6244 77.424C39.2944 77.424 39.0121 77.5157 38.7774 77.699C38.5501 77.875 38.3924 78.1023 38.3044 78.381C38.3044 78.9823 38.3044 79.5873 38.3044 80.196C38.3117 80.7973 38.3154 81.3987 38.3154 82H36.7754V76.225H37.9854L38.1504 77.05H38.3154C38.5061 76.7787 38.7591 76.5477 39.0744 76.357C39.3897 76.159 39.8004 76.06 40.3064 76.06C40.6144 76.06 40.8857 76.1003 41.1204 76.181C41.3624 76.2543 41.5604 76.3863 41.7144 76.577C41.8757 76.7603 41.9967 77.0097 42.0774 77.325C42.1654 77.6403 42.2094 78.0363 42.2094 78.513V82H40.6694ZM43.977 76.225H45.517V82H43.977V76.225ZM43.746 74.784C43.746 74.5493 43.8304 74.355 43.999 74.201C44.1677 74.0397 44.406 73.959 44.714 73.959C45.0294 73.959 45.2787 74.0397 45.462 74.201C45.6454 74.3623 45.737 74.5567 45.737 74.784C45.737 74.9967 45.6454 75.18 45.462 75.334C45.2787 75.488 45.0294 75.565 44.714 75.565C44.406 75.565 44.1677 75.488 43.999 75.334C43.8304 75.18 43.746 74.9967 43.746 74.784ZM47.2703 80.504C47.3729 80.5553 47.4903 80.6067 47.6223 80.658C47.7616 80.7093 47.9083 80.757 48.0623 80.801C48.2236 80.845 48.3849 80.8817 48.5463 80.911C48.7149 80.9403 48.8836 80.955 49.0523 80.955C49.3089 80.955 49.5069 80.9147 49.6463 80.834C49.7929 80.7533 49.8663 80.603 49.8663 80.383C49.8663 80.207 49.7709 80.0787 49.5803 79.998C49.3896 79.91 49.1549 79.8257 48.8763 79.745C48.6709 79.6863 48.4546 79.6167 48.2273 79.536C48.0073 79.4553 47.8019 79.349 47.6113 79.217C47.4279 79.0777 47.2739 78.898 47.1493 78.678C47.0319 78.458 46.9733 78.1793 46.9733 77.842C46.9733 77.2627 47.1529 76.8227 47.5123 76.522C47.8716 76.214 48.3886 76.06 49.0633 76.06C49.5033 76.06 49.9139 76.1003 50.2953 76.181C50.6839 76.2543 50.9956 76.3423 51.2303 76.445L50.9113 77.611C50.7206 77.5377 50.4749 77.4643 50.1743 77.391C49.8809 77.3103 49.5803 77.27 49.2723 77.27C49.0156 77.27 48.8249 77.3103 48.7003 77.391C48.5756 77.4643 48.5133 77.5963 48.5133 77.787C48.5133 77.9557 48.6086 78.084 48.7993 78.172C48.9973 78.2527 49.2356 78.3333 49.5143 78.414C49.7196 78.4727 49.9323 78.5423 50.1523 78.623C50.3796 78.6963 50.5849 78.799 50.7683 78.931C50.9516 79.063 51.1019 79.2353 51.2193 79.448C51.3439 79.6533 51.4063 79.9137 51.4063 80.229C51.4063 80.845 51.2046 81.3217 50.8013 81.659C50.4053 81.9963 49.8076 82.165 49.0083 82.165C48.5756 82.165 48.1723 82.1247 47.7983 82.044C47.4243 81.9707 47.1199 81.8607 46.8853 81.714L47.2703 80.504ZM51.8946 76.225H52.7746V75.433L54.3146 75.026V76.225H55.8656V77.512H54.3146V79.514C54.3146 79.976 54.3586 80.3097 54.4466 80.515C54.542 80.713 54.7253 80.812 54.9966 80.812C55.1653 80.812 55.3083 80.801 55.4256 80.779C55.543 80.7497 55.6676 80.7057 55.7996 80.647L56.1186 81.802C55.884 81.9047 55.6126 81.9927 55.3046 82.066C55.004 82.1393 54.7106 82.176 54.4246 82.176C53.8526 82.176 53.4346 82.0367 53.1706 81.758C52.9066 81.472 52.7746 81.0173 52.7746 80.394V77.512H51.8946V76.225ZM60.4559 77.633C60.2359 77.5597 60.0159 77.523 59.7959 77.523C59.4732 77.523 59.2056 77.6 58.9929 77.754C58.7876 77.908 58.6519 78.1023 58.5859 78.337V82H57.0459V76.225H58.2559L58.4209 77.028H58.5639C58.7106 76.7273 58.9049 76.4963 59.1469 76.335C59.3962 76.1737 59.6786 76.093 59.9939 76.093C60.1919 76.093 60.4192 76.1333 60.6759 76.214L60.4559 77.633ZM61.4597 76.621C61.7897 76.4743 62.193 76.3533 62.6697 76.258C63.1537 76.1627 63.6523 76.115 64.1657 76.115C64.569 76.115 64.9063 76.1627 65.1777 76.258C65.4563 76.3533 65.6763 76.4927 65.8377 76.676C65.999 76.852 66.1127 77.0683 66.1787 77.325C66.252 77.5743 66.2887 77.853 66.2887 78.161C66.2887 78.535 66.274 78.9053 66.2447 79.272C66.2153 79.6387 66.2007 80.0273 66.2007 80.438C66.2007 80.7167 66.219 80.988 66.2557 81.252C66.2923 81.516 66.351 81.769 66.4317 82.011H65.1777L64.9247 81.153H64.7927C64.602 81.4097 64.36 81.6297 64.0667 81.813C63.7733 81.9963 63.3957 82.088 62.9337 82.088C62.655 82.088 62.3983 82.0477 62.1637 81.967C61.9363 81.8863 61.7383 81.7727 61.5697 81.626C61.4083 81.472 61.28 81.2923 61.1847 81.087C61.0967 80.8817 61.0527 80.658 61.0527 80.416C61.0527 79.7633 61.269 79.272 61.7017 78.942C62.1417 78.6047 62.8053 78.436 63.6927 78.436C63.898 78.436 64.1033 78.4543 64.3087 78.491C64.514 78.5203 64.657 78.5423 64.7377 78.557C64.7597 78.403 64.7707 78.271 64.7707 78.161C64.7707 77.8823 64.701 77.677 64.5617 77.545C64.4223 77.413 64.162 77.347 63.7807 77.347C63.4287 77.347 63.084 77.391 62.7467 77.479C62.4167 77.5597 62.1233 77.6623 61.8667 77.787L61.4597 76.621ZM63.4727 80.856C63.8173 80.856 64.0923 80.7753 64.2977 80.614C64.503 80.4527 64.6533 80.284 64.7487 80.108V79.448C64.712 79.4333 64.6533 79.4187 64.5727 79.404C64.4993 79.3893 64.415 79.3747 64.3197 79.36C64.2317 79.3453 64.14 79.3343 64.0447 79.327C63.9567 79.3197 63.876 79.316 63.8027 79.316C63.4067 79.316 63.1133 79.3893 62.9227 79.536C62.732 79.6753 62.6367 79.8513 62.6367 80.064C62.6367 80.328 62.71 80.526 62.8567 80.658C63.0107 80.79 63.216 80.856 63.4727 80.856ZM72.2408 81.648C71.9914 81.8167 71.6908 81.945 71.3388 82.033C70.9941 82.121 70.6348 82.165 70.2608 82.165C69.7621 82.165 69.3404 82.0917 68.9958 81.945C68.6584 81.7983 68.3798 81.5893 68.1598 81.318C67.9471 81.0467 67.7931 80.7277 67.6978 80.361C67.6024 79.987 67.5548 79.5727 67.5548 79.118C67.5548 78.1573 67.7894 77.4093 68.2588 76.874C68.7354 76.3313 69.4248 76.06 70.3268 76.06C70.7668 76.06 71.1261 76.0967 71.4048 76.17C71.6908 76.236 71.9438 76.324 72.1638 76.434L71.7898 77.666C71.5991 77.5853 71.4084 77.5267 71.2178 77.49C71.0344 77.446 70.8181 77.424 70.5688 77.424C70.1068 77.424 69.7511 77.5597 69.5018 77.831C69.2598 78.095 69.1388 78.524 69.1388 79.118C69.1388 79.3527 69.1681 79.5727 69.2268 79.778C69.2854 79.976 69.3771 80.152 69.5018 80.306C69.6264 80.46 69.7841 80.581 69.9748 80.669C70.1654 80.757 70.3891 80.801 70.6458 80.801C70.9538 80.801 71.1958 80.7753 71.3718 80.724C71.5551 80.6653 71.7274 80.5883 71.8888 80.493L72.2408 81.648ZM73.5718 76.225H75.1118V82H73.5718V76.225ZM73.3408 74.784C73.3408 74.5493 73.4251 74.355 73.5938 74.201C73.7624 74.0397 74.0008 73.959 74.3088 73.959C74.6241 73.959 74.8734 74.0397 75.0568 74.201C75.2401 74.3623 75.3318 74.5567 75.3318 74.784C75.3318 74.9967 75.2401 75.18 75.0568 75.334C74.8734 75.488 74.6241 75.565 74.3088 75.565C74.0008 75.565 73.7624 75.488 73.5938 75.334C73.4251 75.18 73.3408 74.9967 73.3408 74.784ZM76.546 79.118C76.546 78.1647 76.799 77.4167 77.305 76.874C77.811 76.3313 78.5333 76.06 79.472 76.06C79.9633 76.06 80.3923 76.137 80.759 76.291C81.1257 76.445 81.43 76.6613 81.672 76.94C81.914 77.2113 82.0937 77.534 82.211 77.908C82.3357 78.2747 82.398 78.678 82.398 79.118C82.398 79.5873 82.332 80.0127 82.2 80.394C82.068 80.768 81.8773 81.087 81.628 81.351C81.3787 81.615 81.0707 81.8167 80.704 81.956C80.3447 82.0953 79.934 82.165 79.472 82.165C78.9733 82.165 78.5407 82.088 78.174 81.934C77.8073 81.78 77.503 81.5673 77.261 81.296C77.019 81.0173 76.8393 80.6947 76.722 80.328C76.6047 79.954 76.546 79.5507 76.546 79.118ZM78.13 79.118C78.13 79.36 78.1557 79.5873 78.207 79.8C78.2583 80.0127 78.3353 80.1997 78.438 80.361C78.548 80.515 78.6873 80.6397 78.856 80.735C79.0247 80.8303 79.23 80.878 79.472 80.878C80.3667 80.878 80.814 80.2913 80.814 79.118C80.814 78.8613 80.7883 78.6267 80.737 78.414C80.693 78.194 80.616 78.007 80.506 77.853C80.4033 77.6917 80.264 77.567 80.088 77.479C79.9193 77.391 79.714 77.347 79.472 77.347C79.054 77.347 78.724 77.4863 78.482 77.765C78.2473 78.0437 78.13 78.4947 78.13 79.118ZM79.703 73.981H81.265V74.3L79.879 75.719H79.043L79.703 73.981ZM87.5483 82V78.832C87.5483 78.3333 87.4713 77.974 87.3173 77.754C87.1633 77.534 86.892 77.424 86.5033 77.424C86.1733 77.424 85.891 77.5157 85.6563 77.699C85.429 77.875 85.2713 78.1023 85.1833 78.381C85.1833 78.9823 85.1833 79.5873 85.1833 80.196C85.1906 80.7973 85.1943 81.3987 85.1943 82H83.6543V76.225H84.8643L85.0293 77.05H85.1943C85.385 76.7787 85.638 76.5477 85.9533 76.357C86.2686 76.159 86.6793 76.06 87.1853 76.06C87.4933 76.06 87.7646 76.1003 87.9993 76.181C88.2413 76.2543 88.4393 76.3863 88.5933 76.577C88.7546 76.7603 88.8756 77.0097 88.9563 77.325C89.0443 77.6403 89.0883 78.0363 89.0883 78.513V82H87.5483Z" fill="white"/>
<path d="M75.3487 38.9517V36.7195C75.9435 36.7195 76.4264 36.2199 76.4264 35.6034V28.9068C76.4264 28.2904 75.9435 27.7907 75.3487 27.7907H69.5294L69.3206 26.9524C68.8441 25.0349 68.104 23.1982 67.1219 21.4992L66.6909 20.7524L70.8226 16.4659C71.2385 16.0343 71.2385 15.335 70.8226 14.9033L66.2459 10.1565C65.8233 9.73922 65.1594 9.73922 64.7368 10.1565L60.5975 14.4434L59.8768 13.9969C58.2338 12.9794 56.4586 12.2129 54.6047 11.719L53.7956 11.501V5.46886C53.7956 4.85239 53.3132 4.35276 52.718 4.35276H46.252C45.6568 4.35276 45.1744 4.85239 45.1744 5.46886V11.4958L44.3649 11.7124C42.5135 12.2055 40.74 12.972 39.0987 13.9878L38.3775 14.4347L34.2395 10.1565C33.8165 9.73574 33.1484 9.73574 32.7253 10.1565L28.1474 14.8964C27.9462 15.1043 27.8329 15.3868 27.8329 15.6811C27.8329 15.9758 27.9462 16.2579 28.1474 16.4659L32.2867 20.7524L31.8556 21.4992C30.8739 23.1982 30.1335 25.0349 29.6574 26.9524L29.4461 27.7907H23.6212C23.026 27.7907 22.5436 28.2904 22.5436 28.9068V35.6034C22.5436 36.2199 23.026 36.7195 23.6212 36.7195V38.9517C21.8359 38.9517 20.3883 37.4524 20.3883 35.6034V28.9068C20.3883 27.0579 21.8359 25.5586 23.6212 25.5586H27.7908C28.2354 24.0152 28.8365 22.525 29.5841 21.1134L26.6206 18.0441C26.0144 17.4176 25.6738 16.5675 25.6738 15.6811C25.6738 14.7948 26.0144 13.9446 26.6206 13.3186L31.2006 8.57517C32.4765 7.31041 34.4883 7.31041 35.7642 8.57517L38.7269 11.6431C40.09 10.8693 41.5293 10.248 43.019 9.78805V5.46886C43.019 3.61989 44.4667 2.12057 46.252 2.12057H52.718C54.5032 2.12057 55.9509 3.61989 55.9509 5.46886V9.78805C57.4411 10.248 58.8795 10.8706 60.243 11.6444L63.2066 8.57517C64.4829 7.31041 66.4943 7.31041 67.7706 8.57517L72.3498 13.3173C72.9556 13.9438 73.2957 14.793 73.2957 15.6798C73.2957 16.5666 72.9556 17.4167 72.3498 18.0428L69.3863 21.112C70.1335 22.5246 70.7342 24.0152 71.1791 25.5586H75.3487C77.134 25.5586 78.5817 27.0579 78.5817 28.9068V35.6034C78.5817 37.4524 77.134 38.9517 75.3487 38.9517Z" fill="white"/>
<path d="M64.5722 32.2551H62.4169C62.4169 24.8584 56.627 18.862 49.485 18.862C42.343 18.862 36.5531 24.8584 36.5531 32.2551H34.3978C34.3978 23.6254 41.1525 16.6298 49.485 16.6298C57.8171 16.6298 64.5722 23.6254 64.5722 32.2551Z" fill="white"/>
<path d="M49.485 41.1839C45.914 41.1839 43.0191 38.1852 43.0191 34.4873C43.0191 30.7889 45.914 27.7907 49.485 27.7907C53.0564 27.7907 55.9509 30.7889 55.9509 34.4873C55.9472 38.1844 53.0547 41.1799 49.485 41.1839ZM49.485 30.0229C47.1045 30.0229 45.1744 32.0219 45.1744 34.4873C45.1744 36.9527 47.1045 38.9517 49.485 38.9517C51.8655 38.9517 53.7956 36.9527 53.7956 34.4873C53.7956 32.0219 51.8655 30.0229 49.485 30.0229Z" fill="white"/>
<path d="M67.8052 45.6483C64.2342 45.6483 61.3392 42.6496 61.3392 38.9517C61.3392 35.2533 64.2342 32.2551 67.8052 32.2551C71.3762 32.2551 74.2711 35.2533 74.2711 38.9517C74.2673 42.6488 71.3749 45.6444 67.8052 45.6483ZM67.8052 34.4873C65.4246 34.4873 63.4945 36.4863 63.4945 38.9517C63.4945 41.4171 65.4246 43.4161 67.8052 43.4161C70.1857 43.4161 72.1158 41.4171 72.1158 38.9517C72.1158 36.4863 70.1857 34.4873 67.8052 34.4873Z" fill="white"/>
<path d="M31.1648 45.6483C27.5938 45.6483 24.6989 42.6496 24.6989 38.9517C24.6989 35.2533 27.5938 32.2551 31.1648 32.2551C34.7363 32.2551 37.6308 35.2533 37.6308 38.9517C37.627 42.6488 34.7346 45.6444 31.1648 45.6483ZM31.1648 34.4873C28.7843 34.4873 26.8542 36.4863 26.8542 38.9517C26.8542 41.4171 28.7843 43.4161 31.1648 43.4161C33.5454 43.4161 35.4755 41.4171 35.4755 38.9517C35.4755 36.4863 33.5454 34.4873 31.1648 34.4873Z" fill="white"/>
<path d="M77.5747 48.5117C75.9688 47.3686 74.0648 46.7587 72.1157 46.7643H63.4945C62.9704 46.7691 62.4472 46.8184 61.9306 46.9113C61.2411 45.7943 60.344 44.8308 59.2916 44.0752C59.1338 43.9519 58.9679 43.8398 58.7949 43.7409C57.2875 42.7952 55.5577 42.2973 53.7956 42.3H45.1744C41.8787 42.2878 38.8078 44.0295 37.0423 46.9113C36.5245 46.8184 36.0004 46.7691 35.4754 46.7643H26.8542C24.9068 46.7587 23.0033 47.3677 21.3981 48.5095C18.7453 50.379 17.157 53.4862 17.1553 56.8092V61.2736C17.1591 64.321 18.8711 67.0886 21.5438 68.3651C22.5305 68.8464 23.6086 69.0928 24.6989 69.0862H35.4754V66.854H25.7765V54.577H23.6212V66.742C23.2154 66.6578 22.8214 66.5218 22.4476 66.3383C20.5385 65.4267 19.3148 63.4504 19.3106 61.2736V56.8092C19.3131 54.223 20.5503 51.8055 22.6147 50.3511C23.862 49.4643 25.3409 48.9922 26.8542 48.9965H35.4754C35.6653 48.9965 35.8484 49.0175 36.0336 49.0305C35.6691 50.0952 35.4801 51.2156 35.4754 52.3448V63.5057C35.4792 66.5863 37.8896 69.0823 40.8637 69.0862H44.0967V51.2287H41.9414V66.854H40.8637C39.0784 66.854 37.6308 65.3547 37.6308 63.5057V52.3448C37.6308 48.0295 41.0085 44.5321 45.1744 44.5321H53.7956C55.1822 44.533 56.5411 44.9306 57.7236 45.6805C57.833 45.7424 57.9383 45.8122 58.038 45.8889C59.0479 46.6052 59.8768 47.5622 60.4543 48.6791C61.0348 49.8074 61.3392 51.0661 61.3392 52.3448V63.5057C61.3392 65.3547 59.8915 66.854 58.1062 66.854H57.0286V51.2287H54.8733V69.0862H58.1062C61.0807 69.0823 63.4907 66.5863 63.4945 63.5057V52.3448C63.4894 51.2156 63.3013 50.0956 62.9372 49.0305C63.1228 49.0175 63.3059 48.9965 63.4945 48.9965H72.1157C73.6299 48.9922 75.11 49.4656 76.3582 50.3533C78.4209 51.8086 79.6564 54.2243 79.6593 56.8092V61.2736C79.6556 63.4582 78.4226 65.4402 76.5042 66.347C76.1359 66.5275 75.7478 66.66 75.3487 66.742V54.577H73.1934V66.854H63.4945V69.0862H74.2711C75.355 69.0932 76.4268 68.8499 77.408 68.3738C80.0896 67.1012 81.8104 64.3284 81.8147 61.2736V56.8092C81.813 53.4875 80.226 50.3816 77.5747 48.5117V48.5117Z" fill="white"/>
<path d="M45.1744 66.854H53.7956V69.0862H45.1744V66.854Z" fill="white"/>
</g>
<defs>
<filter id="filter0_d" x="0" y="0" width="108" height="115" filterUnits="userSpaceOnUse" color-interpolation-filters="sRGB">
<feFlood flood-opacity="0" result="BackgroundImageFix"/>
<feColorMatrix in="SourceAlpha" type="matrix" values="0 0 0 0 0 0 0 0 0 0 0 0 0 0 0 0 0 0 127 0"/>
<feOffset dy="4"/>
<feGaussianBlur stdDeviation="2"/>
<feColorMatrix type="matrix" values="0 0 0 0 0 0 0 0 0 0 0 0 0 0 0 0 0 0 0.25 0"/>
<feBlend mode="normal" in2="BackgroundImageFix" result="effect1_dropShadow"/>
<feBlend mode="normal" in="SourceGraphic" in2="effect1_dropShadow" result="shape"/>
</filter>
<filter id="filter1_d" x="0" y="0" width="98" height="98" filterUnits="userSpaceOnUse" color-interpolation-filters="sRGB">
<feFlood flood-opacity="0" result="BackgroundImageFix"/>
<feColorMatrix in="SourceAlpha" type="matrix" values="0 0 0 0 0 0 0 0 0 0 0 0 0 0 0 0 0 0 127 0"/>
<feOffset dy="4"/>
<feGaussianBlur stdDeviation="2"/>
<feColorMatrix type="matrix" values="0 0 0 0 0 0 0 0 0 0 0 0 0 0 0 0 0 0 0.25 0"/>
<feBlend mode="normal" in2="BackgroundImageFix" result="effect1_dropShadow"/>
<feBlend mode="normal" in="SourceGraphic" in2="effect1_dropShadow" result="shape"/>
</filter>
<clipPath id="clip0">
<rect width="100" height="107" fill="white" transform="translate(4)"/>
</clipPath>
</defs>
</svg>
