<svg width="88" height="88" viewBox="0 0 88 88" fill="none" xmlns="http://www.w3.org/2000/svg">
<g clip-path="url(#clip0)" filter="url(#filter0_d)">
<g filter="url(#filter1_d)">
<rect x="4" width="80" height="80" rx="20" fill="#21A0A0"/>
</g>
<path d="M12.1895 71.5845H9.9475L9.406 73H8L10.603 66.3025H11.6385L14.251 73H12.7595L12.1895 71.5845ZM10.337 70.473H11.857L11.344 69.086L11.116 68.0315H11.0685L10.8405 69.0955L10.337 70.473ZM19.4779 71.252C19.4779 71.518 19.4811 71.7935 19.4874 72.0785C19.4938 72.3635 19.5223 72.6738 19.5729 73.0095H18.6514L18.4614 72.316H18.3379C18.1923 72.5693 17.9833 72.772 17.7109 72.924C17.4449 73.0697 17.1251 73.1425 16.7514 73.1425C16.0864 73.1425 15.5703 72.9367 15.2029 72.525C14.8356 72.107 14.6519 71.4642 14.6519 70.5965C14.6519 70.1785 14.7026 69.8017 14.8039 69.466C14.9116 69.1303 15.0668 68.8453 15.2694 68.611C15.4784 68.3767 15.7349 68.1962 16.0389 68.0695C16.3429 67.9428 16.6944 67.8795 17.0934 67.8795C17.3151 67.8795 17.5051 67.8985 17.6634 67.9365C17.8281 67.9682 17.9896 68.0093 18.1479 68.06V66.35H19.4779V71.252ZM17.0934 72.031C17.3911 72.031 17.6223 71.9645 17.7869 71.8315C17.9516 71.6922 18.0719 71.4958 18.1479 71.2425V69.2475C18.0339 69.1588 17.9104 69.0955 17.7774 69.0575C17.6508 69.0132 17.4829 68.991 17.2739 68.991C16.8496 68.991 16.5329 69.1145 16.3239 69.3615C16.1213 69.6085 16.0199 70.0328 16.0199 70.6345C16.0199 71.0525 16.1054 71.3913 16.2764 71.651C16.4538 71.9043 16.7261 72.031 17.0934 72.031ZM24.0183 73V70.397C24.0183 69.9157 23.9676 69.5705 23.8663 69.3615C23.7649 69.1525 23.5559 69.048 23.2393 69.048C22.9733 69.048 22.7611 69.1145 22.6028 69.2475C22.4444 69.3742 22.3209 69.542 22.2323 69.751V73H20.9023V68.0125H21.9283L22.0803 68.706H22.2038C22.2861 68.5983 22.3811 68.4938 22.4888 68.3925C22.5964 68.2912 22.7136 68.2025 22.8403 68.1265C22.9733 68.0505 23.1189 67.9903 23.2773 67.946C23.4419 67.8953 23.6256 67.87 23.8283 67.87C24.1639 67.87 24.4426 67.946 24.6643 68.098C24.8923 68.2437 25.0728 68.4907 25.2058 68.839C25.3894 68.535 25.6111 68.2975 25.8708 68.1265C26.1368 67.9555 26.4439 67.87 26.7923 67.87C27.0963 67.87 27.3528 67.9048 27.5618 67.9745C27.7771 68.0442 27.9513 68.1645 28.0843 68.3355C28.2173 68.5065 28.3123 68.7377 28.3693 69.029C28.4326 69.3203 28.4643 69.6845 28.4643 70.1215V73H27.1343V70.3305C27.1343 70.1215 27.1248 69.9378 27.1058 69.7795C27.0868 69.6212 27.0488 69.4882 26.9918 69.3805C26.9348 69.2665 26.8524 69.1842 26.7448 69.1335C26.6434 69.0765 26.5073 69.048 26.3363 69.048C26.0703 69.048 25.8549 69.1177 25.6903 69.257C25.5319 69.39 25.4179 69.5768 25.3483 69.8175V73H24.0183ZM29.9978 68.0125H31.3278V73H29.9978V68.0125ZM29.7983 66.768C29.7983 66.5653 29.8712 66.3975 30.0168 66.2645C30.1625 66.1252 30.3683 66.0555 30.6343 66.0555C30.9067 66.0555 31.122 66.1252 31.2803 66.2645C31.4387 66.4038 31.5178 66.5717 31.5178 66.768C31.5178 66.9517 31.4387 67.11 31.2803 67.243C31.122 67.376 30.9067 67.4425 30.6343 67.4425C30.3683 67.4425 30.1625 67.376 30.0168 67.243C29.8712 67.11 29.7983 66.9517 29.7983 66.768ZM36.2145 73V70.264C36.2145 69.8333 36.148 69.523 36.015 69.333C35.882 69.143 35.6476 69.048 35.312 69.048C35.027 69.048 34.7831 69.1272 34.5805 69.2855C34.3841 69.4375 34.248 69.6338 34.172 69.8745C34.172 70.3938 34.172 70.9163 34.172 71.442C34.1783 71.9613 34.1815 72.4807 34.1815 73H32.8515V68.0125H33.8965L34.039 68.725H34.1815C34.3461 68.4907 34.5646 68.2912 34.837 68.1265C35.1093 67.9555 35.464 67.87 35.901 67.87C36.167 67.87 36.4013 67.9048 36.604 67.9745C36.813 68.0378 36.984 68.1518 37.117 68.3165C37.2563 68.4748 37.3608 68.6902 37.4305 68.9625C37.5065 69.2348 37.5445 69.5768 37.5445 69.9885V73H36.2145ZM39.0711 68.0125H40.4011V73H39.0711V68.0125ZM38.8716 66.768C38.8716 66.5653 38.9444 66.3975 39.0901 66.2645C39.2358 66.1252 39.4416 66.0555 39.7076 66.0555C39.9799 66.0555 40.1953 66.1252 40.3536 66.2645C40.5119 66.4038 40.5911 66.5717 40.5911 66.768C40.5911 66.9517 40.5119 67.11 40.3536 67.243C40.1953 67.376 39.9799 67.4425 39.7076 67.4425C39.4416 67.4425 39.2358 67.376 39.0901 67.243C38.9444 67.11 38.8716 66.9517 38.8716 66.768ZM41.9152 71.708C42.0039 71.7523 42.1052 71.7967 42.2192 71.841C42.3396 71.8853 42.4662 71.9265 42.5992 71.9645C42.7386 72.0025 42.8779 72.0342 43.0172 72.0595C43.1629 72.0848 43.3086 72.0975 43.4542 72.0975C43.6759 72.0975 43.8469 72.0627 43.9672 71.993C44.0939 71.9233 44.1572 71.7935 44.1572 71.6035C44.1572 71.4515 44.0749 71.3407 43.9102 71.271C43.7456 71.195 43.5429 71.1222 43.3022 71.0525C43.1249 71.0018 42.9381 70.9417 42.7417 70.872C42.5517 70.8023 42.3744 70.7105 42.2097 70.5965C42.0514 70.4762 41.9184 70.321 41.8107 70.131C41.7094 69.941 41.6587 69.7003 41.6587 69.409C41.6587 68.9087 41.8139 68.5287 42.1242 68.269C42.4346 68.003 42.8811 67.87 43.4637 67.87C43.8437 67.87 44.1984 67.9048 44.5277 67.9745C44.8634 68.0378 45.1326 68.1138 45.3352 68.2025L45.0597 69.2095C44.8951 69.1462 44.6829 69.0828 44.4232 69.0195C44.1699 68.9498 43.9102 68.915 43.6442 68.915C43.4226 68.915 43.2579 68.9498 43.1502 69.0195C43.0426 69.0828 42.9887 69.1968 42.9887 69.3615C42.9887 69.5072 43.0711 69.618 43.2357 69.694C43.4067 69.7637 43.6126 69.8333 43.8532 69.903C44.0306 69.9537 44.2142 70.0138 44.4042 70.0835C44.6006 70.1468 44.7779 70.2355 44.9362 70.3495C45.0946 70.4635 45.2244 70.6123 45.3257 70.796C45.4334 70.9733 45.4872 71.1982 45.4872 71.4705C45.4872 72.0025 45.3131 72.4142 44.9647 72.7055C44.6227 72.9968 44.1066 73.1425 43.4162 73.1425C43.0426 73.1425 42.6942 73.1077 42.3712 73.038C42.0482 72.9747 41.7854 72.8797 41.5827 72.753L41.9152 71.708ZM45.909 68.0125H46.669V67.3285L47.999 66.977V68.0125H49.3385V69.124H47.999V70.853C47.999 71.252 48.037 71.5402 48.113 71.7175C48.1953 71.8885 48.3537 71.974 48.588 71.974C48.7337 71.974 48.8572 71.9645 48.9585 71.9455C49.0598 71.9202 49.1675 71.8822 49.2815 71.8315L49.557 72.829C49.3543 72.9177 49.12 72.9937 48.854 73.057C48.5943 73.1203 48.341 73.152 48.094 73.152C47.6 73.152 47.239 73.0317 47.011 72.791C46.783 72.544 46.669 72.1513 46.669 71.613V69.124H45.909V68.0125ZM53.3028 69.2285C53.1128 69.1652 52.9228 69.1335 52.7328 69.1335C52.4542 69.1335 52.223 69.2 52.0393 69.333C51.862 69.466 51.7448 69.6338 51.6878 69.8365V73H50.3578V68.0125H51.4028L51.5453 68.706H51.6688C51.7955 68.4463 51.9633 68.2468 52.1723 68.1075C52.3877 67.9682 52.6315 67.8985 52.9038 67.8985C53.0748 67.8985 53.2712 67.9333 53.4928 68.003L53.3028 69.2285ZM54.1697 68.3545C54.4547 68.2278 54.803 68.1233 55.2147 68.041C55.6327 67.9587 56.0634 67.9175 56.5067 67.9175C56.855 67.9175 57.1464 67.9587 57.3807 68.041C57.6214 68.1233 57.8114 68.2437 57.9507 68.402C58.09 68.554 58.1882 68.7408 58.2452 68.9625C58.3085 69.1778 58.3402 69.4185 58.3402 69.6845C58.3402 70.0075 58.3275 70.3273 58.3022 70.644C58.2769 70.9607 58.2642 71.2963 58.2642 71.651C58.2642 71.8917 58.28 72.126 58.3117 72.354C58.3434 72.582 58.394 72.8005 58.4637 73.0095H57.3807L57.1622 72.2685H57.0482C56.8835 72.4902 56.6745 72.6802 56.4212 72.8385C56.1679 72.9968 55.8417 73.076 55.4427 73.076C55.202 73.076 54.9804 73.0412 54.7777 72.9715C54.5814 72.9018 54.4104 72.8037 54.2647 72.677C54.1254 72.544 54.0145 72.3888 53.9322 72.2115C53.8562 72.0342 53.8182 71.841 53.8182 71.632C53.8182 71.0683 54.005 70.644 54.3787 70.359C54.7587 70.0677 55.3319 69.922 56.0982 69.922C56.2755 69.922 56.4529 69.9378 56.6302 69.9695C56.8075 69.9948 56.931 70.0138 57.0007 70.0265C57.0197 69.8935 57.0292 69.7795 57.0292 69.6845C57.0292 69.4438 56.969 69.2665 56.8487 69.1525C56.7284 69.0385 56.5035 68.9815 56.1742 68.9815C55.8702 68.9815 55.5725 69.0195 55.2812 69.0955C54.9962 69.1652 54.7429 69.2538 54.5212 69.3615L54.1697 68.3545ZM55.9082 72.012C56.2059 72.012 56.4434 71.9423 56.6207 71.803C56.798 71.6637 56.9279 71.518 57.0102 71.366V70.796C56.9785 70.7833 56.9279 70.7707 56.8582 70.758C56.7949 70.7453 56.722 70.7327 56.6397 70.72C56.5637 70.7073 56.4845 70.6978 56.4022 70.6915C56.3262 70.6852 56.2565 70.682 56.1932 70.682C55.8512 70.682 55.5979 70.7453 55.4332 70.872C55.2685 70.9923 55.1862 71.1443 55.1862 71.328C55.1862 71.556 55.2495 71.727 55.3762 71.841C55.5092 71.955 55.6865 72.012 55.9082 72.012ZM63.4807 72.696C63.2653 72.8417 63.0057 72.9525 62.7017 73.0285C62.404 73.1045 62.0937 73.1425 61.7707 73.1425C61.34 73.1425 60.9758 73.0792 60.6782 72.9525C60.3868 72.8258 60.1462 72.6453 59.9562 72.411C59.7725 72.1767 59.6395 71.9012 59.5572 71.5845C59.4748 71.2615 59.4337 70.9037 59.4337 70.511C59.4337 69.6813 59.6363 69.0353 60.0417 68.573C60.4533 68.1043 61.0487 67.87 61.8277 67.87C62.2077 67.87 62.518 67.9017 62.7587 67.965C63.0057 68.022 63.2242 68.098 63.4142 68.193L63.0912 69.257C62.9265 69.1873 62.7618 69.1367 62.5972 69.105C62.4388 69.067 62.252 69.048 62.0367 69.048C61.6377 69.048 61.3305 69.1652 61.1152 69.3995C60.9062 69.6275 60.8017 69.998 60.8017 70.511C60.8017 70.7137 60.827 70.9037 60.8777 71.081C60.9283 71.252 61.0075 71.404 61.1152 71.537C61.2228 71.67 61.359 71.7745 61.5237 71.8505C61.6883 71.9265 61.8815 71.9645 62.1032 71.9645C62.3692 71.9645 62.5782 71.9423 62.7302 71.898C62.8885 71.8473 63.0373 71.7808 63.1767 71.6985L63.4807 72.696ZM64.6302 68.0125H65.9602V73H64.6302V68.0125ZM64.4307 66.768C64.4307 66.5653 64.5035 66.3975 64.6492 66.2645C64.7948 66.1252 65.0007 66.0555 65.2667 66.0555C65.539 66.0555 65.7543 66.1252 65.9127 66.2645C66.071 66.4038 66.1502 66.5717 66.1502 66.768C66.1502 66.9517 66.071 67.11 65.9127 67.243C65.7543 67.376 65.539 67.4425 65.2667 67.4425C65.0007 67.4425 64.7948 67.376 64.6492 67.243C64.5035 67.11 64.4307 66.9517 64.4307 66.768ZM67.1988 70.511C67.1988 69.6877 67.4173 69.0417 67.8543 68.573C68.2913 68.1043 68.9151 67.87 69.7258 67.87C70.1501 67.87 70.5206 67.9365 70.8373 68.0695C71.154 68.2025 71.4168 68.3893 71.6258 68.63C71.8348 68.8643 71.99 69.143 72.0913 69.466C72.199 69.7827 72.2528 70.131 72.2528 70.511C72.2528 70.9163 72.1958 71.2837 72.0818 71.613C71.9678 71.936 71.8031 72.2115 71.5878 72.4395C71.3725 72.6675 71.1065 72.8417 70.7898 72.962C70.4795 73.0823 70.1248 73.1425 69.7258 73.1425C69.2951 73.1425 68.9215 73.076 68.6048 72.943C68.2881 72.81 68.0253 72.6263 67.8163 72.392C67.6073 72.1513 67.4521 71.8727 67.3508 71.556C67.2495 71.233 67.1988 70.8847 67.1988 70.511ZM68.5668 70.511C68.5668 70.72 68.589 70.9163 68.6333 71.1C68.6776 71.2837 68.7441 71.4452 68.8328 71.5845C68.9278 71.7175 69.0481 71.8252 69.1938 71.9075C69.3395 71.9898 69.5168 72.031 69.7258 72.031C70.4985 72.031 70.8848 71.5243 70.8848 70.511C70.8848 70.2893 70.8626 70.0867 70.8183 69.903C70.7803 69.713 70.7138 69.5515 70.6188 69.4185C70.5301 69.2792 70.4098 69.1715 70.2578 69.0955C70.1121 69.0195 69.9348 68.9815 69.7258 68.9815C69.3648 68.9815 69.0798 69.1018 68.8708 69.3425C68.6681 69.5832 68.5668 69.9727 68.5668 70.511ZM69.9253 66.0745H71.2743V66.35L70.0773 67.5755H69.3553L69.9253 66.0745ZM76.7008 73V70.264C76.7008 69.8333 76.6343 69.523 76.5013 69.333C76.3683 69.143 76.134 69.048 75.7983 69.048C75.5133 69.048 75.2695 69.1272 75.0668 69.2855C74.8705 69.4375 74.7343 69.6338 74.6583 69.8745C74.6583 70.3938 74.6583 70.9163 74.6583 71.442C74.6646 71.9613 74.6678 72.4807 74.6678 73H73.3378V68.0125H74.3828L74.5253 68.725H74.6678C74.8325 68.4907 75.051 68.2912 75.3233 68.1265C75.5956 67.9555 75.9503 67.87 76.3873 67.87C76.6533 67.87 76.8876 67.9048 77.0903 67.9745C77.2993 68.0378 77.4703 68.1518 77.6033 68.3165C77.7426 68.4748 77.8471 68.6902 77.9168 68.9625C77.9928 69.2348 78.0308 69.5768 78.0308 69.9885V73H76.7008Z" fill="white"/>
<path d="M68.6375 34.6219V32.6378C69.1661 32.6378 69.5953 32.1938 69.5953 31.6458V25.6936C69.5953 25.1457 69.1661 24.7016 68.6375 24.7016H63.4653L63.2797 23.9564C62.8562 22.2521 62.1984 20.6195 61.3256 19.1094L60.9424 18.4456L64.6147 14.6356C64.9843 14.2519 64.9843 13.6304 64.6147 13.2467L60.547 9.02749C60.1713 8.65664 59.5813 8.65664 59.2056 9.02749L55.5267 12.8379L54.8861 12.4411C53.4258 11.5366 51.8481 10.8554 50.2003 10.4163L49.4812 10.2226V4.86095C49.4812 4.31301 49.0525 3.86892 48.5234 3.86892H42.7765C42.2475 3.86892 41.8187 4.31301 41.8187 4.86095V10.2179L41.0993 10.4105C39.4538 10.8488 37.8775 11.53 36.4187 12.4329L35.7778 12.8301L32.0999 9.02749C31.7239 8.65354 31.1301 8.65354 30.7541 9.02749L26.6853 13.2405C26.5065 13.4254 26.4058 13.6765 26.4058 13.938C26.4058 14.2 26.5065 14.4507 26.6853 14.6356L30.3643 18.4456L29.9811 19.1094C29.1086 20.6195 28.4505 22.2521 28.0274 23.9564L27.8395 24.7016H22.6625C22.1334 24.7016 21.7047 25.1457 21.7047 25.6936V31.6458C21.7047 32.1938 22.1334 32.6378 22.6625 32.6378V34.6219C21.0757 34.6219 19.789 33.2892 19.789 31.6458V25.6936C19.789 24.0502 21.0757 22.7175 22.6625 22.7175H26.3684C26.7635 21.3457 27.2978 20.0212 27.9623 18.7664L25.3283 16.0384C24.7895 15.4815 24.4868 14.7259 24.4868 13.938C24.4868 13.1502 24.7895 12.3946 25.3283 11.8381L29.399 7.62198C30.533 6.4978 32.321 6.4978 33.4551 7.62198L36.0883 10.3489C37.2998 9.66107 38.579 9.10886 39.9031 8.70004V4.86095C39.9031 3.21751 41.1898 1.88486 42.7765 1.88486H48.5234C50.1102 1.88486 51.3969 3.21751 51.3969 4.86095V8.70004C52.7213 9.10886 53.9998 9.66223 55.2116 10.3501L57.8456 7.62198C58.98 6.4978 60.7677 6.4978 61.9021 7.62198L65.9721 11.837C66.5105 12.3938 66.8128 13.1487 66.8128 13.9369C66.8128 14.7251 66.5105 15.4807 65.9721 16.0372L63.3381 18.7653C64.0022 20.0208 64.5361 21.3457 64.9316 22.7175H68.6375C70.2242 22.7175 71.5109 24.0502 71.5109 25.6936V31.6458C71.5109 33.2892 70.2242 34.6219 68.6375 34.6219Z" fill="white"/>
<path d="M59.0594 28.6697H57.1438C57.1438 22.0952 51.9978 16.7653 45.65 16.7653C39.3022 16.7653 34.1562 22.0952 34.1562 28.6697H32.2406C32.2406 20.9993 38.2442 14.7812 45.65 14.7812C53.0555 14.7812 59.0594 20.9993 59.0594 28.6697Z" fill="white"/>
<path d="M45.65 36.606C42.4761 36.606 39.9031 33.9406 39.9031 30.6538C39.9031 27.3665 42.4761 24.7016 45.65 24.7016C48.8243 24.7016 51.3969 27.3665 51.3969 30.6538C51.3935 33.9399 48.8228 36.6025 45.65 36.606ZM45.65 26.6856C43.5342 26.6856 41.8187 28.4624 41.8187 30.6538C41.8187 32.8451 43.5342 34.6219 45.65 34.6219C47.7658 34.6219 49.4813 32.8451 49.4813 30.6538C49.4813 28.4624 47.7658 26.6856 45.65 26.6856Z" fill="white"/>
<path d="M61.9328 40.5741C58.7589 40.5741 56.1859 37.9088 56.1859 34.6219C56.1859 31.3346 58.7589 28.6697 61.9328 28.6697C65.1067 28.6697 67.6797 31.3346 67.6797 34.6219C67.6763 37.908 65.1056 40.5706 61.9328 40.5741ZM61.9328 30.6538C59.817 30.6538 58.1016 32.4305 58.1016 34.6219C58.1016 36.8133 59.817 38.59 61.9328 38.59C64.0486 38.59 65.7641 36.8133 65.7641 34.6219C65.7641 32.4305 64.0486 30.6538 61.9328 30.6538Z" fill="white"/>
<path d="M29.3672 40.5741C26.1933 40.5741 23.6203 37.9088 23.6203 34.6219C23.6203 31.3346 26.1933 28.6697 29.3672 28.6697C32.5414 28.6697 35.1141 31.3346 35.1141 34.6219C35.1107 37.908 32.5399 40.5706 29.3672 40.5741ZM29.3672 30.6538C27.2514 30.6538 25.5359 32.4305 25.5359 34.6219C25.5359 36.8133 27.2514 38.59 29.3672 38.59C31.483 38.59 33.1984 36.8133 33.1984 34.6219C33.1984 32.4305 31.483 30.6538 29.3672 30.6538Z" fill="white"/>
<path d="M70.6159 43.1193C69.1886 42.1032 67.4963 41.5611 65.764 41.5661H58.1015C57.6357 41.5704 57.1707 41.6142 56.7116 41.6967C56.0987 40.7039 55.3014 39.8475 54.3661 39.1759C54.2258 39.0663 54.0783 38.9667 53.9246 38.8787C52.5848 38.0382 51.0474 37.5957 49.4812 37.598H41.8187C38.8895 37.5871 36.1602 39.1352 34.591 41.6967C34.1308 41.6142 33.665 41.5704 33.1984 41.5661H25.5359C23.8051 41.5611 22.1132 42.1024 20.6866 43.1173C18.3288 44.779 16.9171 47.5408 16.9156 50.4944V54.4625C16.919 57.1712 18.4406 59.6312 20.8161 60.7658C21.6931 61.1936 22.6513 61.4126 23.6203 61.4067H33.1984V59.4227H24.5781V48.5103H22.6625V59.3231C22.3018 59.2483 21.9516 59.1274 21.6194 58.9643C19.9226 58.154 18.835 56.3974 18.8312 54.4625V50.4944C18.8335 48.1957 19.9331 46.0469 21.7679 44.7542C22.8765 43.966 24.1909 43.5463 25.5359 43.5502H33.1984C33.3672 43.5502 33.5299 43.5688 33.6945 43.5804C33.3705 44.5267 33.2025 45.5226 33.1984 46.5263V56.4466C33.2018 59.1847 35.3441 61.4033 37.9875 61.4067H40.8609V45.5342H38.9453V59.4227H37.9875C36.4007 59.4227 35.114 58.09 35.114 56.4466V46.5263C35.114 42.6907 38.1162 39.5821 41.8187 39.5821H49.4812C50.7137 39.5828 51.9214 39.9362 52.9724 40.6028C53.0697 40.6578 53.1632 40.7198 53.2519 40.788C54.1494 41.4247 54.8861 42.2753 55.3995 43.2681C55.9154 44.271 56.1859 45.3897 56.1859 46.5263V56.4466C56.1859 58.09 54.8992 59.4227 53.3125 59.4227H52.3547V45.5342H50.439V61.4067H53.3125C55.9562 61.4033 58.0982 59.1847 58.1015 56.4466V46.5263C58.097 45.5226 57.9298 44.5271 57.6062 43.5804C57.7712 43.5688 57.9339 43.5502 58.1015 43.5502H65.764C67.1098 43.5463 68.4253 43.9671 69.5347 44.7561C71.368 46.0496 72.4661 48.1968 72.4687 50.4944V54.4625C72.4653 56.4043 71.3695 58.166 69.6645 58.972C69.3371 59.1324 68.9922 59.2502 68.6375 59.3231V48.5103H66.7218V59.4227H58.1015V61.4067H67.6797C68.6431 61.4129 69.5957 61.1967 70.4678 60.7736C72.8511 59.6424 74.3806 57.1778 74.3843 54.4625V50.4944C74.3828 47.5419 72.9723 44.7813 70.6159 43.1193V43.1193Z" fill="white"/>
<path d="M41.8187 59.4227H49.4813V61.4067H41.8187V59.4227Z" fill="white"/>
</g>
<defs>
<filter id="filter0_d" x="0" y="0" width="88" height="88" filterUnits="userSpaceOnUse" color-interpolation-filters="sRGB">
<feFlood flood-opacity="0" result="BackgroundImageFix"/>
<feColorMatrix in="SourceAlpha" type="matrix" values="0 0 0 0 0 0 0 0 0 0 0 0 0 0 0 0 0 0 127 0"/>
<feOffset dy="4"/>
<feGaussianBlur stdDeviation="2"/>
<feColorMatrix type="matrix" values="0 0 0 0 0 0 0 0 0 0 0 0 0 0 0 0 0 0 0.25 0"/>
<feBlend mode="normal" in2="BackgroundImageFix" result="effect1_dropShadow"/>
<feBlend mode="normal" in="SourceGraphic" in2="effect1_dropShadow" result="shape"/>
</filter>
<filter id="filter1_d" x="0" y="0" width="88" height="88" filterUnits="userSpaceOnUse" color-interpolation-filters="sRGB">
<feFlood flood-opacity="0" result="BackgroundImageFix"/>
<feColorMatrix in="SourceAlpha" type="matrix" values="0 0 0 0 0 0 0 0 0 0 0 0 0 0 0 0 0 0 127 0"/>
<feOffset dy="4"/>
<feGaussianBlur stdDeviation="2"/>
<feColorMatrix type="matrix" values="0 0 0 0 0 0 0 0 0 0 0 0 0 0 0 0 0 0 0.25 0"/>
<feBlend mode="normal" in2="BackgroundImageFix" result="effect1_dropShadow"/>
<feBlend mode="normal" in="SourceGraphic" in2="effect1_dropShadow" result="shape"/>
</filter>
<clipPath id="clip0">
<rect width="80" height="80" fill="white" transform="translate(4)"/>
</clipPath>
</defs>
</svg>
