<svg width="98" height="98" viewBox="0 0 98 98" fill="none" xmlns="http://www.w3.org/2000/svg">
<g filter="url(#filter0_d)">
<path d="M74 0H24C12.9543 0 4 8.9543 4 20V70C4 81.0457 12.9543 90 24 90H74C85.0457 90 94 81.0457 94 70V20C94 8.95431 85.0457 0 74 0Z" fill="#2F2504"/>
</g>
<g clip-path="url(#clip0)">
<path d="M79.3643 33.7784H78.0173V27.5006C78.0173 24.4233 75.5996 21.9203 72.6294 21.9203C71.5908 21.9203 70.6195 22.2261 69.7965 22.7557C69.2456 20.2811 67.1 18.4327 64.5475 18.4327H64.546C61.5763 18.4327 59.1581 20.9356 59.1581 24.0129V33.7784H38.6872V24.0129C38.6872 20.9356 36.2689 18.4327 33.2977 18.4327C30.7453 18.4327 28.5996 20.2811 28.0487 22.7557C27.2258 22.2261 26.2545 21.9203 25.2158 21.9203C22.2456 21.9203 19.8279 24.4233 19.8279 27.5006V33.7784H18.4809C16.2532 33.7784 14.44 35.6563 14.44 37.9636V43.5439C14.44 45.8512 16.2532 47.7291 18.4809 47.7291H19.8279V54.007C19.8279 57.0843 22.2456 59.5872 25.2158 59.5872C26.2545 59.5872 27.2258 59.2815 28.0487 58.7518C28.5996 61.2264 30.7453 63.0749 33.2977 63.0749H33.2993C36.2689 63.0749 38.6872 60.572 38.6872 57.4946V47.7291H59.1581V57.4946C59.1581 60.572 61.5763 63.0749 64.5475 63.0749C67.1 63.0749 69.2456 61.2264 69.7965 58.7518C70.6195 59.2815 71.5908 59.5872 72.6294 59.5872C75.5996 59.5872 78.0173 57.0843 78.0173 54.007V47.7291H79.3643C81.5921 47.7291 83.4052 45.8512 83.4052 43.5439V37.9636C83.4052 35.6563 81.5921 33.7784 79.3643 33.7784V33.7784ZM19.8279 44.939H18.4809C17.7385 44.939 17.134 44.3129 17.134 43.5439V37.9636C17.134 37.1947 17.7385 36.5686 18.4809 36.5686H19.8279V44.939ZM27.9098 54.007C27.9098 54.777 27.6083 55.4745 27.1205 55.9797C26.6328 56.4848 25.9593 56.7971 25.2158 56.7971C23.7299 56.7971 22.5219 55.5459 22.5219 54.007V27.5006C22.5219 25.9617 23.7299 24.7105 25.2158 24.7105C26.7017 24.7105 27.9098 25.9617 27.9098 27.5006V54.007ZM35.9932 57.4946C35.9932 59.0336 34.7836 60.2848 33.2993 60.2848H33.2977C31.8134 60.2848 30.6037 59.0336 30.6037 57.4946V24.0129C30.6037 22.474 31.8134 21.2228 33.2993 21.2228C34.7836 21.2228 35.9932 22.474 35.9932 24.0129V57.4946ZM59.1502 39.3587H49.7308C48.9873 39.3587 48.3838 39.9838 48.3838 40.7538C48.3838 41.5238 48.9873 42.1489 49.7308 42.1489H59.1502V44.939H38.6803V36.5686H59.1502V39.3587ZM67.2415 57.4946C67.2415 59.0336 66.0318 60.2848 64.546 60.2848C63.0617 60.2848 61.852 59.0336 61.852 57.4946V40.8252C61.851 40.8557 61.8483 40.8862 61.8441 40.9156V40.5919C61.8483 40.6214 61.851 40.6519 61.852 40.6824V24.0129C61.852 22.474 63.0617 21.2228 64.546 21.2228H64.5475C66.0318 21.2228 67.2415 22.474 67.2415 24.0129V57.4946ZM75.3234 54.007C75.3234 55.5459 74.1153 56.7971 72.6294 56.7971C71.1435 56.7971 69.9354 55.5459 69.9354 54.007V27.5006C69.9354 25.9617 71.1435 24.7105 72.6294 24.7105C74.1153 24.7105 75.3234 25.9617 75.3234 27.5006V54.007ZM80.7113 43.5439C80.7113 44.3129 80.1067 44.939 79.3643 44.939H78.0173V36.5686H79.3643C80.1067 36.5686 80.7113 37.1947 80.7113 37.9636V43.5439Z" fill="white"/>
<path d="M44.3455 42.1489C43.6015 42.1489 42.998 41.5243 42.998 40.7538C42.998 39.9832 43.6005 39.3587 44.3445 39.3587H44.3455C45.0895 39.3587 45.6925 39.9832 45.6925 40.7538C45.6925 41.5243 45.0895 42.1489 44.3455 42.1489Z" fill="white"/>
</g>
<path d="M38.4071 86.99C38.1651 87.1587 37.8461 87.2797 37.4501 87.353C37.0541 87.4337 36.6471 87.474 36.2291 87.474C35.7378 87.474 35.2648 87.4007 34.8101 87.254C34.3628 87.1073 33.9631 86.8727 33.6111 86.55C33.2664 86.2273 32.9914 85.813 32.7861 85.307C32.5808 84.801 32.4781 84.1887 32.4781 83.47C32.4781 82.722 32.5954 82.095 32.8301 81.589C33.0648 81.0757 33.3654 80.665 33.7321 80.357C34.0988 80.0417 34.5058 79.8143 34.9531 79.675C35.4004 79.5357 35.8404 79.466 36.2731 79.466C36.7498 79.466 37.1494 79.4953 37.4721 79.554C37.8021 79.6127 38.0734 79.6823 38.2861 79.763L37.9671 81.127C37.7838 81.0463 37.5674 80.9877 37.3181 80.951C37.0761 80.9143 36.7681 80.896 36.3941 80.896C36.0641 80.896 35.7634 80.951 35.4921 81.061C35.2281 81.1637 35.0008 81.3213 34.8101 81.534C34.6194 81.7467 34.4691 82.0143 34.3591 82.337C34.2564 82.6597 34.2051 83.0373 34.2051 83.47C34.2051 83.8513 34.2528 84.1997 34.3481 84.515C34.4434 84.8303 34.5864 85.1017 34.7771 85.329C34.9678 85.5563 35.2098 85.7323 35.5031 85.857C35.7964 85.9817 36.1374 86.044 36.5261 86.044C36.8854 86.044 37.1861 86.011 37.4281 85.945C37.6774 85.879 37.8974 85.7947 38.0881 85.692L38.4071 86.99ZM41.0847 85.296C41.0847 85.8533 41.2644 86.132 41.6237 86.132C41.7264 86.132 41.8217 86.1247 41.9097 86.11C42.0051 86.088 42.1151 86.055 42.2397 86.011L42.4267 87.21C42.2801 87.276 42.0711 87.3383 41.7997 87.397C41.5357 87.463 41.2607 87.496 40.9747 87.496C40.5127 87.496 40.1571 87.3933 39.9077 87.188C39.6657 86.9827 39.5447 86.6453 39.5447 86.176V79.62H41.0847V85.296ZM43.1628 81.941C43.4928 81.7943 43.8961 81.6733 44.3728 81.578C44.8568 81.4827 45.3554 81.435 45.8688 81.435C46.2721 81.435 46.6094 81.4827 46.8808 81.578C47.1594 81.6733 47.3794 81.8127 47.5408 81.996C47.7021 82.172 47.8158 82.3883 47.8818 82.645C47.9551 82.8943 47.9918 83.173 47.9918 83.481C47.9918 83.855 47.9771 84.2253 47.9478 84.592C47.9184 84.9587 47.9038 85.3473 47.9038 85.758C47.9038 86.0367 47.9221 86.308 47.9588 86.572C47.9954 86.836 48.0541 87.089 48.1348 87.331H46.8808L46.6278 86.473H46.4958C46.3051 86.7297 46.0631 86.9497 45.7698 87.133C45.4764 87.3163 45.0988 87.408 44.6368 87.408C44.3581 87.408 44.1014 87.3677 43.8668 87.287C43.6394 87.2063 43.4414 87.0927 43.2728 86.946C43.1114 86.792 42.9831 86.6123 42.8878 86.407C42.7998 86.2017 42.7558 85.978 42.7558 85.736C42.7558 85.0833 42.9721 84.592 43.4048 84.262C43.8448 83.9247 44.5084 83.756 45.3958 83.756C45.6011 83.756 45.8064 83.7743 46.0118 83.811C46.2171 83.8403 46.3601 83.8623 46.4408 83.877C46.4628 83.723 46.4738 83.591 46.4738 83.481C46.4738 83.2023 46.4041 82.997 46.2648 82.865C46.1254 82.733 45.8651 82.667 45.4838 82.667C45.1318 82.667 44.7871 82.711 44.4498 82.799C44.1198 82.8797 43.8264 82.9823 43.5698 83.107L43.1628 81.941ZM45.1758 86.176C45.5204 86.176 45.7954 86.0953 46.0008 85.934C46.2061 85.7727 46.3564 85.604 46.4518 85.428V84.768C46.4151 84.7533 46.3564 84.7387 46.2758 84.724C46.2024 84.7093 46.1181 84.6947 46.0228 84.68C45.9348 84.6653 45.8431 84.6543 45.7478 84.647C45.6598 84.6397 45.5791 84.636 45.5058 84.636C45.1098 84.636 44.8164 84.7093 44.6258 84.856C44.4351 84.9953 44.3398 85.1713 44.3398 85.384C44.3398 85.648 44.4131 85.846 44.5598 85.978C44.7138 86.11 44.9191 86.176 45.1758 86.176ZM49.5769 85.824C49.6796 85.8753 49.7969 85.9267 49.9289 85.978C50.0682 86.0293 50.2149 86.077 50.3689 86.121C50.5302 86.165 50.6916 86.2017 50.8529 86.231C51.0216 86.2603 51.1902 86.275 51.3589 86.275C51.6156 86.275 51.8136 86.2347 51.9529 86.154C52.0996 86.0733 52.1729 85.923 52.1729 85.703C52.1729 85.527 52.0776 85.3987 51.8869 85.318C51.6962 85.23 51.4616 85.1457 51.1829 85.065C50.9776 85.0063 50.7612 84.9367 50.5339 84.856C50.3139 84.7753 50.1086 84.669 49.9179 84.537C49.7346 84.3977 49.5806 84.218 49.4559 83.998C49.3386 83.778 49.2799 83.4993 49.2799 83.162C49.2799 82.5827 49.4596 82.1427 49.8189 81.842C50.1782 81.534 50.6952 81.38 51.3699 81.38C51.8099 81.38 52.2206 81.4203 52.6019 81.501C52.9906 81.5743 53.3022 81.6623 53.5369 81.765L53.2179 82.931C53.0272 82.8577 52.7816 82.7843 52.4809 82.711C52.1876 82.6303 51.8869 82.59 51.5789 82.59C51.3222 82.59 51.1316 82.6303 51.0069 82.711C50.8822 82.7843 50.8199 82.9163 50.8199 83.107C50.8199 83.2757 50.9152 83.404 51.1059 83.492C51.3039 83.5727 51.5422 83.6533 51.8209 83.734C52.0262 83.7927 52.2389 83.8623 52.4589 83.943C52.6862 84.0163 52.8916 84.119 53.0749 84.251C53.2582 84.383 53.4086 84.5553 53.5259 84.768C53.6506 84.9733 53.7129 85.2337 53.7129 85.549C53.7129 86.165 53.5112 86.6417 53.1079 86.979C52.7119 87.3163 52.1142 87.485 51.3149 87.485C50.8822 87.485 50.4789 87.4447 50.1049 87.364C49.7309 87.2907 49.4266 87.1807 49.1919 87.034L49.5769 85.824ZM59.8443 86.792C59.5949 86.9827 59.2539 87.1477 58.8213 87.287C58.3959 87.419 57.9376 87.485 57.4463 87.485C56.4563 87.485 55.7303 87.2137 55.2683 86.671C54.8063 86.1283 54.5753 85.384 54.5753 84.438C54.5753 83.4333 54.8356 82.6743 55.3563 82.161C55.8769 81.6403 56.6103 81.38 57.5563 81.38C57.8643 81.38 58.1686 81.4203 58.4693 81.501C58.7699 81.5743 59.0376 81.7027 59.2723 81.886C59.5069 82.062 59.6939 82.304 59.8333 82.612C59.9799 82.9127 60.0533 83.2867 60.0533 83.734C60.0533 83.888 60.0423 84.0567 60.0203 84.24C60.0056 84.4233 59.9763 84.614 59.9323 84.812H56.0823C56.1189 85.3107 56.2619 85.681 56.5113 85.923C56.7679 86.1577 57.1823 86.275 57.7543 86.275C58.0989 86.275 58.4069 86.2273 58.6783 86.132C58.9569 86.0293 59.1696 85.9267 59.3163 85.824L59.8443 86.792ZM57.5343 82.59C57.0796 82.59 56.7423 82.7147 56.5223 82.964C56.3023 83.206 56.1739 83.5177 56.1373 83.899H58.6233C58.6526 83.4957 58.5793 83.1767 58.4033 82.942C58.2273 82.7073 57.9376 82.59 57.5343 82.59ZM61.4255 85.824C61.5282 85.8753 61.6455 85.9267 61.7775 85.978C61.9169 86.0293 62.0635 86.077 62.2175 86.121C62.3789 86.165 62.5402 86.2017 62.7015 86.231C62.8702 86.2603 63.0389 86.275 63.2075 86.275C63.4642 86.275 63.6622 86.2347 63.8015 86.154C63.9482 86.0733 64.0215 85.923 64.0215 85.703C64.0215 85.527 63.9262 85.3987 63.7355 85.318C63.5449 85.23 63.3102 85.1457 63.0315 85.065C62.8262 85.0063 62.6099 84.9367 62.3825 84.856C62.1625 84.7753 61.9572 84.669 61.7665 84.537C61.5832 84.3977 61.4292 84.218 61.3045 83.998C61.1872 83.778 61.1285 83.4993 61.1285 83.162C61.1285 82.5827 61.3082 82.1427 61.6675 81.842C62.0269 81.534 62.5439 81.38 63.2185 81.38C63.6585 81.38 64.0692 81.4203 64.4505 81.501C64.8392 81.5743 65.1509 81.6623 65.3855 81.765L65.0665 82.931C64.8759 82.8577 64.6302 82.7843 64.3295 82.711C64.0362 82.6303 63.7355 82.59 63.4275 82.59C63.1709 82.59 62.9802 82.6303 62.8555 82.711C62.7309 82.7843 62.6685 82.9163 62.6685 83.107C62.6685 83.2757 62.7639 83.404 62.9545 83.492C63.1525 83.5727 63.3909 83.6533 63.6695 83.734C63.8749 83.7927 64.0875 83.8623 64.3075 83.943C64.5349 84.0163 64.7402 84.119 64.9235 84.251C65.1069 84.383 65.2572 84.5553 65.3745 84.768C65.4992 84.9733 65.5615 85.2337 65.5615 85.549C65.5615 86.165 65.3599 86.6417 64.9565 86.979C64.5605 87.3163 63.9629 87.485 63.1635 87.485C62.7309 87.485 62.3275 87.4447 61.9535 87.364C61.5795 87.2907 61.2752 87.1807 61.0405 87.034L61.4255 85.824Z" fill="white"/>
<defs>
<filter id="filter0_d" x="0" y="0" width="98" height="98" filterUnits="userSpaceOnUse" color-interpolation-filters="sRGB">
<feFlood flood-opacity="0" result="BackgroundImageFix"/>
<feColorMatrix in="SourceAlpha" type="matrix" values="0 0 0 0 0 0 0 0 0 0 0 0 0 0 0 0 0 0 127 0"/>
<feOffset dy="4"/>
<feGaussianBlur stdDeviation="2"/>
<feColorMatrix type="matrix" values="0 0 0 0 0 0 0 0 0 0 0 0 0 0 0 0 0 0 0.25 0"/>
<feBlend mode="normal" in2="BackgroundImageFix" result="effect1_dropShadow"/>
<feBlend mode="normal" in="SourceGraphic" in2="effect1_dropShadow" result="shape"/>
</filter>
<clipPath id="clip0">
<rect width="68.9652" height="71.4276" fill="white" transform="translate(14.44 5.03999)"/>
</clipPath>
</defs>
</svg>
