<svg xmlns="http://www.w3.org/2000/svg" width="88" height="88" fill="none" viewBox="0 0 88 88"><g filter="url(#filter0_d)"><path fill="#2F2504" d="M64 0H24C12.9543 0 4 8.9543 4 20V60C4 71.0457 12.9543 80 24 80H64C75.0457 80 84 71.0457 84 60V20C84 8.9543 75.0457 0 64 0Z"/></g><g clip-path="url(#clip0)"><path fill="#fff" d="M70.9905 30.0253H69.7932V24.445C69.7932 21.7096 67.6441 19.4848 65.0039 19.4848C64.0807 19.4848 63.2173 19.7565 62.4858 20.2273C61.9961 18.0277 60.0888 16.3846 57.82 16.3846H57.8186C55.1789 16.3846 53.0294 18.6094 53.0294 21.3448V30.0253H34.833V21.3448C34.833 18.6094 32.6835 16.3846 30.0424 16.3846C27.7736 16.3846 25.8663 18.0277 25.3766 20.2273C24.6451 19.7565 23.7817 19.4848 22.8585 19.4848C20.2183 19.4848 18.0692 21.7096 18.0692 24.445V30.0253H16.8719C14.8917 30.0253 13.28 31.6945 13.28 33.7455V38.7057C13.28 40.7567 14.8917 42.4259 16.8719 42.4259H18.0692V48.0062C18.0692 50.7416 20.2183 52.9664 22.8585 52.9664C23.7817 52.9664 24.6451 52.6947 25.3766 52.2239C25.8663 54.4235 27.7736 56.0666 30.0424 56.0666H30.0438C32.6835 56.0666 34.833 53.8418 34.833 51.1063V42.4259H53.0294V51.1063C53.0294 53.8418 55.1789 56.0666 57.82 56.0666C60.0888 56.0666 61.9961 54.4235 62.4858 52.2239C63.2173 52.6947 64.0807 52.9664 65.0039 52.9664C67.6441 52.9664 69.7932 50.7416 69.7932 48.0062V42.4259H70.9905C72.9707 42.4259 74.5824 40.7567 74.5824 38.7057V33.7455C74.5824 31.6945 72.9707 30.0253 70.9905 30.0253V30.0253ZM18.0692 39.9458H16.8719C16.212 39.9458 15.6746 39.3892 15.6746 38.7057V33.7455C15.6746 33.062 16.212 32.5054 16.8719 32.5054H18.0692V39.9458ZM25.2531 48.0062C25.2531 48.6906 24.9851 49.3107 24.5516 49.7597C24.118 50.2088 23.5194 50.4863 22.8585 50.4863C21.5377 50.4863 20.4639 49.3741 20.4639 48.0062V24.445C20.4639 23.0771 21.5377 21.9649 22.8585 21.9649C24.1793 21.9649 25.2531 23.0771 25.2531 24.445V48.0062ZM32.4384 51.1063C32.4384 52.4743 31.3632 53.5865 30.0438 53.5865H30.0424C28.723 53.5865 27.6478 52.4743 27.6478 51.1063V21.3448C27.6478 19.9769 28.723 18.8647 30.0438 18.8647C31.3632 18.8647 32.4384 19.9769 32.4384 21.3448V51.1063ZM53.0224 34.9855H44.6496C43.9887 34.9855 43.4523 35.5411 43.4523 36.2256C43.4523 36.9101 43.9887 37.4657 44.6496 37.4657H53.0224V39.9458H34.827V32.5054H53.0224V34.9855ZM60.2147 51.1063C60.2147 52.4743 59.1394 53.5865 57.8186 53.5865C56.4992 53.5865 55.424 52.4743 55.424 51.1063V36.2891C55.4231 36.3162 55.4207 36.3433 55.417 36.3695V36.0817C55.4207 36.1079 55.4231 36.135 55.424 36.1621V21.3448C55.424 19.9769 56.4992 18.8647 57.8186 18.8647H57.82C59.1394 18.8647 60.2147 19.9769 60.2147 21.3448V51.1063ZM67.3985 48.0062C67.3985 49.3741 66.3247 50.4863 65.0039 50.4863C63.6831 50.4863 62.6093 49.3741 62.6093 48.0062V24.445C62.6093 23.0771 63.6831 21.9649 65.0039 21.9649C66.3247 21.9649 67.3985 23.0771 67.3985 24.445V48.0062ZM72.1878 38.7057C72.1878 39.3892 71.6504 39.9458 70.9905 39.9458H69.7932V32.5054H70.9905C71.6504 32.5054 72.1878 33.062 72.1878 33.7455V38.7057Z"/><path fill="#fff" d="M39.8627 37.4657C39.2014 37.4657 38.6649 36.9105 38.6649 36.2256C38.6649 35.5407 39.2004 34.9855 39.8617 34.9855H39.8627C40.524 34.9855 41.06 35.5407 41.06 36.2256C41.06 36.9105 40.524 37.4657 39.8627 37.4657Z"/></g><path fill="#fff" d="M33.4071 78.51C33.1651 78.6787 32.8461 78.7997 32.4501 78.873C32.0541 78.9537 31.6471 78.994 31.2291 78.994C30.7377 78.994 30.2647 78.9207 29.8101 78.774C29.3627 78.6273 28.9631 78.3927 28.6111 78.07C28.2664 77.7473 27.9914 77.333 27.7861 76.827C27.5807 76.321 27.4781 75.7087 27.4781 74.99C27.4781 74.242 27.5954 73.615 27.8301 73.109C28.0647 72.5957 28.3654 72.185 28.7321 71.877C29.0987 71.5617 29.5057 71.3343 29.9531 71.195C30.4004 71.0557 30.8404 70.986 31.2731 70.986C31.7497 70.986 32.1494 71.0153 32.4721 71.074C32.8021 71.1327 33.0734 71.2023 33.2861 71.283L32.9671 72.647C32.7837 72.5663 32.5674 72.5077 32.3181 72.471C32.0761 72.4343 31.7681 72.416 31.3941 72.416C31.0641 72.416 30.7634 72.471 30.4921 72.581C30.2281 72.6837 30.0007 72.8413 29.8101 73.054C29.6194 73.2667 29.4691 73.5343 29.3591 73.857C29.2564 74.1797 29.2051 74.5573 29.2051 74.99C29.2051 75.3713 29.2527 75.7197 29.3481 76.035C29.4434 76.3503 29.5864 76.6217 29.7771 76.849C29.9677 77.0763 30.2097 77.2523 30.5031 77.377C30.7964 77.5017 31.1374 77.564 31.5261 77.564C31.8854 77.564 32.1861 77.531 32.4281 77.465C32.6774 77.399 32.8974 77.3147 33.0881 77.212L33.4071 78.51ZM36.0847 76.816C36.0847 77.3733 36.2644 77.652 36.6237 77.652C36.7264 77.652 36.8217 77.6447 36.9097 77.63C37.0051 77.608 37.1151 77.575 37.2397 77.531L37.4267 78.73C37.2801 78.796 37.0711 78.8583 36.7997 78.917C36.5357 78.983 36.2607 79.016 35.9747 79.016C35.5127 79.016 35.1571 78.9133 34.9077 78.708C34.6657 78.5027 34.5447 78.1653 34.5447 77.696V71.14H36.0847V76.816ZM38.1628 73.461C38.4928 73.3143 38.8961 73.1933 39.3728 73.098C39.8568 73.0027 40.3554 72.955 40.8688 72.955C41.2721 72.955 41.6094 73.0027 41.8808 73.098C42.1594 73.1933 42.3794 73.3327 42.5408 73.516C42.7021 73.692 42.8158 73.9083 42.8818 74.165C42.9551 74.4143 42.9918 74.693 42.9918 75.001C42.9918 75.375 42.9771 75.7453 42.9478 76.112C42.9184 76.4787 42.9038 76.8673 42.9038 77.278C42.9038 77.5567 42.9221 77.828 42.9588 78.092C42.9954 78.356 43.0541 78.609 43.1348 78.851H41.8808L41.6278 77.993H41.4958C41.3051 78.2497 41.0631 78.4697 40.7698 78.653C40.4764 78.8363 40.0988 78.928 39.6368 78.928C39.3581 78.928 39.1014 78.8877 38.8668 78.807C38.6394 78.7263 38.4414 78.6127 38.2728 78.466C38.1114 78.312 37.9831 78.1323 37.8878 77.927C37.7998 77.7217 37.7558 77.498 37.7558 77.256C37.7558 76.6033 37.9721 76.112 38.4048 75.782C38.8448 75.4447 39.5084 75.276 40.3958 75.276C40.6011 75.276 40.8064 75.2943 41.0118 75.331C41.2171 75.3603 41.3601 75.3823 41.4408 75.397C41.4628 75.243 41.4738 75.111 41.4738 75.001C41.4738 74.7223 41.4041 74.517 41.2648 74.385C41.1254 74.253 40.8651 74.187 40.4838 74.187C40.1318 74.187 39.7871 74.231 39.4498 74.319C39.1198 74.3997 38.8264 74.5023 38.5698 74.627L38.1628 73.461ZM40.1758 77.696C40.5204 77.696 40.7954 77.6153 41.0008 77.454C41.2061 77.2927 41.3564 77.124 41.4518 76.948V76.288C41.4151 76.2733 41.3564 76.2587 41.2758 76.244C41.2024 76.2293 41.1181 76.2147 41.0228 76.2C40.9348 76.1853 40.8431 76.1743 40.7478 76.167C40.6598 76.1597 40.5791 76.156 40.5058 76.156C40.1098 76.156 39.8164 76.2293 39.6258 76.376C39.4351 76.5153 39.3398 76.6913 39.3398 76.904C39.3398 77.168 39.4131 77.366 39.5598 77.498C39.7138 77.63 39.9191 77.696 40.1758 77.696ZM44.5769 77.344C44.6796 77.3953 44.7969 77.4467 44.9289 77.498C45.0682 77.5493 45.2149 77.597 45.3689 77.641C45.5302 77.685 45.6916 77.7217 45.8529 77.751C46.0216 77.7803 46.1902 77.795 46.3589 77.795C46.6156 77.795 46.8136 77.7547 46.9529 77.674C47.0996 77.5933 47.1729 77.443 47.1729 77.223C47.1729 77.047 47.0776 76.9187 46.8869 76.838C46.6962 76.75 46.4616 76.6657 46.1829 76.585C45.9776 76.5263 45.7612 76.4567 45.5339 76.376C45.3139 76.2953 45.1086 76.189 44.9179 76.057C44.7346 75.9177 44.5806 75.738 44.4559 75.518C44.3386 75.298 44.2799 75.0193 44.2799 74.682C44.2799 74.1027 44.4596 73.6627 44.8189 73.362C45.1782 73.054 45.6952 72.9 46.3699 72.9C46.8099 72.9 47.2206 72.9403 47.6019 73.021C47.9906 73.0943 48.3022 73.1823 48.5369 73.285L48.2179 74.451C48.0272 74.3777 47.7816 74.3043 47.4809 74.231C47.1876 74.1503 46.8869 74.11 46.5789 74.11C46.3222 74.11 46.1316 74.1503 46.0069 74.231C45.8822 74.3043 45.8199 74.4363 45.8199 74.627C45.8199 74.7957 45.9152 74.924 46.1059 75.012C46.3039 75.0927 46.5422 75.1733 46.8209 75.254C47.0262 75.3127 47.2389 75.3823 47.4589 75.463C47.6862 75.5363 47.8916 75.639 48.0749 75.771C48.2582 75.903 48.4086 76.0753 48.5259 76.288C48.6506 76.4933 48.7129 76.7537 48.7129 77.069C48.7129 77.685 48.5112 78.1617 48.1079 78.499C47.7119 78.8363 47.1142 79.005 46.3149 79.005C45.8822 79.005 45.4789 78.9647 45.1049 78.884C44.7309 78.8107 44.4266 78.7007 44.1919 78.554L44.5769 77.344ZM54.8443 78.312C54.5949 78.5027 54.2539 78.6677 53.8213 78.807C53.3959 78.939 52.9376 79.005 52.4463 79.005C51.4563 79.005 50.7303 78.7337 50.2683 78.191C49.8063 77.6483 49.5753 76.904 49.5753 75.958C49.5753 74.9533 49.8356 74.1943 50.3563 73.681C50.8769 73.1603 51.6103 72.9 52.5563 72.9C52.8643 72.9 53.1686 72.9403 53.4693 73.021C53.7699 73.0943 54.0376 73.2227 54.2723 73.406C54.5069 73.582 54.6939 73.824 54.8333 74.132C54.9799 74.4327 55.0533 74.8067 55.0533 75.254C55.0533 75.408 55.0423 75.5767 55.0203 75.76C55.0056 75.9433 54.9763 76.134 54.9323 76.332H51.0823C51.1189 76.8307 51.2619 77.201 51.5113 77.443C51.7679 77.6777 52.1823 77.795 52.7543 77.795C53.0989 77.795 53.4069 77.7473 53.6783 77.652C53.9569 77.5493 54.1696 77.4467 54.3163 77.344L54.8443 78.312ZM52.5343 74.11C52.0796 74.11 51.7423 74.2347 51.5223 74.484C51.3023 74.726 51.1739 75.0377 51.1373 75.419H53.6233C53.6526 75.0157 53.5793 74.6967 53.4033 74.462C53.2273 74.2273 52.9376 74.11 52.5343 74.11ZM56.4255 77.344C56.5282 77.3953 56.6455 77.4467 56.7775 77.498C56.9169 77.5493 57.0635 77.597 57.2175 77.641C57.3789 77.685 57.5402 77.7217 57.7015 77.751C57.8702 77.7803 58.0389 77.795 58.2075 77.795C58.4642 77.795 58.6622 77.7547 58.8015 77.674C58.9482 77.5933 59.0215 77.443 59.0215 77.223C59.0215 77.047 58.9262 76.9187 58.7355 76.838C58.5449 76.75 58.3102 76.6657 58.0315 76.585C57.8262 76.5263 57.6099 76.4567 57.3825 76.376C57.1625 76.2953 56.9572 76.189 56.7665 76.057C56.5832 75.9177 56.4292 75.738 56.3045 75.518C56.1872 75.298 56.1285 75.0193 56.1285 74.682C56.1285 74.1027 56.3082 73.6627 56.6675 73.362C57.0269 73.054 57.5439 72.9 58.2185 72.9C58.6585 72.9 59.0692 72.9403 59.4505 73.021C59.8392 73.0943 60.1509 73.1823 60.3855 73.285L60.0665 74.451C59.8759 74.3777 59.6302 74.3043 59.3295 74.231C59.0362 74.1503 58.7355 74.11 58.4275 74.11C58.1709 74.11 57.9802 74.1503 57.8555 74.231C57.7309 74.3043 57.6685 74.4363 57.6685 74.627C57.6685 74.7957 57.7639 74.924 57.9545 75.012C58.1525 75.0927 58.3909 75.1733 58.6695 75.254C58.8749 75.3127 59.0875 75.3823 59.3075 75.463C59.5349 75.5363 59.7402 75.639 59.9235 75.771C60.1069 75.903 60.2572 76.0753 60.3745 76.288C60.4992 76.4933 60.5615 76.7537 60.5615 77.069C60.5615 77.685 60.3599 78.1617 59.9565 78.499C59.5605 78.8363 58.9629 79.005 58.1635 79.005C57.7309 79.005 57.3275 78.9647 56.9535 78.884C56.5795 78.8107 56.2752 78.7007 56.0405 78.554L56.4255 77.344Z"/><defs><filter id="filter0_d" width="88" height="88" x="0" y="0" color-interpolation-filters="sRGB" filterUnits="userSpaceOnUse"><feFlood flood-opacity="0" result="BackgroundImageFix"/><feColorMatrix in="SourceAlpha" type="matrix" values="0 0 0 0 0 0 0 0 0 0 0 0 0 0 0 0 0 0 127 0"/><feOffset dy="4"/><feGaussianBlur stdDeviation="2"/><feColorMatrix type="matrix" values="0 0 0 0 0 0 0 0 0 0 0 0 0 0 0 0 0 0 0.25 0"/><feBlend in2="BackgroundImageFix" mode="normal" result="effect1_dropShadow"/><feBlend in="SourceGraphic" in2="effect1_dropShadow" mode="normal" result="shape"/></filter><clipPath id="clip0"><rect width="61.302" height="63.491" fill="#fff" transform="translate(13.28 4.48)"/></clipPath></defs></svg>