<svg xmlns="http://www.w3.org/2000/svg" width="88" height="88" fill="none" viewBox="0 0 88 88"><g filter="url(#filter0_d)"><path fill="#235789" d="M64 0H24C12.9543 0 4 8.9543 4 20V60C4 71.0457 12.9543 80 24 80H64C75.0457 80 84 71.0457 84 60V20C84 8.9543 75.0457 0 64 0Z"/></g><g clip-path="url(#clip0)"><path fill="#fff" d="M39.0452 19.1679H48.333C49.1407 19.1679 49.7955 18.4963 49.7955 17.6679C49.7955 16.8395 49.1407 16.1679 48.333 16.1679H39.0452C38.2376 16.1679 37.5827 16.8395 37.5827 17.6679C37.5827 18.4963 38.2375 19.1679 39.0452 19.1679V19.1679Z"/><path fill="#fff" d="M54.7279 4.8H20.5025C19.6948 4.8 19.04 5.4716 19.04 6.3V54.5C19.04 55.3284 19.6948 56 20.5025 56H54.7279C55.5356 56 56.1904 55.3284 56.1904 54.5V6.3C56.1904 5.4716 55.5356 4.8 54.7279 4.8ZM53.2654 53H21.965V7.8H53.2654V53Z"/><path fill="#fff" d="M68.96 41.1502V9.8911C68.96 7.0839 66.7332 4.8 63.9962 4.8C61.259 4.8 59.0322 7.0839 59.0322 9.8911V41.1501C59.0322 41.9327 59.6169 42.5746 60.3624 42.6432L59.1195 46.1652C58.9889 46.5355 59.0053 46.9436 59.1655 47.3014L62.6669 55.1256C62.9053 55.6584 63.4246 55.9999 63.9962 55.9999C64.5677 55.9999 65.087 55.6584 65.3254 55.1256L68.8267 47.3014C68.9869 46.9435 69.0034 46.5354 68.8727 46.1652L67.6298 42.6432C68.3754 42.5746 68.96 41.9328 68.96 41.1502V41.1502ZM61.9572 39.6502V17.2906H66.035V39.6501H61.9572V39.6502ZM63.9962 7.8C65.1203 7.8 66.035 8.7381 66.035 9.8911V14.2906H61.9572V9.8911C61.9572 8.7381 62.8719 7.8 63.9962 7.8V7.8ZM63.9962 50.9041L62.0739 46.6085L63.4707 42.6501H64.5215L65.9185 46.6085L63.9962 50.9041Z"/><path fill="#fff" d="M27.8833 20.5197C28.1576 20.801 28.5296 20.9591 28.9174 20.9591C29.3053 20.9591 29.6774 20.801 29.9515 20.5198L34.3939 15.9635C34.9651 15.3777 34.9651 14.428 34.3939 13.8422C33.8229 13.2564 32.8968 13.2564 32.3256 13.8422L28.9174 17.3378L27.858 16.251C27.287 15.6652 26.361 15.6652 25.7897 16.251C25.2186 16.8368 25.2186 17.7865 25.7897 18.3723L27.8833 20.5197Z"/><path fill="#fff" d="M39.0452 28.2684H48.333C49.1407 28.2684 49.7955 27.5968 49.7955 26.7684C49.7955 25.94 49.1407 25.2684 48.333 25.2684H39.0452C38.2376 25.2684 37.5827 25.94 37.5827 26.7684C37.5827 27.5968 38.2375 28.2684 39.0452 28.2684V28.2684Z"/><path fill="#fff" d="M27.8833 29.6201C28.1576 29.9014 28.5296 30.0595 28.9174 30.0595C29.3053 30.0595 29.6774 29.9014 29.9515 29.6202L34.3939 25.0639C34.9651 24.4781 34.9651 23.5284 34.3939 22.9426C33.8229 22.3568 32.8968 22.3568 32.3256 22.9426L28.9174 26.4382L27.858 25.3516C27.287 24.7658 26.361 24.7658 25.7897 25.3516C25.2186 25.9374 25.2186 26.8871 25.7897 27.4729L27.8833 29.6201Z"/><path fill="#fff" d="M39.0452 37.3688H48.333C49.1407 37.3688 49.7955 36.6972 49.7955 35.8688C49.7955 35.0404 49.1407 34.3688 48.333 34.3688H39.0452C38.2376 34.3688 37.5827 35.0404 37.5827 35.8688C37.5827 36.6972 38.2375 37.3688 39.0452 37.3688V37.3688Z"/><path fill="#fff" d="M39.0452 46.8178H48.333C49.1407 46.8178 49.7955 46.1462 49.7955 45.3178C49.7955 44.4894 49.1407 43.8178 48.333 43.8178H39.0452C38.2376 43.8178 37.5827 44.4894 37.5827 45.3178C37.5827 46.1462 38.2375 46.8178 39.0452 46.8178V46.8178Z"/><path fill="#fff" d="M27.8833 38.7206C28.1576 39.0019 28.5296 39.16 28.9174 39.16C29.3053 39.16 29.6773 39.0019 29.9515 38.7207L34.3939 34.1645C34.9651 33.5787 34.9651 32.629 34.3939 32.0432C33.8229 31.4574 32.8968 31.4575 32.3256 32.0432L28.9174 35.5388L27.858 34.452C27.287 33.8662 26.361 33.8662 25.7897 34.452C25.2185 35.0378 25.2186 35.9875 25.7897 36.5733L27.8833 38.7206Z"/></g><path fill="#fff" d="M12.4806 64.08C12.4806 63.8733 12.3939 63.71 12.2206 63.59C12.0472 63.47 11.8306 63.36 11.5706 63.26C11.3172 63.16 11.0406 63.06 10.7406 62.96C10.4406 62.86 10.1606 62.7267 9.90056 62.56C9.64723 62.3933 9.4339 62.1833 9.26056 61.93C9.08723 61.6767 9.00056 61.3467 9.00056 60.94C9.00056 60.5933 9.06056 60.29 9.18056 60.03C9.30723 59.7633 9.48056 59.5467 9.70056 59.38C9.92723 59.2067 10.1972 59.0767 10.5106 58.99C10.8306 58.9033 11.1806 58.86 11.5606 58.86C12.0006 58.86 12.4172 58.9 12.8106 58.98C13.2106 59.0533 13.5372 59.16 13.7906 59.3L13.3206 60.54C13.2406 60.4933 13.1372 60.4467 13.0106 60.4C12.8906 60.3467 12.7506 60.3033 12.5906 60.27C12.4306 60.23 12.2606 60.2 12.0806 60.18C11.9006 60.1533 11.7172 60.14 11.5306 60.14C11.1972 60.14 10.9372 60.2 10.7506 60.32C10.5706 60.4333 10.4806 60.5933 10.4806 60.8C10.4806 61.0067 10.5672 61.1733 10.7406 61.3C10.9139 61.42 11.1272 61.5333 11.3806 61.64C11.6406 61.74 11.9206 61.8433 12.2206 61.95C12.5206 62.05 12.7972 62.1833 13.0506 62.35C13.3106 62.51 13.5272 62.7133 13.7006 62.96C13.8739 63.2067 13.9606 63.5233 13.9606 63.91C13.9606 64.2967 13.8939 64.63 13.7606 64.91C13.6272 65.19 13.4372 65.4233 13.1906 65.61C12.9506 65.79 12.6606 65.9233 12.3206 66.01C11.9806 66.0967 11.6072 66.14 11.2006 66.14C10.9272 66.14 10.6672 66.1233 10.4206 66.09C10.1806 66.0633 9.95723 66.03 9.75056 65.99C9.5439 65.9433 9.36056 65.8967 9.20056 65.85C9.04723 65.7967 8.9239 65.7467 8.83056 65.7L9.32056 64.45C9.3939 64.49 9.4939 64.5333 9.62056 64.58C9.7539 64.6267 9.90056 64.6733 10.0606 64.72C10.2206 64.76 10.3906 64.7933 10.5706 64.82C10.7572 64.8467 10.9439 64.86 11.1306 64.86C11.5706 64.86 11.9039 64.7967 12.1306 64.67C12.3639 64.5433 12.4806 64.3467 12.4806 64.08ZM14.7225 63.38C14.7225 62.5133 14.9525 61.8333 15.4125 61.34C15.8725 60.8467 16.5292 60.6 17.3825 60.6C17.8292 60.6 18.2192 60.67 18.5525 60.81C18.8859 60.95 19.1625 61.1467 19.3825 61.4C19.6025 61.6467 19.7659 61.94 19.8725 62.28C19.9859 62.6133 20.0425 62.98 20.0425 63.38C20.0425 63.8067 19.9825 64.1933 19.8625 64.54C19.7425 64.88 19.5692 65.17 19.3425 65.41C19.1159 65.65 18.8359 65.8333 18.5025 65.96C18.1759 66.0867 17.8025 66.15 17.3825 66.15C16.9292 66.15 16.5359 66.08 16.2025 65.94C15.8692 65.8 15.5925 65.6067 15.3725 65.36C15.1525 65.1067 14.9892 64.8133 14.8825 64.48C14.7759 64.14 14.7225 63.7733 14.7225 63.38ZM16.1625 63.38C16.1625 63.6 16.1859 63.8067 16.2325 64C16.2792 64.1933 16.3492 64.3633 16.4425 64.51C16.5425 64.65 16.6692 64.7633 16.8225 64.85C16.9759 64.9367 17.1625 64.98 17.3825 64.98C18.1959 64.98 18.6025 64.4467 18.6025 63.38C18.6025 63.1467 18.5792 62.9333 18.5325 62.74C18.4925 62.54 18.4225 62.37 18.3225 62.23C18.2292 62.0833 18.1025 61.97 17.9425 61.89C17.7892 61.81 17.6025 61.77 17.3825 61.77C17.0025 61.77 16.7025 61.8967 16.4825 62.15C16.2692 62.4033 16.1625 62.8133 16.1625 63.38ZM22.6146 64.16C22.6146 64.6667 22.778 64.92 23.1046 64.92C23.198 64.92 23.2846 64.9133 23.3646 64.9C23.4513 64.88 23.5513 64.85 23.6646 64.81L23.8346 65.9C23.7013 65.96 23.5113 66.0167 23.2646 66.07C23.0246 66.13 22.7746 66.16 22.5146 66.16C22.0946 66.16 21.7713 66.0667 21.5446 65.88C21.3246 65.6933 21.2146 65.3867 21.2146 64.96V59H22.6146V64.16ZM24.7238 60.75H26.1238V66H24.7238V60.75ZM24.5138 59.44C24.5138 59.2267 24.5904 59.05 24.7438 58.91C24.8971 58.7633 25.1138 58.69 25.3938 58.69C25.6804 58.69 25.9071 58.7633 26.0738 58.91C26.2404 59.0567 26.3238 59.2333 26.3238 59.44C26.3238 59.6333 26.2404 59.8 26.0738 59.94C25.9071 60.08 25.6804 60.15 25.3938 60.15C25.1138 60.15 24.8971 60.08 24.7438 59.94C24.5904 59.8 24.5138 59.6333 24.5138 59.44ZM31.6876 65.68C31.4609 65.8333 31.1876 65.95 30.8676 66.03C30.5543 66.11 30.2276 66.15 29.8876 66.15C29.4343 66.15 29.0509 66.0833 28.7376 65.95C28.4309 65.8167 28.1776 65.6267 27.9776 65.38C27.7843 65.1333 27.6443 64.8433 27.5576 64.51C27.4709 64.17 27.4276 63.7933 27.4276 63.38C27.4276 62.5067 27.6409 61.8267 28.0676 61.34C28.5009 60.8467 29.1276 60.6 29.9476 60.6C30.3476 60.6 30.6743 60.6333 30.9276 60.7C31.1876 60.76 31.4176 60.84 31.6176 60.94L31.2776 62.06C31.1043 61.9867 30.9309 61.9333 30.7576 61.9C30.5909 61.86 30.3943 61.84 30.1676 61.84C29.7476 61.84 29.4243 61.9633 29.1976 62.21C28.9776 62.45 28.8676 62.84 28.8676 63.38C28.8676 63.5933 28.8943 63.7933 28.9476 63.98C29.0009 64.16 29.0843 64.32 29.1976 64.46C29.3109 64.6 29.4543 64.71 29.6276 64.79C29.8009 64.87 30.0043 64.91 30.2376 64.91C30.5176 64.91 30.7376 64.8867 30.8976 64.84C31.0643 64.7867 31.2209 64.7167 31.3676 64.63L31.6876 65.68ZM32.8976 60.75H34.2976V66H32.8976V60.75ZM32.6876 59.44C32.6876 59.2267 32.7643 59.05 32.9176 58.91C33.0709 58.7633 33.2876 58.69 33.5676 58.69C33.8543 58.69 34.0809 58.7633 34.2476 58.91C34.4143 59.0567 34.4976 59.2333 34.4976 59.44C34.4976 59.6333 34.4143 59.8 34.2476 59.94C34.0809 60.08 33.8543 60.15 33.5676 60.15C33.2876 60.15 33.0709 60.08 32.9176 59.94C32.7643 59.8 32.6876 59.6333 32.6876 59.44ZM35.2614 60.75H36.0614V60.03L37.4614 59.66V60.75H38.8714V61.92H37.4614V63.74C37.4614 64.16 37.5014 64.4633 37.5814 64.65C37.6681 64.83 37.8348 64.92 38.0814 64.92C38.2348 64.92 38.3648 64.91 38.4714 64.89C38.5781 64.8633 38.6914 64.8233 38.8114 64.77L39.1014 65.82C38.8881 65.9133 38.6414 65.9933 38.3614 66.06C38.0881 66.1267 37.8214 66.16 37.5614 66.16C37.0414 66.16 36.6614 66.0333 36.4214 65.78C36.1814 65.52 36.0614 65.1067 36.0614 64.54V61.92H35.2614V60.75ZM41.3444 60.75V63.66C41.3444 64.0933 41.4044 64.41 41.5244 64.61C41.6444 64.81 41.8744 64.91 42.2144 64.91C42.5077 64.91 42.7544 64.8333 42.9544 64.68C43.1544 64.5267 43.3011 64.3333 43.3944 64.1V60.75H44.7944V64.4C44.7944 64.68 44.8077 64.96 44.8344 65.24C44.8677 65.52 44.9111 65.7733 44.9644 66H43.9344L43.6644 65.18H43.5544C43.3811 65.46 43.1344 65.6933 42.8144 65.88C42.4944 66.06 42.1277 66.15 41.7144 66.15C41.4277 66.15 41.1744 66.1133 40.9544 66.04C40.7344 65.9667 40.5477 65.8467 40.3944 65.68C40.2477 65.5067 40.1344 65.28 40.0544 65C39.9811 64.72 39.9444 64.3733 39.9444 63.96V60.75H41.3444ZM51.1404 64.16C51.1404 64.44 51.1437 64.73 51.1504 65.03C51.1571 65.33 51.1871 65.6567 51.2404 66.01H50.2704L50.0704 65.28H49.9404C49.7871 65.5467 49.5671 65.76 49.2804 65.92C49.0004 66.0733 48.6637 66.15 48.2704 66.15C47.5704 66.15 47.0271 65.9333 46.6404 65.5C46.2537 65.06 46.0604 64.3833 46.0604 63.47C46.0604 63.03 46.1137 62.6333 46.2204 62.28C46.3337 61.9267 46.4971 61.6267 46.7104 61.38C46.9304 61.1333 47.2004 60.9433 47.5204 60.81C47.8404 60.6767 48.2104 60.61 48.6304 60.61C48.8637 60.61 49.0637 60.63 49.2304 60.67C49.4037 60.7033 49.5737 60.7467 49.7404 60.8V59H51.1404V64.16ZM48.6304 64.98C48.9437 64.98 49.1871 64.91 49.3604 64.77C49.5337 64.6233 49.6604 64.4167 49.7404 64.15V62.05C49.6204 61.9567 49.4904 61.89 49.3504 61.85C49.2171 61.8033 49.0404 61.78 48.8204 61.78C48.3737 61.78 48.0404 61.91 47.8204 62.17C47.6071 62.43 47.5004 62.8767 47.5004 63.51C47.5004 63.95 47.5904 64.3067 47.7704 64.58C47.9571 64.8467 48.2437 64.98 48.6304 64.98ZM57.1297 65.52C56.903 65.6933 56.593 65.8433 56.1997 65.97C55.813 66.09 55.3964 66.15 54.9497 66.15C54.0497 66.15 53.3897 65.9033 52.9697 65.41C52.5497 64.9167 52.3397 64.24 52.3397 63.38C52.3397 62.4667 52.5764 61.7767 53.0497 61.31C53.523 60.8367 54.1897 60.6 55.0497 60.6C55.3297 60.6 55.6064 60.6367 55.8797 60.71C56.153 60.7767 56.3964 60.8933 56.6097 61.06C56.823 61.22 56.993 61.44 57.1197 61.72C57.253 61.9933 57.3197 62.3333 57.3197 62.74C57.3197 62.88 57.3097 63.0333 57.2897 63.2C57.2764 63.3667 57.2497 63.54 57.2097 63.72H53.7097C53.743 64.1733 53.873 64.51 54.0997 64.73C54.333 64.9433 54.7097 65.05 55.2297 65.05C55.543 65.05 55.823 65.0067 56.0697 64.92C56.323 64.8267 56.5164 64.7333 56.6497 64.64L57.1297 65.52ZM55.0297 61.7C54.6164 61.7 54.3097 61.8133 54.1097 62.04C53.9097 62.26 53.793 62.5433 53.7597 62.89H56.0197C56.0464 62.5233 55.9797 62.2333 55.8197 62.02C55.6597 61.8067 55.3964 61.7 55.0297 61.7ZM58.5672 64.64C58.6605 64.6867 58.7672 64.7333 58.8872 64.78C59.0139 64.8267 59.1472 64.87 59.2872 64.91C59.4339 64.95 59.5805 64.9833 59.7272 65.01C59.8805 65.0367 60.0339 65.05 60.1872 65.05C60.4205 65.05 60.6005 65.0133 60.7272 64.94C60.8605 64.8667 60.9272 64.73 60.9272 64.53C60.9272 64.37 60.8405 64.2533 60.6672 64.18C60.4939 64.1 60.2805 64.0233 60.0272 63.95C59.8405 63.8967 59.6439 63.8333 59.4372 63.76C59.2372 63.6867 59.0505 63.59 58.8772 63.47C58.7105 63.3433 58.5705 63.18 58.4572 62.98C58.3505 62.78 58.2972 62.5267 58.2972 62.22C58.2972 61.6933 58.4605 61.2933 58.7872 61.02C59.1139 60.74 59.5839 60.6 60.1972 60.6C60.5972 60.6 60.9705 60.6367 61.3172 60.71C61.6705 60.7767 61.9539 60.8567 62.1672 60.95L61.8772 62.01C61.7039 61.9433 61.4805 61.8767 61.2072 61.81C60.9405 61.7367 60.6672 61.7 60.3872 61.7C60.1539 61.7 59.9805 61.7367 59.8672 61.81C59.7539 61.8767 59.6972 61.9967 59.6972 62.17C59.6972 62.3233 59.7839 62.44 59.9572 62.52C60.1372 62.5933 60.3539 62.6667 60.6072 62.74C60.7939 62.7933 60.9872 62.8567 61.1872 62.93C61.3939 62.9967 61.5805 63.09 61.7472 63.21C61.9139 63.33 62.0505 63.4867 62.1572 63.68C62.2705 63.8667 62.3272 64.1033 62.3272 64.39C62.3272 64.95 62.1439 65.3833 61.7772 65.69C61.4172 65.9967 60.8739 66.15 60.1472 66.15C59.7539 66.15 59.3872 66.1133 59.0472 66.04C58.7072 65.9733 58.4305 65.8733 58.2172 65.74L58.5672 64.64ZM70.9549 64.16C70.9549 64.44 70.9582 64.73 70.9649 65.03C70.9715 65.33 71.0015 65.6567 71.0549 66.01H70.0849L69.8849 65.28H69.7549C69.6015 65.5467 69.3815 65.76 69.0949 65.92C68.8149 66.0733 68.4782 66.15 68.0849 66.15C67.3849 66.15 66.8415 65.9333 66.4549 65.5C66.0682 65.06 65.8749 64.3833 65.8749 63.47C65.8749 63.03 65.9282 62.6333 66.0349 62.28C66.1482 61.9267 66.3115 61.6267 66.5249 61.38C66.7449 61.1333 67.0149 60.9433 67.3349 60.81C67.6549 60.6767 68.0249 60.61 68.4449 60.61C68.6782 60.61 68.8782 60.63 69.0449 60.67C69.2182 60.7033 69.3882 60.7467 69.5549 60.8V59H70.9549V64.16ZM68.4449 64.98C68.7582 64.98 69.0015 64.91 69.1749 64.77C69.3482 64.6233 69.4749 64.4167 69.5549 64.15V62.05C69.4349 61.9567 69.3049 61.89 69.1649 61.85C69.0315 61.8033 68.8549 61.78 68.6349 61.78C68.1882 61.78 67.8549 61.91 67.6349 62.17C67.4215 62.43 67.3149 62.8767 67.3149 63.51C67.3149 63.95 67.4049 64.3067 67.5849 64.58C67.7715 64.8467 68.0582 64.98 68.4449 64.98ZM76.9442 65.52C76.7175 65.6933 76.4075 65.8433 76.0142 65.97C75.6275 66.09 75.2108 66.15 74.7642 66.15C73.8642 66.15 73.2042 65.9033 72.7842 65.41C72.3642 64.9167 72.1542 64.24 72.1542 63.38C72.1542 62.4667 72.3908 61.7767 72.8642 61.31C73.3375 60.8367 74.0042 60.6 74.8642 60.6C75.1442 60.6 75.4208 60.6367 75.6942 60.71C75.9675 60.7767 76.2108 60.8933 76.4242 61.06C76.6375 61.22 76.8075 61.44 76.9342 61.72C77.0675 61.9933 77.1342 62.3333 77.1342 62.74C77.1342 62.88 77.1242 63.0333 77.1042 63.2C77.0908 63.3667 77.0642 63.54 77.0242 63.72H73.5242C73.5575 64.1733 73.6875 64.51 73.9142 64.73C74.1475 64.9433 74.5242 65.05 75.0442 65.05C75.3575 65.05 75.6375 65.0067 75.8842 64.92C76.1375 64.8267 76.3308 64.7333 76.4642 64.64L76.9442 65.52ZM74.8442 61.7C74.4308 61.7 74.1242 61.8133 73.9242 62.04C73.7242 62.26 73.6075 62.5433 73.5742 62.89H75.8342C75.8608 62.5233 75.7942 62.2333 75.6342 62.02C75.4742 61.8067 75.2108 61.7 74.8442 61.7ZM29.8299 78.52C29.6032 78.6933 29.2932 78.8433 28.8999 78.97C28.5132 79.09 28.0966 79.15 27.6499 79.15C26.7499 79.15 26.0899 78.9033 25.6699 78.41C25.2499 77.9167 25.0399 77.24 25.0399 76.38C25.0399 75.4667 25.2766 74.7767 25.7499 74.31C26.2232 73.8367 26.8899 73.6 27.7499 73.6C28.0299 73.6 28.3066 73.6367 28.5799 73.71C28.8532 73.7767 29.0966 73.8933 29.3099 74.06C29.5232 74.22 29.6932 74.44 29.8199 74.72C29.9532 74.9933 30.0199 75.3333 30.0199 75.74C30.0199 75.88 30.0099 76.0333 29.9899 76.2C29.9766 76.3667 29.9499 76.54 29.9099 76.72H26.4099C26.4432 77.1733 26.5732 77.51 26.7999 77.73C27.0332 77.9433 27.4099 78.05 27.9299 78.05C28.2432 78.05 28.5232 78.0067 28.7699 77.92C29.0232 77.8267 29.2166 77.7333 29.3499 77.64L29.8299 78.52ZM27.7299 74.7C27.3166 74.7 27.0099 74.8133 26.8099 75.04C26.6099 75.26 26.4932 75.5433 26.4599 75.89H28.7199C28.7466 75.5233 28.6799 75.2333 28.5199 75.02C28.3599 74.8067 28.0966 74.7 27.7299 74.7ZM34.5574 79V76.26C34.5574 75.7533 34.5041 75.39 34.3974 75.17C34.2907 74.95 34.0707 74.84 33.7374 74.84C33.4574 74.84 33.2341 74.91 33.0674 75.05C32.9007 75.1833 32.7707 75.36 32.6774 75.58V79H31.2774V73.75H32.3574L32.5174 74.48H32.6474C32.7341 74.3667 32.8341 74.2567 32.9474 74.15C33.0607 74.0433 33.1841 73.95 33.3174 73.87C33.4574 73.79 33.6107 73.7267 33.7774 73.68C33.9507 73.6267 34.1441 73.6 34.3574 73.6C34.7107 73.6 35.0041 73.68 35.2374 73.84C35.4774 73.9933 35.6674 74.2533 35.8074 74.62C36.0007 74.3 36.2341 74.05 36.5074 73.87C36.7874 73.69 37.1107 73.6 37.4774 73.6C37.7974 73.6 38.0674 73.6367 38.2874 73.71C38.5141 73.7833 38.6974 73.91 38.8374 74.09C38.9774 74.27 39.0774 74.5133 39.1374 74.82C39.2041 75.1267 39.2374 75.51 39.2374 75.97V79H37.8374V76.19C37.8374 75.97 37.8274 75.7767 37.8074 75.61C37.7874 75.4433 37.7474 75.3033 37.6874 75.19C37.6274 75.07 37.5407 74.9833 37.4274 74.93C37.3207 74.87 37.1774 74.84 36.9974 74.84C36.7174 74.84 36.4907 74.9133 36.3174 75.06C36.1507 75.2 36.0307 75.3967 35.9574 75.65V79H34.5574ZM40.6817 73.75H41.6817L41.8517 74.4H41.9717C42.1784 74.1333 42.4184 73.9333 42.6917 73.8C42.965 73.6667 43.285 73.6 43.6517 73.6C44.3584 73.6 44.8884 73.8133 45.2417 74.24C45.595 74.66 45.7717 75.33 45.7717 76.25C45.7717 76.69 45.715 77.09 45.6017 77.45C45.4884 77.8033 45.3217 78.11 45.1017 78.37C44.8817 78.6233 44.6084 78.82 44.2817 78.96C43.9617 79.0933 43.5917 79.16 43.1717 79.16C42.945 79.16 42.7484 79.1367 42.5817 79.09C42.415 79.05 42.2484 78.9933 42.0817 78.92V80.99H40.6817V73.75ZM43.2217 74.77C42.9017 74.77 42.655 74.8433 42.4817 74.99C42.3084 75.13 42.175 75.35 42.0817 75.65V77.69C42.195 77.7833 42.3217 77.8567 42.4617 77.91C42.6017 77.9633 42.7784 77.99 42.9917 77.99C43.445 77.99 43.7817 77.85 44.0017 77.57C44.2217 77.2833 44.3317 76.83 44.3317 76.21C44.3317 75.7633 44.245 75.4133 44.0717 75.16C43.905 74.9 43.6217 74.77 43.2217 74.77ZM48.3422 77.16C48.3422 77.6667 48.5055 77.92 48.8322 77.92C48.9255 77.92 49.0122 77.9133 49.0922 77.9C49.1788 77.88 49.2788 77.85 49.3922 77.81L49.5622 78.9C49.4288 78.96 49.2388 79.0167 48.9922 79.07C48.7522 79.13 48.5022 79.16 48.2422 79.16C47.8222 79.16 47.4988 79.0667 47.2722 78.88C47.0522 78.6933 46.9422 78.3867 46.9422 77.96V72H48.3422V77.16ZM54.7713 78.52C54.5446 78.6933 54.2346 78.8433 53.8413 78.97C53.4546 79.09 53.038 79.15 52.5913 79.15C51.6913 79.15 51.0313 78.9033 50.6113 78.41C50.1913 77.9167 49.9813 77.24 49.9813 76.38C49.9813 75.4667 50.218 74.7767 50.6913 74.31C51.1646 73.8367 51.8313 73.6 52.6913 73.6C52.9713 73.6 53.248 73.6367 53.5213 73.71C53.7946 73.7767 54.038 73.8933 54.2513 74.06C54.4646 74.22 54.6346 74.44 54.7613 74.72C54.8946 74.9933 54.9613 75.3333 54.9613 75.74C54.9613 75.88 54.9513 76.0333 54.9313 76.2C54.918 76.3667 54.8913 76.54 54.8513 76.72H51.3513C51.3846 77.1733 51.5146 77.51 51.7413 77.73C51.9746 77.9433 52.3513 78.05 52.8713 78.05C53.1846 78.05 53.4646 78.0067 53.7113 77.92C53.9646 77.8267 54.158 77.7333 54.2913 77.64L54.7713 78.52ZM52.6713 74.7C52.258 74.7 51.9513 74.8133 51.7513 75.04C51.5513 75.26 51.4346 75.5433 51.4013 75.89H53.6613C53.688 75.5233 53.6213 75.2333 53.4613 75.02C53.3013 74.8067 53.038 74.7 52.6713 74.7ZM55.8602 76.38C55.8602 75.5133 56.0902 74.8333 56.5502 74.34C57.0102 73.8467 57.6669 73.6 58.5202 73.6C58.9669 73.6 59.3569 73.67 59.6902 73.81C60.0235 73.95 60.3002 74.1467 60.5202 74.4C60.7402 74.6467 60.9035 74.94 61.0102 75.28C61.1235 75.6133 61.1802 75.98 61.1802 76.38C61.1802 76.8067 61.1202 77.1933 61.0002 77.54C60.8802 77.88 60.7069 78.17 60.4802 78.41C60.2535 78.65 59.9735 78.8333 59.6402 78.96C59.3135 79.0867 58.9402 79.15 58.5202 79.15C58.0669 79.15 57.6735 79.08 57.3402 78.94C57.0069 78.8 56.7302 78.6067 56.5102 78.36C56.2902 78.1067 56.1269 77.8133 56.0202 77.48C55.9135 77.14 55.8602 76.7733 55.8602 76.38ZM57.3002 76.38C57.3002 76.6 57.3235 76.8067 57.3702 77C57.4169 77.1933 57.4869 77.3633 57.5802 77.51C57.6802 77.65 57.8069 77.7633 57.9602 77.85C58.1135 77.9367 58.3002 77.98 58.5202 77.98C59.3335 77.98 59.7402 77.4467 59.7402 76.38C59.7402 76.1467 59.7169 75.9333 59.6702 75.74C59.6302 75.54 59.5602 75.37 59.4602 75.23C59.3669 75.0833 59.2402 74.97 59.0802 74.89C58.9269 74.81 58.7402 74.77 58.5202 74.77C58.1402 74.77 57.8402 74.8967 57.6202 75.15C57.4069 75.4033 57.3002 75.8133 57.3002 76.38Z"/><defs><filter id="filter0_d" width="88" height="88" x="0" y="0" color-interpolation-filters="sRGB" filterUnits="userSpaceOnUse"><feFlood flood-opacity="0" result="BackgroundImageFix"/><feColorMatrix in="SourceAlpha" type="matrix" values="0 0 0 0 0 0 0 0 0 0 0 0 0 0 0 0 0 0 127 0"/><feOffset dy="4"/><feGaussianBlur stdDeviation="2"/><feColorMatrix type="matrix" values="0 0 0 0 0 0 0 0 0 0 0 0 0 0 0 0 0 0 0.25 0"/><feBlend in2="BackgroundImageFix" mode="normal" result="effect1_dropShadow"/><feBlend in="SourceGraphic" in2="effect1_dropShadow" mode="normal" result="shape"/></filter><clipPath id="clip0"><rect width="49.92" height="51.2" fill="#fff" transform="translate(19.04 4.8)"/></clipPath></defs></svg>