<svg width="98" height="98" viewBox="0 0 98 98" fill="none" xmlns="http://www.w3.org/2000/svg">
<g filter="url(#filter0_d)">
<path d="M74 0H24C12.9543 0 4 8.9543 4 20V70C4 81.0457 12.9543 90 24 90H74C85.0457 90 94 81.0457 94 70V20C94 8.95431 85.0457 0 74 0Z" fill="#235789"/>
</g>
<g clip-path="url(#clip0)">
<path d="M43.4259 21.5639H53.8746C54.7833 21.5639 55.5199 20.8083 55.5199 19.8764C55.5199 18.9444 54.7833 18.1889 53.8746 18.1889H43.4259C42.5172 18.1889 41.7806 18.9444 41.7806 19.8764C41.7806 20.8083 42.5171 21.5639 43.4259 21.5639V21.5639Z" fill="white"/>
<path d="M61.0689 5.39999H22.5653C21.6567 5.39999 20.92 6.15554 20.92 7.08749V61.3125C20.92 62.2444 21.6567 63 22.5653 63H61.0689C61.9776 63 62.7142 62.2444 62.7142 61.3125V7.08749C62.7142 6.15554 61.9776 5.39999 61.0689 5.39999ZM59.4236 59.625H24.2106V8.77499H59.4236V59.625Z" fill="white"/>
<path d="M77.08 46.294V11.1275C77.08 7.96938 74.5748 5.39999 71.4957 5.39999C68.4164 5.39999 65.9113 7.96938 65.9113 11.1275V46.2939C65.9113 47.1743 66.569 47.8964 67.4077 47.9736L66.0094 51.9358C65.8625 52.3524 65.881 52.8115 66.0612 53.2141L70.0003 62.0163C70.2685 62.6157 70.8527 62.9999 71.4957 62.9999C72.1387 62.9999 72.7229 62.6157 72.9911 62.0163L76.93 53.2141C77.1103 52.8114 77.1288 52.3523 76.9818 51.9358L75.5835 47.9736C76.4223 47.8964 77.08 47.1744 77.08 46.294V46.294ZM69.2019 44.6065V19.4519H73.7894V44.6064H69.2019V44.6065ZM71.4957 8.77499C72.7604 8.77499 73.7894 9.83036 73.7894 11.1275V16.0769H69.2019V11.1275C69.2019 9.83036 70.2309 8.77499 71.4957 8.77499V8.77499ZM71.4957 57.2671L69.3331 52.4346L70.9046 47.9814H72.0867L73.6583 52.4346L71.4957 57.2671Z" fill="white"/>
<path d="M30.8688 23.0847C31.1773 23.4011 31.5958 23.579 32.0321 23.579C32.4684 23.579 32.887 23.4011 33.1955 23.0848L38.1931 17.9589C38.8357 17.2999 38.8357 16.2315 38.1931 15.5725C37.5507 14.9134 36.5089 14.9134 35.8663 15.5725L32.0321 19.505L30.8402 18.2824C30.1979 17.6233 29.1561 17.6233 28.5134 18.2824C27.8709 18.9414 27.8709 20.0098 28.5134 20.6688L30.8688 23.0847Z" fill="white"/>
<path d="M43.4259 31.8019H53.8746C54.7833 31.8019 55.5199 31.0464 55.5199 30.1144C55.5199 29.1825 54.7833 28.4269 53.8746 28.4269H43.4259C42.5172 28.4269 41.7806 29.1825 41.7806 30.1144C41.7806 31.0464 42.5171 31.8019 43.4259 31.8019V31.8019Z" fill="white"/>
<path d="M30.8688 33.3226C31.1773 33.6391 31.5958 33.8169 32.0321 33.8169C32.4684 33.8169 32.887 33.6391 33.1955 33.3227L38.1931 28.1969C38.8357 27.5379 38.8357 26.4694 38.1931 25.8104C37.5507 25.1514 36.5089 25.1514 35.8663 25.8104L32.0321 29.743L30.8402 28.5205C30.1979 27.8615 29.1561 27.8615 28.5134 28.5205C27.8709 29.1796 27.8709 30.248 28.5134 30.907L30.8688 33.3226Z" fill="white"/>
<path d="M43.4259 42.0399H53.8746C54.7833 42.0399 55.5199 41.2843 55.5199 40.3524C55.5199 39.4204 54.7833 38.6649 53.8746 38.6649H43.4259C42.5172 38.6649 41.7806 39.4204 41.7806 40.3524C41.7806 41.2843 42.5171 42.0399 43.4259 42.0399V42.0399Z" fill="white"/>
<path d="M43.4259 52.67H53.8746C54.7833 52.67 55.5199 51.9145 55.5199 50.9825C55.5199 50.0506 54.7833 49.295 53.8746 49.295H43.4259C42.5172 49.295 41.7806 50.0506 41.7806 50.9825C41.7806 51.9145 42.5171 52.67 43.4259 52.67V52.67Z" fill="white"/>
<path d="M30.8688 43.5607C31.1773 43.8771 31.5958 44.055 32.0321 44.055C32.4684 44.055 32.887 43.8771 33.1955 43.5608L38.1931 38.4351C38.8357 37.776 38.8357 36.7076 38.1931 36.0486C37.5507 35.3896 36.5089 35.3897 35.8663 36.0486L32.0321 39.9812L30.8402 38.7585C30.1979 38.0995 29.1561 38.0995 28.5134 38.7585C27.8708 39.4175 27.8709 40.4859 28.5134 41.145L30.8688 43.5607Z" fill="white"/>
</g>
<path d="M14.3064 71.888C14.3064 71.6607 14.2111 71.481 14.0204 71.349C13.8297 71.217 13.5914 71.096 13.3054 70.986C13.0267 70.876 12.7224 70.766 12.3924 70.656C12.0624 70.546 11.7544 70.3993 11.4684 70.216C11.1897 70.0327 10.9551 69.8017 10.7644 69.523C10.5737 69.2443 10.4784 68.8813 10.4784 68.434C10.4784 68.0527 10.5444 67.719 10.6764 67.433C10.8157 67.1397 11.0064 66.9013 11.2484 66.718C11.4977 66.5273 11.7947 66.3843 12.1394 66.289C12.4914 66.1937 12.8764 66.146 13.2944 66.146C13.7784 66.146 14.2367 66.19 14.6694 66.278C15.1094 66.3587 15.4687 66.476 15.7474 66.63L15.2304 67.994C15.1424 67.9427 15.0287 67.8913 14.8894 67.84C14.7574 67.7813 14.6034 67.7337 14.4274 67.697C14.2514 67.653 14.0644 67.62 13.8664 67.598C13.6684 67.5687 13.4667 67.554 13.2614 67.554C12.8947 67.554 12.6087 67.62 12.4034 67.752C12.2054 67.8767 12.1064 68.0527 12.1064 68.28C12.1064 68.5073 12.2017 68.6907 12.3924 68.83C12.5831 68.962 12.8177 69.0867 13.0964 69.204C13.3824 69.314 13.6904 69.4277 14.0204 69.545C14.3504 69.655 14.6547 69.8017 14.9334 69.985C15.2194 70.161 15.4577 70.3847 15.6484 70.656C15.8391 70.9273 15.9344 71.2757 15.9344 71.701C15.9344 72.1263 15.8611 72.493 15.7144 72.801C15.5677 73.109 15.3587 73.3657 15.0874 73.571C14.8234 73.769 14.5044 73.9157 14.1304 74.011C13.7564 74.1063 13.3457 74.154 12.8984 74.154C12.5977 74.154 12.3117 74.1357 12.0404 74.099C11.7764 74.0697 11.5307 74.033 11.3034 73.989C11.0761 73.9377 10.8744 73.8863 10.6984 73.835C10.5297 73.7763 10.3941 73.7213 10.2914 73.67L10.8304 72.295C10.9111 72.339 11.0211 72.3867 11.1604 72.438C11.3071 72.4893 11.4684 72.5407 11.6444 72.592C11.8204 72.636 12.0074 72.6727 12.2054 72.702C12.4107 72.7313 12.6161 72.746 12.8214 72.746C13.3054 72.746 13.6721 72.6763 13.9214 72.537C14.1781 72.3977 14.3064 72.1813 14.3064 71.888ZM16.7725 71.118C16.7725 70.1647 17.0255 69.4167 17.5315 68.874C18.0375 68.3313 18.7599 68.06 19.6985 68.06C20.1899 68.06 20.6189 68.137 20.9855 68.291C21.3522 68.445 21.6565 68.6613 21.8985 68.94C22.1405 69.2113 22.3202 69.534 22.4375 69.908C22.5622 70.2747 22.6245 70.678 22.6245 71.118C22.6245 71.5873 22.5585 72.0127 22.4265 72.394C22.2945 72.768 22.1039 73.087 21.8545 73.351C21.6052 73.615 21.2972 73.8167 20.9305 73.956C20.5712 74.0953 20.1605 74.165 19.6985 74.165C19.1999 74.165 18.7672 74.088 18.4005 73.934C18.0339 73.78 17.7295 73.5673 17.4875 73.296C17.2455 73.0173 17.0659 72.6947 16.9485 72.328C16.8312 71.954 16.7725 71.5507 16.7725 71.118ZM18.3565 71.118C18.3565 71.36 18.3822 71.5873 18.4335 71.8C18.4849 72.0127 18.5619 72.1997 18.6645 72.361C18.7745 72.515 18.9139 72.6397 19.0825 72.735C19.2512 72.8303 19.4565 72.878 19.6985 72.878C20.5932 72.878 21.0405 72.2913 21.0405 71.118C21.0405 70.8613 21.0149 70.6267 20.9635 70.414C20.9195 70.194 20.8425 70.007 20.7325 69.853C20.6299 69.6917 20.4905 69.567 20.3145 69.479C20.1459 69.391 19.9405 69.347 19.6985 69.347C19.2805 69.347 18.9505 69.4863 18.7085 69.765C18.4739 70.0437 18.3565 70.4947 18.3565 71.118ZM25.4539 71.976C25.4539 72.5333 25.6335 72.812 25.9929 72.812C26.0955 72.812 26.1909 72.8047 26.2789 72.79C26.3742 72.768 26.4842 72.735 26.6089 72.691L26.7959 73.89C26.6492 73.956 26.4402 74.0183 26.1689 74.077C25.9049 74.143 25.6299 74.176 25.3439 74.176C24.8819 74.176 24.5262 74.0733 24.2769 73.868C24.0349 73.6627 23.9139 73.3253 23.9139 72.856V66.3H25.4539V71.976ZM27.7739 68.225H29.3139V74H27.7739V68.225ZM27.5429 66.784C27.5429 66.5493 27.6273 66.355 27.7959 66.201C27.9646 66.0397 28.2029 65.959 28.5109 65.959C28.8263 65.959 29.0756 66.0397 29.2589 66.201C29.4423 66.3623 29.5339 66.5567 29.5339 66.784C29.5339 66.9967 29.4423 67.18 29.2589 67.334C29.0756 67.488 28.8263 67.565 28.5109 67.565C28.2029 67.565 27.9646 67.488 27.7959 67.334C27.6273 67.18 27.5429 66.9967 27.5429 66.784ZM35.4341 73.648C35.1848 73.8167 34.8841 73.945 34.5321 74.033C34.1875 74.121 33.8281 74.165 33.4541 74.165C32.9555 74.165 32.5338 74.0917 32.1891 73.945C31.8518 73.7983 31.5731 73.5893 31.3531 73.318C31.1405 73.0467 30.9865 72.7277 30.8911 72.361C30.7958 71.987 30.7481 71.5727 30.7481 71.118C30.7481 70.1573 30.9828 69.4093 31.4521 68.874C31.9288 68.3313 32.6181 68.06 33.5201 68.06C33.9601 68.06 34.3195 68.0967 34.5981 68.17C34.8841 68.236 35.1371 68.324 35.3571 68.434L34.9831 69.666C34.7925 69.5853 34.6018 69.5267 34.4111 69.49C34.2278 69.446 34.0115 69.424 33.7621 69.424C33.3001 69.424 32.9445 69.5597 32.6951 69.831C32.4531 70.095 32.3321 70.524 32.3321 71.118C32.3321 71.3527 32.3615 71.5727 32.4201 71.778C32.4788 71.976 32.5705 72.152 32.6951 72.306C32.8198 72.46 32.9775 72.581 33.1681 72.669C33.3588 72.757 33.5825 72.801 33.8391 72.801C34.1471 72.801 34.3891 72.7753 34.5651 72.724C34.7485 72.6653 34.9208 72.5883 35.0821 72.493L35.4341 73.648ZM36.7651 68.225H38.3051V74H36.7651V68.225ZM36.5341 66.784C36.5341 66.5493 36.6185 66.355 36.7871 66.201C36.9558 66.0397 37.1941 65.959 37.5021 65.959C37.8175 65.959 38.0668 66.0397 38.2501 66.201C38.4335 66.3623 38.5251 66.5567 38.5251 66.784C38.5251 66.9967 38.4335 67.18 38.2501 67.334C38.0668 67.488 37.8175 67.565 37.5021 67.565C37.1941 67.565 36.9558 67.488 36.7871 67.334C36.6185 67.18 36.5341 66.9967 36.5341 66.784ZM39.3653 68.225H40.2453V67.433L41.7853 67.026V68.225H43.3363V69.512H41.7853V71.514C41.7853 71.976 41.8293 72.3097 41.9173 72.515C42.0127 72.713 42.196 72.812 42.4673 72.812C42.636 72.812 42.779 72.801 42.8963 72.779C43.0137 72.7497 43.1383 72.7057 43.2703 72.647L43.5893 73.802C43.3547 73.9047 43.0833 73.9927 42.7753 74.066C42.4747 74.1393 42.1813 74.176 41.8953 74.176C41.3233 74.176 40.9053 74.0367 40.6413 73.758C40.3773 73.472 40.2453 73.0173 40.2453 72.394V69.512H39.3653V68.225ZM46.0566 68.225V71.426C46.0566 71.9027 46.1226 72.251 46.2546 72.471C46.3866 72.691 46.6396 72.801 47.0136 72.801C47.3363 72.801 47.6076 72.7167 47.8276 72.548C48.0476 72.3793 48.2089 72.1667 48.3116 71.91V68.225H49.8516V72.24C49.8516 72.548 49.8663 72.856 49.8956 73.164C49.9323 73.472 49.9799 73.7507 50.0386 74H48.9056L48.6086 73.098H48.4876C48.2969 73.406 48.0256 73.6627 47.6736 73.868C47.3216 74.066 46.9183 74.165 46.4636 74.165C46.1483 74.165 45.8696 74.1247 45.6276 74.044C45.3856 73.9633 45.1803 73.8313 45.0116 73.648C44.8503 73.4573 44.7256 73.208 44.6376 72.9C44.5569 72.592 44.5166 72.2107 44.5166 71.756V68.225H46.0566ZM56.8322 71.976C56.8322 72.284 56.8359 72.603 56.8432 72.933C56.8506 73.263 56.8836 73.6223 56.9422 74.011H55.8752L55.6552 73.208H55.5122C55.3436 73.5013 55.1016 73.736 54.7862 73.912C54.4782 74.0807 54.1079 74.165 53.6752 74.165C52.9052 74.165 52.3076 73.9267 51.8822 73.45C51.4569 72.966 51.2442 72.2217 51.2442 71.217C51.2442 70.733 51.3029 70.2967 51.4202 69.908C51.5449 69.5193 51.7246 69.1893 51.9592 68.918C52.2012 68.6467 52.4982 68.4377 52.8502 68.291C53.2022 68.1443 53.6092 68.071 54.0712 68.071C54.3279 68.071 54.5479 68.093 54.7312 68.137C54.9219 68.1737 55.1089 68.2213 55.2922 68.28V66.3H56.8322V71.976ZM54.0712 72.878C54.4159 72.878 54.6836 72.801 54.8742 72.647C55.0649 72.4857 55.2042 72.2583 55.2922 71.965V69.655C55.1602 69.5523 55.0172 69.479 54.8632 69.435C54.7166 69.3837 54.5222 69.358 54.2802 69.358C53.7889 69.358 53.4222 69.501 53.1802 69.787C52.9456 70.073 52.8282 70.5643 52.8282 71.261C52.8282 71.745 52.9272 72.1373 53.1252 72.438C53.3306 72.7313 53.6459 72.878 54.0712 72.878ZM63.4205 73.472C63.1711 73.6627 62.8301 73.8277 62.3975 73.967C61.9721 74.099 61.5138 74.165 61.0225 74.165C60.0325 74.165 59.3065 73.8937 58.8445 73.351C58.3825 72.8083 58.1515 72.064 58.1515 71.118C58.1515 70.1133 58.4118 69.3543 58.9325 68.841C59.4531 68.3203 60.1865 68.06 61.1325 68.06C61.4405 68.06 61.7448 68.1003 62.0455 68.181C62.3461 68.2543 62.6138 68.3827 62.8485 68.566C63.0831 68.742 63.2701 68.984 63.4095 69.292C63.5561 69.5927 63.6295 69.9667 63.6295 70.414C63.6295 70.568 63.6185 70.7367 63.5965 70.92C63.5818 71.1033 63.5525 71.294 63.5085 71.492H59.6585C59.6951 71.9907 59.8381 72.361 60.0875 72.603C60.3441 72.8377 60.7585 72.955 61.3305 72.955C61.6751 72.955 61.9831 72.9073 62.2545 72.812C62.5331 72.7093 62.7458 72.6067 62.8925 72.504L63.4205 73.472ZM61.1105 69.27C60.6558 69.27 60.3185 69.3947 60.0985 69.644C59.8785 69.886 59.7501 70.1977 59.7135 70.579H62.1995C62.2288 70.1757 62.1555 69.8567 61.9795 69.622C61.8035 69.3873 61.5138 69.27 61.1105 69.27ZM65.0017 72.504C65.1044 72.5553 65.2217 72.6067 65.3537 72.658C65.493 72.7093 65.6397 72.757 65.7937 72.801C65.955 72.845 66.1164 72.8817 66.2777 72.911C66.4464 72.9403 66.615 72.955 66.7837 72.955C67.0404 72.955 67.2384 72.9147 67.3777 72.834C67.5244 72.7533 67.5977 72.603 67.5977 72.383C67.5977 72.207 67.5024 72.0787 67.3117 71.998C67.121 71.91 66.8864 71.8257 66.6077 71.745C66.4024 71.6863 66.186 71.6167 65.9587 71.536C65.7387 71.4553 65.5334 71.349 65.3427 71.217C65.1594 71.0777 65.0054 70.898 64.8807 70.678C64.7634 70.458 64.7047 70.1793 64.7047 69.842C64.7047 69.2627 64.8844 68.8227 65.2437 68.522C65.603 68.214 66.12 68.06 66.7947 68.06C67.2347 68.06 67.6454 68.1003 68.0267 68.181C68.4154 68.2543 68.727 68.3423 68.9617 68.445L68.6427 69.611C68.452 69.5377 68.2064 69.4643 67.9057 69.391C67.6124 69.3103 67.3117 69.27 67.0037 69.27C66.747 69.27 66.5564 69.3103 66.4317 69.391C66.307 69.4643 66.2447 69.5963 66.2447 69.787C66.2447 69.9557 66.34 70.084 66.5307 70.172C66.7287 70.2527 66.967 70.3333 67.2457 70.414C67.451 70.4727 67.6637 70.5423 67.8837 70.623C68.111 70.6963 68.3164 70.799 68.4997 70.931C68.683 71.063 68.8334 71.2353 68.9507 71.448C69.0754 71.6533 69.1377 71.9137 69.1377 72.229C69.1377 72.845 68.936 73.3217 68.5327 73.659C68.1367 73.9963 67.539 74.165 66.7397 74.165C66.307 74.165 65.9037 74.1247 65.5297 74.044C65.1557 73.9707 64.8514 73.8607 64.6167 73.714L65.0017 72.504ZM78.6281 71.976C78.6281 72.284 78.6318 72.603 78.6391 72.933C78.6465 73.263 78.6795 73.6223 78.7381 74.011H77.6711L77.4511 73.208H77.3081C77.1395 73.5013 76.8975 73.736 76.5821 73.912C76.2741 74.0807 75.9038 74.165 75.4711 74.165C74.7011 74.165 74.1035 73.9267 73.6781 73.45C73.2528 72.966 73.0401 72.2217 73.0401 71.217C73.0401 70.733 73.0988 70.2967 73.2161 69.908C73.3408 69.5193 73.5205 69.1893 73.7551 68.918C73.9971 68.6467 74.2941 68.4377 74.6461 68.291C74.9981 68.1443 75.4051 68.071 75.8671 68.071C76.1238 68.071 76.3438 68.093 76.5271 68.137C76.7178 68.1737 76.9048 68.2213 77.0881 68.28V66.3H78.6281V71.976ZM75.8671 72.878C76.2118 72.878 76.4795 72.801 76.6701 72.647C76.8608 72.4857 77.0001 72.2583 77.0881 71.965V69.655C76.9561 69.5523 76.8131 69.479 76.6591 69.435C76.5125 69.3837 76.3181 69.358 76.0761 69.358C75.5848 69.358 75.2181 69.501 74.9761 69.787C74.7415 70.073 74.6241 70.5643 74.6241 71.261C74.6241 71.745 74.7231 72.1373 74.9211 72.438C75.1265 72.7313 75.4418 72.878 75.8671 72.878ZM85.2164 73.472C84.967 73.6627 84.626 73.8277 84.1934 73.967C83.768 74.099 83.3097 74.165 82.8184 74.165C81.8284 74.165 81.1024 73.8937 80.6404 73.351C80.1784 72.8083 79.9474 72.064 79.9474 71.118C79.9474 70.1133 80.2077 69.3543 80.7284 68.841C81.249 68.3203 81.9824 68.06 82.9284 68.06C83.2364 68.06 83.5407 68.1003 83.8414 68.181C84.142 68.2543 84.4097 68.3827 84.6444 68.566C84.879 68.742 85.066 68.984 85.2054 69.292C85.352 69.5927 85.4254 69.9667 85.4254 70.414C85.4254 70.568 85.4144 70.7367 85.3924 70.92C85.3777 71.1033 85.3484 71.294 85.3044 71.492H81.4544C81.491 71.9907 81.634 72.361 81.8834 72.603C82.14 72.8377 82.5544 72.955 83.1264 72.955C83.471 72.955 83.779 72.9073 84.0504 72.812C84.329 72.7093 84.5417 72.6067 84.6884 72.504L85.2164 73.472ZM82.9064 69.27C82.4517 69.27 82.1144 69.3947 81.8944 69.644C81.6744 69.886 81.546 70.1977 81.5094 70.579H83.9954C84.0247 70.1757 83.9514 69.8567 83.7754 69.622C83.5994 69.3873 83.3097 69.27 82.9064 69.27ZM33.3907 87.472C33.1413 87.6627 32.8003 87.8277 32.3677 87.967C31.9423 88.099 31.484 88.165 30.9927 88.165C30.0027 88.165 29.2767 87.8937 28.8147 87.351C28.3527 86.8083 28.1217 86.064 28.1217 85.118C28.1217 84.1133 28.382 83.3543 28.9027 82.841C29.4233 82.3203 30.1567 82.06 31.1027 82.06C31.4107 82.06 31.715 82.1003 32.0157 82.181C32.3163 82.2543 32.584 82.3827 32.8187 82.566C33.0533 82.742 33.2403 82.984 33.3797 83.292C33.5263 83.5927 33.5997 83.9667 33.5997 84.414C33.5997 84.568 33.5887 84.7367 33.5667 84.92C33.552 85.1033 33.5227 85.294 33.4787 85.492H29.6287C29.6653 85.9907 29.8083 86.361 30.0577 86.603C30.3143 86.8377 30.7287 86.955 31.3007 86.955C31.6453 86.955 31.9533 86.9073 32.2247 86.812C32.5033 86.7093 32.716 86.6067 32.8627 86.504L33.3907 87.472ZM31.0807 83.27C30.626 83.27 30.2887 83.3947 30.0687 83.644C29.8487 83.886 29.7203 84.1977 29.6837 84.579H32.1697C32.199 84.1757 32.1257 83.8567 31.9497 83.622C31.7737 83.3873 31.484 83.27 31.0807 83.27ZM38.5909 88V84.986C38.5909 84.4287 38.5323 84.029 38.4149 83.787C38.2976 83.545 38.0556 83.424 37.6889 83.424C37.3809 83.424 37.1353 83.501 36.9519 83.655C36.7686 83.8017 36.6256 83.996 36.5229 84.238V88H34.9829V82.225H36.1709L36.3469 83.028H36.4899C36.5853 82.9033 36.6953 82.7823 36.8199 82.665C36.9446 82.5477 37.0803 82.445 37.2269 82.357C37.3809 82.269 37.5496 82.1993 37.7329 82.148C37.9236 82.0893 38.1363 82.06 38.3709 82.06C38.7596 82.06 39.0823 82.148 39.3389 82.324C39.6029 82.4927 39.8119 82.7787 39.9659 83.182C40.1786 82.83 40.4353 82.555 40.7359 82.357C41.0439 82.159 41.3996 82.06 41.8029 82.06C42.1549 82.06 42.4519 82.1003 42.6939 82.181C42.9433 82.2617 43.1449 82.401 43.2989 82.599C43.4529 82.797 43.5629 83.0647 43.6289 83.402C43.7023 83.7393 43.7389 84.161 43.7389 84.667V88H42.1989V84.909C42.1989 84.667 42.1879 84.4543 42.1659 84.271C42.1439 84.0877 42.0999 83.9337 42.0339 83.809C41.9679 83.677 41.8726 83.5817 41.7479 83.523C41.6306 83.457 41.4729 83.424 41.2749 83.424C40.9669 83.424 40.7176 83.5047 40.5269 83.666C40.3436 83.82 40.2116 84.0363 40.1309 84.315V88H38.5909ZM45.3276 82.225H46.4276L46.6146 82.94H46.7466C46.974 82.6467 47.238 82.4267 47.5386 82.28C47.8393 82.1333 48.1913 82.06 48.5946 82.06C49.372 82.06 49.955 82.2947 50.3436 82.764C50.7323 83.226 50.9266 83.963 50.9266 84.975C50.9266 85.459 50.8643 85.899 50.7396 86.295C50.615 86.6837 50.4316 87.021 50.1896 87.307C49.9476 87.5857 49.647 87.802 49.2876 87.956C48.9356 88.1027 48.5286 88.176 48.0666 88.176C47.8173 88.176 47.601 88.1503 47.4176 88.099C47.2343 88.055 47.051 87.9927 46.8676 87.912V90.189H45.3276V82.225ZM48.1216 83.347C47.7696 83.347 47.4983 83.4277 47.3076 83.589C47.117 83.743 46.9703 83.985 46.8676 84.315V86.559C46.9923 86.6617 47.1316 86.7423 47.2856 86.801C47.4396 86.8597 47.634 86.889 47.8686 86.889C48.3673 86.889 48.7376 86.735 48.9796 86.427C49.2216 86.1117 49.3426 85.613 49.3426 84.931C49.3426 84.4397 49.2473 84.0547 49.0566 83.776C48.8733 83.49 48.5616 83.347 48.1216 83.347ZM53.7542 85.976C53.7542 86.5333 53.9338 86.812 54.2932 86.812C54.3958 86.812 54.4912 86.8047 54.5792 86.79C54.6745 86.768 54.7845 86.735 54.9092 86.691L55.0962 87.89C54.9495 87.956 54.7405 88.0183 54.4692 88.077C54.2052 88.143 53.9302 88.176 53.6442 88.176C53.1822 88.176 52.8265 88.0733 52.5772 87.868C52.3352 87.6627 52.2142 87.3253 52.2142 86.856V80.3H53.7542V85.976ZM60.8262 87.472C60.5769 87.6627 60.2359 87.8277 59.8032 87.967C59.3779 88.099 58.9195 88.165 58.4282 88.165C57.4382 88.165 56.7122 87.8937 56.2502 87.351C55.7882 86.8083 55.5572 86.064 55.5572 85.118C55.5572 84.1133 55.8175 83.3543 56.3382 82.841C56.8589 82.3203 57.5922 82.06 58.5382 82.06C58.8462 82.06 59.1505 82.1003 59.4512 82.181C59.7519 82.2543 60.0195 82.3827 60.2542 82.566C60.4889 82.742 60.6759 82.984 60.8152 83.292C60.9619 83.5927 61.0352 83.9667 61.0352 84.414C61.0352 84.568 61.0242 84.7367 61.0022 84.92C60.9875 85.1033 60.9582 85.294 60.9142 85.492H57.0642C57.1009 85.9907 57.2439 86.361 57.4932 86.603C57.7499 86.8377 58.1642 86.955 58.7362 86.955C59.0809 86.955 59.3889 86.9073 59.6602 86.812C59.9389 86.7093 60.1515 86.6067 60.2982 86.504L60.8262 87.472ZM58.5162 83.27C58.0615 83.27 57.7242 83.3947 57.5042 83.644C57.2842 83.886 57.1559 84.1977 57.1192 84.579H59.6052C59.6345 84.1757 59.5612 83.8567 59.3852 83.622C59.2092 83.3873 58.9195 83.27 58.5162 83.27ZM62.024 85.118C62.024 84.1647 62.277 83.4167 62.783 82.874C63.289 82.3313 64.0113 82.06 64.95 82.06C65.4413 82.06 65.8703 82.137 66.237 82.291C66.6037 82.445 66.908 82.6613 67.15 82.94C67.392 83.2113 67.5717 83.534 67.689 83.908C67.8137 84.2747 67.876 84.678 67.876 85.118C67.876 85.5873 67.81 86.0127 67.678 86.394C67.546 86.768 67.3553 87.087 67.106 87.351C66.8567 87.615 66.5487 87.8167 66.182 87.956C65.8227 88.0953 65.412 88.165 64.95 88.165C64.4513 88.165 64.0187 88.088 63.652 87.934C63.2853 87.78 62.981 87.5673 62.739 87.296C62.497 87.0173 62.3173 86.6947 62.2 86.328C62.0827 85.954 62.024 85.5507 62.024 85.118ZM63.608 85.118C63.608 85.36 63.6337 85.5873 63.685 85.8C63.7363 86.0127 63.8133 86.1997 63.916 86.361C64.026 86.515 64.1653 86.6397 64.334 86.735C64.5027 86.8303 64.708 86.878 64.95 86.878C65.8447 86.878 66.292 86.2913 66.292 85.118C66.292 84.8613 66.2663 84.6267 66.215 84.414C66.171 84.194 66.094 84.007 65.984 83.853C65.8813 83.6917 65.742 83.567 65.566 83.479C65.3973 83.391 65.192 83.347 64.95 83.347C64.532 83.347 64.202 83.4863 63.96 83.765C63.7253 84.0437 63.608 84.4947 63.608 85.118Z" fill="white"/>
<defs>
<filter id="filter0_d" x="0" y="0" width="98" height="98" filterUnits="userSpaceOnUse" color-interpolation-filters="sRGB">
<feFlood flood-opacity="0" result="BackgroundImageFix"/>
<feColorMatrix in="SourceAlpha" type="matrix" values="0 0 0 0 0 0 0 0 0 0 0 0 0 0 0 0 0 0 127 0"/>
<feOffset dy="4"/>
<feGaussianBlur stdDeviation="2"/>
<feColorMatrix type="matrix" values="0 0 0 0 0 0 0 0 0 0 0 0 0 0 0 0 0 0 0.25 0"/>
<feBlend mode="normal" in2="BackgroundImageFix" result="effect1_dropShadow"/>
<feBlend mode="normal" in="SourceGraphic" in2="effect1_dropShadow" result="shape"/>
</filter>
<clipPath id="clip0">
<rect width="56.16" height="57.6" fill="white" transform="translate(20.92 5.39999)"/>
</clipPath>
</defs>
</svg>
