<svg xmlns="http://www.w3.org/2000/svg" width="80" height="20" fill="none" viewBox="0 0 80 20"><rect width="80" height="19.2" fill="#000"/><path fill="#fff" d="M22.2454 5.32H21.1254V4.2H25.4374V5.32H24.3174V12.88H25.4374V14H21.1254V12.88H22.2454V5.32ZM31.9572 14V9.968C31.9572 9.33333 31.8592 8.876 31.6632 8.596C31.4672 8.316 31.1218 8.176 30.6272 8.176C30.2072 8.176 29.8478 8.29267 29.5492 8.526C29.2598 8.75 29.0592 9.03933 28.9472 9.394C28.9472 10.1593 28.9472 10.9293 28.9472 11.704C28.9565 12.4693 28.9612 13.2347 28.9612 14H27.0012V6.65H28.5412L28.7512 7.7H28.9612C29.2038 7.35467 29.5258 7.06067 29.9272 6.818C30.3285 6.566 30.8512 6.44 31.4952 6.44C31.8872 6.44 32.2325 6.49133 32.5312 6.594C32.8392 6.68733 33.0912 6.85533 33.2872 7.098C33.4925 7.33133 33.6465 7.64867 33.7492 8.05C33.8612 8.45133 33.9172 8.95533 33.9172 9.562V14H31.9572ZM36.1669 6.65H38.1269V14H36.1669V6.65ZM35.8729 4.816C35.8729 4.51733 35.9802 4.27 36.1949 4.074C36.4096 3.86867 36.7129 3.766 37.1049 3.766C37.5062 3.766 37.8236 3.86867 38.0569 4.074C38.2902 4.27933 38.4069 4.52667 38.4069 4.816C38.4069 5.08667 38.2902 5.32 38.0569 5.516C37.8236 5.712 37.5062 5.81 37.1049 5.81C36.7129 5.81 36.4096 5.712 36.1949 5.516C35.9802 5.32 35.8729 5.08667 35.8729 4.816ZM45.9163 13.552C45.5989 13.7667 45.2163 13.93 44.7683 14.042C44.3296 14.154 43.8723 14.21 43.3963 14.21C42.7616 14.21 42.2249 14.1167 41.7863 13.93C41.3569 13.7433 41.0023 13.4773 40.7223 13.132C40.4516 12.7867 40.2556 12.3807 40.1343 11.914C40.0129 11.438 39.9523 10.9107 39.9523 10.332C39.9523 9.10933 40.2509 8.15733 40.8483 7.476C41.4549 6.78533 42.3323 6.44 43.4803 6.44C44.0403 6.44 44.4976 6.48667 44.8523 6.58C45.2163 6.664 45.5383 6.776 45.8183 6.916L45.3423 8.484C45.0996 8.38133 44.8569 8.30667 44.6143 8.26C44.3809 8.204 44.1056 8.176 43.7883 8.176C43.2003 8.176 42.7476 8.34867 42.4303 8.694C42.1223 9.03 41.9683 9.576 41.9683 10.332C41.9683 10.6307 42.0056 10.9107 42.0803 11.172C42.1549 11.424 42.2716 11.648 42.4303 11.844C42.5889 12.04 42.7896 12.194 43.0323 12.306C43.2749 12.418 43.5596 12.474 43.8863 12.474C44.2783 12.474 44.5863 12.4413 44.8103 12.376C45.0436 12.3013 45.2629 12.2033 45.4683 12.082L45.9163 13.552ZM47.6103 6.65H49.5703V14H47.6103V6.65ZM47.3163 4.816C47.3163 4.51733 47.4236 4.27 47.6383 4.074C47.8529 3.86867 48.1563 3.766 48.5483 3.766C48.9496 3.766 49.2669 3.86867 49.5003 4.074C49.7336 4.27933 49.8503 4.52667 49.8503 4.816C49.8503 5.08667 49.7336 5.32 49.5003 5.516C49.2669 5.712 48.9496 5.81 48.5483 5.81C48.1563 5.81 47.8529 5.712 47.6383 5.516C47.4236 5.32 47.3163 5.08667 47.3163 4.816ZM51.3956 10.332C51.3956 9.11867 51.7176 8.16667 52.3616 7.476C53.0056 6.78533 53.925 6.44 55.1196 6.44C55.745 6.44 56.291 6.538 56.7576 6.734C57.2243 6.93 57.6116 7.20533 57.9196 7.56C58.2276 7.90533 58.4563 8.316 58.6056 8.792C58.7643 9.25867 58.8436 9.772 58.8436 10.332C58.8436 10.9293 58.7596 11.4707 58.5916 11.956C58.4236 12.432 58.181 12.838 57.8636 13.174C57.5463 13.51 57.1543 13.7667 56.6876 13.944C56.2303 14.1213 55.7076 14.21 55.1196 14.21C54.485 14.21 53.9343 14.112 53.4676 13.916C53.001 13.72 52.6136 13.4493 52.3056 13.104C51.9976 12.7493 51.769 12.3387 51.6196 11.872C51.4703 11.396 51.3956 10.8827 51.3956 10.332ZM53.4116 10.332C53.4116 10.64 53.4443 10.9293 53.5096 11.2C53.575 11.4707 53.673 11.7087 53.8036 11.914C53.9436 12.11 54.121 12.2687 54.3356 12.39C54.5503 12.5113 54.8116 12.572 55.1196 12.572C56.2583 12.572 56.8276 11.8253 56.8276 10.332C56.8276 10.0053 56.795 9.70667 56.7296 9.436C56.6736 9.156 56.5756 8.918 56.4356 8.722C56.305 8.51667 56.1276 8.358 55.9036 8.246C55.689 8.134 55.4276 8.078 55.1196 8.078C54.5876 8.078 54.1676 8.25533 53.8596 8.61C53.561 8.96467 53.4116 9.53867 53.4116 10.332Z"/></svg>