<svg width="98" height="98" viewBox="0 0 98 98" fill="none" xmlns="http://www.w3.org/2000/svg">
<g filter="url(#filter0_d)">
<path d="M74 0H24C12.9543 0 4 8.9543 4 20V70C4 81.0457 12.9543 90 24 90H74C85.0457 90 94 81.0457 94 70V20C94 8.95431 85.0457 0 74 0Z" fill="#133C55"/>
</g>
<g clip-path="url(#clip0)">
<path d="M80.1535 60.0329C79.1526 54.0436 74.7043 49.3214 68.9216 48.0544L56.5777 45.2902C56.4665 45.2902 56.4665 45.2902 56.3552 45.2902V38.034C59.8026 35.5001 61.9156 31.2386 61.9156 26.8618V19.9512C61.9156 12.3495 55.9104 6.12991 48.5708 6.12991C41.2312 6.12991 35.226 12.3495 35.226 19.9512V26.8618C35.226 31.3537 37.3389 35.5001 40.7863 38.034V45.2902C40.6751 45.2902 40.6751 45.2902 40.5639 45.2902L28.22 47.9392C22.4372 49.2062 17.989 53.9285 16.9881 59.9177L14.0967 76.1577C13.9855 76.7336 14.4304 77.4246 14.9864 77.5398C15.0976 77.5398 15.0976 77.5398 15.2088 77.5398H81.9328C82.6 77.5398 83.0448 77.0791 83.0448 76.388C83.0448 76.2729 83.0448 76.2729 83.0448 76.1577L80.1535 60.0329ZM48.5708 8.43346C53.9087 8.43346 58.357 12.2343 59.469 17.6476H37.6725C38.7846 12.2343 43.2329 8.43346 48.5708 8.43346ZM59.2466 19.9512L55.9104 23.4065H41.2312L37.895 19.9512H59.2466ZM37.4501 26.8618V22.7154L40.0079 25.3645C40.2303 25.5949 40.4527 25.71 40.7863 25.71H56.3552C56.6889 25.71 56.9113 25.5949 57.1337 25.3645L59.6914 22.7154V26.8618C59.6914 33.1966 54.6872 38.3795 48.5708 38.3795C42.4544 38.3795 37.4501 33.1966 37.4501 26.8618ZM54.1311 39.4161V47.133L53.3527 47.9392C52.1294 49.2062 50.3501 50.0124 48.682 50.0124H48.4596C46.6803 50.0124 45.0122 49.3214 43.7889 47.9392L43.0105 47.133V39.4161C44.7898 40.2224 46.6803 40.6831 48.5708 40.6831C50.4613 40.6831 52.3518 40.2224 54.1311 39.4161ZM38.5622 48.1696L40.4527 47.7089L42.1208 49.5517C43.7889 51.2794 46.013 52.2008 48.4596 52.2008H48.682C51.0173 52.2008 53.3527 51.2794 55.0208 49.5517L56.8001 47.7089L58.6906 48.1696V51.8553L52.7966 59.9177C50.7949 57.499 47.3475 57.2686 45.0122 59.3418C44.7898 59.5721 44.6786 59.6873 44.4561 59.9177L38.5622 51.8553V48.1696V48.1696ZM48.5708 67.1738C46.6803 67.1738 45.2346 65.6765 45.2346 63.7185C45.2346 61.7605 46.6803 60.2632 48.5708 60.2632C50.4613 60.2632 51.907 61.7605 51.907 63.7185V70.6292H49.6829V68.3256C49.6829 67.6346 49.238 67.1738 48.5708 67.1738ZM30.7777 75.2363H16.5433L16.9881 72.9327H30.7777V75.2363ZM64.1397 75.3514H33.0019V60.2632H30.7777V70.6292H17.3217L19.101 60.3784C19.9907 55.3106 23.7717 51.2794 28.6648 50.2428L36.3381 48.5151V52.2008C36.3381 52.4312 36.4493 52.6615 36.5605 52.8919L43.2329 62.106C43.1217 62.5668 43.0105 63.1426 43.0105 63.7185C43.0105 66.4828 44.901 68.7863 47.4587 69.3622V71.7809C47.4587 72.472 47.9035 72.9327 48.5708 72.9327H53.019C53.6863 72.9327 54.1311 72.472 54.1311 71.7809V63.7185C54.1311 63.1426 54.0199 62.5668 53.9087 62.106L60.5811 52.8919C60.6923 52.6615 60.8035 52.4312 60.8035 52.2008V48.6303L68.4768 50.358C73.3699 51.3946 77.1509 55.4258 78.0405 60.4936L79.8198 70.7443H66.3638V60.3784H64.1397V75.3514ZM66.3638 75.2363V72.9327H80.1535L80.5983 75.2363H66.3638Z" fill="white"/>
<path d="M49.6832 62.5658H47.4591V64.8693H49.6832V62.5658Z" fill="white"/>
</g>
<path d="M16.32 80.18H15.44V79.3H18.828V80.18H17.948V86.12H18.828V87H15.44V86.12H16.32V80.18ZM23.9506 87V83.832C23.9506 83.3333 23.8736 82.974 23.7196 82.754C23.5656 82.534 23.2943 82.424 22.9056 82.424C22.5756 82.424 22.2933 82.5157 22.0586 82.699C21.8313 82.875 21.6736 83.1023 21.5856 83.381C21.5856 83.9823 21.5856 84.5873 21.5856 85.196C21.593 85.7973 21.5966 86.3987 21.5966 87H20.0566V81.225H21.2666L21.4316 82.05H21.5966C21.7873 81.7787 22.0403 81.5477 22.3556 81.357C22.671 81.159 23.0816 81.06 23.5876 81.06C23.8956 81.06 24.167 81.1003 24.4016 81.181C24.6436 81.2543 24.8416 81.3863 24.9956 81.577C25.157 81.7603 25.278 82.0097 25.3586 82.325C25.4466 82.6403 25.4906 83.0363 25.4906 83.513V87H23.9506ZM27.0603 85.504C27.163 85.5553 27.2803 85.6067 27.4123 85.658C27.5516 85.7093 27.6983 85.757 27.8523 85.801C28.0136 85.845 28.175 85.8817 28.3363 85.911C28.505 85.9403 28.6736 85.955 28.8423 85.955C29.099 85.955 29.297 85.9147 29.4363 85.834C29.583 85.7533 29.6563 85.603 29.6563 85.383C29.6563 85.207 29.561 85.0787 29.3703 84.998C29.1796 84.91 28.945 84.8257 28.6663 84.745C28.461 84.6863 28.2446 84.6167 28.0173 84.536C27.7973 84.4553 27.592 84.349 27.4013 84.217C27.218 84.0777 27.064 83.898 26.9393 83.678C26.822 83.458 26.7633 83.1793 26.7633 82.842C26.7633 82.2627 26.943 81.8227 27.3023 81.522C27.6616 81.214 28.1786 81.06 28.8533 81.06C29.2933 81.06 29.704 81.1003 30.0853 81.181C30.474 81.2543 30.7856 81.3423 31.0203 81.445L30.7013 82.611C30.5106 82.5377 30.265 82.4643 29.9643 82.391C29.671 82.3103 29.3703 82.27 29.0623 82.27C28.8056 82.27 28.615 82.3103 28.4903 82.391C28.3656 82.4643 28.3033 82.5963 28.3033 82.787C28.3033 82.9557 28.3986 83.084 28.5893 83.172C28.7873 83.2527 29.0256 83.3333 29.3043 83.414C29.5096 83.4727 29.7223 83.5423 29.9423 83.623C30.1696 83.6963 30.375 83.799 30.5583 83.931C30.7416 84.063 30.892 84.2353 31.0093 84.448C31.134 84.6533 31.1963 84.9137 31.1963 85.229C31.1963 85.845 30.9946 86.3217 30.5913 86.659C30.1953 86.9963 29.5976 87.165 28.7983 87.165C28.3656 87.165 27.9623 87.1247 27.5883 87.044C27.2143 86.9707 26.91 86.8607 26.6753 86.714L27.0603 85.504ZM31.6847 81.225H32.5647V80.433L34.1047 80.026V81.225H35.6557V82.512H34.1047V84.514C34.1047 84.976 34.1487 85.3097 34.2367 85.515C34.332 85.713 34.5153 85.812 34.7867 85.812C34.9553 85.812 35.0983 85.801 35.2157 85.779C35.333 85.7497 35.4577 85.7057 35.5897 85.647L35.9087 86.802C35.674 86.9047 35.4027 86.9927 35.0947 87.066C34.794 87.1393 34.5007 87.176 34.2147 87.176C33.6427 87.176 33.2247 87.0367 32.9607 86.758C32.6967 86.472 32.5647 86.0173 32.5647 85.394V82.512H31.6847V81.225ZM40.2459 82.633C40.0259 82.5597 39.8059 82.523 39.5859 82.523C39.2633 82.523 38.9956 82.6 38.7829 82.754C38.5776 82.908 38.4419 83.1023 38.3759 83.337V87H36.8359V81.225H38.0459L38.2109 82.028H38.3539C38.5006 81.7273 38.6949 81.4963 38.9369 81.335C39.1863 81.1737 39.4686 81.093 39.7839 81.093C39.9819 81.093 40.2093 81.1333 40.4659 81.214L40.2459 82.633ZM42.8447 81.225V84.426C42.8447 84.9027 42.9107 85.251 43.0427 85.471C43.1747 85.691 43.4277 85.801 43.8017 85.801C44.1244 85.801 44.3957 85.7167 44.6157 85.548C44.8357 85.3793 44.997 85.1667 45.0997 84.91V81.225H46.6397V85.24C46.6397 85.548 46.6544 85.856 46.6837 86.164C46.7204 86.472 46.768 86.7507 46.8267 87H45.6937L45.3967 86.098H45.2757C45.085 86.406 44.8137 86.6627 44.4617 86.868C44.1097 87.066 43.7064 87.165 43.2517 87.165C42.9364 87.165 42.6577 87.1247 42.4157 87.044C42.1737 86.9633 41.9684 86.8313 41.7997 86.648C41.6384 86.4573 41.5137 86.208 41.4257 85.9C41.345 85.592 41.3047 85.2107 41.3047 84.756V81.225H42.8447ZM52.7183 86.648C52.469 86.8167 52.1683 86.945 51.8163 87.033C51.4716 87.121 51.1123 87.165 50.7383 87.165C50.2396 87.165 49.818 87.0917 49.4733 86.945C49.136 86.7983 48.8573 86.5893 48.6373 86.318C48.4246 86.0467 48.2706 85.7277 48.1753 85.361C48.08 84.987 48.0323 84.5727 48.0323 84.118C48.0323 83.1573 48.267 82.4093 48.7363 81.874C49.213 81.3313 49.9023 81.06 50.8043 81.06C51.2443 81.06 51.6036 81.0967 51.8823 81.17C52.1683 81.236 52.4213 81.324 52.6413 81.434L52.2673 82.666C52.0766 82.5853 51.886 82.5267 51.6953 82.49C51.512 82.446 51.2956 82.424 51.0463 82.424C50.5843 82.424 50.2286 82.5597 49.9793 82.831C49.7373 83.095 49.6163 83.524 49.6163 84.118C49.6163 84.3527 49.6456 84.5727 49.7043 84.778C49.763 84.976 49.8546 85.152 49.9793 85.306C50.104 85.46 50.2616 85.581 50.4523 85.669C50.643 85.757 50.8666 85.801 51.1233 85.801C51.4313 85.801 51.6733 85.7753 51.8493 85.724C52.0326 85.6653 52.205 85.5883 52.3663 85.493L52.7183 86.648ZM53.1583 81.225H54.0383V80.433L55.5783 80.026V81.225H57.1293V82.512H55.5783V84.514C55.5783 84.976 55.6223 85.3097 55.7103 85.515C55.8056 85.713 55.989 85.812 56.2603 85.812C56.429 85.812 56.572 85.801 56.6893 85.779C56.8066 85.7497 56.9313 85.7057 57.0633 85.647L57.3823 86.802C57.1476 86.9047 56.8763 86.9927 56.5683 87.066C56.2676 87.1393 55.9743 87.176 55.6883 87.176C55.1163 87.176 54.6983 87.0367 54.4343 86.758C54.1703 86.472 54.0383 86.0173 54.0383 85.394V82.512H53.1583V81.225ZM57.9151 84.118C57.9151 83.1647 58.1681 82.4167 58.6741 81.874C59.1801 81.3313 59.9025 81.06 60.8411 81.06C61.3325 81.06 61.7615 81.137 62.1281 81.291C62.4948 81.445 62.7991 81.6613 63.0411 81.94C63.2831 82.2113 63.4628 82.534 63.5801 82.908C63.7048 83.2747 63.7671 83.678 63.7671 84.118C63.7671 84.5873 63.7011 85.0127 63.5691 85.394C63.4371 85.768 63.2465 86.087 62.9971 86.351C62.7478 86.615 62.4398 86.8167 62.0731 86.956C61.7138 87.0953 61.3031 87.165 60.8411 87.165C60.3425 87.165 59.9098 87.088 59.5431 86.934C59.1765 86.78 58.8721 86.5673 58.6301 86.296C58.3881 86.0173 58.2085 85.6947 58.0911 85.328C57.9738 84.954 57.9151 84.5507 57.9151 84.118ZM59.4991 84.118C59.4991 84.36 59.5248 84.5873 59.5761 84.8C59.6275 85.0127 59.7045 85.1997 59.8071 85.361C59.9171 85.515 60.0565 85.6397 60.2251 85.735C60.3938 85.8303 60.5991 85.878 60.8411 85.878C61.7358 85.878 62.1831 85.2913 62.1831 84.118C62.1831 83.8613 62.1575 83.6267 62.1061 83.414C62.0621 83.194 61.9851 83.007 61.8751 82.853C61.7725 82.6917 61.6331 82.567 61.4571 82.479C61.2885 82.391 61.0831 82.347 60.8411 82.347C60.4231 82.347 60.0931 82.4863 59.8511 82.765C59.6165 83.0437 59.4991 83.4947 59.4991 84.118ZM68.4334 82.633C68.2134 82.5597 67.9934 82.523 67.7734 82.523C67.4508 82.523 67.1831 82.6 66.9704 82.754C66.7651 82.908 66.6294 83.1023 66.5634 83.337V87H65.0234V81.225H66.2334L66.3984 82.028H66.5414C66.6881 81.7273 66.8824 81.4963 67.1244 81.335C67.3738 81.1737 67.6561 81.093 67.9714 81.093C68.1694 81.093 68.3968 81.1333 68.6534 81.214L68.4334 82.633ZM74.4312 86.472C74.1819 86.6627 73.8409 86.8277 73.4082 86.967C72.9829 87.099 72.5245 87.165 72.0332 87.165C71.0432 87.165 70.3172 86.8937 69.8552 86.351C69.3932 85.8083 69.1622 85.064 69.1622 84.118C69.1622 83.1133 69.4225 82.3543 69.9432 81.841C70.4639 81.3203 71.1972 81.06 72.1432 81.06C72.4512 81.06 72.7555 81.1003 73.0562 81.181C73.3569 81.2543 73.6245 81.3827 73.8592 81.566C74.0939 81.742 74.2809 81.984 74.4202 82.292C74.5669 82.5927 74.6402 82.9667 74.6402 83.414C74.6402 83.568 74.6292 83.7367 74.6072 83.92C74.5925 84.1033 74.5632 84.294 74.5192 84.492H70.6692C70.7059 84.9907 70.8489 85.361 71.0982 85.603C71.3549 85.8377 71.7692 85.955 72.3412 85.955C72.6859 85.955 72.9939 85.9073 73.2652 85.812C73.5439 85.7093 73.7565 85.6067 73.9032 85.504L74.4312 86.472ZM72.1212 82.27C71.6665 82.27 71.3292 82.3947 71.1092 82.644C70.8892 82.886 70.7609 83.1977 70.7242 83.579H73.2102C73.2395 83.1757 73.1662 82.8567 72.9902 82.622C72.8142 82.3873 72.5245 82.27 72.1212 82.27ZM76.0124 85.504C76.1151 85.5553 76.2324 85.6067 76.3644 85.658C76.5038 85.7093 76.6504 85.757 76.8044 85.801C76.9658 85.845 77.1271 85.8817 77.2884 85.911C77.4571 85.9403 77.6258 85.955 77.7944 85.955C78.0511 85.955 78.2491 85.9147 78.3884 85.834C78.5351 85.7533 78.6084 85.603 78.6084 85.383C78.6084 85.207 78.5131 85.0787 78.3224 84.998C78.1318 84.91 77.8971 84.8257 77.6184 84.745C77.4131 84.6863 77.1968 84.6167 76.9694 84.536C76.7494 84.4553 76.5441 84.349 76.3534 84.217C76.1701 84.0777 76.0161 83.898 75.8914 83.678C75.7741 83.458 75.7154 83.1793 75.7154 82.842C75.7154 82.2627 75.8951 81.8227 76.2544 81.522C76.6138 81.214 77.1308 81.06 77.8054 81.06C78.2454 81.06 78.6561 81.1003 79.0374 81.181C79.4261 81.2543 79.7378 81.3423 79.9724 81.445L79.6534 82.611C79.4628 82.5377 79.2171 82.4643 78.9164 82.391C78.6231 82.3103 78.3224 82.27 78.0144 82.27C77.7578 82.27 77.5671 82.3103 77.4424 82.391C77.3178 82.4643 77.2554 82.5963 77.2554 82.787C77.2554 82.9557 77.3508 83.084 77.5414 83.172C77.7394 83.2527 77.9778 83.3333 78.2564 83.414C78.4618 83.4727 78.6744 83.5423 78.8944 83.623C79.1218 83.6963 79.3271 83.799 79.5104 83.931C79.6938 84.063 79.8441 84.2353 79.9614 84.448C80.0861 84.6533 80.1484 84.9137 80.1484 85.229C80.1484 85.845 79.9468 86.3217 79.5434 86.659C79.1474 86.9963 78.5498 87.165 77.7504 87.165C77.3178 87.165 76.9144 87.1247 76.5404 87.044C76.1664 86.9707 75.8621 86.8607 75.6274 86.714L76.0124 85.504Z" fill="white"/>
<defs>
<filter id="filter0_d" x="0" y="0" width="98" height="98" filterUnits="userSpaceOnUse" color-interpolation-filters="sRGB">
<feFlood flood-opacity="0" result="BackgroundImageFix"/>
<feColorMatrix in="SourceAlpha" type="matrix" values="0 0 0 0 0 0 0 0 0 0 0 0 0 0 0 0 0 0 127 0"/>
<feOffset dy="4"/>
<feGaussianBlur stdDeviation="2"/>
<feColorMatrix type="matrix" values="0 0 0 0 0 0 0 0 0 0 0 0 0 0 0 0 0 0 0.25 0"/>
<feBlend mode="normal" in2="BackgroundImageFix" result="effect1_dropShadow"/>
<feBlend mode="normal" in="SourceGraphic" in2="effect1_dropShadow" result="shape"/>
</filter>
<clipPath id="clip0">
<rect width="68.9652" height="71.4276" fill="white" transform="translate(14.08 6.12)"/>
</clipPath>
</defs>
</svg>
