<svg width="88" height="88" viewBox="0 0 88 88" fill="none" xmlns="http://www.w3.org/2000/svg">
<g filter="url(#filter0_d)">
<path d="M64 0H24C12.9543 0 4 8.9543 4 20V60C4 71.0457 12.9543 80 24 80H64C75.0457 80 84 71.0457 84 60V20C84 8.9543 75.0457 0 64 0Z" fill="#133C55"/>
</g>
<g clip-path="url(#clip0)">
<path d="M71.6919 53.3625C70.8023 48.0388 66.8483 43.8412 61.708 42.715L50.7357 40.2579C50.6368 40.2579 50.6368 40.2579 50.538 40.2579V33.808C53.6023 31.5556 55.4805 27.7676 55.4805 23.8772V17.7344C55.4805 10.9773 50.1426 5.44881 43.6184 5.44881C37.0943 5.44881 31.7564 10.9773 31.7564 17.7344V23.8772C31.7564 27.87 33.6346 31.5556 36.6989 33.808V40.2579C36.6001 40.2579 36.6001 40.2579 36.5012 40.2579L25.5288 42.6127C20.3886 43.7388 16.4346 47.9364 15.545 53.2602L12.9748 67.6957C12.876 68.2076 13.2714 68.8219 13.7656 68.9243C13.8645 68.9243 13.8645 68.9243 13.9633 68.9243H73.2735C73.8666 68.9243 74.262 68.5147 74.262 67.9005C74.262 67.7981 74.262 67.7981 74.262 67.6957L71.6919 53.3625ZM43.6184 7.4964C48.3633 7.4964 52.3173 10.8749 53.3058 15.6868H33.9311C34.9196 10.8749 38.8736 7.4964 43.6184 7.4964ZM53.1081 17.7344L50.1426 20.8058H37.0943L34.1288 17.7344H53.1081ZM33.7334 23.8772V20.1915L36.007 22.5462C36.2047 22.751 36.4024 22.8534 36.6989 22.8534H50.538C50.8345 22.8534 51.0322 22.751 51.2299 22.5462L53.5035 20.1915V23.8772C53.5035 29.5081 49.0552 34.1151 43.6184 34.1151C38.1817 34.1151 33.7334 29.5081 33.7334 23.8772ZM48.561 35.0366V41.896L47.869 42.6127C46.7817 43.7388 45.2 44.4555 43.7173 44.4555H43.5196C41.938 44.4555 40.4552 43.8412 39.3679 42.6127L38.6759 41.896V35.0366C40.2575 35.7532 41.938 36.1627 43.6184 36.1627C45.2989 36.1627 46.9793 35.7532 48.561 35.0366ZM34.7219 42.8174L36.4024 42.4079L37.8851 44.046C39.3679 45.5817 41.3449 46.4007 43.5196 46.4007H43.7173C45.7931 46.4007 47.869 45.5817 49.3518 44.046L50.9334 42.4079L52.6138 42.8174V46.0936L47.3748 53.2602C45.5954 51.1102 42.5311 50.9054 40.4552 52.7483C40.2575 52.953 40.1587 53.0554 39.961 53.2602L34.7219 46.0936V42.8174V42.8174ZM43.6184 59.7101C41.938 59.7101 40.6529 58.3791 40.6529 56.6387C40.6529 54.8982 41.938 53.5673 43.6184 53.5673C45.2989 53.5673 46.5839 54.8982 46.5839 56.6387V62.7815H44.6069V60.7339C44.6069 60.1196 44.2115 59.7101 43.6184 59.7101ZM27.8024 66.8767H15.1496L15.545 64.8291H27.8024V66.8767ZM57.4575 66.979H29.7794V53.5673H27.8024V62.7815H15.8415L17.4231 53.6697C18.2139 49.165 21.5748 45.5817 25.9242 44.6603L32.7449 43.1246V46.4007C32.7449 46.6055 32.8438 46.8102 32.9426 47.015L38.8736 55.2054C38.7748 55.6149 38.6759 56.1268 38.6759 56.6387C38.6759 59.0958 40.3564 61.1434 42.6299 61.6553V63.8053C42.6299 64.4196 43.0253 64.8291 43.6184 64.8291H47.5725C48.1656 64.8291 48.561 64.4196 48.561 63.8053V56.6387C48.561 56.1268 48.4621 55.6149 48.3633 55.2054L54.2943 47.015C54.3931 46.8102 54.492 46.6055 54.492 46.4007V43.2269L61.3126 44.7626C65.6621 45.6841 69.023 49.2673 69.8138 53.7721L71.3954 62.8839H59.4345V53.6697H57.4575V66.979ZM59.4345 66.8767V64.8291H71.6919L72.0873 66.8767H59.4345Z" fill="white"/>
<path d="M44.6073 55.614H42.6303V57.6616H44.6073V55.614Z" fill="white"/>
</g>
<path d="M14.9778 71.3555H14.1778V70.5555H17.2578V71.3555H16.4578V76.7555H17.2578V77.5555H14.1778V76.7555H14.9778V71.3555ZM21.9147 77.5555V74.6755C21.9147 74.2222 21.8447 73.8955 21.7047 73.6955C21.5647 73.4955 21.3181 73.3955 20.9647 73.3955C20.6647 73.3955 20.4081 73.4789 20.1947 73.6455C19.9881 73.8055 19.8447 74.0122 19.7647 74.2655C19.7647 74.8122 19.7647 75.3622 19.7647 75.9155C19.7714 76.4622 19.7747 77.0089 19.7747 77.5555H18.3747V72.3055H19.4747L19.6247 73.0555H19.7747C19.9481 72.8089 20.1781 72.5989 20.4647 72.4255C20.7514 72.2455 21.1247 72.1555 21.5847 72.1555C21.8647 72.1555 22.1114 72.1922 22.3247 72.2655C22.5447 72.3322 22.7247 72.4522 22.8647 72.6255C23.0114 72.7922 23.1214 73.0189 23.1947 73.3055C23.2747 73.5922 23.3147 73.9522 23.3147 74.3855V77.5555H21.9147ZM24.7417 76.1955C24.835 76.2422 24.9417 76.2889 25.0617 76.3355C25.1883 76.3822 25.3217 76.4255 25.4617 76.4655C25.6083 76.5055 25.755 76.5389 25.9017 76.5655C26.055 76.5922 26.2083 76.6055 26.3617 76.6055C26.595 76.6055 26.775 76.5689 26.9017 76.4955C27.035 76.4222 27.1017 76.2855 27.1017 76.0855C27.1017 75.9255 27.015 75.8089 26.8417 75.7355C26.6683 75.6555 26.455 75.5789 26.2017 75.5055C26.015 75.4522 25.8183 75.3889 25.6117 75.3155C25.4117 75.2422 25.225 75.1455 25.0517 75.0255C24.885 74.8989 24.745 74.7355 24.6317 74.5355C24.525 74.3355 24.4717 74.0822 24.4717 73.7755C24.4717 73.2489 24.635 72.8489 24.9617 72.5755C25.2883 72.2955 25.7583 72.1555 26.3717 72.1555C26.7717 72.1555 27.145 72.1922 27.4917 72.2655C27.845 72.3322 28.1283 72.4122 28.3417 72.5055L28.0517 73.5655C27.8783 73.4989 27.655 73.4322 27.3817 73.3655C27.115 73.2922 26.8417 73.2555 26.5617 73.2555C26.3283 73.2555 26.155 73.2922 26.0417 73.3655C25.9283 73.4322 25.8717 73.5522 25.8717 73.7255C25.8717 73.8789 25.9583 73.9955 26.1317 74.0755C26.3117 74.1489 26.5283 74.2222 26.7817 74.2955C26.9683 74.3489 27.1617 74.4122 27.3617 74.4855C27.5683 74.5522 27.755 74.6455 27.9217 74.7655C28.0883 74.8855 28.225 75.0422 28.3317 75.2355C28.445 75.4222 28.5017 75.6589 28.5017 75.9455C28.5017 76.5055 28.3183 76.9389 27.9517 77.2455C27.5917 77.5522 27.0483 77.7055 26.3217 77.7055C25.9283 77.7055 25.5617 77.6689 25.2217 77.5955C24.8817 77.5289 24.605 77.4289 24.3917 77.2955L24.7417 76.1955ZM28.9457 72.3055H29.7457V71.5855L31.1457 71.2155V72.3055H32.5557V73.4755H31.1457V75.2955C31.1457 75.7155 31.1857 76.0189 31.2657 76.2055C31.3523 76.3855 31.519 76.4755 31.7657 76.4755C31.919 76.4755 32.049 76.4655 32.1557 76.4455C32.2623 76.4189 32.3757 76.3789 32.4957 76.3255L32.7857 77.3755C32.5723 77.4689 32.3257 77.5489 32.0457 77.6155C31.7723 77.6822 31.5057 77.7155 31.2457 77.7155C30.7257 77.7155 30.3457 77.5889 30.1057 77.3355C29.8657 77.0755 29.7457 76.6622 29.7457 76.0955V73.4755H28.9457V72.3055ZM36.7286 73.5855C36.5286 73.5189 36.3286 73.4855 36.1286 73.4855C35.8353 73.4855 35.592 73.5555 35.3986 73.6955C35.212 73.8355 35.0886 74.0122 35.0286 74.2255V77.5555H33.6286V72.3055H34.7286L34.8786 73.0355H35.0086C35.142 72.7622 35.3186 72.5522 35.5386 72.4055C35.7653 72.2589 36.022 72.1855 36.3086 72.1855C36.4886 72.1855 36.6953 72.2222 36.9286 72.2955L36.7286 73.5855ZM39.0911 72.3055V75.2155C39.0911 75.6489 39.1511 75.9655 39.2711 76.1655C39.3911 76.3655 39.6211 76.4655 39.9611 76.4655C40.2545 76.4655 40.5011 76.3889 40.7011 76.2355C40.9011 76.0822 41.0478 75.8889 41.1411 75.6555V72.3055H42.5411V75.9555C42.5411 76.2355 42.5545 76.5155 42.5811 76.7955C42.6145 77.0755 42.6578 77.3289 42.7111 77.5555H41.6811L41.4111 76.7355H41.3011C41.1278 77.0155 40.8811 77.2489 40.5611 77.4355C40.2411 77.6155 39.8745 77.7055 39.4611 77.7055C39.1745 77.7055 38.9211 77.6689 38.7011 77.5955C38.4811 77.5222 38.2945 77.4022 38.1411 77.2355C37.9945 77.0622 37.8811 76.8355 37.8011 76.5555C37.7278 76.2755 37.6911 75.9289 37.6911 75.5155V72.3055H39.0911ZM48.0671 77.2355C47.8405 77.3889 47.5671 77.5055 47.2471 77.5855C46.9338 77.6655 46.6071 77.7055 46.2671 77.7055C45.8138 77.7055 45.4305 77.6389 45.1171 77.5055C44.8105 77.3722 44.5571 77.1822 44.3571 76.9355C44.1638 76.6889 44.0238 76.3989 43.9371 76.0655C43.8505 75.7255 43.8071 75.3489 43.8071 74.9355C43.8071 74.0622 44.0205 73.3822 44.4471 72.8955C44.8805 72.4022 45.5071 72.1555 46.3271 72.1555C46.7271 72.1555 47.0538 72.1889 47.3071 72.2555C47.5671 72.3155 47.7971 72.3955 47.9971 72.4955L47.6571 73.6155C47.4838 73.5422 47.3105 73.4889 47.1371 73.4555C46.9705 73.4155 46.7738 73.3955 46.5471 73.3955C46.1271 73.3955 45.8038 73.5189 45.5771 73.7655C45.3571 74.0055 45.2471 74.3955 45.2471 74.9355C45.2471 75.1489 45.2738 75.3489 45.3271 75.5355C45.3805 75.7155 45.4638 75.8755 45.5771 76.0155C45.6905 76.1555 45.8338 76.2655 46.0071 76.3455C46.1805 76.4255 46.3838 76.4655 46.6171 76.4655C46.8971 76.4655 47.1171 76.4422 47.2771 76.3955C47.4438 76.3422 47.6005 76.2722 47.7471 76.1855L48.0671 77.2355ZM48.4671 72.3055H49.2671V71.5855L50.6671 71.2155V72.3055H52.0771V73.4755H50.6671V75.2955C50.6671 75.7155 50.7071 76.0189 50.7871 76.2055C50.8738 76.3855 51.0405 76.4755 51.2871 76.4755C51.4405 76.4755 51.5705 76.4655 51.6771 76.4455C51.7838 76.4189 51.8971 76.3789 52.0171 76.3255L52.3071 77.3755C52.0938 77.4689 51.8471 77.5489 51.5671 77.6155C51.2938 77.6822 51.0271 77.7155 50.7671 77.7155C50.2471 77.7155 49.8671 77.5889 49.6271 77.3355C49.3871 77.0755 49.2671 76.6622 49.2671 76.0955V73.4755H48.4671V72.3055ZM52.7915 74.9355C52.7915 74.0689 53.0215 73.3889 53.4815 72.8955C53.9415 72.4022 54.5982 72.1555 55.4515 72.1555C55.8982 72.1555 56.2882 72.2255 56.6215 72.3655C56.9549 72.5055 57.2315 72.7022 57.4515 72.9555C57.6715 73.2022 57.8349 73.4955 57.9415 73.8355C58.0549 74.1689 58.1115 74.5355 58.1115 74.9355C58.1115 75.3622 58.0515 75.7489 57.9315 76.0955C57.8115 76.4355 57.6382 76.7255 57.4115 76.9655C57.1849 77.2055 56.9049 77.3889 56.5715 77.5155C56.2449 77.6422 55.8715 77.7055 55.4515 77.7055C54.9982 77.7055 54.6049 77.6355 54.2715 77.4955C53.9382 77.3555 53.6615 77.1622 53.4415 76.9155C53.2215 76.6622 53.0582 76.3689 52.9515 76.0355C52.8449 75.6955 52.7915 75.3289 52.7915 74.9355ZM54.2315 74.9355C54.2315 75.1555 54.2549 75.3622 54.3015 75.5555C54.3482 75.7489 54.4182 75.9189 54.5115 76.0655C54.6115 76.2055 54.7382 76.3189 54.8915 76.4055C55.0449 76.4922 55.2315 76.5355 55.4515 76.5355C56.2649 76.5355 56.6715 76.0022 56.6715 74.9355C56.6715 74.7022 56.6482 74.4889 56.6015 74.2955C56.5615 74.0955 56.4915 73.9255 56.3915 73.7855C56.2982 73.6389 56.1715 73.5255 56.0115 73.4455C55.8582 73.3655 55.6715 73.3255 55.4515 73.3255C55.0715 73.3255 54.7715 73.4522 54.5515 73.7055C54.3382 73.9589 54.2315 74.3689 54.2315 74.9355ZM62.3536 73.5855C62.1536 73.5189 61.9536 73.4855 61.7536 73.4855C61.4603 73.4855 61.217 73.5555 61.0236 73.6955C60.837 73.8355 60.7136 74.0122 60.6536 74.2255V77.5555H59.2536V72.3055H60.3536L60.5036 73.0355H60.6336C60.767 72.7622 60.9436 72.5522 61.1636 72.4055C61.3903 72.2589 61.647 72.1855 61.9336 72.1855C62.1136 72.1855 62.3203 72.2222 62.5536 72.2955L62.3536 73.5855ZM67.8061 77.0755C67.5795 77.2489 67.2695 77.3989 66.8761 77.5255C66.4895 77.6455 66.0728 77.7055 65.6261 77.7055C64.7261 77.7055 64.0661 77.4589 63.6461 76.9655C63.2261 76.4722 63.0161 75.7955 63.0161 74.9355C63.0161 74.0222 63.2528 73.3322 63.7261 72.8655C64.1995 72.3922 64.8661 72.1555 65.7261 72.1555C66.0061 72.1555 66.2828 72.1922 66.5561 72.2655C66.8295 72.3322 67.0728 72.4489 67.2861 72.6155C67.4995 72.7755 67.6695 72.9955 67.7961 73.2755C67.9295 73.5489 67.9961 73.8889 67.9961 74.2955C67.9961 74.4355 67.9861 74.5889 67.9661 74.7555C67.9528 74.9222 67.9261 75.0955 67.8861 75.2755H64.3861C64.4195 75.7289 64.5495 76.0655 64.7761 76.2855C65.0095 76.4989 65.3861 76.6055 65.9061 76.6055C66.2195 76.6055 66.4995 76.5622 66.7461 76.4755C66.9995 76.3822 67.1928 76.2889 67.3261 76.1955L67.8061 77.0755ZM65.7061 73.2555C65.2928 73.2555 64.9861 73.3689 64.7861 73.5955C64.5861 73.8155 64.4695 74.0989 64.4361 74.4455H66.6961C66.7228 74.0789 66.6561 73.7889 66.4961 73.5755C66.3361 73.3622 66.0728 73.2555 65.7061 73.2555ZM69.2436 76.1955C69.337 76.2422 69.4436 76.2889 69.5636 76.3355C69.6903 76.3822 69.8236 76.4255 69.9636 76.4655C70.1103 76.5055 70.257 76.5389 70.4036 76.5655C70.557 76.5922 70.7103 76.6055 70.8636 76.6055C71.097 76.6055 71.277 76.5689 71.4036 76.4955C71.537 76.4222 71.6036 76.2855 71.6036 76.0855C71.6036 75.9255 71.517 75.8089 71.3436 75.7355C71.1703 75.6555 70.957 75.5789 70.7036 75.5055C70.517 75.4522 70.3203 75.3889 70.1136 75.3155C69.9136 75.2422 69.727 75.1455 69.5536 75.0255C69.387 74.8989 69.247 74.7355 69.1336 74.5355C69.027 74.3355 68.9736 74.0822 68.9736 73.7755C68.9736 73.2489 69.137 72.8489 69.4636 72.5755C69.7903 72.2955 70.2603 72.1555 70.8736 72.1555C71.2736 72.1555 71.647 72.1922 71.9936 72.2655C72.347 72.3322 72.6303 72.4122 72.8436 72.5055L72.5536 73.5655C72.3803 73.4989 72.157 73.4322 71.8836 73.3655C71.617 73.2922 71.3436 73.2555 71.0636 73.2555C70.8303 73.2555 70.657 73.2922 70.5436 73.3655C70.4303 73.4322 70.3736 73.5522 70.3736 73.7255C70.3736 73.8789 70.4603 73.9955 70.6336 74.0755C70.8136 74.1489 71.0303 74.2222 71.2836 74.2955C71.4703 74.3489 71.6636 74.4122 71.8636 74.4855C72.0703 74.5522 72.257 74.6455 72.4236 74.7655C72.5903 74.8855 72.727 75.0422 72.8336 75.2355C72.947 75.4222 73.0036 75.6589 73.0036 75.9455C73.0036 76.5055 72.8203 76.9389 72.4536 77.2455C72.0936 77.5522 71.5503 77.7055 70.8236 77.7055C70.4303 77.7055 70.0636 77.6689 69.7236 77.5955C69.3836 77.5289 69.107 77.4289 68.8936 77.2955L69.2436 76.1955Z" fill="white"/>
<defs>
<filter id="filter0_d" x="0" y="0" width="88" height="88" filterUnits="userSpaceOnUse" color-interpolation-filters="sRGB">
<feFlood flood-opacity="0" result="BackgroundImageFix"/>
<feColorMatrix in="SourceAlpha" type="matrix" values="0 0 0 0 0 0 0 0 0 0 0 0 0 0 0 0 0 0 127 0"/>
<feOffset dy="4"/>
<feGaussianBlur stdDeviation="2"/>
<feColorMatrix type="matrix" values="0 0 0 0 0 0 0 0 0 0 0 0 0 0 0 0 0 0 0.25 0"/>
<feBlend mode="normal" in2="BackgroundImageFix" result="effect1_dropShadow"/>
<feBlend mode="normal" in="SourceGraphic" in2="effect1_dropShadow" result="shape"/>
</filter>
<clipPath id="clip0">
<rect width="61.3024" height="63.4912" fill="white" transform="translate(12.96 5.44)"/>
</clipPath>
</defs>
</svg>
