<svg xmlns="http://www.w3.org/2000/svg" width="88" height="88" fill="none" viewBox="0 0 88 88"><g filter="url(#filter0_d)"><path fill="#6761A8" d="M64 0H24C12.9543 0 4 8.9543 4 20V60C4 71.0457 12.9543 80 24 80H64C75.0457 80 84 71.0457 84 60V20C84 8.9543 75.0457 0 64 0Z"/></g><path fill="#fff" d="M15.9867 69.9578H15.1067V69.0778H18.4947V69.9578H17.6147V75.8978H18.4947V76.7778H15.1067V75.8978H15.9867V69.9578ZM23.6173 76.7778V73.6098C23.6173 73.1111 23.5403 72.7518 23.3863 72.5318C23.2323 72.3118 22.961 72.2018 22.5723 72.2018C22.2423 72.2018 21.96 72.2934 21.7253 72.4768C21.498 72.6528 21.3403 72.8801 21.2523 73.1588C21.2523 73.7601 21.2523 74.3651 21.2523 74.9738C21.2596 75.5751 21.2633 76.1764 21.2633 76.7778H19.7233V71.0028H20.9333L21.0983 71.8278H21.2633C21.454 71.5564 21.707 71.3254 22.0223 71.1348C22.3376 70.9368 22.7483 70.8378 23.2543 70.8378C23.5623 70.8378 23.8336 70.8781 24.0683 70.9588C24.3103 71.0321 24.5083 71.1641 24.6623 71.3548C24.8236 71.5381 24.9446 71.7874 25.0253 72.1028C25.1133 72.4181 25.1573 72.8141 25.1573 73.2908V76.7778H23.6173ZM28.773 73.9948L29.004 74.8858H29.18L29.345 73.9728L30.423 71.0028H32.084L29.444 76.8328H28.564L25.814 71.0028H27.607L28.773 73.9948ZM37.5959 76.2498C37.3466 76.4404 37.0056 76.6054 36.5729 76.7448C36.1476 76.8768 35.6892 76.9428 35.1979 76.9428C34.2079 76.9428 33.4819 76.6714 33.0199 76.1288C32.5579 75.5861 32.3269 74.8418 32.3269 73.8958C32.3269 72.8911 32.5872 72.1321 33.1079 71.6188C33.6286 71.0981 34.3619 70.8378 35.3079 70.8378C35.6159 70.8378 35.9202 70.8781 36.2209 70.9588C36.5216 71.0321 36.7892 71.1604 37.0239 71.3438C37.2586 71.5198 37.4456 71.7618 37.5849 72.0698C37.7316 72.3704 37.8049 72.7444 37.8049 73.1918C37.8049 73.3458 37.7939 73.5144 37.7719 73.6978C37.7572 73.8811 37.7279 74.0718 37.6839 74.2698H33.8339C33.8706 74.7684 34.0136 75.1388 34.2629 75.3808C34.5196 75.6154 34.9339 75.7328 35.5059 75.7328C35.8506 75.7328 36.1586 75.6851 36.4299 75.5898C36.7086 75.4871 36.9212 75.3844 37.0679 75.2818L37.5959 76.2498ZM35.2859 72.0478C34.8312 72.0478 34.4939 72.1724 34.2739 72.4218C34.0539 72.6638 33.9256 72.9754 33.8889 73.3568H36.3749C36.4042 72.9534 36.3309 72.6344 36.1549 72.3998C35.9789 72.1651 35.6892 72.0478 35.2859 72.0478ZM43.0821 76.7778V73.6098C43.0821 73.1111 43.0051 72.7518 42.8511 72.5318C42.6971 72.3118 42.4258 72.2018 42.0371 72.2018C41.7071 72.2018 41.4248 72.2934 41.1901 72.4768C40.9628 72.6528 40.8051 72.8801 40.7171 73.1588C40.7171 73.7601 40.7171 74.3651 40.7171 74.9738C40.7245 75.5751 40.7281 76.1764 40.7281 76.7778H39.1881V71.0028H40.3981L40.5631 71.8278H40.7281C40.9188 71.5564 41.1718 71.3254 41.4871 71.1348C41.8025 70.9368 42.2131 70.8378 42.7191 70.8378C43.0271 70.8378 43.2985 70.8781 43.5331 70.9588C43.7751 71.0321 43.9731 71.1641 44.1271 71.3548C44.2885 71.5381 44.4095 71.7874 44.4901 72.1028C44.5781 72.4181 44.6221 72.8141 44.6221 73.2908V76.7778H43.0821ZM45.4988 71.0028H46.3788V70.2108L47.9188 69.8038V71.0028H49.4698V72.2898H47.9188V74.2918C47.9188 74.7538 47.9628 75.0874 48.0508 75.2928C48.1461 75.4908 48.3295 75.5898 48.6008 75.5898C48.7695 75.5898 48.9125 75.5788 49.0298 75.5568C49.1471 75.5274 49.2718 75.4834 49.4038 75.4248L49.7228 76.5798C49.4881 76.6824 49.2168 76.7704 48.9088 76.8438C48.6081 76.9171 48.3148 76.9538 48.0288 76.9538C47.4568 76.9538 47.0388 76.8144 46.7748 76.5358C46.5108 76.2498 46.3788 75.7951 46.3788 75.1718V72.2898H45.4988V71.0028ZM50.5951 71.3988C50.9251 71.2521 51.3284 71.1311 51.8051 71.0358C52.2891 70.9404 52.7877 70.8928 53.3011 70.8928C53.7044 70.8928 54.0417 70.9404 54.3131 71.0358C54.5917 71.1311 54.8117 71.2704 54.9731 71.4538C55.1344 71.6298 55.2481 71.8461 55.3141 72.1028C55.3874 72.3521 55.4241 72.6308 55.4241 72.9388C55.4241 73.3128 55.4094 73.6831 55.3801 74.0498C55.3507 74.4164 55.3361 74.8051 55.3361 75.2158C55.3361 75.4944 55.3544 75.7658 55.3911 76.0298C55.4277 76.2938 55.4864 76.5468 55.5671 76.7888H54.3131L54.0601 75.9308H53.9281C53.7374 76.1874 53.4954 76.4074 53.2021 76.5908C52.9087 76.7741 52.5311 76.8658 52.0691 76.8658C51.7904 76.8658 51.5337 76.8254 51.2991 76.7448C51.0717 76.6641 50.8737 76.5504 50.7051 76.4038C50.5437 76.2498 50.4154 76.0701 50.3201 75.8648C50.2321 75.6594 50.1881 75.4358 50.1881 75.1938C50.1881 74.5411 50.4044 74.0498 50.8371 73.7198C51.2771 73.3824 51.9407 73.2138 52.8281 73.2138C53.0334 73.2138 53.2387 73.2321 53.4441 73.2688C53.6494 73.2981 53.7924 73.3201 53.8731 73.3348C53.8951 73.1808 53.9061 73.0488 53.9061 72.9388C53.9061 72.6601 53.8364 72.4548 53.6971 72.3228C53.5577 72.1908 53.2974 72.1248 52.9161 72.1248C52.5641 72.1248 52.2194 72.1688 51.8821 72.2568C51.5521 72.3374 51.2587 72.4401 51.0021 72.5648L50.5951 71.3988ZM52.6081 75.6338C52.9527 75.6338 53.2277 75.5531 53.4331 75.3918C53.6384 75.2304 53.7887 75.0618 53.8841 74.8858V74.2258C53.8474 74.2111 53.7887 74.1964 53.7081 74.1818C53.6347 74.1671 53.5504 74.1524 53.4551 74.1378C53.3671 74.1231 53.2754 74.1121 53.1801 74.1048C53.0921 74.0974 53.0114 74.0938 52.9381 74.0938C52.5421 74.0938 52.2487 74.1671 52.0581 74.3138C51.8674 74.4531 51.7721 74.6291 51.7721 74.8418C51.7721 75.1058 51.8454 75.3038 51.9921 75.4358C52.1461 75.5678 52.3514 75.6338 52.6081 75.6338ZM60.4302 72.4108C60.2102 72.3374 59.9902 72.3008 59.7702 72.3008C59.4475 72.3008 59.1798 72.3778 58.9672 72.5318C58.7618 72.6858 58.6262 72.8801 58.5602 73.1148V76.7778H57.0202V71.0028H58.2302L58.3952 71.8058H58.5382C58.6848 71.5051 58.8792 71.2741 59.1212 71.1128C59.3705 70.9514 59.6528 70.8708 59.9682 70.8708C60.1662 70.8708 60.3935 70.9111 60.6502 70.9918L60.4302 72.4108ZM61.6759 71.0028H63.2159V76.7778H61.6759V71.0028ZM61.4449 69.5618C61.4449 69.3271 61.5293 69.1328 61.6979 68.9788C61.8666 68.8174 62.1049 68.7368 62.4129 68.7368C62.7283 68.7368 62.9776 68.8174 63.1609 68.9788C63.3443 69.1401 63.4359 69.3344 63.4359 69.5618C63.4359 69.7744 63.3443 69.9578 63.1609 70.1118C62.9776 70.2658 62.7283 70.3428 62.4129 70.3428C62.1049 70.3428 61.8666 70.2658 61.6979 70.1118C61.5293 69.9578 61.4449 69.7744 61.4449 69.5618ZM64.6501 73.8958C64.6501 72.9424 64.9031 72.1944 65.4091 71.6518C65.9151 71.1091 66.6375 70.8378 67.5761 70.8378C68.0675 70.8378 68.4965 70.9148 68.8631 71.0688C69.2298 71.2228 69.5341 71.4391 69.7761 71.7178C70.0181 71.9891 70.1978 72.3118 70.3151 72.6858C70.4398 73.0524 70.5021 73.4558 70.5021 73.8958C70.5021 74.3651 70.4361 74.7904 70.3041 75.1718C70.1721 75.5458 69.9815 75.8648 69.7321 76.1288C69.4828 76.3928 69.1748 76.5944 68.8081 76.7338C68.4488 76.8731 68.0381 76.9428 67.5761 76.9428C67.0775 76.9428 66.6448 76.8658 66.2781 76.7118C65.9115 76.5578 65.6071 76.3451 65.3651 76.0738C65.1231 75.7951 64.9435 75.4724 64.8261 75.1058C64.7088 74.7318 64.6501 74.3284 64.6501 73.8958ZM66.2341 73.8958C66.2341 74.1378 66.2598 74.3651 66.3111 74.5778C66.3625 74.7904 66.4395 74.9774 66.5421 75.1388C66.6521 75.2928 66.7915 75.4174 66.9601 75.5128C67.1288 75.6081 67.3341 75.6558 67.5761 75.6558C68.4708 75.6558 68.9181 75.0691 68.9181 73.8958C68.9181 73.6391 68.8925 73.4044 68.8411 73.1918C68.7971 72.9718 68.7201 72.7848 68.6101 72.6308C68.5075 72.4694 68.3681 72.3448 68.1921 72.2568C68.0235 72.1688 67.8181 72.1248 67.5761 72.1248C67.1581 72.1248 66.8281 72.2641 66.5861 72.5428C66.3515 72.8214 66.2341 73.2724 66.2341 73.8958ZM71.7475 75.2818C71.8501 75.3331 71.9675 75.3844 72.0995 75.4358C72.2388 75.4871 72.3855 75.5348 72.5395 75.5788C72.7008 75.6228 72.8621 75.6594 73.0235 75.6888C73.1921 75.7181 73.3608 75.7328 73.5295 75.7328C73.7861 75.7328 73.9841 75.6924 74.1235 75.6118C74.2701 75.5311 74.3435 75.3808 74.3435 75.1608C74.3435 74.9848 74.2481 74.8564 74.0575 74.7758C73.8668 74.6878 73.6321 74.6034 73.3535 74.5228C73.1481 74.4641 72.9318 74.3944 72.7045 74.3138C72.4845 74.2331 72.2791 74.1268 72.0885 73.9948C71.9051 73.8554 71.7511 73.6758 71.6265 73.4558C71.5091 73.2358 71.4505 72.9571 71.4505 72.6198C71.4505 72.0404 71.6301 71.6004 71.9895 71.2998C72.3488 70.9918 72.8658 70.8378 73.5405 70.8378C73.9805 70.8378 74.3911 70.8781 74.7725 70.9588C75.1611 71.0321 75.4728 71.1201 75.7075 71.2228L75.3885 72.3888C75.1978 72.3154 74.9521 72.2421 74.6515 72.1688C74.3581 72.0881 74.0575 72.0478 73.7495 72.0478C73.4928 72.0478 73.3021 72.0881 73.1775 72.1688C73.0528 72.2421 72.9905 72.3741 72.9905 72.5648C72.9905 72.7334 73.0858 72.8618 73.2765 72.9498C73.4745 73.0304 73.7128 73.1111 73.9915 73.1918C74.1968 73.2504 74.4095 73.3201 74.6295 73.4008C74.8568 73.4741 75.0621 73.5768 75.2455 73.7088C75.4288 73.8408 75.5791 74.0131 75.6965 74.2258C75.8211 74.4311 75.8835 74.6914 75.8835 75.0068C75.8835 75.6228 75.6818 76.0994 75.2785 76.4368C74.8825 76.7741 74.2848 76.9428 73.4855 76.9428C73.0528 76.9428 72.6495 76.9024 72.2755 76.8218C71.9015 76.7484 71.5971 76.6384 71.3625 76.4918L71.7475 75.2818Z"/><path fill="#fff" d="M71.2599 34.2094C71.0414 33.4532 70.5419 32.8179 69.8712 32.4431C69.2005 32.0684 68.4135 31.985 67.6834 32.2112L41.989 40.1732C41.8466 40.2175 41.7161 40.2954 41.6077 40.4008L38.4861 43.4389C38.3564 43.5651 38.2632 43.7261 38.217 43.904C38.1707 44.0819 38.1732 44.2696 38.2242 44.4462C38.2752 44.6227 38.3726 44.781 38.5055 44.9034C38.6385 45.0258 38.8017 45.1074 38.9769 45.1392L43.1966 45.9026C43.3431 45.929 43.4936 45.9198 43.6361 45.8758L64.4846 39.415L64.5749 41.4581L57.9502 43.5108L58.4993 45.4119L65.8405 43.1368C66.0451 43.0735 66.2235 42.9411 66.3471 42.7607C66.4708 42.5803 66.5327 42.3622 66.5229 42.1412L66.3765 38.8297L69.3306 37.9143C70.0607 37.6881 70.6742 37.1707 71.036 36.476C71.3978 35.7813 71.4783 34.9662 71.2599 34.21V34.2094ZM43.3038 43.9079L41.1939 43.5262L42.7547 42.007L47.1263 40.6526L47.6754 42.5534L43.3038 43.9079ZM49.5107 41.9845L48.9616 40.0837L64.3042 35.3292L64.3945 37.3723L49.5107 41.9845ZM69.3501 35.5333C69.2907 35.6482 69.2098 35.7497 69.1123 35.832C69.0147 35.9143 68.9023 35.9758 68.7817 36.0128L66.2863 36.786L66.1961 34.743L68.2326 34.1119C68.4141 34.0557 68.6076 34.0565 68.7886 34.1141C68.9697 34.1718 69.1302 34.2838 69.2498 34.4359C69.3694 34.5881 69.4428 34.7735 69.4607 34.9688C69.4785 35.1642 69.4401 35.3606 69.3501 35.5333V35.5333Z"/><path fill="#fff" d="M51.594 48.1302H35.3105V33.2495C35.3105 32.9864 35.2096 32.734 35.03 32.548C34.8504 32.3619 34.6067 32.2574 34.3527 32.2574H17.1114C16.8573 32.2574 16.6137 32.3619 16.4341 32.548C16.2544 32.734 16.1535 32.9864 16.1535 33.2495V64.9951C16.1535 65.2582 16.2544 65.5105 16.4341 65.6965C16.6137 65.8826 16.8573 65.9871 17.1114 65.9871H51.594C51.848 65.9871 52.0917 65.8826 52.2713 65.6965C52.4509 65.5105 52.5518 65.2582 52.5518 64.9951V49.1223C52.5518 48.8592 52.4509 48.6068 52.2713 48.4208C52.0917 48.2347 51.848 48.1302 51.594 48.1302ZM41.0576 50.1143H44.889V54.0825H41.0576V50.1143ZM23.8163 34.2415H27.6477V38.2097H23.8163V34.2415ZM18.0692 34.2415H21.9006V39.2018C21.9006 39.4649 22.0016 39.7172 22.1812 39.9032C22.3608 40.0893 22.6044 40.1938 22.8585 40.1938H28.6056C28.8596 40.1938 29.1033 40.0893 29.2829 39.9032C29.4625 39.7172 29.5634 39.4649 29.5634 39.2018V34.2415H33.3948V48.1302H18.0692V34.2415ZM23.8163 50.1143H27.6477V54.0825H23.8163V50.1143ZM18.0692 50.1143H21.9006V55.0746C21.9006 55.3377 22.0016 55.59 22.1812 55.776C22.3608 55.9621 22.6044 56.0666 22.8585 56.0666H28.6056C28.8596 56.0666 29.1033 55.9621 29.2829 55.776C29.4625 55.59 29.5634 55.3377 29.5634 55.0746V50.1143H33.3948V64.003H18.0692V50.1143ZM50.6361 64.003H35.3105V50.1143H39.1419V55.0746C39.1419 55.3377 39.2429 55.59 39.4225 55.776C39.6021 55.9621 39.8457 56.0666 40.0998 56.0666H45.8469C46.1009 56.0666 46.3446 55.9621 46.5242 55.776C46.7038 55.59 46.8047 55.3377 46.8047 55.0746V50.1143H50.6361V64.003Z"/><path fill="#fff" d="M46.8047 60.0348H48.7205V62.0189H46.8047V60.0348Z"/><path fill="#fff" d="M29.5634 60.0348H31.4791V62.0189H29.5634V60.0348Z"/><path fill="#fff" d="M29.5634 44.162H31.4791V46.1461H29.5634V44.162Z"/><path fill="#fff" d="M31.4791 14.4005C31.4797 13.8745 31.6818 13.3702 32.0409 12.9982C32.4 12.6263 32.887 12.417 33.3948 12.4164H39.1419V14.4005H34.3527C34.0987 14.4005 33.855 14.505 33.6754 14.6911C33.4958 14.8771 33.3948 15.1294 33.3948 15.3926V30.2733H35.3105V16.3846H58.299V32.2574H60.2147V15.3926C60.2147 15.1294 60.1137 14.8771 59.9341 14.6911C59.7545 14.505 59.5108 14.4005 59.2568 14.4005H54.4676V12.4164H60.2147C60.7225 12.417 61.2095 12.6263 61.5686 12.9982C61.9277 13.3702 62.1297 13.8745 62.1304 14.4005V31.2654H64.0461V14.4005C64.0449 13.3484 63.6409 12.3398 62.9226 11.5959C62.2043 10.8519 61.2305 10.4335 60.2147 10.4323H50.9051L51.5654 7.69673C51.6007 7.55047 51.6033 7.39781 51.5731 7.25034C51.5429 7.10286 51.4807 6.96445 51.3911 6.84563C51.3015 6.72681 51.187 6.63069 51.0562 6.56458C50.9253 6.49847 50.7817 6.46411 50.6361 6.4641H42.9733C42.8278 6.46411 42.6842 6.49847 42.5533 6.56458C42.4225 6.63069 42.308 6.72681 42.2184 6.84563C42.1288 6.96445 42.0666 7.10286 42.0364 7.25034C42.0062 7.39781 42.0088 7.55047 42.0441 7.69673L42.7044 10.4323H33.3948C32.379 10.4335 31.4052 10.8519 30.6869 11.5959C29.9686 12.3398 29.5646 13.3484 29.5634 14.4005V30.2733H31.4791V14.4005ZM41.0576 12.4164H43.9312C44.0768 12.4164 44.2204 12.382 44.3512 12.3159C44.482 12.2498 44.5966 12.1537 44.6862 12.0349C44.7757 11.9161 44.838 11.7776 44.8682 11.6302C44.8984 11.4827 44.8957 11.33 44.8604 11.1838L44.2001 8.4482H49.4094L48.7491 11.1838C48.7138 11.33 48.7111 11.4827 48.7413 11.6302C48.7715 11.7776 48.8338 11.9161 48.9233 12.0349C49.0129 12.1537 49.1275 12.2498 49.2583 12.3159C49.3891 12.382 49.5327 12.4164 49.6783 12.4164H52.5518V14.4005H41.0576V12.4164Z"/><path fill="#fff" d="M62.1303 55.0746C62.1297 55.6006 61.9277 56.1049 61.5686 56.4768C61.2094 56.8488 60.7225 57.058 60.2146 57.0587H54.4675V59.0428H60.2146C61.2304 59.0416 62.2043 58.6231 62.9226 57.8792C63.6409 57.1353 64.0449 56.1266 64.046 55.0746V46.1461H62.1303V55.0746Z"/><path fill="#fff" d="M60.2146 54.0825V47.1382H58.2989V53.0905H54.4675V55.0746H59.2568C59.5108 55.0746 59.7544 54.97 59.9341 54.784C60.1137 54.598 60.2146 54.3456 60.2146 54.0825Z"/><path fill="#fff" d="M42.9734 19.3608C42.9734 19.0976 42.8724 18.8453 42.6928 18.6593C42.5132 18.4732 42.2695 18.3687 42.0155 18.3687H38.1841C37.9301 18.3687 37.6864 18.4732 37.5068 18.6593C37.3272 18.8453 37.2263 19.0976 37.2263 19.3608V23.329C37.2263 23.5921 37.3272 23.8444 37.5068 24.0304C37.6864 24.2165 37.9301 24.321 38.1841 24.321H42.0155C42.2695 24.321 42.5132 24.2165 42.6928 24.0304C42.8724 23.8444 42.9734 23.5921 42.9734 23.329V19.3608ZM41.0577 22.3369H39.142V20.3528H41.0577V22.3369Z"/><path fill="#fff" d="M42.0155 27.2972H38.1841C37.9301 27.2972 37.6864 27.4017 37.5068 27.5877C37.3272 27.7738 37.2263 28.0261 37.2263 28.2892V32.2574C37.2263 32.5205 37.3272 32.7729 37.5068 32.9589C37.6864 33.1449 37.9301 33.2495 38.1841 33.2495H42.0155C42.2695 33.2495 42.5132 33.1449 42.6928 32.9589C42.8724 32.7729 42.9734 32.5205 42.9734 32.2574V28.2892C42.9734 28.0261 42.8724 27.7738 42.6928 27.5877C42.5132 27.4017 42.2695 27.2972 42.0155 27.2972ZM41.0577 31.2654H39.142V29.2813H41.0577V31.2654Z"/><path fill="#fff" d="M44.889 18.3687H46.8047V20.3528H44.889V18.3687Z"/><path fill="#fff" d="M44.889 22.3369H56.3832V24.321H44.889V22.3369Z"/><path fill="#fff" d="M48.7204 18.3687H56.3832V20.3528H48.7204V18.3687Z"/><path fill="#fff" d="M44.889 27.2972H46.8047V29.2813H44.889V27.2972Z"/><path fill="#fff" d="M44.889 31.2654H56.3832V33.2495H44.889V31.2654Z"/><path fill="#fff" d="M48.7204 27.2972H56.3832V29.2813H48.7204V27.2972Z"/><defs><filter id="filter0_d" width="88" height="88" x="0" y="0" color-interpolation-filters="sRGB" filterUnits="userSpaceOnUse"><feFlood flood-opacity="0" result="BackgroundImageFix"/><feColorMatrix in="SourceAlpha" type="matrix" values="0 0 0 0 0 0 0 0 0 0 0 0 0 0 0 0 0 0 127 0"/><feOffset dy="4"/><feGaussianBlur stdDeviation="2"/><feColorMatrix type="matrix" values="0 0 0 0 0 0 0 0 0 0 0 0 0 0 0 0 0 0 0.25 0"/><feBlend in2="BackgroundImageFix" mode="normal" result="effect1_dropShadow"/><feBlend in="SourceGraphic" in2="effect1_dropShadow" mode="normal" result="shape"/></filter></defs></svg>