<svg width="98" height="98" viewBox="0 0 98 98" fill="none" xmlns="http://www.w3.org/2000/svg">
<g filter="url(#filter0_d)">
<path d="M74 0H24C12.9543 0 4 8.9543 4 20V70C4 81.0457 12.9543 90 24 90H74C85.0457 90 94 81.0457 94 70V20C94 8.95431 85.0457 0 74 0Z" fill="#6761A8"/>
</g>
<path d="M17.32 78.18H16.44V77.3H19.828V78.18H18.948V84.12H19.828V85H16.44V84.12H17.32V78.18ZM24.9506 85V81.832C24.9506 81.3333 24.8736 80.974 24.7196 80.754C24.5656 80.534 24.2943 80.424 23.9056 80.424C23.5756 80.424 23.2933 80.5157 23.0586 80.699C22.8313 80.875 22.6736 81.1023 22.5856 81.381C22.5856 81.9823 22.5856 82.5873 22.5856 83.196C22.593 83.7973 22.5966 84.3987 22.5966 85H21.0566V79.225H22.2666L22.4316 80.05H22.5966C22.7873 79.7787 23.0403 79.5477 23.3556 79.357C23.671 79.159 24.0816 79.06 24.5876 79.06C24.8956 79.06 25.167 79.1003 25.4016 79.181C25.6436 79.2543 25.8416 79.3863 25.9956 79.577C26.157 79.7603 26.278 80.0097 26.3586 80.325C26.4466 80.6403 26.4906 81.0363 26.4906 81.513V85H24.9506ZM30.1063 82.217L30.3373 83.108H30.5133L30.6783 82.195L31.7563 79.225H33.4173L30.7773 85.055H29.8973L27.1473 79.225H28.9403L30.1063 82.217ZM38.9292 84.472C38.6799 84.6627 38.3389 84.8277 37.9062 84.967C37.4809 85.099 37.0226 85.165 36.5312 85.165C35.5412 85.165 34.8152 84.8937 34.3532 84.351C33.8912 83.8083 33.6602 83.064 33.6602 82.118C33.6602 81.1133 33.9206 80.3543 34.4412 79.841C34.9619 79.3203 35.6952 79.06 36.6412 79.06C36.9492 79.06 37.2536 79.1003 37.5542 79.181C37.8549 79.2543 38.1226 79.3827 38.3572 79.566C38.5919 79.742 38.7789 79.984 38.9182 80.292C39.0649 80.5927 39.1382 80.9667 39.1382 81.414C39.1382 81.568 39.1272 81.7367 39.1052 81.92C39.0906 82.1033 39.0612 82.294 39.0172 82.492H35.1672C35.2039 82.9907 35.3469 83.361 35.5962 83.603C35.8529 83.8377 36.2672 83.955 36.8392 83.955C37.1839 83.955 37.4919 83.9073 37.7632 83.812C38.0419 83.7093 38.2546 83.6067 38.4012 83.504L38.9292 84.472ZM36.6192 80.27C36.1646 80.27 35.8272 80.3947 35.6072 80.644C35.3872 80.886 35.2589 81.1977 35.2222 81.579H37.7082C37.7376 81.1757 37.6642 80.8567 37.4882 80.622C37.3122 80.3873 37.0226 80.27 36.6192 80.27ZM44.4155 85V81.832C44.4155 81.3333 44.3385 80.974 44.1845 80.754C44.0305 80.534 43.7592 80.424 43.3705 80.424C43.0405 80.424 42.7582 80.5157 42.5235 80.699C42.2962 80.875 42.1385 81.1023 42.0505 81.381C42.0505 81.9823 42.0505 82.5873 42.0505 83.196C42.0578 83.7973 42.0615 84.3987 42.0615 85H40.5215V79.225H41.7315L41.8965 80.05H42.0615C42.2522 79.7787 42.5052 79.5477 42.8205 79.357C43.1358 79.159 43.5465 79.06 44.0525 79.06C44.3605 79.06 44.6318 79.1003 44.8665 79.181C45.1085 79.2543 45.3065 79.3863 45.4605 79.577C45.6218 79.7603 45.7428 80.0097 45.8235 80.325C45.9115 80.6403 45.9555 81.0363 45.9555 81.513V85H44.4155ZM46.8321 79.225H47.7121V78.433L49.2521 78.026V79.225H50.8031V80.512H49.2521V82.514C49.2521 82.976 49.2961 83.3097 49.3841 83.515C49.4795 83.713 49.6628 83.812 49.9341 83.812C50.1028 83.812 50.2458 83.801 50.3631 83.779C50.4805 83.7497 50.6051 83.7057 50.7371 83.647L51.0561 84.802C50.8215 84.9047 50.5501 84.9927 50.2421 85.066C49.9415 85.1393 49.6481 85.176 49.3621 85.176C48.7901 85.176 48.3721 85.0367 48.1081 84.758C47.8441 84.472 47.7121 84.0173 47.7121 83.394V80.512H46.8321V79.225ZM51.9284 79.621C52.2584 79.4743 52.6617 79.3533 53.1384 79.258C53.6224 79.1627 54.1211 79.115 54.6344 79.115C55.0377 79.115 55.3751 79.1627 55.6464 79.258C55.9251 79.3533 56.1451 79.4927 56.3064 79.676C56.4677 79.852 56.5814 80.0683 56.6474 80.325C56.7207 80.5743 56.7574 80.853 56.7574 81.161C56.7574 81.535 56.7427 81.9053 56.7134 82.272C56.6841 82.6387 56.6694 83.0273 56.6694 83.438C56.6694 83.7167 56.6877 83.988 56.7244 84.252C56.7611 84.516 56.8197 84.769 56.9004 85.011H55.6464L55.3934 84.153H55.2614C55.0707 84.4097 54.8287 84.6297 54.5354 84.813C54.2421 84.9963 53.8644 85.088 53.4024 85.088C53.1237 85.088 52.8671 85.0477 52.6324 84.967C52.4051 84.8863 52.2071 84.7727 52.0384 84.626C51.8771 84.472 51.7487 84.2923 51.6534 84.087C51.5654 83.8817 51.5214 83.658 51.5214 83.416C51.5214 82.7633 51.7377 82.272 52.1704 81.942C52.6104 81.6047 53.2741 81.436 54.1614 81.436C54.3667 81.436 54.5721 81.4543 54.7774 81.491C54.9827 81.5203 55.1257 81.5423 55.2064 81.557C55.2284 81.403 55.2394 81.271 55.2394 81.161C55.2394 80.8823 55.1697 80.677 55.0304 80.545C54.8911 80.413 54.6307 80.347 54.2494 80.347C53.8974 80.347 53.5527 80.391 53.2154 80.479C52.8854 80.5597 52.5921 80.6623 52.3354 80.787L51.9284 79.621ZM53.9414 83.856C54.2861 83.856 54.5611 83.7753 54.7664 83.614C54.9717 83.4527 55.1221 83.284 55.2174 83.108V82.448C55.1807 82.4333 55.1221 82.4187 55.0414 82.404C54.9681 82.3893 54.8837 82.3747 54.7884 82.36C54.7004 82.3453 54.6087 82.3343 54.5134 82.327C54.4254 82.3197 54.3447 82.316 54.2714 82.316C53.8754 82.316 53.5821 82.3893 53.3914 82.536C53.2007 82.6753 53.1054 82.8513 53.1054 83.064C53.1054 83.328 53.1787 83.526 53.3254 83.658C53.4794 83.79 53.6847 83.856 53.9414 83.856ZM61.7635 80.633C61.5435 80.5597 61.3235 80.523 61.1035 80.523C60.7809 80.523 60.5132 80.6 60.3005 80.754C60.0952 80.908 59.9595 81.1023 59.8935 81.337V85H58.3535V79.225H59.5635L59.7285 80.028H59.8715C60.0182 79.7273 60.2125 79.4963 60.4545 79.335C60.7039 79.1737 60.9862 79.093 61.3015 79.093C61.4995 79.093 61.7269 79.1333 61.9835 79.214L61.7635 80.633ZM63.0093 79.225H64.5493V85H63.0093V79.225ZM62.7783 77.784C62.7783 77.5493 62.8626 77.355 63.0313 77.201C63.1999 77.0397 63.4383 76.959 63.7463 76.959C64.0616 76.959 64.3109 77.0397 64.4943 77.201C64.6776 77.3623 64.7693 77.5567 64.7693 77.784C64.7693 77.9967 64.6776 78.18 64.4943 78.334C64.3109 78.488 64.0616 78.565 63.7463 78.565C63.4383 78.565 63.1999 78.488 63.0313 78.334C62.8626 78.18 62.7783 77.9967 62.7783 77.784ZM65.9835 82.118C65.9835 81.1647 66.2365 80.4167 66.7425 79.874C67.2485 79.3313 67.9708 79.06 68.9095 79.06C69.4008 79.06 69.8298 79.137 70.1965 79.291C70.5632 79.445 70.8675 79.6613 71.1095 79.94C71.3515 80.2113 71.5312 80.534 71.6485 80.908C71.7732 81.2747 71.8355 81.678 71.8355 82.118C71.8355 82.5873 71.7695 83.0127 71.6375 83.394C71.5055 83.768 71.3148 84.087 71.0655 84.351C70.8162 84.615 70.5082 84.8167 70.1415 84.956C69.7822 85.0953 69.3715 85.165 68.9095 85.165C68.4108 85.165 67.9782 85.088 67.6115 84.934C67.2448 84.78 66.9405 84.5673 66.6985 84.296C66.4565 84.0173 66.2768 83.6947 66.1595 83.328C66.0422 82.954 65.9835 82.5507 65.9835 82.118ZM67.5675 82.118C67.5675 82.36 67.5932 82.5873 67.6445 82.8C67.6958 83.0127 67.7728 83.1997 67.8755 83.361C67.9855 83.515 68.1248 83.6397 68.2935 83.735C68.4622 83.8303 68.6675 83.878 68.9095 83.878C69.8042 83.878 70.2515 83.2913 70.2515 82.118C70.2515 81.8613 70.2258 81.6267 70.1745 81.414C70.1305 81.194 70.0535 81.007 69.9435 80.853C69.8408 80.6917 69.7015 80.567 69.5255 80.479C69.3568 80.391 69.1515 80.347 68.9095 80.347C68.4915 80.347 68.1615 80.4863 67.9195 80.765C67.6848 81.0437 67.5675 81.4947 67.5675 82.118ZM73.0808 83.504C73.1835 83.5553 73.3008 83.6067 73.4328 83.658C73.5721 83.7093 73.7188 83.757 73.8728 83.801C74.0341 83.845 74.1955 83.8817 74.3568 83.911C74.5255 83.9403 74.6941 83.955 74.8628 83.955C75.1195 83.955 75.3175 83.9147 75.4568 83.834C75.6035 83.7533 75.6768 83.603 75.6768 83.383C75.6768 83.207 75.5815 83.0787 75.3908 82.998C75.2001 82.91 74.9655 82.8257 74.6868 82.745C74.4815 82.6863 74.2651 82.6167 74.0378 82.536C73.8178 82.4553 73.6125 82.349 73.4218 82.217C73.2385 82.0777 73.0845 81.898 72.9598 81.678C72.8425 81.458 72.7838 81.1793 72.7838 80.842C72.7838 80.2627 72.9635 79.8227 73.3228 79.522C73.6821 79.214 74.1991 79.06 74.8738 79.06C75.3138 79.06 75.7245 79.1003 76.1058 79.181C76.4945 79.2543 76.8061 79.3423 77.0408 79.445L76.7218 80.611C76.5311 80.5377 76.2855 80.4643 75.9848 80.391C75.6915 80.3103 75.3908 80.27 75.0828 80.27C74.8261 80.27 74.6355 80.3103 74.5108 80.391C74.3861 80.4643 74.3238 80.5963 74.3238 80.787C74.3238 80.9557 74.4191 81.084 74.6098 81.172C74.8078 81.2527 75.0461 81.3333 75.3248 81.414C75.5301 81.4727 75.7428 81.5423 75.9628 81.623C76.1901 81.6963 76.3955 81.799 76.5788 81.931C76.7621 82.063 76.9125 82.2353 77.0298 82.448C77.1545 82.6533 77.2168 82.9137 77.2168 83.229C77.2168 83.845 77.0151 84.3217 76.6118 84.659C76.2158 84.9963 75.6181 85.165 74.8188 85.165C74.3861 85.165 73.9828 85.1247 73.6088 85.044C73.2348 84.9707 72.9305 84.8607 72.6958 84.714L73.0808 83.504Z" fill="white"/>
<path d="M79.6673 38.4856C79.4216 37.6349 78.8596 36.9201 78.1051 36.4985C77.3505 36.077 76.4652 35.9831 75.6438 36.2375L46.7377 45.1949C46.5774 45.2446 46.4306 45.3323 46.3086 45.4509L42.7968 48.8688C42.651 49.0107 42.5461 49.1919 42.4941 49.392C42.4421 49.5922 42.4449 49.8034 42.5022 50.0019C42.5596 50.2005 42.6692 50.3786 42.8187 50.5163C42.9683 50.654 43.1519 50.7459 43.3491 50.7816L48.0962 51.6404C48.261 51.6701 48.4303 51.6598 48.5906 51.6102L72.0452 44.3419L72.1468 46.6403L64.6939 48.9497L65.3117 51.0884L73.5705 48.529C73.8008 48.4577 74.0014 48.3087 74.1405 48.1057C74.2796 47.9028 74.3492 47.6575 74.3383 47.4089L74.1736 43.6835L77.497 42.6536C78.3183 42.3991 79.0084 41.817 79.4155 41.0355C79.8225 40.254 79.9131 39.337 79.6673 38.4863V38.4856ZM48.2168 49.3964L45.8431 48.967L47.5991 47.2579L52.5171 45.7342L53.1349 47.8726L48.2168 49.3964ZM55.1995 47.2325L54.5818 45.0942L71.8422 39.7453L71.9438 42.0438L55.1995 47.2325ZM77.5189 39.9749C77.452 40.1042 77.3611 40.2184 77.2513 40.311C77.1415 40.4036 77.0151 40.4727 76.8794 40.5144L74.0721 41.3842L73.9706 39.0859L76.2616 38.3759C76.4658 38.3127 76.6835 38.3135 76.8872 38.3784C77.0909 38.4433 77.2715 38.5693 77.4061 38.7404C77.5406 38.9116 77.6232 39.1202 77.6433 39.3399C77.6634 39.5597 77.6201 39.7807 77.5189 39.9749V39.9749Z" fill="white"/>
<path d="M57.5432 54.1465H39.2244V37.4056C39.2244 37.1096 39.1108 36.8258 38.9087 36.6165C38.7067 36.4072 38.4326 36.2896 38.1468 36.2896H18.7503C18.4645 36.2896 18.1904 36.4072 17.9883 36.6165C17.7863 36.8258 17.6727 37.1096 17.6727 37.4056V73.1194C17.6727 73.4154 17.7863 73.6993 17.9883 73.9086C18.1904 74.1179 18.4645 74.2355 18.7503 74.2355H57.5432C57.829 74.2355 58.1031 74.1179 58.3052 73.9086C58.5073 73.6993 58.6208 73.4154 58.6208 73.1194V55.2625C58.6208 54.9665 58.5073 54.6827 58.3052 54.4734C58.1031 54.2641 57.829 54.1465 57.5432 54.1465ZM45.6898 56.3786H50.0002V60.8428H45.6898V56.3786ZM26.2934 38.5217H30.6037V42.9859H26.2934V38.5217ZM19.8279 38.5217H24.1382V44.102C24.1382 44.398 24.2517 44.6818 24.4538 44.8911C24.6559 45.1004 24.93 45.218 25.2158 45.218H31.6813C31.9671 45.218 32.2412 45.1004 32.4433 44.8911C32.6453 44.6818 32.7589 44.398 32.7589 44.102V38.5217H37.0692V54.1465H19.8279V38.5217ZM26.2934 56.3786H30.6037V60.8428H26.2934V56.3786ZM19.8279 56.3786H24.1382V61.9589C24.1382 62.2549 24.2517 62.5387 24.4538 62.748C24.6559 62.9573 24.93 63.0749 25.2158 63.0749H31.6813C31.9671 63.0749 32.2412 62.9573 32.4433 62.748C32.6453 62.5387 32.7589 62.2549 32.7589 61.9589V56.3786H37.0692V72.0034H19.8279V56.3786ZM56.4657 72.0034H39.2244V56.3786H43.5347V61.9589C43.5347 62.2549 43.6482 62.5387 43.8503 62.748C44.0524 62.9573 44.3265 63.0749 44.6123 63.0749H51.0777C51.3635 63.0749 51.6376 62.9573 51.8397 62.748C52.0418 62.5387 52.1553 62.2549 52.1553 61.9589V56.3786H56.4657V72.0034Z" fill="white"/>
<path d="M52.1553 67.5392H54.3105V69.7713H52.1553V67.5392Z" fill="white"/>
<path d="M32.7589 67.5392H34.914V69.7713H32.7589V67.5392Z" fill="white"/>
<path d="M32.7589 49.6823H34.914V51.9144H32.7589V49.6823Z" fill="white"/>
<path d="M34.914 16.2006C34.9147 15.6088 35.142 15.0415 35.546 14.623C35.95 14.2046 36.4978 13.9692 37.0692 13.9685H43.5347V16.2006H38.1468C37.861 16.2006 37.5869 16.3182 37.3848 16.5275C37.1827 16.7368 37.0692 17.0206 37.0692 17.3166V34.0575H39.2244V18.4327H65.0863V36.2896H67.2415V17.3166C67.2415 17.0206 67.128 16.7368 66.9259 16.5275C66.7238 16.3182 66.4497 16.2006 66.1639 16.2006H60.776V13.9685H67.2415C67.8129 13.9692 68.3606 14.2046 68.7647 14.623C69.1687 15.0415 69.396 15.6088 69.3966 16.2006V35.1735H71.5518V16.2006C71.5505 15.017 71.096 13.8823 70.2879 13.0454C69.4799 12.2084 68.3843 11.7377 67.2415 11.7363H56.7682L57.5111 8.65882C57.5508 8.49428 57.5538 8.32254 57.5198 8.15663C57.4858 7.99072 57.4158 7.83501 57.315 7.70133C57.2142 7.56766 57.0854 7.45952 56.9382 7.38515C56.791 7.31078 56.6294 7.27212 56.4657 7.27212H47.845C47.6813 7.27212 47.5197 7.31078 47.3725 7.38515C47.2253 7.45952 47.0965 7.56766 46.9957 7.70133C46.8949 7.83501 46.8249 7.99072 46.7909 8.15663C46.7569 8.32254 46.7599 8.49428 46.7996 8.65882L47.5425 11.7363H37.0692C35.9264 11.7377 34.8308 12.2084 34.0228 13.0454C33.2147 13.8823 32.7602 15.017 32.7589 16.2006V34.0575H34.914V16.2006ZM45.6899 13.9685H48.9226C49.0864 13.9685 49.2479 13.9298 49.3951 13.8554C49.5423 13.781 49.6712 13.6729 49.7719 13.5392C49.8727 13.4056 49.9427 13.2499 49.9767 13.0839C50.0107 12.918 50.0077 12.7463 49.968 12.5818L49.2251 9.50423H55.0856L54.3427 12.5818C54.303 12.7463 54.3 12.918 54.334 13.0839C54.368 13.2499 54.438 13.4056 54.5388 13.5392C54.6395 13.6729 54.7684 13.781 54.9156 13.8554C55.0627 13.9298 55.2243 13.9685 55.3881 13.9685H58.6208V16.2006H45.6899V13.9685Z" fill="white"/>
<path d="M69.3966 61.9589C69.396 62.5507 69.1687 63.118 68.7647 63.5364C68.3606 63.9549 67.8129 64.1903 67.2415 64.191H60.776V66.4231H67.2415C68.3843 66.4218 69.4799 65.951 70.2879 65.1141C71.096 64.2772 71.5505 63.1425 71.5518 61.9589V51.9144H69.3966V61.9589Z" fill="white"/>
<path d="M67.2415 60.8428V53.0304H65.0863V59.7268H60.776V61.9589H66.1639C66.4497 61.9589 66.7238 61.8413 66.9259 61.632C67.128 61.4227 67.2415 61.1388 67.2415 60.8428Z" fill="white"/>
<path d="M47.845 21.7809C47.845 21.4849 47.7315 21.201 47.5294 20.9917C47.3273 20.7824 47.0532 20.6648 46.7674 20.6648H42.4571C42.1713 20.6648 41.8972 20.7824 41.6951 20.9917C41.493 21.201 41.3795 21.4849 41.3795 21.7809V26.2451C41.3795 26.5411 41.493 26.8249 41.6951 27.0342C41.8972 27.2435 42.1713 27.3611 42.4571 27.3611H46.7674C47.0532 27.3611 47.3273 27.2435 47.5294 27.0342C47.7315 26.8249 47.845 26.5411 47.845 26.2451V21.7809ZM45.6898 25.129H43.5347V22.8969H45.6898V25.129Z" fill="white"/>
<path d="M46.7674 30.7093H42.4571C42.1713 30.7093 41.8972 30.8269 41.6951 31.0362C41.493 31.2455 41.3795 31.5294 41.3795 31.8254V36.2896C41.3795 36.5856 41.493 36.8695 41.6951 37.0788C41.8972 37.2881 42.1713 37.4056 42.4571 37.4056H46.7674C47.0532 37.4056 47.3273 37.2881 47.5294 37.0788C47.7315 36.8695 47.845 36.5856 47.845 36.2896V31.8254C47.845 31.5294 47.7315 31.2455 47.5294 31.0362C47.3273 30.8269 47.0532 30.7093 46.7674 30.7093ZM45.6898 35.1735H43.5347V32.9414H45.6898V35.1735Z" fill="white"/>
<path d="M50.0002 20.6648H52.1553V22.8969H50.0002V20.6648Z" fill="white"/>
<path d="M50.0002 25.129H62.9312V27.3611H50.0002V25.129Z" fill="white"/>
<path d="M54.3105 20.6648H62.9311V22.8969H54.3105V20.6648Z" fill="white"/>
<path d="M50.0002 30.7093H52.1553V32.9414H50.0002V30.7093Z" fill="white"/>
<path d="M50.0002 35.1735H62.9312V37.4056H50.0002V35.1735Z" fill="white"/>
<path d="M54.3105 30.7093H62.9311V32.9414H54.3105V30.7093Z" fill="white"/>
<defs>
<filter id="filter0_d" x="0" y="0" width="98" height="98" filterUnits="userSpaceOnUse" color-interpolation-filters="sRGB">
<feFlood flood-opacity="0" result="BackgroundImageFix"/>
<feColorMatrix in="SourceAlpha" type="matrix" values="0 0 0 0 0 0 0 0 0 0 0 0 0 0 0 0 0 0 127 0"/>
<feOffset dy="4"/>
<feGaussianBlur stdDeviation="2"/>
<feColorMatrix type="matrix" values="0 0 0 0 0 0 0 0 0 0 0 0 0 0 0 0 0 0 0.25 0"/>
<feBlend mode="normal" in2="BackgroundImageFix" result="effect1_dropShadow"/>
<feBlend mode="normal" in="SourceGraphic" in2="effect1_dropShadow" result="shape"/>
</filter>
</defs>
</svg>
