<svg width="98" height="98" viewBox="0 0 98 98" fill="none" xmlns="http://www.w3.org/2000/svg">
<g filter="url(#filter0_d)">
<path d="M74 0H24C12.9543 0 4 8.9543 4 20V70C4 81.0457 12.9543 90 24 90H74C85.0457 90 94 81.0457 94 70V20C94 8.95431 85.0457 0 74 0Z" fill="#31493C"/>
</g>
<g clip-path="url(#clip0)">
<path d="M77.8721 54.7471C76.3677 53.2213 74.3641 52.3547 72.2916 52.2625L69.9073 49.8441C71.2694 47.5821 72.2666 45.1423 72.8794 42.5723H79.0456V30.4863H72.8794C72.2667 27.9164 71.2696 25.4768 69.9073 23.2146L74.2692 18.7904L65.8436 10.2444L61.4817 14.6685C59.2515 13.2871 56.8461 12.2758 54.3123 11.6543V5.4H42.3966V11.6543C39.8628 12.2757 37.4574 13.2873 35.2273 14.6687L30.8653 10.2447L22.4397 18.7906L26.8014 23.2148C25.4393 25.4769 24.4422 27.9167 23.8295 30.4865H17.6632V42.5726H23.8295C24.4422 45.1426 25.4394 47.5824 26.8014 49.8444L22.4397 54.2686L30.8653 62.8145L35.2273 58.3905C37.4574 59.7719 39.8628 60.7834 42.3966 61.4049V67.6593H54.3123V61.4049C56.8461 60.7835 59.2515 59.7719 61.4816 58.3905L63.5379 60.4762C63.4647 62.8013 64.3283 65.1154 65.9894 66.8002C67.5996 68.4334 69.7422 69.3 71.9271 69.3C72.9954 69.3 74.0738 69.0928 75.1049 68.6666L76.3912 68.1349L70.9101 62.5757L71.5068 60.3437L73.7071 59.7385L79.1883 65.2979L79.7125 63.9932C80.9918 60.8078 80.2694 57.1788 77.8721 54.7471ZM61.1089 56.4165C58.6841 58.0197 56.0232 59.1386 53.1996 59.7417L52.4673 59.8981V65.788H44.2411V59.8981L43.5088 59.7417C40.6855 59.1386 38.0244 58.0197 35.5995 56.4165L34.9727 56.0021L30.8649 60.1684L25.0482 54.2683L29.1558 50.1019L28.7472 49.4661C27.1665 47.0068 26.0635 44.3078 25.4687 41.4438L25.3146 40.7011H19.508V32.3572H25.3147L25.4689 31.6145C26.0635 28.751 27.1665 26.052 28.7473 23.5923L29.1559 22.9566L25.0483 18.7901L30.8652 12.8901L34.9731 17.0567L35.5999 16.6424C38.0246 15.039 40.6856 13.9203 43.5092 13.3171L44.2414 13.1607V7.27119H52.4677V13.1609L53.1999 13.3173C56.0234 13.9205 58.6845 15.0394 61.1092 16.6426L61.736 17.057L65.8438 12.8906L71.6607 18.7906L67.5529 22.9571L67.9616 23.5928C69.5424 26.0525 70.6453 28.7515 71.24 31.615L71.3942 32.3577H77.201V40.7016H71.3942L71.24 41.4443C70.6455 44.308 69.5424 47.0072 67.9616 49.4666L67.706 49.864L60.0219 42.0697L59.2108 41.247C59.8427 39.7571 60.1627 38.1735 60.1627 36.5299C60.1627 29.926 54.8656 24.5532 48.3547 24.5532C41.8439 24.5532 36.5468 29.9259 36.5468 36.5299C36.5468 43.1338 41.8439 48.5065 48.3547 48.5065C49.9692 48.5065 51.5254 48.1842 52.99 47.5476L61.3621 56.0398L61.4874 56.1668L61.1089 56.4165ZM55.198 31.11C52.8008 28.6784 49.2226 27.9455 46.0824 29.2433L44.796 29.775L50.2772 35.3344L49.6806 37.5663L47.4801 38.1715L41.999 32.6121L41.4749 33.9168C40.1955 37.1018 40.9179 40.7309 43.3151 43.1626C45.3157 45.1918 48.1993 46.0552 50.9535 45.4817L51.5624 46.0994C50.536 46.4546 49.4618 46.6351 48.3545 46.6351C42.8608 46.6351 38.3913 42.1017 38.3913 36.5295C38.3913 30.9573 42.8608 26.4239 48.3545 26.4239C53.8482 26.4239 58.3177 30.9573 58.3177 36.5295C58.3177 37.6588 58.138 38.7537 57.784 39.7999L57.3648 39.3747C58.1435 36.453 57.3236 33.2659 55.198 31.11ZM78.4035 61.8557L74.2559 57.6488L70.0032 58.8184L68.85 63.1319L72.9976 67.3389C70.9395 67.6845 68.8129 67.0178 67.2937 65.4769C65.8885 64.0516 65.2154 62.049 65.4112 60.0838C65.4189 60.0074 65.4276 59.9313 65.4379 59.8553C65.4429 59.8175 65.4477 59.7796 65.4535 59.742C65.4704 59.6323 65.4899 59.5235 65.5121 59.415C65.5176 59.388 65.5232 59.3611 65.5291 59.3341C65.5539 59.2197 65.5812 59.1057 65.612 58.993C65.6171 58.9744 65.6226 58.956 65.6278 58.9374C65.6583 58.829 65.6915 58.7218 65.7273 58.6154C65.8526 58.3487 66.5571 56.9062 67.5889 55.8598L66.2846 54.5368C65.59 55.2413 65.0314 56.0663 64.6431 56.7217L58.5783 50.57L53.371 45.2879H53.3709L51.5142 43.4046L50.997 43.5483C48.7251 44.1805 46.2814 43.5254 44.6194 41.8398C43.1003 40.2989 42.4429 38.1418 42.7837 36.0543L46.9313 40.2612L51.1841 39.0914L52.3373 34.778L48.1895 30.571C50.2477 30.2259 52.3744 30.8923 53.8936 32.4331C55.6615 34.2263 56.2719 36.9335 55.4489 39.3303L55.288 39.7985C55.0226 40.2689 54.6018 40.93 54.0813 41.4581L55.3857 42.7809C55.8717 42.288 56.2778 41.7255 56.5884 41.2334L69.6728 54.5055L70.1898 54.3618C70.3311 54.3225 70.4731 54.2882 70.6153 54.2587C70.6404 54.2535 70.6658 54.2492 70.691 54.2444C70.7366 54.2355 70.7822 54.2264 70.8277 54.2185C70.8663 54.2119 70.9051 54.2064 70.9437 54.2004C70.9765 54.1954 71.0092 54.1898 71.0419 54.1853C71.0793 54.1802 71.1169 54.1762 71.1541 54.1717C71.189 54.1675 71.2239 54.1627 71.2587 54.1592C71.2849 54.1565 71.3113 54.1548 71.3376 54.1524C71.3845 54.1481 71.4314 54.1435 71.478 54.1404C71.4848 54.1399 71.4917 54.1398 71.4985 54.1393C73.3632 54.0165 75.2216 54.7051 76.5673 56.0704C78.0869 57.6111 78.7444 59.7682 78.4035 61.8557Z" fill="white"/>
<path d="M55.3071 44.3433L56.6484 45.7038L57.9528 44.3808L56.6115 43.0203L55.3071 44.3433Z" fill="white"/>
<path d="M58.2559 47.3355L62.6535 51.796L63.9579 50.473L59.5602 46.0126L58.2559 47.3355Z" fill="white"/>
<path d="M52.8854 53.1121L53.3801 54.9147C54.1533 54.6964 54.9193 54.4245 55.6572 54.1066L54.936 52.3844C54.2716 52.6708 53.5816 52.9156 52.8854 53.1121Z" fill="white"/>
<path d="M48.3582 53.7363C39.0719 53.7363 31.5168 46.0733 31.5168 36.6543C31.5168 35.6817 31.598 34.7071 31.758 33.757L29.9396 33.442C29.7622 34.4956 29.6721 35.5765 29.6721 36.6543C29.6721 47.1051 38.0547 55.6072 48.3581 55.6072C48.9637 55.6072 49.575 55.5775 50.1746 55.5186L49.9974 53.6563C49.4564 53.7093 48.9049 53.7363 48.3582 53.7363Z" fill="white"/>
<path d="M36.7076 24.3194L35.4312 22.9686C34.9046 23.4805 34.4024 24.0291 33.9385 24.5994L35.3614 25.7903C35.7797 25.2759 36.2326 24.781 36.7076 24.3194Z" fill="white"/>
<path d="M48.3582 19.5723C50.3377 19.5723 52.2754 19.9171 54.1176 20.597L54.7485 18.8388C52.7033 18.0839 50.5534 17.7012 48.3582 17.7012C44.2517 17.7012 40.3551 19.0266 37.0896 21.5342L38.2031 23.0258C41.1453 20.7665 44.6571 19.5723 48.3582 19.5723Z" fill="white"/>
</g>
<path d="M16.85 79.39L17.01 77.94H16.95L16.47 79.04L14.85 81.65H14.39L12.67 79.03L12.2 77.95H12.14L12.35 79.38V82.9H10.95V75.9H12.29L14.31 79.13L14.69 79.9H14.74L15.07 79.11L17 75.9H18.33V82.9H16.85V79.39ZM19.6516 78.01C19.9516 77.8767 20.3183 77.7667 20.7516 77.68C21.1916 77.5933 21.645 77.55 22.1116 77.55C22.4783 77.55 22.785 77.5933 23.0316 77.68C23.285 77.7667 23.485 77.8933 23.6316 78.06C23.7783 78.22 23.8816 78.4167 23.9416 78.65C24.0083 78.8767 24.0416 79.13 24.0416 79.41C24.0416 79.75 24.0283 80.0867 24.0016 80.42C23.975 80.7533 23.9616 81.1067 23.9616 81.48C23.9616 81.7333 23.9783 81.98 24.0116 82.22C24.045 82.46 24.0983 82.69 24.1716 82.91H23.0316L22.8016 82.13H22.6816C22.5083 82.3633 22.2883 82.5633 22.0216 82.73C21.755 82.8967 21.4116 82.98 20.9916 82.98C20.7383 82.98 20.505 82.9433 20.2916 82.87C20.085 82.7967 19.905 82.6933 19.7516 82.56C19.605 82.42 19.4883 82.2567 19.4016 82.07C19.3216 81.8833 19.2816 81.68 19.2816 81.46C19.2816 80.8667 19.4783 80.42 19.8716 80.12C20.2716 79.8133 20.875 79.66 21.6816 79.66C21.8683 79.66 22.055 79.6767 22.2416 79.71C22.4283 79.7367 22.5583 79.7567 22.6316 79.77C22.6516 79.63 22.6616 79.51 22.6616 79.41C22.6616 79.1567 22.5983 78.97 22.4716 78.85C22.345 78.73 22.1083 78.67 21.7616 78.67C21.4416 78.67 21.1283 78.71 20.8216 78.79C20.5216 78.8633 20.255 78.9567 20.0216 79.07L19.6516 78.01ZM21.4816 81.86C21.795 81.86 22.045 81.7867 22.2316 81.64C22.4183 81.4933 22.555 81.34 22.6416 81.18V80.58C22.6083 80.5667 22.555 80.5533 22.4816 80.54C22.415 80.5267 22.3383 80.5133 22.2516 80.5C22.1716 80.4867 22.0883 80.4767 22.0016 80.47C21.9216 80.4633 21.8483 80.46 21.7816 80.46C21.4216 80.46 21.155 80.5267 20.9816 80.66C20.8083 80.7867 20.7216 80.9467 20.7216 81.14C20.7216 81.38 20.7883 81.56 20.9216 81.68C21.0616 81.8 21.2483 81.86 21.4816 81.86ZM29.0327 82.9V80.02C29.0327 79.5667 28.9627 79.24 28.8227 79.04C28.6827 78.84 28.436 78.74 28.0827 78.74C27.7827 78.74 27.526 78.8233 27.3127 78.99C27.106 79.15 26.9627 79.3567 26.8827 79.61C26.8827 80.1567 26.8827 80.7067 26.8827 81.26C26.8893 81.8067 26.8927 82.3533 26.8927 82.9H25.4927V77.65H26.5927L26.7427 78.4H26.8927C27.066 78.1533 27.296 77.9433 27.5827 77.77C27.8693 77.59 28.2427 77.5 28.7027 77.5C28.9827 77.5 29.2293 77.5367 29.4427 77.61C29.6627 77.6767 29.8427 77.7967 29.9827 77.97C30.1293 78.1367 30.2393 78.3633 30.3127 78.65C30.3927 78.9367 30.4327 79.2967 30.4327 79.73V82.9H29.0327ZM31.2296 77.65H32.0296V76.93L33.4296 76.56V77.65H34.8396V78.82H33.4296V80.64C33.4296 81.06 33.4696 81.3633 33.5496 81.55C33.6363 81.73 33.8029 81.82 34.0496 81.82C34.2029 81.82 34.3329 81.81 34.4396 81.79C34.5463 81.7633 34.6596 81.7233 34.7796 81.67L35.0696 82.72C34.8563 82.8133 34.6096 82.8933 34.3296 82.96C34.0563 83.0267 33.7896 83.06 33.5296 83.06C33.0096 83.06 32.6296 82.9333 32.3896 82.68C32.1496 82.42 32.0296 82.0067 32.0296 81.44V78.82H31.2296V77.65ZM40.344 82.42C40.1173 82.5933 39.8073 82.7433 39.414 82.87C39.0273 82.99 38.6107 83.05 38.164 83.05C37.264 83.05 36.604 82.8033 36.184 82.31C35.764 81.8167 35.554 81.14 35.554 80.28C35.554 79.3667 35.7907 78.6767 36.264 78.21C36.7373 77.7367 37.404 77.5 38.264 77.5C38.544 77.5 38.8207 77.5367 39.094 77.61C39.3673 77.6767 39.6107 77.7933 39.824 77.96C40.0373 78.12 40.2073 78.34 40.334 78.62C40.4673 78.8933 40.534 79.2333 40.534 79.64C40.534 79.78 40.524 79.9333 40.504 80.1C40.4907 80.2667 40.464 80.44 40.424 80.62H36.924C36.9573 81.0733 37.0873 81.41 37.314 81.63C37.5473 81.8433 37.924 81.95 38.444 81.95C38.7573 81.95 39.0373 81.9067 39.284 81.82C39.5373 81.7267 39.7307 81.6333 39.864 81.54L40.344 82.42ZM38.244 78.6C37.8307 78.6 37.524 78.7133 37.324 78.94C37.124 79.16 37.0073 79.4433 36.974 79.79H39.234C39.2607 79.4233 39.194 79.1333 39.034 78.92C38.874 78.7067 38.6107 78.6 38.244 78.6ZM45.3315 82.9V80.02C45.3315 79.5667 45.2615 79.24 45.1215 79.04C44.9815 78.84 44.7348 78.74 44.3815 78.74C44.0815 78.74 43.8248 78.8233 43.6115 78.99C43.4048 79.15 43.2615 79.3567 43.1815 79.61C43.1815 80.1567 43.1815 80.7067 43.1815 81.26C43.1882 81.8067 43.1915 82.3533 43.1915 82.9H41.7915V77.65H42.8915L43.0415 78.4H43.1915C43.3648 78.1533 43.5948 77.9433 43.8815 77.77C44.1682 77.59 44.5415 77.5 45.0015 77.5C45.2815 77.5 45.5282 77.5367 45.7415 77.61C45.9615 77.6767 46.1415 77.7967 46.2815 77.97C46.4282 78.1367 46.5382 78.3633 46.6115 78.65C46.6915 78.9367 46.7315 79.2967 46.7315 79.73V82.9H45.3315ZM48.3384 77.65H49.7384V82.9H48.3384V77.65ZM48.1284 76.34C48.1284 76.1267 48.2051 75.95 48.3584 75.81C48.5118 75.6633 48.7284 75.59 49.0084 75.59C49.2951 75.59 49.5218 75.6633 49.6884 75.81C49.8551 75.9567 49.9384 76.1333 49.9384 76.34C49.9384 76.5333 49.8551 76.7 49.6884 76.84C49.5218 76.98 49.2951 77.05 49.0084 77.05C48.7284 77.05 48.5118 76.98 48.3584 76.84C48.2051 76.7 48.1284 76.5333 48.1284 76.34ZM54.6223 82.9V80.16C54.6223 79.6533 54.5689 79.29 54.4623 79.07C54.3556 78.85 54.1356 78.74 53.8023 78.74C53.5223 78.74 53.2989 78.81 53.1323 78.95C52.9656 79.0833 52.8356 79.26 52.7423 79.48V82.9H51.3423V77.65H52.4223L52.5823 78.38H52.7123C52.7989 78.2667 52.8989 78.1567 53.0123 78.05C53.1256 77.9433 53.2489 77.85 53.3823 77.77C53.5223 77.69 53.6756 77.6267 53.8423 77.58C54.0156 77.5267 54.2089 77.5 54.4223 77.5C54.7756 77.5 55.0689 77.58 55.3023 77.74C55.5423 77.8933 55.7323 78.1533 55.8723 78.52C56.0656 78.2 56.2989 77.95 56.5723 77.77C56.8523 77.59 57.1756 77.5 57.5423 77.5C57.8623 77.5 58.1323 77.5367 58.3523 77.61C58.5789 77.6833 58.7623 77.81 58.9023 77.99C59.0423 78.17 59.1423 78.4133 59.2023 78.72C59.2689 79.0267 59.3023 79.41 59.3023 79.87V82.9H57.9023V80.09C57.9023 79.87 57.8923 79.6767 57.8723 79.51C57.8523 79.3433 57.8123 79.2033 57.7523 79.09C57.6923 78.97 57.6056 78.8833 57.4923 78.83C57.3856 78.77 57.2423 78.74 57.0623 78.74C56.7823 78.74 56.5556 78.8133 56.3823 78.96C56.2156 79.1 56.0956 79.2967 56.0223 79.55V82.9H54.6223ZM60.9166 77.65H62.3166V82.9H60.9166V77.65ZM60.7066 76.34C60.7066 76.1267 60.7832 75.95 60.9366 75.81C61.0899 75.6633 61.3066 75.59 61.5866 75.59C61.8732 75.59 62.0999 75.6633 62.2666 75.81C62.4332 75.9567 62.5166 76.1333 62.5166 76.34C62.5166 76.5333 62.4332 76.7 62.2666 76.84C62.0999 76.98 61.8732 77.05 61.5866 77.05C61.3066 77.05 61.0899 76.98 60.9366 76.84C60.7832 76.7 60.7066 76.5333 60.7066 76.34ZM68.4104 82.42C68.1837 82.5933 67.8737 82.7433 67.4804 82.87C67.0937 82.99 66.6771 83.05 66.2304 83.05C65.3304 83.05 64.6704 82.8033 64.2504 82.31C63.8304 81.8167 63.6204 81.14 63.6204 80.28C63.6204 79.3667 63.8571 78.6767 64.3304 78.21C64.8037 77.7367 65.4704 77.5 66.3304 77.5C66.6104 77.5 66.8871 77.5367 67.1604 77.61C67.4337 77.6767 67.6771 77.7933 67.8904 77.96C68.1037 78.12 68.2737 78.34 68.4004 78.62C68.5337 78.8933 68.6004 79.2333 68.6004 79.64C68.6004 79.78 68.5904 79.9333 68.5704 80.1C68.5571 80.2667 68.5304 80.44 68.4904 80.62H64.9904C65.0237 81.0733 65.1537 81.41 65.3804 81.63C65.6137 81.8433 65.9904 81.95 66.5104 81.95C66.8237 81.95 67.1037 81.9067 67.3504 81.82C67.6037 81.7267 67.7971 81.6333 67.9304 81.54L68.4104 82.42ZM66.3104 78.6C65.8971 78.6 65.5904 78.7133 65.3904 78.94C65.1904 79.16 65.0737 79.4433 65.0404 79.79H67.3004C67.3271 79.4233 67.2604 79.1333 67.1004 78.92C66.9404 78.7067 66.6771 78.6 66.3104 78.6ZM73.3979 82.9V80.02C73.3979 79.5667 73.3279 79.24 73.1879 79.04C73.0479 78.84 72.8012 78.74 72.4479 78.74C72.1479 78.74 71.8912 78.8233 71.6779 78.99C71.4712 79.15 71.3279 79.3567 71.2479 79.61C71.2479 80.1567 71.2479 80.7067 71.2479 81.26C71.2546 81.8067 71.2579 82.3533 71.2579 82.9H69.8579V77.65H70.9579L71.1079 78.4H71.2579C71.4312 78.1533 71.6612 77.9433 71.9479 77.77C72.2346 77.59 72.6079 77.5 73.0679 77.5C73.3479 77.5 73.5946 77.5367 73.8079 77.61C74.0279 77.6767 74.2079 77.7967 74.3479 77.97C74.4946 78.1367 74.6046 78.3633 74.6779 78.65C74.7579 78.9367 74.7979 79.2967 74.7979 79.73V82.9H73.3979ZM75.5948 77.65H76.3948V76.93L77.7948 76.56V77.65H79.2048V78.82H77.7948V80.64C77.7948 81.06 77.8348 81.3633 77.9148 81.55C78.0015 81.73 78.1682 81.82 78.4148 81.82C78.5682 81.82 78.6982 81.81 78.8048 81.79C78.9115 81.7633 79.0248 81.7233 79.1448 81.67L79.4348 82.72C79.2215 82.8133 78.9748 82.8933 78.6948 82.96C78.4215 83.0267 78.1548 83.06 77.8948 83.06C77.3748 83.06 76.9948 82.9333 76.7548 82.68C76.5148 82.42 76.3948 82.0067 76.3948 81.44V78.82H75.5948V77.65ZM79.9192 80.28C79.9192 79.4133 80.1492 78.7333 80.6092 78.24C81.0692 77.7467 81.7259 77.5 82.5792 77.5C83.0259 77.5 83.4159 77.57 83.7492 77.71C84.0826 77.85 84.3592 78.0467 84.5792 78.3C84.7992 78.5467 84.9626 78.84 85.0692 79.18C85.1826 79.5133 85.2392 79.88 85.2392 80.28C85.2392 80.7067 85.1792 81.0933 85.0592 81.44C84.9392 81.78 84.7659 82.07 84.5392 82.31C84.3126 82.55 84.0326 82.7333 83.6992 82.86C83.3726 82.9867 82.9992 83.05 82.5792 83.05C82.1259 83.05 81.7326 82.98 81.3992 82.84C81.0659 82.7 80.7892 82.5067 80.5692 82.26C80.3492 82.0067 80.1859 81.7133 80.0792 81.38C79.9726 81.04 79.9192 80.6733 79.9192 80.28ZM81.3592 80.28C81.3592 80.5 81.3826 80.7067 81.4292 80.9C81.4759 81.0933 81.5459 81.2633 81.6392 81.41C81.7392 81.55 81.8659 81.6633 82.0192 81.75C82.1726 81.8367 82.3592 81.88 82.5792 81.88C83.3926 81.88 83.7992 81.3467 83.7992 80.28C83.7992 80.0467 83.7759 79.8333 83.7292 79.64C83.6892 79.44 83.6192 79.27 83.5192 79.13C83.4259 78.9833 83.2992 78.87 83.1392 78.79C82.9859 78.71 82.7992 78.67 82.5792 78.67C82.1992 78.67 81.8992 78.7967 81.6792 79.05C81.4659 79.3033 81.3592 79.7133 81.3592 80.28Z" fill="white"/>
<defs>
<filter id="filter0_d" x="0" y="0" width="98" height="98" filterUnits="userSpaceOnUse" color-interpolation-filters="sRGB">
<feFlood flood-opacity="0" result="BackgroundImageFix"/>
<feColorMatrix in="SourceAlpha" type="matrix" values="0 0 0 0 0 0 0 0 0 0 0 0 0 0 0 0 0 0 127 0"/>
<feOffset dy="4"/>
<feGaussianBlur stdDeviation="2"/>
<feColorMatrix type="matrix" values="0 0 0 0 0 0 0 0 0 0 0 0 0 0 0 0 0 0 0.25 0"/>
<feBlend mode="normal" in2="BackgroundImageFix" result="effect1_dropShadow"/>
<feBlend mode="normal" in="SourceGraphic" in2="effect1_dropShadow" result="shape"/>
</filter>
<clipPath id="clip0">
<rect width="63" height="63.9" fill="white" transform="translate(17.5 5.4)"/>
</clipPath>
</defs>
</svg>
