<svg width="88" height="88" viewBox="0 0 88 88" fill="none" xmlns="http://www.w3.org/2000/svg">
<g filter="url(#filter0_d)">
<path d="M64 0H24C12.9543 0 4 8.9543 4 20V60C4 71.0457 12.9543 80 24 80H64C75.0457 80 84 71.0457 84 60V20C84 8.9543 75.0457 0 64 0Z" fill="#31493C"/>
</g>
<g clip-path="url(#clip0)">
<path d="M69.6641 48.6641C68.3269 47.3079 66.5458 46.5375 64.7036 46.4555L62.5843 44.3059C63.7951 42.2952 64.6814 40.1265 65.2261 37.842H70.7072V27.0989H65.2261C64.6815 24.8146 63.7952 22.646 62.5843 20.6352L66.4615 16.7026L58.9721 9.10614L55.0949 13.0386C53.1124 11.8108 50.9743 10.9119 48.722 10.3594V4.8H38.1303V10.3594C35.8781 10.9117 33.7399 11.8109 31.7576 13.0389L27.8803 9.10636L20.3908 16.7028L24.268 20.6354C23.0572 22.6461 22.1708 24.8148 21.6262 27.0991H16.145V37.8423H21.6262C22.1708 40.1268 23.0573 42.2955 24.268 44.3061L20.3908 48.2387L27.8803 55.8351L31.7576 51.9027C33.7399 53.1306 35.8781 54.0297 38.1303 54.5821V60.1416H48.722V54.5821C50.9743 54.0298 53.1124 53.1306 55.0947 51.9027L56.9226 53.7566C56.8575 55.8234 57.6251 57.8804 59.1017 59.3779C60.533 60.8296 62.4375 61.6 64.3797 61.6C65.3292 61.6 66.2878 61.4158 67.2044 61.037L68.3478 60.5644L63.4757 55.6228L64.006 53.6388L65.9619 53.1009L70.8341 58.0426L71.3 56.8828C72.4372 54.0514 71.795 50.8256 69.6641 48.6641ZM54.7634 50.148C52.6081 51.5731 50.2429 52.5676 47.733 53.1038L47.0821 53.2428V58.4782H39.7698V53.2428L39.1189 53.1038C36.6093 52.5676 34.2439 51.5731 32.0885 50.148L31.5313 49.7797L27.8799 53.4831L22.7095 48.2385L26.3607 44.535L25.9975 43.9699C24.5925 41.7839 23.612 39.3847 23.0833 36.839L22.9463 36.1788H17.7849V28.762H22.9464L23.0834 28.1018C23.612 25.5564 24.5925 23.1573 25.9976 20.971L26.3608 20.4059L22.7096 16.7023L27.8802 11.4579L31.5316 15.1615L32.0888 14.7932C34.2441 13.368 36.6095 12.3736 39.1193 11.8374L39.7702 11.6984V6.46328H47.0824V11.6986L47.7333 11.8376C50.243 12.3738 52.6084 13.3683 54.7638 14.7934L55.3209 15.1617L58.9723 11.4583L64.1429 16.7028L60.4915 20.4063L60.8547 20.9714C62.2599 23.1578 63.2403 25.5569 63.7689 28.1022L63.906 28.7624H69.0676V36.1792H63.906L63.7689 36.8394C63.2404 39.3849 62.2599 41.7842 60.8547 43.9703L60.6276 44.3235L53.7972 37.3953L53.0762 36.664C53.638 35.3396 53.9224 33.932 53.9224 32.471C53.9224 26.6009 49.2139 21.8251 43.4264 21.8251C37.639 21.8251 32.9305 26.6008 32.9305 32.471C32.9305 38.3412 37.639 43.1169 43.4264 43.1169C44.8615 43.1169 46.2448 42.8304 47.5467 42.2646L54.9885 49.8132L55.0999 49.9261L54.7634 50.148ZM49.5093 27.6534C47.3785 25.4919 44.1979 24.8404 41.4066 25.9941L40.2631 26.4667L45.1353 31.4084L44.605 33.3923L42.649 33.9302L37.7769 28.9885L37.311 30.1482C36.1738 32.9793 36.816 36.2053 38.9468 38.3668C40.7251 40.1705 43.2883 40.938 45.7364 40.4282L46.2777 40.9772C45.3653 41.293 44.4105 41.4534 43.4262 41.4534C38.543 41.4534 34.5701 37.4237 34.5701 32.4707C34.5701 27.5176 38.543 23.4879 43.4262 23.4879C48.3095 23.4879 52.2824 27.5176 52.2824 32.4707C52.2824 33.4745 52.1227 34.4477 51.808 35.3777L51.4354 34.9997C52.1275 32.4027 51.3988 29.5697 49.5093 27.6534ZM70.1365 54.9828L66.4497 51.2434L62.6695 52.2831L61.6444 56.1173L65.3312 59.8568C63.5018 60.164 61.6115 59.5714 60.2611 58.2017C59.012 56.9348 58.4137 55.1547 58.5877 53.4079C58.5946 53.34 58.6023 53.2723 58.6115 53.2047C58.616 53.1711 58.6202 53.1374 58.6254 53.104C58.6403 53.0065 58.6577 52.9097 58.6774 52.8133C58.6823 52.7894 58.6873 52.7654 58.6925 52.7414C58.7146 52.6397 58.7389 52.5384 58.7662 52.4383C58.7707 52.4217 58.7756 52.4053 58.7802 52.3888C58.8074 52.2925 58.8369 52.1972 58.8687 52.1026C58.9801 51.8655 59.6063 50.5833 60.5234 49.6532L59.3641 48.4771C58.7467 49.1034 58.2501 49.8367 57.905 50.4193L52.5141 44.9511L47.8853 40.2559H47.8852L46.2349 38.5819L45.7752 38.7096C43.7557 39.2716 41.5835 38.6893 40.1062 37.191C38.7558 35.8212 38.1714 33.9038 38.4744 32.0483L42.1612 35.7877L45.9414 34.7479L46.9665 30.9138L43.2796 27.1742C45.1091 26.8675 46.9995 27.4598 48.3498 28.8294C49.9213 30.4234 50.4639 32.8298 49.7323 34.9602L49.5894 35.3765C49.3535 35.7946 48.9794 36.3822 48.5167 36.8516L49.6762 38.0274C50.1081 37.5893 50.4692 37.0893 50.7452 36.6519L62.3758 48.4493L62.8354 48.3216C62.961 48.2867 63.0872 48.2562 63.2136 48.23C63.2359 48.2253 63.2585 48.2215 63.2809 48.2172C63.3215 48.2093 63.3619 48.2012 63.4024 48.1943C63.4367 48.1884 63.4712 48.1835 63.5055 48.1782C63.5346 48.1737 63.5637 48.1687 63.5928 48.1647C63.6261 48.1602 63.6594 48.1566 63.6926 48.1527C63.7235 48.1489 63.7546 48.1447 63.7855 48.1416C63.8088 48.1391 63.8322 48.1376 63.8556 48.1355C63.8973 48.1317 63.939 48.1276 63.9804 48.1248C63.9865 48.1244 63.9926 48.1242 63.9987 48.1238C65.6562 48.0146 67.3081 48.6268 68.5043 49.8403C69.8551 51.2099 70.4394 53.1273 70.1365 54.9828Z" fill="white"/>
<path d="M49.6063 39.4163L50.7985 40.6256L51.958 39.4496L50.7657 38.2403L49.6063 39.4163Z" fill="white"/>
<path d="M52.2275 42.076L56.1365 46.0409L57.2959 44.8649L53.3869 40.9001L52.2275 42.076Z" fill="white"/>
<path d="M47.4537 47.2108L47.8934 48.8131C48.5807 48.619 49.2616 48.3773 49.9175 48.0947L49.2765 46.5639C48.6858 46.8185 48.0726 47.0361 47.4537 47.2108Z" fill="white"/>
<path d="M43.4295 47.7656C35.175 47.7656 28.4594 40.9541 28.4594 32.5816C28.4594 31.7171 28.5316 30.8508 28.6738 30.0062L27.0575 29.7262C26.8997 30.6628 26.8197 31.6236 26.8197 32.5816C26.8197 41.8712 34.2708 49.4286 43.4294 49.4286C43.9677 49.4286 44.5111 49.4022 45.0441 49.3499L44.8866 47.6945C44.4057 47.7416 43.9155 47.7656 43.4295 47.7656Z" fill="white"/>
<path d="M33.0734 21.6173L31.9388 20.4165C31.4707 20.8716 31.0244 21.3592 30.612 21.8661L31.8768 22.9247C32.2486 22.4675 32.6512 22.0275 33.0734 21.6173Z" fill="white"/>
<path d="M43.4295 17.3976C45.189 17.3976 46.9114 17.7041 48.549 18.3085L49.1098 16.7456C47.2919 16.0745 45.3808 15.7344 43.4295 15.7344C39.7792 15.7344 36.3157 16.9126 33.413 19.1415L34.4027 20.4674C37.0181 18.4591 40.1396 17.3976 43.4295 17.3976Z" fill="white"/>
</g>
<path d="M15.495 70.641L15.639 69.336H15.585L15.153 70.326L13.695 72.675H13.281L11.733 70.317L11.31 69.345H11.256L11.445 70.632V73.8H10.185V67.5H11.391L13.209 70.407L13.551 71.1H13.596L13.893 70.389L15.63 67.5H16.827V73.8H15.495V70.641ZM18.0165 69.399C18.2865 69.279 18.6165 69.18 19.0065 69.102C19.4025 69.024 19.8105 68.985 20.2305 68.985C20.5605 68.985 20.8365 69.024 21.0585 69.102C21.2865 69.18 21.4665 69.294 21.5985 69.444C21.7305 69.588 21.8235 69.765 21.8775 69.975C21.9375 70.179 21.9675 70.407 21.9675 70.659C21.9675 70.965 21.9555 71.268 21.9315 71.568C21.9075 71.868 21.8955 72.186 21.8955 72.522C21.8955 72.75 21.9105 72.972 21.9405 73.188C21.9705 73.404 22.0185 73.611 22.0845 73.809H21.0585L20.8515 73.107H20.7435C20.5875 73.317 20.3895 73.497 20.1495 73.647C19.9095 73.797 19.6005 73.872 19.2225 73.872C18.9945 73.872 18.7845 73.839 18.5925 73.773C18.4065 73.707 18.2445 73.614 18.1065 73.494C17.9745 73.368 17.8695 73.221 17.7915 73.053C17.7195 72.885 17.6835 72.702 17.6835 72.504C17.6835 71.97 17.8605 71.568 18.2145 71.298C18.5745 71.022 19.1175 70.884 19.8435 70.884C20.0115 70.884 20.1795 70.899 20.3475 70.929C20.5155 70.953 20.6325 70.971 20.6985 70.983C20.7165 70.857 20.7255 70.749 20.7255 70.659C20.7255 70.431 20.6685 70.263 20.5545 70.155C20.4405 70.047 20.2275 69.993 19.9155 69.993C19.6275 69.993 19.3455 70.029 19.0695 70.101C18.7995 70.167 18.5595 70.251 18.3495 70.353L18.0165 69.399ZM19.6635 72.864C19.9455 72.864 20.1705 72.798 20.3385 72.666C20.5065 72.534 20.6295 72.396 20.7075 72.252V71.712C20.6775 71.7 20.6295 71.688 20.5635 71.676C20.5035 71.664 20.4345 71.652 20.3565 71.64C20.2845 71.628 20.2095 71.619 20.1315 71.613C20.0595 71.607 19.9935 71.604 19.9335 71.604C19.6095 71.604 19.3695 71.664 19.2135 71.784C19.0575 71.898 18.9795 72.042 18.9795 72.216C18.9795 72.432 19.0395 72.594 19.1595 72.702C19.2855 72.81 19.4535 72.864 19.6635 72.864ZM26.4594 73.8V71.208C26.4594 70.8 26.3964 70.506 26.2704 70.326C26.1444 70.146 25.9224 70.056 25.6044 70.056C25.3344 70.056 25.1034 70.131 24.9114 70.281C24.7254 70.425 24.5964 70.611 24.5244 70.839C24.5244 71.331 24.5244 71.826 24.5244 72.324C24.5304 72.816 24.5334 73.308 24.5334 73.8H23.2734V69.075H24.2634L24.3984 69.75H24.5334C24.6894 69.528 24.8964 69.339 25.1544 69.183C25.4124 69.021 25.7484 68.94 26.1624 68.94C26.4144 68.94 26.6364 68.973 26.8284 69.039C27.0264 69.099 27.1884 69.207 27.3144 69.363C27.4464 69.513 27.5454 69.717 27.6114 69.975C27.6834 70.233 27.7194 70.557 27.7194 70.947V73.8H26.4594ZM28.4366 69.075H29.1566V68.427L30.4166 68.094V69.075H31.6856V70.128H30.4166V71.766C30.4166 72.144 30.4526 72.417 30.5246 72.585C30.6026 72.747 30.7526 72.828 30.9746 72.828C31.1126 72.828 31.2296 72.819 31.3256 72.801C31.4216 72.777 31.5236 72.741 31.6316 72.693L31.8926 73.638C31.7006 73.722 31.4786 73.794 31.2266 73.854C30.9806 73.914 30.7406 73.944 30.5066 73.944C30.0386 73.944 29.6966 73.83 29.4806 73.602C29.2646 73.368 29.1566 72.996 29.1566 72.486V70.128H28.4366V69.075ZM36.6396 73.368C36.4356 73.524 36.1566 73.659 35.8026 73.773C35.4546 73.881 35.0796 73.935 34.6776 73.935C33.8676 73.935 33.2736 73.713 32.8956 73.269C32.5176 72.825 32.3286 72.216 32.3286 71.442C32.3286 70.62 32.5416 69.999 32.9676 69.579C33.3936 69.153 33.9936 68.94 34.7676 68.94C35.0196 68.94 35.2686 68.973 35.5146 69.039C35.7606 69.099 35.9796 69.204 36.1716 69.354C36.3636 69.498 36.5166 69.696 36.6306 69.948C36.7506 70.194 36.8106 70.5 36.8106 70.866C36.8106 70.992 36.8016 71.13 36.7836 71.28C36.7716 71.43 36.7476 71.586 36.7116 71.748H33.5616C33.5916 72.156 33.7086 72.459 33.9126 72.657C34.1226 72.849 34.4616 72.945 34.9296 72.945C35.2116 72.945 35.4636 72.906 35.6856 72.828C35.9136 72.744 36.0876 72.66 36.2076 72.576L36.6396 73.368ZM34.7496 69.93C34.3776 69.93 34.1016 70.032 33.9216 70.236C33.7416 70.434 33.6366 70.689 33.6066 71.001H35.6406C35.6646 70.671 35.6046 70.41 35.4606 70.218C35.3166 70.026 35.0796 69.93 34.7496 69.93ZM41.1283 73.8V71.208C41.1283 70.8 41.0653 70.506 40.9393 70.326C40.8133 70.146 40.5913 70.056 40.2733 70.056C40.0033 70.056 39.7723 70.131 39.5803 70.281C39.3943 70.425 39.2653 70.611 39.1933 70.839C39.1933 71.331 39.1933 71.826 39.1933 72.324C39.1993 72.816 39.2023 73.308 39.2023 73.8H37.9423V69.075H38.9323L39.0673 69.75H39.2023C39.3583 69.528 39.5653 69.339 39.8233 69.183C40.0813 69.021 40.4173 68.94 40.8313 68.94C41.0833 68.94 41.3053 68.973 41.4973 69.039C41.6953 69.099 41.8573 69.207 41.9833 69.363C42.1153 69.513 42.2143 69.717 42.2803 69.975C42.3523 70.233 42.3883 70.557 42.3883 70.947V73.8H41.1283ZM43.8346 69.075H45.0946V73.8H43.8346V69.075ZM43.6456 67.896C43.6456 67.704 43.7146 67.545 43.8526 67.419C43.9906 67.287 44.1856 67.221 44.4376 67.221C44.6956 67.221 44.8996 67.287 45.0496 67.419C45.1996 67.551 45.2746 67.71 45.2746 67.896C45.2746 68.07 45.1996 68.22 45.0496 68.346C44.8996 68.472 44.6956 68.535 44.4376 68.535C44.1856 68.535 43.9906 68.472 43.8526 68.346C43.7146 68.22 43.6456 68.07 43.6456 67.896ZM49.49 73.8V71.334C49.49 70.878 49.442 70.551 49.346 70.353C49.25 70.155 49.052 70.056 48.752 70.056C48.5 70.056 48.299 70.119 48.149 70.245C47.999 70.365 47.882 70.524 47.798 70.722V73.8H46.538V69.075H47.51L47.654 69.732H47.771C47.849 69.63 47.939 69.531 48.041 69.435C48.143 69.339 48.254 69.255 48.374 69.183C48.5 69.111 48.638 69.054 48.788 69.012C48.944 68.964 49.118 68.94 49.31 68.94C49.628 68.94 49.892 69.012 50.102 69.156C50.318 69.294 50.489 69.528 50.615 69.858C50.789 69.57 50.999 69.345 51.245 69.183C51.497 69.021 51.788 68.94 52.118 68.94C52.406 68.94 52.649 68.973 52.847 69.039C53.051 69.105 53.216 69.219 53.342 69.381C53.468 69.543 53.558 69.762 53.612 70.038C53.672 70.314 53.702 70.659 53.702 71.073V73.8H52.442V71.271C52.442 71.073 52.433 70.899 52.415 70.749C52.397 70.599 52.361 70.473 52.307 70.371C52.253 70.263 52.175 70.185 52.073 70.137C51.977 70.083 51.848 70.056 51.686 70.056C51.434 70.056 51.23 70.122 51.074 70.254C50.924 70.38 50.816 70.557 50.75 70.785V73.8H49.49ZM55.1549 69.075H56.4149V73.8H55.1549V69.075ZM54.9659 67.896C54.9659 67.704 55.0349 67.545 55.1729 67.419C55.3109 67.287 55.5059 67.221 55.7579 67.221C56.0159 67.221 56.2199 67.287 56.3699 67.419C56.5199 67.551 56.5949 67.71 56.5949 67.896C56.5949 68.07 56.5199 68.22 56.3699 68.346C56.2199 68.472 56.0159 68.535 55.7579 68.535C55.5059 68.535 55.3109 68.472 55.1729 68.346C55.0349 68.22 54.9659 68.07 54.9659 67.896ZM61.8994 73.368C61.6954 73.524 61.4164 73.659 61.0624 73.773C60.7144 73.881 60.3394 73.935 59.9374 73.935C59.1274 73.935 58.5334 73.713 58.1554 73.269C57.7774 72.825 57.5884 72.216 57.5884 71.442C57.5884 70.62 57.8014 69.999 58.2274 69.579C58.6534 69.153 59.2534 68.94 60.0274 68.94C60.2794 68.94 60.5284 68.973 60.7744 69.039C61.0204 69.099 61.2394 69.204 61.4314 69.354C61.6234 69.498 61.7764 69.696 61.8904 69.948C62.0104 70.194 62.0704 70.5 62.0704 70.866C62.0704 70.992 62.0614 71.13 62.0434 71.28C62.0314 71.43 62.0074 71.586 61.9714 71.748H58.8214C58.8514 72.156 58.9684 72.459 59.1724 72.657C59.3824 72.849 59.7214 72.945 60.1894 72.945C60.4714 72.945 60.7234 72.906 60.9454 72.828C61.1734 72.744 61.3474 72.66 61.4674 72.576L61.8994 73.368ZM60.0094 69.93C59.6374 69.93 59.3614 70.032 59.1814 70.236C59.0014 70.434 58.8964 70.689 58.8664 71.001H60.9004C60.9244 70.671 60.8644 70.41 60.7204 70.218C60.5764 70.026 60.3394 69.93 60.0094 69.93ZM66.3881 73.8V71.208C66.3881 70.8 66.3251 70.506 66.1991 70.326C66.0731 70.146 65.8511 70.056 65.5331 70.056C65.2631 70.056 65.0321 70.131 64.8401 70.281C64.6541 70.425 64.5251 70.611 64.4531 70.839C64.4531 71.331 64.4531 71.826 64.4531 72.324C64.4591 72.816 64.4621 73.308 64.4621 73.8H63.2021V69.075H64.1921L64.3271 69.75H64.4621C64.6181 69.528 64.8251 69.339 65.0831 69.183C65.3411 69.021 65.6771 68.94 66.0911 68.94C66.3431 68.94 66.5651 68.973 66.7571 69.039C66.9551 69.099 67.1171 69.207 67.2431 69.363C67.3751 69.513 67.4741 69.717 67.5401 69.975C67.6121 70.233 67.6481 70.557 67.6481 70.947V73.8H66.3881ZM68.3654 69.075H69.0854V68.427L70.3454 68.094V69.075H71.6144V70.128H70.3454V71.766C70.3454 72.144 70.3814 72.417 70.4534 72.585C70.5314 72.747 70.6814 72.828 70.9034 72.828C71.0414 72.828 71.1584 72.819 71.2544 72.801C71.3504 72.777 71.4524 72.741 71.5604 72.693L71.8214 73.638C71.6294 73.722 71.4074 73.794 71.1554 73.854C70.9094 73.914 70.6694 73.944 70.4354 73.944C69.9674 73.944 69.6254 73.83 69.4094 73.602C69.1934 73.368 69.0854 72.996 69.0854 72.486V70.128H68.3654V69.075ZM72.2573 71.442C72.2573 70.662 72.4643 70.05 72.8783 69.606C73.2923 69.162 73.8833 68.94 74.6513 68.94C75.0533 68.94 75.4043 69.003 75.7043 69.129C76.0043 69.255 76.2533 69.432 76.4513 69.66C76.6493 69.882 76.7963 70.146 76.8923 70.452C76.9943 70.752 77.0453 71.082 77.0453 71.442C77.0453 71.826 76.9913 72.174 76.8833 72.486C76.7753 72.792 76.6193 73.053 76.4153 73.269C76.2113 73.485 75.9593 73.65 75.6593 73.764C75.3653 73.878 75.0293 73.935 74.6513 73.935C74.2433 73.935 73.8893 73.872 73.5893 73.746C73.2893 73.62 73.0403 73.446 72.8423 73.224C72.6443 72.996 72.4973 72.732 72.4013 72.432C72.3053 72.126 72.2573 71.796 72.2573 71.442ZM73.5533 71.442C73.5533 71.64 73.5743 71.826 73.6163 72C73.6583 72.174 73.7213 72.327 73.8053 72.459C73.8953 72.585 74.0093 72.687 74.1473 72.765C74.2853 72.843 74.4533 72.882 74.6513 72.882C75.3833 72.882 75.7493 72.402 75.7493 71.442C75.7493 71.232 75.7283 71.04 75.6863 70.866C75.6503 70.686 75.5873 70.533 75.4973 70.407C75.4133 70.275 75.2993 70.173 75.1553 70.101C75.0173 70.029 74.8493 69.993 74.6513 69.993C74.3093 69.993 74.0393 70.107 73.8413 70.335C73.6493 70.563 73.5533 70.932 73.5533 71.442Z" fill="white"/>
<defs>
<filter id="filter0_d" x="0" y="0" width="88" height="88" filterUnits="userSpaceOnUse" color-interpolation-filters="sRGB">
<feFlood flood-opacity="0" result="BackgroundImageFix"/>
<feColorMatrix in="SourceAlpha" type="matrix" values="0 0 0 0 0 0 0 0 0 0 0 0 0 0 0 0 0 0 127 0"/>
<feOffset dy="4"/>
<feGaussianBlur stdDeviation="2"/>
<feColorMatrix type="matrix" values="0 0 0 0 0 0 0 0 0 0 0 0 0 0 0 0 0 0 0.25 0"/>
<feBlend mode="normal" in2="BackgroundImageFix" result="effect1_dropShadow"/>
<feBlend mode="normal" in="SourceGraphic" in2="effect1_dropShadow" result="shape"/>
</filter>
<clipPath id="clip0">
<rect width="56" height="56.8" fill="white" transform="translate(16 4.8)"/>
</clipPath>
</defs>
</svg>
