<svg width="98" height="98" viewBox="0 0 98 98" fill="none" xmlns="http://www.w3.org/2000/svg">
<g filter="url(#filter0_d)">
<path d="M74 0H24C12.9543 0 4 8.9543 4 20V70C4 81.0457 12.9543 90 24 90H74C85.0457 90 94 81.0457 94 70V20C94 8.95431 85.0457 0 74 0Z" fill="#001A23"/>
</g>
<path d="M13.715 79.377C14.045 79.3183 14.4117 79.2743 14.815 79.245C15.2183 79.2083 15.6217 79.19 16.025 79.19C16.4357 79.19 16.85 79.223 17.268 79.289C17.686 79.3477 18.06 79.4723 18.39 79.663C18.7273 79.8463 19.0023 80.1067 19.215 80.444C19.4277 80.774 19.534 81.214 19.534 81.764C19.534 82.248 19.4423 82.6623 19.259 83.007C19.0757 83.3443 18.83 83.6193 18.522 83.832C18.2213 84.0447 17.8767 84.2023 17.488 84.305C17.0993 84.4003 16.6997 84.448 16.289 84.448C16.2523 84.448 16.19 84.448 16.102 84.448C16.014 84.448 15.9187 84.448 15.816 84.448C15.7207 84.4407 15.629 84.4333 15.541 84.426C15.453 84.4187 15.387 84.4113 15.343 84.404V87H13.715V79.377ZM16.135 80.62C15.981 80.62 15.8307 80.6237 15.684 80.631C15.5447 80.6383 15.431 80.653 15.343 80.675V82.963C15.3723 82.9703 15.42 82.9777 15.486 82.985C15.552 82.9923 15.6217 82.9997 15.695 83.007C15.7683 83.007 15.8343 83.0107 15.893 83.018C15.959 83.018 16.0103 83.018 16.047 83.018C16.2597 83.018 16.4723 83.0033 16.685 82.974C16.8977 82.9447 17.0847 82.8823 17.246 82.787C17.4147 82.6917 17.5503 82.5633 17.653 82.402C17.7557 82.2333 17.807 82.0097 17.807 81.731C17.807 81.4963 17.7593 81.3093 17.664 81.17C17.5687 81.0233 17.4403 80.9097 17.279 80.829C17.125 80.7483 16.9453 80.6933 16.74 80.664C16.542 80.6347 16.3403 80.62 16.135 80.62ZM23.6688 82.633C23.4488 82.5597 23.2288 82.523 23.0088 82.523C22.6861 82.523 22.4185 82.6 22.2058 82.754C22.0005 82.908 21.8648 83.1023 21.7988 83.337V87H20.2588V81.225H21.4688L21.6338 82.028H21.7768C21.9235 81.7273 22.1178 81.4963 22.3598 81.335C22.6091 81.1737 22.8915 81.093 23.2068 81.093C23.4048 81.093 23.6321 81.1333 23.8888 81.214L23.6688 82.633ZM24.3975 84.118C24.3975 83.1647 24.6505 82.4167 25.1565 81.874C25.6625 81.3313 26.3849 81.06 27.3235 81.06C27.8149 81.06 28.2439 81.137 28.6105 81.291C28.9772 81.445 29.2815 81.6613 29.5235 81.94C29.7655 82.2113 29.9452 82.534 30.0625 82.908C30.1872 83.2747 30.2495 83.678 30.2495 84.118C30.2495 84.5873 30.1835 85.0127 30.0515 85.394C29.9195 85.768 29.7289 86.087 29.4795 86.351C29.2302 86.615 28.9222 86.8167 28.5555 86.956C28.1962 87.0953 27.7855 87.165 27.3235 87.165C26.8249 87.165 26.3922 87.088 26.0255 86.934C25.6589 86.78 25.3545 86.5673 25.1125 86.296C24.8705 86.0173 24.6909 85.6947 24.5735 85.328C24.4562 84.954 24.3975 84.5507 24.3975 84.118ZM25.9815 84.118C25.9815 84.36 26.0072 84.5873 26.0585 84.8C26.1099 85.0127 26.1869 85.1997 26.2895 85.361C26.3995 85.515 26.5389 85.6397 26.7075 85.735C26.8762 85.8303 27.0815 85.878 27.3235 85.878C28.2182 85.878 28.6655 85.2913 28.6655 84.118C28.6655 83.8613 28.6399 83.6267 28.5885 83.414C28.5445 83.194 28.4675 83.007 28.3575 82.853C28.2549 82.6917 28.1155 82.567 27.9395 82.479C27.7709 82.391 27.5655 82.347 27.3235 82.347C26.9055 82.347 26.5755 82.4863 26.3335 82.765C26.0989 83.0437 25.9815 83.4947 25.9815 84.118ZM33.3905 84.217L33.6215 85.108H33.7975L33.9625 84.195L35.0405 81.225H36.7015L34.0615 87.055H33.1815L30.4315 81.225H32.2245L33.3905 84.217ZM42.2134 86.472C41.9641 86.6627 41.6231 86.8277 41.1904 86.967C40.7651 87.099 40.3068 87.165 39.8154 87.165C38.8254 87.165 38.0994 86.8937 37.6374 86.351C37.1754 85.8083 36.9444 85.064 36.9444 84.118C36.9444 83.1133 37.2048 82.3543 37.7254 81.841C38.2461 81.3203 38.9794 81.06 39.9254 81.06C40.2334 81.06 40.5378 81.1003 40.8384 81.181C41.1391 81.2543 41.4068 81.3827 41.6414 81.566C41.8761 81.742 42.0631 81.984 42.2024 82.292C42.3491 82.5927 42.4224 82.9667 42.4224 83.414C42.4224 83.568 42.4114 83.7367 42.3894 83.92C42.3748 84.1033 42.3454 84.294 42.3014 84.492H38.4514C38.4881 84.9907 38.6311 85.361 38.8804 85.603C39.1371 85.8377 39.5514 85.955 40.1234 85.955C40.4681 85.955 40.7761 85.9073 41.0474 85.812C41.3261 85.7093 41.5388 85.6067 41.6854 85.504L42.2134 86.472ZM39.9034 82.27C39.4488 82.27 39.1114 82.3947 38.8914 82.644C38.6714 82.886 38.5431 83.1977 38.5064 83.579H40.9924C41.0218 83.1757 40.9484 82.8567 40.7724 82.622C40.5964 82.3873 40.3068 82.27 39.9034 82.27ZM48.6802 86.472C48.4309 86.6627 48.0899 86.8277 47.6572 86.967C47.2319 87.099 46.7736 87.165 46.2822 87.165C45.2922 87.165 44.5662 86.8937 44.1042 86.351C43.6422 85.8083 43.4112 85.064 43.4112 84.118C43.4112 83.1133 43.6716 82.3543 44.1922 81.841C44.7129 81.3203 45.4462 81.06 46.3922 81.06C46.7002 81.06 47.0046 81.1003 47.3052 81.181C47.6059 81.2543 47.8736 81.3827 48.1082 81.566C48.3429 81.742 48.5299 81.984 48.6692 82.292C48.8159 82.5927 48.8892 82.9667 48.8892 83.414C48.8892 83.568 48.8782 83.7367 48.8562 83.92C48.8416 84.1033 48.8122 84.294 48.7682 84.492H44.9182C44.9549 84.9907 45.0979 85.361 45.3472 85.603C45.6039 85.8377 46.0182 85.955 46.5902 85.955C46.9349 85.955 47.2429 85.9073 47.5142 85.812C47.7929 85.7093 48.0056 85.6067 48.1522 85.504L48.6802 86.472ZM46.3702 82.27C45.9156 82.27 45.5782 82.3947 45.3582 82.644C45.1382 82.886 45.0099 83.1977 44.9732 83.579H47.4592C47.4886 83.1757 47.4152 82.8567 47.2392 82.622C47.0632 82.3873 46.7736 82.27 46.3702 82.27ZM55.5305 84.976C55.5305 85.284 55.5341 85.603 55.5415 85.933C55.5488 86.263 55.5818 86.6223 55.6405 87.011H54.5735L54.3535 86.208H54.2105C54.0418 86.5013 53.7998 86.736 53.4845 86.912C53.1765 87.0807 52.8061 87.165 52.3735 87.165C51.6035 87.165 51.0058 86.9267 50.5805 86.45C50.1551 85.966 49.9425 85.2217 49.9425 84.217C49.9425 83.733 50.0011 83.2967 50.1185 82.908C50.2431 82.5193 50.4228 82.1893 50.6575 81.918C50.8995 81.6467 51.1965 81.4377 51.5485 81.291C51.9005 81.1443 52.3075 81.071 52.7695 81.071C53.0261 81.071 53.2461 81.093 53.4295 81.137C53.6201 81.1737 53.8071 81.2213 53.9905 81.28V79.3H55.5305V84.976ZM52.7695 85.878C53.1141 85.878 53.3818 85.801 53.5725 85.647C53.7631 85.4857 53.9025 85.2583 53.9905 84.965V82.655C53.8585 82.5523 53.7155 82.479 53.5615 82.435C53.4148 82.3837 53.2205 82.358 52.9785 82.358C52.4871 82.358 52.1205 82.501 51.8785 82.787C51.6438 83.073 51.5265 83.5643 51.5265 84.261C51.5265 84.745 51.6255 85.1373 51.8235 85.438C52.0288 85.7313 52.3441 85.878 52.7695 85.878ZM56.8497 84.118C56.8497 83.1647 57.1027 82.4167 57.6087 81.874C58.1147 81.3313 58.837 81.06 59.7757 81.06C60.267 81.06 60.696 81.137 61.0627 81.291C61.4294 81.445 61.7337 81.6613 61.9757 81.94C62.2177 82.2113 62.3974 82.534 62.5147 82.908C62.6394 83.2747 62.7017 83.678 62.7017 84.118C62.7017 84.5873 62.6357 85.0127 62.5037 85.394C62.3717 85.768 62.181 86.087 61.9317 86.351C61.6824 86.615 61.3744 86.8167 61.0077 86.956C60.6484 87.0953 60.2377 87.165 59.7757 87.165C59.277 87.165 58.8444 87.088 58.4777 86.934C58.111 86.78 57.8067 86.5673 57.5647 86.296C57.3227 86.0173 57.143 85.6947 57.0257 85.328C56.9084 84.954 56.8497 84.5507 56.8497 84.118ZM58.4337 84.118C58.4337 84.36 58.4594 84.5873 58.5107 84.8C58.562 85.0127 58.639 85.1997 58.7417 85.361C58.8517 85.515 58.991 85.6397 59.1597 85.735C59.3284 85.8303 59.5337 85.878 59.7757 85.878C60.6704 85.878 61.1177 85.2913 61.1177 84.118C61.1177 83.8613 61.092 83.6267 61.0407 83.414C60.9967 83.194 60.9197 83.007 60.8097 82.853C60.707 82.6917 60.5677 82.567 60.3917 82.479C60.223 82.391 60.0177 82.347 59.7757 82.347C59.3577 82.347 59.0277 82.4863 58.7857 82.765C58.551 83.0437 58.4337 83.4947 58.4337 84.118ZM67.368 82.633C67.148 82.5597 66.928 82.523 66.708 82.523C66.3853 82.523 66.1177 82.6 65.905 82.754C65.6997 82.908 65.564 83.1023 65.498 83.337V87H63.958V81.225H65.168L65.333 82.028H65.476C65.6227 81.7273 65.817 81.4963 66.059 81.335C66.3083 81.1737 66.5907 81.093 66.906 81.093C67.104 81.093 67.3313 81.1333 67.588 81.214L67.368 82.633ZM73.3658 86.472C73.1164 86.6627 72.7754 86.8277 72.3428 86.967C71.9174 87.099 71.4591 87.165 70.9678 87.165C69.9778 87.165 69.2518 86.8937 68.7898 86.351C68.3278 85.8083 68.0968 85.064 68.0968 84.118C68.0968 83.1133 68.3571 82.3543 68.8778 81.841C69.3984 81.3203 70.1318 81.06 71.0778 81.06C71.3858 81.06 71.6901 81.1003 71.9908 81.181C72.2914 81.2543 72.5591 81.3827 72.7938 81.566C73.0284 81.742 73.2154 81.984 73.3548 82.292C73.5014 82.5927 73.5748 82.9667 73.5748 83.414C73.5748 83.568 73.5638 83.7367 73.5418 83.92C73.5271 84.1033 73.4978 84.294 73.4538 84.492H69.6038C69.6404 84.9907 69.7834 85.361 70.0328 85.603C70.2894 85.8377 70.7038 85.955 71.2758 85.955C71.6204 85.955 71.9284 85.9073 72.1998 85.812C72.4784 85.7093 72.6911 85.6067 72.8378 85.504L73.3658 86.472ZM71.0558 82.27C70.6011 82.27 70.2638 82.3947 70.0438 82.644C69.8238 82.886 69.6954 83.1977 69.6588 83.579H72.1448C72.1741 83.1757 72.1008 82.8567 71.9248 82.622C71.7488 82.3873 71.4591 82.27 71.0558 82.27ZM74.947 85.504C75.0497 85.5553 75.167 85.6067 75.299 85.658C75.4383 85.7093 75.585 85.757 75.739 85.801C75.9003 85.845 76.0617 85.8817 76.223 85.911C76.3917 85.9403 76.5603 85.955 76.729 85.955C76.9857 85.955 77.1837 85.9147 77.323 85.834C77.4697 85.7533 77.543 85.603 77.543 85.383C77.543 85.207 77.4477 85.0787 77.257 84.998C77.0663 84.91 76.8317 84.8257 76.553 84.745C76.3477 84.6863 76.1313 84.6167 75.904 84.536C75.684 84.4553 75.4787 84.349 75.288 84.217C75.1047 84.0777 74.9507 83.898 74.826 83.678C74.7087 83.458 74.65 83.1793 74.65 82.842C74.65 82.2627 74.8297 81.8227 75.189 81.522C75.5483 81.214 76.0653 81.06 76.74 81.06C77.18 81.06 77.5907 81.1003 77.972 81.181C78.3607 81.2543 78.6723 81.3423 78.907 81.445L78.588 82.611C78.3973 82.5377 78.1517 82.4643 77.851 82.391C77.5577 82.3103 77.257 82.27 76.949 82.27C76.6923 82.27 76.5017 82.3103 76.377 82.391C76.2523 82.4643 76.19 82.5963 76.19 82.787C76.19 82.9557 76.2853 83.084 76.476 83.172C76.674 83.2527 76.9123 83.3333 77.191 83.414C77.3963 83.4727 77.609 83.5423 77.829 83.623C78.0563 83.6963 78.2617 83.799 78.445 83.931C78.6283 84.063 78.7787 84.2353 78.896 84.448C79.0207 84.6533 79.083 84.9137 79.083 85.229C79.083 85.845 78.8813 86.3217 78.478 86.659C78.082 86.9963 77.4843 87.165 76.685 87.165C76.2523 87.165 75.849 87.1247 75.475 87.044C75.101 86.9707 74.7967 86.8607 74.562 86.714L74.947 85.504Z" fill="white"/>
<path d="M50.0002 75.3516H82.3276V48.5662H50.0002V75.3516ZM62.9312 50.7983H69.3966V53.0304H62.9312V50.7983ZM52.1553 50.7983H60.776V55.2625H71.5518V50.7983H80.1725V73.1194H52.1553V50.7983Z" fill="white"/>
<path d="M75.8622 68.6552H78.0173V70.8873H75.8622V68.6552Z" fill="white"/>
<path d="M71.5518 68.6552H73.707V70.8873H71.5518V68.6552Z" fill="white"/>
<path d="M67.2415 68.6552H69.3967V70.8873H67.2415V68.6552Z" fill="white"/>
<path d="M80.1725 28.4772H78.0173V6.15606H50.0002V28.4772H47.845V6.15606H19.8279V28.4772H17.6727C16.4842 28.4772 15.5176 29.4783 15.5176 30.7093V32.9414C15.5176 34.1724 16.4842 35.1735 17.6727 35.1735H23.3441C23.1652 35.8889 23.0606 36.6333 23.0606 37.4056C23.0606 40.5083 24.5984 43.2437 26.9238 44.8442C20.3257 46.9535 15.5176 53.3262 15.5176 60.8428C15.5176 63.1252 16.8505 65.0861 18.7503 65.9499V75.3516H47.845V60.8428C47.845 53.3262 43.0369 46.9535 36.4388 44.8442C38.7642 43.2437 40.302 40.5083 40.302 37.4056C40.302 36.6333 40.1974 35.8889 40.0185 35.1735H80.1725C81.361 35.1735 82.3276 34.1724 82.3276 32.9414V30.7093C82.3276 29.4783 81.361 28.4772 80.1725 28.4772ZM60.776 8.38817H67.2415V10.6203H60.776V8.38817ZM52.1553 8.38817H58.6208V12.8524H69.3967V8.38817H75.8621V28.4772H69.3967V24.013H58.6208V28.4772H52.1553V8.38817ZM67.2415 28.4772H60.776V26.2451H67.2415V28.4772ZM30.6037 8.38817H37.0692V10.6203H30.6037V8.38817ZM21.9831 8.38817H28.4486V12.8524H39.2244V8.38817H45.6899V28.4772H39.2244V24.013H28.4486V28.4772H21.9831V8.38817ZM30.6037 28.4772V26.2451H37.0692V28.4772H30.6037ZM17.6727 32.9414V30.7093H25.9981C25.2977 31.3477 24.6986 32.101 24.2266 32.9414H17.6727ZM20.9055 66.4231H25.2158V73.1194H20.9055V66.4231ZM31.1425 58.6107H27.371V53.0304H34.914V58.6107H40.302V73.1194H27.371V66.4231H31.1425C33.2222 66.4231 34.914 64.6709 34.914 62.5169C34.914 60.3629 33.2222 58.6107 31.1425 58.6107ZM37.0692 54.6085L38.7783 56.3786H37.0692V54.6085ZM45.6899 60.8428V73.1194H42.4571V57.0326L36.4377 50.7983H25.2158V58.6107H21.9831V60.8428H31.1425C32.0337 60.8428 32.7589 61.5939 32.7589 62.5169C32.7589 63.4399 32.0337 64.191 31.1425 64.191H20.9055C19.1232 64.191 17.6727 62.6888 17.6727 60.8428C17.6727 52.8429 23.9572 46.3341 31.6813 46.3341C39.4054 46.3341 45.6899 52.8429 45.6899 60.8428ZM31.6813 44.102C28.1156 44.102 25.2158 41.0987 25.2158 37.4056C25.2158 33.7126 28.1156 30.7093 31.6813 30.7093C35.247 30.7093 38.1468 33.7126 38.1468 37.4056C38.1468 41.0987 35.247 44.102 31.6813 44.102ZM80.1725 32.9414H39.136C38.6651 32.101 38.0649 31.3477 37.3645 30.7093H80.1725V32.9414Z" fill="white"/>
<path d="M67.2415 64.191H78.0173V66.4231H67.2415V64.191Z" fill="white"/>
<defs>
<filter id="filter0_d" x="0" y="0" width="98" height="98" filterUnits="userSpaceOnUse" color-interpolation-filters="sRGB">
<feFlood flood-opacity="0" result="BackgroundImageFix"/>
<feColorMatrix in="SourceAlpha" type="matrix" values="0 0 0 0 0 0 0 0 0 0 0 0 0 0 0 0 0 0 127 0"/>
<feOffset dy="4"/>
<feGaussianBlur stdDeviation="2"/>
<feColorMatrix type="matrix" values="0 0 0 0 0 0 0 0 0 0 0 0 0 0 0 0 0 0 0.25 0"/>
<feBlend mode="normal" in2="BackgroundImageFix" result="effect1_dropShadow"/>
<feBlend mode="normal" in="SourceGraphic" in2="effect1_dropShadow" result="shape"/>
</filter>
</defs>
</svg>
