<svg xmlns="http://www.w3.org/2000/svg" width="88" height="88" fill="none" viewBox="0 0 88 88"><g filter="url(#filter0_d)"><path fill="#001A23" d="M64 0H24C12.9543 0 4 8.9543 4 20V60C4 71.0457 12.9543 80 24 80H64C75.0457 80 84 71.0457 84 60V20C84 8.9543 75.0457 0 64 0Z"/></g><path fill="#fff" d="M12.65 70.6256C12.95 70.5722 13.2833 70.5322 13.65 70.5056C14.0167 70.4722 14.3833 70.4556 14.75 70.4556C15.1233 70.4556 15.5 70.4856 15.88 70.5456C16.26 70.5989 16.6 70.7122 16.9 70.8856C17.2067 71.0522 17.4567 71.2889 17.65 71.5956C17.8433 71.8956 17.94 72.2956 17.94 72.7956C17.94 73.2356 17.8567 73.6122 17.69 73.9256C17.5233 74.2322 17.3 74.4822 17.02 74.6756C16.7467 74.8689 16.4333 75.0122 16.08 75.1056C15.7267 75.1922 15.3633 75.2356 14.99 75.2356C14.9567 75.2356 14.9 75.2356 14.82 75.2356C14.74 75.2356 14.6533 75.2356 14.56 75.2356C14.4733 75.2289 14.39 75.2222 14.31 75.2156C14.23 75.2089 14.17 75.2022 14.13 75.1956V77.5556H12.65V70.6256ZM14.85 71.7556C14.71 71.7556 14.5733 71.7589 14.44 71.7656C14.3133 71.7722 14.21 71.7856 14.13 71.8056V73.8856C14.1567 73.8922 14.2 73.8989 14.26 73.9056C14.32 73.9122 14.3833 73.9189 14.45 73.9256C14.5167 73.9256 14.5767 73.9289 14.63 73.9356C14.69 73.9356 14.7367 73.9356 14.77 73.9356C14.9633 73.9356 15.1567 73.9222 15.35 73.8956C15.5433 73.8689 15.7133 73.8122 15.86 73.7256C16.0133 73.6389 16.1367 73.5222 16.23 73.3756C16.3233 73.2222 16.37 73.0189 16.37 72.7656C16.37 72.5522 16.3267 72.3822 16.24 72.2556C16.1533 72.1222 16.0367 72.0189 15.89 71.9456C15.75 71.8722 15.5867 71.8222 15.4 71.7956C15.22 71.7689 15.0367 71.7556 14.85 71.7556ZM21.6989 73.5856C21.4989 73.5189 21.2989 73.4856 21.0989 73.4856C20.8056 73.4856 20.5622 73.5556 20.3689 73.6956C20.1822 73.8356 20.0589 74.0122 19.9989 74.2256V77.5556H18.5989V72.3056H19.6989L19.8489 73.0356H19.9789C20.1122 72.7622 20.2889 72.5522 20.5089 72.4056C20.7356 72.2589 20.9922 72.1856 21.2789 72.1856C21.4589 72.1856 21.6656 72.2222 21.8989 72.2956L21.6989 73.5856ZM22.3614 74.9356C22.3614 74.0689 22.5914 73.3889 23.0514 72.8956C23.5114 72.4022 24.1681 72.1556 25.0214 72.1556C25.4681 72.1556 25.8581 72.2256 26.1914 72.3656C26.5247 72.5056 26.8014 72.7022 27.0214 72.9556C27.2414 73.2022 27.4047 73.4956 27.5114 73.8356C27.6247 74.1689 27.6814 74.5356 27.6814 74.9356C27.6814 75.3622 27.6214 75.7489 27.5014 76.0956C27.3814 76.4356 27.2081 76.7256 26.9814 76.9656C26.7547 77.2056 26.4747 77.3889 26.1414 77.5156C25.8147 77.6422 25.4414 77.7056 25.0214 77.7056C24.5681 77.7056 24.1747 77.6356 23.8414 77.4956C23.5081 77.3556 23.2314 77.1622 23.0114 76.9156C22.7914 76.6622 22.6281 76.3689 22.5214 76.0356C22.4147 75.6956 22.3614 75.3289 22.3614 74.9356ZM23.8014 74.9356C23.8014 75.1556 23.8247 75.3622 23.8714 75.5556C23.9181 75.7489 23.9881 75.9189 24.0814 76.0656C24.1814 76.2056 24.3081 76.3189 24.4614 76.4056C24.6147 76.4922 24.8014 76.5356 25.0214 76.5356C25.8347 76.5356 26.2414 76.0022 26.2414 74.9356C26.2414 74.7022 26.2181 74.4889 26.1714 74.2956C26.1314 74.0956 26.0614 73.9256 25.9614 73.7856C25.8681 73.6389 25.7414 73.5256 25.5814 73.4456C25.4281 73.3656 25.2414 73.3256 25.0214 73.3256C24.6414 73.3256 24.3414 73.4522 24.1214 73.7056C23.9081 73.9589 23.8014 74.3689 23.8014 74.9356ZM30.5368 75.0256L30.7468 75.8356H30.9068L31.0568 75.0056L32.0368 72.3056H33.5468L31.1468 77.6056H30.3468L27.8468 72.3056H29.4768L30.5368 75.0256ZM38.5577 77.0756C38.331 77.2489 38.021 77.3989 37.6277 77.5256C37.241 77.6456 36.8243 77.7056 36.3777 77.7056C35.4777 77.7056 34.8177 77.4589 34.3977 76.9656C33.9777 76.4722 33.7677 75.7956 33.7677 74.9356C33.7677 74.0222 34.0043 73.3322 34.4777 72.8656C34.951 72.3922 35.6177 72.1556 36.4777 72.1556C36.7577 72.1556 37.0343 72.1922 37.3077 72.2656C37.581 72.3322 37.8243 72.4489 38.0377 72.6156C38.251 72.7756 38.421 72.9956 38.5477 73.2756C38.681 73.5489 38.7477 73.8889 38.7477 74.2956C38.7477 74.4356 38.7377 74.5889 38.7177 74.7556C38.7043 74.9222 38.6777 75.0956 38.6377 75.2756H35.1377C35.171 75.7289 35.301 76.0656 35.5277 76.2856C35.761 76.4989 36.1377 76.6056 36.6577 76.6056C36.971 76.6056 37.251 76.5622 37.4977 76.4756C37.751 76.3822 37.9443 76.2889 38.0777 76.1956L38.5577 77.0756ZM36.4577 73.2556C36.0443 73.2556 35.7377 73.3689 35.5377 73.5956C35.3377 73.8156 35.221 74.0989 35.1877 74.4456H37.4477C37.4743 74.0789 37.4077 73.7889 37.2477 73.5756C37.0877 73.3622 36.8243 73.2556 36.4577 73.2556ZM44.4366 77.0756C44.2099 77.2489 43.8999 77.3989 43.5066 77.5256C43.1199 77.6456 42.7032 77.7056 42.2566 77.7056C41.3566 77.7056 40.6966 77.4589 40.2766 76.9656C39.8566 76.4722 39.6466 75.7956 39.6466 74.9356C39.6466 74.0222 39.8832 73.3322 40.3566 72.8656C40.8299 72.3922 41.4966 72.1556 42.3566 72.1556C42.6366 72.1556 42.9132 72.1922 43.1866 72.2656C43.4599 72.3322 43.7032 72.4489 43.9166 72.6156C44.1299 72.7756 44.2999 72.9956 44.4266 73.2756C44.5599 73.5489 44.6266 73.8889 44.6266 74.2956C44.6266 74.4356 44.6166 74.5889 44.5966 74.7556C44.5832 74.9222 44.5566 75.0956 44.5166 75.2756H41.0166C41.0499 75.7289 41.1799 76.0656 41.4066 76.2856C41.6399 76.4989 42.0166 76.6056 42.5366 76.6056C42.8499 76.6056 43.1299 76.5622 43.3766 76.4756C43.6299 76.3822 43.8232 76.2889 43.9566 76.1956L44.4366 77.0756ZM42.3366 73.2556C41.9232 73.2556 41.6166 73.3689 41.4166 73.5956C41.2166 73.8156 41.0999 74.0989 41.0666 74.4456H43.3266C43.3532 74.0789 43.2866 73.7889 43.1266 73.5756C42.9666 73.3622 42.7032 73.2556 42.3366 73.2556ZM50.6641 75.7156C50.6641 75.9956 50.6674 76.2856 50.6741 76.5856C50.6807 76.8856 50.7107 77.2122 50.7641 77.5656H49.7941L49.5941 76.8356H49.4641C49.3107 77.1022 49.0907 77.3156 48.8041 77.4756C48.5241 77.6289 48.1874 77.7056 47.7941 77.7056C47.0941 77.7056 46.5507 77.4889 46.1641 77.0556C45.7774 76.6156 45.5841 75.9389 45.5841 75.0256C45.5841 74.5856 45.6374 74.1889 45.7441 73.8356C45.8574 73.4822 46.0207 73.1822 46.2341 72.9356C46.4541 72.6889 46.7241 72.4989 47.0441 72.3656C47.3641 72.2322 47.7341 72.1656 48.1541 72.1656C48.3874 72.1656 48.5874 72.1856 48.7541 72.2256C48.9274 72.2589 49.0974 72.3022 49.2641 72.3556V70.5556H50.6641V75.7156ZM48.1541 76.5356C48.4674 76.5356 48.7107 76.4656 48.8841 76.3256C49.0574 76.1789 49.1841 75.9722 49.2641 75.7056V73.6056C49.1441 73.5122 49.0141 73.4456 48.8741 73.4056C48.7407 73.3589 48.5641 73.3356 48.3441 73.3356C47.8974 73.3356 47.5641 73.4656 47.3441 73.7256C47.1307 73.9856 47.0241 74.4322 47.0241 75.0656C47.0241 75.5056 47.1141 75.8622 47.2941 76.1356C47.4807 76.4022 47.7674 76.5356 48.1541 76.5356ZM51.8634 74.9356C51.8634 74.0689 52.0934 73.3889 52.5534 72.8956C53.0134 72.4022 53.67 72.1556 54.5234 72.1556C54.97 72.1556 55.36 72.2256 55.6934 72.3656C56.0267 72.5056 56.3034 72.7022 56.5234 72.9556C56.7434 73.2022 56.9067 73.4956 57.0134 73.8356C57.1267 74.1689 57.1834 74.5356 57.1834 74.9356C57.1834 75.3622 57.1234 75.7489 57.0034 76.0956C56.8834 76.4356 56.71 76.7256 56.4834 76.9656C56.2567 77.2056 55.9767 77.3889 55.6434 77.5156C55.3167 77.6422 54.9434 77.7056 54.5234 77.7056C54.07 77.7056 53.6767 77.6356 53.3434 77.4956C53.01 77.3556 52.7334 77.1622 52.5134 76.9156C52.2934 76.6622 52.13 76.3689 52.0234 76.0356C51.9167 75.6956 51.8634 75.3289 51.8634 74.9356ZM53.3034 74.9356C53.3034 75.1556 53.3267 75.3622 53.3734 75.5556C53.42 75.7489 53.49 75.9189 53.5834 76.0656C53.6834 76.2056 53.81 76.3189 53.9634 76.4056C54.1167 76.4922 54.3034 76.5356 54.5234 76.5356C55.3367 76.5356 55.7434 76.0022 55.7434 74.9356C55.7434 74.7022 55.72 74.4889 55.6734 74.2956C55.6334 74.0956 55.5634 73.9256 55.4634 73.7856C55.37 73.6389 55.2434 73.5256 55.0834 73.4456C54.93 73.3656 54.7434 73.3256 54.5234 73.3256C54.1434 73.3256 53.8434 73.4522 53.6234 73.7056C53.41 73.9589 53.3034 74.3689 53.3034 74.9356ZM61.4255 73.5856C61.2255 73.5189 61.0255 73.4856 60.8255 73.4856C60.5321 73.4856 60.2888 73.5556 60.0955 73.6956C59.9088 73.8356 59.7855 74.0122 59.7255 74.2256V77.5556H58.3255V72.3056H59.4255L59.5755 73.0356H59.7055C59.8388 72.7622 60.0155 72.5522 60.2355 72.4056C60.4621 72.2589 60.7188 72.1856 61.0055 72.1856C61.1855 72.1856 61.3921 72.2222 61.6255 72.2956L61.4255 73.5856ZM66.878 77.0756C66.6513 77.2489 66.3413 77.3989 65.948 77.5256C65.5613 77.6456 65.1446 77.7056 64.698 77.7056C63.798 77.7056 63.138 77.4589 62.718 76.9656C62.298 76.4722 62.088 75.7956 62.088 74.9356C62.088 74.0222 62.3246 73.3322 62.798 72.8656C63.2713 72.3922 63.938 72.1556 64.798 72.1556C65.078 72.1556 65.3546 72.1922 65.628 72.2656C65.9013 72.3322 66.1446 72.4489 66.358 72.6156C66.5713 72.7756 66.7413 72.9956 66.868 73.2756C67.0013 73.5489 67.068 73.8889 67.068 74.2956C67.068 74.4356 67.058 74.5889 67.038 74.7556C67.0246 74.9222 66.998 75.0956 66.958 75.2756H63.458C63.4913 75.7289 63.6213 76.0656 63.848 76.2856C64.0813 76.4989 64.458 76.6056 64.978 76.6056C65.2913 76.6056 65.5713 76.5622 65.818 76.4756C66.0713 76.3822 66.2646 76.2889 66.398 76.1956L66.878 77.0756ZM64.778 73.2556C64.3646 73.2556 64.058 73.3689 63.858 73.5956C63.658 73.8156 63.5413 74.0989 63.508 74.4456H65.768C65.7946 74.0789 65.728 73.7889 65.568 73.5756C65.408 73.3622 65.1446 73.2556 64.778 73.2556ZM68.3155 76.1956C68.4088 76.2422 68.5155 76.2889 68.6355 76.3356C68.7621 76.3822 68.8955 76.4256 69.0355 76.4656C69.1821 76.5056 69.3288 76.5389 69.4755 76.5656C69.6288 76.5922 69.7821 76.6056 69.9355 76.6056C70.1688 76.6056 70.3488 76.5689 70.4755 76.4956C70.6088 76.4222 70.6755 76.2856 70.6755 76.0856C70.6755 75.9256 70.5888 75.8089 70.4155 75.7356C70.2421 75.6556 70.0288 75.5789 69.7755 75.5056C69.5888 75.4522 69.3921 75.3889 69.1855 75.3156C68.9855 75.2422 68.7988 75.1456 68.6255 75.0256C68.4588 74.8989 68.3188 74.7356 68.2055 74.5356C68.0988 74.3356 68.0455 74.0822 68.0455 73.7756C68.0455 73.2489 68.2088 72.8489 68.5355 72.5756C68.8621 72.2956 69.3321 72.1556 69.9455 72.1556C70.3455 72.1556 70.7188 72.1922 71.0655 72.2656C71.4188 72.3322 71.7021 72.4122 71.9155 72.5056L71.6255 73.5656C71.4521 73.4989 71.2288 73.4322 70.9555 73.3656C70.6888 73.2922 70.4155 73.2556 70.1355 73.2556C69.9021 73.2556 69.7288 73.2922 69.6155 73.3656C69.5021 73.4322 69.4455 73.5522 69.4455 73.7256C69.4455 73.8789 69.5321 73.9956 69.7055 74.0756C69.8855 74.1489 70.1021 74.2222 70.3555 74.2956C70.5421 74.3489 70.7355 74.4122 70.9355 74.4856C71.1421 74.5522 71.3288 74.6456 71.4955 74.7656C71.6621 74.8856 71.7988 75.0422 71.9055 75.2356C72.0188 75.4222 72.0755 75.6589 72.0755 75.9456C72.0755 76.5056 71.8921 76.9389 71.5255 77.2456C71.1655 77.5522 70.6221 77.7056 69.8955 77.7056C69.5021 77.7056 69.1355 77.6689 68.7955 77.5956C68.4555 77.5289 68.1788 77.4289 67.9655 77.2956L68.3155 76.1956Z"/><path fill="#fff" d="M44.8891 66.9792H73.6246V43.17H44.8891V66.9792ZM56.3833 45.1541H62.1304V47.1382H56.3833V45.1541ZM46.8048 45.1541H54.4676V49.1223H64.0461V45.1541H71.7089V64.9951H46.8048V45.1541Z"/><path fill="#fff" d="M67.8775 61.0269H69.7932V63.011H67.8775V61.0269Z"/><path fill="#fff" d="M64.0461 61.0269H65.9618V63.011H64.0461V61.0269Z"/><path fill="#fff" d="M60.2147 61.0269H62.1304V63.011H60.2147V61.0269Z"/><path fill="#fff" d="M71.7089 25.3131H69.7932V5.47205H44.8891V25.3131H42.9734V5.47205H18.0693V25.3131H16.1536C15.097 25.3131 14.2379 26.2029 14.2379 27.2972V29.2813C14.2379 30.3755 15.097 31.2654 16.1536 31.2654H21.1947C21.0357 31.9013 20.9428 32.563 20.9428 33.2495C20.9428 36.0074 22.3097 38.4389 24.3767 39.8615C18.5118 41.7364 14.2379 47.4011 14.2379 54.0825C14.2379 56.1113 15.4227 57.8543 17.1114 58.6221V66.9792H42.9734V54.0825C42.9734 47.4011 38.6994 41.7364 32.8345 39.8615C34.9016 38.4389 36.2684 36.0074 36.2684 33.2495C36.2684 32.563 36.1755 31.9013 36.0165 31.2654H71.7089C72.7654 31.2654 73.6246 30.3755 73.6246 29.2813V27.2972C73.6246 26.2029 72.7654 25.3131 71.7089 25.3131ZM54.4676 7.45615H60.2147V9.44025H54.4676V7.45615ZM46.8048 7.45615H52.5519V11.4244H62.1304V7.45615H67.8775V25.3131H62.1304V21.3449H52.5519V25.3131H46.8048V7.45615ZM60.2147 25.3131H54.4676V23.329H60.2147V25.3131ZM27.6478 7.45615H33.3949V9.44025H27.6478V7.45615ZM19.985 7.45615H25.7321V11.4244H35.3106V7.45615H41.0577V25.3131H35.3106V21.3449H25.7321V25.3131H19.985V7.45615ZM27.6478 25.3131V23.329H33.3949V25.3131H27.6478ZM16.1536 29.2813V27.2972H23.5539C22.9313 27.8646 22.3987 28.5342 21.9792 29.2813H16.1536ZM19.0271 59.0428H22.8585V64.9951H19.0271V59.0428ZM28.1267 52.0984H24.7742V47.1382H31.4792V52.0984H36.2684V64.9951H24.7742V59.0428H28.1267C29.9753 59.0428 31.4792 57.4852 31.4792 55.5706C31.4792 53.6559 29.9753 52.0984 28.1267 52.0984ZM33.3949 48.5409L34.914 50.1143H33.3949V48.5409ZM41.0577 54.0825V64.9951H38.1841V50.6956L32.8336 45.1541H22.8585V52.0984H19.985V54.0825H28.1267C28.9188 54.0825 29.5635 54.7502 29.5635 55.5706C29.5635 56.391 28.9188 57.0587 28.1267 57.0587H19.0271C17.4428 57.0587 16.1536 55.7234 16.1536 54.0825C16.1536 46.9715 21.7397 41.1859 28.6056 41.1859C35.4715 41.1859 41.0577 46.9715 41.0577 54.0825ZM28.6056 39.2018C25.4361 39.2018 22.8585 36.5322 22.8585 33.2495C22.8585 29.9668 25.4361 27.2972 28.6056 27.2972C31.7751 27.2972 34.3527 29.9668 34.3527 33.2495C34.3527 36.5322 31.7751 39.2018 28.6056 39.2018ZM71.7089 29.2813H35.232C34.8134 28.5342 34.2799 27.8646 33.6573 27.2972H71.7089V29.2813Z"/><path fill="#fff" d="M60.2147 57.0587H69.7932V59.0428H60.2147V57.0587Z"/><defs><filter id="filter0_d" width="88" height="88" x="0" y="0" color-interpolation-filters="sRGB" filterUnits="userSpaceOnUse"><feFlood flood-opacity="0" result="BackgroundImageFix"/><feColorMatrix in="SourceAlpha" type="matrix" values="0 0 0 0 0 0 0 0 0 0 0 0 0 0 0 0 0 0 127 0"/><feOffset dy="4"/><feGaussianBlur stdDeviation="2"/><feColorMatrix type="matrix" values="0 0 0 0 0 0 0 0 0 0 0 0 0 0 0 0 0 0 0.25 0"/><feBlend in2="BackgroundImageFix" mode="normal" result="effect1_dropShadow"/><feBlend in="SourceGraphic" in2="effect1_dropShadow" mode="normal" result="shape"/></filter></defs></svg>