<svg width="88" height="88" viewBox="0 0 88 88" fill="none" xmlns="http://www.w3.org/2000/svg">
<g filter="url(#filter0_d)">
<path d="M59 0H29C15.1929 0 4 11.1929 4 25V55C4 68.8071 15.1929 80 29 80H59C72.8071 80 84 68.8071 84 55V25C84 11.1929 72.8071 0 59 0Z" fill="#D16014"/>
</g>
<path d="M73.4764 31.7461H65.3027V29.6296H72.4547C73.0187 29.6296 73.4764 29.1559 73.4764 28.5714V16.9312C73.4764 16.3468 73.0187 15.873 72.4547 15.873H56.1073C55.543 15.873 55.0856 16.3468 55.0856 16.9312V28.5714C55.0856 29.1559 55.543 29.6296 56.1073 29.6296H63.2593V31.7461H52.9921C52.7806 28.888 51.2858 26.2984 48.9553 24.7524V12.6984C48.9553 7.43854 44.8384 3.17462 39.7599 3.17462C34.6815 3.17462 30.5645 7.43854 30.5645 12.6984V24.7524C28.234 26.2984 26.7392 28.888 26.5277 31.7461H24.4342V29.6296C24.4342 29.0452 23.9768 28.5714 23.4125 28.5714H23.2664V28.0423C23.2638 26.2614 22.0377 24.7346 20.3474 24.4074V24.3386C20.3474 23.7542 19.8899 23.2804 19.3257 23.2804C18.7614 23.2804 18.304 23.7542 18.304 24.3386V24.4074C16.6136 24.7346 15.3876 26.2614 15.3849 28.0423V28.5714H15.2388C14.6746 28.5714 14.2171 29.0452 14.2171 29.6296V31.7461C13.6529 31.7461 13.1954 32.2198 13.1954 32.8043V37.0371C13.1954 37.6215 13.6529 38.0953 14.2171 38.0953H15.2388V65.6085C15.2388 66.1926 15.6963 66.6667 16.2605 66.6667H71.433C71.9969 66.6667 72.4547 66.1926 72.4547 65.6085V38.0953H73.4764C74.0404 38.0953 74.4981 37.6215 74.4981 37.0371V32.8043C74.4981 32.2198 74.0404 31.7461 73.4764 31.7461ZM57.129 27.5132V17.9894H71.433V27.5132H57.129ZM47.6271 26.3916C49.4984 27.5193 50.729 29.5135 50.9313 31.7461H40.7816V28.6328C41.6392 28.4082 42.4025 27.9001 42.9558 27.1852L44.3208 25.418C45.3491 25.4647 46.3575 25.7287 47.2838 26.1937C47.3845 26.2823 47.5013 26.3495 47.6271 26.3916ZM32.6079 12.6984C32.6079 8.60743 35.81 5.29102 39.7599 5.29102C43.7098 5.29102 46.9119 8.60743 46.9119 12.6984V23.7714C45.921 23.444 44.8868 23.2783 43.8467 23.2804C43.8263 23.2804 43.81 23.291 43.7906 23.2921C43.7212 23.2987 43.6526 23.3128 43.5862 23.3344C43.5227 23.3475 43.4608 23.3675 43.4013 23.3937C43.3494 23.4246 43.3003 23.4599 43.2542 23.4995C43.1933 23.5413 43.1372 23.5899 43.0866 23.6445C43.0743 23.6582 43.057 23.6656 43.0447 23.6804L41.3609 25.8625C40.6002 26.7782 39.2669 26.8821 38.3826 26.0942C38.3025 26.0229 38.2277 25.9454 38.1589 25.8625L36.471 23.6773C36.4588 23.6614 36.4404 23.655 36.4281 23.6402C36.3795 23.5881 36.3257 23.5413 36.2677 23.5005C36.2185 23.4608 36.1663 23.4254 36.1114 23.3947C36.0554 23.371 35.9977 23.3523 35.9387 23.3386C35.8696 23.3159 35.7983 23.3011 35.7262 23.2942C35.7078 23.2942 35.6914 23.2836 35.6731 23.2836C34.633 23.2815 33.5988 23.4472 32.6079 23.7746V12.6984ZM31.8927 26.3916C32.0204 26.3501 32.1388 26.283 32.2411 26.1937C33.1674 25.7286 34.1758 25.4647 35.2041 25.418L36.5691 27.1852C37.1211 27.8989 37.8825 28.4071 38.7382 28.6328V31.7461H28.5885C28.7908 29.5135 30.0214 27.5193 31.8927 26.3916ZM17.4284 28.0423C17.4284 27.1657 18.1145 26.455 18.9609 26.455H19.6904C20.5368 26.455 21.223 27.1657 21.223 28.0423V28.5714H17.4284V28.0423ZM16.2605 30.6879H22.3908V31.7461H16.2605V30.6879ZM70.4112 64.5503H17.2822V38.0953H70.4112V64.5503ZM72.4547 35.9789H15.2388V33.8625H72.4547V35.9789Z" fill="white"/>
<path d="M44.8685 11.6402C43.0621 11.6402 40.1543 11.1492 39.6526 10.109C39.4649 9.73151 39.0799 9.50421 38.6708 9.52911C38.2593 9.5569 37.9042 9.83824 37.7706 10.2423C37.3091 11.6413 36.0762 12.6119 34.6513 12.6984C34.0871 12.6984 33.6296 13.1722 33.6296 13.7566V17.1101C33.6336 20.615 36.3759 23.4552 39.7599 23.4593V23.4614C43.1437 23.4567 45.8857 20.6168 45.8902 17.1122V12.6984C45.8902 12.114 45.4327 11.6402 44.8685 11.6402ZM43.8468 17.1058C43.8468 19.4435 42.017 21.3386 39.7599 21.3386C37.5028 21.3386 35.6731 19.4435 35.6731 17.1058V14.7164C37.0394 14.4227 38.2341 13.5724 38.9885 12.3566C40.4797 13.2059 42.1455 13.6733 43.8468 13.7196V17.1058Z" fill="white"/>
<path d="M26.069 69.1784C26.1867 69.1581 26.3142 69.1403 26.4515 69.1251C26.5937 69.1048 26.7359 69.0895 26.8782 69.0794C27.0204 69.0692 27.1577 69.0616 27.2901 69.0565C27.4274 69.0514 27.5525 69.0489 27.6653 69.0489C27.9252 69.0489 28.1802 69.0717 28.4303 69.1175C28.6854 69.1632 28.911 69.2419 29.1071 69.3536C29.3082 69.4654 29.47 69.6203 29.5926 69.8184C29.7153 70.0114 29.7766 70.2552 29.7766 70.5498C29.7766 70.9867 29.6711 71.3473 29.4602 71.6317C29.2543 71.9111 28.9674 72.1016 28.5995 72.2032L28.9894 72.4394L30.2768 74.4584H29.0115L27.7315 72.3937L27.1577 72.3022V74.4584H26.069V69.1784ZM27.7389 70.0394C27.6261 70.0394 27.5157 70.0419 27.4078 70.047C27.3048 70.047 27.2215 70.0546 27.1577 70.0698V71.5403H27.6212C27.9301 71.5403 28.1729 71.4794 28.3494 71.3575C28.5309 71.2356 28.6216 71.0248 28.6216 70.7251C28.6216 70.5016 28.5456 70.3314 28.3936 70.2146C28.2415 70.0978 28.0233 70.0394 27.7389 70.0394ZM33.8416 74.0927C33.6748 74.2248 33.4468 74.339 33.1574 74.4356C32.873 74.527 32.5665 74.5727 32.2379 74.5727C31.5758 74.5727 31.0903 74.3848 30.7813 74.0089C30.4724 73.633 30.3179 73.1175 30.3179 72.4622C30.3179 71.7663 30.492 71.2406 30.8402 70.8851C31.1884 70.5244 31.6788 70.3441 32.3115 70.3441C32.5174 70.3441 32.721 70.3721 32.922 70.4279C33.1231 70.4787 33.3021 70.5676 33.459 70.6946C33.616 70.8165 33.741 70.9841 33.8342 71.1975C33.9323 71.4057 33.9813 71.6648 33.9813 71.9746C33.9813 72.0813 33.974 72.1981 33.9593 72.3251C33.9495 72.4521 33.9298 72.5841 33.9004 72.7213H31.3257C31.3502 73.0667 31.4459 73.3232 31.6126 73.4908C31.7843 73.6533 32.0613 73.7346 32.4439 73.7346C32.6744 73.7346 32.8803 73.7016 33.0618 73.6356C33.2482 73.5644 33.3904 73.4933 33.4885 73.4222L33.8416 74.0927ZM32.2967 71.1822C31.9927 71.1822 31.7671 71.2686 31.62 71.4413C31.4728 71.6089 31.387 71.8248 31.3625 72.0889H33.025C33.0446 71.8095 32.9956 71.5886 32.8779 71.426C32.7602 71.2635 32.5665 71.1822 32.2967 71.1822ZM37.7764 74.2146C37.6096 74.3314 37.4086 74.4203 37.1732 74.4813C36.9427 74.5422 36.7024 74.5727 36.4522 74.5727C36.1187 74.5727 35.8368 74.5219 35.6063 74.4203C35.3807 74.3187 35.1943 74.174 35.0472 73.986C34.905 73.7981 34.802 73.5771 34.7382 73.3232C34.6745 73.0641 34.6426 72.7771 34.6426 72.4622C34.6426 71.7968 34.7995 71.2787 35.1134 70.9079C35.4322 70.5321 35.8932 70.3441 36.4964 70.3441C36.7906 70.3441 37.0309 70.3695 37.2173 70.4203C37.4086 70.466 37.5778 70.527 37.7249 70.6032L37.4748 71.4565C37.3473 71.4006 37.2197 71.36 37.0922 71.3346C36.9696 71.3041 36.825 71.2889 36.6582 71.2889C36.3492 71.2889 36.1114 71.3829 35.9446 71.5708C35.7828 71.7537 35.7019 72.0508 35.7019 72.4622C35.7019 72.6248 35.7215 72.7771 35.7607 72.9194C35.8 73.0565 35.8613 73.1784 35.9446 73.2851C36.028 73.3917 36.1335 73.4756 36.261 73.5365C36.3885 73.5975 36.5381 73.6279 36.7097 73.6279C36.9157 73.6279 37.0775 73.6102 37.1952 73.5746C37.3178 73.534 37.4331 73.4806 37.541 73.4146L37.7764 74.2146ZM41.7008 74.0927C41.534 74.2248 41.306 74.339 41.0166 74.4356C40.7322 74.527 40.4257 74.5727 40.0971 74.5727C39.435 74.5727 38.9495 74.3848 38.6405 74.0089C38.3316 73.633 38.1771 73.1175 38.1771 72.4622C38.1771 71.7663 38.3512 71.2406 38.6994 70.8851C39.0476 70.5244 39.538 70.3441 40.1706 70.3441C40.3766 70.3441 40.5801 70.3721 40.7812 70.4279C40.9823 70.4787 41.1613 70.5676 41.3182 70.6946C41.4752 70.8165 41.6002 70.9841 41.6934 71.1975C41.7915 71.4057 41.8405 71.6648 41.8405 71.9746C41.8405 72.0813 41.8332 72.1981 41.8185 72.3251C41.8087 72.4521 41.789 72.5841 41.7596 72.7213H39.1849C39.2094 73.0667 39.305 73.3232 39.4718 73.4908C39.6434 73.6533 39.9205 73.7346 40.3031 73.7346C40.5336 73.7346 40.7395 73.7016 40.921 73.6356C41.1074 73.5644 41.2496 73.4933 41.3477 73.4222L41.7008 74.0927ZM40.1559 71.1822C39.8519 71.1822 39.6263 71.2686 39.4791 71.4413C39.332 71.6089 39.2462 71.8248 39.2217 72.0889H40.8842C40.9038 71.8095 40.8548 71.5886 40.7371 71.426C40.6194 71.2635 40.4257 71.1822 40.1559 71.1822ZM42.7656 70.4584H43.5012L43.6263 70.9536H43.7146C43.8666 70.7505 44.0431 70.5981 44.2442 70.4965C44.4453 70.3949 44.6807 70.3441 44.9504 70.3441C45.4703 70.3441 45.8601 70.5067 46.1201 70.8317C46.38 71.1517 46.51 71.6622 46.51 72.3632C46.51 72.6984 46.4683 73.0032 46.3849 73.2775C46.3015 73.5467 46.1789 73.7803 46.0171 73.9784C45.8552 74.1714 45.6542 74.3213 45.4139 74.4279C45.1785 74.5295 44.9063 74.5803 44.5973 74.5803C44.4306 74.5803 44.2859 74.5625 44.1633 74.527C44.0407 74.4965 43.9181 74.4533 43.7955 74.3975V75.9746H42.7656V70.4584ZM44.6341 71.2356C44.3987 71.2356 44.2172 71.2914 44.0897 71.4032C43.9622 71.5098 43.8641 71.6775 43.7955 71.906V73.4603C43.8788 73.5314 43.972 73.5873 44.075 73.6279C44.178 73.6686 44.308 73.6889 44.4649 73.6889C44.7984 73.6889 45.046 73.5822 45.2079 73.3689C45.3697 73.1505 45.4506 72.8051 45.4506 72.3327C45.4506 71.9924 45.3869 71.7257 45.2594 71.5327C45.1368 71.3346 44.9283 71.2356 44.6341 71.2356ZM50.2621 74.2146C50.0953 74.3314 49.8942 74.4203 49.6588 74.4813C49.4283 74.5422 49.188 74.5727 48.9379 74.5727C48.6044 74.5727 48.3224 74.5219 48.0919 74.4203C47.8663 74.3187 47.6799 74.174 47.5328 73.986C47.3906 73.7981 47.2876 73.5771 47.2239 73.3232C47.1601 73.0641 47.1282 72.7771 47.1282 72.4622C47.1282 71.7968 47.2852 71.2787 47.599 70.9079C47.9178 70.5321 48.3788 70.3441 48.982 70.3441C49.2763 70.3441 49.5166 70.3695 49.7029 70.4203C49.8942 70.466 50.0634 70.527 50.2106 70.6032L49.9604 71.4565C49.8329 71.4006 49.7054 71.36 49.5779 71.3346C49.4553 71.3041 49.3106 71.2889 49.1439 71.2889C48.8349 71.2889 48.597 71.3829 48.4303 71.5708C48.2685 71.7537 48.1875 72.0508 48.1875 72.4622C48.1875 72.6248 48.2072 72.7771 48.2464 72.9194C48.2856 73.0565 48.3469 73.1784 48.4303 73.2851C48.5137 73.3917 48.6191 73.4756 48.7466 73.5365C48.8741 73.5975 49.0237 73.6279 49.1954 73.6279C49.4013 73.6279 49.5632 73.6102 49.6809 73.5746C49.8035 73.534 49.9187 73.4806 50.0266 73.4146L50.2621 74.2146ZM51.1522 70.4584H52.1821V74.4584H51.1522V70.4584ZM50.9977 69.4603C50.9977 69.2978 51.0541 69.1632 51.1669 69.0565C51.2797 68.9448 51.4391 68.8889 51.6451 68.8889C51.8559 68.8889 52.0227 68.9448 52.1453 69.0565C52.2679 69.1683 52.3292 69.3029 52.3292 69.4603C52.3292 69.6076 52.2679 69.7346 52.1453 69.8413C52.0227 69.9479 51.8559 70.0013 51.6451 70.0013C51.4391 70.0013 51.2797 69.9479 51.1669 69.8413C51.0541 69.7346 50.9977 69.6076 50.9977 69.4603ZM53.1412 72.4622C53.1412 71.8019 53.3104 71.2838 53.6487 70.9079C53.9871 70.5321 54.4702 70.3441 55.0979 70.3441C55.4265 70.3441 55.7134 70.3975 55.9586 70.5041C56.2038 70.6108 56.4074 70.7606 56.5692 70.9536C56.731 71.1416 56.8512 71.3651 56.9297 71.6241C57.013 71.8781 57.0547 72.1575 57.0547 72.4622C57.0547 72.7873 57.0106 73.0819 56.9223 73.346C56.834 73.6051 56.7065 73.826 56.5398 74.0089C56.373 74.1917 56.1671 74.3314 55.9219 74.4279C55.6815 74.5245 55.4069 74.5727 55.0979 74.5727C54.7645 74.5727 54.4751 74.5194 54.2299 74.4127C53.9847 74.306 53.7812 74.1587 53.6193 73.9708C53.4575 73.7778 53.3373 73.5543 53.2589 73.3003C53.1804 73.0413 53.1412 72.7619 53.1412 72.4622ZM54.2005 72.4622C54.2005 72.6298 54.2176 72.7873 54.252 72.9346C54.2863 73.0819 54.3378 73.2114 54.4064 73.3232C54.48 73.4298 54.5732 73.5162 54.686 73.5822C54.7988 73.6483 54.9361 73.6813 55.0979 73.6813C55.6963 73.6813 55.9954 73.2749 55.9954 72.4622C55.9954 72.2844 55.9783 72.1219 55.9439 71.9746C55.9145 71.8222 55.863 71.6927 55.7894 71.586C55.7208 71.4743 55.6276 71.3879 55.5099 71.327C55.3971 71.266 55.2598 71.2356 55.0979 71.2356C54.8184 71.2356 54.5977 71.3321 54.4359 71.5251C54.2789 71.7181 54.2005 72.0305 54.2005 72.4622ZM55.2524 68.9041H56.297V69.1251L55.3701 70.1079H54.811L55.2524 68.9041ZM60.499 74.4584V72.2641C60.499 71.9187 60.4475 71.6698 60.3445 71.5175C60.2415 71.3651 60.0601 71.2889 59.8002 71.2889C59.5795 71.2889 59.3907 71.3524 59.2337 71.4794C59.0817 71.6013 58.9763 71.7587 58.9174 71.9517C58.9174 72.3683 58.9174 72.7873 58.9174 73.2089C58.9223 73.6254 58.9248 74.0419 58.9248 74.4584H57.8949V70.4584H58.7041L58.8144 71.0298H58.9248C59.0523 70.8419 59.2215 70.6819 59.4324 70.5498C59.6432 70.4127 59.9179 70.3441 60.2563 70.3441C60.4622 70.3441 60.6437 70.3721 60.8006 70.4279C60.9625 70.4787 61.0949 70.5702 61.1979 70.7022C61.3058 70.8292 61.3867 71.0019 61.4406 71.2203C61.4995 71.4387 61.5289 71.713 61.5289 72.0432V74.4584H60.499Z" fill="white"/>
<defs>
<filter id="filter0_d" x="0" y="0" width="88" height="88" filterUnits="userSpaceOnUse" color-interpolation-filters="sRGB">
<feFlood flood-opacity="0" result="BackgroundImageFix"/>
<feColorMatrix in="SourceAlpha" type="matrix" values="0 0 0 0 0 0 0 0 0 0 0 0 0 0 0 0 0 0 127 0"/>
<feOffset dy="4"/>
<feGaussianBlur stdDeviation="2"/>
<feColorMatrix type="matrix" values="0 0 0 0 0 0 0 0 0 0 0 0 0 0 0 0 0 0 0.25 0"/>
<feBlend mode="normal" in2="BackgroundImageFix" result="effect1_dropShadow"/>
<feBlend mode="normal" in="SourceGraphic" in2="effect1_dropShadow" result="shape"/>
</filter>
</defs>
</svg>
