<svg width="98" height="98" viewBox="0 0 98 98" fill="none" xmlns="http://www.w3.org/2000/svg">
<g filter="url(#filter0_d)">
<path d="M69 0H29C15.1929 0 4 11.1929 4 25V65C4 78.8071 15.1929 90 29 90H69C82.8071 90 94 78.8071 94 65V25C94 11.1929 82.8071 0 69 0Z" fill="#D16014"/>
</g>
<path d="M82.1609 35.7143H72.9655V33.3333H81.0115C81.646 33.3333 82.1609 32.8003 82.1609 32.1429V19.0476C82.1609 18.3902 81.646 17.8572 81.0115 17.8572H62.6207C61.9859 17.8572 61.4713 18.3902 61.4713 19.0476V32.1429C61.4713 32.8003 61.9859 33.3333 62.6207 33.3333H70.6667V35.7143H59.1161C58.8781 32.499 57.1965 29.5857 54.5747 27.8464V14.2857C54.5747 8.36835 49.9432 3.57144 44.2299 3.57144C38.5167 3.57144 33.885 8.36835 33.885 14.2857V27.8464C31.2632 29.5857 29.5816 32.499 29.3437 35.7143H26.9885V33.3333C26.9885 32.6759 26.4739 32.1429 25.8391 32.1429H25.6747V31.5476C25.6717 29.5441 24.2924 27.8264 22.3908 27.4583V27.381C22.3908 26.7235 21.8762 26.1905 21.2414 26.1905C20.6066 26.1905 20.0919 26.7235 20.0919 27.381V27.4583C18.1903 27.8264 16.811 29.5441 16.808 31.5476V32.1429H16.6437C16.0089 32.1429 15.4942 32.6759 15.4942 33.3333V35.7143C14.8595 35.7143 14.3448 36.2473 14.3448 36.9048V41.6667C14.3448 42.3241 14.8595 42.8572 15.4942 42.8572H16.6437V73.8095C16.6437 74.4667 17.1583 75 17.7931 75H79.8621C80.4965 75 81.0115 74.4667 81.0115 73.8095V42.8572H82.1609C82.7954 42.8572 83.3103 42.3241 83.3103 41.6667V36.9048C83.3103 36.2473 82.7954 35.7143 82.1609 35.7143ZM63.7701 30.9524V20.2381H79.8621V30.9524H63.7701ZM53.0805 29.6905C55.1857 30.9592 56.5701 33.2027 56.7977 35.7143H45.3793V32.2119C46.3441 31.9592 47.2028 31.3876 47.8253 30.5833L49.3609 28.5953C50.5178 28.6478 51.6522 28.9448 52.6942 29.4679C52.8076 29.5676 52.9389 29.6432 53.0805 29.6905ZM36.1839 14.2857C36.1839 9.68335 39.7862 5.95239 44.2299 5.95239C48.6736 5.95239 52.2759 9.68335 52.2759 14.2857V26.7429C51.1611 26.3745 49.9977 26.1881 48.8276 26.1905C48.8046 26.1905 48.7862 26.2024 48.7644 26.2036C48.6864 26.211 48.6092 26.2269 48.5345 26.2512C48.4631 26.266 48.3934 26.2884 48.3264 26.3179C48.2681 26.3527 48.2128 26.3924 48.1609 26.4369C48.0925 26.484 48.0293 26.5387 47.9724 26.6C47.9586 26.6155 47.9391 26.6238 47.9253 26.6405L46.031 29.0953C45.1752 30.1255 43.6752 30.2423 42.6804 29.356C42.5903 29.2757 42.5062 29.1886 42.4287 29.0953L40.5299 26.6369C40.5161 26.6191 40.4954 26.6119 40.4816 26.5953C40.4269 26.5366 40.3664 26.484 40.3011 26.4381C40.2458 26.3933 40.187 26.3536 40.1253 26.3191C40.0624 26.2923 39.9974 26.2713 39.931 26.256C39.8533 26.2304 39.7731 26.2137 39.6919 26.206C39.6713 26.206 39.6529 26.1941 39.6322 26.1941C38.4621 26.1917 37.2987 26.3781 36.1839 26.7464V14.2857ZM35.3793 29.6905C35.523 29.6439 35.6562 29.5683 35.7713 29.4679C36.8133 28.9447 37.9477 28.6478 39.1046 28.5953L40.6402 30.5833C41.2612 31.3863 42.1178 31.958 43.0804 32.2119V35.7143H31.6621C31.8896 33.2027 33.274 30.9592 35.3793 29.6905ZM19.1069 31.5476C19.1069 30.5614 19.8788 29.7619 20.831 29.7619H21.6517C22.6039 29.7619 23.3759 30.5614 23.3759 31.5476V32.1429H19.1069V31.5476ZM17.7931 34.5238H24.6896V35.7143H17.7931V34.5238ZM78.7126 72.6191H18.9425V42.8572H78.7126V72.6191ZM81.0115 40.4762H16.6437V38.0953H81.0115V40.4762Z" fill="white"/>
<path d="M49.977 13.0953C47.9448 13.0953 44.6735 12.5429 44.1092 11.3726C43.898 10.948 43.4649 10.6922 43.0046 10.7203C42.5417 10.7515 42.1422 11.068 41.9919 11.5226C41.4727 13.0964 40.0857 14.1884 38.4827 14.2857C37.8479 14.2857 37.3333 14.8188 37.3333 15.4762V19.2488C37.3378 23.1918 40.4228 26.3871 44.2299 26.3917V26.3941C48.0366 26.3888 51.1214 23.1939 51.1264 19.2512V14.2857C51.1264 13.6283 50.6118 13.0953 49.977 13.0953ZM48.8276 19.2441C48.8276 21.874 46.7691 24.006 44.2299 24.006C41.6906 24.006 39.6322 21.874 39.6322 19.2441V16.556C41.1693 16.2256 42.5133 15.2689 43.3621 13.9012C45.0397 14.8567 46.9136 15.3825 48.8276 15.4345V19.2441Z" fill="white"/>
<path d="M28.8276 77.8257C28.96 77.8029 29.1034 77.7829 29.2579 77.7657C29.4179 77.7429 29.5779 77.7257 29.7379 77.7143C29.8979 77.7029 30.0524 77.6943 30.2014 77.6886C30.3559 77.6829 30.4965 77.68 30.6234 77.68C30.9159 77.68 31.2027 77.7057 31.4841 77.7571C31.771 77.8086 32.0248 77.8971 32.2455 78.0229C32.4717 78.1486 32.6538 78.3229 32.7917 78.5457C32.9296 78.7629 32.9986 79.0371 32.9986 79.3686C32.9986 79.86 32.88 80.2657 32.6427 80.5857C32.411 80.9 32.0883 81.1143 31.6745 81.2286L32.1131 81.4943L33.5614 83.7657H32.1379L30.6979 81.4429L30.0524 81.34V83.7657H28.8276V77.8257ZM30.7062 78.7943C30.5793 78.7943 30.4552 78.7971 30.3338 78.8029C30.2179 78.8029 30.1241 78.8114 30.0524 78.8286V80.4829H30.5738C30.9214 80.4829 31.1945 80.4143 31.3931 80.2771C31.5972 80.14 31.6993 79.9029 31.6993 79.5657C31.6993 79.3143 31.6138 79.1229 31.4427 78.9914C31.2717 78.86 31.0262 78.7943 30.7062 78.7943ZM37.5718 83.3543C37.3842 83.5029 37.1276 83.6314 36.8021 83.74C36.4821 83.8429 36.1373 83.8943 35.7676 83.8943C35.0228 83.8943 34.4766 83.6829 34.129 83.26C33.7814 82.8371 33.6076 82.2571 33.6076 81.52C33.6076 80.7371 33.8035 80.1457 34.1952 79.7457C34.5869 79.34 35.1386 79.1371 35.8504 79.1371C36.0821 79.1371 36.3111 79.1686 36.5373 79.2314C36.7635 79.2886 36.9649 79.3886 37.1414 79.5314C37.318 79.6686 37.4586 79.8571 37.5635 80.0971C37.6738 80.3314 37.729 80.6229 37.729 80.9714C37.729 81.0914 37.7207 81.2229 37.7042 81.3657C37.6931 81.5086 37.6711 81.6571 37.638 81.8114H34.7414C34.769 82.2 34.8766 82.4886 35.0642 82.6771C35.2573 82.86 35.569 82.9514 35.9993 82.9514C36.2586 82.9514 36.4904 82.9143 36.6945 82.84C36.9042 82.76 37.0642 82.68 37.1745 82.6L37.5718 83.3543ZM35.8338 80.08C35.4918 80.08 35.238 80.1771 35.0724 80.3714C34.9069 80.56 34.8104 80.8029 34.7828 81.1H36.6531C36.6752 80.7857 36.62 80.5371 36.4876 80.3543C36.3552 80.1714 36.1373 80.08 35.8338 80.08ZM41.9984 83.4914C41.8108 83.6229 41.5846 83.7229 41.3198 83.7914C41.0605 83.86 40.7901 83.8943 40.5088 83.8943C40.1336 83.8943 39.8163 83.8371 39.557 83.7229C39.3032 83.6086 39.0936 83.4457 38.9281 83.2343C38.7681 83.0229 38.6522 82.7743 38.5805 82.4886C38.5088 82.1971 38.4729 81.8743 38.4729 81.52C38.4729 80.7714 38.6494 80.1886 39.0025 79.7714C39.3612 79.3486 39.8798 79.1371 40.5584 79.1371C40.8894 79.1371 41.1598 79.1657 41.3694 79.2229C41.5846 79.2743 41.775 79.3429 41.9405 79.4286L41.6591 80.3886C41.5156 80.3257 41.3722 80.28 41.2288 80.2514C41.0908 80.2171 40.9281 80.2 40.7405 80.2C40.3929 80.2 40.1253 80.3057 39.9377 80.5171C39.7556 80.7229 39.6646 81.0571 39.6646 81.52C39.6646 81.7029 39.6867 81.8743 39.7308 82.0343C39.775 82.1886 39.8439 82.3257 39.9377 82.4457C40.0315 82.5657 40.1501 82.66 40.2936 82.7286C40.437 82.7971 40.6053 82.8314 40.7984 82.8314C41.0301 82.8314 41.2122 82.8114 41.3446 82.7714C41.4825 82.7257 41.6122 82.6657 41.7336 82.5914L41.9984 83.4914ZM46.4133 83.3543C46.2258 83.5029 45.9692 83.6314 45.6437 83.74C45.3237 83.8429 44.9789 83.8943 44.6092 83.8943C43.8644 83.8943 43.3182 83.6829 42.9706 83.26C42.623 82.8371 42.4492 82.2571 42.4492 81.52C42.4492 80.7371 42.6451 80.1457 43.0368 79.7457C43.4285 79.34 43.9802 79.1371 44.692 79.1371C44.9237 79.1371 45.1527 79.1686 45.3789 79.2314C45.6051 79.2886 45.8064 79.3886 45.983 79.5314C46.1595 79.6686 46.3002 79.8571 46.4051 80.0971C46.5154 80.3314 46.5706 80.6229 46.5706 80.9714C46.5706 81.0914 46.5623 81.2229 46.5458 81.3657C46.5347 81.5086 46.5127 81.6571 46.4795 81.8114H43.583C43.6106 82.2 43.7182 82.4886 43.9058 82.6771C44.0989 82.86 44.4106 82.9514 44.8409 82.9514C45.1002 82.9514 45.332 82.9143 45.5361 82.84C45.7458 82.76 45.9058 82.68 46.0161 82.6L46.4133 83.3543ZM44.6754 80.08C44.3333 80.08 44.0795 80.1771 43.914 80.3714C43.7485 80.56 43.652 80.8029 43.6244 81.1H45.4947C45.5168 80.7857 45.4616 80.5371 45.3292 80.3543C45.1968 80.1714 44.9789 80.08 44.6754 80.08ZM47.6113 79.2657H48.4389L48.5795 79.8229H48.6789C48.8499 79.5943 49.0485 79.4229 49.2747 79.3086C49.5009 79.1943 49.7658 79.1371 50.0692 79.1371C50.654 79.1371 51.0927 79.32 51.3851 79.6857C51.6775 80.0457 51.8237 80.62 51.8237 81.4086C51.8237 81.7857 51.7768 82.1286 51.683 82.4371C51.5892 82.74 51.4513 83.0029 51.2692 83.2257C51.0871 83.4429 50.8609 83.6114 50.5906 83.7314C50.3258 83.8457 50.0195 83.9029 49.672 83.9029C49.4844 83.9029 49.3216 83.8829 49.1837 83.8429C49.0458 83.8086 48.9078 83.76 48.7699 83.6971V85.4714H47.6113V79.2657ZM49.7133 80.14C49.4485 80.14 49.2444 80.2029 49.1009 80.3286C48.9575 80.4486 48.8471 80.6371 48.7699 80.8943V82.6429C48.8637 82.7229 48.9685 82.7857 49.0844 82.8314C49.2002 82.8771 49.3464 82.9 49.523 82.9C49.8982 82.9 50.1768 82.78 50.3589 82.54C50.5409 82.2943 50.632 81.9057 50.632 81.3743C50.632 80.9914 50.5602 80.6914 50.4168 80.4743C50.2789 80.2514 50.0444 80.14 49.7133 80.14ZM56.0448 83.4914C55.8572 83.6229 55.631 83.7229 55.3661 83.7914C55.1068 83.86 54.8365 83.8943 54.5551 83.8943C54.1799 83.8943 53.8627 83.8371 53.6034 83.7229C53.3496 83.6086 53.1399 83.4457 52.9744 83.2343C52.8144 83.0229 52.6985 82.7743 52.6268 82.4886C52.5551 82.1971 52.5192 81.8743 52.5192 81.52C52.5192 80.7714 52.6958 80.1886 53.0489 79.7714C53.4075 79.3486 53.9261 79.1371 54.6048 79.1371C54.9358 79.1371 55.2061 79.1657 55.4158 79.2229C55.631 79.2743 55.8213 79.3429 55.9869 79.4286L55.7054 80.3886C55.562 80.3257 55.4185 80.28 55.2751 80.2514C55.1372 80.2171 54.9744 80.2 54.7868 80.2C54.4392 80.2 54.1717 80.3057 53.9841 80.5171C53.802 80.7229 53.711 81.0571 53.711 81.52C53.711 81.7029 53.733 81.8743 53.7772 82.0343C53.8213 82.1886 53.8903 82.3257 53.9841 82.4457C54.0779 82.5657 54.1965 82.66 54.3399 82.7286C54.4834 82.7971 54.6517 82.8314 54.8448 82.8314C55.0765 82.8314 55.2586 82.8114 55.391 82.7714C55.5289 82.7257 55.6586 82.6657 55.7799 82.5914L56.0448 83.4914ZM57.0462 79.2657H58.2048V83.7657H57.0462V79.2657ZM56.8724 78.1429C56.8724 77.96 56.9359 77.8086 57.0628 77.6886C57.1897 77.5629 57.369 77.5 57.6007 77.5C57.8379 77.5 58.0255 77.5629 58.1634 77.6886C58.3014 77.8143 58.3703 77.9657 58.3703 78.1429C58.3703 78.3086 58.3014 78.4514 58.1634 78.5714C58.0255 78.6914 57.8379 78.7514 57.6007 78.7514C57.369 78.7514 57.1897 78.6914 57.0628 78.5714C56.9359 78.4514 56.8724 78.3086 56.8724 78.1429ZM59.2838 81.52C59.2838 80.7771 59.4741 80.1943 59.8548 79.7714C60.2355 79.3486 60.779 79.1371 61.4852 79.1371C61.8548 79.1371 62.1776 79.1971 62.4534 79.3171C62.7293 79.4371 62.9583 79.6057 63.1403 79.8229C63.3224 80.0343 63.4576 80.2857 63.5459 80.5771C63.6397 80.8629 63.6866 81.1771 63.6866 81.52C63.6866 81.8857 63.6369 82.2171 63.5376 82.5143C63.4383 82.8057 63.2948 83.0543 63.1072 83.26C62.9197 83.4657 62.6879 83.6229 62.4121 83.7314C62.1417 83.84 61.8328 83.8943 61.4852 83.8943C61.11 83.8943 60.7845 83.8343 60.5086 83.7143C60.2328 83.5943 60.0038 83.4286 59.8217 83.2171C59.6397 83 59.5045 82.7486 59.4162 82.4629C59.3279 82.1714 59.2838 81.8571 59.2838 81.52ZM60.4755 81.52C60.4755 81.7086 60.4948 81.8857 60.5334 82.0514C60.5721 82.2171 60.63 82.3629 60.7072 82.4886C60.79 82.6086 60.8948 82.7057 61.0217 82.78C61.1486 82.8543 61.3031 82.8914 61.4852 82.8914C62.1583 82.8914 62.4948 82.4343 62.4948 81.52C62.4948 81.32 62.4755 81.1371 62.4369 80.9714C62.4038 80.8 62.3459 80.6543 62.2631 80.5343C62.1859 80.4086 62.081 80.3114 61.9486 80.2429C61.8217 80.1743 61.6672 80.14 61.4852 80.14C61.1707 80.14 60.9224 80.2486 60.7403 80.4657C60.5638 80.6829 60.4755 81.0343 60.4755 81.52ZM61.659 77.5171H62.8341V77.7657L61.7914 78.8714H61.1624L61.659 77.5171ZM67.5614 83.7657V81.2971C67.5614 80.9086 67.5035 80.6286 67.3876 80.4571C67.2717 80.2857 67.0676 80.2 66.7752 80.2C66.5269 80.2 66.3145 80.2714 66.1379 80.4143C65.9669 80.5514 65.8483 80.7286 65.7821 80.9457C65.7821 81.4143 65.7821 81.8857 65.7821 82.36C65.7876 82.8286 65.7903 83.2971 65.7903 83.7657H64.6317V79.2657H65.5421L65.6662 79.9086H65.7903C65.9338 79.6971 66.1241 79.5171 66.3614 79.3686C66.5986 79.2143 66.9076 79.1371 67.2883 79.1371C67.52 79.1371 67.7241 79.1686 67.9007 79.2314C68.0828 79.2886 68.2317 79.3914 68.3476 79.54C68.469 79.6829 68.56 79.8771 68.6207 80.1229C68.6869 80.3686 68.72 80.6771 68.72 81.0486V83.7657H67.5614Z" fill="white"/>
<defs>
<filter id="filter0_d" x="0" y="0" width="98" height="98" filterUnits="userSpaceOnUse" color-interpolation-filters="sRGB">
<feFlood flood-opacity="0" result="BackgroundImageFix"/>
<feColorMatrix in="SourceAlpha" type="matrix" values="0 0 0 0 0 0 0 0 0 0 0 0 0 0 0 0 0 0 127 0"/>
<feOffset dy="4"/>
<feGaussianBlur stdDeviation="2"/>
<feColorMatrix type="matrix" values="0 0 0 0 0 0 0 0 0 0 0 0 0 0 0 0 0 0 0.25 0"/>
<feBlend mode="normal" in2="BackgroundImageFix" result="effect1_dropShadow"/>
<feBlend mode="normal" in="SourceGraphic" in2="effect1_dropShadow" result="shape"/>
</filter>
</defs>
</svg>
