<svg xmlns="http://www.w3.org/2000/svg" width="88" height="88" fill="none" viewBox="0 0 88 88"><g filter="url(#filter0_d)"><path fill="#046865" d="M64 0H24C12.9543 0 4 8.9543 4 20V60C4 71.0457 12.9543 80 24 80H64C75.0457 80 84 71.0457 84 60V20C84 8.9543 75.0457 0 64 0Z"/></g><g clip-path="url(#clip0)"><path fill="#fff" d="M20.8701 53H54.9902C55.4416 53 55.7609 52.5567 55.7609 52.0761V33.3121L66.6855 21.6893C67.0072 21.353 67.012 20.8032 66.6963 20.4605L62.3491 15.8299C62.0222 15.4907 61.5006 15.4902 61.1733 15.8291L55.7609 21.5521V12.7227C55.7697 12.4952 55.6914 12.2735 55.5446 12.1075L47.2852 3.2815C47.1391 3.11082 46.9352 3.00934 46.7185 3H20.8701C20.4191 3 20.1022 3.44327 20.1022 3.92349V52.0765C20.1022 52.5567 20.4191 53 20.8701 53ZM46.9651 34.1536L49.4836 36.8328L45.7003 38.1783L46.9651 34.1536ZM50.995 35.9811L47.7654 32.5457L58.1376 21.536L61.3441 24.9472L50.995 35.9811ZM61.7764 17.6739L64.9745 21.0762L62.4984 23.7163L59.2951 20.3077L61.7764 17.6739ZM47.587 6.02267L53.0169 11.8043H47.587V6.02267ZM21.737 4.73913H45.9522V12.7227C45.9426 12.9427 46.0196 13.1567 46.1657 13.3125C46.3114 13.4687 46.5117 13.5524 46.7185 13.5435H54.1261V23.2874L46.0081 31.9288C45.9222 32.0179 45.8584 32.1279 45.8221 32.2493L44.6694 35.9348H27.0193C26.5679 35.9348 26.2019 36.3241 26.2019 36.8043C26.2019 37.2846 26.5679 37.6739 27.0193 37.6739H44.1234L43.6309 39.261C43.5327 39.5701 43.6094 39.9124 43.8281 40.1412C43.8855 40.2024 43.9506 40.2826 44.0197 40.2826H27.0193C26.5679 40.2826 26.2019 40.672 26.2019 41.1522C26.2019 41.6324 26.5679 42.0217 27.0193 42.0217H48.7827C49.2345 42.0217 49.6001 41.6324 49.6001 41.1522C49.6001 40.672 49.2345 40.2826 48.7827 40.2826H44.8295L51.2548 38.0166C51.3678 37.9771 51.47 37.9079 51.5514 37.8162L54.1261 35.055V51.2609H21.737V4.73913Z"/><path fill="#fff" d="M48.7827 44.6304H27.0193C26.5679 44.6304 26.2019 45.0198 26.2019 45.5C26.2019 45.9802 26.5679 46.3696 27.0193 46.3696H48.7827C49.2345 46.3696 49.6001 45.9802 49.6001 45.5C49.6001 45.0198 49.2345 44.6304 48.7827 44.6304Z"/><path fill="#fff" d="M31.8174 29.7391H43.3634C43.8152 29.7391 44.1808 29.3498 44.1808 28.8696C44.1808 28.3894 43.8152 28 43.3634 28H31.8174C31.366 28 31 28.3894 31 28.8696C31 29.3498 31.366 29.7391 31.8174 29.7391Z"/></g><path fill="#fff" d="M19.585 55.763C19.729 55.739 19.885 55.718 20.053 55.7C20.227 55.676 20.401 55.658 20.575 55.646C20.749 55.634 20.917 55.625 21.079 55.619C21.247 55.613 21.4 55.61 21.538 55.61C21.856 55.61 22.168 55.637 22.474 55.691C22.786 55.745 23.062 55.838 23.302 55.97C23.548 56.102 23.746 56.285 23.896 56.519C24.046 56.747 24.121 57.035 24.121 57.383C24.121 57.899 23.992 58.325 23.734 58.661C23.482 58.991 23.131 59.216 22.681 59.336L23.158 59.615L24.733 62H23.185L21.619 59.561L20.917 59.453V62H19.585V55.763ZM21.628 56.78C21.49 56.78 21.355 56.783 21.223 56.789C21.097 56.789 20.995 56.798 20.917 56.816V58.553H21.484C21.862 58.553 22.159 58.481 22.375 58.337C22.597 58.193 22.708 57.944 22.708 57.59C22.708 57.326 22.615 57.125 22.429 56.987C22.243 56.849 21.976 56.78 21.628 56.78ZM29.0943 61.568C28.8903 61.724 28.6113 61.859 28.2573 61.973C27.9093 62.081 27.5343 62.135 27.1323 62.135C26.3223 62.135 25.7283 61.913 25.3503 61.469C24.9723 61.025 24.7833 60.416 24.7833 59.642C24.7833 58.82 24.9963 58.199 25.4223 57.779C25.8483 57.353 26.4483 57.14 27.2223 57.14C27.4743 57.14 27.7233 57.173 27.9693 57.239C28.2153 57.299 28.4343 57.404 28.6263 57.554C28.8183 57.698 28.9713 57.896 29.0853 58.148C29.2053 58.394 29.2653 58.7 29.2653 59.066C29.2653 59.192 29.2563 59.33 29.2383 59.48C29.2263 59.63 29.2023 59.786 29.1663 59.948H26.0163C26.0463 60.356 26.1633 60.659 26.3673 60.857C26.5773 61.049 26.9163 61.145 27.3843 61.145C27.6663 61.145 27.9183 61.106 28.1403 61.028C28.3683 60.944 28.5423 60.86 28.6623 60.776L29.0943 61.568ZM27.2043 58.13C26.8323 58.13 26.5563 58.232 26.3763 58.436C26.1963 58.634 26.0913 58.889 26.0613 59.201H28.0953C28.1193 58.871 28.0593 58.61 27.9153 58.418C27.7713 58.226 27.5343 58.13 27.2043 58.13ZM30.397 57.275H31.297L31.45 57.86H31.558C31.744 57.62 31.96 57.44 32.206 57.32C32.452 57.2 32.74 57.14 33.07 57.14C33.706 57.14 34.183 57.332 34.501 57.716C34.819 58.094 34.978 58.697 34.978 59.525C34.978 59.921 34.927 60.281 34.825 60.605C34.723 60.923 34.573 61.199 34.375 61.433C34.177 61.661 33.931 61.838 33.637 61.964C33.349 62.084 33.016 62.144 32.638 62.144C32.434 62.144 32.257 62.123 32.107 62.081C31.957 62.045 31.807 61.994 31.657 61.928V63.791H30.397V57.275ZM32.683 58.193C32.395 58.193 32.173 58.259 32.017 58.391C31.861 58.517 31.741 58.715 31.657 58.985V60.821C31.759 60.905 31.873 60.971 31.999 61.019C32.125 61.067 32.284 61.091 32.476 61.091C32.884 61.091 33.187 60.965 33.385 60.713C33.583 60.455 33.682 60.047 33.682 59.489C33.682 59.087 33.604 58.772 33.448 58.544C33.298 58.31 33.043 58.193 32.683 58.193ZM35.7344 59.642C35.7344 58.862 35.9414 58.25 36.3554 57.806C36.7694 57.362 37.3604 57.14 38.1284 57.14C38.5304 57.14 38.8814 57.203 39.1814 57.329C39.4814 57.455 39.7304 57.632 39.9284 57.86C40.1264 58.082 40.2734 58.346 40.3694 58.652C40.4714 58.952 40.5224 59.282 40.5224 59.642C40.5224 60.026 40.4684 60.374 40.3604 60.686C40.2524 60.992 40.0964 61.253 39.8924 61.469C39.6884 61.685 39.4364 61.85 39.1364 61.964C38.8424 62.078 38.5064 62.135 38.1284 62.135C37.7204 62.135 37.3664 62.072 37.0664 61.946C36.7664 61.82 36.5174 61.646 36.3194 61.424C36.1214 61.196 35.9744 60.932 35.8784 60.632C35.7824 60.326 35.7344 59.996 35.7344 59.642ZM37.0304 59.642C37.0304 59.84 37.0514 60.026 37.0934 60.2C37.1354 60.374 37.1984 60.527 37.2824 60.659C37.3724 60.785 37.4864 60.887 37.6244 60.965C37.7624 61.043 37.9304 61.082 38.1284 61.082C38.8604 61.082 39.2264 60.602 39.2264 59.642C39.2264 59.432 39.2054 59.24 39.1634 59.066C39.1274 58.886 39.0644 58.733 38.9744 58.607C38.8904 58.475 38.7764 58.373 38.6324 58.301C38.4944 58.229 38.3264 58.193 38.1284 58.193C37.7864 58.193 37.5164 58.307 37.3184 58.535C37.1264 58.763 37.0304 59.132 37.0304 59.642ZM44.3403 58.427C44.1603 58.367 43.9803 58.337 43.8003 58.337C43.5363 58.337 43.3173 58.4 43.1433 58.526C42.9753 58.652 42.8643 58.811 42.8103 59.003V62H41.5503V57.275H42.5403L42.6753 57.932H42.7923C42.9123 57.686 43.0713 57.497 43.2693 57.365C43.4733 57.233 43.7043 57.167 43.9623 57.167C44.1243 57.167 44.3103 57.2 44.5203 57.266L44.3403 58.427ZM44.947 57.275H45.667V56.627L46.927 56.294V57.275H48.196V58.328H46.927V59.966C46.927 60.344 46.963 60.617 47.035 60.785C47.113 60.947 47.263 61.028 47.485 61.028C47.623 61.028 47.74 61.019 47.836 61.001C47.932 60.977 48.034 60.941 48.142 60.893L48.403 61.838C48.211 61.922 47.989 61.994 47.737 62.054C47.491 62.114 47.251 62.144 47.017 62.144C46.549 62.144 46.207 62.03 45.991 61.802C45.775 61.568 45.667 61.196 45.667 60.686V58.328H44.947V57.275ZM53.1499 61.568C52.9459 61.724 52.6669 61.859 52.3129 61.973C51.9649 62.081 51.5899 62.135 51.1879 62.135C50.3779 62.135 49.7839 61.913 49.4059 61.469C49.0279 61.025 48.8389 60.416 48.8389 59.642C48.8389 58.82 49.0519 58.199 49.4779 57.779C49.9039 57.353 50.5039 57.14 51.2779 57.14C51.5299 57.14 51.7789 57.173 52.0249 57.239C52.2709 57.299 52.4899 57.404 52.6819 57.554C52.8739 57.698 53.0269 57.896 53.1409 58.148C53.2609 58.394 53.3209 58.7 53.3209 59.066C53.3209 59.192 53.3119 59.33 53.2939 59.48C53.2819 59.63 53.2579 59.786 53.2219 59.948H50.0719C50.1019 60.356 50.2189 60.659 50.4229 60.857C50.6329 61.049 50.9719 61.145 51.4399 61.145C51.7219 61.145 51.9739 61.106 52.1959 61.028C52.4239 60.944 52.5979 60.86 52.7179 60.776L53.1499 61.568ZM51.2599 58.13C50.8879 58.13 50.6119 58.232 50.4319 58.436C50.2519 58.634 50.1469 58.889 50.1169 59.201H52.1509C52.1749 58.871 52.1149 58.61 51.9709 58.418C51.8269 58.226 51.5899 58.13 51.2599 58.13ZM61.242 60.344C61.242 60.596 61.245 60.857 61.251 61.127C61.257 61.397 61.284 61.691 61.332 62.009H60.459L60.279 61.352H60.162C60.024 61.592 59.826 61.784 59.568 61.928C59.316 62.066 59.013 62.135 58.659 62.135C58.029 62.135 57.54 61.94 57.192 61.55C56.844 61.154 56.67 60.545 56.67 59.723C56.67 59.327 56.718 58.97 56.814 58.652C56.916 58.334 57.063 58.064 57.255 57.842C57.453 57.62 57.696 57.449 57.984 57.329C58.272 57.209 58.605 57.149 58.983 57.149C59.193 57.149 59.373 57.167 59.523 57.203C59.679 57.233 59.832 57.272 59.982 57.32V55.7H61.242V60.344ZM58.983 61.082C59.265 61.082 59.484 61.019 59.64 60.893C59.796 60.761 59.91 60.575 59.982 60.335V58.445C59.874 58.361 59.757 58.301 59.631 58.265C59.511 58.223 59.352 58.202 59.154 58.202C58.752 58.202 58.452 58.319 58.254 58.553C58.062 58.787 57.966 59.189 57.966 59.759C57.966 60.155 58.047 60.476 58.209 60.722C58.377 60.962 58.635 61.082 58.983 61.082ZM66.6324 61.568C66.4284 61.724 66.1494 61.859 65.7954 61.973C65.4474 62.081 65.0724 62.135 64.6704 62.135C63.8604 62.135 63.2664 61.913 62.8884 61.469C62.5104 61.025 62.3214 60.416 62.3214 59.642C62.3214 58.82 62.5344 58.199 62.9604 57.779C63.3864 57.353 63.9864 57.14 64.7604 57.14C65.0124 57.14 65.2614 57.173 65.5074 57.239C65.7534 57.299 65.9724 57.404 66.1644 57.554C66.3564 57.698 66.5094 57.896 66.6234 58.148C66.7434 58.394 66.8034 58.7 66.8034 59.066C66.8034 59.192 66.7944 59.33 66.7764 59.48C66.7644 59.63 66.7404 59.786 66.7044 59.948H63.5544C63.5844 60.356 63.7014 60.659 63.9054 60.857C64.1154 61.049 64.4544 61.145 64.9224 61.145C65.2044 61.145 65.4564 61.106 65.6784 61.028C65.9064 60.944 66.0804 60.86 66.2004 60.776L66.6324 61.568ZM64.7424 58.13C64.3704 58.13 64.0944 58.232 63.9144 58.436C63.7344 58.634 63.6294 58.889 63.5994 59.201H65.6334C65.6574 58.871 65.5974 58.61 65.4534 58.418C65.3094 58.226 65.0724 58.13 64.7424 58.13ZM21.835 71.336L22.015 72.407H22.06L22.258 71.327L23.572 67.7H24.976L22.429 74.045H21.475L18.91 67.7H20.458L21.835 71.336ZM28.8482 73.568C28.6442 73.724 28.3652 73.859 28.0112 73.973C27.6632 74.081 27.2882 74.135 26.8862 74.135C26.0762 74.135 25.4822 73.913 25.1042 73.469C24.7262 73.025 24.5372 72.416 24.5372 71.642C24.5372 70.82 24.7502 70.199 25.1762 69.779C25.6022 69.353 26.2022 69.14 26.9762 69.14C27.2282 69.14 27.4772 69.173 27.7232 69.239C27.9692 69.299 28.1882 69.404 28.3802 69.554C28.5722 69.698 28.7252 69.896 28.8392 70.148C28.9592 70.394 29.0192 70.7 29.0192 71.066C29.0192 71.192 29.0102 71.33 28.9922 71.48C28.9802 71.63 28.9562 71.786 28.9202 71.948H25.7702C25.8002 72.356 25.9172 72.659 26.1212 72.857C26.3312 73.049 26.6702 73.145 27.1382 73.145C27.4202 73.145 27.6722 73.106 27.8942 73.028C28.1222 72.944 28.2962 72.86 28.4162 72.776L28.8482 73.568ZM26.9582 70.13C26.5862 70.13 26.3102 70.232 26.1302 70.436C25.9502 70.634 25.8452 70.889 25.8152 71.201H27.8492C27.8732 70.871 27.8132 70.61 27.6692 70.418C27.5252 70.226 27.2882 70.13 26.9582 70.13ZM33.3369 74V71.408C33.3369 71 33.2739 70.706 33.1479 70.526C33.0219 70.346 32.7999 70.256 32.4819 70.256C32.2119 70.256 31.9809 70.331 31.7889 70.481C31.6029 70.625 31.4739 70.811 31.4019 71.039C31.4019 71.531 31.4019 72.026 31.4019 72.524C31.4079 73.016 31.4109 73.508 31.4109 74H30.1509V69.275H31.1409L31.2759 69.95H31.4109C31.5669 69.728 31.7739 69.539 32.0319 69.383C32.2899 69.221 32.6259 69.14 33.0399 69.14C33.2919 69.14 33.5139 69.173 33.7059 69.239C33.9039 69.299 34.0659 69.407 34.1919 69.563C34.3239 69.713 34.4229 69.917 34.4889 70.175C34.5609 70.433 34.5969 70.757 34.5969 71.147V74H33.3369ZM35.3142 69.275H36.0342V68.627L37.2942 68.294V69.275H38.5632V70.328H37.2942V71.966C37.2942 72.344 37.3302 72.617 37.4022 72.785C37.4802 72.947 37.6302 73.028 37.8522 73.028C37.9902 73.028 38.1072 73.019 38.2032 73.001C38.2992 72.977 38.4012 72.941 38.5092 72.893L38.7702 73.838C38.5782 73.922 38.3562 73.994 38.1042 74.054C37.8582 74.114 37.6182 74.144 37.3842 74.144C36.9162 74.144 36.5742 74.03 36.3582 73.802C36.1422 73.568 36.0342 73.196 36.0342 72.686V70.328H35.3142V69.275ZM39.4839 69.599C39.7539 69.479 40.0839 69.38 40.4739 69.302C40.8699 69.224 41.2779 69.185 41.6979 69.185C42.0279 69.185 42.3039 69.224 42.5259 69.302C42.7539 69.38 42.9339 69.494 43.0659 69.644C43.1979 69.788 43.2909 69.965 43.3449 70.175C43.4049 70.379 43.4349 70.607 43.4349 70.859C43.4349 71.165 43.4229 71.468 43.3989 71.768C43.3749 72.068 43.3629 72.386 43.3629 72.722C43.3629 72.95 43.3779 73.172 43.4079 73.388C43.4379 73.604 43.4859 73.811 43.5519 74.009H42.5259L42.3189 73.307H42.2109C42.0549 73.517 41.8569 73.697 41.6169 73.847C41.3769 73.997 41.0679 74.072 40.6899 74.072C40.4619 74.072 40.2519 74.039 40.0599 73.973C39.8739 73.907 39.7119 73.814 39.5739 73.694C39.4419 73.568 39.3369 73.421 39.2589 73.253C39.1869 73.085 39.1509 72.902 39.1509 72.704C39.1509 72.17 39.3279 71.768 39.6819 71.498C40.0419 71.222 40.5849 71.084 41.3109 71.084C41.4789 71.084 41.6469 71.099 41.8149 71.129C41.9829 71.153 42.0999 71.171 42.1659 71.183C42.1839 71.057 42.1929 70.949 42.1929 70.859C42.1929 70.631 42.1359 70.463 42.0219 70.355C41.9079 70.247 41.6949 70.193 41.3829 70.193C41.0949 70.193 40.8129 70.229 40.5369 70.301C40.2669 70.367 40.0269 70.451 39.8169 70.553L39.4839 69.599ZM41.1309 73.064C41.4129 73.064 41.6379 72.998 41.8059 72.866C41.9739 72.734 42.0969 72.596 42.1749 72.452V71.912C42.1449 71.9 42.0969 71.888 42.0309 71.876C41.9709 71.864 41.9019 71.852 41.8239 71.84C41.7519 71.828 41.6769 71.819 41.5989 71.813C41.5269 71.807 41.4609 71.804 41.4009 71.804C41.0769 71.804 40.8369 71.864 40.6809 71.984C40.5249 72.098 40.4469 72.242 40.4469 72.416C40.4469 72.632 40.5069 72.794 40.6269 72.902C40.7529 73.01 40.9209 73.064 41.1309 73.064ZM44.7318 72.776C44.8158 72.818 44.9118 72.86 45.0198 72.902C45.1338 72.944 45.2538 72.983 45.3798 73.019C45.5118 73.055 45.6438 73.085 45.7758 73.109C45.9138 73.133 46.0518 73.145 46.1898 73.145C46.3998 73.145 46.5618 73.112 46.6758 73.046C46.7958 72.98 46.8558 72.857 46.8558 72.677C46.8558 72.533 46.7778 72.428 46.6218 72.362C46.4658 72.29 46.2738 72.221 46.0458 72.155C45.8778 72.107 45.7008 72.05 45.5148 71.984C45.3348 71.918 45.1668 71.831 45.0108 71.723C44.8608 71.609 44.7348 71.462 44.6328 71.282C44.5368 71.102 44.4888 70.874 44.4888 70.598C44.4888 70.124 44.6358 69.764 44.9298 69.518C45.2238 69.266 45.6468 69.14 46.1988 69.14C46.5588 69.14 46.8948 69.173 47.2068 69.239C47.5248 69.299 47.7798 69.371 47.9718 69.455L47.7108 70.409C47.5548 70.349 47.3538 70.289 47.1078 70.229C46.8678 70.163 46.6218 70.13 46.3698 70.13C46.1598 70.13 46.0038 70.163 45.9018 70.229C45.7998 70.289 45.7488 70.397 45.7488 70.553C45.7488 70.691 45.8268 70.796 45.9828 70.868C46.1448 70.934 46.3398 71 46.5678 71.066C46.7358 71.114 46.9098 71.171 47.0898 71.237C47.2758 71.297 47.4438 71.381 47.5938 71.489C47.7438 71.597 47.8668 71.738 47.9628 71.912C48.0648 72.08 48.1158 72.293 48.1158 72.551C48.1158 73.055 47.9508 73.445 47.6208 73.721C47.2968 73.997 46.8078 74.135 46.1538 74.135C45.7998 74.135 45.4698 74.102 45.1638 74.036C44.8578 73.976 44.6088 73.886 44.4168 73.766L44.7318 72.776Z"/><defs><filter id="filter0_d" width="88" height="88" x="0" y="0" color-interpolation-filters="sRGB" filterUnits="userSpaceOnUse"><feFlood flood-opacity="0" result="BackgroundImageFix"/><feColorMatrix in="SourceAlpha" type="matrix" values="0 0 0 0 0 0 0 0 0 0 0 0 0 0 0 0 0 0 127 0"/><feOffset dy="4"/><feGaussianBlur stdDeviation="2"/><feColorMatrix type="matrix" values="0 0 0 0 0 0 0 0 0 0 0 0 0 0 0 0 0 0 0.25 0"/><feBlend in2="BackgroundImageFix" mode="normal" result="effect1_dropShadow"/><feBlend in="SourceGraphic" in2="effect1_dropShadow" mode="normal" result="shape"/></filter><clipPath id="clip0"><rect width="47" height="50" fill="#fff" transform="translate(20 3)"/></clipPath></defs></svg>