<svg width="98" height="98" viewBox="0 0 98 98" fill="none" xmlns="http://www.w3.org/2000/svg">
<g filter="url(#filter0_d)">
<path d="M74 0H24C12.9543 0 4 8.9543 4 20V70C4 81.0457 12.9543 90 24 90H74C85.0457 90 94 81.0457 94 70V20C94 8.95431 85.0457 0 74 0Z" fill="#046865"/>
</g>
<g clip-path="url(#clip0)">
<path d="M22.2663 68.4H68.0017C68.6068 68.4 69.0348 67.8255 69.0348 67.2026V42.8845L83.6784 27.8213C84.1096 27.3855 84.1161 26.6729 83.6929 26.2288L77.8658 20.2276C77.4277 19.7879 76.7284 19.7874 76.2897 20.2265L69.0348 27.6436V16.2007C69.0466 15.9057 68.9417 15.6185 68.7448 15.4033L57.6738 3.96484C57.478 3.74363 57.2046 3.61211 56.9141 3.60001H22.2663C21.6617 3.60001 21.237 4.17449 21.237 4.79685V67.2032C21.237 67.8255 21.6617 68.4 22.2663 68.4ZM57.2448 43.9751L60.6205 47.4473L55.5494 49.1911L57.2448 43.9751ZM62.6465 46.3435L58.3174 41.8912L72.2206 27.6227L76.5187 32.0436L62.6465 46.3435ZM77.0981 22.6174L81.385 27.0267L78.0659 30.4483L73.7721 26.0307L77.0981 22.6174ZM58.0783 7.51739L65.3568 15.0104H58.0783V7.51739ZM23.4283 5.85392H55.887V16.2007C55.8741 16.4857 55.9774 16.7631 56.1732 16.965C56.3685 17.1675 56.637 17.2759 56.9141 17.2644H66.8435V29.8925L55.9619 41.0917C55.8468 41.2072 55.7612 41.3497 55.7126 41.5071L54.1675 46.2835H30.5088C29.9037 46.2835 29.4132 46.7881 29.4132 47.4104C29.4132 48.0328 29.9037 48.5374 30.5088 48.5374H53.4357L52.7755 50.5943C52.6439 50.9949 52.7466 51.4384 53.0398 51.735C53.1168 51.8143 53.204 51.9183 53.2966 51.9183H30.5088C29.9037 51.9183 29.4132 52.4229 29.4132 53.0452C29.4132 53.6676 29.9037 54.1722 30.5088 54.1722H59.6811C60.2867 54.1722 60.7767 53.6676 60.7767 53.0452C60.7767 52.4229 60.2867 51.9183 59.6811 51.9183H54.3821L62.9948 48.9815C63.1462 48.9303 63.2832 48.8406 63.3923 48.7217L66.8435 45.1433V66.1461H23.4283V5.85392Z" fill="white"/>
<path d="M59.6811 57.553H30.5088C29.9037 57.553 29.4132 58.0576 29.4132 58.68C29.4132 59.3024 29.9037 59.8069 30.5088 59.8069H59.6811C60.2867 59.8069 60.7767 59.3024 60.7767 58.68C60.7767 58.0576 60.2867 57.553 59.6811 57.553Z" fill="white"/>
<path d="M30.5088 42.9026H45.9854C46.591 42.9026 47.0811 42.398 47.0811 41.7756C47.0811 41.1533 46.591 40.6487 45.9854 40.6487H30.5088C29.9037 40.6487 29.4132 41.1533 29.4132 41.7756C29.4132 42.398 29.9037 42.9026 30.5088 42.9026Z" fill="white"/>
</g>
<path d="M6.6175 71.4165C6.7695 71.3912 6.93417 71.369 7.1115 71.35C7.29517 71.3247 7.47883 71.3057 7.6625 71.293C7.84617 71.2803 8.0235 71.2708 8.1945 71.2645C8.37183 71.2582 8.53333 71.255 8.679 71.255C9.01467 71.255 9.344 71.2835 9.667 71.3405C9.99633 71.3975 10.2877 71.4957 10.541 71.635C10.8007 71.7743 11.0097 71.9675 11.168 72.2145C11.3263 72.4552 11.4055 72.7592 11.4055 73.1265C11.4055 73.6712 11.2693 74.1208 10.997 74.4755C10.731 74.8238 10.3605 75.0613 9.8855 75.188L10.389 75.4825L12.0515 78H10.4175L8.7645 75.4255L8.0235 75.3115V78H6.6175V71.4165ZM8.774 72.49C8.62833 72.49 8.48583 72.4932 8.3465 72.4995C8.2135 72.4995 8.10583 72.509 8.0235 72.528V74.3615H8.622C9.021 74.3615 9.3345 74.2855 9.5625 74.1335C9.79683 73.9815 9.914 73.7187 9.914 73.345C9.914 73.0663 9.81583 72.8542 9.6195 72.7085C9.42317 72.5628 9.14133 72.49 8.774 72.49ZM16.6551 77.544C16.4397 77.7087 16.1452 77.8512 15.7716 77.9715C15.4042 78.0855 15.0084 78.1425 14.5841 78.1425C13.7291 78.1425 13.1021 77.9082 12.7031 77.4395C12.3041 76.9708 12.1046 76.328 12.1046 75.511C12.1046 74.6433 12.3294 73.9878 12.7791 73.5445C13.2287 73.0948 13.8621 72.87 14.6791 72.87C14.9451 72.87 15.2079 72.9048 15.4676 72.9745C15.7272 73.0378 15.9584 73.1487 16.1611 73.307C16.3637 73.459 16.5252 73.668 16.6456 73.934C16.7722 74.1937 16.8356 74.5167 16.8356 74.903C16.8356 75.036 16.8261 75.1817 16.8071 75.34C16.7944 75.4983 16.7691 75.663 16.7311 75.834H13.4061C13.4377 76.2647 13.5612 76.5845 13.7766 76.7935C13.9982 76.9962 14.3561 77.0975 14.8501 77.0975C15.1477 77.0975 15.4137 77.0563 15.6481 76.974C15.8887 76.8853 16.0724 76.7967 16.1991 76.708L16.6551 77.544ZM14.6601 73.915C14.2674 73.915 13.9761 74.0227 13.7861 74.238C13.5961 74.447 13.4852 74.7162 13.4536 75.0455H15.6006C15.6259 74.6972 15.5626 74.4217 15.4106 74.219C15.2586 74.0163 15.0084 73.915 14.6601 73.915ZM18.0302 73.0125H18.9802L19.1417 73.63H19.2557C19.452 73.3767 19.68 73.1867 19.9397 73.06C20.1994 72.9333 20.5034 72.87 20.8517 72.87C21.523 72.87 22.0265 73.0727 22.3622 73.478C22.6979 73.877 22.8657 74.5135 22.8657 75.3875C22.8657 75.8055 22.8119 76.1855 22.7042 76.5275C22.5965 76.8632 22.4382 77.1545 22.2292 77.4015C22.0202 77.6422 21.7605 77.829 21.4502 77.962C21.1462 78.0887 20.7947 78.152 20.3957 78.152C20.1804 78.152 19.9935 78.1298 19.8352 78.0855C19.6769 78.0475 19.5185 77.9937 19.3602 77.924V79.8905H18.0302V73.0125ZM20.4432 73.9815C20.1392 73.9815 19.9049 74.0512 19.7402 74.1905C19.5755 74.3235 19.4489 74.5325 19.3602 74.8175V76.7555C19.4679 76.8442 19.5882 76.9138 19.7212 76.9645C19.8542 77.0152 20.022 77.0405 20.2247 77.0405C20.6554 77.0405 20.9752 76.9075 21.1842 76.6415C21.3932 76.3692 21.4977 75.9385 21.4977 75.3495C21.4977 74.9252 21.4154 74.5927 21.2507 74.352C21.0924 74.105 20.8232 73.9815 20.4432 73.9815ZM23.6641 75.511C23.6641 74.6877 23.8826 74.0417 24.3196 73.573C24.7566 73.1043 25.3805 72.87 26.1911 72.87C26.6155 72.87 26.986 72.9365 27.3026 73.0695C27.6193 73.2025 27.8821 73.3893 28.0911 73.63C28.3001 73.8643 28.4553 74.143 28.5566 74.466C28.6643 74.7827 28.7181 75.131 28.7181 75.511C28.7181 75.9163 28.6611 76.2837 28.5471 76.613C28.4331 76.936 28.2685 77.2115 28.0531 77.4395C27.8378 77.6675 27.5718 77.8417 27.2551 77.962C26.9448 78.0823 26.5901 78.1425 26.1911 78.1425C25.7605 78.1425 25.3868 78.076 25.0701 77.943C24.7535 77.81 24.4906 77.6263 24.2816 77.392C24.0726 77.1513 23.9175 76.8727 23.8161 76.556C23.7148 76.233 23.6641 75.8847 23.6641 75.511ZM25.0321 75.511C25.0321 75.72 25.0543 75.9163 25.0986 76.1C25.143 76.2837 25.2095 76.4452 25.2981 76.5845C25.3931 76.7175 25.5135 76.8252 25.6591 76.9075C25.8048 76.9898 25.9821 77.031 26.1911 77.031C26.9638 77.031 27.3501 76.5243 27.3501 75.511C27.3501 75.2893 27.328 75.0867 27.2836 74.903C27.2456 74.713 27.1791 74.5515 27.0841 74.4185C26.9955 74.2792 26.8751 74.1715 26.7231 74.0955C26.5775 74.0195 26.4001 73.9815 26.1911 73.9815C25.8301 73.9815 25.5451 74.1018 25.3361 74.3425C25.1335 74.5832 25.0321 74.9727 25.0321 75.511ZM32.7481 74.2285C32.5581 74.1652 32.3681 74.1335 32.1781 74.1335C31.8995 74.1335 31.6683 74.2 31.4846 74.333C31.3073 74.466 31.1901 74.6338 31.1331 74.8365V78H29.8031V73.0125H30.8481L30.9906 73.706H31.1141C31.2408 73.4463 31.4086 73.2468 31.6176 73.1075C31.833 72.9682 32.0768 72.8985 32.3491 72.8985C32.5201 72.8985 32.7165 72.9333 32.9381 73.003L32.7481 74.2285ZM33.3885 73.0125H34.1485V72.3285L35.4785 71.977V73.0125H36.818V74.124H35.4785V75.853C35.4785 76.252 35.5165 76.5402 35.5925 76.7175C35.6748 76.8885 35.8332 76.974 36.0675 76.974C36.2132 76.974 36.3367 76.9645 36.438 76.9455C36.5393 76.9202 36.647 76.8822 36.761 76.8315L37.0365 77.829C36.8338 77.9177 36.5995 77.9937 36.3335 78.057C36.0738 78.1203 35.8205 78.152 35.5735 78.152C35.0795 78.152 34.7185 78.0317 34.4905 77.791C34.2625 77.544 34.1485 77.1513 34.1485 76.613V74.124H33.3885V73.0125ZM42.0472 77.544C41.8318 77.7087 41.5373 77.8512 41.1637 77.9715C40.7963 78.0855 40.4005 78.1425 39.9762 78.1425C39.1212 78.1425 38.4942 77.9082 38.0952 77.4395C37.6962 76.9708 37.4967 76.328 37.4967 75.511C37.4967 74.6433 37.7215 73.9878 38.1712 73.5445C38.6208 73.0948 39.2542 72.87 40.0712 72.87C40.3372 72.87 40.6 72.9048 40.8597 72.9745C41.1193 73.0378 41.3505 73.1487 41.5532 73.307C41.7558 73.459 41.9173 73.668 42.0377 73.934C42.1643 74.1937 42.2277 74.5167 42.2277 74.903C42.2277 75.036 42.2182 75.1817 42.1992 75.34C42.1865 75.4983 42.1612 75.663 42.1232 75.834H38.7982C38.8298 76.2647 38.9533 76.5845 39.1687 76.7935C39.3903 76.9962 39.7482 77.0975 40.2422 77.0975C40.5398 77.0975 40.8058 77.0563 41.0402 76.974C41.2808 76.8853 41.4645 76.7967 41.5912 76.708L42.0472 77.544ZM40.0522 73.915C39.6595 73.915 39.3682 74.0227 39.1782 74.238C38.9882 74.447 38.8773 74.7162 38.8457 75.0455H40.9927C41.018 74.6972 40.9547 74.4217 40.8027 74.219C40.6507 74.0163 40.4005 73.915 40.0522 73.915ZM50.5888 76.252C50.5888 76.518 50.5919 76.7935 50.5983 77.0785C50.6046 77.3635 50.6331 77.6738 50.6838 78.0095H49.7623L49.5723 77.316H49.4488C49.3031 77.5693 49.0941 77.772 48.8218 77.924C48.5558 78.0697 48.2359 78.1425 47.8623 78.1425C47.1973 78.1425 46.6811 77.9367 46.3138 77.525C45.9464 77.107 45.7628 76.4642 45.7628 75.5965C45.7628 75.1785 45.8134 74.8017 45.9148 74.466C46.0224 74.1303 46.1776 73.8453 46.3803 73.611C46.5893 73.3767 46.8458 73.1962 47.1498 73.0695C47.4538 72.9428 47.8053 72.8795 48.2043 72.8795C48.4259 72.8795 48.6159 72.8985 48.7743 72.9365C48.9389 72.9682 49.1004 73.0093 49.2588 73.06V71.35H50.5888V76.252ZM48.2043 77.031C48.5019 77.031 48.7331 76.9645 48.8978 76.8315C49.0624 76.6922 49.1828 76.4958 49.2588 76.2425V74.2475C49.1448 74.1588 49.0213 74.0955 48.8883 74.0575C48.7616 74.0132 48.5938 73.991 48.3848 73.991C47.9604 73.991 47.6438 74.1145 47.4348 74.3615C47.2321 74.6085 47.1308 75.0328 47.1308 75.6345C47.1308 76.0525 47.2163 76.3913 47.3873 76.651C47.5646 76.9043 47.8369 77.031 48.2043 77.031ZM56.2786 77.544C56.0633 77.7087 55.7688 77.8512 55.3951 77.9715C55.0278 78.0855 54.6319 78.1425 54.2076 78.1425C53.3526 78.1425 52.7256 77.9082 52.3266 77.4395C51.9276 76.9708 51.7281 76.328 51.7281 75.511C51.7281 74.6433 51.9529 73.9878 52.4026 73.5445C52.8523 73.0948 53.4856 72.87 54.3026 72.87C54.5686 72.87 54.8314 72.9048 55.0911 72.9745C55.3508 73.0378 55.5819 73.1487 55.7846 73.307C55.9873 73.459 56.1488 73.668 56.2691 73.934C56.3958 74.1937 56.4591 74.5167 56.4591 74.903C56.4591 75.036 56.4496 75.1817 56.4306 75.34C56.4179 75.4983 56.3926 75.663 56.3546 75.834H53.0296C53.0613 76.2647 53.1848 76.5845 53.4001 76.7935C53.6218 76.9962 53.9796 77.0975 54.4736 77.0975C54.7713 77.0975 55.0373 77.0563 55.2716 76.974C55.5123 76.8853 55.6959 76.7967 55.8226 76.708L56.2786 77.544ZM54.2836 73.915C53.8909 73.915 53.5996 74.0227 53.4096 74.238C53.2196 74.447 53.1088 74.7162 53.0771 75.0455H55.2241C55.2494 74.6972 55.1861 74.4217 55.0341 74.219C54.8821 74.0163 54.6319 73.915 54.2836 73.915ZM62.2723 75.188L62.4623 76.3185H62.5098L62.7188 75.1785L64.1058 71.35H65.5878L62.8993 78.0475H61.8923L59.1848 71.35H60.8188L62.2723 75.188ZM69.6751 77.544C69.4598 77.7087 69.1653 77.8512 68.7916 77.9715C68.4243 78.0855 68.0284 78.1425 67.6041 78.1425C66.7491 78.1425 66.1221 77.9082 65.7231 77.4395C65.3241 76.9708 65.1246 76.328 65.1246 75.511C65.1246 74.6433 65.3494 73.9878 65.7991 73.5445C66.2488 73.0948 66.8821 72.87 67.6991 72.87C67.9651 72.87 68.2279 72.9048 68.4876 72.9745C68.7473 73.0378 68.9784 73.1487 69.1811 73.307C69.3838 73.459 69.5453 73.668 69.6656 73.934C69.7923 74.1937 69.8556 74.5167 69.8556 74.903C69.8556 75.036 69.8461 75.1817 69.8271 75.34C69.8144 75.4983 69.7891 75.663 69.7511 75.834H66.4261C66.4578 76.2647 66.5813 76.5845 66.7966 76.7935C67.0183 76.9962 67.3761 77.0975 67.8701 77.0975C68.1678 77.0975 68.4338 77.0563 68.6681 76.974C68.9088 76.8853 69.0924 76.7967 69.2191 76.708L69.6751 77.544ZM67.6801 73.915C67.2874 73.915 66.9961 74.0227 66.8061 74.238C66.6161 74.447 66.5053 74.7162 66.4736 75.0455H68.6206C68.6459 74.6972 68.5826 74.4217 68.4306 74.219C68.2786 74.0163 68.0284 73.915 67.6801 73.915ZM74.4132 78V75.264C74.4132 74.8333 74.3467 74.523 74.2137 74.333C74.0807 74.143 73.8464 74.048 73.5107 74.048C73.2257 74.048 72.9819 74.1272 72.7792 74.2855C72.5829 74.4375 72.4467 74.6338 72.3707 74.8745C72.3707 75.3938 72.3707 75.9163 72.3707 76.442C72.377 76.9613 72.3802 77.4807 72.3802 78H71.0502V73.0125H72.0952L72.2377 73.725H72.3802C72.5449 73.4907 72.7634 73.2912 73.0357 73.1265C73.308 72.9555 73.6627 72.87 74.0997 72.87C74.3657 72.87 74.6 72.9048 74.8027 72.9745C75.0117 73.0378 75.1827 73.1518 75.3157 73.3165C75.455 73.4748 75.5595 73.6902 75.6292 73.9625C75.7052 74.2348 75.7432 74.5768 75.7432 74.9885V78H74.4132ZM76.5003 73.0125H77.2603V72.3285L78.5903 71.977V73.0125H79.9298V74.124H78.5903V75.853C78.5903 76.252 78.6283 76.5402 78.7043 76.7175C78.7866 76.8885 78.945 76.974 79.1793 76.974C79.325 76.974 79.4485 76.9645 79.5498 76.9455C79.6512 76.9202 79.7588 76.8822 79.8728 76.8315L80.1483 77.829C79.9456 77.9177 79.7113 77.9937 79.4453 78.057C79.1856 78.1203 78.9323 78.152 78.6853 78.152C78.1913 78.152 77.8303 78.0317 77.6023 77.791C77.3743 77.544 77.2603 77.1513 77.2603 76.613V74.124H76.5003V73.0125ZM80.9016 73.3545C81.1866 73.2278 81.535 73.1233 81.9466 73.041C82.3646 72.9587 82.7953 72.9175 83.2386 72.9175C83.587 72.9175 83.8783 72.9587 84.1126 73.041C84.3533 73.1233 84.5433 73.2437 84.6826 73.402C84.822 73.554 84.9201 73.7408 84.9771 73.9625C85.0405 74.1778 85.0721 74.4185 85.0721 74.6845C85.0721 75.0075 85.0595 75.3273 85.0341 75.644C85.0088 75.9607 84.9961 76.2963 84.9961 76.651C84.9961 76.8917 85.012 77.126 85.0436 77.354C85.0753 77.582 85.126 77.8005 85.1956 78.0095H84.1126L83.8941 77.2685H83.7801C83.6155 77.4902 83.4065 77.6802 83.1531 77.8385C82.8998 77.9968 82.5736 78.076 82.1746 78.076C81.934 78.076 81.7123 78.0412 81.5096 77.9715C81.3133 77.9018 81.1423 77.8037 80.9966 77.677C80.8573 77.544 80.7465 77.3888 80.6641 77.2115C80.5881 77.0342 80.5501 76.841 80.5501 76.632C80.5501 76.0683 80.737 75.644 81.1106 75.359C81.4906 75.0677 82.0638 74.922 82.8301 74.922C83.0075 74.922 83.1848 74.9378 83.3621 74.9695C83.5395 74.9948 83.663 75.0138 83.7326 75.0265C83.7516 74.8935 83.7611 74.7795 83.7611 74.6845C83.7611 74.4438 83.701 74.2665 83.5806 74.1525C83.4603 74.0385 83.2355 73.9815 82.9061 73.9815C82.6021 73.9815 82.3045 74.0195 82.0131 74.0955C81.7281 74.1652 81.4748 74.2538 81.2531 74.3615L80.9016 73.3545ZM82.6401 77.012C82.9378 77.012 83.1753 76.9423 83.3526 76.803C83.53 76.6637 83.6598 76.518 83.7421 76.366V75.796C83.7105 75.7833 83.6598 75.7707 83.5901 75.758C83.5268 75.7453 83.454 75.7327 83.3716 75.72C83.2956 75.7073 83.2165 75.6978 83.1341 75.6915C83.0581 75.6852 82.9885 75.682 82.9251 75.682C82.5831 75.682 82.3298 75.7453 82.1651 75.872C82.0005 75.9923 81.9181 76.1443 81.9181 76.328C81.9181 76.556 81.9815 76.727 82.1081 76.841C82.2411 76.955 82.4185 77.012 82.6401 77.012ZM86.4411 76.708C86.5298 76.7523 86.6311 76.7967 86.7451 76.841C86.8654 76.8853 86.9921 76.9265 87.1251 76.9645C87.2644 77.0025 87.4038 77.0342 87.5431 77.0595C87.6888 77.0848 87.8344 77.0975 87.9801 77.0975C88.2018 77.0975 88.3728 77.0627 88.4931 76.993C88.6198 76.9233 88.6831 76.7935 88.6831 76.6035C88.6831 76.4515 88.6008 76.3407 88.4361 76.271C88.2714 76.195 88.0688 76.1222 87.8281 76.0525C87.6508 76.0018 87.4639 75.9417 87.2676 75.872C87.0776 75.8023 86.9003 75.7105 86.7356 75.5965C86.5773 75.4762 86.4443 75.321 86.3366 75.131C86.2353 74.941 86.1846 74.7003 86.1846 74.409C86.1846 73.9087 86.3398 73.5287 86.6501 73.269C86.9604 73.003 87.4069 72.87 87.9896 72.87C88.3696 72.87 88.7243 72.9048 89.0536 72.9745C89.3893 73.0378 89.6584 73.1138 89.8611 73.2025L89.5856 74.2095C89.4209 74.1462 89.2088 74.0828 88.9491 74.0195C88.6958 73.9498 88.4361 73.915 88.1701 73.915C87.9484 73.915 87.7838 73.9498 87.6761 74.0195C87.5684 74.0828 87.5146 74.1968 87.5146 74.3615C87.5146 74.5072 87.5969 74.618 87.7616 74.694C87.9326 74.7637 88.1384 74.8333 88.3791 74.903C88.5564 74.9537 88.7401 75.0138 88.9301 75.0835C89.1264 75.1468 89.3038 75.2355 89.4621 75.3495C89.6204 75.4635 89.7503 75.6123 89.8516 75.796C89.9593 75.9733 90.0131 76.1982 90.0131 76.4705C90.0131 77.0025 89.8389 77.4142 89.4906 77.7055C89.1486 77.9968 88.6324 78.1425 87.9421 78.1425C87.5684 78.1425 87.2201 78.1077 86.8971 78.038C86.5741 77.9747 86.3113 77.8797 86.1086 77.753L86.4411 76.708Z" fill="white"/>
<defs>
<filter id="filter0_d" x="0" y="0" width="98" height="98" filterUnits="userSpaceOnUse" color-interpolation-filters="sRGB">
<feFlood flood-opacity="0" result="BackgroundImageFix"/>
<feColorMatrix in="SourceAlpha" type="matrix" values="0 0 0 0 0 0 0 0 0 0 0 0 0 0 0 0 0 0 127 0"/>
<feOffset dy="4"/>
<feGaussianBlur stdDeviation="2"/>
<feColorMatrix type="matrix" values="0 0 0 0 0 0 0 0 0 0 0 0 0 0 0 0 0 0 0.25 0"/>
<feBlend mode="normal" in2="BackgroundImageFix" result="effect1_dropShadow"/>
<feBlend mode="normal" in="SourceGraphic" in2="effect1_dropShadow" result="shape"/>
</filter>
<clipPath id="clip0">
<rect width="63" height="64.8" fill="white" transform="translate(21.1 3.60001)"/>
</clipPath>
</defs>
</svg>
