<svg width="258" height="258" viewBox="0 0 258 258" fill="none" xmlns="http://www.w3.org/2000/svg">
<g filter="url(#filter0_d)">
<path d="M204 0H54C26.3858 0 4 22.3858 4 50V200C4 227.614 26.3858 250 54 250H204C231.614 250 254 227.614 254 200V50C254 22.3858 231.614 0 204 0Z" fill="#235789"/>
</g>
<g clip-path="url(#clip0)">
<path d="M113.516 59.8997H142.541C145.065 59.8997 147.111 57.8009 147.111 55.2122C147.111 52.6234 145.065 50.5247 142.541 50.5247H113.516C110.992 50.5247 108.946 52.6234 108.946 55.2122C108.946 57.8009 110.992 59.8997 113.516 59.8997Z" fill="white"/>
<path d="M162.525 15H55.5703C53.0463 15 51 17.0987 51 19.6875V170.312C51 172.901 53.0463 175 55.5703 175H162.525C165.049 175 167.095 172.901 167.095 170.312V19.6875C167.095 17.0987 165.049 15 162.525 15ZM157.954 165.625H60.1406V24.375H157.954V165.625Z" fill="white"/>
<path d="M207 128.594V30.9097C207 22.1372 200.041 15 191.488 15C182.935 15 175.976 22.1372 175.976 30.9097V128.594C175.976 131.04 177.803 133.046 180.133 133.26L176.248 144.266C175.84 145.423 175.892 146.699 176.392 147.817L187.334 172.268C188.079 173.933 189.702 175 191.488 175C193.274 175 194.897 173.933 195.642 172.268L206.583 147.817C207.084 146.698 207.136 145.423 206.727 144.266L202.843 133.26C205.173 133.046 207 131.04 207 128.594ZM185.116 123.907V54.0331H197.859V123.907H185.116V123.907ZM191.488 24.375C195.001 24.375 197.859 27.3066 197.859 30.9097V44.6581H185.116V30.9097C185.116 27.3066 187.975 24.375 191.488 24.375ZM191.488 159.075L185.481 145.652L189.846 133.282H193.13L197.495 145.652L191.488 159.075Z" fill="white"/>
<path d="M78.6355 64.1241C79.4926 65.0031 80.6549 65.4972 81.867 65.4972C83.079 65.4972 84.2417 65.0031 85.0985 64.1244L98.981 49.8859C100.766 48.0553 100.766 45.0875 98.981 43.2569C97.1964 41.4263 94.3025 41.4263 92.5176 43.2569L81.867 54.1806L78.5563 50.7844C76.772 48.9538 73.8781 48.9538 72.0929 50.7844C70.3081 52.615 70.3081 55.5828 72.0929 57.4134L78.6355 64.1241Z" fill="white"/>
<path d="M113.516 88.3387H142.541C145.065 88.3387 147.111 86.24 147.111 83.6512C147.111 81.0625 145.065 78.9637 142.541 78.9637H113.516C110.992 78.9637 108.946 81.0625 108.946 83.6512C108.946 86.24 110.992 88.3387 113.516 88.3387Z" fill="white"/>
<path d="M78.6355 92.5628C79.4926 93.4419 80.6549 93.9359 81.867 93.9359C83.079 93.9359 84.2417 93.4419 85.0985 92.5631L98.981 78.3247C100.766 76.4941 100.766 73.5263 98.981 71.6956C97.1964 69.865 94.3025 69.865 92.5176 71.6956L81.867 82.6194L78.5563 79.2238C76.772 77.3931 73.8781 77.3931 72.0929 79.2238C70.3081 81.0544 70.3081 84.0222 72.0929 85.8528L78.6355 92.5628Z" fill="white"/>
<path d="M113.516 116.777H142.541C145.065 116.777 147.111 114.679 147.111 112.09C147.111 109.501 145.065 107.402 142.541 107.402H113.516C110.992 107.402 108.946 109.501 108.946 112.09C108.946 114.679 110.992 116.777 113.516 116.777Z" fill="white"/>
<path d="M113.516 146.306H142.541C145.065 146.306 147.111 144.207 147.111 141.618C147.111 139.029 145.065 136.931 142.541 136.931H113.516C110.992 136.931 108.946 139.029 108.946 141.618C108.946 144.207 110.992 146.306 113.516 146.306Z" fill="white"/>
<path d="M78.6355 121.002C79.4926 121.881 80.6549 122.375 81.867 122.375C83.079 122.375 84.2417 121.881 85.0985 121.002L98.981 106.764C100.766 104.933 100.766 101.966 98.981 100.135C97.1964 98.3044 94.3025 98.3047 92.5176 100.135L81.867 111.059L78.5563 107.662C76.772 105.832 73.8781 105.832 72.0929 107.662C70.3078 109.493 70.3081 112.461 72.0929 114.292L78.6355 121.002Z" fill="white"/>
</g>
<path d="M55.4867 204.392C55.4867 203.896 55.2787 203.504 54.8627 203.216C54.4467 202.928 53.9267 202.664 53.3027 202.424C52.6947 202.184 52.0307 201.944 51.3107 201.704C50.5907 201.464 49.9187 201.144 49.2947 200.744C48.6867 200.344 48.1747 199.84 47.7587 199.232C47.3427 198.624 47.1347 197.832 47.1347 196.856C47.1347 196.024 47.2787 195.296 47.5667 194.672C47.8707 194.032 48.2867 193.512 48.8147 193.112C49.3587 192.696 50.0067 192.384 50.7587 192.176C51.5267 191.968 52.3667 191.864 53.2787 191.864C54.3347 191.864 55.3347 191.96 56.2787 192.152C57.2387 192.328 58.0227 192.584 58.6307 192.92L57.5027 195.896C57.3107 195.784 57.0627 195.672 56.7587 195.56C56.4707 195.432 56.1347 195.328 55.7507 195.248C55.3667 195.152 54.9587 195.08 54.5267 195.032C54.0947 194.968 53.6547 194.936 53.2067 194.936C52.4067 194.936 51.7827 195.08 51.3347 195.368C50.9027 195.64 50.6867 196.024 50.6867 196.52C50.6867 197.016 50.8947 197.416 51.3107 197.72C51.7267 198.008 52.2387 198.28 52.8467 198.536C53.4707 198.776 54.1427 199.024 54.8627 199.28C55.5827 199.52 56.2467 199.84 56.8547 200.24C57.4787 200.624 57.9987 201.112 58.4147 201.704C58.8307 202.296 59.0387 203.056 59.0387 203.984C59.0387 204.912 58.8787 205.712 58.5587 206.384C58.2387 207.056 57.7827 207.616 57.1907 208.064C56.6147 208.496 55.9187 208.816 55.1027 209.024C54.2867 209.232 53.3907 209.336 52.4147 209.336C51.7587 209.336 51.1347 209.296 50.5427 209.216C49.9667 209.152 49.4307 209.072 48.9347 208.976C48.4387 208.864 47.9987 208.752 47.6147 208.64C47.2467 208.512 46.9507 208.392 46.7267 208.28L47.9027 205.28C48.0787 205.376 48.3187 205.48 48.6227 205.592C48.9427 205.704 49.2947 205.816 49.6787 205.928C50.0627 206.024 50.4707 206.104 50.9027 206.168C51.3507 206.232 51.7987 206.264 52.2467 206.264C53.3027 206.264 54.1027 206.112 54.6467 205.808C55.2067 205.504 55.4867 205.032 55.4867 204.392ZM60.8674 202.712C60.8674 200.632 61.4194 199 62.5234 197.816C63.6274 196.632 65.2034 196.04 67.2514 196.04C68.3234 196.04 69.2594 196.208 70.0594 196.544C70.8594 196.88 71.5234 197.352 72.0514 197.96C72.5794 198.552 72.9714 199.256 73.2274 200.072C73.4994 200.872 73.6354 201.752 73.6354 202.712C73.6354 203.736 73.4914 204.664 73.2034 205.496C72.9154 206.312 72.4994 207.008 71.9554 207.584C71.4114 208.16 70.7394 208.6 69.9394 208.904C69.1554 209.208 68.2594 209.36 67.2514 209.36C66.1634 209.36 65.2194 209.192 64.4194 208.856C63.6194 208.52 62.9554 208.056 62.4274 207.464C61.8994 206.856 61.5074 206.152 61.2514 205.352C60.9954 204.536 60.8674 203.656 60.8674 202.712ZM64.3234 202.712C64.3234 203.24 64.3794 203.736 64.4914 204.2C64.6034 204.664 64.7714 205.072 64.9954 205.424C65.2354 205.76 65.5394 206.032 65.9074 206.24C66.2754 206.448 66.7234 206.552 67.2514 206.552C69.2034 206.552 70.1794 205.272 70.1794 202.712C70.1794 202.152 70.1234 201.64 70.0114 201.176C69.9154 200.696 69.7474 200.288 69.5074 199.952C69.2834 199.6 68.9794 199.328 68.5954 199.136C68.2274 198.944 67.7794 198.848 67.2514 198.848C66.3394 198.848 65.6194 199.152 65.0914 199.76C64.5794 200.368 64.3234 201.352 64.3234 202.712ZM79.8084 204.584C79.8084 205.8 80.2004 206.408 80.9844 206.408C81.2084 206.408 81.4164 206.392 81.6084 206.36C81.8164 206.312 82.0564 206.24 82.3284 206.144L82.7364 208.76C82.4164 208.904 81.9604 209.04 81.3684 209.168C80.7924 209.312 80.1924 209.384 79.5684 209.384C78.5604 209.384 77.7844 209.16 77.2404 208.712C76.7124 208.264 76.4484 207.528 76.4484 206.504V192.2H79.8084V204.584ZM84.8704 196.4H88.2304V209H84.8704V196.4ZM84.3664 193.256C84.3664 192.744 84.5504 192.32 84.9184 191.984C85.2864 191.632 85.8064 191.456 86.4784 191.456C87.1664 191.456 87.7104 191.632 88.1104 191.984C88.5104 192.336 88.7104 192.76 88.7104 193.256C88.7104 193.72 88.5104 194.12 88.1104 194.456C87.7104 194.792 87.1664 194.96 86.4784 194.96C85.8064 194.96 85.2864 194.792 84.9184 194.456C84.5504 194.12 84.3664 193.72 84.3664 193.256ZM101.584 208.232C101.04 208.6 100.384 208.88 99.6156 209.072C98.8636 209.264 98.0796 209.36 97.2636 209.36C96.1756 209.36 95.2556 209.2 94.5036 208.88C93.7676 208.56 93.1596 208.104 92.6796 207.512C92.2156 206.92 91.8796 206.224 91.6716 205.424C91.4636 204.608 91.3596 203.704 91.3596 202.712C91.3596 200.616 91.8716 198.984 92.8956 197.816C93.9356 196.632 95.4396 196.04 97.4076 196.04C98.3676 196.04 99.1516 196.12 99.7596 196.28C100.384 196.424 100.936 196.616 101.416 196.856L100.6 199.544C100.184 199.368 99.7676 199.24 99.3516 199.16C98.9516 199.064 98.4796 199.016 97.9356 199.016C96.9276 199.016 96.1516 199.312 95.6076 199.904C95.0796 200.48 94.8156 201.416 94.8156 202.712C94.8156 203.224 94.8796 203.704 95.0076 204.152C95.1356 204.584 95.3356 204.968 95.6076 205.304C95.8796 205.64 96.2236 205.904 96.6396 206.096C97.0556 206.288 97.5436 206.384 98.1036 206.384C98.7756 206.384 99.3036 206.328 99.6876 206.216C100.088 206.088 100.464 205.92 100.816 205.712L101.584 208.232ZM104.488 196.4H107.848V209H104.488V196.4ZM103.984 193.256C103.984 192.744 104.168 192.32 104.536 191.984C104.904 191.632 105.424 191.456 106.096 191.456C106.784 191.456 107.328 191.632 107.728 191.984C108.128 192.336 108.328 192.76 108.328 193.256C108.328 193.72 108.128 194.12 107.728 194.456C107.328 194.792 106.784 194.96 106.096 194.96C105.424 194.96 104.904 194.792 104.536 194.456C104.168 194.12 103.984 193.72 103.984 193.256ZM110.161 196.4H112.081V194.672L115.441 193.784V196.4H118.825V199.208H115.441V203.576C115.441 204.584 115.537 205.312 115.729 205.76C115.937 206.192 116.337 206.408 116.929 206.408C117.297 206.408 117.609 206.384 117.865 206.336C118.121 206.272 118.393 206.176 118.681 206.048L119.377 208.568C118.865 208.792 118.273 208.984 117.601 209.144C116.945 209.304 116.305 209.384 115.681 209.384C114.433 209.384 113.521 209.08 112.945 208.472C112.369 207.848 112.081 206.856 112.081 205.496V199.208H110.161V196.4ZM124.76 196.4V203.384C124.76 204.424 124.904 205.184 125.192 205.664C125.48 206.144 126.032 206.384 126.848 206.384C127.552 206.384 128.144 206.2 128.624 205.832C129.104 205.464 129.456 205 129.68 204.44V196.4H133.04V205.16C133.04 205.832 133.072 206.504 133.136 207.176C133.216 207.848 133.32 208.456 133.448 209H130.976L130.328 207.032H130.064C129.648 207.704 129.056 208.264 128.288 208.712C127.52 209.144 126.64 209.36 125.648 209.36C124.96 209.36 124.352 209.272 123.824 209.096C123.296 208.92 122.848 208.632 122.48 208.232C122.128 207.816 121.856 207.272 121.664 206.6C121.488 205.928 121.4 205.096 121.4 204.104V196.4H124.76ZM148.27 204.584C148.27 205.256 148.278 205.952 148.294 206.672C148.31 207.392 148.382 208.176 148.51 209.024H146.182L145.702 207.272H145.39C145.022 207.912 144.494 208.424 143.806 208.808C143.134 209.176 142.326 209.36 141.382 209.36C139.702 209.36 138.398 208.84 137.47 207.8C136.542 206.744 136.078 205.12 136.078 202.928C136.078 201.872 136.206 200.92 136.462 200.072C136.734 199.224 137.126 198.504 137.638 197.912C138.166 197.32 138.814 196.864 139.582 196.544C140.35 196.224 141.238 196.064 142.246 196.064C142.806 196.064 143.286 196.112 143.686 196.208C144.102 196.288 144.51 196.392 144.91 196.52V192.2H148.27V204.584ZM142.246 206.552C142.998 206.552 143.582 206.384 143.998 206.048C144.414 205.696 144.718 205.2 144.91 204.56V199.52C144.622 199.296 144.31 199.136 143.974 199.04C143.654 198.928 143.23 198.872 142.702 198.872C141.63 198.872 140.83 199.184 140.302 199.808C139.79 200.432 139.534 201.504 139.534 203.024C139.534 204.08 139.75 204.936 140.182 205.592C140.63 206.232 141.318 206.552 142.246 206.552ZM162.645 207.848C162.101 208.264 161.357 208.624 160.413 208.928C159.485 209.216 158.485 209.36 157.413 209.36C155.253 209.36 153.669 208.768 152.661 207.584C151.653 206.4 151.149 204.776 151.149 202.712C151.149 200.52 151.717 198.864 152.853 197.744C153.989 196.608 155.589 196.04 157.653 196.04C158.325 196.04 158.989 196.128 159.645 196.304C160.301 196.464 160.885 196.744 161.397 197.144C161.909 197.528 162.317 198.056 162.621 198.728C162.941 199.384 163.101 200.2 163.101 201.176C163.101 201.512 163.077 201.88 163.029 202.28C162.997 202.68 162.933 203.096 162.837 203.528H154.437C154.517 204.616 154.829 205.424 155.373 205.952C155.933 206.464 156.837 206.72 158.085 206.72C158.837 206.72 159.509 206.616 160.101 206.408C160.709 206.184 161.173 205.96 161.493 205.736L162.645 207.848ZM157.605 198.68C156.613 198.68 155.877 198.952 155.397 199.496C154.917 200.024 154.637 200.704 154.557 201.536H159.981C160.045 200.656 159.885 199.96 159.501 199.448C159.117 198.936 158.485 198.68 157.605 198.68ZM166.095 205.736C166.319 205.848 166.575 205.96 166.863 206.072C167.167 206.184 167.487 206.288 167.823 206.384C168.175 206.48 168.527 206.56 168.879 206.624C169.247 206.688 169.615 206.72 169.983 206.72C170.543 206.72 170.975 206.632 171.279 206.456C171.599 206.28 171.759 205.952 171.759 205.472C171.759 205.088 171.551 204.808 171.135 204.632C170.719 204.44 170.207 204.256 169.599 204.08C169.151 203.952 168.679 203.8 168.183 203.624C167.703 203.448 167.255 203.216 166.839 202.928C166.439 202.624 166.103 202.232 165.831 201.752C165.575 201.272 165.447 200.664 165.447 199.928C165.447 198.664 165.839 197.704 166.623 197.048C167.407 196.376 168.535 196.04 170.007 196.04C170.967 196.04 171.863 196.128 172.695 196.304C173.543 196.464 174.223 196.656 174.735 196.88L174.039 199.424C173.623 199.264 173.087 199.104 172.431 198.944C171.791 198.768 171.135 198.68 170.463 198.68C169.903 198.68 169.487 198.768 169.215 198.944C168.943 199.104 168.807 199.392 168.807 199.808C168.807 200.176 169.015 200.456 169.431 200.648C169.863 200.824 170.383 201 170.991 201.176C171.439 201.304 171.903 201.456 172.383 201.632C172.879 201.792 173.327 202.016 173.727 202.304C174.127 202.592 174.455 202.968 174.711 203.432C174.983 203.88 175.119 204.448 175.119 205.136C175.119 206.48 174.679 207.52 173.799 208.256C172.935 208.992 171.631 209.36 169.887 209.36C168.943 209.36 168.063 209.272 167.247 209.096C166.431 208.936 165.767 208.696 165.255 208.376L166.095 205.736ZM195.825 204.584C195.825 205.256 195.833 205.952 195.849 206.672C195.865 207.392 195.937 208.176 196.065 209.024H193.737L193.257 207.272H192.945C192.577 207.912 192.049 208.424 191.361 208.808C190.689 209.176 189.881 209.36 188.937 209.36C187.257 209.36 185.953 208.84 185.025 207.8C184.097 206.744 183.633 205.12 183.633 202.928C183.633 201.872 183.761 200.92 184.017 200.072C184.289 199.224 184.681 198.504 185.193 197.912C185.721 197.32 186.369 196.864 187.137 196.544C187.905 196.224 188.793 196.064 189.801 196.064C190.361 196.064 190.841 196.112 191.241 196.208C191.657 196.288 192.065 196.392 192.465 196.52V192.2H195.825V204.584ZM189.801 206.552C190.553 206.552 191.137 206.384 191.553 206.048C191.969 205.696 192.273 205.2 192.465 204.56V199.52C192.177 199.296 191.865 199.136 191.529 199.04C191.209 198.928 190.785 198.872 190.257 198.872C189.185 198.872 188.385 199.184 187.857 199.808C187.345 200.432 187.089 201.504 187.089 203.024C187.089 204.08 187.305 204.936 187.737 205.592C188.185 206.232 188.873 206.552 189.801 206.552ZM210.199 207.848C209.655 208.264 208.911 208.624 207.967 208.928C207.039 209.216 206.039 209.36 204.967 209.36C202.807 209.36 201.223 208.768 200.215 207.584C199.207 206.4 198.703 204.776 198.703 202.712C198.703 200.52 199.271 198.864 200.407 197.744C201.543 196.608 203.143 196.04 205.207 196.04C205.879 196.04 206.543 196.128 207.199 196.304C207.855 196.464 208.439 196.744 208.951 197.144C209.463 197.528 209.871 198.056 210.175 198.728C210.495 199.384 210.655 200.2 210.655 201.176C210.655 201.512 210.631 201.88 210.583 202.28C210.551 202.68 210.487 203.096 210.391 203.528H201.991C202.071 204.616 202.383 205.424 202.927 205.952C203.487 206.464 204.391 206.72 205.639 206.72C206.391 206.72 207.063 206.616 207.655 206.408C208.263 206.184 208.727 205.96 209.047 205.736L210.199 207.848ZM205.159 198.68C204.167 198.68 203.431 198.952 202.951 199.496C202.471 200.024 202.191 200.704 202.111 201.536H207.535C207.599 200.656 207.439 199.96 207.055 199.448C206.671 198.936 206.039 198.68 205.159 198.68ZM97.1251 238.848C96.5811 239.264 95.8371 239.624 94.8931 239.928C93.9651 240.216 92.9651 240.36 91.8931 240.36C89.7331 240.36 88.1491 239.768 87.1411 238.584C86.1331 237.4 85.6291 235.776 85.6291 233.712C85.6291 231.52 86.1971 229.864 87.3331 228.744C88.4691 227.608 90.0691 227.04 92.1331 227.04C92.8051 227.04 93.4691 227.128 94.1251 227.304C94.7811 227.464 95.3651 227.744 95.8771 228.144C96.3891 228.528 96.7971 229.056 97.1011 229.728C97.4211 230.384 97.5811 231.2 97.5811 232.176C97.5811 232.512 97.5571 232.88 97.5091 233.28C97.4771 233.68 97.4131 234.096 97.3171 234.528H88.9171C88.9971 235.616 89.3091 236.424 89.8531 236.952C90.4131 237.464 91.3171 237.72 92.5651 237.72C93.3171 237.72 93.9891 237.616 94.5811 237.408C95.1891 237.184 95.6531 236.96 95.9731 236.736L97.1251 238.848ZM92.0851 229.68C91.0931 229.68 90.3571 229.952 89.8771 230.496C89.3971 231.024 89.1171 231.704 89.0371 232.536H94.4611C94.5251 231.656 94.3651 230.96 93.9811 230.448C93.5971 229.936 92.9651 229.68 92.0851 229.68ZM108.471 240V233.424C108.471 232.208 108.343 231.336 108.087 230.808C107.831 230.28 107.303 230.016 106.503 230.016C105.831 230.016 105.295 230.184 104.895 230.52C104.495 230.84 104.183 231.264 103.959 231.792V240H100.599V227.4H103.191L103.575 229.152H103.887C104.095 228.88 104.335 228.616 104.607 228.36C104.879 228.104 105.175 227.88 105.495 227.688C105.831 227.496 106.199 227.344 106.599 227.232C107.015 227.104 107.479 227.04 107.991 227.04C108.839 227.04 109.543 227.232 110.103 227.616C110.679 227.984 111.135 228.608 111.471 229.488C111.935 228.72 112.495 228.12 113.151 227.688C113.823 227.256 114.599 227.04 115.479 227.04C116.247 227.04 116.895 227.128 117.423 227.304C117.967 227.48 118.407 227.784 118.743 228.216C119.079 228.648 119.319 229.232 119.463 229.968C119.623 230.704 119.703 231.624 119.703 232.728V240H116.343V233.256C116.343 232.728 116.319 232.264 116.271 231.864C116.223 231.464 116.127 231.128 115.983 230.856C115.839 230.568 115.631 230.36 115.359 230.232C115.103 230.088 114.759 230.016 114.327 230.016C113.655 230.016 113.111 230.192 112.695 230.544C112.295 230.88 112.007 231.352 111.831 231.96V240H108.471ZM123.169 227.4H125.569L125.977 228.96H126.265C126.761 228.32 127.337 227.84 127.993 227.52C128.649 227.2 129.417 227.04 130.297 227.04C131.993 227.04 133.265 227.552 134.113 228.576C134.961 229.584 135.385 231.192 135.385 233.4C135.385 234.456 135.249 235.416 134.977 236.28C134.705 237.128 134.305 237.864 133.777 238.488C133.249 239.096 132.593 239.568 131.809 239.904C131.041 240.224 130.153 240.384 129.145 240.384C128.601 240.384 128.129 240.328 127.729 240.216C127.329 240.12 126.929 239.984 126.529 239.808V244.776H123.169V227.4ZM129.265 229.848C128.497 229.848 127.905 230.024 127.489 230.376C127.073 230.712 126.753 231.24 126.529 231.96V236.856C126.801 237.08 127.105 237.256 127.441 237.384C127.777 237.512 128.201 237.576 128.713 237.576C129.801 237.576 130.609 237.24 131.137 236.568C131.665 235.88 131.929 234.792 131.929 233.304C131.929 232.232 131.721 231.392 131.305 230.784C130.905 230.16 130.225 229.848 129.265 229.848ZM141.555 235.584C141.555 236.8 141.947 237.408 142.731 237.408C142.955 237.408 143.163 237.392 143.355 237.36C143.563 237.312 143.803 237.24 144.075 237.144L144.483 239.76C144.163 239.904 143.707 240.04 143.115 240.168C142.539 240.312 141.939 240.384 141.315 240.384C140.307 240.384 139.531 240.16 138.987 239.712C138.459 239.264 138.195 238.528 138.195 237.504V223.2H141.555V235.584ZM156.984 238.848C156.44 239.264 155.696 239.624 154.752 239.928C153.824 240.216 152.824 240.36 151.752 240.36C149.592 240.36 148.008 239.768 147 238.584C145.992 237.4 145.488 235.776 145.488 233.712C145.488 231.52 146.056 229.864 147.192 228.744C148.328 227.608 149.928 227.04 151.992 227.04C152.664 227.04 153.328 227.128 153.984 227.304C154.64 227.464 155.224 227.744 155.736 228.144C156.248 228.528 156.656 229.056 156.96 229.728C157.28 230.384 157.44 231.2 157.44 232.176C157.44 232.512 157.416 232.88 157.368 233.28C157.336 233.68 157.272 234.096 157.176 234.528H148.776C148.856 235.616 149.168 236.424 149.712 236.952C150.272 237.464 151.176 237.72 152.424 237.72C153.176 237.72 153.848 237.616 154.44 237.408C155.048 237.184 155.512 236.96 155.832 236.736L156.984 238.848ZM151.944 229.68C150.952 229.68 150.216 229.952 149.736 230.496C149.256 231.024 148.976 231.704 148.896 232.536H154.32C154.384 231.656 154.224 230.96 153.84 230.448C153.456 229.936 152.824 229.68 151.944 229.68ZM159.598 233.712C159.598 231.632 160.15 230 161.254 228.816C162.358 227.632 163.934 227.04 165.982 227.04C167.054 227.04 167.99 227.208 168.79 227.544C169.59 227.88 170.254 228.352 170.782 228.96C171.31 229.552 171.702 230.256 171.958 231.072C172.23 231.872 172.366 232.752 172.366 233.712C172.366 234.736 172.222 235.664 171.934 236.496C171.646 237.312 171.23 238.008 170.686 238.584C170.142 239.16 169.47 239.6 168.67 239.904C167.886 240.208 166.99 240.36 165.982 240.36C164.894 240.36 163.95 240.192 163.15 239.856C162.35 239.52 161.686 239.056 161.158 238.464C160.63 237.856 160.238 237.152 159.982 236.352C159.726 235.536 159.598 234.656 159.598 233.712ZM163.054 233.712C163.054 234.24 163.11 234.736 163.222 235.2C163.334 235.664 163.502 236.072 163.726 236.424C163.966 236.76 164.27 237.032 164.638 237.24C165.006 237.448 165.454 237.552 165.982 237.552C167.934 237.552 168.91 236.272 168.91 233.712C168.91 233.152 168.854 232.64 168.742 232.176C168.646 231.696 168.478 231.288 168.238 230.952C168.014 230.6 167.71 230.328 167.326 230.136C166.958 229.944 166.51 229.848 165.982 229.848C165.07 229.848 164.35 230.152 163.822 230.76C163.31 231.368 163.054 232.352 163.054 233.712Z" fill="white"/>
<defs>
<filter id="filter0_d" x="0" y="0" width="258" height="258" filterUnits="userSpaceOnUse" color-interpolation-filters="sRGB">
<feFlood flood-opacity="0" result="BackgroundImageFix"/>
<feColorMatrix in="SourceAlpha" type="matrix" values="0 0 0 0 0 0 0 0 0 0 0 0 0 0 0 0 0 0 127 0"/>
<feOffset dy="4"/>
<feGaussianBlur stdDeviation="2"/>
<feColorMatrix type="matrix" values="0 0 0 0 0 0 0 0 0 0 0 0 0 0 0 0 0 0 0.25 0"/>
<feBlend mode="normal" in2="BackgroundImageFix" result="effect1_dropShadow"/>
<feBlend mode="normal" in="SourceGraphic" in2="effect1_dropShadow" result="shape"/>
</filter>
<clipPath id="clip0">
<rect width="156" height="160" fill="white" transform="translate(51 15)"/>
</clipPath>
</defs>
</svg>
