<svg width="258" height="258" viewBox="0 0 258 258" fill="none" xmlns="http://www.w3.org/2000/svg">
<g filter="url(#filter0_d)">
<path d="M204 0H54C26.3858 0 4 22.3858 4 50V200C4 227.614 26.3858 250 54 250H204C231.614 250 254 227.614 254 200V50C254 22.3858 231.614 0 204 0Z" fill="#6761A8"/>
</g>
<path d="M58.88 221.12H56.96V219.2H64.352V221.12H62.432V234.08H64.352V236H56.96V234.08H58.88V221.12ZM75.5287 236V229.088C75.5287 228 75.3607 227.216 75.0247 226.736C74.6887 226.256 74.0967 226.016 73.2487 226.016C72.5287 226.016 71.9127 226.216 71.4007 226.616C70.9047 227 70.5607 227.496 70.3687 228.104C70.3687 229.416 70.3687 230.736 70.3687 232.064C70.3847 233.376 70.3927 234.688 70.3927 236H67.0327V223.4H69.6727L70.0327 225.2H70.3927C70.8087 224.608 71.3607 224.104 72.0487 223.688C72.7367 223.256 73.6327 223.04 74.7367 223.04C75.4087 223.04 76.0007 223.128 76.5127 223.304C77.0407 223.464 77.4727 223.752 77.8087 224.168C78.1607 224.568 78.4247 225.112 78.6007 225.8C78.7927 226.488 78.8887 227.352 78.8887 228.392V236H75.5287ZM86.7774 229.928L87.2814 231.872H87.6654L88.0254 229.88L90.3774 223.4H94.0014L88.2414 236.12H86.3214L80.3214 223.4H84.2334L86.7774 229.928ZM106.027 234.848C105.483 235.264 104.739 235.624 103.795 235.928C102.867 236.216 101.867 236.36 100.795 236.36C98.6354 236.36 97.0514 235.768 96.0434 234.584C95.0354 233.4 94.5314 231.776 94.5314 229.712C94.5314 227.52 95.0994 225.864 96.2354 224.744C97.3714 223.608 98.9714 223.04 101.035 223.04C101.707 223.04 102.371 223.128 103.027 223.304C103.683 223.464 104.267 223.744 104.779 224.144C105.291 224.528 105.699 225.056 106.003 225.728C106.323 226.384 106.483 227.2 106.483 228.176C106.483 228.512 106.459 228.88 106.411 229.28C106.379 229.68 106.315 230.096 106.219 230.528H97.8194C97.8994 231.616 98.2114 232.424 98.7554 232.952C99.3154 233.464 100.219 233.72 101.467 233.72C102.219 233.72 102.891 233.616 103.483 233.408C104.091 233.184 104.555 232.96 104.875 232.736L106.027 234.848ZM100.987 225.68C99.9954 225.68 99.2594 225.952 98.7794 226.496C98.2994 227.024 98.0194 227.704 97.9394 228.536H103.363C103.427 227.656 103.267 226.96 102.883 226.448C102.499 225.936 101.867 225.68 100.987 225.68ZM117.997 236V229.088C117.997 228 117.829 227.216 117.493 226.736C117.157 226.256 116.565 226.016 115.717 226.016C114.997 226.016 114.381 226.216 113.869 226.616C113.373 227 113.029 227.496 112.837 228.104C112.837 229.416 112.837 230.736 112.837 232.064C112.853 233.376 112.861 234.688 112.861 236H109.501V223.4H112.141L112.501 225.2H112.861C113.277 224.608 113.829 224.104 114.517 223.688C115.205 223.256 116.101 223.04 117.205 223.04C117.877 223.04 118.469 223.128 118.981 223.304C119.509 223.464 119.941 223.752 120.277 224.168C120.629 224.568 120.893 225.112 121.069 225.8C121.261 226.488 121.357 227.352 121.357 228.392V236H117.997ZM123.27 223.4H125.19V221.672L128.55 220.784V223.4H131.934V226.208H128.55V230.576C128.55 231.584 128.646 232.312 128.838 232.76C129.046 233.192 129.446 233.408 130.038 233.408C130.406 233.408 130.718 233.384 130.974 233.336C131.23 233.272 131.502 233.176 131.79 233.048L132.486 235.568C131.974 235.792 131.382 235.984 130.71 236.144C130.054 236.304 129.414 236.384 128.79 236.384C127.542 236.384 126.63 236.08 126.054 235.472C125.478 234.848 125.19 233.856 125.19 232.496V226.208H123.27V223.4ZM134.389 224.264C135.109 223.944 135.989 223.68 137.029 223.472C138.085 223.264 139.173 223.16 140.293 223.16C141.173 223.16 141.909 223.264 142.501 223.472C143.109 223.68 143.589 223.984 143.941 224.384C144.293 224.768 144.541 225.24 144.685 225.8C144.845 226.344 144.925 226.952 144.925 227.624C144.925 228.44 144.893 229.248 144.829 230.048C144.765 230.848 144.733 231.696 144.733 232.592C144.733 233.2 144.773 233.792 144.853 234.368C144.933 234.944 145.061 235.496 145.237 236.024H142.501L141.949 234.152H141.661C141.245 234.712 140.717 235.192 140.077 235.592C139.437 235.992 138.613 236.192 137.605 236.192C136.997 236.192 136.437 236.104 135.925 235.928C135.429 235.752 134.997 235.504 134.629 235.184C134.277 234.848 133.997 234.456 133.789 234.008C133.597 233.56 133.501 233.072 133.501 232.544C133.501 231.12 133.973 230.048 134.917 229.328C135.877 228.592 137.325 228.224 139.261 228.224C139.709 228.224 140.157 228.264 140.605 228.344C141.053 228.408 141.365 228.456 141.541 228.488C141.589 228.152 141.613 227.864 141.613 227.624C141.613 227.016 141.461 226.568 141.157 226.28C140.853 225.992 140.285 225.848 139.453 225.848C138.685 225.848 137.933 225.944 137.197 226.136C136.477 226.312 135.837 226.536 135.277 226.808L134.389 224.264ZM138.781 233.504C139.533 233.504 140.133 233.328 140.581 232.976C141.029 232.624 141.357 232.256 141.565 231.872V230.432C141.485 230.4 141.357 230.368 141.181 230.336C141.021 230.304 140.837 230.272 140.629 230.24C140.437 230.208 140.237 230.184 140.029 230.168C139.837 230.152 139.661 230.144 139.501 230.144C138.637 230.144 137.997 230.304 137.581 230.624C137.165 230.928 136.957 231.312 136.957 231.776C136.957 232.352 137.117 232.784 137.437 233.072C137.773 233.36 138.221 233.504 138.781 233.504ZM155.848 226.472C155.368 226.312 154.888 226.232 154.408 226.232C153.704 226.232 153.12 226.4 152.656 226.736C152.208 227.072 151.912 227.496 151.768 228.008V236H148.408V223.4H151.048L151.408 225.152H151.72C152.04 224.496 152.464 223.992 152.992 223.64C153.536 223.288 154.152 223.112 154.84 223.112C155.272 223.112 155.768 223.2 156.328 223.376L155.848 226.472ZM158.566 223.4H161.926V236H158.566V223.4ZM158.062 220.256C158.062 219.744 158.246 219.32 158.614 218.984C158.982 218.632 159.502 218.456 160.174 218.456C160.862 218.456 161.406 218.632 161.806 218.984C162.206 219.336 162.406 219.76 162.406 220.256C162.406 220.72 162.206 221.12 161.806 221.456C161.406 221.792 160.862 221.96 160.174 221.96C159.502 221.96 158.982 221.792 158.614 221.456C158.246 221.12 158.062 220.72 158.062 220.256ZM165.055 229.712C165.055 227.632 165.607 226 166.711 224.816C167.815 223.632 169.391 223.04 171.439 223.04C172.511 223.04 173.447 223.208 174.247 223.544C175.047 223.88 175.711 224.352 176.239 224.96C176.767 225.552 177.159 226.256 177.415 227.072C177.687 227.872 177.823 228.752 177.823 229.712C177.823 230.736 177.679 231.664 177.391 232.496C177.103 233.312 176.687 234.008 176.143 234.584C175.599 235.16 174.927 235.6 174.127 235.904C173.343 236.208 172.447 236.36 171.439 236.36C170.351 236.36 169.407 236.192 168.607 235.856C167.807 235.52 167.143 235.056 166.615 234.464C166.087 233.856 165.695 233.152 165.439 232.352C165.183 231.536 165.055 230.656 165.055 229.712ZM168.511 229.712C168.511 230.24 168.567 230.736 168.679 231.2C168.791 231.664 168.959 232.072 169.183 232.424C169.423 232.76 169.727 233.032 170.095 233.24C170.463 233.448 170.911 233.552 171.439 233.552C173.391 233.552 174.367 232.272 174.367 229.712C174.367 229.152 174.311 228.64 174.199 228.176C174.103 227.696 173.935 227.288 173.695 226.952C173.471 226.6 173.167 226.328 172.783 226.136C172.415 225.944 171.967 225.848 171.439 225.848C170.527 225.848 169.807 226.152 169.279 226.76C168.767 227.368 168.511 228.352 168.511 229.712ZM180.54 232.736C180.764 232.848 181.02 232.96 181.308 233.072C181.612 233.184 181.932 233.288 182.268 233.384C182.62 233.48 182.972 233.56 183.324 233.624C183.692 233.688 184.06 233.72 184.428 233.72C184.988 233.72 185.42 233.632 185.724 233.456C186.044 233.28 186.204 232.952 186.204 232.472C186.204 232.088 185.996 231.808 185.58 231.632C185.164 231.44 184.652 231.256 184.044 231.08C183.596 230.952 183.124 230.8 182.628 230.624C182.148 230.448 181.7 230.216 181.284 229.928C180.884 229.624 180.548 229.232 180.276 228.752C180.02 228.272 179.892 227.664 179.892 226.928C179.892 225.664 180.284 224.704 181.068 224.048C181.852 223.376 182.98 223.04 184.452 223.04C185.412 223.04 186.308 223.128 187.14 223.304C187.988 223.464 188.668 223.656 189.18 223.88L188.484 226.424C188.068 226.264 187.532 226.104 186.876 225.944C186.236 225.768 185.58 225.68 184.908 225.68C184.348 225.68 183.932 225.768 183.66 225.944C183.388 226.104 183.252 226.392 183.252 226.808C183.252 227.176 183.46 227.456 183.876 227.648C184.308 227.824 184.828 228 185.436 228.176C185.884 228.304 186.348 228.456 186.828 228.632C187.324 228.792 187.772 229.016 188.172 229.304C188.572 229.592 188.9 229.968 189.156 230.432C189.428 230.88 189.564 231.448 189.564 232.136C189.564 233.48 189.124 234.52 188.244 235.256C187.38 235.992 186.076 236.36 184.332 236.36C183.388 236.36 182.508 236.272 181.692 236.096C180.876 235.936 180.212 235.696 179.7 235.376L180.54 232.736Z" fill="white"/>
<path d="M214.187 106.904C213.504 104.541 211.943 102.556 209.847 101.385C207.751 100.214 205.292 99.953 203.011 100.66L122.716 125.541C122.271 125.68 121.863 125.923 121.524 126.252L111.769 135.747C111.364 136.141 111.073 136.644 110.928 137.2C110.784 137.756 110.791 138.343 110.951 138.894C111.11 139.446 111.414 139.941 111.83 140.323C112.245 140.706 112.755 140.961 113.303 141.06L126.49 143.445C126.947 143.528 127.417 143.499 127.863 143.362L193.014 123.172L193.297 129.556L172.594 135.971L174.31 141.912L197.251 134.803C197.891 134.605 198.448 134.191 198.835 133.627C199.221 133.063 199.415 132.382 199.384 131.691L198.927 121.343L208.158 118.482C210.44 117.775 212.357 116.158 213.487 113.987C214.618 111.817 214.87 109.269 214.187 106.906V106.904ZM126.824 137.212L120.231 136.019L125.109 131.272L138.77 127.039L140.486 132.979L126.824 137.212ZM146.221 131.201L144.505 125.262L192.451 110.404L192.733 116.788L146.221 131.201ZM208.219 111.041C208.033 111.4 207.781 111.718 207.476 111.975C207.171 112.232 206.82 112.424 206.443 112.54L198.645 114.956L198.363 108.572L204.727 106.6C205.294 106.424 205.899 106.426 206.465 106.607C207.03 106.787 207.532 107.137 207.906 107.612C208.28 108.088 208.509 108.667 208.565 109.278C208.62 109.888 208.5 110.502 208.219 111.041Z" fill="white"/>
<path d="M152.731 150.407H101.845V103.905C101.845 103.082 101.53 102.294 100.969 101.712C100.407 101.131 99.6461 100.804 98.8522 100.804H44.9731C44.1793 100.804 43.4179 101.131 42.8566 101.712C42.2952 102.294 41.9799 103.082 41.9799 103.905V203.11C41.9799 203.932 42.2952 204.72 42.8566 205.302C43.4179 205.883 44.1793 206.21 44.9731 206.21H152.731C153.525 206.21 154.286 205.883 154.848 205.302C155.409 204.72 155.725 203.932 155.725 203.11V153.507C155.725 152.685 155.409 151.896 154.848 151.315C154.286 150.733 153.525 150.407 152.731 150.407ZM119.805 156.607H131.778V169.008H119.805V156.607ZM65.9261 107.005H77.8992V119.405H65.9261V107.005ZM47.9664 107.005H59.9395V122.505C59.9395 123.328 60.2549 124.116 60.8163 124.698C61.3776 125.279 62.139 125.606 62.9328 125.606H80.8925C81.6864 125.606 82.4477 125.279 83.0091 124.698C83.5704 124.116 83.8858 123.328 83.8858 122.505V107.005H95.8589V150.407H47.9664V107.005ZM65.9261 156.607H77.8992V169.008H65.9261V156.607ZM47.9664 156.607H59.9395V172.108C59.9395 172.93 60.2549 173.719 60.8163 174.3C61.3776 174.882 62.139 175.208 62.9328 175.208H80.8925C81.6864 175.208 82.4477 174.882 83.0091 174.3C83.5704 173.719 83.8858 172.93 83.8858 172.108V156.607H95.8589V200.009H47.9664V156.607ZM149.738 200.009H101.845V156.607H113.819V172.108C113.819 172.93 114.134 173.719 114.695 174.3C115.257 174.882 116.018 175.208 116.812 175.208H134.772C135.565 175.208 136.327 174.882 136.888 174.3C137.45 173.719 137.765 172.93 137.765 172.108V156.607H149.738V200.009Z" fill="white"/>
<path d="M137.765 187.609H143.751V193.809H137.765V187.609Z" fill="white"/>
<path d="M83.8858 187.609H89.8724V193.809H83.8858V187.609Z" fill="white"/>
<path d="M83.8858 138.006H89.8724V144.207H83.8858V138.006Z" fill="white"/>
<path d="M89.8724 45.0016C89.8742 43.3577 90.5056 41.7818 91.6279 40.6194C92.7502 39.4571 94.2718 38.8032 95.8589 38.8012H113.819V45.0016H98.8522C98.0583 45.0016 97.297 45.3282 96.7356 45.9096C96.1743 46.491 95.8589 47.2795 95.8589 48.1017V94.6041H101.845V51.2019H173.684V100.804H179.671V48.1017C179.671 47.2795 179.355 46.491 178.794 45.9096C178.233 45.3282 177.471 45.0016 176.678 45.0016H161.711V38.8012H179.671C181.258 38.8032 182.78 39.4571 183.902 40.6194C185.024 41.7818 185.655 43.3577 185.657 45.0016V97.7042H191.644V45.0016C191.64 41.7138 190.378 38.5618 188.133 36.2371C185.889 33.9123 182.845 32.6046 179.671 32.6009H150.578L152.642 24.0523C152.752 23.5952 152.76 23.1181 152.666 22.6573C152.572 22.1964 152.377 21.7639 152.097 21.3926C151.817 21.0213 151.459 20.7209 151.051 20.5143C150.642 20.3077 150.193 20.2003 149.738 20.2003H125.792C125.337 20.2003 124.888 20.3077 124.479 20.5143C124.07 20.7209 123.712 21.0213 123.433 21.3926C123.153 21.7639 122.958 22.1964 122.864 22.6573C122.769 23.1181 122.778 23.5952 122.888 24.0523L124.951 32.6009H95.8589C92.6846 32.6046 89.6412 33.9123 87.3966 36.2371C85.152 38.5618 83.8894 41.7138 83.8858 45.0016V94.6041H89.8724V45.0016ZM119.805 38.8012H128.785C129.24 38.8012 129.689 38.6939 130.098 38.4873C130.506 38.2807 130.864 37.9803 131.144 37.609C131.424 37.2376 131.619 36.8051 131.713 36.3443C131.807 35.8834 131.799 35.4063 131.689 34.9493L129.625 26.4006H145.904L143.841 34.9493C143.731 35.4063 143.722 35.8834 143.817 36.3443C143.911 36.8051 144.106 37.2376 144.385 37.609C144.665 37.9803 145.023 38.2807 145.432 38.4873C145.841 38.6939 146.29 38.8012 146.745 38.8012H155.725V45.0016H119.805V38.8012Z" fill="white"/>
<path d="M185.657 172.108C185.655 173.752 185.024 175.328 183.902 176.49C182.78 177.652 181.258 178.306 179.671 178.308H161.711V184.509H179.671C182.845 184.505 185.889 183.197 188.133 180.872C190.378 178.548 191.64 175.396 191.644 172.108V144.207H185.657V172.108Z" fill="white"/>
<path d="M179.671 169.008V147.307H173.684V165.908H161.711V172.108H176.678C177.471 172.108 178.233 171.781 178.794 171.2C179.355 170.619 179.671 169.83 179.671 169.008Z" fill="white"/>
<path d="M125.792 60.5023C125.792 59.6801 125.476 58.8916 124.915 58.3102C124.354 57.7288 123.592 57.4022 122.798 57.4022H110.825C110.031 57.4022 109.27 57.7288 108.709 58.3102C108.147 58.8916 107.832 59.6801 107.832 60.5023V72.903C107.832 73.7252 108.147 74.5137 108.709 75.0951C109.27 75.6765 110.031 76.0031 110.825 76.0031H122.798C123.592 76.0031 124.354 75.6765 124.915 75.0951C125.476 74.5137 125.792 73.7252 125.792 72.903V60.5023ZM119.805 69.8028H113.819V63.6025H119.805V69.8028Z" fill="white"/>
<path d="M122.798 85.3036H110.825C110.031 85.3036 109.27 85.6302 108.709 86.2116C108.147 86.793 107.832 87.5815 107.832 88.4038V100.804C107.832 101.627 108.147 102.415 108.709 102.997C109.27 103.578 110.031 103.905 110.825 103.905H122.798C123.592 103.905 124.354 103.578 124.915 102.997C125.476 102.415 125.792 101.627 125.792 100.804V88.4038C125.792 87.5815 125.476 86.793 124.915 86.2116C124.354 85.6302 123.592 85.3036 122.798 85.3036ZM119.805 97.7042H113.819V91.5039H119.805V97.7042Z" fill="white"/>
<path d="M131.778 57.4022H137.765V63.6025H131.778V57.4022Z" fill="white"/>
<path d="M131.778 69.8028H167.698V76.0031H131.778V69.8028Z" fill="white"/>
<path d="M143.751 57.4022H167.698V63.6025H143.751V57.4022Z" fill="white"/>
<path d="M131.778 85.3036H137.765V91.5039H131.778V85.3036Z" fill="white"/>
<path d="M131.778 97.7042H167.698V103.905H131.778V97.7042Z" fill="white"/>
<path d="M143.751 85.3036H167.698V91.5039H143.751V85.3036Z" fill="white"/>
<defs>
<filter id="filter0_d" x="0" y="0" width="258" height="258" filterUnits="userSpaceOnUse" color-interpolation-filters="sRGB">
<feFlood flood-opacity="0" result="BackgroundImageFix"/>
<feColorMatrix in="SourceAlpha" type="matrix" values="0 0 0 0 0 0 0 0 0 0 0 0 0 0 0 0 0 0 127 0"/>
<feOffset dy="4"/>
<feGaussianBlur stdDeviation="2"/>
<feColorMatrix type="matrix" values="0 0 0 0 0 0 0 0 0 0 0 0 0 0 0 0 0 0 0.25 0"/>
<feBlend mode="normal" in2="BackgroundImageFix" result="effect1_dropShadow"/>
<feBlend mode="normal" in="SourceGraphic" in2="effect1_dropShadow" result="shape"/>
</filter>
</defs>
</svg>
